<svg width="441" height="167" viewBox="0 0 441 167" fill="none" xmlns="http://www.w3.org/2000/svg">
<g clip-path="url(#clip0_2500_1167)">
<path d="M440 3H441V98H440V3Z" fill="black"/>
<path d="M429 3H430V98H429V3Z" fill="black"/>
<path d="M418 3H419V98H418V3Z" fill="black"/>
<path d="M407 3H408V98H407V3Z" fill="black"/>
<path d="M396 3H397V98H396V3Z" fill="black"/>
<path d="M385 3H386V98H385V3Z" fill="black"/>
<path d="M374 0H375V95H374V0Z" fill="black"/>
<path d="M308 0H309V95H308V0Z" fill="black"/>
<path d="M242 0H243V95H242V0Z" fill="black"/>
<path d="M429 -2H430V93H429V-2Z" fill="black"/>
<path d="M429 -2H430V93H429V-2Z" fill="black"/>
<path d="M441 11V12L202 12V11L441 11Z" fill="black"/>
<path d="M441 22V23L202 23V22L441 22Z" fill="black"/>
<path d="M441 33V34L202 34V33L441 33Z" fill="black"/>
<path d="M441 44V45L202 45V44L441 44Z" fill="black"/>
<path d="M441 55V56L202 56V55L441 55Z" fill="black"/>
<path d="M440 66V67L201 67V66L440 66Z" fill="black"/>
<path d="M440 77V78L201 78V77L440 77Z" fill="black"/>
<path d="M363 0H364V95H363V0Z" fill="black"/>
<path d="M297 0H298V95H297V0Z" fill="black"/>
<path d="M231 0H232V95H231V0Z" fill="black"/>
<path d="M418 -2H419V93H418V-2Z" fill="black"/>
<path d="M352 0H353V95H352V0Z" fill="black"/>
<path d="M286 0H287V95H286V0Z" fill="black"/>
<path d="M220 0H221V95H220V0Z" fill="black"/>
<path d="M407 -2H408V93H407V-2Z" fill="black"/>
<path d="M341 0H342V95H341V0Z" fill="black"/>
<path d="M275 0H276V95H275V0Z" fill="black"/>
<path d="M396 -2H397V93H396V-2Z" fill="black"/>
<path d="M330 0H331V95H330V0Z" fill="black"/>
<path d="M264 0H265V95H264V0Z" fill="black"/>
<path d="M198 0H199V95H198V0Z" fill="black"/>
<path d="M385 -2H386V93H385V-2Z" fill="black"/>
<path d="M319 0H320V95H319V0Z" fill="black"/>
<path d="M253 0H254V95H253V0Z" fill="black"/>
<path d="M187 0H188V95H187V0Z" fill="black"/>
<path d="M231 3H232V98H231V3Z" fill="black"/>
<path d="M220 3H221V98H220V3Z" fill="black"/>
<path d="M209 3H210V98H209V3Z" fill="black"/>
<path d="M198 3H199V98H198V3Z" fill="black"/>
<path d="M187 3H188V98H187V3Z" fill="black"/>
<path d="M176 3H177V98H176V3Z" fill="black"/>
<path d="M165 0H166V95H165V0Z" fill="black"/>
<path d="M99 0H100V95H99V0Z" fill="black"/>
<path d="M33 0H34V95H33V0Z" fill="black"/>
<path d="M220 -2H221V93H220V-2Z" fill="black"/>
<path d="M220 -2H221V93H220V-2Z" fill="black"/>
<path d="M232 11V12L-7 12V11L232 11Z" fill="black"/>
<path d="M232 22V23L-7 23V22L232 22Z" fill="black"/>
<path d="M232 33V34L-7 34V33L232 33Z" fill="black"/>
<path d="M232 44V45L-7 45V44L232 44Z" fill="black"/>
<path d="M232 55V56L-7 56V55L232 55Z" fill="black"/>
<path d="M231 66V67L-8 67V66L231 66Z" fill="black"/>
<path d="M231 77V78L-8 78V77L231 77Z" fill="black"/>
<path d="M154 0H155V95H154V0Z" fill="black"/>
<path d="M88 0H89V95H88V0Z" fill="black"/>
<path d="M22 0H23V95H22V0Z" fill="black"/>
<path d="M209 -2H210V93H209V-2Z" fill="black"/>
<path d="M143 0H144V95H143V0Z" fill="black"/>
<path d="M77 0H78V95H77V0Z" fill="black"/>
<path d="M11 0H12V95H11V0Z" fill="black"/>
<path d="M198 -2H199V93H198V-2Z" fill="black"/>
<path d="M132 0H133V95H132V0Z" fill="black"/>
<path d="M66 0H67V95H66V0Z" fill="black"/>
<path d="M187 -2H188V93H187V-2Z" fill="black"/>
<path d="M121 0H122V95H121V0Z" fill="black"/>
<path d="M55 0H56V95H55V0Z" fill="black"/>
<path d="M-11 0H-10V95H-11V0Z" fill="black"/>
<path d="M176 -2H177V93H176V-2Z" fill="black"/>
<path d="M110 0H111V95H110V0Z" fill="black"/>
<path d="M44 0H45V95H44V0Z" fill="black"/>
<path d="M-22 0H-21V95H-22V0Z" fill="black"/>
<path d="M440 81H441V176H440V81Z" fill="black"/>
<path d="M429 81H430V176H429V81Z" fill="black"/>
<path d="M418 81H419V176H418V81Z" fill="black"/>
<path d="M407 81H408V176H407V81Z" fill="black"/>
<path d="M396 81H397V176H396V81Z" fill="black"/>
<path d="M385 81H386V176H385V81Z" fill="black"/>
<path d="M374 78H375V173H374V78Z" fill="black"/>
<path d="M308 78H309V173H308V78Z" fill="black"/>
<path d="M242 78H243V173H242V78Z" fill="black"/>
<path d="M429 76H430V171H429V76Z" fill="black"/>
<path d="M429 76H430V171H429V76Z" fill="black"/>
<path d="M441 89V90L202 90V89L441 89Z" fill="black"/>
<path d="M441 100V101L202 101V100L441 100Z" fill="black"/>
<path d="M441 111V112L202 112V111L441 111Z" fill="black"/>
<path d="M441 122V123L202 123V122L441 122Z" fill="black"/>
<path d="M441 133V134L202 134V133L441 133Z" fill="black"/>
<path d="M440 144V145L201 145V144L440 144Z" fill="black"/>
<path d="M440 155V156L201 156V155L440 155Z" fill="black"/>
<path d="M363 78H364V173H363V78Z" fill="black"/>
<path d="M297 78H298V173H297V78Z" fill="black"/>
<path d="M231 78L232 78V173H231V78Z" fill="black"/>
<path d="M418 76H419V171H418V76Z" fill="black"/>
<path d="M352 78H353V173H352V78Z" fill="black"/>
<path d="M286 78H287V173H286V78Z" fill="black"/>
<path d="M220 78H221V173H220V78Z" fill="black"/>
<path d="M407 76H408V171H407V76Z" fill="black"/>
<path d="M341 78H342V173H341V78Z" fill="black"/>
<path d="M275 78H276V173H275V78Z" fill="black"/>
<path d="M396 76H397V171H396V76Z" fill="black"/>
<path d="M330 78H331V173H330V78Z" fill="black"/>
<path d="M264 78H265V173H264V78Z" fill="black"/>
<path d="M198 78H199V173H198V78Z" fill="black"/>
<path d="M385 76H386V171H385V76Z" fill="black"/>
<path d="M319 78H320V173H319V78Z" fill="black"/>
<path d="M253 78H254V173H253V78Z" fill="black"/>
<path d="M187 78H188V173H187V78Z" fill="black"/>
<path d="M231 81H232V176H231V81Z" fill="black"/>
<path d="M220 81H221V176H220V81Z" fill="black"/>
<path d="M209 81H210V176H209V81Z" fill="black"/>
<path d="M198 81H199V176H198V81Z" fill="black"/>
<path d="M187 81H188V176H187V81Z" fill="black"/>
<path d="M176 81H177V176H176V81Z" fill="black"/>
<path d="M165 78H166V173H165V78Z" fill="black"/>
<path d="M99 78H100V173H99V78Z" fill="black"/>
<path d="M33 78H34V173H33V78Z" fill="black"/>
<path d="M220 76H221V171H220V76Z" fill="black"/>
<path d="M220 76H221V171H220V76Z" fill="black"/>
<path d="M232 89V90L-7 90V89L232 89Z" fill="black"/>
<path d="M232 100V101L-7 101V100L232 100Z" fill="black"/>
<path d="M232 111V112L-7 112V111L232 111Z" fill="black"/>
<path d="M232 122V123L-7 123V122L232 122Z" fill="black"/>
<path d="M232 133V134L-7 134V133L232 133Z" fill="black"/>
<path d="M231 144V145L-8 145V144L231 144Z" fill="black"/>
<path d="M231 155V156L-8 156V155L231 155Z" fill="black"/>
<path d="M154 78H155V173H154V78Z" fill="black"/>
<path d="M88 78H89V173H88V78Z" fill="black"/>
<path d="M22 78H23V173H22V78Z" fill="black"/>
<path d="M209 76H210V171H209V76Z" fill="black"/>
<path d="M143 78H144V173H143V78Z" fill="black"/>
<path d="M77 78H78V173H77V78Z" fill="black"/>
<path d="M11 78H12V173H11V78Z" fill="black"/>
<path d="M198 76H199V171H198V76Z" fill="black"/>
<path d="M132 78H133V173H132V78Z" fill="black"/>
<path d="M66 78H67V173H66V78Z" fill="black"/>
<path d="M187 76H188V171H187V76Z" fill="black"/>
<path d="M121 78H122V173H121V78Z" fill="black"/>
<path d="M55 78H56V173H55V78Z" fill="black"/>
<path d="M-11 78H-10V173H-11V78Z" fill="black"/>
<path d="M176 76H177V171H176V76Z" fill="black"/>
<path d="M110 78H111V173H110V78Z" fill="black"/>
<path d="M44 78H45V173H44V78Z" fill="black"/>
<path d="M-22 78H-21V173H-22V78Z" fill="black"/>
</g>
<defs>
<clipPath id="clip0_2500_1167">
<rect width="441" height="167" fill="white"/>
</clipPath>
</defs>
</svg>
