<svg width="12" height="12" viewBox="0 0 12 12" fill="none" xmlns="http://www.w3.org/2000/svg">
<path fill-rule="evenodd" clip-rule="evenodd" d="M6.98749 1.67322C7.08029 1.71878 7.15543 1.79374 7.20121 1.88643C7.24699 1.97912 7.26084 2.08434 7.24061 2.18572L6.72812 4.75007H9.28122C9.37107 4.75006 9.45903 4.77588 9.53463 4.82445C9.61022 4.87302 9.67027 4.94229 9.70761 5.02402C9.74495 5.10574 9.75801 5.19648 9.74524 5.28542C9.73247 5.37437 9.69441 5.45776 9.63559 5.52569L5.57313 10.2131C5.50536 10.2912 5.41366 10.3447 5.31233 10.3653C5.211 10.3858 5.10571 10.3723 5.01285 10.3268C4.92 10.2813 4.8448 10.2064 4.79896 10.1137C4.75311 10.021 4.7392 9.9158 4.75939 9.81439L5.27188 7.25004H2.71878C2.62893 7.25005 2.54097 7.22423 2.46537 7.17566C2.38978 7.12709 2.32973 7.05782 2.29239 6.97609C2.25505 6.89437 2.24199 6.80363 2.25476 6.71469C2.26753 6.62574 2.30559 6.54235 2.36441 6.47443L6.42687 1.78697C6.49466 1.70879 6.58641 1.65524 6.68782 1.63467C6.78923 1.61409 6.89459 1.62765 6.98749 1.67322Z" fill="black"/>
</svg>
