<svg width="16" height="16" viewBox="0 0 16 16" fill="none" xmlns="http://www.w3.org/2000/svg">
<path fill-rule="evenodd" clip-rule="evenodd" d="M11 3.625C11 2.86561 11.6156 2.25 12.375 2.25C13.1344 2.25 13.75 2.86561 13.75 3.625C13.75 4.38401 13.135 4.99939 12.3761 5C12.3758 5 12.3754 5 12.375 5H11V3.625ZM9.75 5V3.625C9.75 2.17525 10.9253 1 12.375 1C13.8247 1 15 2.17525 15 3.625C15 4.98872 13.9601 6.10955 12.63 6.23777V6.25H12.3766C12.376 6.25 12.3755 6.25 12.375 6.25H11V9.75H12.375C13.8247 9.75 15 10.9253 15 12.375C15 13.8247 13.8247 15 12.375 15C11.0113 15 9.89045 13.9601 9.76223 12.63H9.75V12.3773L9.75 12.375V11H6.25V12.375C6.25 13.8247 5.07475 15 3.625 15C2.17525 15 1 13.8247 1 12.375C1 11.0113 2.03991 9.89045 3.37 9.76223V9.75H3.62274L3.625 9.75H5L5 6.25H3.625C2.17525 6.25 1 5.07475 1 3.625C1 2.17525 2.17525 1 3.625 1C4.98872 1 6.10955 2.03991 6.23777 3.37H6.25L6.25 5L9.75 5ZM9.75 6.25L6.25 6.25L6.25 9.75H9.75V6.25ZM3.625 11H5V12.375C5 13.1344 4.38439 13.75 3.625 13.75C2.86561 13.75 2.25 13.1344 2.25 12.375C2.25 11.6162 2.86472 11.0009 3.62336 11L3.625 11ZM11 12.3766C11.0009 13.1353 11.6162 13.75 12.375 13.75C13.1344 13.75 13.75 13.1344 13.75 12.375C13.75 11.6156 13.1344 11 12.375 11H11V12.375L11 12.3766ZM3.625 5C2.86561 5 2.25 4.38439 2.25 3.625C2.25 2.86561 2.86561 2.25 3.625 2.25C4.38439 2.25 5 2.86561 5 3.625V5H3.625Z" fill="black"/>
</svg>
