<svg width="16" height="16" viewBox="0 0 16 16" fill="none" xmlns="http://www.w3.org/2000/svg">
<path d="M9.19131 16V8.53964H10.6313L13.2953 14.3455C13.2553 13.8719 13.2153 13.4016 13.1753 12.9347C13.1353 12.4677 13.1153 11.9975 13.1153 11.5238V8.53964H14.3993V16H12.9593L10.2953 10.1941C10.3353 10.6678 10.3753 11.1381 10.4153 11.605C10.4553 12.0719 10.4753 12.5422 10.4753 13.0159V16H9.19131Z" fill="black"/>
<path d="M2 16V8.53964H4.208C4.408 8.53964 4.608 8.55318 4.808 8.58024C5.008 8.60731 5.2 8.65806 5.384 8.73249C5.568 8.80016 5.74 8.88813 5.9 8.9964C6.068 9.10467 6.216 9.22647 6.344 9.3618C6.472 9.49037 6.584 9.62909 6.68 9.77796C6.776 9.92683 6.86 10.0825 6.932 10.2449C7.004 10.4073 7.064 10.5731 7.112 10.7422C7.16 10.9046 7.196 11.0704 7.22 11.2396C7.252 11.4087 7.272 11.5813 7.28 11.7572C7.296 11.9264 7.304 12.0956 7.304 12.2647C7.304 12.4407 7.296 12.6166 7.28 12.7926C7.272 12.9617 7.252 13.1309 7.22 13.3001C7.196 13.4692 7.16 13.6384 7.112 13.8076C7.064 13.97 7.004 14.1324 6.932 14.2948C6.86 14.4572 6.776 14.6128 6.68 14.7617C6.584 14.9105 6.472 15.0526 6.344 15.188C6.216 15.3166 6.068 15.435 5.9 15.5432C5.74 15.6515 5.568 15.7429 5.384 15.8173C5.2 15.885 5.008 15.9323 4.808 15.9594C4.608 15.9865 4.408 16 4.208 16H2ZM3.284 15.0662H4.208C4.344 15.0662 4.48 15.0526 4.616 15.0256C4.752 14.9917 4.876 14.941 4.988 14.8733C5.108 14.7989 5.212 14.7177 5.3 14.6297C5.388 14.535 5.464 14.4369 5.528 14.3354C5.6 14.2339 5.66 14.129 5.708 14.0207C5.764 13.9057 5.808 13.7906 5.84 13.6756C5.872 13.5606 5.9 13.4455 5.924 13.3305C5.948 13.2155 5.968 13.1004 5.984 12.9854C6 12.8636 6.008 12.7452 6.008 12.6301C6.016 12.5083 6.02 12.3865 6.02 12.2647C6.02 12.1497 6.016 12.0347 6.008 11.9196C6.008 11.7978 6 11.6794 5.984 11.5644C5.968 11.4426 5.948 11.3242 5.924 11.2091C5.9 11.0941 5.872 10.9791 5.84 10.864C5.808 10.749 5.764 10.6373 5.708 10.5291C5.66 10.414 5.6 10.3058 5.528 10.2043C5.464 10.1028 5.388 10.008 5.3 9.92006C5.212 9.82533 5.108 9.74413 4.988 9.67646C4.876 9.60202 4.752 9.55127 4.616 9.52421C4.48 9.49037 4.344 9.47346 4.208 9.47346H3.284V15.0662Z" fill="black"/>
<path d="M11.7473 7.62276C11.5233 7.62276 11.2953 7.60584 11.0633 7.57201C10.8393 7.53817 10.6193 7.48404 10.4033 7.4096C10.1953 7.3284 10.0033 7.22352 9.82731 7.09495C9.65931 6.95961 9.51931 6.80736 9.40731 6.63819C9.29531 6.46226 9.21531 6.27955 9.16731 6.09009C9.11931 5.90062 9.09531 5.70776 9.09531 5.51153V2.11123C9.09531 1.91499 9.11531 1.72214 9.15531 1.53267C9.20331 1.33644 9.28331 1.15373 9.39531 0.984564C9.51531 0.815395 9.65931 0.666526 9.82731 0.537957C10.0033 0.402622 10.1953 0.294354 10.4033 0.213153C10.6193 0.131952 10.8393 0.0778178 11.0633 0.0507507C11.2953 0.0169169 11.5273 0 11.7593 0C11.9833 0 12.2033 0.0135335 12.4193 0.0406006C12.6353 0.0676677 12.8433 0.115035 13.0433 0.182703C13.2513 0.25037 13.4433 0.345105 13.6193 0.466907C13.7953 0.581942 13.9433 0.717277 14.0633 0.872912C14.1833 1.02855 14.2713 1.19772 14.3273 1.38042C14.3913 1.55635 14.4233 1.73906 14.4233 1.92853C14.4233 1.92853 14.4233 1.93191 14.4233 1.93868C14.4233 1.93868 14.4233 1.94206 14.4233 1.94883H13.1393C13.1393 1.94206 13.1393 1.93868 13.1393 1.93868C13.1393 1.78981 13.1033 1.64771 13.0313 1.51237C12.9593 1.37704 12.8553 1.26538 12.7193 1.17742C12.5913 1.08945 12.4433 1.02855 12.2753 0.994714C12.1073 0.954113 11.9353 0.933813 11.7593 0.933813C11.5753 0.933813 11.3913 0.957497 11.2073 1.00486C11.0313 1.05223 10.8753 1.13343 10.7393 1.24847C10.6113 1.35674 10.5193 1.48869 10.4633 1.64432C10.4073 1.79996 10.3793 1.95559 10.3793 2.11123V5.51153C10.3793 5.66716 10.4073 5.8228 10.4633 5.97843C10.5193 6.1273 10.6113 6.25925 10.7393 6.37429C10.8673 6.48256 11.0193 6.56376 11.1953 6.61789C11.3713 6.66526 11.5513 6.68894 11.7353 6.68894C11.8633 6.68894 11.9873 6.67879 12.1073 6.65849C12.2353 6.63819 12.3553 6.60436 12.4673 6.55699C12.5793 6.50962 12.6793 6.45211 12.7673 6.38444C12.8633 6.31 12.9353 6.22542 12.9833 6.13069C13.0393 6.03595 13.0753 5.93445 13.0913 5.82618C13.1073 5.71791 13.1153 5.61303 13.1153 5.51153V4.36456H11.7953V3.43075H14.3993V5.51153C14.3993 5.70776 14.3833 5.904 14.3513 6.10023C14.3273 6.29647 14.2593 6.48256 14.1473 6.65849C14.0353 6.82766 13.8873 6.97991 13.7033 7.11525C13.5273 7.24382 13.3313 7.34532 13.1153 7.41975C12.8993 7.49419 12.6753 7.54494 12.4433 7.57201C12.2193 7.60584 11.9873 7.62276 11.7473 7.62276Z" fill="black"/>
<path d="M2 7.54155V0.081192H4.58C4.812 0.081192 5.044 0.101492 5.276 0.142093C5.508 0.175926 5.728 0.240211 5.936 0.334945C6.144 0.42968 6.328 0.551482 6.488 0.700351C6.648 0.842452 6.776 1.00485 6.872 1.18756C6.976 1.36349 7.048 1.54958 7.088 1.74582C7.128 1.94205 7.148 2.14167 7.148 2.34467C7.148 2.54091 7.128 2.73715 7.088 2.93338C7.048 3.12962 6.976 3.31909 6.872 3.50179C6.776 3.67773 6.648 3.84013 6.488 3.989C6.328 4.13787 6.144 4.25967 5.936 4.3544C5.728 4.44914 5.508 4.5168 5.276 4.5574C5.044 4.59124 4.812 4.60816 4.58 4.60816H3.284V7.54155H2ZM4.58 3.66419C4.772 3.66419 4.956 3.63036 5.132 3.56269C5.316 3.49502 5.464 3.3969 5.576 3.26834C5.688 3.133 5.764 2.98752 5.804 2.83188C5.844 2.66948 5.864 2.50708 5.864 2.34467C5.864 2.18227 5.844 2.01987 5.804 1.85747C5.764 1.69506 5.688 1.54958 5.576 1.42101C5.464 1.28568 5.316 1.18417 5.132 1.11651C4.956 1.04884 4.772 1.01501 4.58 1.01501H3.284V3.66419H4.58Z" fill="black"/>
</svg>
