<svg xmlns="http://www.w3.org/2000/svg" width="48" height="48" fill="none">
  <g fill="#00ACD7" clip-path="url(#a)">
    <path fill-rule="evenodd"
      d="M5.8 19.334c-.08 0-.093-.054-.067-.107l.4-.533a.421.421 0 0 1 .227-.08h6.893c.08 0 .094.053.067.106l-.334.507c-.04.053-.133.12-.2.12L5.8 19.32v.014Zm-2.92 1.773c-.08 0-.093-.04-.053-.107l.4-.52c.04-.053.133-.093.213-.093h8.8c.093 0 .133.053.107.12l-.16.453c-.014.08-.094.134-.174.134H2.88v.013Zm4.68 1.773c-.08 0-.107-.053-.067-.12l.267-.48c.053-.053.133-.12.2-.12h3.866c.08 0 .12.067.12.134l-.04.466c0 .08-.08.134-.133.134L7.56 22.88Zm20.053-3.906-3.24.853c-.293.08-.32.093-.56-.2-.293-.32-.506-.533-.92-.733a3.36 3.36 0 0 0-3.493.293 4.107 4.107 0 0 0-1.973 3.667 3.027 3.027 0 0 0 2.613 3.04c1.306.173 2.413-.294 3.28-1.28l.533-.707H20.12c-.4 0-.507-.267-.373-.587.253-.6.72-1.6.986-2.106a.533.533 0 0 1 .48-.307h7.04c-.04.533-.04 1.04-.12 1.573-.213 1.387-.733 2.667-1.586 3.787a8.053 8.053 0 0 1-5.507 3.28 6.839 6.839 0 0 1-5.2-1.28A6.065 6.065 0 0 1 13.386 24c-.24-2.106.374-4 1.654-5.666A8.573 8.573 0 0 1 20.44 15a6.667 6.667 0 0 1 5.12.934c1.027.666 1.76 1.6 2.253 2.733.107.173.027.267-.2.32v-.013Z"
      clip-rule="evenodd" />
    <path
      d="M34 29.667a7.253 7.253 0 0 1-4.707-1.707 6.066 6.066 0 0 1-2.08-3.733 7.373 7.373 0 0 1 1.56-5.827 8.107 8.107 0 0 1 5.413-3.226 7.173 7.173 0 0 1 5.507.986 6.015 6.015 0 0 1 2.72 4.307 7.467 7.467 0 0 1-2.227 6.547 8.854 8.854 0 0 1-4.626 2.48c-.534.093-1.054.106-1.547.173H34Zm4.613-7.813c-.027-.254-.027-.44-.067-.64a3.186 3.186 0 0 0-3.933-2.547 4.227 4.227 0 0 0-3.387 3.36A3.187 3.187 0 0 0 33 25.68c1.066.454 2.133.4 3.16-.133a4.227 4.227 0 0 0 2.453-3.68v-.013Z" />
  </g>
  <defs>
    <clipPath id="a">
      <path fill="#fff" d="M4 4h40v40H4z" />
    </clipPath>
  </defs>
</svg>
