<svg xmlns="http://www.w3.org/2000/svg" width="48" height="48" fill="none">
  <path fill="#89D42C"
    d="M23.675 39.82a2.48 2.48 0 0 1-1.19-.313l-3.764-2.236c-.568-.31-.285-.425-.114-.48.765-.256.906-.313 1.698-.765.086-.057.198-.029.284.028l2.888 1.727c.113.057.254.057.34 0l11.296-6.54c.113-.057.17-.17.17-.312v-13.05c0-.143-.057-.256-.17-.313l-11.296-6.51c-.114-.057-.256-.057-.34 0L12.18 17.567c-.114.057-.17.198-.17.311V30.93c0 .114.056.255.17.312l3.087 1.784c1.67.849 2.717-.143 2.717-1.133V19.01a.344.344 0 0 1 .34-.34h1.443a.344.344 0 0 1 .341.34v12.882c0 2.237-1.218 3.539-3.342 3.539-.65 0-1.16 0-2.604-.708l-2.975-1.698A2.39 2.39 0 0 1 10 30.959V17.904c0-.849.452-1.642 1.189-2.066l11.296-6.54a2.527 2.527 0 0 1 2.379 0l11.297 6.54a2.39 2.39 0 0 1 1.188 2.066V30.96c0 .85-.452 1.642-1.188 2.066l-11.297 6.54a2.896 2.896 0 0 1-1.189.256v-.001Zm3.482-8.976c-4.954 0-5.973-2.264-5.973-4.19a.344.344 0 0 1 .34-.34h1.472c.169 0 .311.114.311.284.226 1.5.878 2.236 3.879 2.236 2.378 0 3.397-.538 3.397-1.812 0-.736-.283-1.274-3.992-1.642-3.086-.311-5.012-.99-5.012-3.454 0-2.293 1.926-3.652 5.154-3.652 3.623 0 5.407 1.246 5.634 3.963a.459.459 0 0 1-.086.256c-.056.056-.141.113-.226.113h-1.472a.332.332 0 0 1-.311-.256c-.34-1.555-1.217-2.066-3.539-2.066-2.605 0-2.916.906-2.916 1.585 0 .821.368 1.076 3.878 1.53 3.483.452 5.124 1.104 5.124 3.539-.027 2.491-2.066 3.907-5.662 3.907Z" />
</svg>
