<svg xmlns="http://www.w3.org/2000/svg" width="48" height="48" fill="none">
  <path fill="#6181B6" fill-rule="evenodd"
    d="M14.643 21.762h-1.77l-.964 4.965h1.57c1.043 0 1.82-.198 2.33-.59.51-.393.853-1.047 1.03-1.966.173-.882.095-1.503-.232-1.866-.328-.362-.98-.543-1.962-.543h-.002Z"
    clip-rule="evenodd" />
  <path fill="#6181B6"
    d="M24 13.29c-12.426 0-22.5 5.3-22.5 11.835 0 6.535 10.074 11.837 22.5 11.837s22.5-5.3 22.5-11.837S36.426 13.29 24 13.29Zm-6.113 13.971a4.55 4.55 0 0 1-1.718 1.032c-.63.203-1.434.308-2.41.308h-2.215l-.612 3.152H8.346l2.307-11.861h4.968c1.494 0 2.585.391 3.27 1.177.687.785.893 1.88.618 3.285a5.34 5.34 0 0 1-.57 1.588c-.28.493-.634.938-1.053 1.319h.002Zm7.546 1.34 1.018-5.247c.119-.598.073-1.005-.128-1.221-.2-.218-.63-.328-1.288-.328h-2.047l-1.32 6.799h-2.566L21.41 16.74h2.561l-.611 3.155h2.282c1.439 0 2.429.25 2.975.75.546.499.708 1.314.492 2.437l-1.073 5.52h-2.604V28.6Zm14.243-4.245a5.215 5.215 0 0 1-.571 1.586 5.356 5.356 0 0 1-1.051 1.319c-.49.467-1.078.82-1.721 1.032-.63.203-1.434.308-2.41.308H31.71l-.614 3.154h-2.581l2.305-11.862h4.968c1.495 0 2.584.393 3.27 1.177.686.784.895 1.878.62 3.285h-.002Z" />
  <path fill="#6181B6" fill-rule="evenodd"
    d="M34.81 21.762h-1.765l-.968 4.965h1.571c1.044 0 1.821-.198 2.33-.59.51-.393.852-1.047 1.032-1.966.172-.882.093-1.503-.234-1.866-.326-.362-.983-.543-1.964-.543h-.002Z"
    clip-rule="evenodd" />
</svg>
