<svg xmlns="http://www.w3.org/2000/svg" width="48" height="48" fill="none">
  <path fill="#D91505"
    d="M33.735 10.41c3.376.585 4.334 2.893 4.262 5.311l.017-.035-1.519 19.912-19.752 1.352h.017c-1.639-.069-5.294-.218-5.46-5.328l1.83-3.34 3.139 7.331.56 1.306L19.95 26.74l-.032.007.017-.034 10.302 3.29-1.555-6.044-1.101-4.341 9.817-.634-.684-.567-7.048-5.746 4.073-2.272-.004.012v-.001ZM17.01 15.966c3.963-3.932 9.079-6.256 11.044-4.274 1.96 1.98-.118 6.796-4.089 10.726-3.966 3.931-9.02 6.382-10.98 4.405-1.967-1.98.05-6.921 4.02-10.853l.005-.004Z" />
</svg>
