/* XPM */
static char *vimlogo[] = {
/* width height num_colors chars_per_pixel */
"   125    60        8            1",
/* colors */
". c #000000",
"# c #00007f",
"a c #007f00",
"b c #7f7f7f",
"c c #00ff00",
"d c #bfbfbf",
"e c #ffffff",
"f c None",
/* pixels */
"fffffffffffffffffffffffffffee..eeffffffffffffffffffffffffffffffffffffffffffffffffffffffffffffffffffffffffffffffffffffffffffff",
"ffffffffffffffffffffffffffee.cc.eefffffffffffffffffffffffffffffffffffffffffffffffffffffffffffffffffffffffffffffffffffffffffff",
"fffffffffffffffffffffffffee.cccc.eeffffffffffffffffffffffffffffffffffffffffffffffffffffffffffffffffffffffffffffffffffffffffff",
"ffffffeeeeeeeeeeeeeeeeeeee.ccaacc.eeffeeeeeeeeeeeeeeeeeeeeeffffffffffffffffffffffffffffffffffffffffffffffffffffffffffffffffff",
"fffffee....................caaaacc.eeee...................eefffffffffffffffffffffffffffffffffffffffffffffffffffffffffffffffff",
"ffffee.deeeeeeeeeeeeeeeeeeb.aaaaacc.ee.deeeeeeeeeeeeeeeeeb.eeffffffffffffffffffffffffffffffffffffffffffffffffffffffffffffffff",
"ffffe.dedddddddddddddddddddb.aaaaacc..dedddddddddddddddddd.beffffffffffffffffffffffffffffffffffffffffffffffffffffffffffffffff",
"ffffe.eddddddddddddddddddddb.aaaaaacc.edddddddddddddddddddb.effffffffffffffffffffffffffffffffffffffffffffffffffffffffffffffff",
"ffffe.eddddddddddddddddddddb.aaaaaaac.edddddddddddddddddddb.effffffffffffffffffffffffffffffffffffffffffffffffffffffffffffffff",
"ffffe.edddddddddddddddddddbb.aaaaaaaa.eddddddddddddddddddbb.effffffffffffffffffffffffffffffffffffffffffffffffffffffffffffffff",
"ffffe.bbdddddddddddddddddbbb.aaaaaaaa.bbddddddddddddddddbb.befffffffffffffffffffffffffffeeeeeffffffffffffffffffffffffffffffff",
"ffffee.bbbbddddddddddddbbbb.aaaaaaaaaa.bbbbddddddddddddbbb.eefffffffffffffffeeeeeeeeeeeee...effffffffffffffffffffffffffffffff",
"fffffee..beddddddddddddbbb.aaaaaaaaaaaa..dedddddddddddbbb.eeffffffffffffffffe..........ee...effffffffffffffffffffffffffffffff",
"ffffffeee.eddddddddddddbb.aaaaaaaaaaaaa.eedddddddddddbbb.eefffffffffffffffffe..........eee..eeeeeefffeeeeeeefffffffffffffffff",
"ffffffffe.eddddddddddddbb.aaaaaaaaaaaa.eedddddddddddbbb.eeffffffffffffffffffe..ee..ee..efe..e....eefee.....eeffffffffffffffff",
"ffffffffe.eddddddddddddbb.aaaaaaaaaaa.eedddddddddddbbb.eefffffffffffffffffffe..ee..ee..efe........eee.......eefffffffffffffff",
"ffffffffe.eddddddddddddbb.aaaaaaaaaa.eedddddddddddbbb.eeffffffffffffffffffffe..ee..ee..efe...eee..ee..eeeee..efffffffffffffff",
"ffffffffe.eddddddddddddbb.aaaaaaaaa.eedddddddddddbbb.eefffffffffffffffffffffeeeee..eeeeefe..eefe..ee.........efffffffffffffff",
"ffffffffe.eddddddddddddbb.aaaaaaaa.eedddddddddddbbb.eeffffffffffffffffffffffffffe..efffffe..effe..ee.........efffffffffffffff",
"ffffffffe.eddddddddddddbb.aaaaaaa.eedddddddddddbbb.eefffffffffffffffffffffffffffe..efffffe..effe..ee..eeeeeeeefffffffffffffff",
"fffffffee.eddddddddddddbb.aaaaaa.eedddddddddddbbb.eeffffffffffffffffffffffffffeee..eeeffee..eeee..ee...eeee..efffffffffffffff",
"ffffffee..eddddddddddddbb.aaaaa.eedddddddddddbbb.c.eefffffffffffffffffffffffffe......effe....ee....ee........efffffffffffffff",
"fffffee.c.eddddddddddddbb.aaaa.eedddddddddddbbb.acc.eeffffffffffffffffffffffffe......effe....ee....eee......eefffffffffffffff",
"ffffee.cc.eddddddddddddbb.aaa.eedddddddddddbbb.aaacc.eefffffffffffffffffffffffeeeeeeeeffeeeeeeeeeeeefeeeeeeeeffffffffffffffff",
"fffee.cca.eddddddddddddbb.aa.eedddddddddddbbb.aaaaacc.eefffffffffffffffffffffffffffffffffffffffffffffffffffffffffffffffffffff",
"ffee.ccaa.eddddddddddddbb.a.eedddddddddddbbb.aaaaaaacc.eeffffffffffffffffffffffffffffffffffffffffffffffffffffffffffffffffffff",
"fee.ccaaa.eddddddddddddbb..eedddddddddddbbb.aaaaaaaaacc.eefffffffffffffffffffffffffffffffffffffffffffffffffffffffffffffffffff",
"ee.ccaaaa.eddddddddddddbb.eedddddddddddbbb.aaaaaaaaaaacc.eeffffffffffffffffffffffffffffffffffffffffffffffffffffffffffffffffff",
"e.ccaaaaa.eddddddddddddbbeedddddddddddbbb.aaaaaaaaaaaaacc.eefffffffffffffffffffffffffffffffffffffffffffffffffffffffffffffffff",
"...aaaaaa.eddddddddddddbdedddddddddddbbb.aaaaaaaaaaaaaaacc.eeffffffffffffffffffffffffffffffffffffffffffffffffffffffffffffffff",
"e.##aaaaa.eddddddddddddbedddddddddddbbb.aaaaaaaaaaaaaaaaa...effffffffffffffffeeeeeffffeeeefffffeeeeffffffffffffffffffffffffff",
"ee.##aaaa.eddddddddddddddddddddddddbbb.aaaaaaaaaaaaaaaaa##.eeffffffffffffffffe...effffe..efffffe..effffffffffffffffffffffffff",
"fee.##aaa.edddddddddddddddddddddddbbb.aaaaaaaaaaaaaaaaa##.eefffffffffffffffffe...effffe..efffffe..effffffffffffffffffffffffff",
"ffee.##aa.eddddddddddddddddddddddbbb.aaaaaaaaaaaaaaaaa##.eefffeeeeeeeffffeeeeee..efeeeeeeefffeee..eeeeefffeeeeeeeffeeeeeeeeee",
"fffee.##a.edddddddddddddddddddddbbb.aaaaaaaaaaaaaaaaa##.eefffee.....eeffee....e..efe.....efffe........effee.....eefe....e...e",
"ffffee.##.edddddddddddddddddddd....aaaaaaaaaaaaaaaaa##.eefffee.......eeee........efe.....efffe........efee.......eee.........",
"fffffee.#.eddddddddddddddddddd.dbb.aaaaaaaaaaaaaaaa##.eeffffe..eeeee..ee...eee...efeeee..efffeee..eeeeefe...eee...eeee...ee..",
"ffffffee..eddddddddddddddddddd.ddb.aaaaaaaaaaaaaaa##.eefffffe.........ee..eefee..effffe..efffffe..efffffe..eefee..effe..eeeee",
"fffffffee.eddddddddddddddddddb.bbb.aaaaaaaaaaaaaa##.eeffffffe.........ee..efffe..effffe..efffffe..efffffe..efffe..effe..effff",
"ffffffffe.edddddddddddddddddbbb...aaaaaaaaaaaaaa##.eeeeeeeffe..eeeeeeeee..eefee..effffe..efffffe..efeeeee..eefee..effe..effff",
"ffffffffe.eddddddddddddddddbb......aa.....aa.....#......beefe...eeee..ee...eee...eeeeee..eeeeffe..eee..ee...eee...eeee..eeeee",
"ffffffffe.edddddddddddddddbbb.dbbb.aa.dbbb..dbbbb..dbbbb.befee........eee.........ee........effe.......eee.......eee........e",
"ffffffffe.eddddddddddddddbbb..bdd.aaa.bdddbbdddddbbdddddb.effee......eefee....e...ee........effee....eeefee.....eefe........e",
"ffffffffe.edddddddddddddbbb.a.ddb.aaa.ddddddddddddddddddb.efffeeeeeeeefffeeeeeeeeeeeeeeeeeeeefffeeeeeeffffeeeeeeeffeeeeeeeeee",
"ffffffffe.eddddddddddddbbb.a.bddb.aa.bdddbbbbddddbbbbdddb.effffffffffffffffffffffffffffffffffffffffffffffffffffffffffffffffff",
"ffffffffe.edddddddddddbbb.aa.bdd.aaa.bddb....bddb....bdd.beffffffffffffffffffffffffffffffffffffffffffffffffffffffffffffffffff",
"ffffffffe.eddddddddddbbb.aaa.ddb.aaa.ddb.##b.ddb.eeb.ddb.eeffffffffffffffffffffffffffffffffffffffffffffffffffffffffffffffffff",
"ffffffffe.edddddddddbbb..aa.bddb.aa.bddb.#e.bddb.ee.bddb.efffffffffffffffffffffffffffffffffffffffffffffffffffffffffffffffffff",
"ffffffffe.eddddddddbbb..aaa.bdd.aaa.bdd.#ee.bdd.bee.bdd.befffffffffffffffffffffffffffffffffffffffffffffffffffffffffffffffffff",
"ffffffffe.edddddddbbb.aaaaa.ddb.aaa.ddb.eeb.ddb.eeb.ddb.eefffffffffffffffffffffffffffffffffffffffffffffffffffffffffffffffffff",
"ffffffffe.eddddddbbb.##aaa.bddb.aa.bddb.ee.bddb.ee.bddb.effffffffffffffffffffffffffffffffffffffffffffffffffffffffffffffffffff",
"ffffffffe.edddddbbb.e.##aa.bdd.aaa.bdd.bee.bdd.bee.bdd.beffffffffffffffffffffffffffffffffffffffffffffffffffffffffffffffffffff",
"ffffffffe.bddddbbb.eee.##a.ddb.aaa.ddb.eeb.ddb.eeb.ddb.eeffffffffffffffffffffffffffffffffffffffffffffffffffffffffffffffffffff",
"ffffffffee..bbbb..eefee.#.bbbbb.a.bbbbb.e.bbbbb.e.bbbbb.effffffffffffffffffffffffffffffffffffffffffffffffffffffffffffffffffff",
"fffffffffeeb....beefffee........a.......e.......e.......effffffffffffffffffffffffffffffffffffffffffffffffffffffffffffffffffff",
"ffffffffffeeeeeeeefffffee.##aaaa##.eeeeeeeeeeeeeeeeeeeeeeffffffffffffffffffffffffffffffffffffffffffffffffffffffffffffffffffff",
"ffffffffffffffffffffffffee.##aa##.eefffffffffffffffffffffffffffffffffffffffffffffffffffffffffffffffffffffffffffffffffffffffff",
"fffffffffffffffffffffffffee.####.eeffffffffffffffffffffffffffffffffffffffffffffffffffffffffffffffffffffffffffffffffffffffffff",
"ffffffffffffffffffffffffffee.##.eefffffffffffffffffffffffffffffffffffffffffffffffffffffffffffffffffffffffffffffffffffffffffff",
"fffffffffffffffffffffffffffee..eeffffffffffffffffffffffffffffffffffffffffffffffffffffffffffffffffffffffffffffffffffffffffffff"
};
