<svg xmlns="http://www.w3.org/2000/svg" width="1333.333" height="1333.333" preserveAspectRatio="xMidYMid meet" version="1.0" viewBox="-100 -100 1300 1300"><g fill="#c33" stroke="none"><path d="M4760 9994 c-878 -57 -1572 -265 -2295 -687 -547 -320 -1046 -765 -1452 -1297 -427 -560 -756 -1283 -898 -1980 -70 -343 -99 -636 -99 -1015 0 -303 8 -438 45 -705 145 -1053 642 -2052 1399 -2810 413 -414 829 -712 1345 -965 562 -275 1142 -438 1750 -490 219 -19 670 -19 885 0 1032 89 2031 511 2810 1186 160 139 420 400 551 554 593 695 996 1582 1130 2484 66 445 66 1058 0 1486 -78 508 -228 985 -456 1450 -253 515 -550 930 -965 1345 -610 610 -1374 1050 -2223 1281 -258 70 -510 115 -812 145 -143 14 -599 26 -715 18z m510 -404 c635 -39 1193 -187 1756 -466 469 -231 830 -492 1209 -869 209 -208 333 -352 476 -550 485 -669 768 -1419 854 -2260 17 -166 20 -655 5 -825 -76 -841 -366 -1617 -865 -2310 -246 -343 -662 -759 -1005 -1005 -693 -499 -1468 -789 -2310 -865 -170 -15 -659 -12 -825 5 -841 86 -1591 369 -2260 854 -371 268 -752 651 -1035 1040 -260 357 -506 847 -638 1266 -133 423 -190 738 -214 1187 -44 832 150 1680 552 2414 228 414 467 730 812 1070 330 326 619 542 1022 764 749 410 1610 602 2466 550z" transform="translate(0.000000,1000.000000) scale(0.100000,-0.100000)"/><path d="M4990 8095 c-75 -22 -135 -53 -188 -100 -39 -34 -64 -79 -198 -350 -84 -170 -414 -863 -734 -1540 -760 -1606 -1960 -4135 -1971 -4157 -9 -17 16 -18 473 -18 l483 0 209 463 c340 752 898 1971 905 1979 7 8 -99 82 1825 -1284 1088 -773 1558 -1101 1623 -1134 121 -61 196 -73 313 -50 164 31 282 115 343 243 28 59 32 78 31 149 l0 80 -189 405 c-388 834 -1655 3511 -2254 4762 -99 208 -195 396 -212 418 -39 50 -106 96 -173 120 -75 26 -217 33 -286 14z m178 -1318 c24 -50 200 -432 392 -847 867 -1879 1199 -2604 1197 -2607 -4 -3 -422 277 -712 477 -570 392 -1724 1193 -1748 1212 l-28 23 89 200 c120 270 391 858 552 1200 72 154 148 315 168 358 19 42 38 77 41 77 3 0 25 -42 49 -93z" transform="translate(0.000000,1000.000000) scale(0.100000,-0.100000)"/></g></svg>
