<svg width="16" height="16" viewBox="0 0 16 16" fill="none" xmlns="http://www.w3.org/2000/svg">
    <path d="M6.64076 13.2516C6.03572 12.7646 5.85909 11.7413 6.11118 11C6.54826 11.4674 7.15387 11.6155 7.78116 11.699C8.74955 11.828 9.70061 11.7798 10.6002 11.39C10.7031 11.3454 10.7982 11.2861 10.9107 11.226C10.9951 11.4416 11.0171 11.6593 10.9876 11.8809C10.9159 12.4205 10.6109 12.8373 10.1258 13.1533C9.93187 13.2797 9.72663 13.3927 9.5263 13.5119C8.91086 13.8781 8.74435 14.3076 8.97561 14.9324C8.98111 14.9476 8.98602 14.9628 8.99845 15C8.68422 14.8761 8.4547 14.6958 8.2798 14.4588C8.09509 14.2086 8.00721 13.9318 8.00259 13.6324C8.00028 13.4866 8.00028 13.3396 7.97802 13.1959C7.92367 12.8456 7.73692 12.6888 7.38512 12.6797C7.02407 12.6705 6.73847 12.867 6.66273 13.1765C6.65695 13.2003 6.64915 13.224 6.64076 13.2516Z" fill="#17191E"/>
    <path fill-rule="evenodd" clip-rule="evenodd" d="M6.30827 9.9337L7.7328 6.2643C7.82177 6.03515 8.17824 6.03515 8.26719 6.2643L9.69173 9.9337C9.69652 9.94603 9.70626 9.95619 9.7189 9.9622C9.80645 9.95762 9.89466 9.9553 9.98347 9.9553C10.8505 9.9553 11.6607 10.1766 12.3495 10.5604C12.5306 10.6613 12.7793 10.4649 12.7002 10.2733L9.83801 3.3343C9.75507 3.13321 9.54362 3 9.30739 3H6.69261C6.45638 3 6.24493 3.13321 6.16199 3.3343L3.29977 10.2733C3.22071 10.4649 3.46945 10.6613 3.65055 10.5604C4.3393 10.1766 5.14949 9.9553 6.01653 9.9553C6.10534 9.9553 6.19356 9.95762 6.2811 9.9622C6.29374 9.95619 6.30348 9.94603 6.30827 9.9337Z" fill="black"/>
</svg>
