<svg width="14" height="14" viewBox="0 0 14 14" fill="none" xmlns="http://www.w3.org/2000/svg">
<path d="M5.32668 11.5331C4.78215 10.9852 4.62318 9.834 4.85006 9C5.24343 9.52582 5.78848 9.69239 6.35304 9.78642C7.2246 9.93151 8.08055 9.87724 8.89019 9.43877C8.98281 9.38857 9.06841 9.32182 9.16962 9.25421C9.24559 9.49681 9.26536 9.74172 9.23882 9.99099C9.1743 10.5981 8.89982 11.067 8.46326 11.4225C8.28869 11.5647 8.10397 11.6918 7.92367 11.8259C7.36978 12.2379 7.21992 12.7211 7.42805 13.4239C7.433 13.4411 7.43742 13.4582 7.44861 13.5C7.1658 13.3606 6.95923 13.1578 6.80182 12.8911C6.63558 12.6097 6.55649 12.2983 6.55233 11.9614C6.55025 11.7974 6.55025 11.632 6.53022 11.4704C6.4813 11.0763 6.31323 10.8999 5.99661 10.8897C5.67166 10.8793 5.41462 11.1004 5.34646 11.4486C5.34125 11.4753 5.33371 11.5017 5.32616 11.5328L5.32668 11.5331Z" fill="#17191E" fill-opacity="0.6"/>
<path fill-rule="evenodd" clip-rule="evenodd" d="M5.30826 8.62679L6.73279 4.5906C6.82176 4.33854 7.17823 4.33854 7.26719 4.5906L8.69173 8.62679C8.69652 8.64035 8.70626 8.65153 8.7189 8.65814C8.80645 8.6531 8.89466 8.65055 8.98347 8.65055C10.1418 8.65055 11.1986 9.08493 12 9.79967L8.83801 1.36772C8.75507 1.14653 8.54362 1 8.30739 1H5.6926C5.45637 1 5.24492 1.14653 5.16198 1.36772L1.99999 9.79968C2.80137 9.08493 3.85822 8.65055 5.01652 8.65055C5.10533 8.65055 5.19355 8.6531 5.28109 8.65814C5.29373 8.65153 5.30347 8.64035 5.30826 8.62679Z" fill="black"/>
</svg>
