<svg width="14" height="14" viewBox="0 0 14 14" fill="none" xmlns="http://www.w3.org/2000/svg">
<path d="M5.64076 12.2516C5.03572 11.7646 4.85909 10.7413 5.11118 10C5.54826 10.4674 6.15387 10.6155 6.78116 10.699C7.74955 10.828 8.70061 10.7798 9.60021 10.39C9.70312 10.3454 9.79823 10.2861 9.91068 10.226C9.99509 10.4416 10.0171 10.6593 9.98757 10.8809C9.91588 11.4205 9.61091 11.8373 9.12584 12.1533C8.93187 12.2797 8.72663 12.3927 8.5263 12.5119C7.91086 12.8781 7.74435 13.3076 7.97561 13.9324C7.98111 13.9476 7.98602 13.9628 7.99845 14C7.68422 13.8761 7.4547 13.6958 7.2798 13.4588C7.09509 13.2086 7.00721 12.9318 7.00259 12.6324C7.00028 12.4866 7.00028 12.3396 6.97802 12.1959C6.92367 11.8456 6.73692 11.6888 6.38512 11.6797C6.02407 11.6705 5.73847 11.867 5.66273 12.1765C5.65695 12.2003 5.64915 12.224 5.64076 12.2516Z" fill="#17191E"/>
<path fill-rule="evenodd" clip-rule="evenodd" d="M5.30827 8.9337L6.7328 5.2643C6.82177 5.03515 7.17823 5.03515 7.26719 5.2643L8.69173 8.9337C8.69652 8.94603 8.70626 8.95619 8.7189 8.9622C8.80645 8.95762 8.89466 8.9553 8.98347 8.9553C9.85054 8.9553 10.6607 9.17658 11.3495 9.5604C11.5306 9.66132 11.7793 9.46494 11.7002 9.27329L8.83801 2.3343C8.75507 2.13321 8.54362 2 8.30739 2H5.69261C5.45638 2 5.24493 2.13321 5.16199 2.3343L2.29977 9.27327C2.22071 9.46492 2.46945 9.66131 2.65055 9.56039C3.3393 9.17657 4.14949 8.9553 5.01653 8.9553C5.10534 8.9553 5.19356 8.95762 5.2811 8.9622C5.29374 8.95619 5.30348 8.94603 5.30827 8.9337Z" fill="black"/>
</svg>
