<svg width="14" height="14" viewBox="0 0 14 14" fill="none" xmlns="http://www.w3.org/2000/svg">
<path d="M7 11C5.46973 11 4.1268 11.1873 3.31522 11.3327C2.94367 11.3992 2.60079 11.0563 2.66733 10.6848C2.81266 9.8732 3 8.53027 3 7C3 5.8387 2.89211 4.78529 2.77656 3.99011C2.73589 3.71017 3.19546 3.51715 3.36119 3.7464C4.09612 4.76304 5.23301 6.23301 6.5 7.5C7.76699 8.76699 9.23696 9.90388 10.2536 10.6388C10.4828 10.8045 10.2898 11.2641 10.0099 11.2234C9.21472 11.1079 8.1613 11 7 11Z" stroke="black" stroke-width="1.25" stroke-linecap="round" stroke-linejoin="round"/>
<path d="M12.365 3.8478L10.3381 1.82088" stroke="black" stroke-opacity="0.3" stroke-width="1.25" stroke-linecap="round"/>
<path d="M11.3516 7.36803L6.64062 2.64155" stroke="black" stroke-opacity="0.6" stroke-width="1.25" stroke-linecap="round"/>
<rect x="2.72266" y="8.73828" width="3.58525" height="2.72899" rx="0.5" transform="rotate(45 2.72266 8.73828)" fill="black"/>
</svg>
