<svg xmlns="http://www.w3.org/2000/svg"  viewBox="0 0 19 19" width="16px" height="16px"><path d="M 12.072266 2.3964844 C 11.818641 2.4299844 11.576203 2.5592969 11.408203 2.7792969 C 11.072203 3.2192969 11.157703 3.8456406 11.595703 4.1816406 L 14.630859 6.5 L 4.25 6.5 C 3.56 6.5 3 7.06 3 7.75 C 3 8.44 3.56 9 4.25 9 L 8.2519531 9 L 1.5644531 14.326172 C 0.91645312 14.842172 0.81017187 15.786594 1.3261719 16.433594 C 1.6231719 16.806594 2.0609531 17 2.5019531 17 C 2.8299531 17 3.1595469 16.894828 3.4355469 16.673828 L 7.0058594 13.828125 C 7.0528594 17.795125 10.611 21 15 21 C 19.418 21 23 17.754 23 13.75 C 23 11.593 21.955641 9.6619844 20.306641 8.3339844 C 20.291641 8.3209844 20.284578 8.3010625 20.267578 8.2890625 L 12.810547 2.5917969 C 12.591047 2.4257969 12.325891 2.3629844 12.072266 2.3964844 z M 15.023438 9.0332031 C 17.778438 9.0332031 20.011719 10.930437 20.011719 13.273438 C 20.011719 15.613437 17.778438 17.509766 15.023438 17.509766 C 12.270437 17.509766 10.039062 15.613438 10.039062 13.273438 C 10.039062 10.931437 12.271437 9.0332031 15.023438 9.0332031 z M 15.023438 10.396484 C 13.350437 10.396484 11.994141 11.533547 11.994141 12.935547 C 11.994141 14.335547 13.350437 15.470703 15.023438 15.470703 C 16.698437 15.470703 18.056641 14.335547 18.056641 12.935547 C 18.056641 11.533547 16.698438 10.396484 15.023438 10.396484 z"/></svg>
