<svg width="14" height="14" viewBox="0 0 14 14" fill="none" xmlns="http://www.w3.org/2000/svg">
<path d="M8 2C7.44772 2 7 2.44772 7 3V13C7.5 12 8.5 11.375 10 11.375H11C11.5523 11.375 12 10.9273 12 10.375V3C12 2.44772 11.5523 2 11 2H8Z" stroke="black" stroke-width="1.25" stroke-linecap="round" stroke-linejoin="round"/>
<path d="M6 2C6.55228 2 7 2.44772 7 3V13C6.5 12 5.5 11.375 4 11.375H3C2.44772 11.375 2 10.9273 2 10.375V3C2 2.44772 2.44772 2 3 2H6Z" stroke="black" stroke-width="1.25" stroke-linecap="round" stroke-linejoin="round"/>
</svg>
