<svg width="14" height="14" viewBox="0 0 14 14" fill="none" xmlns="http://www.w3.org/2000/svg">
<path d="M12 10L12 10.8374C12 10.9431 11.9665 11.046 11.9044 11.1315L11.1498 12.1691C11.0557 12.2985 10.9054 12.375 10.7454 12.375L3.25461 12.375C3.09464 12.375 2.94433 12.2985 2.85024 12.1691L2.09563 11.1315C2.03348 11.046 2 10.9431 2 10.8374L2 2" stroke="black" stroke-width="1.25" stroke-linecap="round"/>
<path d="M2 12V10L7 11H12V12H2Z" fill="black"/>
<path d="M5.63246 2.04415C6.44914 2.31638 7 3.08066 7 3.94152V10.7306C7 11.0924 6.62757 11.3345 6.29693 11.1875L2.79693 9.63197C2.61637 9.55172 2.5 9.37266 2.5 9.17506V1.69371C2.5 1.35243 2.83435 1.11145 3.15811 1.21937L5.63246 2.04415Z" stroke="black" stroke-width="1.25" stroke-linecap="round" stroke-linejoin="round"/>
<path d="M8.5 2C7.67157 2 7 2.67157 7 3.5V12C7 11.1954 10.2366 11.0382 11.5017 11.0075C11.7778 11.0008 12 10.7761 12 10.5V2.5C12 2.22386 11.7761 2 11.5 2H8.5Z" stroke="black" stroke-width="1.25" stroke-linecap="round" stroke-linejoin="round"/>
</svg>
