<svg width="14" height="14" viewBox="0 0 14 14" fill="none" xmlns="http://www.w3.org/2000/svg">
<path d="M10.0426 4.32305L10.0426 4.32306L10.0457 4.32471C11.4534 5.05668 12.25 6.21804 12.25 7.42984C12.25 8.40862 11.7315 9.34709 10.7886 10.0652C9.845 10.7839 8.50819 11.25 7 11.25C5.49181 11.25 4.155 10.7839 3.21141 10.0652C2.2685 9.34709 1.75 8.40862 1.75 7.42984C1.75 6.21804 2.54655 5.05668 3.95426 4.32471L3.95427 4.32473L3.95849 4.3225C4.44977 4.06306 4.93129 3.79038 5.40631 3.50124C5.82127 3.25139 6.14467 3.05839 6.42858 2.92422C6.71398 2.78934 6.88783 2.75 7 2.75C7.28571 2.75 7.57684 2.89469 8.43489 3.41073L8.43488 3.41075L8.43944 3.41345C8.47377 3.43377 8.5088 3.45453 8.54455 3.47572C8.94471 3.71289 9.43447 4.00316 10.0426 4.32305Z" stroke="black" stroke-width="1.5"/>
<path d="M12 6C14.5 11.5 6.92993 14 2.92993 10" stroke="black" stroke-width="1.25"/>
<circle cx="5" cy="6.75" r="1" fill="black"/>
<circle cx="9" cy="6.75" r="1" fill="black"/>
<path d="M8.5 8.4C8.5 9.28366 7.32812 9.99999 7 9.99999C6.67188 9.99999 5.5 9.28366 5.5 8.4C5.5 7.84374 8.5 7.85938 8.5 8.4Z" fill="black"/>
<path d="M8 3C7.33333 3.5 5.6 4.4 4 4" stroke="black" stroke-width="1.25"/>
</svg>
