<svg width="16" height="16" viewBox="0 0 16 16" fill="none" xmlns="http://www.w3.org/2000/svg">
    <path d="M11.0426 5.32305L11.0426 5.32306L11.0457 5.32471C12.4534 6.05668 13.25 7.21804 13.25 8.42984C13.25 9.40862 12.7315 10.3471 11.7886 11.0652C10.845 11.7839 9.50819 12.25 8 12.25C6.49181 12.25 5.155 11.7839 4.21141 11.0652C3.2685 10.3471 2.75 9.40862 2.75 8.42984C2.75 7.21804 3.54655 6.05668 4.95426 5.32471L4.95427 5.32473L4.95849 5.3225C5.44976 5.06306 5.93128 4.79038 6.4063 4.50125C6.82126 4.25139 7.14467 4.05839 7.42857 3.92422C7.71398 3.78934 7.88783 3.75 8 3.75C8.28571 3.75 8.57685 3.89469 9.43489 4.41073L9.43488 4.41075L9.43944 4.41345C9.47377 4.43377 9.50881 4.45453 9.54456 4.47572C9.94472 4.71289 10.4345 5.00316 11.0426 5.32305Z" stroke="black" stroke-width="1.2"/>
    <path d="M13 7C15.5 12.5 7.92993 15 3.92993 11" stroke="black" stroke-width="1.25"/>
    <circle cx="6" cy="7.75" r="1" fill="black"/>
    <circle cx="10" cy="7.75" r="1" fill="black"/>
    <path d="M9.5 9.4C9.5 10.2837 8.32812 11 8 11C7.67188 11 6.5 10.2837 6.5 9.4C6.5 8.84374 9.5 8.85938 9.5 9.4Z" fill="black"/>
    <path d="M9 4C8.33333 4.5 6.6 5.4 5 5" stroke="black" stroke-width="1.25"/>
</svg>
