<?xml version="1.0" encoding="UTF-8"?>
<svg xmlns="http://www.w3.org/2000/svg" xmlns:xlink="http://www.w3.org/1999/xlink" width="14px" height="14px" viewBox="0 0 14 14" version="1.1">
<g id="surface1">
<path style=" stroke:none;fill-rule:nonzero;fill:rgb(0%,0%,0%);fill-opacity:1;" d="M 7 13.179688 C 10.867188 13.179688 14 10.652344 14 7.53125 C 14 5.59375 12.800781 3.886719 10.957031 2.871094 C 10.207031 2.453125 9.617188 2.078125 9.125 1.769531 C 8.199219 1.179688 7.628906 0.820312 7 0.820312 C 6.359375 0.820312 5.636719 1.277344 4.6875 1.882812 C 4.148438 2.230469 3.601562 2.558594 3.042969 2.871094 C 1.199219 3.886719 0 5.59375 0 7.53125 C 0 10.652344 3.132812 13.179688 7 13.179688 Z M 6.183594 2.75 C 6.378906 2.308594 6.476562 1.828125 6.472656 1.34375 C 6.472656 1.261719 6.589844 1.234375 6.605469 1.328125 C 6.992188 2.953125 6.082031 3.757812 5.40625 4.027344 C 5.335938 4.054688 5.292969 3.953125 5.347656 3.902344 C 5.703125 3.582031 5.988281 3.191406 6.183594 2.75 Z M 7.382812 2.691406 C 7.328125 2.214844 7.171875 1.757812 6.925781 1.347656 L 6.925781 1.335938 C 6.886719 1.265625 6.976562 1.183594 7.035156 1.234375 C 8.179688 2.46875 7.796875 3.609375 7.359375 4.183594 C 7.3125 4.242188 7.226562 4.179688 7.25 4.109375 C 7.394531 3.652344 7.4375 3.167969 7.382812 2.691406 Z M 8.417969 2.363281 C 8.183594 1.949219 7.863281 1.589844 7.480469 1.308594 L 7.480469 1.300781 C 7.414062 1.253906 7.464844 1.140625 7.546875 1.175781 C 9.058594 1.808594 9.164062 3.03125 8.980469 3.746094 C 8.976562 3.761719 8.964844 3.777344 8.953125 3.785156 C 8.921875 3.808594 8.882812 3.800781 8.863281 3.773438 C 8.851562 3.757812 8.847656 3.742188 8.847656 3.722656 C 8.800781 3.246094 8.65625 2.78125 8.417969 2.363281 Z M 5.453125 2.691406 C 5.09375 3.007812 4.703125 3.132812 4.25 3.273438 C 4.179688 3.273438 4.132812 3.230469 4.15625 3.167969 C 5.179688 2.636719 5.542969 2.207031 5.90625 1.546875 C 5.90625 1.546875 5.996094 1.480469 6.015625 1.597656 C 6.015625 1.773438 5.8125 2.371094 5.453125 2.691406 Z M 8.335938 9.246094 C 8.253906 9.597656 8.0625 9.914062 7.789062 10.152344 C 7.589844 10.355469 7.324219 10.480469 7.039062 10.511719 C 6.746094 10.484375 6.472656 10.359375 6.265625 10.152344 C 5.996094 9.914062 5.808594 9.597656 5.726562 9.246094 C 5.71875 9.203125 5.734375 9.160156 5.761719 9.128906 C 5.792969 9.101562 5.835938 9.085938 5.875 9.089844 L 8.1875 9.089844 C 8.230469 9.085938 8.269531 9.101562 8.300781 9.132812 C 8.328125 9.160156 8.34375 9.203125 8.335938 9.246094 Z M 5.152344 7.976562 C 4.714844 8.273438 4.128906 8.210938 3.761719 7.832031 C 3.390625 7.445312 3.335938 6.855469 3.625 6.40625 C 3.746094 6.21875 3.917969 6.074219 4.121094 5.992188 C 4.320312 5.90625 4.542969 5.882812 4.757812 5.925781 C 4.972656 5.96875 5.167969 6.078125 5.320312 6.234375 C 5.636719 6.5625 5.730469 7.046875 5.558594 7.46875 C 5.476562 7.675781 5.335938 7.851562 5.152344 7.976562 Z M 10.109375 7.980469 C 9.671875 8.273438 9.085938 8.210938 8.71875 7.832031 C 8.511719 7.617188 8.398438 7.332031 8.398438 7.035156 C 8.398438 6.8125 8.464844 6.589844 8.585938 6.40625 C 8.707031 6.21875 8.878906 6.074219 9.082031 5.988281 C 9.28125 5.90625 9.503906 5.882812 9.71875 5.925781 C 9.933594 5.972656 10.128906 6.078125 10.285156 6.238281 C 10.597656 6.566406 10.691406 7.050781 10.515625 7.472656 C 10.433594 7.679688 10.292969 7.855469 10.109375 7.980469 Z M 10.109375 7.980469 "/>
</g>
</svg>
