<svg id="Starknet_logo" xmlns="http://www.w3.org/2000/svg" viewBox="0 0 16 16" width="16" height="16"><defs><style>.cls-1{fill:#fe4a3c;}</style></defs><path class="cls-1" d="M8 0.144C3.654 0.144 0.127 3.672 0.127 8.017c0 1.84 0.648 3.545 1.704 4.891 0.852 -1.21 1.772 -2.352 2.931 -3.289 0.034 -0.034 0.119 -0.085 0.221 -0.153 0.477 -0.358 0.818 -0.886 0.903 -1.483v-0.017c0.29 -1.926 1.074 -2.59 3.272 -2.59 0.188 0 0.409 0 0.613 0.017 1.125 0.051 1.772 0.375 1.84 0.545 0.051 0.085 0.034 0.188 0.017 0.29l-0.085 -0.017c-0.699 -0.085 -1.755 0.119 -1.908 0.886 -0.085 0.426 0.017 0.903 0.051 1.329 0.051 0.443 0.085 0.903 0.085 1.346 0 0.034 -0.034 0.204 0 0.221 -1.193 -1.142 -3.954 0.29 -4.823 0.92 0.085 -0.034 0.171 -0.068 0.273 -0.102 0.835 -0.29 3.34 -1.039 4.311 -0.204 0.818 1.005 0.085 2.863 -0.528 3.783 -0.358 0.545 -0.801 1.039 -1.295 1.466h0.29c4.346 0 7.873 -3.528 7.873 -7.873S12.363 0.144 8 0.144m0.903 4.26c-0.852 0 -1.551 -0.699 -1.551 -1.551s0.699 -1.551 1.551 -1.551 1.551 0.699 1.551 1.551 -0.682 1.551 -1.551 1.551"/></svg>
