<svg width="14" height="14" viewBox="0 0 14 14" fill="none" xmlns="http://www.w3.org/2000/svg">
<path fill-rule="evenodd" clip-rule="evenodd" d="M12 10.1111C12 10.602 11.593 11 11.0909 11H2.90909C2.40701 11 2 10.602 2 10.1111V5.22222C2 4.7313 2.40701 4.38 2.90909 4.38H4.72727L5.5 3H8.5L9.27273 4.38H11.0909C11.593 4.38 12 4.7313 12 5.22222V10.1111Z" stroke="black" stroke-width="1.25" stroke-linecap="round" stroke-linejoin="round"/>
<path d="M7.005 9C7.90246 9 8.63 8.27246 8.63 7.375C8.63 6.47754 7.90246 5.75 7.005 5.75C6.10753 5.75 5.38 6.47754 5.38 7.375C5.38 8.27246 6.10753 9 7.005 9Z" stroke="black" stroke-width="1.25" stroke-linecap="round" stroke-linejoin="round"/>
</svg>
