<svg width="14" height="14" viewBox="0 0 14 14" fill="none" xmlns="http://www.w3.org/2000/svg">
<path fill-rule="evenodd" clip-rule="evenodd" d="M12 10.5C12 10.7761 11.7761 11 11.5 11H2.5C2.22386 11 2 10.7761 2 10.5V4.88C2 4.60386 2.22386 4.38 2.5 4.38H4.4342C4.61518 4.38 4.78204 4.2822 4.87046 4.12428L5.35681 3.25572C5.44524 3.0978 5.61209 3 5.79308 3H8.20692C8.38791 3 8.55476 3.0978 8.64319 3.25572L9.12954 4.12428C9.21796 4.2822 9.38482 4.38 9.5658 4.38H11.5C11.7761 4.38 12 4.60386 12 4.88V10.5Z" stroke="black" stroke-width="1.25" stroke-linecap="round" stroke-linejoin="round"/>
<path d="M7.005 9C7.90246 9 8.63 8.27246 8.63 7.375C8.63 6.47754 7.90246 5.75 7.005 5.75C6.10754 5.75 5.38 6.47754 5.38 7.375C5.38 8.27246 6.10754 9 7.005 9Z" fill="black" fill-opacity="0.3" stroke="black" stroke-linecap="round" stroke-linejoin="round"/>
</svg>
