<?xml version="1.0" encoding="UTF-8"?>
<svg xmlns="http://www.w3.org/2000/svg" xmlns:xlink="http://www.w3.org/1999/xlink" width="14px" height="14px" viewBox="0 0 14 14" version="1.1">
<g id="surface1">
<path style=" stroke:none;fill-rule:nonzero;fill:rgb(0%,0%,0%);fill-opacity:1;" d="M 5.371094 3.140625 C 5.949219 3.125 6.480469 2.925781 6.90625 2.597656 L 6.902344 2.605469 C 7.371094 2.265625 7.953125 2.058594 8.582031 2.039062 L 8.585938 2.039062 C 8.675781 2.027344 8.773438 2.023438 8.875 2.023438 C 9.09375 2.023438 9.304688 2.046875 9.507812 2.097656 L 9.488281 2.09375 C 9.71875 2.160156 9.839844 2.257812 9.859375 2.386719 C 9.886719 2.511719 9.824219 2.609375 9.664062 2.6875 C 9.492188 2.769531 9.292969 2.824219 9.082031 2.835938 L 9.078125 2.835938 C 9.011719 2.847656 8.933594 2.855469 8.855469 2.855469 C 8.6875 2.855469 8.527344 2.816406 8.382812 2.746094 L 8.390625 2.75 C 8.269531 2.691406 8.179688 2.585938 8.140625 2.460938 L 8.136719 2.457031 C 7.90625 2.476562 7.757812 2.527344 7.699219 2.609375 C 7.648438 2.667969 7.621094 2.742188 7.621094 2.824219 C 7.621094 2.832031 7.621094 2.839844 7.621094 2.847656 C 7.648438 2.980469 7.800781 3.097656 8.070312 3.199219 C 8.296875 3.269531 8.554688 3.308594 8.824219 3.308594 C 8.957031 3.308594 9.089844 3.300781 9.214844 3.28125 L 9.203125 3.28125 L 9.21875 3.28125 C 9.632812 3.28125 10.015625 3.15625 10.335938 2.9375 L 10.328125 2.941406 C 10.480469 2.820312 10.582031 2.636719 10.582031 2.425781 C 10.582031 2.394531 10.578125 2.359375 10.574219 2.328125 L 10.574219 2.332031 C 10.515625 2.050781 10.28125 1.816406 9.867188 1.625 C 9.496094 1.484375 9.066406 1.402344 8.621094 1.402344 C 8.441406 1.402344 8.265625 1.414062 8.09375 1.441406 L 8.113281 1.4375 C 7.140625 1.53125 6.523438 1.734375 6.257812 2.054688 C 5.902344 2.398438 5.417969 2.613281 4.886719 2.613281 C 4.878906 2.613281 4.871094 2.613281 4.863281 2.613281 L 4.867188 2.613281 C 4.800781 2.625 4.726562 2.628906 4.648438 2.628906 C 4.503906 2.628906 4.363281 2.609375 4.234375 2.566406 L 4.242188 2.570312 C 4.113281 2.539062 4.011719 2.445312 3.972656 2.320312 L 3.96875 2.320312 C 3.96875 2.3125 3.96875 2.304688 3.96875 2.296875 C 3.96875 2.203125 4.03125 2.121094 4.117188 2.089844 C 4.234375 2.035156 4.367188 2 4.511719 1.984375 L 4.515625 1.984375 C 4.550781 1.980469 4.59375 1.980469 4.636719 1.980469 C 4.75 1.980469 4.859375 1.988281 4.96875 2.007812 L 4.957031 2.003906 C 5.089844 2.023438 5.210938 2.054688 5.324219 2.101562 L 5.3125 2.097656 C 5.367188 2.078125 5.410156 2.046875 5.445312 2.007812 L 5.445312 2.003906 C 5.460938 1.984375 5.472656 1.960938 5.472656 1.929688 C 5.472656 1.921875 5.46875 1.910156 5.464844 1.898438 L 5.464844 1.902344 C 5.4375 1.796875 5.335938 1.726562 5.160156 1.683594 C 5.027344 1.65625 4.878906 1.640625 4.722656 1.640625 C 4.648438 1.640625 4.578125 1.644531 4.507812 1.648438 L 4.515625 1.648438 C 4.03125 1.695312 3.746094 1.800781 3.667969 1.972656 C 3.609375 2.070312 3.574219 2.191406 3.574219 2.324219 C 3.574219 2.339844 3.574219 2.359375 3.578125 2.378906 L 3.578125 2.375 C 3.664062 2.667969 3.882812 2.898438 4.164062 2.988281 L 4.171875 2.992188 C 4.433594 3.101562 4.738281 3.164062 5.054688 3.164062 C 5.164062 3.164062 5.273438 3.15625 5.378906 3.140625 L 5.367188 3.144531 Z M 11.929688 5.355469 C 11.632812 5.429688 11.3125 5.492188 10.964844 5.550781 C 10.621094 5.605469 10.257812 5.652344 9.875 5.6875 C 9.492188 5.726562 9.085938 5.753906 8.65625 5.78125 C 8.230469 5.804688 7.785156 5.816406 7.328125 5.816406 C 6.851562 5.816406 6.402344 5.804688 5.972656 5.78125 C 5.542969 5.757812 5.132812 5.722656 4.746094 5.683594 C 4.359375 5.640625 3.996094 5.589844 3.648438 5.535156 C 3.304688 5.480469 2.984375 5.417969 2.683594 5.351562 C 2.203125 5.238281 1.78125 5.089844 1.386719 4.902344 L 1.425781 4.921875 C 1.183594 4.816406 0.980469 4.660156 0.828125 4.464844 L 0.824219 4.460938 C 0.878906 4.863281 0.949219 5.21875 1.042969 5.5625 L 1.027344 5.503906 C 1.136719 5.914062 1.242188 6.25 1.367188 6.574219 L 1.34375 6.503906 C 1.191406 6.59375 1.0625 6.691406 0.941406 6.800781 L 0.945312 6.796875 C 0.8125 6.914062 0.699219 7.035156 0.589844 7.167969 L 0.585938 7.175781 C 0.390625 7.417969 0.230469 7.707031 0.132812 8.015625 L 0.125 8.035156 C 0.046875 8.285156 0 8.574219 0 8.871094 C 0 8.898438 0 8.929688 0 8.957031 L 0 8.949219 C 0.015625 9.261719 0.105469 9.550781 0.25 9.800781 L 0.246094 9.789062 C 0.402344 10.050781 0.59375 10.273438 0.820312 10.453125 L 0.824219 10.457031 C 1.042969 10.636719 1.304688 10.769531 1.59375 10.839844 L 1.605469 10.84375 C 1.742188 10.875 1.898438 10.890625 2.054688 10.890625 C 2.203125 10.890625 2.347656 10.875 2.488281 10.847656 L 2.472656 10.851562 C 2.613281 10.828125 2.738281 10.792969 2.855469 10.742188 L 2.84375 10.746094 C 2.96875 10.695312 3.09375 10.648438 3.214844 10.613281 C 3.210938 10.613281 3.203125 10.613281 3.199219 10.613281 C 2.949219 10.613281 2.714844 10.566406 2.496094 10.480469 L 2.507812 10.488281 C 2.257812 10.386719 2.042969 10.261719 1.851562 10.105469 L 1.855469 10.109375 C 1.632812 9.941406 1.445312 9.742188 1.296875 9.515625 L 1.289062 9.507812 C 1.140625 9.285156 1.039062 9.019531 1.003906 8.734375 L 1.003906 8.726562 C 0.976562 8.609375 0.960938 8.476562 0.960938 8.339844 C 0.960938 8.199219 0.976562 8.066406 1.003906 7.9375 L 1.003906 7.949219 C 1.066406 7.679688 1.171875 7.445312 1.316406 7.234375 L 1.3125 7.242188 C 1.347656 7.207031 1.382812 7.167969 1.414062 7.132812 C 1.449219 7.09375 1.484375 7.058594 1.519531 7.019531 C 1.605469 7.234375 1.695312 7.445312 1.792969 7.648438 C 1.890625 7.855469 1.996094 8.054688 2.109375 8.25 C 2.335938 8.597656 2.5625 8.929688 2.796875 9.25 C 3.03125 9.574219 3.261719 9.898438 3.496094 10.222656 C 3.582031 10.382812 3.671875 10.578125 3.742188 10.777344 L 3.753906 10.808594 C 3.8125 10.96875 3.867188 11.160156 3.910156 11.355469 L 3.914062 11.382812 C 4.074219 11.597656 4.257812 11.777344 4.46875 11.925781 L 4.476562 11.929688 C 4.683594 12.074219 4.925781 12.195312 5.183594 12.273438 L 5.203125 12.28125 C 5.488281 12.382812 5.828125 12.46875 6.175781 12.519531 L 6.210938 12.523438 C 6.523438 12.574219 6.882812 12.601562 7.253906 12.601562 L 7.328125 12.601562 C 7.707031 12.601562 8.082031 12.570312 8.445312 12.511719 L 8.40625 12.515625 C 8.804688 12.457031 9.160156 12.367188 9.5 12.253906 L 9.453125 12.265625 C 9.71875 12.175781 9.949219 12.0625 10.15625 11.917969 L 10.148438 11.921875 C 10.363281 11.769531 10.546875 11.585938 10.695312 11.378906 L 10.699219 11.371094 L 10.742188 11.371094 C 10.777344 11.203125 10.828125 11.015625 10.886719 10.8125 C 10.957031 10.582031 11.039062 10.382812 11.140625 10.191406 L 11.132812 10.210938 C 11.355469 9.882812 11.582031 9.5625 11.816406 9.246094 C 12.050781 8.925781 12.285156 8.589844 12.515625 8.238281 C 12.800781 7.730469 13.0625 7.140625 13.269531 6.523438 L 13.292969 6.445312 C 13.480469 5.902344 13.652344 5.242188 13.777344 4.5625 L 13.789062 4.472656 C 13.621094 4.679688 13.410156 4.839844 13.171875 4.953125 L 13.160156 4.957031 C 12.804688 5.128906 12.394531 5.265625 11.960938 5.351562 Z M 2.683594 4.386719 C 2.984375 4.460938 3.304688 4.527344 3.648438 4.582031 C 3.996094 4.640625 4.359375 4.6875 4.742188 4.722656 C 5.125 4.757812 5.527344 4.785156 5.949219 4.804688 C 6.375 4.824219 6.820312 4.832031 7.285156 4.832031 C 7.761719 4.832031 8.210938 4.824219 8.632812 4.804688 C 9.058594 4.785156 9.460938 4.757812 9.84375 4.722656 C 10.226562 4.683594 10.589844 4.636719 10.929688 4.574219 C 11.269531 4.515625 11.59375 4.453125 11.902344 4.386719 C 12.4375 4.269531 12.910156 4.089844 13.347656 3.855469 L 13.320312 3.867188 C 13.632812 3.683594 13.789062 3.496094 13.789062 3.308594 C 13.78125 3.148438 13.703125 3.003906 13.585938 2.910156 C 13.421875 2.769531 13.230469 2.652344 13.019531 2.570312 L 13.007812 2.566406 C 13.0625 2.605469 13.109375 2.65625 13.144531 2.710938 L 13.144531 2.714844 C 13.179688 2.769531 13.199219 2.832031 13.199219 2.902344 C 13.199219 3.097656 13.054688 3.277344 12.765625 3.433594 C 12.390625 3.621094 11.957031 3.773438 11.5 3.863281 L 11.464844 3.867188 C 10.925781 3.980469 10.308594 4.074219 9.621094 4.15625 C 8.960938 4.230469 8.199219 4.273438 7.425781 4.273438 C 7.390625 4.273438 7.355469 4.273438 7.320312 4.273438 L 7.324219 4.273438 C 7.304688 4.273438 7.277344 4.273438 7.25 4.273438 C 6.476562 4.273438 5.710938 4.234375 4.957031 4.152344 L 5.050781 4.164062 C 4.339844 4.089844 3.710938 3.992188 3.097656 3.863281 L 3.214844 3.882812 C 2.730469 3.773438 2.304688 3.621094 1.90625 3.421875 L 1.941406 3.433594 C 1.652344 3.277344 1.507812 3.105469 1.507812 2.917969 C 1.507812 2.828125 1.527344 2.746094 1.570312 2.675781 L 1.570312 2.679688 C 1.628906 2.589844 1.707031 2.511719 1.796875 2.457031 L 1.800781 2.457031 C 1.492188 2.570312 1.226562 2.703125 0.980469 2.863281 L 0.996094 2.855469 C 0.835938 2.949219 0.730469 3.113281 0.722656 3.308594 C 0.742188 3.503906 0.910156 3.695312 1.234375 3.882812 C 1.652344 4.105469 2.136719 4.277344 2.648438 4.382812 Z M 2.683594 4.386719 "/>
</g>
</svg>
