<svg width="14" height="14" viewBox="0 0 14 14" fill="none" xmlns="http://www.w3.org/2000/svg">
<path d="M12.3061 5.5778C10.2118 6.65229 4.59818 6.64305 2.55456 5.49718C2.34826 5.38151 2.00857 5.53238 2.02549 5.76829C2.25878 9.02091 4.09256 12 7.49998 12C10.8648 12 12.6714 9.10579 12.9591 5.91373C12.9819 5.66029 12.5325 5.46164 12.3061 5.5778Z" fill="black"/>
<path d="M9.05553 4.53646C9.44442 5.0547 10.9998 5.57297 11 3.49998C11.0002 1.42709 8.66679 1.94528 7.50013 3.49998C6.33348 5.05467 3.99991 5.57294 4 3.5C4.00009 1.42706 5.55548 1.94528 5.94443 2.46352" stroke="black" stroke-width="1.25" stroke-linecap="round"/>
<circle cx="3" cy="9.5" r="1.75" stroke="black" stroke-width="1.5"/>
</svg>
