<svg height="288" preserveAspectRatio="xMidYMid" viewBox="0 0 256 288" width="256" xmlns="http://www.w3.org/2000/svg"><path d="m255.569 84.72c-.002-4.83-1.035-9.098-3.124-12.761-2.052-3.602-5.125-6.621-9.247-9.008-34.025-19.619-68.083-39.178-102.097-58.817-9.17-5.294-18.061-5.101-27.163.269-13.543 7.987-81.348 46.834-101.553 58.537-8.321 4.817-12.37 12.189-12.372 21.771-.013 39.455 0 78.909-.013 118.365.002 4.724.991 8.909 2.988 12.517 2.053 3.711 5.169 6.813 9.386 9.254 20.206 11.703 88.02 50.547 101.56 58.536 9.106 5.373 17.997 5.565 27.17.269 34.015-19.64 68.075-39.198 102.105-58.817 4.217-2.44 7.333-5.544 9.386-9.252 1.994-3.608 2.985-7.793 2.987-12.518 0 0 0-78.889-.013-118.345" fill="#5c8dbc"/><path d="m128.182 143.509-125.194 72.084c2.053 3.711 5.169 6.813 9.386 9.254 20.206 11.703 88.02 50.547 101.56 58.536 9.106 5.373 17.997 5.565 27.17.269 34.015-19.64 68.075-39.198 102.105-58.817 4.217-2.44 7.333-5.544 9.386-9.252z" fill="#1a4674"/><path d="m91.101 164.861c7.285 12.718 20.98 21.296 36.69 21.296 15.807 0 29.58-8.687 36.828-21.541l-36.437-21.107z" fill="#1a4674"/><path d="m255.569 84.72c-.002-4.83-1.035-9.098-3.124-12.761l-124.263 71.55 124.413 72.074c1.994-3.608 2.985-7.793 2.987-12.518 0 0 0-78.889-.013-118.345" fill="#1b598e"/><g fill="#fff"><path d="m248.728 148.661h-9.722v9.724h-9.724v-9.724h-9.721v-9.721h9.721v-9.722h9.724v9.722h9.722z"/><path d="m213.253 148.661h-9.721v9.724h-9.722v-9.724h-9.722v-9.721h9.722v-9.722h9.722v9.722h9.721z"/><path d="m164.619 164.616c-7.248 12.854-21.021 21.541-36.828 21.541-15.71 0-29.405-8.578-36.69-21.296-3.539-6.18-5.574-13.335-5.574-20.968 0-23.341 18.923-42.263 42.264-42.263 15.609 0 29.232 8.471 36.553 21.059l36.941-21.272c-14.683-25.346-42.096-42.398-73.494-42.398-46.876 0-84.875 38-84.875 84.874 0 15.378 4.091 29.799 11.241 42.238 14.646 25.48 42.137 42.637 73.634 42.637 31.555 0 59.089-17.226 73.714-42.781z"/></g></svg>