<svg xmlns="http://www.w3.org/2000/svg" xmlns:xlink="http://www.w3.org/1999/xlink" width="14" height="14" viewBox="0 0 14 14" fill="none"><g opacity="1"  transform="translate(0 0)"><mask id="bg-mask-0" fill="white"><use transform="translate(0 0)" xlink:href="#path_0"></use></mask><g mask="url(#bg-mask-0)" ><g opacity="1"  transform="translate(0.77874755859375 -0.00054931640625)"><path id="路径 1" fill-rule="evenodd" style="fill:#000000" opacity="1" d="M12.285 3.50054C12.187 3.33211 12.0522 3.18379 11.9039 3.09761L6.76112 0.128297C6.46493 -0.0427656 5.9793 -0.0427656 5.68312 0.128297L0.540312 3.09761C0.244125 3.26867 0 3.68954 0 4.03167L0 9.96983C0 10.1409 0.0612499 10.3321 0.15925 10.5005C0.255062 10.669 0.391999 10.8173 0.540312 10.9017L5.68049 13.8728C5.9793 14.0439 6.4623 14.0439 6.75849 13.8728L11.9013 10.9017C12.0496 10.8173 12.1844 10.669 12.2824 10.5005C12.3804 10.3321 12.4394 10.1405 12.4394 9.96983L12.4394 4.03167C12.4416 3.86061 12.3804 3.66942 12.285 3.50098L12.285 3.50054ZM6.22124 11.1476C3.93356 11.1476 2.07418 9.28864 2.07418 7.00052C2.07418 4.71244 3.93312 2.85348 6.22124 2.85348C7.70218 2.85567 9.0698 3.64623 9.81224 4.92415L8.01674 5.96369C7.6453 5.32319 6.96193 4.929 6.22124 4.92638C5.07718 4.92638 4.14749 5.85606 4.14749 7.00008C4.14749 8.14414 5.07718 9.07383 6.22124 9.07383C6.96193 9.07164 7.6453 8.67706 8.01674 8.03652L9.81224 9.07602C9.0698 10.354 7.70218 11.1445 6.22124 11.1467L6.22124 11.1476ZM10.3683 7.23108L9.90805 7.23108L9.90805 7.69133L9.44561 7.69133L9.44561 7.23108L8.98536 7.23108L8.98536 6.77044L9.44561 6.77044L9.44561 6.31019L9.90805 6.31019L9.90805 6.77044L10.3683 6.77044L10.3683 7.23108ZM12.0955 7.23108L11.6353 7.23108L11.6353 7.69133L11.175 7.69133L11.175 7.23108L10.7148 7.23108L10.7148 6.77044L11.175 6.77044L11.175 6.31019L11.6353 6.31019L11.6353 6.77044L12.0955 6.77044L12.0955 7.23108Z"></path></g></g></g><defs><rect id="path_0" x="0" y="0" width="14" height="14" rx="0" ry="0"/></defs></svg>