<svg width="512" height="512" xmlns="http://www.w3.org/2000/svg" version="1.1">
 <g>
  <title>Layer 1</title>
  <path d="m455.11195,119.4164l-180.2337,-103.92556c-10.38231,-5.9878 -27.37418,-5.9878 -37.75648,0l-180.23371,103.92556c-10.38378,5.98651 -18.87823,20.683 -18.87823,32.6573l0,207.85258c0.80779,13.94524 7.93955,25.49465 18.87823,32.65723l180.23371,103.92554c10.3823,5.98793 27.37418,5.98793 37.75648,0l180.2337,-103.92554c11.73646,-7.79623 18.41673,-19.53073 18.87822,-32.65723l0,-207.85258c-0.42158,-12.59903 -7.97616,-25.30654 -18.87822,-32.6573zm-344.43872,136.58426c-0.85396,-141.72561 189.21323,-204.3061 271.17834,-72.61725l-62.89374,36.3485c-37.96691,-62.71773 -132.23789,-40.29216 -135.62121,36.26876c1.01605,70.56102 93.67139,103.33852 135.62547,36.26458l62.89374,36.34701c-72.23512,125.24004 -267.53962,80.18069 -271.1826,-72.6116zm290.65355,8.0626l-16.14834,0l0,16.12806l-16.14556,0l0,-16.12806l-16.14838,0l0,-16.12659l16.14838,0l0,-16.12651l16.14556,0l0,16.12651l16.14834,0l0,16.12659zm60.55282,0l-16.14834,0l0,16.12806l-16.14547,0l0,-16.12806l-16.14846,0l0,-16.12659l16.14846,0l0,-16.12651l16.14547,0l0,16.12651l16.14834,0l0,16.12659z" id="svg_1" stroke="null"/>
 </g>

</svg>