<svg width="16" height="16" viewBox="0 0 16 16" fill="none" xmlns="http://www.w3.org/2000/svg">
<g clip-path="url(#clip0_1791_60)">
<path fill-rule="evenodd" clip-rule="evenodd" d="M13.4803 4.4109C13.6232 4.4934 13.7531 4.63587 13.8473 4.79901C13.9415 4.96211 14 5.14583 14 5.31085V5.78958H12.8036V7.50745H11.0857V8.99892H12.8036V10.7168H14V11.039C14 11.204 13.9415 11.3878 13.8473 11.5509C13.7532 11.714 13.6234 11.8565 13.4805 11.939L8.51974 14.8031C8.23398 14.9681 7.7663 14.9681 7.48053 14.8031L2.51977 11.939C2.37691 11.8566 2.24699 11.7141 2.15283 11.551C2.05864 11.3879 2 11.2041 2 11.0391V5.31089C2 4.98089 2.2338 4.57587 2.51961 4.4109L7.48037 1.54683C7.76613 1.38181 8.23382 1.38181 8.51958 1.54683L13.4803 4.4109ZM7.99998 12.175C5.79438 12.175 4 10.3806 4 8.175C4 5.9694 5.79438 4.17502 7.99998 4.17502C9.42319 4.17502 10.7505 4.9409 11.4639 6.17375L9.73284 7.17548C9.37578 6.55838 8.71174 6.17501 7.99998 6.17501C6.89716 6.17501 5.99999 7.07218 5.99999 8.175C5.99999 9.27778 6.89716 10.175 7.99998 10.175C8.71182 10.175 9.37586 9.79162 9.73295 9.17441L11.464 10.1761C10.7506 11.4091 9.42327 12.175 7.99998 12.175Z" fill="black"/>
</g>
<defs>
<clipPath id="clip0_1791_60">
<rect width="11.9999" height="13.5039" fill="white" transform="translate(2 1.42307)"/>
</clipPath>
</defs>
</svg>
