<svg width="13" height="10" viewBox="0 0 13 10" fill="none" xmlns="http://www.w3.org/2000/svg">
<path fill-rule="evenodd" clip-rule="evenodd" d="M7.20115 8.34043C6.56976 8.75732 5.81322 9 5 9C2.79086 9 1 7.20914 1 5C1 2.79086 2.79086 1 5 1C5.53327 1 6.04217 1.10436 6.50739 1.29376L7.30695 0.562853C6.61674 0.203266 5.83211 0 5 0C2.23858 0 0 2.23858 0 5C0 7.76142 2.23858 10 5 10C6.10663 10 7.12929 9.64049 7.95756 9.03189L7.20115 8.34043Z" fill="black"/>
<path d="M6.99609 6.67685V3.31605H7.66477V6.67685H6.99609ZM5.65128 5.32955V4.66087H9.01207V5.32955H5.65128ZM10.8882 6.67685V3.31605H11.5569V6.67685H10.8882ZM9.54339 5.32955V4.66087H12.9042V5.32955H9.54339Z" fill="black"/>
</svg>
