<svg width="14" height="14" viewBox="0 0 14 14" fill="none" xmlns="http://www.w3.org/2000/svg">
<path fill-rule="evenodd" clip-rule="evenodd" d="M6.68004 0.958416C6.87808 0.847291 7.12191 0.847291 7.31966 0.958416C8.2982 1.50762 11.2429 3.16079 12.2217 3.71C12.4197 3.82083 12.5417 4.02617 12.5417 4.24842C12.5417 5.34683 12.5417 8.65287 12.5417 9.75129C12.5417 9.97354 12.4197 10.1789 12.2217 10.29C11.2432 10.8392 8.2985 12.4924 7.31966 13.0416C7.12162 13.1527 6.87779 13.1527 6.68004 13.0416C5.7015 12.4924 2.75683 10.8392 1.77799 10.29C1.58024 10.1789 1.45833 9.97383 1.45833 9.75158C1.45833 8.65317 1.45833 5.34712 1.45833 4.24871C1.45833 4.02646 1.58024 3.82112 1.77829 3.71C2.75654 3.16079 5.70179 1.50762 6.68004 0.958416Z" fill="#00549D"/>
<path fill-rule="evenodd" clip-rule="evenodd" d="M1.54699 10.0345C1.46941 9.93066 1.45833 9.83208 1.45833 9.69937C1.45833 8.60737 1.45833 5.32029 1.45833 4.228C1.45833 4.00691 1.57995 3.80275 1.77741 3.6925C2.75245 3.1465 5.6872 1.50296 6.66224 0.956665C6.8597 0.846123 7.12716 0.848457 7.32462 0.958998C8.29966 1.505 11.2245 3.13454 12.1995 3.68054C12.2783 3.72487 12.3384 3.77825 12.392 3.84854L1.54699 10.0345Z" fill="#0086D4"/>
<path fill-rule="evenodd" clip-rule="evenodd" d="M7.00001 2.91667C9.25371 2.91667 11.0833 4.74629 11.0833 7C11.0833 9.25371 9.25371 11.0833 7.00001 11.0833C4.7463 11.0833 2.91667 9.25371 2.91667 7C2.91667 4.74629 4.7463 2.91667 7.00001 2.91667ZM7.00001 4.95833C8.12671 4.95833 9.04167 5.873 9.04167 7C9.04167 8.12671 8.12671 9.04167 7.00001 9.04167C5.8733 9.04167 4.95834 8.12671 4.95834 7C4.95834 5.873 5.87301 4.95833 7.00001 4.95833Z" fill="white"/>
<path fill-rule="evenodd" clip-rule="evenodd" d="M12.3915 3.85146C12.542 3.99233 12.539 4.20467 12.539 4.37179C12.539 5.47867 12.5297 8.62692 12.5417 9.73379C12.5428 9.84929 12.5046 9.97092 12.4475 10.0625L6.88129 7L12.3915 3.85146Z" fill="#0075C0"/>
<path fill-rule="evenodd" clip-rule="evenodd" d="M9.04167 6.125H9.62501V7.875H9.04167V6.125ZM11.0833 6.125H11.6667V7.875H11.0833V6.125Z" fill="white"/>
<path fill-rule="evenodd" clip-rule="evenodd" d="M8.45833 6.70833H10.2083V7.29167H8.45833V6.70833ZM10.5 6.70833H12.25V7.29167H10.5V6.70833Z" fill="white"/>
</svg>
