<svg width="14" height="14" viewBox="0 0 14 14" fill="none" xmlns="http://www.w3.org/2000/svg">
<path d="M12.6219 3.35781L7.33906 0.317187C7.25156 0.2625 7.13125 0.240625 7 0.240625C6.86875 0.240625 6.74844 0.273437 6.66094 0.317187L1.41094 3.36875C1.225 3.47812 1.09375 3.75156 1.09375 3.95937V10.0516C1.09375 10.1719 1.11562 10.3141 1.20312 10.4344L12.8844 3.65312C12.8188 3.52187 12.7203 3.42344 12.6219 3.35781Z" fill="#9B4F96"/>
<path d="M1.17032 10.4234C1.22501 10.5109 1.30157 10.5875 1.37813 10.6312L6.65001 13.6828C6.73751 13.7375 6.85782 13.7594 6.98907 13.7594C7.12032 13.7594 7.24063 13.7266 7.32813 13.6828L12.5781 10.6312C12.7641 10.5219 12.8953 10.2484 12.8953 10.0406V3.94844C12.8953 3.85 12.8844 3.74063 12.8297 3.64219L1.17032 10.4234Z" fill="#68217A"/>
<path d="M9.32969 8.32344C8.87031 9.13281 7.99531 9.67969 7 9.67969C5.52344 9.67969 4.32031 8.47656 4.32031 7C4.32031 5.52344 5.52344 4.32031 7 4.32031C7.99531 4.32031 8.87031 4.86719 9.32969 5.6875L10.7516 4.86719C10.0078 3.56563 8.60781 2.67969 7 2.67969C4.61563 2.67969 2.67969 4.61563 2.67969 7C2.67969 9.38437 4.61563 11.3203 7 11.3203C8.59688 11.3203 9.99687 10.4453 10.7406 9.15469L9.32969 8.32344ZM10.6094 7.24062L10.7078 6.77031H10.2484V6.25625H10.8063L10.9375 5.57812H11.4734L11.3422 6.24531H11.7578L11.8891 5.57812H12.4141L12.2828 6.24531H12.5453V6.75937H12.1844L12.0859 7.22969H12.5453V7.74375H11.9875L11.8563 8.4H11.3203L11.4516 7.74375H11.0359L10.9047 8.4H10.3797L10.5109 7.74375H10.2484V7.22969H10.6094V7.24062ZM11.1344 7.24062H11.55L11.6484 6.77031H11.2328L11.1344 7.24062Z" fill="white"/>
</svg>
