<svg width="14" height="14" viewBox="0 0 14 14" fill="none" xmlns="http://www.w3.org/2000/svg">
<g clip-path="url(#clip0_10_62)">
<path fill-rule="evenodd" clip-rule="evenodd" d="M7.4303 10.7367C6.98617 10.9068 6.50397 11 6 11C3.79086 11 2 9.20914 2 7C2 4.79086 3.79086 3 6 3C6.22881 3 6.45313 3.01921 6.67144 3.05611L7.47167 2.22009C7.0064 2.07701 6.51219 2 6 2C3.23858 2 1 4.23858 1 7C1 9.76142 3.23858 12 6 12C6.77662 12 7.51188 11.8229 8.16762 11.507L7.4303 10.7367Z" fill="black"/>
<path d="M9.97195 10L11.0458 3.45455H11.8129L10.739 10H9.97195ZM7.00923 8.24858L7.13388 7.48153H12.0941L11.9695 8.24858H7.00923ZM7.67081 10L8.74467 3.45455H9.51172L8.43786 10H7.67081ZM7.38956 5.97301L7.5142 5.20597H12.4744L12.3498 5.97301H7.38956Z" fill="black"/>
</g>
<defs>
<clipPath id="clip0_10_62">
<rect width="14" height="14" fill="white"/>
</clipPath>
</defs>
</svg>
