<svg width="14" height="14" viewBox="0 0 14 14" fill="none" xmlns="http://www.w3.org/2000/svg">
<path d="M6.6249 8.536C6.50077 8.58622 6.35038 8.62645 6.17376 8.65669C5.99712 8.68694 5.81564 8.70247 5.62927 8.70326C5.1002 8.69772 4.69022 8.54725 4.39934 8.25185C4.10847 7.95645 3.96101 7.5494 3.95696 7.03069C3.96797 6.46111 4.12873 6.03595 4.4392 5.75521C4.74969 5.47446 5.14379 5.3344 5.6215 5.33503C5.83557 5.33678 6.02581 5.35616 6.19224 5.39313C6.35866 5.43012 6.50028 5.4742 6.61712 5.52537L6.86603 4.57426C6.75874 4.51776 6.59411 4.46662 6.3721 4.42088C6.15009 4.37513 5.88435 4.3509 5.57484 4.34821C4.76177 4.35356 4.08798 4.59345 3.5535 5.06794C3.01901 5.54241 2.74192 6.21948 2.72223 7.0991C2.72311 7.84573 2.95286 8.4602 3.41147 8.9425C3.87008 9.4248 4.55232 9.67433 5.45816 9.69109C5.77642 9.68802 6.05191 9.66306 6.2846 9.61623C6.5173 9.5694 6.68777 9.51917 6.79603 9.46553L6.6249 8.536Z" fill="black"/>
<path d="M8.84235 7.52982L8.9668 6.58676H9.67463L9.55796 7.52982H8.84235ZM8.53122 9.6201L8.72567 8.2201H9.4335L9.23126 9.6201H9.93131L10.1258 8.2201H10.888V7.52982H10.2502L10.3669 6.58676H11.1058V5.89648H10.4836L10.678 4.57426H9.98577L9.79129 5.89648H9.07571L9.27016 4.57426H8.58567L8.38343 5.89648H7.62117V6.58676H8.27454L8.15009 7.52982H7.3956V8.2201H8.03341L7.83118 9.6201H8.53122Z" fill="black"/>
</svg>
