
<svg width="16" height="16" viewBox="0 0 16 16" xmlns="http://www.w3.org/2000/svg" xmlns:xlink="http://www.w3.org/1999/xlink">
    <g transform="matrix(1.33024,0,0,1.33024,-8.07989,-8.55658)">
        <path d="M12.827,15.661C12.827,15.951 12.614,16.197 12.327,16.238C12.148,16.261 11.966,16.274 11.781,16.274C9.669,16.274 7.953,14.559 7.953,12.446C7.953,10.334 9.669,8.618 11.781,8.618C11.964,8.618 12.144,8.631 12.32,8.656C12.609,8.697 12.824,8.945 12.824,9.237C12.827,9.237 12.827,9.237 12.827,9.237C12.827,9.408 12.753,9.57 12.624,9.682C12.495,9.794 12.323,9.844 12.154,9.82C12.033,9.797 11.908,9.788 11.781,9.788C10.351,9.788 9.189,10.979 9.189,12.446C9.189,13.914 10.351,15.105 11.781,15.105C11.909,15.105 12.034,15.096 12.156,15.077C12.324,15.053 12.493,15.103 12.621,15.214C12.748,15.325 12.822,15.485 12.822,15.654C12.827,15.657 12.827,15.659 12.827,15.661Z"/>
    </g>
    <g transform="matrix(0.600129,0,0,0.668596,6.74956,2.22471)">
        <path d="M11.28,3.638L8.748,12.014" style="fill:none;fill-rule:nonzero;stroke:black;stroke-width:1.5px;"/>
    </g>
    <g transform="matrix(0.600129,0,0,0.668596,6.74956,2.22471)">
        <path d="M7.266,3.996L4.735,12.372" style="fill:none;fill-rule:nonzero;stroke:black;stroke-width:1.5px;"/>
    </g>
    <g transform="matrix(0.600129,0,0,0.668596,6.74956,2.22471)">
        <path d="M4.16,6.38L12.91,6.38" style="fill:none;fill-rule:nonzero;stroke:black;stroke-width:1.5px;"/>
    </g>
    <g transform="matrix(0.600129,0,0,0.668596,6.74956,2.22471)">
        <path d="M3.098,9.624L11.848,9.624" style="fill:none;fill-rule:nonzero;stroke:black;stroke-width:1.5px;"/>
    </g>
</svg>
