<?xml version="1.0" encoding="UTF-8"?>
<svg xmlns="http://www.w3.org/2000/svg" xmlns:xlink="http://www.w3.org/1999/xlink" width="14px" height="14px" viewBox="0 0 14 14" version="1.1">
<g id="surface1">
<path style=" stroke:none;fill-rule:nonzero;fill:rgb(0%,0%,0%);fill-opacity:1;" d="M 9.203125 3.410156 C 8.792969 3 8.378906 2.597656 7.957031 2.207031 C 7.835938 2.078125 7.664062 1.996094 7.476562 1.996094 C 7.472656 1.996094 7.472656 1.996094 7.46875 1.996094 C 7.324219 2.011719 7.1875 2.042969 7.0625 2.089844 L 7.074219 2.085938 L 4.425781 3.40625 Z M 3.71875 3.71875 L 3.71875 9.078125 C 3.714844 9.109375 3.710938 9.144531 3.710938 9.179688 C 3.710938 9.40625 3.800781 9.613281 3.945312 9.765625 L 6.183594 12.003906 L 10.066406 12.003906 L 10.066406 10.066406 Z M 3.40625 3.40625 C 3.40625 3.40625 5.707031 2.257812 6.855469 1.683594 C 7.039062 1.59375 7.25 1.539062 7.476562 1.539062 C 7.496094 1.539062 7.515625 1.539062 7.53125 1.539062 C 7.824219 1.597656 8.082031 1.722656 8.296875 1.902344 L 8.292969 1.898438 L 12.460938 6.066406 L 12.460938 10.519531 L 10.519531 10.519531 L 10.519531 12.460938 L 5.996094 12.460938 L 1.898438 8.367188 C 1.683594 8.140625 1.546875 7.839844 1.542969 7.503906 C 1.558594 7.316406 1.609375 7.148438 1.6875 6.992188 L 1.683594 7 Z M 3.40625 3.40625 "/>
</g>
</svg>
