<svg width="16" height="16" viewBox="0 0 16 16" fill="none" xmlns="http://www.w3.org/2000/svg">
    <path d="M12 11.25H11.25V12V13.25H7.31066L2.35809 8.29743L3.60151 4.56717L7.81937 2.88003L13.25 8.31066V11.25H12Z" stroke="black" stroke-width="1.2"/>
    <path d="M10.928 11.4328L3.5 4.5H9.89645C9.96275 4.5 10.0263 4.52634 10.0732 4.57322L13.4268 7.92678C13.4737 7.97366 13.5 8.03725 13.5 8.10355V11.25C13.5 11.3881 13.3881 11.5 13.25 11.5H11.0985C11.0352 11.5 10.9743 11.476 10.928 11.4328Z" fill="black"/>
    <path d="M4 11L4.5 5C3.97221 4.7361 3.33305 5.00085 3.14645 5.56066L2.19544 8.41368C2.07566 8.77302 2.16918 9.16918 2.43702 9.43702L4 11Z" fill="black"/>
</svg>
