<?xml version="1.0" encoding="UTF-8"?>
<svg xmlns="http://www.w3.org/2000/svg" xmlns:xlink="http://www.w3.org/1999/xlink" width="14px" height="14px" viewBox="0 0 14 14" version="1.1">
<g id="surface1">
<path style=" stroke:none;fill-rule:nonzero;fill:rgb(0%,0%,0%);fill-opacity:1;" d="M 9.640625 2.691406 C 9.152344 2.199219 8.652344 1.71875 8.144531 1.246094 C 8.003906 1.09375 7.800781 0.996094 7.570312 0.996094 C 7.566406 0.996094 7.566406 0.996094 7.5625 0.996094 C 7.386719 1.011719 7.226562 1.050781 7.074219 1.105469 L 7.085938 1.101562 L 3.910156 2.6875 Z M 3.058594 3.058594 L 3.058594 9.496094 C 3.054688 9.53125 3.054688 9.574219 3.054688 9.617188 C 3.054688 9.886719 3.160156 10.136719 3.332031 10.320312 L 6.019531 13.003906 L 10.679688 13.003906 L 10.679688 10.679688 Z M 2.691406 2.6875 C 2.691406 2.6875 5.449219 1.3125 6.828125 0.621094 C 7.042969 0.511719 7.300781 0.449219 7.570312 0.449219 C 7.59375 0.449219 7.617188 0.449219 7.640625 0.449219 L 7.636719 0.449219 C 7.988281 0.519531 8.296875 0.667969 8.554688 0.882812 L 8.550781 0.878906 L 13.550781 5.878906 L 13.550781 11.222656 L 11.226562 11.222656 L 11.226562 13.550781 L 5.792969 13.550781 L 0.878906 8.636719 C 0.621094 8.371094 0.457031 8.007812 0.449219 7.605469 C 0.472656 7.378906 0.53125 7.175781 0.625 6.992188 L 0.621094 7 Z M 2.691406 2.6875 "/>
</g>
</svg>
