<?xml version="1.0" encoding="utf-8"?>
<svg fill="#000000" width="800px" height="800px" viewBox="0 0 32 32" version="1.1" xmlns="http://www.w3.org/2000/svg">
<title>dart</title>
<path d="M22.039 6.149c-1.122-1.118-2.258-2.221-3.419-3.298-0.327-0.355-0.794-0.577-1.313-0.577-0.008 0-0.015 0-0.023 0h0.001c-0.401 0.039-0.769 0.125-1.117 0.253l0.031-0.010-7.26 3.63zM6.995 6.995v14.709c-0.010 0.083-0.016 0.179-0.016 0.276 0 0.622 0.243 1.188 0.639 1.607l-0.001-0.001 6.142 6.141h10.649v-5.32zM6.148 6.147s6.306-3.151 9.458-4.728c0.496-0.25 1.080-0.396 1.699-0.396 0.052 0 0.105 0.001 0.157 0.003l-0.007-0c0.806 0.159 1.513 0.504 2.101 0.99l-0.008-0.006 11.429 11.43v12.216h-5.32v5.32h-12.414l-11.231-11.231c-0.595-0.612-0.968-1.443-0.985-2.362l-0-0.003c0.051-0.511 0.191-0.978 0.405-1.402l-0.010 0.023z"></path>
</svg>
