<?xml version="1.0" encoding="UTF-8" standalone="no"?><!DOCTYPE svg PUBLIC "-//W3C//DTD SVG 1.1//EN" "http://www.w3.org/Graphics/SVG/1.1/DTD/svg11.dtd"><svg width="100%" height="100%" viewBox="0 0 3152 2488" version="1.1" xmlns="http://www.w3.org/2000/svg" xmlns:xlink="http://www.w3.org/1999/xlink" xml:space="preserve" xmlns:serif="http://www.serif.com/" style="fill-rule:evenodd;clip-rule:evenodd;stroke-linejoin:round;stroke-miterlimit:2;"><path d="M3099.83,1021.88c-77.25,-52 -280.25,-74.208 -427.833,-34.458c-7.958,-147 -83.75,-270.875 -222.417,-378.959l-51.333,-34.458l-34.208,51.667c-67.25,102.083 -95.584,238.083 -85.542,361.708c7.917,76.167 34.417,161.792 85.542,223.917c-192.084,111.416 -369.125,86.125 -1153.21,86.125l-1210.58,-0c-3.542,177.041 24.917,517.625 241.5,794.875c23.917,30.625 50.167,60.25 78.625,88.791c176.083,176.334 442.125,305.625 839.958,306c606.917,0.542 1126.92,-327.5 1443.21,-1120.71c104.083,1.708 378.833,18.667 513.291,-241.167c3.292,-4.375 34.209,-68.916 34.209,-68.916l-51.25,-34.459l0.041,0.042Zm-2309.54,-161.917l-340.417,0l0,340.417l340.417,-0l-0,-340.417Zm439.791,0l-340.416,0l-0,340.417l340.416,-0l0,-340.417Zm439.792,0l-340.417,0l0,340.417l340.417,-0l0,-340.417Zm439.792,0l-340.417,0l0,340.417l340.417,-0l-0,-340.417Zm-1759.17,0l-340.417,0l0,340.417l340.417,-0l0,-340.417Zm439.792,-429.958l-340.417,-0l0,340.417l340.417,-0l-0,-340.417Zm439.791,-0l-340.416,-0l-0,340.417l340.416,-0l0,-340.417Zm439.792,-0l-340.417,-0l0,340.417l340.417,-0l0,-340.417Zm0,-430l-340.417,-0l0,340.417l340.417,-0l0,-340.417Z" style="fill-rule:nonzero;"/></svg>