<?xml version="1.0" encoding="UTF-8" standalone="no"?><!DOCTYPE svg PUBLIC "-//W3C//DTD SVG 1.1//EN" "http://www.w3.org/Graphics/SVG/1.1/DTD/svg11.dtd"><svg width="100%" height="100%" viewBox="0 0 14 14" version="1.1" xmlns="http://www.w3.org/2000/svg" xmlns:xlink="http://www.w3.org/1999/xlink" xml:space="preserve" xmlns:serif="http://www.serif.com/" style="fill-rule:evenodd;clip-rule:evenodd;stroke-linejoin:round;stroke-miterlimit:2;"><path d="M13.772,6.015c-0.343,-0.231 -1.244,-0.33 -1.9,-0.154c-0.036,-0.652 -0.372,-1.202 -0.988,-1.682l-0.228,-0.154l-0.152,0.23c-0.3,0.453 -0.425,1.057 -0.38,1.606c0.035,0.339 0.152,0.72 0.38,0.996c-0.855,0.495 -1.64,0.382 -5.124,0.382l-5.379,-0c-0.016,0.786 0.111,2.3 1.074,3.532c0.105,0.136 0.222,0.268 0.349,0.394c0.781,0.784 1.964,1.359 3.732,1.36c2.696,0.003 5.007,-1.456 6.412,-4.98c0.463,0.008 1.683,0.083 2.28,-1.07c0.015,-0.02 0.152,-0.307 0.152,-0.307l-0.228,-0.153Zm-10.261,-0.719l-1.512,-0l-0,1.512l1.512,-0l-0,-1.512Zm1.954,-0l-1.512,-0l0,1.512l1.512,-0l0,-1.512Zm1.955,-0l-1.513,-0l-0,1.512l1.513,-0l-0,-1.512Zm1.953,-0l-1.512,-0l0,1.512l1.512,-0l0,-1.512Zm-7.816,-0l-1.512,-0l0,1.512l1.512,-0l0,-1.512Zm1.954,-1.911l-1.512,0l-0,1.512l1.512,0l-0,-1.512Zm1.954,0l-1.512,0l0,1.512l1.512,0l0,-1.512Zm1.954,0l-1.512,0l-0,1.512l1.512,0l-0,-1.512Zm-0,-1.91l-1.512,-0l-0,1.513l1.512,-0l-0,-1.513Z" style="fill-rule:nonzero;"/></svg>