<?xml version="1.0" encoding="UTF-8"?>
<svg xmlns="http://www.w3.org/2000/svg" xmlns:xlink="http://www.w3.org/1999/xlink" width="18px" height="14px" viewBox="0 0 17 14" version="1.1">
<g id="surface1">
<path style=" stroke:none;fill-rule:nonzero;fill:rgb(11.372549%,38.823529%,92.941176%);fill-opacity:1;" d="M 16.722656 5.753906 C 16.308594 5.460938 15.210938 5.335938 14.414062 5.558594 C 14.371094 4.730469 13.964844 4.035156 13.214844 3.425781 L 12.9375 3.234375 L 12.753906 3.523438 C 12.390625 4.097656 12.238281 4.863281 12.292969 5.558594 C 12.335938 5.988281 12.476562 6.46875 12.753906 6.820312 C 11.71875 7.445312 10.761719 7.304688 6.53125 7.304688 L 0 7.304688 C -0.0195312 8.300781 0.136719 10.214844 1.304688 11.773438 C 1.433594 11.949219 1.574219 12.113281 1.726562 12.273438 C 2.679688 13.265625 4.113281 13.996094 6.261719 13.996094 C 9.535156 14 12.339844 12.152344 14.046875 7.691406 C 14.609375 7.699219 16.089844 7.796875 16.816406 6.335938 C 16.832031 6.308594 17 5.945312 17 5.945312 Z M 4.261719 4.84375 L 2.425781 4.84375 L 2.425781 6.757812 L 4.261719 6.757812 Z M 6.636719 4.84375 L 4.800781 4.84375 L 4.800781 6.757812 L 6.636719 6.757812 Z M 9.007812 4.84375 L 7.171875 4.84375 L 7.171875 6.757812 L 9.007812 6.757812 Z M 11.382812 4.84375 L 9.546875 4.84375 L 9.546875 6.757812 L 11.382812 6.757812 Z M 1.890625 4.84375 L 0.0546875 4.84375 L 0.0546875 6.757812 L 1.890625 6.757812 Z M 4.261719 2.421875 L 2.425781 2.421875 L 2.425781 4.339844 L 4.261719 4.339844 Z M 6.636719 2.421875 L 4.800781 2.421875 L 4.800781 4.339844 L 6.636719 4.339844 Z M 9.007812 2.421875 L 7.171875 2.421875 L 7.171875 4.339844 L 9.007812 4.339844 Z M 9.007812 0.00390625 L 7.171875 0.00390625 L 7.171875 1.917969 L 9.007812 1.917969 Z M 9.007812 0.00390625 "/>
</g>
</svg>
