<?xml version="1.0" encoding="UTF-8" standalone="no"?><!DOCTYPE svg PUBLIC "-//W3C//DTD SVG 1.1//EN" "http://www.w3.org/Graphics/SVG/1.1/DTD/svg11.dtd"><svg width="100%" height="100%" viewBox="0 0 59 59" version="1.1" xmlns="http://www.w3.org/2000/svg" xmlns:xlink="http://www.w3.org/1999/xlink" xml:space="preserve" xmlns:serif="http://www.serif.com/" style="fill-rule:evenodd;clip-rule:evenodd;stroke-linejoin:round;stroke-miterlimit:2;"><rect id="Plan-de-travail1" serif:id="Plan de travail1" x="0" y="0" width="58.333" height="58.333" style="fill:none;"/><g><path d="M57.385,24.733c-1.43,-0.963 -5.188,-1.374 -7.92,-0.638c-0.147,-2.721 -1.55,-5.014 -4.117,-7.015l-0.951,-0.638l-0.633,0.956c-1.245,1.89 -1.769,4.408 -1.583,6.696c0.146,1.41 0.637,2.996 1.583,4.146c-3.556,2.062 -6.833,1.594 -21.348,1.594l-22.411,0c-0.066,3.277 0.461,9.582 4.471,14.715c0.443,0.567 0.928,1.115 1.455,1.645c3.26,3.264 8.185,5.657 15.55,5.664c11.235,0.01 20.862,-6.063 26.717,-20.747c1.927,0.031 7.013,0.345 9.502,-4.465c0.061,-0.081 0.633,-1.276 0.633,-1.276l-0.948,-0.638l0,0.001Zm-42.755,-2.997l-6.301,0l0,6.302l6.301,0l0,-6.302Zm8.142,0l-6.302,0l0,6.302l6.302,0l0,-6.302Zm8.142,0l-6.302,0l0,6.302l6.302,0l0,-6.302Zm8.141,0l-6.302,0l0,6.302l6.302,0l0,-6.302Zm-32.566,0l-6.302,0l0,6.302l6.302,0l0,-6.302Zm8.141,-7.96l-6.301,0l0,6.302l6.301,0l0,-6.302Zm8.142,0l-6.302,0l0,6.302l6.302,0l0,-6.302Zm8.141,0l-6.301,0l0,6.302l6.301,0l0,-6.302Zm0,-7.96l-6.301,0l0,6.302l6.301,0l0,-6.302Z" style="fill-rule:nonzero;"/></g></svg>