<svg width="16" height="16" viewBox="0 0 16 16" fill="none" xmlns="http://www.w3.org/2000/svg">
<path d="M4.04346 6.2426C4.04346 6.2426 4.3126 5.69535 4.50997 5.48004C4.8973 5.14499 5.35033 4.89453 5.84005 4.74468C6.32977 4.59483 6.84538 4.54889 7.35388 4.60982C7.99539 4.6643 8.61267 4.88035 9.14814 5.23781C9.36345 5.39929 9.56979 5.59666 9.74922 5.81197C10.1852 6.34304 10.5033 6.96078 10.6822 7.62418C10.754 7.92921 10.7899 8.25217 10.772 8.57514C10.7087 9.15756 10.5384 9.72328 10.2696 10.2438C10.1709 10.4322 10.0453 10.6027 9.91968 10.7821C9.38495 11.573 8.68377 12.2374 7.86524 12.7289C7.41668 12.998 6.93223 13.2043 6.44777 13.3838C5.97229 13.5632 5.49681 13.7426 4.99442 13.8054C4.63557 13.8503 4.26774 13.8592 3.91786 13.7875C3.60122 13.7212 3.30181 13.5899 3.03867 13.4017C2.72159 13.1444 2.47471 12.8111 2.32097 12.4328C2.21357 12.1337 2.16188 11.8175 2.16845 11.4998C2.16845 11.3563 2.16845 11.2127 2.1864 11.0781C2.20434 10.8987 2.21331 10.7193 2.2492 10.5399C2.43321 9.80352 2.72012 9.0968 3.10147 8.44057M5.33533 4.85204C5.31739 4.68159 5.2815 4.5201 5.2815 4.34965C5.2815 4.15228 5.29944 3.94594 5.3443 3.75754C5.38019 3.64091 5.43401 3.53326 5.48784 3.4256C5.55961 3.29103 5.64036 3.15646 5.73904 3.04881C5.8467 2.91424 5.98127 2.81555 6.11583 2.7079C6.22349 2.61818 6.32218 2.52847 6.44777 2.46567C6.72962 2.30763 7.04123 2.20987 7.36285 2.17859C7.47948 2.17859 7.5961 2.17859 7.71273 2.19653C7.93582 2.24946 8.13291 2.3798 8.26895 2.56436C8.34969 2.67201 8.42146 2.78864 8.44838 2.92321C8.46632 3.00395 8.45735 3.10264 8.44838 3.19235C8.43044 3.3628 8.39455 3.53326 8.33175 3.70371C8.29587 3.79343 8.24204 3.89211 8.18821 3.98182C8.08055 4.17919 7.94598 4.35862 7.82936 4.53805M10.5836 6.73602C10.5836 6.73602 10.8796 6.28745 11.077 6.13494C11.2564 5.98243 11.4627 5.8658 11.687 5.803C12.01 5.72226 12.3599 5.71329 12.6739 5.79403C12.9358 5.86151 13.1744 5.99904 13.3641 6.19187C13.5537 6.3847 13.6873 6.62553 13.7504 6.88853C13.8859 7.30968 13.8504 7.76719 13.6517 8.16246C13.4813 8.45851 13.2032 8.67383 12.943 8.88017C12.5396 9.23371 12.0397 9.45864 11.5076 9.5261C11.3013 9.56199 10.8706 9.54404 10.8706 9.54404M4.28569 6.61939C4.49203 6.69116 4.69837 6.75396 4.87779 6.87059C5.11317 7.00316 5.31557 7.18716 5.4699 7.40887C5.55961 7.54344 5.62241 7.72287 5.60447 7.88435C5.58323 8.07076 5.48984 8.24143 5.3443 8.35983C5.16487 8.50337 4.89574 8.48543 4.68042 8.4944C4.21728 8.48872 3.75987 8.39114 3.33473 8.20732C3.13439 8.13435 2.94201 8.04116 2.76056 7.92921C2.59908 7.82155 2.36582 7.70492 2.26714 7.5255C2.18738 7.4002 2.15258 7.25152 2.16845 7.10384C2.1864 6.94236 2.25817 6.74499 2.38377 6.64631C2.54525 6.50277 2.82336 6.46688 3.0297 6.43997C3.4554 6.43005 3.8798 6.49068 4.28569 6.61939ZM7.91907 8.14452C8.12541 8.18937 8.34072 8.23423 8.54706 8.29703C8.76237 8.3688 8.99563 8.4316 9.193 8.56617C9.34551 8.6828 9.53391 8.8084 9.59671 8.99679C9.64156 9.13136 9.61465 9.57993 9.55185 9.7145C9.47638 9.86007 9.36131 9.98136 9.21991 10.0644C9.05652 10.1645 8.8724 10.2258 8.68163 10.2438C8.52015 10.2707 8.34969 10.2169 8.17924 10.1989C7.95496 10.1631 7.73067 10.1362 7.52433 10.0823C7.28211 10.0195 7.02194 9.9657 6.80663 9.83113C6.65411 9.74141 6.51954 9.61581 6.42086 9.47227C6.36903 9.38095 6.3355 9.28038 6.32218 9.17622C6.2928 8.9559 6.2928 8.73266 6.32218 8.51234C6.34909 8.42263 6.41189 8.33292 6.49263 8.27012C6.58234 8.1804 6.69897 8.10863 6.82457 8.08172C6.99502 8.02789 7.17445 8.0548 7.34491 8.06378C7.54227 8.08172 7.73067 8.1176 7.91907 8.15349V8.14452Z" stroke="#C6CAD0" stroke-width="1.2" stroke-linecap="round" stroke-linejoin="round"/>
</svg>
