<svg xmlns="http://www.w3.org/2000/svg" width="16" height="16" viewBox="0 0 16 16">
	<path fill="none" stroke="black" stroke-linecap="round" stroke-linejoin="round" d="M3.86 6.46c.23.08.46.15.66.28a2 2 0 01.66.6c.1.15.17.35.15.53a.8.8 0 01-.29.53c-.2.16-.5.14-.74.15a3.9 3.9 0 01-1.5-.32 3.5 3.5 0 01-.64-.31c-.18-.12-.44-.25-.55-.45A.73.73 0 011.5 7c.02-.18.1-.4.24-.51.18-.16.49-.2.72-.23a4.3 4.3 0 011.4.2m4.05 1.7c.23.05.47.1.7.17.24.08.5.15.72.3.17.13.38.27.45.48.05.15.02.65-.05.8a.97.97 0 01-.37.39 1.4 1.4 0 01-.6.2c-.18.03-.37-.03-.56-.05-.25-.04-.5-.07-.73-.13-.27-.07-.56-.13-.8-.28-.17-.1-.32-.24-.43-.4a.9.9 0 01-.11-.33 2.8 2.8 0 010-.74c.03-.1.1-.2.19-.27.1-.1.23-.18.37-.21.19-.06.39-.03.58-.02.22.02.43.06.64.1zM3.59 6.04s.3-.61.52-.85a4.1 4.1 0 013.17-.97 4.25 4.25 0 012 .7c.24.18.47.4.67.64a5.4 5.4 0 011.04 2.02c.08.34.12.7.1 1.06a5.3 5.3 0 01-.56 1.86c-.11.21-.25.4-.39.6a7.3 7.3 0 01-2.29 2.17c-.5.3-1.04.53-1.58.73-.53.2-1.06.4-1.62.47-.4.05-.81.06-1.2-.02a2.6 2.6 0 01-.98-.43 2.7 2.7 0 01-.8-1.08 2.9 2.9 0 01-.17-1.04c0-.16 0-.32.02-.47.02-.2.03-.4.07-.6a9 9 0 01.95-2.34m2.49-4c-.02-.19-.06-.37-.06-.56 0-.22.02-.45.07-.66.04-.13.1-.25.16-.37.08-.15.17-.3.28-.42.12-.15.27-.26.42-.38.12-.1.23-.2.37-.27a2.6 2.6 0 011.02-.32c.13 0 .26 0 .39.02a1.08 1.08 0 01.62.41c.09.12.17.25.2.4.02.09.01.2 0 .3-.02.19-.06.38-.13.57-.04.1-.1.21-.16.31-.12.22-.27.42-.4.62m3.07 2.45s.33-.5.55-.67c.2-.17.43-.3.68-.37.36-.09.75-.1 1.1-.01a1.66 1.66 0 011.2 1.22 1.88 1.88 0 01-.11 1.42c-.19.33-.5.57-.79.8a3 3 0 01-1.6.72c-.23.04-.71.02-.71.02" />
</svg>
