<svg width="14" height="14" viewBox="0 0 14 14" fill="none" xmlns="http://www.w3.org/2000/svg">
<path d="M8 2L8.6165 2.10275C8.65805 1.8534 8.54532 1.60357 8.33085 1.46975C8.11639 1.33594 7.84243 1.34449 7.63673 1.49142L8 2ZM9.88714 8.62257C10.1098 9.73604 9.86526 10.3554 9.4569 10.7229C9.00367 11.1308 8.19498 11.375 7 11.375V12.625C8.30502 12.625 9.49633 12.3692 10.2931 11.6521C11.1347 10.8946 11.3902 9.76396 11.1129 8.37743L9.88714 8.62257ZM7 11.375C5.87824 11.375 5.17563 11.0417 4.75444 10.6206C4.32847 10.1946 4.125 9.61372 4.125 9H2.875C2.875 9.88628 3.17153 10.8054 3.87056 11.5044C4.57437 12.2083 5.62176 12.625 7 12.625V11.375ZM4.125 9C4.125 7.72699 5.00594 4.90668 8.36327 2.50858L7.63673 1.49142C3.99406 4.09332 2.875 7.27301 2.875 9H4.125ZM7.3835 1.89725C7.09577 3.62363 7.69108 4.78835 8.35497 5.78419C9.03189 6.79957 9.66859 7.52983 9.88714 8.62257L11.1129 8.37743C10.8314 6.97017 9.96811 5.95043 9.39503 5.09081C8.80892 4.21165 8.40423 3.37637 8.6165 2.10275L7.3835 1.89725Z" fill="black"/>
</svg>
