<svg width="14" height="14" viewBox="0 0 14 14" fill="none" xmlns="http://www.w3.org/2000/svg">
<path d="M12.1464 8.85355L11.3536 9.64645C11.1583 9.84171 11.1583 10.1583 11.3536 10.3536L12.1464 11.1464C12.4614 11.4614 13 11.2383 13 10.7929V9.20711C13 8.76165 12.4614 8.53857 12.1464 8.85355Z" fill="black"/>
<path d="M11.6464 7.35355L10.3536 8.64645C10.1583 8.84171 9.84171 8.84171 9.64645 8.64645L8.35355 7.35355C8.15829 7.15829 8.15829 6.84171 8.35355 6.64645L9.64645 5.35355C9.84171 5.15829 10.1583 5.15829 10.3536 5.35355L11.6464 6.64645C11.8417 6.84171 11.8417 7.15829 11.6464 7.35355Z" fill="black"/>
<path d="M13 1.5V4.79289C13 5.23835 12.4614 5.46143 12.1464 5.14645L8.85355 1.85355C8.53857 1.53857 8.76165 1 9.20711 1H12.5C12.7761 1 13 1.22386 13 1.5Z" fill="black"/>
<path d="M7.14645 2.14645L6.14645 1.14645C6.05268 1.05268 5.9255 1 5.79289 1H3.20711C2.76165 1 2.53857 1.53857 2.85355 1.85355L3.85355 2.85355C3.94732 2.94732 4.0745 3 4.20711 3H6.79289C7.23835 3 7.46143 2.46143 7.14645 2.14645Z" fill="black"/>
<path d="M6.20711 4H7.79289C8.23835 4 8.46143 4.53857 8.14645 4.85355L7.35355 5.64645C7.15829 5.84171 6.84171 5.84171 6.64645 5.64645L5.85355 4.85355C5.53857 4.53857 5.76165 4 6.20711 4Z" fill="black"/>
<path d="M11.1464 12.1464L7.35355 8.35355C7.15829 8.15829 6.84171 8.15829 6.64645 8.35355L2.85355 12.1464C2.53857 12.4614 2.76165 13 3.20711 13H10.7929C11.2383 13 11.4614 12.4614 11.1464 12.1464Z" fill="black"/>
<path d="M5.64645 7.35355L1.85355 11.1464C1.53857 11.4614 1 11.2383 1 10.7929V3.20711C1 2.76165 1.53857 2.53857 1.85355 2.85355L5.64645 6.64645C5.84171 6.84171 5.84171 7.15829 5.64645 7.35355Z" fill="black"/>
</svg>
