<svg width="14" height="14" viewBox="0 0 14 14" fill="none" xmlns="http://www.w3.org/2000/svg">
<path d="M11.7295 12.1981L7.17677 7.64544C7.07914 7.5478 6.92085 7.5478 6.82322 7.64544L2.27053 12.1981C2.11304 12.3556 2.22458 12.6249 2.4473 12.6249H11.5527C11.7754 12.6249 11.887 12.3556 11.7295 12.1981Z" fill="black" fill-opacity="0.9"/>
<path d="M1.80178 11.7294L6.35447 7.17668C6.4521 7.07905 6.4521 6.92076 6.35447 6.82312L1.80178 2.27043C1.64429 2.11294 1.375 2.22448 1.375 2.44721L1.375 11.5526C1.375 11.7753 1.64428 11.8869 1.80178 11.7294Z" fill="black" fill-opacity="0.9"/>
<path d="M9.98928 9.16694L11.9794 7.17751C12.0771 7.0799 12.0771 6.92161 11.9795 6.82396L9.98928 4.833C9.89165 4.73534 9.73333 4.73532 9.63569 4.83297L7.64553 6.82313C7.5479 6.92076 7.5479 7.07905 7.64553 7.17668L9.63575 9.16691C9.73337 9.26453 9.89164 9.26455 9.98928 9.16694Z" fill="black" fill-opacity="0.9"/>
<path d="M7.89553 1.80168L12.1982 6.10438C12.3557 6.26187 12.625 6.15033 12.625 5.9276V2.37491C12.625 1.82262 12.1773 1.37491 11.625 1.37491H8.0723C7.84958 1.37491 7.73804 1.64419 7.89553 1.80168Z" fill="black" fill-opacity="0.6"/>
<path d="M8.73976 4.18772L5.25981 4.1895C5.03708 4.18962 4.92567 4.45896 5.08325 4.61637L6.82322 6.35456C6.92087 6.45211 7.07909 6.45207 7.17669 6.35447L8.91666 4.61449C9.0742 4.45696 8.96255 4.1876 8.73976 4.18772Z" fill="black" fill-opacity="0.6"/>
<path d="M8.1147 3.55936L4.13431 3.55936C4.06801 3.55936 4.00442 3.53302 3.95753 3.48614L2.27057 1.79918C2.11308 1.64169 2.22462 1.37241 2.44735 1.37241L6.42774 1.37241C6.49405 1.37241 6.55763 1.39874 6.60452 1.44563L8.29148 3.13258C8.44897 3.29007 8.33743 3.55936 8.1147 3.55936Z" fill="black" fill-opacity="0.6"/>
<path d="M12.625 8.07221V11.5526C12.625 11.7753 12.3557 11.8869 12.1982 11.7294L10.458 9.98918C10.3604 9.89155 10.3604 9.73326 10.458 9.63563L12.1982 7.89544C12.3557 7.73794 12.625 7.84949 12.625 8.07221Z" fill="black" fill-opacity="0.6"/>
</svg>
