<svg width="16" height="16" viewBox="0 0 16 16" fill="none" xmlns="http://www.w3.org/2000/svg">
<path d="M1.5 4.5C1.5 4.22386 1.72386 4 2 4H3.9544C3.0114 4.98001 2.63491 6.13076 2.63491 7.77278C2.63491 9.41479 3.0959 10.8002 4.14336 12H2C1.72386 12 1.5 11.7761 1.5 11.5V4.5ZM12.3567 4H14C14.2761 4 14.5 4.22386 14.5 4.5V11.5C14.5 11.7761 14.2761 12 14 12H12.3969C12.8498 11.5468 13.2372 11.0078 13.5307 10.3923L11.7296 9.41479C11.7296 9.41479 11.1691 10.9749 9.93253 11.3312C8.69597 11.6875 7.7053 11.3149 7.05 10.4309C6.3947 9.54684 6.3947 7.77278 6.3947 7.77278H13.2372C13.3342 6.46811 13.093 5.07682 12.3567 4Z" fill="black"/>
<path d="M10 6C9.92445 5.22523 9.45015 4 7.99996 4C6.54977 4 6.06002 5.3159 6 6H10Z" fill="black"/>
</svg>
