<?xml version="1.0" encoding="UTF-8"?>
<svg xmlns="http://www.w3.org/2000/svg" xmlns:xlink="http://www.w3.org/1999/xlink" width="14px" height="14px" viewBox="0 0 14 14" version="1.1">
<defs>
<linearGradient id="linear0" gradientUnits="userSpaceOnUse" x1="0" y1="128" x2="128" y2="0" gradientTransform="matrix(0.109375,0,0,0.109375,0,0)">
<stop offset="0" style="stop-color:rgb(20%,20%,20%);stop-opacity:1;"/>
<stop offset="1" style="stop-color:rgb(36.470588%,36.470588%,36.470588%);stop-opacity:1;"/>
</linearGradient>
</defs>
<g id="surface1">
<path style=" stroke:none;fill-rule:nonzero;fill:url(#linear0);" d="M 1.339844 3.355469 L 2.976562 3.355469 C 2.363281 3.953125 2.136719 4.523438 1.84375 5.324219 C 1.492188 6.28125 1.785156 8.605469 2.261719 9.433594 C 2.582031 9.992188 2.949219 10.417969 3.160156 10.644531 L 1.339844 10.644531 Z M 11.140625 3.355469 L 12.660156 3.355469 L 12.660156 10.644531 L 11.179688 10.644531 C 11.324219 10.453125 11.554688 10.148438 11.738281 9.941406 C 11.992188 9.65625 12.28125 9.179688 12.28125 9.179688 L 10.53125 8.289062 C 10.53125 8.289062 9.929688 9.558594 8.785156 10.035156 C 7.640625 10.515625 6.621094 9.945312 5.984375 9.214844 C 5.347656 8.480469 5.347656 6.792969 5.347656 6.792969 L 11.996094 6.792969 C 12.125 5.167969 11.710938 4.46875 11.484375 3.957031 C 11.386719 3.726562 11.277344 3.542969 11.140625 3.355469 Z M 6.945312 3.546875 C 6.984375 3.542969 7.023438 3.546875 7.066406 3.546875 C 8.371094 3.578125 8.492188 4.945312 8.492188 4.945312 L 5.507812 4.945312 C 5.507812 4.945312 5.742188 3.601562 6.945312 3.546875 Z M 6.945312 3.546875 "/>
</g>
</svg>
