<svg height="64" viewBox="0 0 128 128" width="64" xmlns="http://www.w3.org/2000/svg" xmlns:xlink="http://www.w3.org/1999/xlink"><linearGradient id="a" gradientUnits="userSpaceOnUse" x1="0" x2="128" y1="128" y2="0"><stop offset="0" stop-color="#333"/><stop offset="1" stop-color="#5d5d5d"/></linearGradient><path d="m12.239265 30.664279h14.960911c-5.59432 5.460938-7.654216 10.692785-10.342106 18.023379-3.200764 8.729348-.549141 29.987457 3.815534 37.55289 2.943384 5.101853 6.282685 8.994876 8.233522 11.095173h-16.667861zm89.614855 0h13.90661v66.671442h-13.55518c1.31391-1.750328 3.43934-4.534454 5.12085-6.426163 2.32782-2.618784 4.97023-6.978412 4.97023-6.978412l-16.015202-8.133112s-5.48977 11.600331-15.964999 15.964998c-10.475214 4.364666-19.784679-.838179-25.604243-7.530659-5.819578-6.692502-5.82371-22.14014-5.82371-22.14014h60.797524c1.16391-14.839892-2.63216-21.249816-4.66901-25.90547-.91799-2.098266-1.89261-3.810819-3.16287-5.522484zm-38.356164 1.757154c.35429-.01632.731685-.0092 1.104497 0 11.930114.290977 13.053143 12.802122 13.053143 12.802122h-27.311192s2.170772-12.298638 13.153552-12.802122z" fill="url(#a)"/></svg>
