<svg width="14" height="14" viewBox="0 0 14 14" fill="none" xmlns="http://www.w3.org/2000/svg">
<path d="M12.5413 7.31248C12.6529 7.11911 12.6529 6.88086 12.5413 6.68748L10.0413 2.35736C9.92962 2.16398 9.72329 2.04486 9.5 2.04486H4.5C4.27671 2.04486 4.07038 2.16398 3.95873 2.35736L1.45873 6.68748C1.34709 6.88086 1.34709 7.11911 1.45873 7.31248L3.95873 11.6426C4.07038 11.836 4.27671 11.9551 4.5 11.9551H9.5C9.72329 11.9551 9.92962 11.836 10.0413 11.6426L12.5413 7.31248Z" stroke="black" stroke-width="1.5" stroke-linejoin="round"/>
<path d="M6.74994 4.14432C6.90464 4.055 7.09524 4.055 7.24994 4.14432L9.34802 5.35564C9.50272 5.44496 9.59802 5.61002 9.59802 5.78866V8.2113C9.59802 8.38994 9.50272 8.555 9.34802 8.64432L7.24994 9.85564C7.09524 9.94496 6.90464 9.94496 6.74994 9.85564L4.65186 8.64432C4.49716 8.555 4.40186 8.38994 4.40186 8.2113V5.78866C4.40186 5.61002 4.49716 5.44496 4.65186 5.35564L6.74994 4.14432Z" fill="black"/>
</svg>
