<svg width="14" height="14" viewBox="0 0 14 14" fill="none" xmlns="http://www.w3.org/2000/svg">
<path d="M12.5413 7.3125C12.6529 7.11913 12.6529 6.88088 12.5413 6.6875L10.0413 2.35738C9.92962 2.164 9.72329 2.04488 9.5 2.04488L4.5 2.04488C4.27671 2.04488 4.07038 2.164 3.95873 2.35738L1.45873 6.6875C1.34709 6.88088 1.34709 7.11913 1.45873 7.3125L3.95873 11.6426C4.07038 11.836 4.27671 11.9551 4.5 11.9551L9.5 11.9551C9.72329 11.9551 9.92962 11.836 10.0413 11.6426L12.5413 7.3125Z" stroke="black" stroke-width="1.25" stroke-linejoin="round"/>
<path d="M6.75 4.14434C6.9047 4.05502 7.0953 4.05502 7.25 4.14434L9.34808 5.35566C9.50278 5.44498 9.59808 5.61004 9.59808 5.78868V8.21132C9.59808 8.38996 9.50278 8.55502 9.34808 8.64434L7.25 9.85566C7.0953 9.94498 6.9047 9.94498 6.75 9.85566L4.65192 8.64434C4.49722 8.55502 4.40192 8.38996 4.40192 8.21132L4.40192 5.78868C4.40192 5.61004 4.49722 5.44498 4.65192 5.35566L6.75 4.14434Z" fill="black"/>
</svg>
