<svg width="16" height="16" viewBox="0 0 16 16" fill="none" xmlns="http://www.w3.org/2000/svg">
    <path d="M13.5413 8.31248C13.6529 8.11911 13.6529 7.88086 13.5413 7.68748L11.0413 3.35736C10.9296 3.16398 10.7233 3.04486 10.5 3.04486H5.5C5.27671 3.04486 5.07038 3.16398 4.95873 3.35736L2.45873 7.68748C2.34709 7.88086 2.34709 8.11911 2.45873 8.31248L4.95873 12.6426C5.07038 12.836 5.27671 12.9551 5.5 12.9551H10.5C10.7233 12.9551 10.9296 12.836 11.0413 12.6426L13.5413 8.31248Z" stroke="black" stroke-width="1.2" stroke-linejoin="round"/>
    <path d="M7.74994 5.14432C7.90464 5.055 8.09524 5.055 8.24994 5.14432L10.348 6.35564C10.5027 6.44496 10.598 6.61002 10.598 6.78866V9.2113C10.598 9.38994 10.5027 9.555 10.348 9.64432L8.24994 10.8556C8.09524 10.945 7.90464 10.945 7.74994 10.8556L5.65186 9.64432C5.49716 9.555 5.40186 9.38994 5.40186 9.2113V6.78866C5.40186 6.61002 5.49716 6.44496 5.65186 6.35564L7.74994 5.14432Z" fill="black"/>
</svg>
