<svg width="14" height="14" viewBox="0 0 14 14" fill="none" xmlns="http://www.w3.org/2000/svg">
<path d="M12.3969 7.5625L11.8557 7.25L12.3969 7.5625C12.5979 7.21442 12.5979 6.78558 12.3969 6.4375L11.8557 6.75L12.3969 6.4375L10.1856 2.60737C9.98464 2.2593 9.61325 2.04487 9.21132 2.04487L4.78868 2.04487C4.38675 2.04487 4.01536 2.2593 3.8144 2.60737L1.60307 6.4375C1.40211 6.78558 1.40211 7.21442 1.60307 7.5625L3.8144 11.3926C4.01536 11.7407 4.38675 11.9551 4.78867 11.9551L9.21132 11.9551C9.61325 11.9551 9.98464 11.7407 10.1856 11.3926L12.3969 7.5625Z" stroke="black" stroke-width="1.25"/>
<path d="M6.75 4.14434C6.9047 4.05502 7.0953 4.05502 7.25 4.14434L9.34808 5.35566C9.50278 5.44498 9.59808 5.61004 9.59808 5.78868V8.21132C9.59808 8.38996 9.50278 8.55502 9.34808 8.64434L7.25 9.85566C7.0953 9.94498 6.9047 9.94498 6.75 9.85566L4.65192 8.64434C4.49722 8.55502 4.40192 8.38996 4.40192 8.21132L4.40192 5.78868C4.40192 5.61004 4.49722 5.44498 4.65192 5.35566L6.75 4.14434Z" fill="black"/>
</svg>
