<svg width="16" height="16" viewBox="0 0 16 16" fill="none" xmlns="http://www.w3.org/2000/svg">
<path opacity="0.8" d="M5.46293 7.92298C5.46938 7.6844 5.66427 7.49307 5.90369 7.49307H13.7073C13.9467 7.49307 14.1401 7.6844 14.1335 7.92298C14.1 9.16418 13.9102 12.4787 12.8403 12.4787H4.50925C5.57932 12.4787 5.4293 9.16418 5.46293 7.92298Z" fill="#DCE0E5"/>
<path d="M5.46293 7.92298C5.46938 7.6844 5.66427 7.49307 5.90369 7.49307H13.7073C13.9467 7.49307 14.1401 7.6844 14.1335 7.92298C14.1 9.16418 13.9102 12.4787 12.8403 12.4787H4.50925C5.57932 12.4787 5.4293 9.16418 5.46293 7.92298Z" stroke="#DCE0E5" stroke-width="1.2" stroke-linejoin="round"/>
<path d="M6.0299 12.481H4.0299C2.92533 12.481 2.0299 11.5856 2.0299 10.481L2 5C2 3.89543 2.89543 3 4 3H5.12223C5.65267 3 6.16137 3.21071 6.53645 3.58579L7.36487 4.41421C7.73995 4.78929 8.24865 5 8.77909 5H10.9507C12.0553 5 12.9507 5.89543 12.9507 7V7.5" stroke="#DCE0E5" stroke-width="1.2" stroke-linecap="round"/>
</svg>
