<svg width="15" height="14" viewBox="0 0 15 14" fill="none" xmlns="http://www.w3.org/2000/svg">
<path d="M7 2.53125H2.21875V10.625L4.5 4.59375H7.96875L7 2.53125Z" fill="black"/>
<path d="M4.47293 4.94363C4.54554 4.74743 4.73263 4.61719 4.94184 4.61719H12.8755C13.2237 4.61719 13.4653 4.9642 13.3445 5.29074L11.1208 11.2986C11.0482 11.4948 10.8611 11.625 10.6519 11.625H2.71821C2.37002 11.625 2.12844 11.278 2.2493 10.9514L4.47293 4.94363Z" fill="black" fill-opacity="0.33" stroke="black" stroke-width="1.25"/>
<path d="M8 4.4024L7.27505 2.93264C7.10664 2.59119 6.75894 2.375 6.37821 2.375H2.5C2.22386 2.375 2 2.59886 2 2.875V11.125C2 11.4011 2.22386 11.625 2.5 11.625H4.00781" stroke="black" stroke-width="1.25" stroke-linejoin="round"/>
</svg>
