<svg width="14" height="14" viewBox="0 0 14 14" fill="none" xmlns="http://www.w3.org/2000/svg">
<path d="M4.08592 5.30382C4.22115 4.89402 4.60401 4.61719 5.03555 4.61719H11.9295C12.6108 4.61719 13.0926 5.28358 12.8791 5.93056L11.2266 10.9384C11.0914 11.3482 10.7085 11.625 10.2769 11.625H3.38303C2.70174 11.625 2.2199 10.9586 2.4334 10.3116L4.08592 5.30382Z" stroke="black" stroke-width="1.25"/>
<path d="M8 4.4024L7.27505 2.93264C7.10664 2.59119 6.75894 2.375 6.37821 2.375H3C2.44772 2.375 2 2.82272 2 3.375V4.4024V10.625C2 11.1773 2.44772 11.625 3 11.625H4.00781" stroke="black" stroke-width="1.25" stroke-linejoin="round"/>
</svg>
