<svg width="15" height="14" viewBox="0 0 15 14" fill="none" xmlns="http://www.w3.org/2000/svg">
<path d="M3.49165 6.13802C3.4991 5.86198 3.72386 5.64062 4 5.64062H13C13.2761 5.64062 13.4991 5.86198 13.4916 6.13802C13.4529 7.57407 13.2341 11.625 12 11.625H2C3.23412 11.625 3.45287 7.57407 3.49165 6.13802Z" fill="black" stroke="black" stroke-width="1.25" stroke-linejoin="round"/>
<path d="M4.00781 11.625H2.42841C2.18186 11.625 1.97212 11.4453 1.93432 11.2017L0.651964 2.93603C0.604944 2.63296 0.839355 2.35938 1.14605 2.35938H4.6164C4.95332 2.35938 5.26759 2.52904 5.45244 2.81072L5.8125 3.35938H8.89008C9.37767 3.35938 9.79418 3.71103 9.87593 4.19171L10.125 5.65625" stroke="black" stroke-width="1.25" stroke-linecap="round" stroke-linejoin="round"/>
</svg>
