<svg width="14" height="14" viewBox="0 0 14 14" fill="none" xmlns="http://www.w3.org/2000/svg">
<path d="M2 5.125C2 4.84886 2.22386 4.625 2.5 4.625H11.5C11.7761 4.625 12 4.84886 12 5.125V11.125C12 11.4011 11.7761 11.625 11.5 11.625H2.5C2.22386 11.625 2 11.4011 2 11.125V5.125Z" fill="black" fill-opacity="0.33" stroke="black" stroke-width="1.25" stroke-linejoin="round"/>
<path d="M6.38197 2.375H2.5C2.22386 2.375 2 2.59886 2 2.875V4.375H8L7.27639 2.92779C7.107 2.589 6.76074 2.375 6.38197 2.375Z" fill="black"/>
<path d="M2 8V4.375M2 4.375V2.875C2 2.59886 2.22386 2.375 2.5 2.375H6.38197C6.76074 2.375 7.107 2.589 7.27639 2.92779L8 4.375H2Z" stroke="black" stroke-width="1.25"/>
</svg>
