<svg width="14" height="14" viewBox="0 0 14 14" fill="none" xmlns="http://www.w3.org/2000/svg">
<path d="M7.70312 3.375C7.35795 3.375 7.07812 3.65482 7.07812 4C7.07812 4.34518 7.35795 4.625 7.70312 4.625V3.375ZM11.375 4.5V11.125H12.625V4.5H11.375ZM11.5 11H2.5V12.25H11.5V11ZM2.625 11.125V5H1.375V11.125H2.625ZM7.70312 4.625C7.70858 4.625 7.71402 4.625 7.71945 4.625C7.72488 4.625 7.73029 4.625 7.73568 4.625C7.74108 4.625 7.74646 4.625 7.75182 4.625C7.75718 4.625 7.76253 4.625 7.76787 4.625C7.7732 4.625 7.77852 4.625 7.78382 4.625C7.78912 4.625 7.79441 4.625 7.79968 4.625C7.80496 4.625 7.81021 4.625 7.81546 4.625C7.8207 4.625 7.82592 4.625 7.83114 4.625C7.83635 4.625 7.84154 4.625 7.84673 4.625C7.85191 4.625 7.85707 4.625 7.86223 4.625C7.86738 4.625 7.87251 4.625 7.87763 4.625C7.88276 4.625 7.88786 4.625 7.89295 4.625C7.89805 4.625 7.90312 4.625 7.90818 4.625C7.91325 4.625 7.91829 4.625 7.92333 4.625C7.92836 4.625 7.93338 4.625 7.93838 4.625C7.94338 4.625 7.94837 4.625 7.95334 4.625C7.95832 4.625 7.96328 4.625 7.96822 4.625C7.97316 4.625 7.97809 4.625 7.98301 4.625C7.98792 4.625 7.99282 4.625 7.99771 4.625C8.0026 4.625 8.00747 4.625 8.01232 4.625C8.01718 4.625 8.02202 4.625 8.02685 4.625C8.03168 4.625 8.0365 4.625 8.04129 4.625C8.04609 4.625 8.05088 4.625 8.05565 4.625C8.06042 4.625 8.06518 4.625 8.06992 4.625C8.07466 4.625 8.07939 4.625 8.08411 4.625C8.08882 4.625 8.09352 4.625 8.09821 4.625C8.10289 4.625 8.10756 4.625 8.11222 4.625C8.11688 4.625 8.12152 4.625 8.12615 4.625C8.13078 4.625 8.1354 4.625 8.14 4.625C8.1446 4.625 8.14919 4.625 8.15377 4.625C8.15834 4.625 8.1629 4.625 8.16745 4.625C8.17199 4.625 8.17653 4.625 8.18105 4.625C8.18556 4.625 8.19007 4.625 8.19456 4.625C8.19905 4.625 8.20353 4.625 8.208 4.625C8.21246 4.625 8.21691 4.625 8.22135 4.625C8.22578 4.625 8.23021 4.625 8.23462 4.625C8.23903 4.625 8.24342 4.625 8.24781 4.625C8.25219 4.625 8.25656 4.625 8.26092 4.625C8.26527 4.625 8.26961 4.625 8.27394 4.625C8.27827 4.625 8.28259 4.625 8.28689 4.625C8.29119 4.625 8.29548 4.625 8.29976 4.625C8.30404 4.625 8.3083 4.625 8.31255 4.625C8.3168 4.625 8.32104 4.625 8.32526 4.625C8.32948 4.625 8.33369 4.625 8.33789 4.625C8.34209 4.625 8.34627 4.625 8.35044 4.625C8.35461 4.625 8.35877 4.625 8.36292 4.625C8.36706 4.625 8.3712 4.625 8.37532 4.625C8.37944 4.625 8.38354 4.625 8.38764 4.625C8.39173 4.625 8.39581 4.625 8.39988 4.625C8.40395 4.625 8.408 4.625 8.41204 4.625C8.41609 4.625 8.42012 4.625 8.42413 4.625C8.42815 4.625 8.43216 4.625 8.43615 4.625C8.44014 4.625 8.44412 4.625 8.44809 4.625C8.45205 4.625 8.45601 4.625 8.45995 4.625C8.46389 4.625 8.46782 4.625 8.47174 4.625C8.47566 4.625 8.47956 4.625 8.48345 4.625C8.48734 4.625 8.49122 4.625 8.49509 4.625C8.49896 4.625 8.50281 4.625 8.50666 4.625C8.5105 4.625 8.51433 4.625 8.51815 4.625C8.52197 4.625 8.52577 4.625 8.52957 4.625C8.53336 4.625 8.53714 4.625 8.54091 4.625C8.54468 4.625 8.54844 4.625 8.55219 4.625C8.55593 4.625 8.55966 4.625 8.56339 4.625C8.56711 4.625 8.57082 4.625 8.57452 4.625C8.57821 4.625 8.5819 4.625 8.58557 4.625C8.58925 4.625 8.59291 4.625 8.59656 4.625C8.60021 4.625 8.60385 4.625 8.60748 4.625C8.6111 4.625 8.61472 4.625 8.61832 4.625C8.62192 4.625 8.62552 4.625 8.6291 4.625C8.63268 4.625 8.63624 4.625 8.6398 4.625C8.64336 4.625 8.6469 4.625 8.65044 4.625C8.65397 4.625 8.65749 4.625 8.661 4.625C8.66451 4.625 8.66801 4.625 8.6715 4.625C8.67499 4.625 8.67846 4.625 8.68193 4.625C8.68539 4.625 8.68885 4.625 8.69229 4.625C8.69573 4.625 8.69916 4.625 8.70258 4.625C8.706 4.625 8.70941 4.625 8.71281 4.625C8.71621 4.625 8.71959 4.625 8.72297 4.625C8.72634 4.625 8.72971 4.625 8.73306 4.625C8.73642 4.625 8.73976 4.625 8.74309 4.625C8.74642 4.625 8.74974 4.625 8.75305 4.625C8.75636 4.625 8.75966 4.625 8.76294 4.625C8.76623 4.625 8.76951 4.625 8.77277 4.625C8.77604 4.625 8.77929 4.625 8.78254 4.625C8.78578 4.625 8.78901 4.625 8.79223 4.625C8.79546 4.625 8.79867 4.625 8.80187 4.625C8.80507 4.625 8.80826 4.625 8.81144 4.625C8.81462 4.625 8.81779 4.625 8.82095 4.625C8.82411 4.625 8.82725 4.625 8.83039 4.625C8.83353 4.625 8.83666 4.625 8.83977 4.625C8.84289 4.625 8.846 4.625 8.84909 4.625C8.85219 4.625 8.85527 4.625 8.85835 4.625C8.86142 4.625 8.86449 4.625 8.86754 4.625C8.8706 4.625 8.87364 4.625 8.87667 4.625C8.87971 4.625 8.88273 4.625 8.88575 4.625C8.88876 4.625 8.89176 4.625 8.89476 4.625C8.89775 4.625 8.90073 4.625 8.90371 4.625C8.90668 4.625 8.90964 4.625 8.9126 4.625C8.91555 4.625 8.91849 4.625 8.92143 4.625C8.92436 4.625 8.92728 4.625 8.9302 4.625C8.93311 4.625 8.93601 4.625 8.93891 4.625C8.9418 4.625 8.94469 4.625 8.94756 4.625C8.95043 4.625 8.9533 4.625 8.95615 4.625C8.95901 4.625 8.96185 4.625 8.96469 4.625C8.96752 4.625 8.97035 4.625 8.97317 4.625C8.97598 4.625 8.97879 4.625 8.98159 4.625C8.98438 4.625 8.98717 4.625 8.98995 4.625C8.99273 4.625 8.9955 4.625 8.99826 4.625C9.00102 4.625 9.00377 4.625 9.00651 4.625C9.00925 4.625 9.01198 4.625 9.0147 4.625C9.01742 4.625 9.02014 4.625 9.02284 4.625C9.02554 4.625 9.02824 4.625 9.03092 4.625C9.03361 4.625 9.03628 4.625 9.03895 4.625C9.04162 4.625 9.04427 4.625 9.04692 4.625C9.04957 4.625 9.05221 4.625 9.05484 4.625C9.05747 4.625 9.06009 4.625 9.06271 4.625C9.06532 4.625 9.06792 4.625 9.07052 4.625C9.07311 4.625 9.0757 4.625 9.07827 4.625C9.08085 4.625 9.08342 4.625 9.08598 4.625C9.08854 4.625 9.09109 4.625 9.09363 4.625C9.09617 4.625 9.0987 4.625 9.10123 4.625C9.10375 4.625 9.10627 4.625 9.10878 4.625C9.11128 4.625 9.11378 4.625 9.11627 4.625C9.11876 4.625 9.12124 4.625 9.12372 4.625C9.12619 4.625 9.12865 4.625 9.13111 4.625C9.13357 4.625 9.13601 4.625 9.13845 4.625C9.14089 4.625 9.14332 4.625 9.14575 4.625C9.14817 4.625 9.15058 4.625 9.15299 4.625C9.15539 4.625 9.15779 4.625 9.16018 4.625C9.16257 4.625 9.16495 4.625 9.16732 4.625C9.1697 4.625 9.17206 4.625 9.17442 4.625C9.17678 4.625 9.17913 4.625 9.18147 4.625C9.18381 4.625 9.18614 4.625 9.18846 4.625C9.19079 4.625 9.19311 4.625 9.19541 4.625C9.19772 4.625 9.20002 4.625 9.20232 4.625C9.20461 4.625 9.2069 4.625 9.20917 4.625C9.21145 4.625 9.21372 4.625 9.21598 4.625C9.21824 4.625 9.2205 4.625 9.22274 4.625C9.22499 4.625 9.22723 4.625 9.22946 4.625C9.23169 4.625 9.23391 4.625 9.23613 4.625C9.23834 4.625 9.24055 4.625 9.24275 4.625C9.24495 4.625 9.24715 4.625 9.24933 4.625C9.25152 4.625 9.2537 4.625 9.25587 4.625C9.25804 4.625 9.2602 4.625 9.26236 4.625C9.26451 4.625 9.26666 4.625 9.2688 4.625C9.27095 4.625 9.27308 4.625 9.27521 4.625C9.27733 4.625 9.27945 4.625 9.28157 4.625C9.28368 4.625 9.28578 4.625 9.28788 4.625C9.28998 4.625 9.29207 4.625 9.29415 4.625C9.29624 4.625 9.29831 4.625 9.30038 4.625C9.30245 4.625 9.30452 4.625 9.30657 4.625C9.30863 4.625 9.31068 4.625 9.31272 4.625C9.31476 4.625 9.3168 4.625 9.31883 4.625C9.32085 4.625 9.32287 4.625 9.32489 4.625C9.3269 4.625 9.32891 4.625 9.33091 4.625C9.33291 4.625 9.33491 4.625 9.3369 4.625C9.33888 4.625 9.34087 4.625 9.34284 4.625C9.34481 4.625 9.34678 4.625 9.34874 4.625C9.35071 4.625 9.35266 4.625 9.35461 4.625C9.35656 4.625 9.3585 4.625 9.36043 4.625C9.36237 4.625 9.3643 4.625 9.36622 4.625C9.36814 4.625 9.37006 4.625 9.37197 4.625C9.37388 4.625 9.37578 4.625 9.37768 4.625C9.37958 4.625 9.38147 4.625 9.38335 4.625C9.38524 4.625 9.38712 4.625 9.38899 4.625C9.39086 4.625 9.39273 4.625 9.39459 4.625C9.39645 4.625 9.3983 4.625 9.40015 4.625C9.402 4.625 9.40384 4.625 9.40567 4.625C9.40751 4.625 9.40934 4.625 9.41116 4.625C9.41299 4.625 9.41481 4.625 9.41662 4.625C9.41843 4.625 9.42024 4.625 9.42204 4.625C9.42384 4.625 9.42563 4.625 9.42742 4.625C9.42921 4.625 9.43099 4.625 9.43277 4.625C9.43455 4.625 9.43632 4.625 9.43809 4.625C9.43985 4.625 9.44161 4.625 9.44337 4.625C9.44512 4.625 9.44687 4.625 9.44862 4.625C9.45036 4.625 9.4521 4.625 9.45383 4.625C9.45557 4.625 9.45729 4.625 9.45902 4.625C9.46074 4.625 9.46245 4.625 9.46416 4.625C9.46588 4.625 9.46758 4.625 9.46928 4.625C9.47098 4.625 9.47268 4.625 9.47437 4.625C9.47606 4.625 9.47774 4.625 9.47942 4.625C9.4811 4.625 9.48278 4.625 9.48445 4.625C9.48612 4.625 9.48778 4.625 9.48944 4.625C9.4911 4.625 9.49275 4.625 9.4944 4.625C9.49605 4.625 9.49769 4.625 9.49933 4.625C9.50097 4.625 9.50261 4.625 9.50424 4.625C9.50586 4.625 9.50749 4.625 9.50911 4.625C9.51073 4.625 9.51234 4.625 9.51395 4.625C9.51556 4.625 9.51717 4.625 9.51877 4.625C9.52037 4.625 9.52196 4.625 9.52355 4.625C9.52515 4.625 9.52673 4.625 9.52831 4.625C9.52989 4.625 9.53147 4.625 9.53304 4.625C9.53462 4.625 9.53618 4.625 9.53775 4.625C9.53931 4.625 9.54087 4.625 9.54243 4.625C9.54398 4.625 9.54553 4.625 9.54708 4.625C9.54862 4.625 9.55016 4.625 9.5517 4.625C9.55324 4.625 9.55477 4.625 9.5563 4.625C9.55783 4.625 9.55935 4.625 9.56087 4.625C9.56239 4.625 9.5639 4.625 9.56542 4.625C9.56693 4.625 9.56843 4.625 9.56994 4.625C9.57144 4.625 9.57294 4.625 9.57444 4.625C9.57593 4.625 9.57742 4.625 9.57891 4.625C9.5804 4.625 9.58188 4.625 9.58336 4.625C9.58484 4.625 9.58631 4.625 9.58778 4.625C9.58926 4.625 9.59072 4.625 9.59219 4.625C9.59365 4.625 9.59511 4.625 9.59657 4.625C9.59802 4.625 9.59947 4.625 9.60092 4.625C9.60237 4.625 9.60382 4.625 9.60526 4.625C9.6067 4.625 9.60814 4.625 9.60957 4.625C9.611 4.625 9.61244 4.625 9.61386 4.625C9.61529 4.625 9.61671 4.625 9.61813 4.625C9.61955 4.625 9.62097 4.625 9.62238 4.625C9.62379 4.625 9.6252 4.625 9.62661 4.625C9.62802 4.625 9.62942 4.625 9.63082 4.625C9.63222 4.625 9.63362 4.625 9.63501 4.625C9.6364 4.625 9.63779 4.625 9.63918 4.625C9.64056 4.625 9.64195 4.625 9.64333 4.625C9.64471 4.625 9.64609 4.625 9.64746 4.625C9.64883 4.625 9.65021 4.625 9.65157 4.625C9.65294 4.625 9.65431 4.625 9.65567 4.625C9.65703 4.625 9.65839 4.625 9.65975 4.625C9.6611 4.625 9.66246 4.625 9.66381 4.625C9.66516 4.625 9.6665 4.625 9.66785 4.625C9.66919 4.625 9.67054 4.625 9.67187 4.625C9.67321 4.625 9.67455 4.625 9.67588 4.625C9.67722 4.625 9.67855 4.625 9.67988 4.625C9.68121 4.625 9.68253 4.625 9.68386 4.625C9.68518 4.625 9.6865 4.625 9.68782 4.625C9.68914 4.625 9.69045 4.625 9.69177 4.625C9.69308 4.625 9.69439 4.625 9.6957 4.625C9.69701 4.625 9.69831 4.625 9.69962 4.625C9.70092 4.625 9.70222 4.625 9.70352 4.625C9.70482 4.625 9.70612 4.625 9.70741 4.625C9.70871 4.625 9.71 4.625 9.71129 4.625C9.71258 4.625 9.71387 4.625 9.71516 4.625C9.71644 4.625 9.71773 4.625 9.71901 4.625C9.72029 4.625 9.72157 4.625 9.72285 4.625C9.72413 4.625 9.7254 4.625 9.72668 4.625C9.72795 4.625 9.72922 4.625 9.73049 4.625C9.73176 4.625 9.73303 4.625 9.7343 4.625C9.73557 4.625 9.73683 4.625 9.73809 4.625C9.73936 4.625 9.74062 4.625 9.74188 4.625C9.74314 4.625 9.74439 4.625 9.74565 4.625C9.74691 4.625 9.74816 4.625 9.74941 4.625C9.75067 4.625 9.75192 4.625 9.75317 4.625C9.75442 4.625 9.75567 4.625 9.75691 4.625C9.75816 4.625 9.75941 4.625 9.76065 4.625C9.76189 4.625 9.76314 4.625 9.76438 4.625C9.76562 4.625 9.76686 4.625 9.7681 4.625C9.76934 4.625 9.77057 4.625 9.77181 4.625C9.77304 4.625 9.77428 4.625 9.77551 4.625C9.77675 4.625 9.77798 4.625 9.77921 4.625C9.78044 4.625 9.78167 4.625 9.7829 4.625C9.78413 4.625 9.78536 4.625 9.78658 4.625C9.78781 4.625 9.78904 4.625 9.79026 4.625C9.79149 4.625 9.79271 4.625 9.79393 4.625C9.79516 4.625 9.79638 4.625 9.7976 4.625C9.79882 4.625 9.80004 4.625 9.80126 4.625C9.80248 4.625 9.8037 4.625 9.80492 4.625C9.80614 4.625 9.80735 4.625 9.80857 4.625C9.80979 4.625 9.811 4.625 9.81222 4.625C9.81343 4.625 9.81465 4.625 9.81586 4.625C9.81708 4.625 9.81829 4.625 9.8195 4.625C9.82072 4.625 9.82193 4.625 9.82314 4.625C9.82435 4.625 9.82557 4.625 9.82678 4.625C9.82799 4.625 9.8292 4.625 9.83041 4.625C9.83162 4.625 9.83283 4.625 9.83404 4.625C9.83525 4.625 9.83646 4.625 9.83767 4.625C9.83888 4.625 9.84009 4.625 9.8413 4.625C9.84251 4.625 9.84372 4.625 9.84493 4.625C9.84614 4.625 9.84734 4.625 9.84855 4.625C9.84976 4.625 9.85097 4.625 9.85218 4.625C9.85339 4.625 9.8546 4.625 9.85581 4.625C9.85701 4.625 9.85822 4.625 9.85943 4.625C9.86064 4.625 9.86185 4.625 9.86306 4.625C9.86427 4.625 9.86548 4.625 9.86669 4.625C9.8679 4.625 9.86911 4.625 9.87032 4.625C9.87153 4.625 9.87274 4.625 9.87395 4.625C9.87516 4.625 9.87637 4.625 9.87758 4.625C9.8788 4.625 9.88001 4.625 9.88122 4.625C9.88243 4.625 9.88365 4.625 9.88486 4.625C9.88607 4.625 9.88729 4.625 9.8885 4.625C9.88972 4.625 9.89093 4.625 9.89215 4.625C9.89336 4.625 9.89458 4.625 9.8958 4.625C9.89701 4.625 9.89823 4.625 9.89945 4.625C9.90067 4.625 9.90189 4.625 9.90311 4.625C9.90433 4.625 9.90555 4.625 9.90677 4.625C9.90799 4.625 9.90922 4.625 9.91044 4.625C9.91166 4.625 9.91289 4.625 9.91411 4.625C9.91534 4.625 9.91657 4.625 9.91779 4.625C9.91902 4.625 9.92025 4.625 9.92148 4.625C9.92271 4.625 9.92394 4.625 9.92517 4.625C9.9264 4.625 9.92764 4.625 9.92887 4.625C9.93011 4.625 9.93134 4.625 9.93258 4.625C9.93382 4.625 9.93505 4.625 9.93629 4.625C9.93753 4.625 9.93877 4.625 9.94001 4.625C9.94126 4.625 9.9425 4.625 9.94375 4.625C9.94499 4.625 9.94624 4.625 9.94748 4.625C9.94873 4.625 9.94998 4.625 9.95123 4.625C9.95248 4.625 9.95374 4.625 9.95499 4.625C9.95624 4.625 9.9575 4.625 9.95876 4.625C9.96001 4.625 9.96127 4.625 9.96253 4.625C9.96379 4.625 9.96506 4.625 9.96632 4.625C9.96759 4.625 9.96885 4.625 9.97012 4.625C9.97139 4.625 9.97266 4.625 9.97393 4.625C9.9752 4.625 9.97647 4.625 9.97775 4.625C9.97902 4.625 9.9803 4.625 9.98158 4.625C9.98286 4.625 9.98414 4.625 9.98542 4.625C9.98671 4.625 9.98799 4.625 9.98928 4.625C9.99057 4.625 9.99186 4.625 9.99315 4.625C9.99444 4.625 9.99574 4.625 9.99703 4.625C9.99833 4.625 9.99963 4.625 10.0009 4.625C10.0022 4.625 10.0035 4.625 10.0048 4.625C10.0061 4.625 10.0075 4.625 10.0088 4.625C10.0101 4.625 10.0114 4.625 10.0127 4.625C10.014 4.625 10.0153 4.625 10.0167 4.625C10.018 4.625 10.0193 4.625 10.0206 4.625C10.0219 4.625 10.0233 4.625 10.0246 4.625C10.0259 4.625 10.0273 4.625 10.0286 4.625C10.0299 4.625 10.0313 4.625 10.0326 4.625C10.034 4.625 10.0353 4.625 10.0366 4.625C10.038 4.625 10.0393 4.625 10.0407 4.625C10.0421 4.625 10.0434 4.625 10.0448 4.625C10.0461 4.625 10.0475 4.625 10.0488 4.625C10.0502 4.625 10.0516 4.625 10.0529 4.625C10.0543 4.625 10.0557 4.625 10.0571 4.625C10.0584 4.625 10.0598 4.625 10.0612 4.625C10.0626 4.625 10.064 4.625 10.0654 4.625C10.0668 4.625 10.0681 4.625 10.0695 4.625C10.0709 4.625 10.0723 4.625 10.0737 4.625C10.0751 4.625 10.0765 4.625 10.078 4.625C10.0794 4.625 10.0808 4.625 10.0822 4.625C10.0836 4.625 10.085 4.625 10.0864 4.625C10.0879 4.625 10.0893 4.625 10.0907 4.625C10.0922 4.625 10.0936 4.625 10.095 4.625C10.0965 4.625 10.0979 4.625 10.0993 4.625C10.1008 4.625 10.1022 4.625 10.1037 4.625C10.1051 4.625 10.1066 4.625 10.108 4.625C10.1095 4.625 10.111 4.625 10.1124 4.625C10.1139 4.625 10.1154 4.625 10.1168 4.625C10.1183 4.625 10.1198 4.625 10.1213 4.625C10.1228 4.625 10.1242 4.625 10.1257 4.625C10.1272 4.625 10.1287 4.625 10.1302 4.625C10.1317 4.625 10.1332 4.625 10.1347 4.625C10.1362 4.625 10.1377 4.625 10.1393 4.625C10.1408 4.625 10.1423 4.625 10.1438 4.625C10.1453 4.625 10.1469 4.625 10.1484 4.625C10.1499 4.625 10.1515 4.625 10.153 4.625C10.1545 4.625 10.1561 4.625 10.1576 4.625C10.1592 4.625 10.1607 4.625 10.1623 4.625C10.1638 4.625 10.1654 4.625 10.167 4.625C10.1685 4.625 10.1701 4.625 10.1717 4.625C10.1733 4.625 10.1748 4.625 10.1764 4.625C10.178 4.625 10.1796 4.625 10.1812 4.625C10.1828 4.625 10.1844 4.625 10.186 4.625C10.1876 4.625 10.1892 4.625 10.1908 4.625C10.1924 4.625 10.194 4.625 10.1957 4.625C10.1973 4.625 10.1989 4.625 10.2006 4.625C10.2022 4.625 10.2038 4.625 10.2055 4.625C10.2071 4.625 10.2088 4.625 10.2104 4.625C10.2121 4.625 10.2137 4.625 10.2154 4.625C10.217 4.625 10.2187 4.625 10.2204 4.625C10.2221 4.625 10.2237 4.625 10.2254 4.625C10.2271 4.625 10.2288 4.625 10.2305 4.625C10.2322 4.625 10.2339 4.625 10.2356 4.625C10.2373 4.625 10.239 4.625 10.2407 4.625C10.2424 4.625 10.2441 4.625 10.2459 4.625C10.2476 4.625 10.2493 4.625 10.2511 4.625C10.2528 4.625 10.2545 4.625 10.2563 4.625C10.258 4.625 10.2598 4.625 10.2615 4.625C10.2633 4.625 10.2651 4.625 10.2668 4.625C10.2686 4.625 10.2704 4.625 10.2722 4.625C10.274 4.625 10.2757 4.625 10.2775 4.625C10.2793 4.625 10.2811 4.625 10.2829 4.625C10.2847 4.625 10.2865 4.625 10.2884 4.625C10.2902 4.625 10.292 4.625 10.2938 4.625C10.2957 4.625 10.2975 4.625 10.2993 4.625C10.3012 4.625 10.303 4.625 10.3049 4.625C10.3067 4.625 10.3086 4.625 10.3104 4.625C10.3123 4.625 10.3142 4.625 10.3161 4.625C10.3179 4.625 10.3198 4.625 10.3217 4.625C10.3236 4.625 10.3255 4.625 10.3274 4.625C10.3293 4.625 10.3312 4.625 10.3331 4.625C10.335 4.625 10.3369 4.625 10.3389 4.625C10.3408 4.625 10.3427 4.625 10.3447 4.625C10.3466 4.625 10.3486 4.625 10.3505 4.625C10.3525 4.625 10.3544 4.625 10.3564 4.625C10.3584 4.625 10.3603 4.625 10.3623 4.625C10.3643 4.625 10.3663 4.625 10.3683 4.625C10.3703 4.625 10.3723 4.625 10.3743 4.625C10.3763 4.625 10.3783 4.625 10.3803 4.625C10.3823 4.625 10.3843 4.625 10.3864 4.625C10.3884 4.625 10.3904 4.625 10.3925 4.625C10.3945 4.625 10.3966 4.625 10.3987 4.625C10.4007 4.625 10.4028 4.625 10.4049 4.625C10.4069 4.625 10.409 4.625 10.4111 4.625C10.4132 4.625 10.4153 4.625 10.4174 4.625C10.4195 4.625 10.4216 4.625 10.4237 4.625C10.4258 4.625 10.428 4.625 10.4301 4.625C10.4322 4.625 10.4344 4.625 10.4365 4.625C10.4387 4.625 10.4408 4.625 10.443 4.625C10.4451 4.625 10.4473 4.625 10.4495 4.625C10.4517 4.625 10.4538 4.625 10.456 4.625C10.4582 4.625 10.4604 4.625 10.4626 4.625C10.4648 4.625 10.467 4.625 10.4693 4.625C10.4715 4.625 10.4737 4.625 10.4759 4.625C10.4782 4.625 10.4804 4.625 10.4827 4.625C10.4849 4.625 10.4872 4.625 10.4895 4.625C10.4917 4.625 10.494 4.625 10.4963 4.625C10.4986 4.625 10.5009 4.625 10.5032 4.625C10.5054 4.625 10.5078 4.625 10.5101 4.625C10.5124 4.625 10.5147 4.625 10.517 4.625C10.5194 4.625 10.5217 4.625 10.5241 4.625C10.5264 4.625 10.5288 4.625 10.5311 4.625C10.5335 4.625 10.5358 4.625 10.5382 4.625C10.5406 4.625 10.543 4.625 10.5454 4.625C10.5478 4.625 10.5502 4.625 10.5526 4.625C10.555 4.625 10.5574 4.625 10.5599 4.625C10.5623 4.625 10.5647 4.625 10.5672 4.625C10.5696 4.625 10.5721 4.625 10.5745 4.625C10.577 4.625 10.5795 4.625 10.5819 4.625C10.5844 4.625 10.5869 4.625 10.5894 4.625C10.5919 4.625 10.5944 4.625 10.5969 4.625C10.5994 4.625 10.6019 4.625 10.6045 4.625C10.607 4.625 10.6095 4.625 10.6121 4.625C10.6146 4.625 10.6172 4.625 10.6198 4.625C10.6223 4.625 10.6249 4.625 10.6275 4.625C10.6301 4.625 10.6327 4.625 10.6353 4.625C10.6379 4.625 10.6405 4.625 10.6431 4.625C10.6457 4.625 10.6483 4.625 10.651 4.625C10.6536 4.625 10.6563 4.625 10.6589 4.625C10.6616 4.625 10.6642 4.625 10.6669 4.625C10.6696 4.625 10.6723 4.625 10.6749 4.625C10.6776 4.625 10.6803 4.625 10.683 4.625C10.6858 4.625 10.6885 4.625 10.6912 4.625C10.6939 4.625 10.6967 4.625 10.6994 4.625C10.7022 4.625 10.7049 4.625 10.7077 4.625C10.7105 4.625 10.7132 4.625 10.716 4.625C10.7188 4.625 10.7216 4.625 10.7244 4.625C10.7272 4.625 10.73 4.625 10.7328 4.625C10.7357 4.625 10.7385 4.625 10.7413 4.625C10.7442 4.625 10.747 4.625 10.7499 4.625C10.7528 4.625 10.7556 4.625 10.7585 4.625C10.7614 4.625 10.7643 4.625 10.7672 4.625C10.7701 4.625 10.773 4.625 10.7759 4.625C10.7788 4.625 10.7818 4.625 10.7847 4.625C10.7876 4.625 10.7906 4.625 10.7935 4.625C10.7965 4.625 10.7995 4.625 10.8025 4.625C10.8054 4.625 10.8084 4.625 10.8114 4.625C10.8144 4.625 10.8174 4.625 10.8205 4.625C10.8235 4.625 10.8265 4.625 10.8296 4.625C10.8326 4.625 10.8356 4.625 10.8387 4.625C10.8418 4.625 10.8448 4.625 10.8479 4.625C10.851 4.625 10.8541 4.625 10.8572 4.625C10.8603 4.625 10.8634 4.625 10.8665 4.625C10.8697 4.625 10.8728 4.625 10.8759 4.625C10.8791 4.625 10.8822 4.625 10.8854 4.625C10.8886 4.625 10.8917 4.625 10.8949 4.625C10.8981 4.625 10.9013 4.625 10.9045 4.625C10.9077 4.625 10.911 4.625 10.9142 4.625C10.9174 4.625 10.9207 4.625 10.9239 4.625C10.9272 4.625 10.9304 4.625 10.9337 4.625C10.937 4.625 10.9402 4.625 10.9435 4.625C10.9468 4.625 10.9501 4.625 10.9535 4.625C10.9568 4.625 10.9601 4.625 10.9634 4.625C10.9668 4.625 10.9701 4.625 10.9735 4.625C10.9768 4.625 10.9802 4.625 10.9836 4.625C10.987 4.625 10.9904 4.625 10.9938 4.625C10.9972 4.625 11.0006 4.625 11.004 4.625C11.0075 4.625 11.0109 4.625 11.0144 4.625C11.0178 4.625 11.0213 4.625 11.0247 4.625C11.0282 4.625 11.0317 4.625 11.0352 4.625C11.0387 4.625 11.0422 4.625 11.0457 4.625C11.0492 4.625 11.0528 4.625 11.0563 4.625C11.0598 4.625 11.0634 4.625 11.067 4.625C11.0705 4.625 11.0741 4.625 11.0777 4.625C11.0813 4.625 11.0849 4.625 11.0885 4.625C11.0921 4.625 11.0957 4.625 11.0994 4.625C11.103 4.625 11.1066 4.625 11.1103 4.625C11.114 4.625 11.1176 4.625 11.1213 4.625C11.125 4.625 11.1287 4.625 11.1324 4.625C11.1361 4.625 11.1398 4.625 11.1435 4.625C11.1473 4.625 11.151 4.625 11.1548 4.625C11.1585 4.625 11.1623 4.625 11.1661 4.625C11.1698 4.625 11.1736 4.625 11.1774 4.625C11.1812 4.625 11.1851 4.625 11.1889 4.625C11.1927 4.625 11.1965 4.625 11.2004 4.625C11.2042 4.625 11.2081 4.625 11.212 4.625C11.2159 4.625 11.2197 4.625 11.2237 4.625C11.2276 4.625 11.2315 4.625 11.2354 4.625C11.2393 4.625 11.2433 4.625 11.2472 4.625C11.2512 4.625 11.2551 4.625 11.2591 4.625C11.2631 4.625 11.2671 4.625 11.2711 4.625C11.2751 4.625 11.2791 4.625 11.2831 4.625C11.2871 4.625 11.2912 4.625 11.2952 4.625C11.2993 4.625 11.3033 4.625 11.3074 4.625C11.3115 4.625 11.3156 4.625 11.3197 4.625C11.3238 4.625 11.3279 4.625 11.332 4.625C11.3361 4.625 11.3403 4.625 11.3444 4.625C11.3486 4.625 11.3528 4.625 11.3569 4.625C11.3611 4.625 11.3653 4.625 11.3695 4.625C11.3737 4.625 11.3779 4.625 11.3822 4.625C11.3864 4.625 11.3907 4.625 11.3949 4.625C11.3992 4.625 11.4034 4.625 11.4077 4.625C11.412 4.625 11.4163 4.625 11.4206 4.625C11.4249 4.625 11.4293 4.625 11.4336 4.625C11.4379 4.625 11.4423 4.625 11.4467 4.625C11.451 4.625 11.4554 4.625 11.4598 4.625C11.4642 4.625 11.4686 4.625 11.473 4.625C11.4774 4.625 11.4819 4.625 11.4863 4.625C11.4908 4.625 11.4952 4.625 11.4997 4.625V3.375C11.4952 3.375 11.4908 3.375 11.4863 3.375C11.4819 3.375 11.4774 3.375 11.473 3.375C11.4686 3.375 11.4642 3.375 11.4598 3.375C11.4554 3.375 11.451 3.375 11.4467 3.375C11.4423 3.375 11.4379 3.375 11.4336 3.375C11.4293 3.375 11.4249 3.375 11.4206 3.375C11.4163 3.375 11.412 3.375 11.4077 3.375C11.4034 3.375 11.3992 3.375 11.3949 3.375C11.3907 3.375 11.3864 3.375 11.3822 3.375C11.3779 3.375 11.3737 3.375 11.3695 3.375C11.3653 3.375 11.3611 3.375 11.3569 3.375C11.3528 3.375 11.3486 3.375 11.3444 3.375C11.3403 3.375 11.3361 3.375 11.332 3.375C11.3279 3.375 11.3238 3.375 11.3197 3.375C11.3156 3.375 11.3115 3.375 11.3074 3.375C11.3033 3.375 11.2993 3.375 11.2952 3.375C11.2912 3.375 11.2871 3.375 11.2831 3.375C11.2791 3.375 11.2751 3.375 11.2711 3.375C11.2671 3.375 11.2631 3.375 11.2591 3.375C11.2551 3.375 11.2512 3.375 11.2472 3.375C11.2433 3.375 11.2393 3.375 11.2354 3.375C11.2315 3.375 11.2276 3.375 11.2237 3.375C11.2197 3.375 11.2159 3.375 11.212 3.375C11.2081 3.375 11.2042 3.375 11.2004 3.375C11.1965 3.375 11.1927 3.375 11.1889 3.375C11.1851 3.375 11.1812 3.375 11.1774 3.375C11.1736 3.375 11.1698 3.375 11.1661 3.375C11.1623 3.375 11.1585 3.375 11.1548 3.375C11.151 3.375 11.1473 3.375 11.1435 3.375C11.1398 3.375 11.1361 3.375 11.1324 3.375C11.1287 3.375 11.125 3.375 11.1213 3.375C11.1176 3.375 11.114 3.375 11.1103 3.375C11.1066 3.375 11.103 3.375 11.0994 3.375C11.0957 3.375 11.0921 3.375 11.0885 3.375C11.0849 3.375 11.0813 3.375 11.0777 3.375C11.0741 3.375 11.0705 3.375 11.067 3.375C11.0634 3.375 11.0598 3.375 11.0563 3.375C11.0528 3.375 11.0492 3.375 11.0457 3.375C11.0422 3.375 11.0387 3.375 11.0352 3.375C11.0317 3.375 11.0282 3.375 11.0247 3.375C11.0213 3.375 11.0178 3.375 11.0144 3.375C11.0109 3.375 11.0075 3.375 11.004 3.375C11.0006 3.375 10.9972 3.375 10.9938 3.375C10.9904 3.375 10.987 3.375 10.9836 3.375C10.9802 3.375 10.9768 3.375 10.9735 3.375C10.9701 3.375 10.9668 3.375 10.9634 3.375C10.9601 3.375 10.9568 3.375 10.9535 3.375C10.9501 3.375 10.9468 3.375 10.9435 3.375C10.9402 3.375 10.937 3.375 10.9337 3.375C10.9304 3.375 10.9272 3.375 10.9239 3.375C10.9207 3.375 10.9174 3.375 10.9142 3.375C10.911 3.375 10.9077 3.375 10.9045 3.375C10.9013 3.375 10.8981 3.375 10.8949 3.375C10.8917 3.375 10.8886 3.375 10.8854 3.375C10.8822 3.375 10.8791 3.375 10.8759 3.375C10.8728 3.375 10.8697 3.375 10.8665 3.375C10.8634 3.375 10.8603 3.375 10.8572 3.375C10.8541 3.375 10.851 3.375 10.8479 3.375C10.8448 3.375 10.8418 3.375 10.8387 3.375C10.8356 3.375 10.8326 3.375 10.8296 3.375C10.8265 3.375 10.8235 3.375 10.8205 3.375C10.8174 3.375 10.8144 3.375 10.8114 3.375C10.8084 3.375 10.8054 3.375 10.8025 3.375C10.7995 3.375 10.7965 3.375 10.7935 3.375C10.7906 3.375 10.7876 3.375 10.7847 3.375C10.7818 3.375 10.7788 3.375 10.7759 3.375C10.773 3.375 10.7701 3.375 10.7672 3.375C10.7643 3.375 10.7614 3.375 10.7585 3.375C10.7556 3.375 10.7528 3.375 10.7499 3.375C10.747 3.375 10.7442 3.375 10.7413 3.375C10.7385 3.375 10.7357 3.375 10.7328 3.375C10.73 3.375 10.7272 3.375 10.7244 3.375C10.7216 3.375 10.7188 3.375 10.716 3.375C10.7132 3.375 10.7105 3.375 10.7077 3.375C10.7049 3.375 10.7022 3.375 10.6994 3.375C10.6967 3.375 10.6939 3.375 10.6912 3.375C10.6885 3.375 10.6858 3.375 10.683 3.375C10.6803 3.375 10.6776 3.375 10.6749 3.375C10.6723 3.375 10.6696 3.375 10.6669 3.375C10.6642 3.375 10.6616 3.375 10.6589 3.375C10.6563 3.375 10.6536 3.375 10.651 3.375C10.6483 3.375 10.6457 3.375 10.6431 3.375C10.6405 3.375 10.6379 3.375 10.6353 3.375C10.6327 3.375 10.6301 3.375 10.6275 3.375C10.6249 3.375 10.6223 3.375 10.6198 3.375C10.6172 3.375 10.6146 3.375 10.6121 3.375C10.6095 3.375 10.607 3.375 10.6045 3.375C10.6019 3.375 10.5994 3.375 10.5969 3.375C10.5944 3.375 10.5919 3.375 10.5894 3.375C10.5869 3.375 10.5844 3.375 10.5819 3.375C10.5795 3.375 10.577 3.375 10.5745 3.375C10.5721 3.375 10.5696 3.375 10.5672 3.375C10.5647 3.375 10.5623 3.375 10.5599 3.375C10.5574 3.375 10.555 3.375 10.5526 3.375C10.5502 3.375 10.5478 3.375 10.5454 3.375C10.543 3.375 10.5406 3.375 10.5382 3.375C10.5358 3.375 10.5335 3.375 10.5311 3.375C10.5288 3.375 10.5264 3.375 10.5241 3.375C10.5217 3.375 10.5194 3.375 10.517 3.375C10.5147 3.375 10.5124 3.375 10.5101 3.375C10.5078 3.375 10.5054 3.375 10.5032 3.375C10.5009 3.375 10.4986 3.375 10.4963 3.375C10.494 3.375 10.4917 3.375 10.4895 3.375C10.4872 3.375 10.4849 3.375 10.4827 3.375C10.4804 3.375 10.4782 3.375 10.4759 3.375C10.4737 3.375 10.4715 3.375 10.4693 3.375C10.467 3.375 10.4648 3.375 10.4626 3.375C10.4604 3.375 10.4582 3.375 10.456 3.375C10.4538 3.375 10.4517 3.375 10.4495 3.375C10.4473 3.375 10.4451 3.375 10.443 3.375C10.4408 3.375 10.4387 3.375 10.4365 3.375C10.4344 3.375 10.4322 3.375 10.4301 3.375C10.428 3.375 10.4258 3.375 10.4237 3.375C10.4216 3.375 10.4195 3.375 10.4174 3.375C10.4153 3.375 10.4132 3.375 10.4111 3.375C10.409 3.375 10.4069 3.375 10.4049 3.375C10.4028 3.375 10.4007 3.375 10.3987 3.375C10.3966 3.375 10.3945 3.375 10.3925 3.375C10.3904 3.375 10.3884 3.375 10.3864 3.375C10.3843 3.375 10.3823 3.375 10.3803 3.375C10.3783 3.375 10.3763 3.375 10.3743 3.375C10.3723 3.375 10.3703 3.375 10.3683 3.375C10.3663 3.375 10.3643 3.375 10.3623 3.375C10.3603 3.375 10.3584 3.375 10.3564 3.375C10.3544 3.375 10.3525 3.375 10.3505 3.375C10.3486 3.375 10.3466 3.375 10.3447 3.375C10.3427 3.375 10.3408 3.375 10.3389 3.375C10.3369 3.375 10.335 3.375 10.3331 3.375C10.3312 3.375 10.3293 3.375 10.3274 3.375C10.3255 3.375 10.3236 3.375 10.3217 3.375C10.3198 3.375 10.3179 3.375 10.3161 3.375C10.3142 3.375 10.3123 3.375 10.3104 3.375C10.3086 3.375 10.3067 3.375 10.3049 3.375C10.303 3.375 10.3012 3.375 10.2993 3.375C10.2975 3.375 10.2957 3.375 10.2938 3.375C10.292 3.375 10.2902 3.375 10.2884 3.375C10.2865 3.375 10.2847 3.375 10.2829 3.375C10.2811 3.375 10.2793 3.375 10.2775 3.375C10.2757 3.375 10.274 3.375 10.2722 3.375C10.2704 3.375 10.2686 3.375 10.2668 3.375C10.2651 3.375 10.2633 3.375 10.2615 3.375C10.2598 3.375 10.258 3.375 10.2563 3.375C10.2545 3.375 10.2528 3.375 10.2511 3.375C10.2493 3.375 10.2476 3.375 10.2459 3.375C10.2441 3.375 10.2424 3.375 10.2407 3.375C10.239 3.375 10.2373 3.375 10.2356 3.375C10.2339 3.375 10.2322 3.375 10.2305 3.375C10.2288 3.375 10.2271 3.375 10.2254 3.375C10.2237 3.375 10.2221 3.375 10.2204 3.375C10.2187 3.375 10.217 3.375 10.2154 3.375C10.2137 3.375 10.2121 3.375 10.2104 3.375C10.2088 3.375 10.2071 3.375 10.2055 3.375C10.2038 3.375 10.2022 3.375 10.2006 3.375C10.1989 3.375 10.1973 3.375 10.1957 3.375C10.194 3.375 10.1924 3.375 10.1908 3.375C10.1892 3.375 10.1876 3.375 10.186 3.375C10.1844 3.375 10.1828 3.375 10.1812 3.375C10.1796 3.375 10.178 3.375 10.1764 3.375C10.1748 3.375 10.1733 3.375 10.1717 3.375C10.1701 3.375 10.1685 3.375 10.167 3.375C10.1654 3.375 10.1638 3.375 10.1623 3.375C10.1607 3.375 10.1592 3.375 10.1576 3.375C10.1561 3.375 10.1545 3.375 10.153 3.375C10.1515 3.375 10.1499 3.375 10.1484 3.375C10.1469 3.375 10.1453 3.375 10.1438 3.375C10.1423 3.375 10.1408 3.375 10.1393 3.375C10.1377 3.375 10.1362 3.375 10.1347 3.375C10.1332 3.375 10.1317 3.375 10.1302 3.375C10.1287 3.375 10.1272 3.375 10.1257 3.375C10.1242 3.375 10.1228 3.375 10.1213 3.375C10.1198 3.375 10.1183 3.375 10.1168 3.375C10.1154 3.375 10.1139 3.375 10.1124 3.375C10.111 3.375 10.1095 3.375 10.108 3.375C10.1066 3.375 10.1051 3.375 10.1037 3.375C10.1022 3.375 10.1008 3.375 10.0993 3.375C10.0979 3.375 10.0965 3.375 10.095 3.375C10.0936 3.375 10.0922 3.375 10.0907 3.375C10.0893 3.375 10.0879 3.375 10.0864 3.375C10.085 3.375 10.0836 3.375 10.0822 3.375C10.0808 3.375 10.0794 3.375 10.078 3.375C10.0765 3.375 10.0751 3.375 10.0737 3.375C10.0723 3.375 10.0709 3.375 10.0695 3.375C10.0681 3.375 10.0668 3.375 10.0654 3.375C10.064 3.375 10.0626 3.375 10.0612 3.375C10.0598 3.375 10.0584 3.375 10.0571 3.375C10.0557 3.375 10.0543 3.375 10.0529 3.375C10.0516 3.375 10.0502 3.375 10.0488 3.375C10.0475 3.375 10.0461 3.375 10.0448 3.375C10.0434 3.375 10.0421 3.375 10.0407 3.375C10.0393 3.375 10.038 3.375 10.0366 3.375C10.0353 3.375 10.034 3.375 10.0326 3.375C10.0313 3.375 10.0299 3.375 10.0286 3.375C10.0273 3.375 10.0259 3.375 10.0246 3.375C10.0233 3.375 10.0219 3.375 10.0206 3.375C10.0193 3.375 10.018 3.375 10.0167 3.375C10.0153 3.375 10.014 3.375 10.0127 3.375C10.0114 3.375 10.0101 3.375 10.0088 3.375C10.0075 3.375 10.0061 3.375 10.0048 3.375C10.0035 3.375 10.0022 3.375 10.0009 3.375C9.99963 3.375 9.99833 3.375 9.99703 3.375C9.99574 3.375 9.99444 3.375 9.99315 3.375C9.99186 3.375 9.99057 3.375 9.98928 3.375C9.98799 3.375 9.98671 3.375 9.98542 3.375C9.98414 3.375 9.98286 3.375 9.98158 3.375C9.9803 3.375 9.97902 3.375 9.97775 3.375C9.97647 3.375 9.9752 3.375 9.97393 3.375C9.97266 3.375 9.97139 3.375 9.97012 3.375C9.96885 3.375 9.96759 3.375 9.96632 3.375C9.96506 3.375 9.96379 3.375 9.96253 3.375C9.96127 3.375 9.96001 3.375 9.95876 3.375C9.9575 3.375 9.95624 3.375 9.95499 3.375C9.95374 3.375 9.95248 3.375 9.95123 3.375C9.94998 3.375 9.94873 3.375 9.94748 3.375C9.94624 3.375 9.94499 3.375 9.94375 3.375C9.9425 3.375 9.94126 3.375 9.94001 3.375C9.93877 3.375 9.93753 3.375 9.93629 3.375C9.93505 3.375 9.93382 3.375 9.93258 3.375C9.93134 3.375 9.93011 3.375 9.92887 3.375C9.92764 3.375 9.9264 3.375 9.92517 3.375C9.92394 3.375 9.92271 3.375 9.92148 3.375C9.92025 3.375 9.91902 3.375 9.91779 3.375C9.91657 3.375 9.91534 3.375 9.91411 3.375C9.91289 3.375 9.91166 3.375 9.91044 3.375C9.90922 3.375 9.90799 3.375 9.90677 3.375C9.90555 3.375 9.90433 3.375 9.90311 3.375C9.90189 3.375 9.90067 3.375 9.89945 3.375C9.89823 3.375 9.89701 3.375 9.8958 3.375C9.89458 3.375 9.89336 3.375 9.89215 3.375C9.89093 3.375 9.88972 3.375 9.8885 3.375C9.88729 3.375 9.88607 3.375 9.88486 3.375C9.88365 3.375 9.88243 3.375 9.88122 3.375C9.88001 3.375 9.8788 3.375 9.87758 3.375C9.87637 3.375 9.87516 3.375 9.87395 3.375C9.87274 3.375 9.87153 3.375 9.87032 3.375C9.86911 3.375 9.8679 3.375 9.86669 3.375C9.86548 3.375 9.86427 3.375 9.86306 3.375C9.86185 3.375 9.86064 3.375 9.85943 3.375C9.85822 3.375 9.85701 3.375 9.85581 3.375C9.8546 3.375 9.85339 3.375 9.85218 3.375C9.85097 3.375 9.84976 3.375 9.84855 3.375C9.84734 3.375 9.84614 3.375 9.84493 3.375C9.84372 3.375 9.84251 3.375 9.8413 3.375C9.84009 3.375 9.83888 3.375 9.83767 3.375C9.83646 3.375 9.83525 3.375 9.83404 3.375C9.83283 3.375 9.83162 3.375 9.83041 3.375C9.8292 3.375 9.82799 3.375 9.82678 3.375C9.82557 3.375 9.82435 3.375 9.82314 3.375C9.82193 3.375 9.82072 3.375 9.8195 3.375C9.81829 3.375 9.81708 3.375 9.81586 3.375C9.81465 3.375 9.81343 3.375 9.81222 3.375C9.811 3.375 9.80979 3.375 9.80857 3.375C9.80735 3.375 9.80614 3.375 9.80492 3.375C9.8037 3.375 9.80248 3.375 9.80126 3.375C9.80004 3.375 9.79882 3.375 9.7976 3.375C9.79638 3.375 9.79516 3.375 9.79393 3.375C9.79271 3.375 9.79149 3.375 9.79026 3.375C9.78904 3.375 9.78781 3.375 9.78658 3.375C9.78536 3.375 9.78413 3.375 9.7829 3.375C9.78167 3.375 9.78044 3.375 9.77921 3.375C9.77798 3.375 9.77675 3.375 9.77551 3.375C9.77428 3.375 9.77304 3.375 9.77181 3.375C9.77057 3.375 9.76934 3.375 9.7681 3.375C9.76686 3.375 9.76562 3.375 9.76438 3.375C9.76314 3.375 9.76189 3.375 9.76065 3.375C9.75941 3.375 9.75816 3.375 9.75691 3.375C9.75567 3.375 9.75442 3.375 9.75317 3.375C9.75192 3.375 9.75067 3.375 9.74941 3.375C9.74816 3.375 9.74691 3.375 9.74565 3.375C9.74439 3.375 9.74314 3.375 9.74188 3.375C9.74062 3.375 9.73936 3.375 9.73809 3.375C9.73683 3.375 9.73557 3.375 9.7343 3.375C9.73303 3.375 9.73176 3.375 9.73049 3.375C9.72922 3.375 9.72795 3.375 9.72668 3.375C9.7254 3.375 9.72413 3.375 9.72285 3.375C9.72157 3.375 9.72029 3.375 9.71901 3.375C9.71773 3.375 9.71644 3.375 9.71516 3.375C9.71387 3.375 9.71258 3.375 9.71129 3.375C9.71 3.375 9.70871 3.375 9.70741 3.375C9.70612 3.375 9.70482 3.375 9.70352 3.375C9.70222 3.375 9.70092 3.375 9.69962 3.375C9.69831 3.375 9.69701 3.375 9.6957 3.375C9.69439 3.375 9.69308 3.375 9.69177 3.375C9.69045 3.375 9.68914 3.375 9.68782 3.375C9.6865 3.375 9.68518 3.375 9.68386 3.375C9.68253 3.375 9.68121 3.375 9.67988 3.375C9.67855 3.375 9.67722 3.375 9.67588 3.375C9.67455 3.375 9.67321 3.375 9.67187 3.375C9.67054 3.375 9.66919 3.375 9.66785 3.375C9.6665 3.375 9.66516 3.375 9.66381 3.375C9.66246 3.375 9.6611 3.375 9.65975 3.375C9.65839 3.375 9.65703 3.375 9.65567 3.375C9.65431 3.375 9.65294 3.375 9.65157 3.375C9.65021 3.375 9.64883 3.375 9.64746 3.375C9.64609 3.375 9.64471 3.375 9.64333 3.375C9.64195 3.375 9.64056 3.375 9.63918 3.375C9.63779 3.375 9.6364 3.375 9.63501 3.375C9.63362 3.375 9.63222 3.375 9.63082 3.375C9.62942 3.375 9.62802 3.375 9.62661 3.375C9.6252 3.375 9.62379 3.375 9.62238 3.375C9.62097 3.375 9.61955 3.375 9.61813 3.375C9.61671 3.375 9.61529 3.375 9.61386 3.375C9.61244 3.375 9.611 3.375 9.60957 3.375C9.60814 3.375 9.6067 3.375 9.60526 3.375C9.60382 3.375 9.60237 3.375 9.60092 3.375C9.59947 3.375 9.59802 3.375 9.59657 3.375C9.59511 3.375 9.59365 3.375 9.59219 3.375C9.59072 3.375 9.58926 3.375 9.58778 3.375C9.58631 3.375 9.58484 3.375 9.58336 3.375C9.58188 3.375 9.5804 3.375 9.57891 3.375C9.57742 3.375 9.57593 3.375 9.57444 3.375C9.57294 3.375 9.57144 3.375 9.56994 3.375C9.56843 3.375 9.56693 3.375 9.56542 3.375C9.5639 3.375 9.56239 3.375 9.56087 3.375C9.55935 3.375 9.55783 3.375 9.5563 3.375C9.55477 3.375 9.55324 3.375 9.5517 3.375C9.55016 3.375 9.54862 3.375 9.54708 3.375C9.54553 3.375 9.54398 3.375 9.54243 3.375C9.54087 3.375 9.53931 3.375 9.53775 3.375C9.53618 3.375 9.53462 3.375 9.53304 3.375C9.53147 3.375 9.52989 3.375 9.52831 3.375C9.52673 3.375 9.52515 3.375 9.52355 3.375C9.52196 3.375 9.52037 3.375 9.51877 3.375C9.51717 3.375 9.51556 3.375 9.51395 3.375C9.51234 3.375 9.51073 3.375 9.50911 3.375C9.50749 3.375 9.50586 3.375 9.50424 3.375C9.50261 3.375 9.50097 3.375 9.49933 3.375C9.49769 3.375 9.49605 3.375 9.4944 3.375C9.49275 3.375 9.4911 3.375 9.48944 3.375C9.48778 3.375 9.48612 3.375 9.48445 3.375C9.48278 3.375 9.4811 3.375 9.47942 3.375C9.47774 3.375 9.47606 3.375 9.47437 3.375C9.47268 3.375 9.47098 3.375 9.46928 3.375C9.46758 3.375 9.46588 3.375 9.46416 3.375C9.46245 3.375 9.46074 3.375 9.45902 3.375C9.45729 3.375 9.45557 3.375 9.45383 3.375C9.4521 3.375 9.45036 3.375 9.44862 3.375C9.44687 3.375 9.44512 3.375 9.44337 3.375C9.44161 3.375 9.43985 3.375 9.43809 3.375C9.43632 3.375 9.43455 3.375 9.43277 3.375C9.43099 3.375 9.42921 3.375 9.42742 3.375C9.42563 3.375 9.42384 3.375 9.42204 3.375C9.42024 3.375 9.41843 3.375 9.41662 3.375C9.41481 3.375 9.41299 3.375 9.41116 3.375C9.40934 3.375 9.40751 3.375 9.40567 3.375C9.40384 3.375 9.402 3.375 9.40015 3.375C9.3983 3.375 9.39645 3.375 9.39459 3.375C9.39273 3.375 9.39086 3.375 9.38899 3.375C9.38712 3.375 9.38524 3.375 9.38335 3.375C9.38147 3.375 9.37958 3.375 9.37768 3.375C9.37578 3.375 9.37388 3.375 9.37197 3.375C9.37006 3.375 9.36814 3.375 9.36622 3.375C9.3643 3.375 9.36237 3.375 9.36043 3.375C9.3585 3.375 9.35656 3.375 9.35461 3.375C9.35266 3.375 9.35071 3.375 9.34874 3.375C9.34678 3.375 9.34481 3.375 9.34284 3.375C9.34087 3.375 9.33888 3.375 9.3369 3.375C9.33491 3.375 9.33291 3.375 9.33091 3.375C9.32891 3.375 9.3269 3.375 9.32489 3.375C9.32287 3.375 9.32085 3.375 9.31883 3.375C9.3168 3.375 9.31476 3.375 9.31272 3.375C9.31068 3.375 9.30863 3.375 9.30657 3.375C9.30452 3.375 9.30245 3.375 9.30038 3.375C9.29831 3.375 9.29624 3.375 9.29415 3.375C9.29207 3.375 9.28998 3.375 9.28788 3.375C9.28578 3.375 9.28368 3.375 9.28157 3.375C9.27945 3.375 9.27733 3.375 9.27521 3.375C9.27308 3.375 9.27095 3.375 9.2688 3.375C9.26666 3.375 9.26451 3.375 9.26236 3.375C9.2602 3.375 9.25804 3.375 9.25587 3.375C9.2537 3.375 9.25152 3.375 9.24933 3.375C9.24715 3.375 9.24495 3.375 9.24275 3.375C9.24055 3.375 9.23834 3.375 9.23613 3.375C9.23391 3.375 9.23169 3.375 9.22946 3.375C9.22723 3.375 9.22499 3.375 9.22274 3.375C9.2205 3.375 9.21824 3.375 9.21598 3.375C9.21372 3.375 9.21145 3.375 9.20917 3.375C9.2069 3.375 9.20461 3.375 9.20232 3.375C9.20002 3.375 9.19772 3.375 9.19541 3.375C9.19311 3.375 9.19079 3.375 9.18846 3.375C9.18614 3.375 9.18381 3.375 9.18147 3.375C9.17913 3.375 9.17678 3.375 9.17442 3.375C9.17206 3.375 9.1697 3.375 9.16732 3.375C9.16495 3.375 9.16257 3.375 9.16018 3.375C9.15779 3.375 9.15539 3.375 9.15299 3.375C9.15058 3.375 9.14817 3.375 9.14575 3.375C9.14332 3.375 9.14089 3.375 9.13845 3.375C9.13601 3.375 9.13357 3.375 9.13111 3.375C9.12865 3.375 9.12619 3.375 9.12372 3.375C9.12124 3.375 9.11876 3.375 9.11627 3.375C9.11378 3.375 9.11128 3.375 9.10878 3.375C9.10627 3.375 9.10375 3.375 9.10123 3.375C9.0987 3.375 9.09617 3.375 9.09363 3.375C9.09109 3.375 9.08854 3.375 9.08598 3.375C9.08342 3.375 9.08085 3.375 9.07827 3.375C9.0757 3.375 9.07311 3.375 9.07052 3.375C9.06792 3.375 9.06532 3.375 9.06271 3.375C9.06009 3.375 9.05747 3.375 9.05484 3.375C9.05221 3.375 9.04957 3.375 9.04692 3.375C9.04427 3.375 9.04162 3.375 9.03895 3.375C9.03628 3.375 9.03361 3.375 9.03092 3.375C9.02824 3.375 9.02554 3.375 9.02284 3.375C9.02014 3.375 9.01742 3.375 9.0147 3.375C9.01198 3.375 9.00925 3.375 9.00651 3.375C9.00377 3.375 9.00102 3.375 8.99826 3.375C8.9955 3.375 8.99273 3.375 8.98995 3.375C8.98717 3.375 8.98438 3.375 8.98159 3.375C8.97879 3.375 8.97598 3.375 8.97317 3.375C8.97035 3.375 8.96752 3.375 8.96469 3.375C8.96185 3.375 8.95901 3.375 8.95615 3.375C8.9533 3.375 8.95043 3.375 8.94756 3.375C8.94469 3.375 8.9418 3.375 8.93891 3.375C8.93601 3.375 8.93311 3.375 8.9302 3.375C8.92728 3.375 8.92436 3.375 8.92143 3.375C8.91849 3.375 8.91555 3.375 8.9126 3.375C8.90964 3.375 8.90668 3.375 8.90371 3.375C8.90073 3.375 8.89775 3.375 8.89476 3.375C8.89176 3.375 8.88876 3.375 8.88575 3.375C8.88273 3.375 8.87971 3.375 8.87667 3.375C8.87364 3.375 8.8706 3.375 8.86754 3.375C8.86449 3.375 8.86142 3.375 8.85835 3.375C8.85527 3.375 8.85219 3.375 8.84909 3.375C8.846 3.375 8.84289 3.375 8.83977 3.375C8.83666 3.375 8.83353 3.375 8.83039 3.375C8.82725 3.375 8.82411 3.375 8.82095 3.375C8.81779 3.375 8.81462 3.375 8.81144 3.375C8.80826 3.375 8.80507 3.375 8.80187 3.375C8.79867 3.375 8.79546 3.375 8.79223 3.375C8.78901 3.375 8.78578 3.375 8.78254 3.375C8.77929 3.375 8.77604 3.375 8.77277 3.375C8.76951 3.375 8.76623 3.375 8.76294 3.375C8.75966 3.375 8.75636 3.375 8.75305 3.375C8.74974 3.375 8.74642 3.375 8.74309 3.375C8.73976 3.375 8.73642 3.375 8.73306 3.375C8.72971 3.375 8.72634 3.375 8.72297 3.375C8.71959 3.375 8.71621 3.375 8.71281 3.375C8.70941 3.375 8.706 3.375 8.70258 3.375C8.69916 3.375 8.69573 3.375 8.69229 3.375C8.68885 3.375 8.68539 3.375 8.68193 3.375C8.67846 3.375 8.67499 3.375 8.6715 3.375C8.66801 3.375 8.66451 3.375 8.661 3.375C8.65749 3.375 8.65397 3.375 8.65044 3.375C8.6469 3.375 8.64336 3.375 8.6398 3.375C8.63624 3.375 8.63268 3.375 8.6291 3.375C8.62552 3.375 8.62192 3.375 8.61832 3.375C8.61472 3.375 8.6111 3.375 8.60748 3.375C8.60385 3.375 8.60021 3.375 8.59656 3.375C8.59291 3.375 8.58925 3.375 8.58557 3.375C8.5819 3.375 8.57821 3.375 8.57452 3.375C8.57082 3.375 8.56711 3.375 8.56339 3.375C8.55966 3.375 8.55593 3.375 8.55219 3.375C8.54844 3.375 8.54468 3.375 8.54091 3.375C8.53714 3.375 8.53336 3.375 8.52957 3.375C8.52577 3.375 8.52197 3.375 8.51815 3.375C8.51433 3.375 8.5105 3.375 8.50666 3.375C8.50281 3.375 8.49896 3.375 8.49509 3.375C8.49122 3.375 8.48734 3.375 8.48345 3.375C8.47956 3.375 8.47566 3.375 8.47174 3.375C8.46782 3.375 8.46389 3.375 8.45995 3.375C8.45601 3.375 8.45205 3.375 8.44809 3.375C8.44412 3.375 8.44014 3.375 8.43615 3.375C8.43216 3.375 8.42815 3.375 8.42413 3.375C8.42012 3.375 8.41609 3.375 8.41204 3.375C8.408 3.375 8.40395 3.375 8.39988 3.375C8.39581 3.375 8.39173 3.375 8.38764 3.375C8.38354 3.375 8.37944 3.375 8.37532 3.375C8.3712 3.375 8.36706 3.375 8.36292 3.375C8.35877 3.375 8.35461 3.375 8.35044 3.375C8.34627 3.375 8.34209 3.375 8.33789 3.375C8.33369 3.375 8.32948 3.375 8.32526 3.375C8.32104 3.375 8.3168 3.375 8.31255 3.375C8.3083 3.375 8.30404 3.375 8.29976 3.375C8.29548 3.375 8.29119 3.375 8.28689 3.375C8.28259 3.375 8.27827 3.375 8.27394 3.375C8.26961 3.375 8.26527 3.375 8.26092 3.375C8.25656 3.375 8.25219 3.375 8.24781 3.375C8.24342 3.375 8.23903 3.375 8.23462 3.375C8.23021 3.375 8.22578 3.375 8.22135 3.375C8.21691 3.375 8.21246 3.375 8.208 3.375C8.20353 3.375 8.19905 3.375 8.19456 3.375C8.19007 3.375 8.18556 3.375 8.18105 3.375C8.17653 3.375 8.17199 3.375 8.16745 3.375C8.1629 3.375 8.15834 3.375 8.15377 3.375C8.14919 3.375 8.1446 3.375 8.14 3.375C8.1354 3.375 8.13078 3.375 8.12615 3.375C8.12152 3.375 8.11688 3.375 8.11222 3.375C8.10756 3.375 8.10289 3.375 8.09821 3.375C8.09352 3.375 8.08882 3.375 8.08411 3.375C8.07939 3.375 8.07466 3.375 8.06992 3.375C8.06518 3.375 8.06042 3.375 8.05565 3.375C8.05088 3.375 8.04609 3.375 8.04129 3.375C8.0365 3.375 8.03168 3.375 8.02685 3.375C8.02202 3.375 8.01718 3.375 8.01232 3.375C8.00747 3.375 8.0026 3.375 7.99771 3.375C7.99282 3.375 7.98792 3.375 7.98301 3.375C7.97809 3.375 7.97316 3.375 7.96822 3.375C7.96328 3.375 7.95832 3.375 7.95334 3.375C7.94837 3.375 7.94338 3.375 7.93838 3.375C7.93338 3.375 7.92836 3.375 7.92333 3.375C7.91829 3.375 7.91325 3.375 7.90818 3.375C7.90312 3.375 7.89805 3.375 7.89295 3.375C7.88786 3.375 7.88276 3.375 7.87763 3.375C7.87251 3.375 7.86738 3.375 7.86223 3.375C7.85707 3.375 7.85191 3.375 7.84673 3.375C7.84154 3.375 7.83635 3.375 7.83114 3.375C7.82592 3.375 7.8207 3.375 7.81546 3.375C7.81021 3.375 7.80496 3.375 7.79968 3.375C7.79441 3.375 7.78912 3.375 7.78382 3.375C7.77852 3.375 7.7732 3.375 7.76787 3.375C7.76253 3.375 7.75718 3.375 7.75182 3.375C7.74646 3.375 7.74108 3.375 7.73568 3.375C7.73029 3.375 7.72488 3.375 7.71945 3.375C7.71402 3.375 7.70858 3.375 7.70312 3.375V4.625ZM2.5 11C2.56904 11 2.625 11.056 2.625 11.125H1.375C1.375 11.7463 1.87868 12.25 2.5 12.25V11ZM11.375 11.125C11.375 11.056 11.431 11 11.5 11V12.25C12.1213 12.25 12.625 11.7463 12.625 11.125H11.375ZM12.625 4.5C12.625 3.87818 12.1205 3.375 11.4997 3.375V4.625C11.4312 4.625 11.375 4.56954 11.375 4.5H12.625Z" fill="black"/>
<path d="M7.70312 4.00001L7.26046 2.97339C7.10239 2.60679 6.74141 2.36934 6.34219 2.36934H2.5C2.22386 2.36934 2 2.5932 2 2.86934V4.37501V8" stroke="black" stroke-width="1.25" stroke-linecap="round"/>
</svg>
