<?xml version="1.0" encoding="UTF-8"?>
<svg xmlns="http://www.w3.org/2000/svg" xmlns:xlink="http://www.w3.org/1999/xlink" width="14px" height="14px" viewBox="0 0 14 14" version="1.1">
<g id="surface1">
<path style=" stroke:none;fill-rule:nonzero;fill:rgb(0%,0%,0%);fill-opacity:1;" d="M 3.324219 3.496094 C 1.507812 5.40625 0.0273438 6.984375 0.0273438 6.996094 C 0.0273438 7.015625 1.511719 8.59375 3.332031 10.503906 L 6.632812 13.980469 L 6.632812 10.472656 L 4.984375 8.734375 L 3.332031 6.996094 L 4.984375 5.257812 L 6.632812 3.519531 L 6.628906 1.773438 L 6.621094 0.0273438 Z M 3.324219 3.496094 "/>
<path style=" stroke:none;fill-rule:nonzero;fill:rgb(0%,0%,0%);fill-opacity:1;" d="M 7.125 1.773438 L 7.125 3.492188 L 8.769531 5.222656 C 9.675781 6.171875 10.421875 6.96875 10.425781 6.984375 C 10.433594 7.003906 9.691406 7.800781 8.78125 8.761719 L 7.125 10.503906 L 7.125 13.972656 L 7.214844 13.890625 C 7.296875 13.820312 8.203125 12.90625 9.167969 11.910156 C 9.398438 11.671875 9.605469 11.464844 9.621094 11.449219 C 9.671875 11.402344 11.261719 9.789062 11.601562 9.4375 C 11.773438 9.261719 11.957031 9.082031 12 9.035156 C 12.046875 8.988281 12.433594 8.59375 12.863281 8.160156 C 13.289062 7.726562 13.722656 7.289062 13.824219 7.183594 L 14.007812 6.996094 L 13.808594 6.796875 C 13.179688 6.167969 12.527344 5.503906 11.820312 4.785156 C 11.574219 4.53125 11.105469 4.058594 10.785156 3.734375 C 10.460938 3.414062 9.871094 2.8125 9.472656 2.402344 C 9.074219 1.996094 8.609375 1.515625 8.4375 1.339844 C 8.265625 1.160156 7.910156 0.800781 7.652344 0.539062 C 7.394531 0.273438 7.167969 0.0585938 7.15625 0.0585938 C 7.132812 0.0585938 7.125 0.59375 7.125 1.773438 Z M 7.125 1.773438 "/>
<path style=" stroke:none;fill-rule:nonzero;fill:rgb(0%,0%,0%);fill-opacity:1;" d="M 5.453125 5.757812 C 4.308594 6.964844 4.285156 6.992188 4.332031 7.050781 C 4.359375 7.082031 4.886719 7.636719 5.5 8.289062 L 6.621094 9.464844 L 6.628906 8.222656 C 6.632812 7.539062 6.632812 6.429688 6.628906 5.753906 L 6.621094 4.527344 Z M 5.453125 5.757812 "/>
</g>
</svg>
