<?xml version="1.0" encoding="UTF-8"?>
<svg xmlns="http://www.w3.org/2000/svg" xmlns:xlink="http://www.w3.org/1999/xlink" width="14px" height="14px" viewBox="0 0 14 14" version="1.1">
<g id="surface1">
<path style=" stroke:none;fill-rule:nonzero;fill:rgb(0%,0%,0%);fill-opacity:1;" d="M 11.445312 4.738281 C 11.609375 4.703125 11.726562 4.558594 11.726562 4.390625 L 11.726562 2.839844 C 11.726562 2.734375 11.675781 2.628906 11.59375 2.5625 C 11.511719 2.496094 11.402344 2.46875 11.296875 2.492188 L 9.882812 2.796875 L 9.882812 0.84375 C 9.882812 0.738281 9.835938 0.640625 9.757812 0.570312 C 9.675781 0.503906 9.570312 0.476562 9.464844 0.496094 L 8.40625 0.6875 C 8.238281 0.714844 8.113281 0.863281 8.113281 1.035156 L 8.113281 3.175781 L 5.910156 3.648438 L 5.910156 1.753906 C 5.910156 1.648438 5.863281 1.546875 5.78125 1.480469 C 5.699219 1.414062 5.59375 1.382812 5.488281 1.402344 L 4.433594 1.59375 C 4.261719 1.625 4.140625 1.773438 4.140625 1.945312 L 4.140625 4.03125 L 2.554688 4.371094 C 2.390625 4.40625 2.273438 4.550781 2.273438 4.71875 L 2.273438 6.269531 C 2.273438 6.378906 2.324219 6.480469 2.40625 6.546875 C 2.488281 6.613281 2.597656 6.640625 2.703125 6.617188 L 4.140625 6.308594 L 4.140625 9.273438 L 2.554688 9.613281 C 2.390625 9.648438 2.273438 9.792969 2.273438 9.960938 L 2.273438 11.511719 C 2.273438 11.621094 2.324219 11.722656 2.40625 11.789062 C 2.488281 11.855469 2.597656 11.882812 2.703125 11.859375 L 4.140625 11.550781 L 4.140625 13.644531 C 4.140625 13.75 4.1875 13.851562 4.265625 13.917969 C 4.347656 13.984375 4.453125 14.011719 4.558594 13.996094 L 5.617188 13.804688 C 5.785156 13.773438 5.910156 13.625 5.910156 13.453125 L 5.910156 11.171875 L 8.113281 10.699219 L 8.113281 12.734375 C 8.113281 12.839844 8.160156 12.941406 8.242188 13.007812 C 8.324219 13.078125 8.429688 13.105469 8.535156 13.085938 L 9.589844 12.894531 C 9.761719 12.863281 9.882812 12.714844 9.882812 12.542969 L 9.882812 10.316406 L 11.445312 9.984375 C 11.609375 9.949219 11.726562 9.804688 11.726562 9.636719 L 11.726562 8.082031 C 11.726562 7.976562 11.675781 7.875 11.59375 7.808594 C 11.511719 7.738281 11.402344 7.714844 11.296875 7.734375 L 9.882812 8.039062 L 9.882812 5.074219 Z M 8.113281 8.417969 L 5.910156 8.894531 L 5.910156 5.929688 L 8.113281 5.457031 Z M 8.113281 8.417969 "/>
</g>
</svg>
