<svg width="16" height="16" viewBox="0 0 16 16" fill="none" xmlns="http://www.w3.org/2000/svg">
<path d="M13.8363 5.29575L8.57799 13.6693C8.48121 13.8226 8.3294 13.9331 8.15374 13.9779C7.97807 14.0228 7.7919 13.9987 7.63345 13.9106C7.52837 13.8517 7.43964 13.7675 7.3753 13.6657L2.22015 5.29213C2.07572 5.05746 1.99949 4.78721 2 4.51165C2.00651 4.10484 2.17414 3.71722 2.4661 3.43385C2.75807 3.15048 3.15052 2.9945 3.55734 3.00015H12.513C13.3676 3.00015 14.0631 3.67447 14.0631 4.50803C14.0631 4.78548 13.9847 5.05811 13.8357 5.29575M3.48557 5.01589L7.32162 10.9298V4.41937H3.88667C3.48979 4.41937 3.31186 4.68234 3.48617 5.01589M8.74084 10.9298L12.5769 5.01589C12.7536 4.68234 12.5727 4.41937 12.1758 4.41937H8.74084V10.9298Z" fill="black"/>
</svg>
