<svg width="16" height="16" viewBox="0 0 16 16" xmlns="http://www.w3.org/2000/svg" xmlns:xlink="http://www.w3.org/1999/xlink">
    <g transform="matrix(0.407383,0,0,0.407383,1.96462,1.48211)">
        <path d="M29.333,17.72L24.893,4.387C24.856,4.29 24.791,4.207 24.707,4.147C24.628,4.067 24.525,4.015 24.413,4C24.304,3.999 24.197,4.032 24.107,4.093C24.022,4.154 23.958,4.237 23.92,4.333L20.907,13.227L11.093,13.227L8.133,4.347C8.111,4.256 8.065,4.174 8,4.107C7.902,4.03 7.778,3.992 7.653,4C7.544,3.999 7.437,4.032 7.347,4.093C7.262,4.154 7.198,4.237 7.16,4.333L2.667,17.72C2.534,18.127 2.68,18.576 3.027,18.827L16,28L28.92,18.827C29.298,18.6 29.47,18.139 29.333,17.72" style="fill:none;fill-rule:nonzero;stroke:black;stroke-width:2.67px;"/>
    </g>
</svg>
