<svg width="16" height="16" viewBox="0 0 16 16" fill="none" xmlns="http://www.w3.org/2000/svg">
<path fill-rule="evenodd" clip-rule="evenodd" d="M13.8611 6.16862C12.3574 8.50898 12.2854 9.10599 13.0731 11.7392C13.2703 12.3985 12.649 13.0397 11.9795 12.8663C9.31372 12.1763 8.70617 12.2707 6.40625 13.8438C5.83658 14.2347 5.03979 13.8449 4.99887 13.1581C4.86542 10.3618 4.5636 9.8307 2.34673 8.19217C1.79793 7.77449 1.92242 6.89217 2.56617 6.64085C5.05903 5.67574 5.57077 5.19798 6.49324 2.59352C6.60824 2.26882 6.88602 2.06776 7.1899 2.01436C7.49382 1.96095 7.82377 2.05507 8.04325 2.32098C9.80852 4.47219 10.3769 4.7192 13.1225 4.78566C13.8137 4.80241 14.2335 5.58908 13.8611 6.16862ZM7.54693 4.05316C7.19093 4.92889 6.78999 5.67011 6.18942 6.28235C5.60633 6.87677 4.90259 7.27973 4.09007 7.63832C4.79481 8.20865 5.37755 8.79061 5.77539 9.53095C6.17862 10.2813 6.34333 11.1031 6.42843 12.0323C7.21826 11.5389 7.96541 11.173 8.7994 11.0284C9.63222 10.884 10.4552 10.9773 11.355 11.1721C11.1286 10.2861 11.006 9.47037 11.1222 8.63692C11.2388 7.80056 11.582 7.04449 12.0503 6.24396C11.1386 6.18545 10.3242 6.05135 9.566 5.68731C8.79536 5.31729 8.17359 4.75424 7.54693 4.05316ZM12.3556 11.4142L12.3554 11.4142ZM7.90695 3.09493C7.90703 3.09473 7.9071 3.09452 7.90717 3.09432Z" fill="black"/>
<path d="M7.13018 8.48847C7.53804 8.41651 7.81039 8.02759 7.73849 7.61977C7.66659 7.21186 7.27767 6.9396 6.86982 7.01152C6.46196 7.08346 6.18961 7.47241 6.26151 7.88023C6.33341 8.28805 6.72234 8.56043 7.13018 8.48847Z" fill="black"/>
<path d="M9.38026 7.98847C9.78805 7.9166 10.0604 7.52761 9.98847 7.11977C9.91661 6.71191 9.52771 6.43959 9.11981 6.51152C8.71201 6.58345 8.43964 6.9724 8.5115 7.38025C8.58346 7.78813 8.97236 8.06043 9.38026 7.98847Z" fill="black"/>
<path fill-rule="evenodd" clip-rule="evenodd" d="M9.87286 8.8829C10.0411 9.26141 9.87062 9.70463 9.4921 9.87286L8.78898 10.1854C8.69308 10.228 8.58931 10.25 8.48438 10.25H7.75C7.33579 10.25 7 9.91422 7 9.5C7 9.08579 7.33579 8.75 7.75 8.75H8.32521L8.8829 8.50215C9.26141 8.33392 9.70463 8.50439 9.87286 8.8829Z" fill="black"/>
</svg>
