<svg xmlns="http://www.w3.org/2000/svg" width="16" height="16" viewBox="0 0 16 16" fill="none">
<path fill-rule="evenodd" fill="black" d="M 3.828125 14.601562 C 3.894531 15.726562 5.183594 16.375 6.132812 15.785156 L 6.136719 15.785156 L 8.988281 13.824219 C 8.996094 13.816406 9.007812 13.8125 9.015625 13.804688 C 9.203125 13.675781 9.4375 13.636719 9.65625 13.691406 L 12.988281 14.550781 C 14.105469 14.839844 15.140625 13.769531 14.8125 12.667969 L 13.832031 9.386719 C 13.769531 9.167969 13.800781 8.9375 13.921875 8.75 C 13.921875 8.746094 13.925781 8.746094 13.925781 8.746094 L 15.777344 5.863281 L 15.777344 5.859375 C 15.78125 5.851562 15.785156 5.84375 15.789062 5.835938 L 15.792969 5.835938 C 16.382812 4.871094 15.6875 3.582031 14.542969 3.554688 L 11.109375 3.472656 C 10.878906 3.464844 10.664062 3.359375 10.519531 3.183594 L 8.339844 0.542969 C 8.019531 0.152344 7.550781 -0.015625 7.105469 0.0078125 L 7.101562 0.0078125 C 7.039062 0.0117188 6.976562 0.0195312 6.914062 0.0273438 C 6.414062 0.117188 5.945312 0.453125 5.75 1 L 4.609375 4.222656 C 4.535156 4.4375 4.367188 4.613281 4.152344 4.695312 L 0.957031 5.945312 C -0.121094 6.363281 -0.328125 7.835938 0.589844 8.535156 L 3.316406 10.609375 C 3.5 10.75 3.609375 10.960938 3.625 11.191406 Z M 7.515625 1.847656 C 7.421875 1.730469 7.296875 1.695312 7.183594 1.714844 C 7.066406 1.734375 6.960938 1.8125 6.914062 1.953125 L 5.867188 4.902344 C 5.699219 5.382812 5.328125 5.765625 4.851562 5.949219 L 1.925781 7.09375 C 1.785156 7.148438 1.710938 7.253906 1.695312 7.371094 C 1.679688 7.484375 1.71875 7.605469 1.839844 7.695312 L 4.335938 9.597656 C 4.742188 9.90625 4.992188 10.375 5.023438 10.882812 L 5.207031 14.003906 C 5.214844 14.152344 5.296875 14.253906 5.398438 14.304688 C 5.503906 14.355469 5.632812 14.355469 5.757812 14.269531 L 8.347656 12.492188 C 8.765625 12.207031 9.292969 12.113281 9.785156 12.242188 L 12.824219 13.027344 C 12.972656 13.066406 13.09375 13.023438 13.175781 12.9375 C 13.257812 12.855469 13.296875 12.734375 13.253906 12.589844 L 12.355469 9.589844 C 12.210938 9.105469 12.285156 8.578125 12.558594 8.148438 L 14.253906 5.511719 C 14.335938 5.386719 14.332031 5.257812 14.277344 5.15625 C 14.222656 5.054688 14.117188 4.980469 13.964844 4.976562 L 10.824219 4.902344 C 10.316406 4.886719 9.835938 4.65625 9.511719 4.261719 Z M 7.515625 1.847656 "/>
<path fill="black" d="M 5.71875 7.257812 C 5.671875 7.25 5.628906 7.246094 5.582031 7.246094 C 5.09375 7.246094 4.695312 7.644531 4.695312 8.128906 C 4.695312 8.613281 5.09375 9.011719 5.582031 9.011719 C 6.070312 9.011719 6.46875 8.613281 6.46875 8.128906 C 6.46875 7.6875 6.140625 7.320312 5.71875 7.257812 Z M 5.71875 7.257812 "/>
<path fill="black" d="M 11.019531 7.953125 C 10.976562 7.957031 10.929688 7.960938 10.886719 7.960938 C 10.398438 7.960938 10 7.5625 10 7.078125 C 10 6.59375 10.398438 6.195312 10.886719 6.195312 C 11.371094 6.195312 11.773438 6.59375 11.773438 7.078125 C 11.773438 7.519531 11.445312 7.886719 11.019531 7.953125 Z M 11.019531 7.953125 "/>
<path fill="black" d="M 7.269531 9.089844 C 7.53125 8.988281 7.828125 9.113281 7.933594 9.375 C 8.125 9.859375 8.503906 9.996094 8.796875 9.949219 C 9.082031 9.898438 9.378906 9.664062 9.378906 9.136719 C 9.378906 8.855469 9.605469 8.628906 9.886719 8.628906 C 10.167969 8.628906 10.398438 8.855469 10.398438 9.136719 C 10.398438 10.140625 9.757812 10.816406 8.96875 10.949219 C 8.1875 11.078125 7.351562 10.664062 6.988281 9.75 C 6.882812 9.488281 7.011719 9.195312 7.269531 9.089844 Z M 7.269531 9.089844 "/>
</svg>
