<svg width="16" height="16" viewBox="0 0 16 16" fill="none" xmlns="http://www.w3.org/2000/svg">
<path d="M7.3848 9.30444C7.3848 9.30444 7.53254 10.2646 8.53248 10.0882C9.53242 9.91193 9.36378 8.95549 9.36378 8.95549" stroke="black" stroke-width="1.25" stroke-linecap="round" stroke-linejoin="round"/>
<path d="M5.54155 5.54157C6.12355 4.90104 6.01688 2.62541 7.22875 2.3985C8.44063 2.17158 9.19097 4.33148 9.91982 4.6814C10.6487 5.03133 12.8517 4.3028 13.4381 5.38734C14.0244 6.47188 12.1395 7.95973 12.026 8.64088C11.9126 9.32203 13.3614 11.2416 12.4675 12.1701C11.5736 13.0986 9.73005 11.7545 8.90486 11.8834C8.07966 12.0123 6.79244 13.9095 5.67367 13.3502C4.55491 12.7909 5.16702 10.5455 4.82437 9.87612C4.48171 9.20673 2.34028 8.54978 2.4525 7.35049C2.56471 6.15121 4.95956 6.1821 5.54155 5.54157Z" stroke="#FF7676" stroke-opacity="0.52" stroke-width="1.2" stroke-linecap="round" stroke-linejoin="round"/>
<path d="M5.54155 5.54157C6.12355 4.90104 6.01688 2.62541 7.22875 2.3985C8.44063 2.17158 9.19097 4.33148 9.91982 4.6814C10.6487 5.03133 12.8517 4.3028 13.4381 5.38734C14.0244 6.47188 12.1395 7.95973 12.026 8.64088C11.9126 9.32203 13.3614 11.2416 12.4675 12.1701C11.5736 13.0986 9.73005 11.7545 8.90486 11.8834C8.07966 12.0123 6.79244 13.9095 5.67367 13.3502C4.55491 12.7909 5.16702 10.5455 4.82437 9.87612C4.48171 9.20673 2.34028 8.54978 2.4525 7.35049C2.56471 6.15121 4.95956 6.1821 5.54155 5.54157Z" stroke="black" stroke-width="1.2" stroke-linecap="round" stroke-linejoin="round"/>
<circle cx="6.25098" cy="7.75" r="0.75" fill="black"/>
<circle cx="10.1035" cy="7.25" r="0.75" fill="black"/>
</svg>
