<svg width="16" height="16" viewBox="0 0 16 16" fill="none" xmlns="http://www.w3.org/2000/svg">
<path d="M7.83413 6.47818C7.28956 6.61768 6.91787 6.72231 6.38194 6.86181C6.25228 6.89668 6.24364 6.9054 6.13127 6.77462C6.00161 6.6264 5.90652 6.5305 5.725 6.44331C5.18043 6.17303 4.65314 6.2515 4.16043 6.57409C3.57264 6.95772 3.2701 7.52443 3.27875 8.23065C3.28739 8.92816 3.76281 9.50359 4.44569 9.5995C5.03348 9.67797 5.52619 9.46872 5.91517 9.02406C5.99296 8.92816 6.06211 8.82353 6.14855 8.70147C5.83737 8.70147 5.44839 8.70147 4.48026 8.70147C4.29874 8.70147 4.25552 8.58812 4.31603 8.43991C4.4284 8.16962 4.63585 7.71625 4.75687 7.48956C4.7828 7.43725 4.84331 7.35006 4.97297 7.35006H8.11938C8.1021 7.58547 8.1021 7.82087 8.06752 8.05628C7.97244 8.68403 7.73905 9.25947 7.35871 9.76516C6.73634 10.5934 5.92381 11.1078 4.89517 11.2473C4.04806 11.3607 3.26146 11.195 2.56994 10.6719C1.93028 10.1837 1.56724 9.53847 1.47215 8.73634C1.35978 7.786 1.63639 6.93156 2.20689 6.18175C2.82061 5.3709 3.63315 4.85649 4.62721 4.6734C5.43975 4.52518 6.21771 4.62109 6.91787 5.10062C7.376 5.40578 7.70447 5.82428 7.92057 6.32996C7.97244 6.40843 7.93786 6.45203 7.83413 6.47818Z" fill="black"/>
<path d="M10.8733 11.2812C10.1105 11.2636 9.4147 11.0348 8.82792 10.5068C8.33334 10.0579 8.02318 9.48585 7.92259 8.80818C7.7717 7.81367 8.03156 6.93357 8.60158 6.15028C9.21352 5.30539 9.95119 4.86534 10.9487 4.68052C11.8038 4.5221 12.6085 4.61011 13.3378 5.12937C14 5.60462 14.4108 6.24709 14.5197 7.09198C14.6622 8.28012 14.3353 9.24822 13.5557 10.0755C13.0025 10.6652 12.3235 11.0348 11.5439 11.202C11.3176 11.246 11.0912 11.2548 10.8733 11.2812ZM12.8684 7.72566C12.86 7.61124 12.86 7.52323 12.8432 7.43522C12.6923 6.56393 11.9295 6.07107 11.1331 6.26469C10.3536 6.44951 9.8506 6.96877 9.66618 7.79606C9.51529 8.48254 9.83383 9.17782 10.4374 9.45945C10.8984 9.67067 11.3595 9.64427 11.8038 9.40664C12.466 9.0458 12.8264 8.48254 12.8684 7.72566Z" fill="black"/>
</svg>
