<?xml version="1.0" encoding="UTF-8"?>
<svg xmlns="http://www.w3.org/2000/svg" xmlns:xlink="http://www.w3.org/1999/xlink" width="14px" height="14px" viewBox="0 0 14 14" version="1.1">
<g id="surface1">
<path style=" stroke:none;fill-rule:nonzero;fill:rgb(0%,0%,0%);fill-opacity:1;" d="M 4.679688 3.894531 L 4.679688 3.9375 C 5.335938 4.945312 6.039062 5.949219 6.695312 6.957031 L 6.695312 7 C 6.039062 8.007812 5.335938 9.011719 4.679688 10.019531 L 4.679688 10.0625 L 6.210938 10.0625 L 6.257812 10.019531 C 6.648438 9.40625 7.085938 8.792969 7.480469 8.179688 C 7.523438 8.136719 7.480469 8.136719 7.523438 8.179688 C 7.917969 8.792969 8.355469 9.40625 8.75 10.019531 L 8.792969 10.0625 L 10.324219 10.0625 C 9.492188 8.75 8.617188 7.480469 7.742188 6.167969 C 7.21875 5.425781 6.738281 4.636719 6.210938 3.894531 Z M 2.625 3.9375 C 3.324219 4.945312 3.980469 5.949219 4.636719 7 L 4.636719 7.042969 C 4.15625 7.789062 3.675781 8.488281 3.195312 9.230469 C 2.976562 9.492188 2.800781 9.800781 2.625 10.0625 L 2.625 10.105469 L 4.15625 10.105469 C 4.855469 9.054688 5.554688 8.050781 6.210938 7.042969 L 6.210938 7 C 5.90625 6.476562 5.554688 5.992188 5.207031 5.46875 C 4.855469 4.988281 4.550781 4.460938 4.199219 3.980469 L 4.15625 3.9375 Z M 7.960938 5.6875 L 7.960938 5.730469 C 8.179688 6.082031 8.398438 6.386719 8.617188 6.738281 L 11.375 6.738281 L 11.375 5.6875 Z M 8.96875 7.261719 L 8.96875 7.304688 C 9.1875 7.65625 9.40625 7.960938 9.625 8.3125 L 11.375 8.3125 L 11.375 7.261719 Z M 8.96875 7.261719 "/>
</g>
</svg>
