<svg width="16" height="16" viewBox="0 0 16 16" fill="none" xmlns="http://www.w3.org/2000/svg">
<path fill-rule="evenodd" clip-rule="evenodd" d="M7.11466 3.11809C7.21859 3.37393 7.09545 3.66558 6.83961 3.76952L4.31181 4.79643C4.1233 4.87302 4 5.05619 4 5.25967V11.5C4 11.7761 3.77614 12 3.5 12H2.5C2.22386 12 2 11.7761 2 11.5V4.41827C2 3.90959 2.30825 3.45164 2.77953 3.26018L6.08686 1.91658C6.34269 1.81265 6.63434 1.93579 6.73828 2.19163L7.11466 3.11809ZM10.5 1.99999C10.7761 1.99999 11 2.22384 11 2.49999V10.5C11 10.7761 10.7761 11 10.5 11H9.5C9.22386 11 9 10.7761 9 10.5V9.49999C9 9.22384 8.77614 8.99999 8.5 8.99999H7.5C7.22386 8.99999 7 9.22384 7 9.49999V13.5C7 13.7761 6.77614 14 6.5 14H5.5C5.22386 14 5 13.7761 5 13.5V5.53124C5 5.25509 5.22386 5.03124 5.5 5.03124H6.5C6.77614 5.03124 7 5.25509 7 5.53124V6.49999C7 6.77613 7.22386 6.99999 7.5 6.99999H8.5C8.77614 6.99999 9 6.77613 9 6.49999V2.49999C9 2.22384 9.22386 1.99999 9.5 1.99999H10.5ZM13.5 4.03124C13.7761 4.03124 14 4.2551 14 4.53124L14 11.5847C14 12.0859 13.7006 12.5386 13.2394 12.7349L9.99399 14.1159C9.7399 14.224 9.44626 14.1057 9.33813 13.8516L8.94658 12.9315C8.83845 12.6774 8.95678 12.3837 9.21087 12.2756L11.6958 11.2182C11.8802 11.1397 12 10.9586 12 10.7581L12 4.53124C12 4.2551 12.2238 4.03124 12.5 4.03124L13.5 4.03124Z" fill="black"/>
</svg>
