<svg width="16" height="16" viewBox="0 0 16 16" fill="none" xmlns="http://www.w3.org/2000/svg">
<rect x="2" y="2" width="12" height="12" rx="2" stroke="black" stroke-width="1.2"/>
<path d="M6.74217 7.13317V4.26172V4.13672H6.61717H5.50781H5.38281V4.26172V8.8824V9.07567L5.55908 8.9964L6.33378 8.64803L6.33378 8.64803L6.33389 8.64798L6.33443 8.64774L6.3347 8.64762L6.3369 8.64667L6.34717 8.64225C6.35635 8.63832 6.37013 8.63248 6.38816 8.62501C6.42423 8.61006 6.47729 8.58857 6.54454 8.56272C6.67911 8.511 6.87014 8.44194 7.09531 8.3729C7.54765 8.2342 8.12948 8.09817 8.66592 8.09817C8.92095 8.09817 9.05676 8.16584 9.12979 8.241C9.2037 8.31708 9.23311 8.42118 9.23311 8.53361V11.7383V11.8633H9.35811H10.4922H10.6172V11.7383V8.53361V8.53322C10.6172 8.43725 10.6172 7.81276 10.1093 7.32276C9.86619 7.08825 9.42187 6.80777 8.69373 6.80777C8.00022 6.80777 7.28721 6.96253 6.74217 7.13317ZM8.45652 5.91932L8.29694 6.12171H8.55468H9.66094H9.71713L9.75443 6.07969C10.2672 5.502 10.5291 4.91889 10.616 4.27855L10.6353 4.13672H10.4922H9.38592H9.28153L9.26292 4.23944C9.1561 4.82914 8.88874 5.37113 8.45652 5.91932Z" fill="black" stroke="black" stroke-width="0.25"/>
<path d="M5.38281 11.7383V12.01L5.58915 11.8332L6.83447 10.766L6.94523 10.671L6.83447 10.5761L5.58915 9.50891L5.38281 9.33207V9.60382V11.7383Z" fill="black" stroke="black" stroke-width="0.25"/>
</svg>
