<?xml version="1.0" encoding="UTF-8"?>
<svg xmlns="http://www.w3.org/2000/svg" xmlns:xlink="http://www.w3.org/1999/xlink" width="14px" height="14px" viewBox="0 0 14 14" version="1.1">
<g id="surface1">
<path style=" stroke:none;fill-rule:nonzero;fill:rgb(0%,0%,0%);fill-opacity:1;" d="M 12.023438 0 L 1.976562 0 C 1.277344 0 0.71875 0.558594 0.71875 1.261719 L 0.71875 12.738281 C 0.71875 13.441406 1.277344 14 1.976562 14 L 12.023438 14 C 12.722656 14 13.28125 13.441406 13.28125 12.738281 L 13.28125 1.261719 C 13.28125 0.558594 12.722656 0 12.023438 0 Z M 12.582031 12.738281 C 12.582031 13.054688 12.335938 13.300781 12.023438 13.300781 L 1.976562 13.300781 C 1.664062 13.300781 1.417969 13.054688 1.417969 12.738281 L 1.417969 1.261719 C 1.417969 0.945312 1.664062 0.699219 1.976562 0.699219 L 12.023438 0.699219 C 12.335938 0.699219 12.582031 0.945312 12.582031 1.261719 Z M 3.867188 11.898438 L 5.441406 10.5 L 3.867188 9.101562 Z M 9.539062 6.230469 C 9.257812 5.949219 8.734375 5.601562 7.859375 5.601562 C 6.914062 5.601562 5.933594 5.84375 5.234375 6.089844 L 5.234375 2.101562 L 3.832031 2.101562 L 3.832031 8.15625 L 4.8125 7.699219 C 4.8125 7.699219 6.421875 6.964844 7.824219 6.964844 C 8.523438 6.964844 8.699219 7.351562 8.699219 7.699219 L 8.699219 11.898438 L 10.097656 11.898438 L 10.097656 7.699219 C 10.132812 7.59375 10.132812 6.824219 9.539062 6.230469 Z M 7.683594 4.375 L 9.082031 4.375 C 9.710938 3.640625 10.027344 2.90625 10.132812 2.101562 L 8.734375 2.101562 C 8.59375 2.90625 8.242188 3.640625 7.683594 4.375 Z M 7.683594 4.375 "/>
</g>
</svg>
