<svg width="14" height="14" viewBox="0 0 14 14" fill="none" xmlns="http://www.w3.org/2000/svg">
<path d="M6.5 3C6.91421 3 7.25 2.66421 7.25 2.25C7.25 1.83579 6.91421 1.5 6.5 1.5C6.08579 1.5 5.75 1.83579 5.75 2.25C5.75 2.66421 6.08579 3 6.5 3Z" fill="black" stroke="black" stroke-linecap="round" stroke-linejoin="round"/>
<path d="M3.375 2H3C2.44772 2 2 2.44772 2 3V11C2 11.5523 2.44772 12 3 12H7.35938M9.64062 2H11C11.5523 2 12 2.44772 12 3V11C12 11.5523 11.5523 12 11 12H10.125" stroke="black" stroke-width="1.25" stroke-linecap="round"/>
<path d="M2 10L5 7L7 9" stroke="black" stroke-width="1.25" stroke-linecap="round" stroke-linejoin="round"/>
<path d="M6 8L9 5L12 8" stroke="black" stroke-width="1.25" stroke-linecap="round" stroke-linejoin="round"/>
</svg>
