<svg width="14" height="14" viewBox="0 0 14 14" fill="none" xmlns="http://www.w3.org/2000/svg">
<path d="M7 7L7 9.375" stroke="black" stroke-width="1.25" stroke-linecap="round" stroke-linejoin="round"/>
<path d="M7 5.25C7.34518 5.25 7.625 4.97018 7.625 4.625C7.625 4.27982 7.34518 4 7 4C6.65482 4 6.375 4.27982 6.375 4.625C6.375 4.97018 6.65482 5.25 7 5.25Z" fill="black"/>
<path d="M12 9.5L11.558 9.94194L12 9.5ZM12 7H12.625V7L12 7ZM12.4419 9.05806C12.7865 9.40258 12.9946 9.82991 13.0076 10.2951C13.0204 10.7585 12.8376 11.1882 12.5329 11.5366C11.9342 12.2208 10.8536 12.625 9.5 12.625V11.375C10.6464 11.375 11.3158 11.0292 11.5921 10.7134C11.7249 10.5618 11.7608 10.429 11.758 10.3299C11.7553 10.2326 11.7135 10.0974 11.558 9.94194L12.4419 9.05806ZM9.5 12.625C9.49758 12.625 9.49516 12.625 9.49275 12.625C9.49034 12.625 9.48793 12.625 9.48552 12.625C9.48311 12.625 9.48071 12.625 9.47831 12.625C9.4759 12.625 9.47351 12.625 9.47111 12.625C9.46871 12.625 9.46632 12.625 9.46393 12.625C9.46154 12.625 9.45915 12.625 9.45677 12.625C9.45438 12.625 9.452 12.625 9.44962 12.625C9.44724 12.625 9.44486 12.625 9.44249 12.625C9.44012 12.625 9.43775 12.625 9.43538 12.625C9.43301 12.625 9.43064 12.625 9.42828 12.625C9.42592 12.625 9.42356 12.625 9.4212 12.625C9.41885 12.625 9.41649 12.625 9.41414 12.625C9.41179 12.625 9.40944 12.625 9.40709 12.625C9.40475 12.625 9.4024 12.625 9.40006 12.625C9.39772 12.625 9.39538 12.625 9.39305 12.625C9.39071 12.625 9.38838 12.625 9.38605 12.625C9.38372 12.625 9.38139 12.625 9.37907 12.625C9.37674 12.625 9.37442 12.625 9.3721 12.625C9.36979 12.625 9.36747 12.625 9.36515 12.625C9.36284 12.625 9.36053 12.625 9.35822 12.625C9.35591 12.625 9.35361 12.625 9.35131 12.625C9.349 12.625 9.3467 12.625 9.3444 12.625C9.34211 12.625 9.33981 12.625 9.33752 12.625C9.33523 12.625 9.33294 12.625 9.33065 12.625C9.32836 12.625 9.32608 12.625 9.3238 12.625C9.32152 12.625 9.31924 12.625 9.31696 12.625C9.31468 12.625 9.31241 12.625 9.31014 12.625C9.30787 12.625 9.3056 12.625 9.30333 12.625C9.30107 12.625 9.2988 12.625 9.29654 12.625C9.29428 12.625 9.29203 12.625 9.28977 12.625C9.28751 12.625 9.28526 12.625 9.28301 12.625C9.28076 12.625 9.27851 12.625 9.27627 12.625C9.27402 12.625 9.27178 12.625 9.26954 12.625C9.2673 12.625 9.26506 12.625 9.26283 12.625C9.2606 12.625 9.25836 12.625 9.25613 12.625C9.2539 12.625 9.25168 12.625 9.24945 12.625C9.24723 12.625 9.24501 12.625 9.24279 12.625C9.24057 12.625 9.23835 12.625 9.23614 12.625C9.23392 12.625 9.23171 12.625 9.2295 12.625C9.22729 12.625 9.22509 12.625 9.22288 12.625C9.22068 12.625 9.21848 12.625 9.21628 12.625C9.21408 12.625 9.21188 12.625 9.20969 12.625C9.20749 12.625 9.2053 12.625 9.20311 12.625C9.20092 12.625 9.19874 12.625 9.19655 12.625C9.19437 12.625 9.19219 12.625 9.19001 12.625C9.18783 12.625 9.18565 12.625 9.18348 12.625C9.18131 12.625 9.17913 12.625 9.17696 12.625C9.1748 12.625 9.17263 12.625 9.17047 12.625C9.1683 12.625 9.16614 12.625 9.16398 12.625C9.16182 12.625 9.15966 12.625 9.15751 12.625C9.15536 12.625 9.1532 12.625 9.15106 12.625C9.14891 12.625 9.14676 12.625 9.14461 12.625C9.14247 12.625 9.14033 12.625 9.13819 12.625C9.13605 12.625 9.13391 12.625 9.13178 12.625C9.12964 12.625 9.12751 12.625 9.12538 12.625C9.12325 12.625 9.12112 12.625 9.119 12.625C9.11687 12.625 9.11475 12.625 9.11263 12.625C9.11051 12.625 9.10839 12.625 9.10628 12.625C9.10416 12.625 9.10205 12.625 9.09994 12.625C9.09783 12.625 9.09572 12.625 9.09361 12.625C9.09151 12.625 9.0894 12.625 9.0873 12.625C9.0852 12.625 9.0831 12.625 9.08101 12.625C9.07891 12.625 9.07681 12.625 9.07472 12.625C9.07263 12.625 9.07054 12.625 9.06845 12.625C9.06637 12.625 9.06428 12.625 9.0622 12.625C9.06012 12.625 9.05804 12.625 9.05596 12.625C9.05388 12.625 9.05181 12.625 9.04974 12.625C9.04766 12.625 9.04559 12.625 9.04352 12.625C9.04145 12.625 9.03939 12.625 9.03733 12.625C9.03526 12.625 9.0332 12.625 9.03114 12.625C9.02908 12.625 9.02703 12.625 9.02497 12.625C9.02292 12.625 9.02086 12.625 9.01881 12.625C9.01676 12.625 9.01472 12.625 9.01267 12.625C9.01063 12.625 9.00858 12.625 9.00654 12.625C9.0045 12.625 9.00246 12.625 9.00043 12.625C8.99839 12.625 8.99636 12.625 8.99432 12.625C8.99229 12.625 8.99026 12.625 8.98824 12.625C8.98621 12.625 8.98418 12.625 8.98216 12.625C8.98014 12.625 8.97812 12.625 8.9761 12.625C8.97408 12.625 8.97207 12.625 8.97005 12.625C8.96804 12.625 8.96603 12.625 8.96402 12.625C8.96201 12.625 8.96 12.625 8.958 12.625C8.95599 12.625 8.95399 12.625 8.95199 12.625C8.94999 12.625 8.94799 12.625 8.94599 12.625C8.944 12.625 8.942 12.625 8.94001 12.625C8.93802 12.625 8.93603 12.625 8.93404 12.625C8.93206 12.625 8.93007 12.625 8.92809 12.625C8.92611 12.625 8.92412 12.625 8.92215 12.625C8.92017 12.625 8.91819 12.625 8.91622 12.625C8.91424 12.625 8.91227 12.625 8.9103 12.625C8.90833 12.625 8.90636 12.625 8.9044 12.625C8.90243 12.625 8.90047 12.625 8.89851 12.625C8.89654 12.625 8.89459 12.625 8.89263 12.625C8.89067 12.625 8.88872 12.625 8.88676 12.625C8.88481 12.625 8.88286 12.625 8.88091 12.625C8.87896 12.625 8.87702 12.625 8.87507 12.625C8.87313 12.625 8.87119 12.625 8.86924 12.625C8.8673 12.625 8.86537 12.625 8.86343 12.625C8.86149 12.625 8.85956 12.625 8.85763 12.625C8.8557 12.625 8.85377 12.625 8.85184 12.625C8.84991 12.625 8.84799 12.625 8.84606 12.625C8.84414 12.625 8.84222 12.625 8.8403 12.625C8.83838 12.625 8.83646 12.625 8.83455 12.625C8.83263 12.625 8.83072 12.625 8.82881 12.625C8.8269 12.625 8.82499 12.625 8.82308 12.625C8.82117 12.625 8.81927 12.625 8.81736 12.625C8.81546 12.625 8.81356 12.625 8.81166 12.625C8.80976 12.625 8.80787 12.625 8.80597 12.625C8.80408 12.625 8.80218 12.625 8.80029 12.625C8.7984 12.625 8.79651 12.625 8.79463 12.625C8.79274 12.625 8.79085 12.625 8.78897 12.625C8.78709 12.625 8.78521 12.625 8.78333 12.625C8.78145 12.625 8.77957 12.625 8.7777 12.625C8.77582 12.625 8.77395 12.625 8.77208 12.625C8.77021 12.625 8.76834 12.625 8.76647 12.625C8.76461 12.625 8.76274 12.625 8.76088 12.625C8.75901 12.625 8.75715 12.625 8.75529 12.625C8.75343 12.625 8.75158 12.625 8.74972 12.625C8.74787 12.625 8.74601 12.625 8.74416 12.625C8.74231 12.625 8.74046 12.625 8.73861 12.625C8.73677 12.625 8.73492 12.625 8.73308 12.625C8.73123 12.625 8.72939 12.625 8.72755 12.625C8.72571 12.625 8.72387 12.625 8.72204 12.625C8.7202 12.625 8.71837 12.625 8.71653 12.625C8.7147 12.625 8.71287 12.625 8.71104 12.625C8.70921 12.625 8.70739 12.625 8.70556 12.625C8.70374 12.625 8.70192 12.625 8.70009 12.625C8.69827 12.625 8.69645 12.625 8.69464 12.625C8.69282 12.625 8.691 12.625 8.68919 12.625C8.68738 12.625 8.68557 12.625 8.68376 12.625C8.68195 12.625 8.68014 12.625 8.67833 12.625C8.67653 12.625 8.67472 12.625 8.67292 12.625C8.67112 12.625 8.66932 12.625 8.66752 12.625C8.66572 12.625 8.66392 12.625 8.66213 12.625C8.66033 12.625 8.65854 12.625 8.65675 12.625C8.65496 12.625 8.65317 12.625 8.65138 12.625C8.64959 12.625 8.6478 12.625 8.64602 12.625C8.64424 12.625 8.64245 12.625 8.64067 12.625C8.63889 12.625 8.63711 12.625 8.63534 12.625C8.63356 12.625 8.63178 12.625 8.63001 12.625C8.62824 12.625 8.62647 12.625 8.6247 12.625C8.62293 12.625 8.62116 12.625 8.61939 12.625C8.61762 12.625 8.61586 12.625 8.6141 12.625C8.61233 12.625 8.61057 12.625 8.60881 12.625C8.60705 12.625 8.6053 12.625 8.60354 12.625C8.60178 12.625 8.60003 12.625 8.59828 12.625C8.59653 12.625 8.59477 12.625 8.59303 12.625C8.59128 12.625 8.58953 12.625 8.58778 12.625C8.58604 12.625 8.58429 12.625 8.58255 12.625C8.58081 12.625 8.57907 12.625 8.57733 12.625C8.57559 12.625 8.57385 12.625 8.57212 12.625C8.57038 12.625 8.56865 12.625 8.56692 12.625C8.56519 12.625 8.56346 12.625 8.56173 12.625C8.56 12.625 8.55827 12.625 8.55655 12.625C8.55482 12.625 8.5531 12.625 8.55138 12.625C8.54965 12.625 8.54793 12.625 8.54621 12.625C8.5445 12.625 8.54278 12.625 8.54106 12.625C8.53935 12.625 8.53764 12.625 8.53592 12.625C8.53421 12.625 8.5325 12.625 8.53079 12.625C8.52908 12.625 8.52738 12.625 8.52567 12.625C8.52396 12.625 8.52226 12.625 8.52056 12.625C8.51886 12.625 8.51716 12.625 8.51546 12.625C8.51376 12.625 8.51206 12.625 8.51036 12.625C8.50867 12.625 8.50697 12.625 8.50528 12.625C8.50359 12.625 8.5019 12.625 8.50021 12.625C8.49852 12.625 8.49683 12.625 8.49515 12.625C8.49346 12.625 8.49177 12.625 8.49009 12.625C8.48841 12.625 8.48673 12.625 8.48505 12.625C8.48337 12.625 8.48169 12.625 8.48001 12.625C8.47833 12.625 8.47666 12.625 8.47499 12.625C8.47331 12.625 8.47164 12.625 8.46997 12.625C8.4683 12.625 8.46663 12.625 8.46496 12.625C8.46329 12.625 8.46163 12.625 8.45996 12.625C8.4583 12.625 8.45664 12.625 8.45497 12.625C8.45331 12.625 8.45165 12.625 8.44999 12.625C8.44834 12.625 8.44668 12.625 8.44502 12.625C8.44337 12.625 8.44171 12.625 8.44006 12.625C8.43841 12.625 8.43676 12.625 8.43511 12.625C8.43346 12.625 8.43181 12.625 8.43017 12.625C8.42852 12.625 8.42687 12.625 8.42523 12.625C8.42359 12.625 8.42195 12.625 8.4203 12.625C8.41866 12.625 8.41702 12.625 8.41539 12.625C8.41375 12.625 8.41211 12.625 8.41048 12.625C8.40884 12.625 8.40721 12.625 8.40558 12.625C8.40395 12.625 8.40232 12.625 8.40069 12.625C8.39906 12.625 8.39743 12.625 8.39581 12.625C8.39418 12.625 8.39255 12.625 8.39093 12.625C8.38931 12.625 8.38769 12.625 8.38607 12.625C8.38445 12.625 8.38283 12.625 8.38121 12.625C8.37959 12.625 8.37797 12.625 8.37636 12.625C8.37475 12.625 8.37313 12.625 8.37152 12.625C8.36991 12.625 8.3683 12.625 8.36669 12.625C8.36508 12.625 8.36347 12.625 8.36186 12.625C8.36026 12.625 8.35865 12.625 8.35705 12.625C8.35545 12.625 8.35384 12.625 8.35224 12.625C8.35064 12.625 8.34904 12.625 8.34744 12.625C8.34585 12.625 8.34425 12.625 8.34265 12.625C8.34106 12.625 8.33946 12.625 8.33787 12.625C8.33628 12.625 8.33469 12.625 8.3331 12.625C8.33151 12.625 8.32992 12.625 8.32833 12.625C8.32674 12.625 8.32516 12.625 8.32357 12.625C8.32199 12.625 8.3204 12.625 8.31882 12.625C8.31724 12.625 8.31566 12.625 8.31408 12.625C8.3125 12.625 8.31092 12.625 8.30934 12.625C8.30776 12.625 8.30619 12.625 8.30461 12.625C8.30304 12.625 8.30147 12.625 8.29989 12.625C8.29832 12.625 8.29675 12.625 8.29518 12.625C8.29361 12.625 8.29205 12.625 8.29048 12.625C8.28891 12.625 8.28735 12.625 8.28578 12.625C8.28422 12.625 8.28265 12.625 8.28109 12.625C8.27953 12.625 8.27797 12.625 8.27641 12.625C8.27485 12.625 8.27329 12.625 8.27174 12.625C8.27018 12.625 8.26862 12.625 8.26707 12.625C8.26551 12.625 8.26396 12.625 8.26241 12.625C8.26086 12.625 8.25931 12.625 8.25776 12.625C8.25621 12.625 8.25466 12.625 8.25311 12.625C8.25157 12.625 8.25002 12.625 8.24848 12.625C8.24693 12.625 8.24539 12.625 8.24384 12.625C8.2423 12.625 8.24076 12.625 8.23922 12.625C8.23768 12.625 8.23614 12.625 8.2346 12.625C8.23307 12.625 8.23153 12.625 8.23 12.625C8.22846 12.625 8.22693 12.625 8.22539 12.625C8.22386 12.625 8.22233 12.625 8.2208 12.625C8.21927 12.625 8.21774 12.625 8.21621 12.625C8.21468 12.625 8.21315 12.625 8.21163 12.625C8.2101 12.625 8.20858 12.625 8.20705 12.625C8.20553 12.625 8.20401 12.625 8.20248 12.625C8.20096 12.625 8.19944 12.625 8.19792 12.625C8.1964 12.625 8.19489 12.625 8.19337 12.625C8.19185 12.625 8.19034 12.625 8.18882 12.625C8.18731 12.625 8.18579 12.625 8.18428 12.625C8.18277 12.625 8.18125 12.625 8.17974 12.625C8.17823 12.625 8.17672 12.625 8.17522 12.625C8.17371 12.625 8.1722 12.625 8.17069 12.625C8.16919 12.625 8.16768 12.625 8.16618 12.625C8.16467 12.625 8.16317 12.625 8.16167 12.625C8.16017 12.625 8.15867 12.625 8.15717 12.625C8.15567 12.625 8.15417 12.625 8.15267 12.625C8.15117 12.625 8.14967 12.625 8.14818 12.625C8.14668 12.625 8.14519 12.625 8.14369 12.625C8.1422 12.625 8.14071 12.625 8.13922 12.625C8.13772 12.625 8.13623 12.625 8.13474 12.625C8.13326 12.625 8.13177 12.625 8.13028 12.625C8.12879 12.625 8.1273 12.625 8.12582 12.625C8.12433 12.625 8.12285 12.625 8.12136 12.625C8.11988 12.625 8.1184 12.625 8.11692 12.625C8.11543 12.625 8.11395 12.625 8.11247 12.625C8.11099 12.625 8.10952 12.625 8.10804 12.625C8.10656 12.625 8.10508 12.625 8.10361 12.625C8.10213 12.625 8.10066 12.625 8.09918 12.625C8.09771 12.625 8.09624 12.625 8.09476 12.625C8.09329 12.625 8.09182 12.625 8.09035 12.625C8.08888 12.625 8.08741 12.625 8.08594 12.625C8.08447 12.625 8.08301 12.625 8.08154 12.625C8.08007 12.625 8.07861 12.625 8.07714 12.625C8.07568 12.625 8.07421 12.625 8.07275 12.625C8.07129 12.625 8.06983 12.625 8.06836 12.625C8.0669 12.625 8.06544 12.625 8.06398 12.625C8.06252 12.625 8.06107 12.625 8.05961 12.625C8.05815 12.625 8.05669 12.625 8.05524 12.625C8.05378 12.625 8.05233 12.625 8.05087 12.625C8.04942 12.625 8.04797 12.625 8.04651 12.625C8.04506 12.625 8.04361 12.625 8.04216 12.625C8.04071 12.625 8.03926 12.625 8.03781 12.625C8.03636 12.625 8.03491 12.625 8.03346 12.625C8.03202 12.625 8.03057 12.625 8.02913 12.625C8.02768 12.625 8.02623 12.625 8.02479 12.625C8.02335 12.625 8.0219 12.625 8.02046 12.625C8.01902 12.625 8.01758 12.625 8.01614 12.625C8.0147 12.625 8.01326 12.625 8.01182 12.625C8.01038 12.625 8.00894 12.625 8.0075 12.625C8.00606 12.625 8.00463 12.625 8.00319 12.625C8.00175 12.625 8.00032 12.625 7.99889 12.625C7.99745 12.625 7.99602 12.625 7.99458 12.625C7.99315 12.625 7.99172 12.625 7.99029 12.625C7.98886 12.625 7.98743 12.625 7.986 12.625C7.98457 12.625 7.98314 12.625 7.98171 12.625C7.98028 12.625 7.97885 12.625 7.97743 12.625C7.976 12.625 7.97457 12.625 7.97315 12.625C7.97172 12.625 7.9703 12.625 7.96887 12.625C7.96745 12.625 7.96603 12.625 7.9646 12.625C7.96318 12.625 7.96176 12.625 7.96034 12.625C7.95892 12.625 7.9575 12.625 7.95608 12.625C7.95466 12.625 7.95324 12.625 7.95182 12.625C7.9504 12.625 7.94898 12.625 7.94757 12.625C7.94615 12.625 7.94473 12.625 7.94332 12.625C7.9419 12.625 7.94049 12.625 7.93907 12.625C7.93766 12.625 7.93624 12.625 7.93483 12.625C7.93342 12.625 7.93201 12.625 7.93059 12.625C7.92918 12.625 7.92777 12.625 7.92636 12.625C7.92495 12.625 7.92354 12.625 7.92213 12.625C7.92072 12.625 7.91931 12.625 7.91791 12.625C7.9165 12.625 7.91509 12.625 7.91369 12.625C7.91228 12.625 7.91087 12.625 7.90947 12.625C7.90806 12.625 7.90666 12.625 7.90525 12.625C7.90385 12.625 7.90245 12.625 7.90104 12.625C7.89964 12.625 7.89824 12.625 7.89684 12.625C7.89543 12.625 7.89403 12.625 7.89263 12.625C7.89123 12.625 7.88983 12.625 7.88843 12.625C7.88703 12.625 7.88563 12.625 7.88424 12.625C7.88284 12.625 7.88144 12.625 7.88004 12.625C7.87865 12.625 7.87725 12.625 7.87585 12.625C7.87446 12.625 7.87306 12.625 7.87167 12.625C7.87027 12.625 7.86888 12.625 7.86749 12.625C7.86609 12.625 7.8647 12.625 7.86331 12.625C7.86191 12.625 7.86052 12.625 7.85913 12.625C7.85774 12.625 7.85635 12.625 7.85496 12.625C7.85357 12.625 7.85218 12.625 7.85079 12.625C7.8494 12.625 7.84801 12.625 7.84662 12.625C7.84523 12.625 7.84384 12.625 7.84245 12.625C7.84107 12.625 7.83968 12.625 7.83829 12.625C7.83691 12.625 7.83552 12.625 7.83413 12.625C7.83275 12.625 7.83136 12.625 7.82998 12.625C7.82859 12.625 7.82721 12.625 7.82583 12.625C7.82444 12.625 7.82306 12.625 7.82168 12.625C7.82029 12.625 7.81891 12.625 7.81753 12.625C7.81615 12.625 7.81477 12.625 7.81339 12.625C7.812 12.625 7.81062 12.625 7.80924 12.625C7.80786 12.625 7.80648 12.625 7.8051 12.625C7.80373 12.625 7.80235 12.625 7.80097 12.625C7.79959 12.625 7.79821 12.625 7.79683 12.625C7.79546 12.625 7.79408 12.625 7.7927 12.625C7.79133 12.625 7.78995 12.625 7.78857 12.625C7.7872 12.625 7.78582 12.625 7.78445 12.625C7.78307 12.625 7.7817 12.625 7.78032 12.625C7.77895 12.625 7.77757 12.625 7.7762 12.625C7.77483 12.625 7.77345 12.625 7.77208 12.625C7.77071 12.625 7.76934 12.625 7.76796 12.625C7.76659 12.625 7.76522 12.625 7.76385 12.625C7.76248 12.625 7.7611 12.625 7.75973 12.625C7.75836 12.625 7.75699 12.625 7.75562 12.625C7.75425 12.625 7.75288 12.625 7.75151 12.625C7.75014 12.625 7.74878 12.625 7.74741 12.625C7.74604 12.625 7.74467 12.625 7.7433 12.625C7.74193 12.625 7.74056 12.625 7.7392 12.625C7.73783 12.625 7.73646 12.625 7.7351 12.625C7.73373 12.625 7.73236 12.625 7.731 12.625C7.72963 12.625 7.72826 12.625 7.7269 12.625C7.72553 12.625 7.72417 12.625 7.7228 12.625C7.72144 12.625 7.72007 12.625 7.71871 12.625C7.71734 12.625 7.71598 12.625 7.71461 12.625C7.71325 12.625 7.71188 12.625 7.71052 12.625C7.70916 12.625 7.70779 12.625 7.70643 12.625C7.70507 12.625 7.7037 12.625 7.70234 12.625C7.70098 12.625 7.69962 12.625 7.69826 12.625C7.69689 12.625 7.69553 12.625 7.69417 12.625C7.69281 12.625 7.69145 12.625 7.69008 12.625C7.68872 12.625 7.68736 12.625 7.686 12.625C7.68464 12.625 7.68328 12.625 7.68192 12.625C7.68056 12.625 7.6792 12.625 7.67784 12.625C7.67648 12.625 7.67512 12.625 7.67376 12.625C7.6724 12.625 7.67104 12.625 7.66968 12.625C7.66832 12.625 7.66696 12.625 7.6656 12.625C7.66424 12.625 7.66289 12.625 7.66153 12.625C7.66017 12.625 7.65881 12.625 7.65745 12.625C7.65609 12.625 7.65474 12.625 7.65338 12.625C7.65202 12.625 7.65066 12.625 7.6493 12.625C7.64795 12.625 7.64659 12.625 7.64523 12.625C7.64387 12.625 7.64252 12.625 7.64116 12.625C7.6398 12.625 7.63844 12.625 7.63709 12.625C7.63573 12.625 7.63437 12.625 7.63302 12.625C7.63166 12.625 7.6303 12.625 7.62895 12.625C7.62759 12.625 7.62623 12.625 7.62488 12.625C7.62352 12.625 7.62217 12.625 7.62081 12.625C7.61945 12.625 7.6181 12.625 7.61674 12.625C7.61539 12.625 7.61403 12.625 7.61267 12.625C7.61132 12.625 7.60996 12.625 7.60861 12.625C7.60725 12.625 7.6059 12.625 7.60454 12.625C7.60318 12.625 7.60183 12.625 7.60047 12.625C7.59912 12.625 7.59776 12.625 7.59641 12.625C7.59505 12.625 7.5937 12.625 7.59234 12.625C7.59099 12.625 7.58963 12.625 7.58827 12.625C7.58692 12.625 7.58556 12.625 7.58421 12.625C7.58285 12.625 7.5815 12.625 7.58014 12.625C7.57879 12.625 7.57743 12.625 7.57608 12.625C7.57472 12.625 7.57337 12.625 7.57201 12.625C7.57066 12.625 7.5693 12.625 7.56795 12.625C7.56659 12.625 7.56524 12.625 7.56388 12.625C7.56253 12.625 7.56117 12.625 7.55982 12.625C7.55846 12.625 7.55711 12.625 7.55575 12.625C7.5544 12.625 7.55304 12.625 7.55169 12.625C7.55033 12.625 7.54897 12.625 7.54762 12.625C7.54626 12.625 7.54491 12.625 7.54355 12.625C7.5422 12.625 7.54084 12.625 7.53949 12.625C7.53813 12.625 7.53677 12.625 7.53542 12.625C7.53406 12.625 7.53271 12.625 7.53135 12.625C7.53 12.625 7.52864 12.625 7.52728 12.625C7.52593 12.625 7.52457 12.625 7.52321 12.625C7.52186 12.625 7.5205 12.625 7.51915 12.625C7.51779 12.625 7.51643 12.625 7.51508 12.625C7.51372 12.625 7.51236 12.625 7.51101 12.625C7.50965 12.625 7.50829 12.625 7.50693 12.625C7.50558 12.625 7.50422 12.625 7.50286 12.625C7.5015 12.625 7.50015 12.625 7.49879 12.625C7.49743 12.625 7.49607 12.625 7.49472 12.625C7.49336 12.625 7.492 12.625 7.49064 12.625C7.48928 12.625 7.48793 12.625 7.48657 12.625C7.48521 12.625 7.48385 12.625 7.48249 12.625C7.48113 12.625 7.47977 12.625 7.47841 12.625C7.47705 12.625 7.47569 12.625 7.47434 12.625C7.47298 12.625 7.47162 12.625 7.47026 12.625C7.4689 12.625 7.46754 12.625 7.46618 12.625C7.46481 12.625 7.46345 12.625 7.46209 12.625C7.46073 12.625 7.45937 12.625 7.45801 12.625C7.45665 12.625 7.45529 12.625 7.45393 12.625C7.45256 12.625 7.4512 12.625 7.44984 12.625C7.44848 12.625 7.44712 12.625 7.44575 12.625C7.44439 12.625 7.44303 12.625 7.44167 12.625C7.4403 12.625 7.43894 12.625 7.43758 12.625C7.43621 12.625 7.43485 12.625 7.43348 12.625C7.43212 12.625 7.43076 12.625 7.42939 12.625C7.42803 12.625 7.42666 12.625 7.4253 12.625C7.42393 12.625 7.42257 12.625 7.4212 12.625C7.41984 12.625 7.41847 12.625 7.4171 12.625C7.41574 12.625 7.41437 12.625 7.413 12.625C7.41164 12.625 7.41027 12.625 7.4089 12.625C7.40753 12.625 7.40617 12.625 7.4048 12.625C7.40343 12.625 7.40206 12.625 7.40069 12.625C7.39932 12.625 7.39796 12.625 7.39659 12.625C7.39522 12.625 7.39385 12.625 7.39248 12.625C7.39111 12.625 7.38974 12.625 7.38837 12.625C7.387 12.625 7.38563 12.625 7.38425 12.625C7.38288 12.625 7.38151 12.625 7.38014 12.625C7.37877 12.625 7.37739 12.625 7.37602 12.625C7.37465 12.625 7.37328 12.625 7.3719 12.625C7.37053 12.625 7.36915 12.625 7.36778 12.625C7.36641 12.625 7.36503 12.625 7.36366 12.625C7.36228 12.625 7.36091 12.625 7.35953 12.625C7.35815 12.625 7.35678 12.625 7.3554 12.625C7.35402 12.625 7.35265 12.625 7.35127 12.625C7.34989 12.625 7.34852 12.625 7.34714 12.625C7.34576 12.625 7.34438 12.625 7.343 12.625C7.34162 12.625 7.34024 12.625 7.33886 12.625C7.33748 12.625 7.3361 12.625 7.33472 12.625C7.33334 12.625 7.33196 12.625 7.33058 12.625C7.3292 12.625 7.32781 12.625 7.32643 12.625C7.32505 12.625 7.32367 12.625 7.32228 12.625C7.3209 12.625 7.31951 12.625 7.31813 12.625C7.31675 12.625 7.31536 12.625 7.31397 12.625C7.31259 12.625 7.3112 12.625 7.30982 12.625C7.30843 12.625 7.30704 12.625 7.30566 12.625C7.30427 12.625 7.30288 12.625 7.30149 12.625C7.3001 12.625 7.29872 12.625 7.29733 12.625C7.29594 12.625 7.29455 12.625 7.29316 12.625C7.29177 12.625 7.29038 12.625 7.28898 12.625C7.28759 12.625 7.2862 12.625 7.28481 12.625C7.28342 12.625 7.28202 12.625 7.28063 12.625C7.27924 12.625 7.27784 12.625 7.27645 12.625C7.27505 12.625 7.27366 12.625 7.27226 12.625C7.27087 12.625 7.26947 12.625 7.26807 12.625C7.26668 12.625 7.26528 12.625 7.26388 12.625C7.26248 12.625 7.26108 12.625 7.25968 12.625C7.25829 12.625 7.25689 12.625 7.25549 12.625C7.25409 12.625 7.25268 12.625 7.25128 12.625C7.24988 12.625 7.24848 12.625 7.24708 12.625C7.24567 12.625 7.24427 12.625 7.24287 12.625C7.24146 12.625 7.24006 12.625 7.23865 12.625C7.23725 12.625 7.23584 12.625 7.23444 12.625C7.23303 12.625 7.23162 12.625 7.23022 12.625C7.22881 12.625 7.2274 12.625 7.22599 12.625C7.22458 12.625 7.22317 12.625 7.22176 12.625C7.22035 12.625 7.21894 12.625 7.21753 12.625C7.21612 12.625 7.21471 12.625 7.21329 12.625C7.21188 12.625 7.21047 12.625 7.20905 12.625C7.20764 12.625 7.20623 12.625 7.20481 12.625C7.20339 12.625 7.20198 12.625 7.20056 12.625C7.19915 12.625 7.19773 12.625 7.19631 12.625C7.19489 12.625 7.19347 12.625 7.19205 12.625C7.19063 12.625 7.18921 12.625 7.18779 12.625C7.18637 12.625 7.18495 12.625 7.18353 12.625C7.18211 12.625 7.18068 12.625 7.17926 12.625C7.17784 12.625 7.17641 12.625 7.17499 12.625C7.17356 12.625 7.17213 12.625 7.17071 12.625C7.16928 12.625 7.16785 12.625 7.16643 12.625C7.165 12.625 7.16357 12.625 7.16214 12.625C7.16071 12.625 7.15928 12.625 7.15785 12.625C7.15642 12.625 7.15499 12.625 7.15355 12.625C7.15212 12.625 7.15069 12.625 7.14925 12.625C7.14782 12.625 7.14638 12.625 7.14495 12.625C7.14351 12.625 7.14208 12.625 7.14064 12.625C7.1392 12.625 7.13776 12.625 7.13632 12.625C7.13489 12.625 7.13345 12.625 7.13201 12.625C7.13057 12.625 7.12912 12.625 7.12768 12.625C7.12624 12.625 7.1248 12.625 7.12335 12.625C7.12191 12.625 7.12046 12.625 7.11902 12.625C7.11757 12.625 7.11613 12.625 7.11468 12.625C7.11323 12.625 7.11179 12.625 7.11034 12.625C7.10889 12.625 7.10744 12.625 7.10599 12.625C7.10454 12.625 7.10309 12.625 7.10164 12.625C7.10018 12.625 7.09873 12.625 7.09728 12.625C7.09582 12.625 7.09437 12.625 7.09291 12.625C7.09146 12.625 7.09 12.625 7.08854 12.625C7.08709 12.625 7.08563 12.625 7.08417 12.625C7.08271 12.625 7.08125 12.625 7.07979 12.625C7.07833 12.625 7.07687 12.625 7.0754 12.625C7.07394 12.625 7.07248 12.625 7.07101 12.625C7.06955 12.625 7.06808 12.625 7.06662 12.625C7.06515 12.625 7.06368 12.625 7.06222 12.625C7.06075 12.625 7.05928 12.625 7.05781 12.625C7.05634 12.625 7.05487 12.625 7.0534 12.625C7.05193 12.625 7.05045 12.625 7.04898 12.625C7.04751 12.625 7.04603 12.625 7.04456 12.625C7.04308 12.625 7.0416 12.625 7.04013 12.625C7.03865 12.625 7.03717 12.625 7.03569 12.625C7.03421 12.625 7.03273 12.625 7.03125 12.625C7.02977 12.625 7.02829 12.625 7.0268 12.625C7.02532 12.625 7.02383 12.625 7.02235 12.625C7.02086 12.625 7.01938 12.625 7.01789 12.625C7.0164 12.625 7.01491 12.625 7.01343 12.625C7.01194 12.625 7.01045 12.625 7.00896 12.625C7.00746 12.625 7.00597 12.625 7.00448 12.625C7.00299 12.625 7.00149 12.625 7 12.625V11.375C7.00149 11.375 7.00299 11.375 7.00448 11.375C7.00597 11.375 7.00746 11.375 7.00896 11.375C7.01045 11.375 7.01194 11.375 7.01343 11.375C7.01491 11.375 7.0164 11.375 7.01789 11.375C7.01938 11.375 7.02086 11.375 7.02235 11.375C7.02383 11.375 7.02532 11.375 7.0268 11.375C7.02829 11.375 7.02977 11.375 7.03125 11.375C7.03273 11.375 7.03421 11.375 7.03569 11.375C7.03717 11.375 7.03865 11.375 7.04013 11.375C7.0416 11.375 7.04308 11.375 7.04456 11.375C7.04603 11.375 7.04751 11.375 7.04898 11.375C7.05045 11.375 7.05193 11.375 7.0534 11.375C7.05487 11.375 7.05634 11.375 7.05781 11.375C7.05928 11.375 7.06075 11.375 7.06222 11.375C7.06368 11.375 7.06515 11.375 7.06662 11.375C7.06808 11.375 7.06955 11.375 7.07101 11.375C7.07248 11.375 7.07394 11.375 7.0754 11.375C7.07687 11.375 7.07833 11.375 7.07979 11.375C7.08125 11.375 7.08271 11.375 7.08417 11.375C7.08563 11.375 7.08709 11.375 7.08854 11.375C7.09 11.375 7.09146 11.375 7.09291 11.375C7.09437 11.375 7.09582 11.375 7.09728 11.375C7.09873 11.375 7.10018 11.375 7.10164 11.375C7.10309 11.375 7.10454 11.375 7.10599 11.375C7.10744 11.375 7.10889 11.375 7.11034 11.375C7.11179 11.375 7.11323 11.375 7.11468 11.375C7.11613 11.375 7.11757 11.375 7.11902 11.375C7.12046 11.375 7.12191 11.375 7.12335 11.375C7.1248 11.375 7.12624 11.375 7.12768 11.375C7.12912 11.375 7.13057 11.375 7.13201 11.375C7.13345 11.375 7.13489 11.375 7.13632 11.375C7.13776 11.375 7.1392 11.375 7.14064 11.375C7.14208 11.375 7.14351 11.375 7.14495 11.375C7.14638 11.375 7.14782 11.375 7.14925 11.375C7.15069 11.375 7.15212 11.375 7.15355 11.375C7.15499 11.375 7.15642 11.375 7.15785 11.375C7.15928 11.375 7.16071 11.375 7.16214 11.375C7.16357 11.375 7.165 11.375 7.16643 11.375C7.16785 11.375 7.16928 11.375 7.17071 11.375C7.17213 11.375 7.17356 11.375 7.17499 11.375C7.17641 11.375 7.17784 11.375 7.17926 11.375C7.18068 11.375 7.18211 11.375 7.18353 11.375C7.18495 11.375 7.18637 11.375 7.18779 11.375C7.18921 11.375 7.19063 11.375 7.19205 11.375C7.19347 11.375 7.19489 11.375 7.19631 11.375C7.19773 11.375 7.19915 11.375 7.20056 11.375C7.20198 11.375 7.20339 11.375 7.20481 11.375C7.20623 11.375 7.20764 11.375 7.20905 11.375C7.21047 11.375 7.21188 11.375 7.21329 11.375C7.21471 11.375 7.21612 11.375 7.21753 11.375C7.21894 11.375 7.22035 11.375 7.22176 11.375C7.22317 11.375 7.22458 11.375 7.22599 11.375C7.2274 11.375 7.22881 11.375 7.23022 11.375C7.23162 11.375 7.23303 11.375 7.23444 11.375C7.23584 11.375 7.23725 11.375 7.23865 11.375C7.24006 11.375 7.24146 11.375 7.24287 11.375C7.24427 11.375 7.24567 11.375 7.24708 11.375C7.24848 11.375 7.24988 11.375 7.25128 11.375C7.25268 11.375 7.25409 11.375 7.25549 11.375C7.25689 11.375 7.25829 11.375 7.25968 11.375C7.26108 11.375 7.26248 11.375 7.26388 11.375C7.26528 11.375 7.26668 11.375 7.26807 11.375C7.26947 11.375 7.27087 11.375 7.27226 11.375C7.27366 11.375 7.27505 11.375 7.27645 11.375C7.27784 11.375 7.27924 11.375 7.28063 11.375C7.28202 11.375 7.28342 11.375 7.28481 11.375C7.2862 11.375 7.28759 11.375 7.28898 11.375C7.29038 11.375 7.29177 11.375 7.29316 11.375C7.29455 11.375 7.29594 11.375 7.29733 11.375C7.29872 11.375 7.3001 11.375 7.30149 11.375C7.30288 11.375 7.30427 11.375 7.30566 11.375C7.30704 11.375 7.30843 11.375 7.30982 11.375C7.3112 11.375 7.31259 11.375 7.31397 11.375C7.31536 11.375 7.31675 11.375 7.31813 11.375C7.31951 11.375 7.3209 11.375 7.32228 11.375C7.32367 11.375 7.32505 11.375 7.32643 11.375C7.32781 11.375 7.3292 11.375 7.33058 11.375C7.33196 11.375 7.33334 11.375 7.33472 11.375C7.3361 11.375 7.33748 11.375 7.33886 11.375C7.34024 11.375 7.34162 11.375 7.343 11.375C7.34438 11.375 7.34576 11.375 7.34714 11.375C7.34852 11.375 7.34989 11.375 7.35127 11.375C7.35265 11.375 7.35402 11.375 7.3554 11.375C7.35678 11.375 7.35815 11.375 7.35953 11.375C7.36091 11.375 7.36228 11.375 7.36366 11.375C7.36503 11.375 7.36641 11.375 7.36778 11.375C7.36915 11.375 7.37053 11.375 7.3719 11.375C7.37328 11.375 7.37465 11.375 7.37602 11.375C7.37739 11.375 7.37877 11.375 7.38014 11.375C7.38151 11.375 7.38288 11.375 7.38425 11.375C7.38563 11.375 7.387 11.375 7.38837 11.375C7.38974 11.375 7.39111 11.375 7.39248 11.375C7.39385 11.375 7.39522 11.375 7.39659 11.375C7.39796 11.375 7.39932 11.375 7.40069 11.375C7.40206 11.375 7.40343 11.375 7.4048 11.375C7.40617 11.375 7.40753 11.375 7.4089 11.375C7.41027 11.375 7.41164 11.375 7.413 11.375C7.41437 11.375 7.41574 11.375 7.4171 11.375C7.41847 11.375 7.41984 11.375 7.4212 11.375C7.42257 11.375 7.42393 11.375 7.4253 11.375C7.42666 11.375 7.42803 11.375 7.42939 11.375C7.43076 11.375 7.43212 11.375 7.43348 11.375C7.43485 11.375 7.43621 11.375 7.43758 11.375C7.43894 11.375 7.4403 11.375 7.44167 11.375C7.44303 11.375 7.44439 11.375 7.44575 11.375C7.44712 11.375 7.44848 11.375 7.44984 11.375C7.4512 11.375 7.45256 11.375 7.45393 11.375C7.45529 11.375 7.45665 11.375 7.45801 11.375C7.45937 11.375 7.46073 11.375 7.46209 11.375C7.46345 11.375 7.46481 11.375 7.46618 11.375C7.46754 11.375 7.4689 11.375 7.47026 11.375C7.47162 11.375 7.47298 11.375 7.47434 11.375C7.47569 11.375 7.47705 11.375 7.47841 11.375C7.47977 11.375 7.48113 11.375 7.48249 11.375C7.48385 11.375 7.48521 11.375 7.48657 11.375C7.48793 11.375 7.48928 11.375 7.49064 11.375C7.492 11.375 7.49336 11.375 7.49472 11.375C7.49607 11.375 7.49743 11.375 7.49879 11.375C7.50015 11.375 7.5015 11.375 7.50286 11.375C7.50422 11.375 7.50558 11.375 7.50693 11.375C7.50829 11.375 7.50965 11.375 7.51101 11.375C7.51236 11.375 7.51372 11.375 7.51508 11.375C7.51643 11.375 7.51779 11.375 7.51915 11.375C7.5205 11.375 7.52186 11.375 7.52321 11.375C7.52457 11.375 7.52593 11.375 7.52728 11.375C7.52864 11.375 7.53 11.375 7.53135 11.375C7.53271 11.375 7.53406 11.375 7.53542 11.375C7.53677 11.375 7.53813 11.375 7.53949 11.375C7.54084 11.375 7.5422 11.375 7.54355 11.375C7.54491 11.375 7.54626 11.375 7.54762 11.375C7.54897 11.375 7.55033 11.375 7.55169 11.375C7.55304 11.375 7.5544 11.375 7.55575 11.375C7.55711 11.375 7.55846 11.375 7.55982 11.375C7.56117 11.375 7.56253 11.375 7.56388 11.375C7.56524 11.375 7.56659 11.375 7.56795 11.375C7.5693 11.375 7.57066 11.375 7.57201 11.375C7.57337 11.375 7.57472 11.375 7.57608 11.375C7.57743 11.375 7.57879 11.375 7.58014 11.375C7.5815 11.375 7.58285 11.375 7.58421 11.375C7.58556 11.375 7.58692 11.375 7.58827 11.375C7.58963 11.375 7.59099 11.375 7.59234 11.375C7.5937 11.375 7.59505 11.375 7.59641 11.375C7.59776 11.375 7.59912 11.375 7.60047 11.375C7.60183 11.375 7.60318 11.375 7.60454 11.375C7.6059 11.375 7.60725 11.375 7.60861 11.375C7.60996 11.375 7.61132 11.375 7.61267 11.375C7.61403 11.375 7.61539 11.375 7.61674 11.375C7.6181 11.375 7.61945 11.375 7.62081 11.375C7.62217 11.375 7.62352 11.375 7.62488 11.375C7.62623 11.375 7.62759 11.375 7.62895 11.375C7.6303 11.375 7.63166 11.375 7.63302 11.375C7.63437 11.375 7.63573 11.375 7.63709 11.375C7.63844 11.375 7.6398 11.375 7.64116 11.375C7.64252 11.375 7.64387 11.375 7.64523 11.375C7.64659 11.375 7.64795 11.375 7.6493 11.375C7.65066 11.375 7.65202 11.375 7.65338 11.375C7.65474 11.375 7.65609 11.375 7.65745 11.375C7.65881 11.375 7.66017 11.375 7.66153 11.375C7.66289 11.375 7.66424 11.375 7.6656 11.375C7.66696 11.375 7.66832 11.375 7.66968 11.375C7.67104 11.375 7.6724 11.375 7.67376 11.375C7.67512 11.375 7.67648 11.375 7.67784 11.375C7.6792 11.375 7.68056 11.375 7.68192 11.375C7.68328 11.375 7.68464 11.375 7.686 11.375C7.68736 11.375 7.68872 11.375 7.69008 11.375C7.69145 11.375 7.69281 11.375 7.69417 11.375C7.69553 11.375 7.69689 11.375 7.69826 11.375C7.69962 11.375 7.70098 11.375 7.70234 11.375C7.7037 11.375 7.70507 11.375 7.70643 11.375C7.70779 11.375 7.70916 11.375 7.71052 11.375C7.71188 11.375 7.71325 11.375 7.71461 11.375C7.71598 11.375 7.71734 11.375 7.71871 11.375C7.72007 11.375 7.72144 11.375 7.7228 11.375C7.72417 11.375 7.72553 11.375 7.7269 11.375C7.72826 11.375 7.72963 11.375 7.731 11.375C7.73236 11.375 7.73373 11.375 7.7351 11.375C7.73646 11.375 7.73783 11.375 7.7392 11.375C7.74056 11.375 7.74193 11.375 7.7433 11.375C7.74467 11.375 7.74604 11.375 7.74741 11.375C7.74878 11.375 7.75014 11.375 7.75151 11.375C7.75288 11.375 7.75425 11.375 7.75562 11.375C7.75699 11.375 7.75836 11.375 7.75973 11.375C7.7611 11.375 7.76248 11.375 7.76385 11.375C7.76522 11.375 7.76659 11.375 7.76796 11.375C7.76934 11.375 7.77071 11.375 7.77208 11.375C7.77345 11.375 7.77483 11.375 7.7762 11.375C7.77757 11.375 7.77895 11.375 7.78032 11.375C7.7817 11.375 7.78307 11.375 7.78445 11.375C7.78582 11.375 7.7872 11.375 7.78857 11.375C7.78995 11.375 7.79133 11.375 7.7927 11.375C7.79408 11.375 7.79546 11.375 7.79683 11.375C7.79821 11.375 7.79959 11.375 7.80097 11.375C7.80235 11.375 7.80373 11.375 7.8051 11.375C7.80648 11.375 7.80786 11.375 7.80924 11.375C7.81062 11.375 7.812 11.375 7.81339 11.375C7.81477 11.375 7.81615 11.375 7.81753 11.375C7.81891 11.375 7.82029 11.375 7.82168 11.375C7.82306 11.375 7.82444 11.375 7.82583 11.375C7.82721 11.375 7.82859 11.375 7.82998 11.375C7.83136 11.375 7.83275 11.375 7.83413 11.375C7.83552 11.375 7.83691 11.375 7.83829 11.375C7.83968 11.375 7.84107 11.375 7.84245 11.375C7.84384 11.375 7.84523 11.375 7.84662 11.375C7.84801 11.375 7.8494 11.375 7.85079 11.375C7.85218 11.375 7.85357 11.375 7.85496 11.375C7.85635 11.375 7.85774 11.375 7.85913 11.375C7.86052 11.375 7.86191 11.375 7.86331 11.375C7.8647 11.375 7.86609 11.375 7.86749 11.375C7.86888 11.375 7.87027 11.375 7.87167 11.375C7.87306 11.375 7.87446 11.375 7.87585 11.375C7.87725 11.375 7.87865 11.375 7.88004 11.375C7.88144 11.375 7.88284 11.375 7.88424 11.375C7.88563 11.375 7.88703 11.375 7.88843 11.375C7.88983 11.375 7.89123 11.375 7.89263 11.375C7.89403 11.375 7.89543 11.375 7.89684 11.375C7.89824 11.375 7.89964 11.375 7.90104 11.375C7.90245 11.375 7.90385 11.375 7.90525 11.375C7.90666 11.375 7.90806 11.375 7.90947 11.375C7.91087 11.375 7.91228 11.375 7.91369 11.375C7.91509 11.375 7.9165 11.375 7.91791 11.375C7.91931 11.375 7.92072 11.375 7.92213 11.375C7.92354 11.375 7.92495 11.375 7.92636 11.375C7.92777 11.375 7.92918 11.375 7.93059 11.375C7.93201 11.375 7.93342 11.375 7.93483 11.375C7.93624 11.375 7.93766 11.375 7.93907 11.375C7.94049 11.375 7.9419 11.375 7.94332 11.375C7.94473 11.375 7.94615 11.375 7.94757 11.375C7.94898 11.375 7.9504 11.375 7.95182 11.375C7.95324 11.375 7.95466 11.375 7.95608 11.375C7.9575 11.375 7.95892 11.375 7.96034 11.375C7.96176 11.375 7.96318 11.375 7.9646 11.375C7.96603 11.375 7.96745 11.375 7.96887 11.375C7.9703 11.375 7.97172 11.375 7.97315 11.375C7.97457 11.375 7.976 11.375 7.97743 11.375C7.97885 11.375 7.98028 11.375 7.98171 11.375C7.98314 11.375 7.98457 11.375 7.986 11.375C7.98743 11.375 7.98886 11.375 7.99029 11.375C7.99172 11.375 7.99315 11.375 7.99458 11.375C7.99602 11.375 7.99745 11.375 7.99889 11.375C8.00032 11.375 8.00175 11.375 8.00319 11.375C8.00463 11.375 8.00606 11.375 8.0075 11.375C8.00894 11.375 8.01038 11.375 8.01182 11.375C8.01326 11.375 8.0147 11.375 8.01614 11.375C8.01758 11.375 8.01902 11.375 8.02046 11.375C8.0219 11.375 8.02335 11.375 8.02479 11.375C8.02623 11.375 8.02768 11.375 8.02913 11.375C8.03057 11.375 8.03202 11.375 8.03346 11.375C8.03491 11.375 8.03636 11.375 8.03781 11.375C8.03926 11.375 8.04071 11.375 8.04216 11.375C8.04361 11.375 8.04506 11.375 8.04651 11.375C8.04797 11.375 8.04942 11.375 8.05087 11.375C8.05233 11.375 8.05378 11.375 8.05524 11.375C8.05669 11.375 8.05815 11.375 8.05961 11.375C8.06107 11.375 8.06252 11.375 8.06398 11.375C8.06544 11.375 8.0669 11.375 8.06836 11.375C8.06983 11.375 8.07129 11.375 8.07275 11.375C8.07421 11.375 8.07568 11.375 8.07714 11.375C8.07861 11.375 8.08007 11.375 8.08154 11.375C8.08301 11.375 8.08447 11.375 8.08594 11.375C8.08741 11.375 8.08888 11.375 8.09035 11.375C8.09182 11.375 8.09329 11.375 8.09476 11.375C8.09624 11.375 8.09771 11.375 8.09918 11.375C8.10066 11.375 8.10213 11.375 8.10361 11.375C8.10508 11.375 8.10656 11.375 8.10804 11.375C8.10952 11.375 8.11099 11.375 8.11247 11.375C8.11395 11.375 8.11543 11.375 8.11692 11.375C8.1184 11.375 8.11988 11.375 8.12136 11.375C8.12285 11.375 8.12433 11.375 8.12582 11.375C8.1273 11.375 8.12879 11.375 8.13028 11.375C8.13177 11.375 8.13326 11.375 8.13474 11.375C8.13623 11.375 8.13772 11.375 8.13922 11.375C8.14071 11.375 8.1422 11.375 8.14369 11.375C8.14519 11.375 8.14668 11.375 8.14818 11.375C8.14967 11.375 8.15117 11.375 8.15267 11.375C8.15417 11.375 8.15567 11.375 8.15717 11.375C8.15867 11.375 8.16017 11.375 8.16167 11.375C8.16317 11.375 8.16467 11.375 8.16618 11.375C8.16768 11.375 8.16919 11.375 8.17069 11.375C8.1722 11.375 8.17371 11.375 8.17522 11.375C8.17672 11.375 8.17823 11.375 8.17974 11.375C8.18125 11.375 8.18277 11.375 8.18428 11.375C8.18579 11.375 8.18731 11.375 8.18882 11.375C8.19034 11.375 8.19185 11.375 8.19337 11.375C8.19489 11.375 8.1964 11.375 8.19792 11.375C8.19944 11.375 8.20096 11.375 8.20248 11.375C8.20401 11.375 8.20553 11.375 8.20705 11.375C8.20858 11.375 8.2101 11.375 8.21163 11.375C8.21315 11.375 8.21468 11.375 8.21621 11.375C8.21774 11.375 8.21927 11.375 8.2208 11.375C8.22233 11.375 8.22386 11.375 8.22539 11.375C8.22693 11.375 8.22846 11.375 8.23 11.375C8.23153 11.375 8.23307 11.375 8.2346 11.375C8.23614 11.375 8.23768 11.375 8.23922 11.375C8.24076 11.375 8.2423 11.375 8.24384 11.375C8.24539 11.375 8.24693 11.375 8.24848 11.375C8.25002 11.375 8.25157 11.375 8.25311 11.375C8.25466 11.375 8.25621 11.375 8.25776 11.375C8.25931 11.375 8.26086 11.375 8.26241 11.375C8.26396 11.375 8.26551 11.375 8.26707 11.375C8.26862 11.375 8.27018 11.375 8.27174 11.375C8.27329 11.375 8.27485 11.375 8.27641 11.375C8.27797 11.375 8.27953 11.375 8.28109 11.375C8.28265 11.375 8.28422 11.375 8.28578 11.375C8.28735 11.375 8.28891 11.375 8.29048 11.375C8.29205 11.375 8.29361 11.375 8.29518 11.375C8.29675 11.375 8.29832 11.375 8.29989 11.375C8.30147 11.375 8.30304 11.375 8.30461 11.375C8.30619 11.375 8.30776 11.375 8.30934 11.375C8.31092 11.375 8.3125 11.375 8.31408 11.375C8.31566 11.375 8.31724 11.375 8.31882 11.375C8.3204 11.375 8.32199 11.375 8.32357 11.375C8.32516 11.375 8.32674 11.375 8.32833 11.375C8.32992 11.375 8.33151 11.375 8.3331 11.375C8.33469 11.375 8.33628 11.375 8.33787 11.375C8.33946 11.375 8.34106 11.375 8.34265 11.375C8.34425 11.375 8.34585 11.375 8.34744 11.375C8.34904 11.375 8.35064 11.375 8.35224 11.375C8.35384 11.375 8.35545 11.375 8.35705 11.375C8.35865 11.375 8.36026 11.375 8.36186 11.375C8.36347 11.375 8.36508 11.375 8.36669 11.375C8.3683 11.375 8.36991 11.375 8.37152 11.375C8.37313 11.375 8.37475 11.375 8.37636 11.375C8.37797 11.375 8.37959 11.375 8.38121 11.375C8.38283 11.375 8.38445 11.375 8.38607 11.375C8.38769 11.375 8.38931 11.375 8.39093 11.375C8.39255 11.375 8.39418 11.375 8.39581 11.375C8.39743 11.375 8.39906 11.375 8.40069 11.375C8.40232 11.375 8.40395 11.375 8.40558 11.375C8.40721 11.375 8.40884 11.375 8.41048 11.375C8.41211 11.375 8.41375 11.375 8.41539 11.375C8.41702 11.375 8.41866 11.375 8.4203 11.375C8.42195 11.375 8.42359 11.375 8.42523 11.375C8.42687 11.375 8.42852 11.375 8.43017 11.375C8.43181 11.375 8.43346 11.375 8.43511 11.375C8.43676 11.375 8.43841 11.375 8.44006 11.375C8.44171 11.375 8.44337 11.375 8.44502 11.375C8.44668 11.375 8.44834 11.375 8.44999 11.375C8.45165 11.375 8.45331 11.375 8.45497 11.375C8.45664 11.375 8.4583 11.375 8.45996 11.375C8.46163 11.375 8.46329 11.375 8.46496 11.375C8.46663 11.375 8.4683 11.375 8.46997 11.375C8.47164 11.375 8.47331 11.375 8.47499 11.375C8.47666 11.375 8.47833 11.375 8.48001 11.375C8.48169 11.375 8.48337 11.375 8.48505 11.375C8.48673 11.375 8.48841 11.375 8.49009 11.375C8.49177 11.375 8.49346 11.375 8.49515 11.375C8.49683 11.375 8.49852 11.375 8.50021 11.375C8.5019 11.375 8.50359 11.375 8.50528 11.375C8.50697 11.375 8.50867 11.375 8.51036 11.375C8.51206 11.375 8.51376 11.375 8.51546 11.375C8.51716 11.375 8.51886 11.375 8.52056 11.375C8.52226 11.375 8.52396 11.375 8.52567 11.375C8.52738 11.375 8.52908 11.375 8.53079 11.375C8.5325 11.375 8.53421 11.375 8.53592 11.375C8.53764 11.375 8.53935 11.375 8.54106 11.375C8.54278 11.375 8.5445 11.375 8.54621 11.375C8.54793 11.375 8.54965 11.375 8.55138 11.375C8.5531 11.375 8.55482 11.375 8.55655 11.375C8.55827 11.375 8.56 11.375 8.56173 11.375C8.56346 11.375 8.56519 11.375 8.56692 11.375C8.56865 11.375 8.57038 11.375 8.57212 11.375C8.57385 11.375 8.57559 11.375 8.57733 11.375C8.57907 11.375 8.58081 11.375 8.58255 11.375C8.58429 11.375 8.58604 11.375 8.58778 11.375C8.58953 11.375 8.59128 11.375 8.59303 11.375C8.59477 11.375 8.59653 11.375 8.59828 11.375C8.60003 11.375 8.60178 11.375 8.60354 11.375C8.6053 11.375 8.60705 11.375 8.60881 11.375C8.61057 11.375 8.61233 11.375 8.6141 11.375C8.61586 11.375 8.61762 11.375 8.61939 11.375C8.62116 11.375 8.62293 11.375 8.6247 11.375C8.62647 11.375 8.62824 11.375 8.63001 11.375C8.63178 11.375 8.63356 11.375 8.63534 11.375C8.63711 11.375 8.63889 11.375 8.64067 11.375C8.64245 11.375 8.64424 11.375 8.64602 11.375C8.6478 11.375 8.64959 11.375 8.65138 11.375C8.65317 11.375 8.65496 11.375 8.65675 11.375C8.65854 11.375 8.66033 11.375 8.66213 11.375C8.66392 11.375 8.66572 11.375 8.66752 11.375C8.66932 11.375 8.67112 11.375 8.67292 11.375C8.67472 11.375 8.67653 11.375 8.67833 11.375C8.68014 11.375 8.68195 11.375 8.68376 11.375C8.68557 11.375 8.68738 11.375 8.68919 11.375C8.691 11.375 8.69282 11.375 8.69464 11.375C8.69645 11.375 8.69827 11.375 8.70009 11.375C8.70192 11.375 8.70374 11.375 8.70556 11.375C8.70739 11.375 8.70921 11.375 8.71104 11.375C8.71287 11.375 8.7147 11.375 8.71653 11.375C8.71837 11.375 8.7202 11.375 8.72204 11.375C8.72387 11.375 8.72571 11.375 8.72755 11.375C8.72939 11.375 8.73123 11.375 8.73308 11.375C8.73492 11.375 8.73677 11.375 8.73861 11.375C8.74046 11.375 8.74231 11.375 8.74416 11.375C8.74601 11.375 8.74787 11.375 8.74972 11.375C8.75158 11.375 8.75343 11.375 8.75529 11.375C8.75715 11.375 8.75901 11.375 8.76088 11.375C8.76274 11.375 8.76461 11.375 8.76647 11.375C8.76834 11.375 8.77021 11.375 8.77208 11.375C8.77395 11.375 8.77582 11.375 8.7777 11.375C8.77957 11.375 8.78145 11.375 8.78333 11.375C8.78521 11.375 8.78709 11.375 8.78897 11.375C8.79085 11.375 8.79274 11.375 8.79463 11.375C8.79651 11.375 8.7984 11.375 8.80029 11.375C8.80218 11.375 8.80408 11.375 8.80597 11.375C8.80787 11.375 8.80976 11.375 8.81166 11.375C8.81356 11.375 8.81546 11.375 8.81736 11.375C8.81927 11.375 8.82117 11.375 8.82308 11.375C8.82499 11.375 8.8269 11.375 8.82881 11.375C8.83072 11.375 8.83263 11.375 8.83455 11.375C8.83646 11.375 8.83838 11.375 8.8403 11.375C8.84222 11.375 8.84414 11.375 8.84606 11.375C8.84799 11.375 8.84991 11.375 8.85184 11.375C8.85377 11.375 8.8557 11.375 8.85763 11.375C8.85956 11.375 8.86149 11.375 8.86343 11.375C8.86537 11.375 8.8673 11.375 8.86924 11.375C8.87119 11.375 8.87313 11.375 8.87507 11.375C8.87702 11.375 8.87896 11.375 8.88091 11.375C8.88286 11.375 8.88481 11.375 8.88676 11.375C8.88872 11.375 8.89067 11.375 8.89263 11.375C8.89459 11.375 8.89654 11.375 8.89851 11.375C8.90047 11.375 8.90243 11.375 8.9044 11.375C8.90636 11.375 8.90833 11.375 8.9103 11.375C8.91227 11.375 8.91424 11.375 8.91622 11.375C8.91819 11.375 8.92017 11.375 8.92215 11.375C8.92412 11.375 8.92611 11.375 8.92809 11.375C8.93007 11.375 8.93206 11.375 8.93404 11.375C8.93603 11.375 8.93802 11.375 8.94001 11.375C8.942 11.375 8.944 11.375 8.94599 11.375C8.94799 11.375 8.94999 11.375 8.95199 11.375C8.95399 11.375 8.95599 11.375 8.958 11.375C8.96 11.375 8.96201 11.375 8.96402 11.375C8.96603 11.375 8.96804 11.375 8.97005 11.375C8.97207 11.375 8.97408 11.375 8.9761 11.375C8.97812 11.375 8.98014 11.375 8.98216 11.375C8.98418 11.375 8.98621 11.375 8.98824 11.375C8.99026 11.375 8.99229 11.375 8.99432 11.375C8.99636 11.375 8.99839 11.375 9.00043 11.375C9.00246 11.375 9.0045 11.375 9.00654 11.375C9.00858 11.375 9.01063 11.375 9.01267 11.375C9.01472 11.375 9.01676 11.375 9.01881 11.375C9.02086 11.375 9.02292 11.375 9.02497 11.375C9.02703 11.375 9.02908 11.375 9.03114 11.375C9.0332 11.375 9.03526 11.375 9.03733 11.375C9.03939 11.375 9.04145 11.375 9.04352 11.375C9.04559 11.375 9.04766 11.375 9.04974 11.375C9.05181 11.375 9.05388 11.375 9.05596 11.375C9.05804 11.375 9.06012 11.375 9.0622 11.375C9.06428 11.375 9.06637 11.375 9.06845 11.375C9.07054 11.375 9.07263 11.375 9.07472 11.375C9.07681 11.375 9.07891 11.375 9.08101 11.375C9.0831 11.375 9.0852 11.375 9.0873 11.375C9.0894 11.375 9.09151 11.375 9.09361 11.375C9.09572 11.375 9.09783 11.375 9.09994 11.375C9.10205 11.375 9.10416 11.375 9.10628 11.375C9.10839 11.375 9.11051 11.375 9.11263 11.375C9.11475 11.375 9.11687 11.375 9.119 11.375C9.12112 11.375 9.12325 11.375 9.12538 11.375C9.12751 11.375 9.12964 11.375 9.13178 11.375C9.13391 11.375 9.13605 11.375 9.13819 11.375C9.14033 11.375 9.14247 11.375 9.14461 11.375C9.14676 11.375 9.14891 11.375 9.15106 11.375C9.1532 11.375 9.15536 11.375 9.15751 11.375C9.15966 11.375 9.16182 11.375 9.16398 11.375C9.16614 11.375 9.1683 11.375 9.17047 11.375C9.17263 11.375 9.1748 11.375 9.17696 11.375C9.17913 11.375 9.18131 11.375 9.18348 11.375C9.18565 11.375 9.18783 11.375 9.19001 11.375C9.19219 11.375 9.19437 11.375 9.19655 11.375C9.19874 11.375 9.20092 11.375 9.20311 11.375C9.2053 11.375 9.20749 11.375 9.20969 11.375C9.21188 11.375 9.21408 11.375 9.21628 11.375C9.21848 11.375 9.22068 11.375 9.22288 11.375C9.22509 11.375 9.22729 11.375 9.2295 11.375C9.23171 11.375 9.23392 11.375 9.23614 11.375C9.23835 11.375 9.24057 11.375 9.24279 11.375C9.24501 11.375 9.24723 11.375 9.24945 11.375C9.25168 11.375 9.2539 11.375 9.25613 11.375C9.25836 11.375 9.2606 11.375 9.26283 11.375C9.26506 11.375 9.2673 11.375 9.26954 11.375C9.27178 11.375 9.27402 11.375 9.27627 11.375C9.27851 11.375 9.28076 11.375 9.28301 11.375C9.28526 11.375 9.28751 11.375 9.28977 11.375C9.29203 11.375 9.29428 11.375 9.29654 11.375C9.2988 11.375 9.30107 11.375 9.30333 11.375C9.3056 11.375 9.30787 11.375 9.31014 11.375C9.31241 11.375 9.31468 11.375 9.31696 11.375C9.31924 11.375 9.32152 11.375 9.3238 11.375C9.32608 11.375 9.32836 11.375 9.33065 11.375C9.33294 11.375 9.33523 11.375 9.33752 11.375C9.33981 11.375 9.34211 11.375 9.3444 11.375C9.3467 11.375 9.349 11.375 9.35131 11.375C9.35361 11.375 9.35591 11.375 9.35822 11.375C9.36053 11.375 9.36284 11.375 9.36515 11.375C9.36747 11.375 9.36979 11.375 9.3721 11.375C9.37442 11.375 9.37674 11.375 9.37907 11.375C9.38139 11.375 9.38372 11.375 9.38605 11.375C9.38838 11.375 9.39071 11.375 9.39305 11.375C9.39538 11.375 9.39772 11.375 9.40006 11.375C9.4024 11.375 9.40475 11.375 9.40709 11.375C9.40944 11.375 9.41179 11.375 9.41414 11.375C9.41649 11.375 9.41885 11.375 9.4212 11.375C9.42356 11.375 9.42592 11.375 9.42828 11.375C9.43064 11.375 9.43301 11.375 9.43538 11.375C9.43775 11.375 9.44012 11.375 9.44249 11.375C9.44486 11.375 9.44724 11.375 9.44962 11.375C9.452 11.375 9.45438 11.375 9.45677 11.375C9.45915 11.375 9.46154 11.375 9.46393 11.375C9.46632 11.375 9.46871 11.375 9.47111 11.375C9.47351 11.375 9.4759 11.375 9.47831 11.375C9.48071 11.375 9.48311 11.375 9.48552 11.375C9.48793 11.375 9.49034 11.375 9.49275 11.375C9.49516 11.375 9.49758 11.375 9.5 11.375V12.625ZM2.625 7C2.625 9.41625 4.58375 11.375 7 11.375V12.625C3.89339 12.625 1.375 10.1066 1.375 7H2.625ZM11.375 7C11.375 4.58375 9.41624 2.625 7 2.625V1.375C10.1066 1.375 12.625 3.8934 12.625 7H11.375ZM7 2.625C4.58375 2.625 2.625 4.58375 2.625 7H1.375C1.375 3.8934 3.89339 1.375 7 1.375V2.625ZM12.625 7C12.625 7.83063 12.4571 8.39699 12.393 8.71598C12.3592 8.88396 12.3632 8.93725 12.3668 8.95654C12.3677 8.96106 12.3689 8.96605 12.3749 8.97656C12.382 8.98913 12.3999 9.01602 12.4419 9.05806L11.558 9.94194C11.3431 9.72695 11.1945 9.483 11.1388 9.18971C11.0875 8.91968 11.1281 8.66585 11.1675 8.46957C11.2499 8.06004 11.375 7.66937 11.375 7L12.625 7Z" fill="black"/>
</svg>
