<svg width="16" height="16" viewBox="0 0 16 16" fill="none" xmlns="http://www.w3.org/2000/svg">
<path fill-rule="evenodd" clip-rule="evenodd" d="M4 2C2.89543 2 2 2.89543 2 4V12C2 13.1046 2.89543 14 4 14H12C13.1046 14 14 13.1046 14 12V4C14 2.89543 13.1046 2 12 2H4ZM7.26917 6.80584H6.04784V10.8808C6.04784 11.0672 6.02025 11.2241 5.96508 11.3516C5.90991 11.4791 5.82906 11.5761 5.72253 11.6427C5.61789 11.7074 5.48948 11.7397 5.33729 11.7397C5.19271 11.7397 5.06715 11.7112 4.96062 11.6541C4.85599 11.5951 4.77323 11.5114 4.71235 11.403C4.65338 11.2926 4.62199 11.1604 4.61819 11.0063H3.38829C3.38639 11.3944 3.46914 11.7169 3.63655 11.9737C3.80396 12.2286 4.03035 12.4189 4.31571 12.5444C4.60297 12.6681 4.92257 12.7299 5.27451 12.7299C5.67021 12.7299 6.0174 12.6547 6.31607 12.5045C6.61475 12.3542 6.84779 12.1402 7.0152 11.8624C7.18452 11.5847 7.26917 11.2574 7.26917 10.8808V6.80584ZM11.1672 7.95013C11.3403 8.07759 11.4383 8.25641 11.4611 8.4866H12.6453C12.6396 8.13846 12.5464 7.83218 12.3657 7.56775C12.185 7.30331 11.9319 7.0969 11.6066 6.94852C11.2832 6.80013 10.9046 6.72594 10.4709 6.72594C10.0448 6.72594 9.66429 6.80013 9.32947 6.94852C8.99464 7.0969 8.73116 7.30331 8.53902 7.56775C8.34878 7.83218 8.25461 8.14132 8.25652 8.49516C8.25461 8.92701 8.39634 9.27039 8.6817 9.52531C8.96706 9.78023 9.3561 9.96762 9.84882 10.0875L10.4852 10.2473C10.6982 10.2986 10.878 10.3557 11.0245 10.4185C11.1729 10.4813 11.2851 10.5574 11.3612 10.6468C11.4392 10.7362 11.4782 10.8465 11.4782 10.9778C11.4782 11.1186 11.4354 11.2432 11.3498 11.3516C11.2642 11.46 11.1434 11.5447 10.9874 11.6056C10.8333 11.6665 10.6516 11.6969 10.4424 11.6969C10.2293 11.6969 10.0381 11.6646 9.86879 11.5999C9.70138 11.5333 9.56727 11.4353 9.46644 11.306C9.36751 11.1747 9.31139 11.0111 9.29808 10.8151H8.10242C8.11193 11.2356 8.21371 11.5885 8.40776 11.8738C8.6037 12.1573 8.87574 12.3713 9.22388 12.5159C9.57392 12.6605 9.98484 12.7327 10.4566 12.7327C10.9322 12.7327 11.3384 12.6614 11.6751 12.5187C12.0137 12.3741 12.2725 12.1715 12.4513 11.9109C12.632 11.6484 12.7233 11.3383 12.7252 10.9806C12.7233 10.7371 12.6786 10.5212 12.5911 10.3329C12.5055 10.1445 12.3847 9.98093 12.2287 9.84206C12.0727 9.70319 11.8882 9.58619 11.6751 9.49107C11.4621 9.39595 11.2281 9.31985 10.9731 9.26278L10.4481 9.13722C10.3206 9.10869 10.2008 9.07444 10.0885 9.03449C9.97628 8.99264 9.87736 8.94413 9.79175 8.88896C9.70614 8.83189 9.63861 8.76435 9.58914 8.68635C9.54158 8.60836 9.51971 8.51704 9.52351 8.41241C9.52351 8.28685 9.55966 8.17461 9.63195 8.07569C9.70614 7.97676 9.81267 7.89971 9.95155 7.84455C10.0904 7.78747 10.2607 7.75894 10.4623 7.75894C10.7591 7.75894 10.9941 7.82267 11.1672 7.95013Z" fill="black"/>
</svg>
