<?xml version="1.0" encoding="UTF-8"?>
<svg xmlns="http://www.w3.org/2000/svg" xmlns:xlink="http://www.w3.org/1999/xlink" width="14px" height="14px" viewBox="0 0 14 14" version="1.1">
<g id="surface1">
<path style=" stroke:none;fill-rule:nonzero;fill:rgb(0%,0%,0%);fill-opacity:1;" d="M 11.667969 10.5 C 10.378906 10.5 9.332031 9.457031 9.332031 8.167969 C 9.332031 6.878906 10.378906 5.832031 11.667969 5.832031 C 12.957031 5.832031 14 6.878906 14 8.167969 C 14 9.457031 12.957031 10.5 11.667969 10.5 Z M 11.667969 7 C 11.023438 7 10.5 7.523438 10.5 8.167969 C 10.5 8.808594 11.023438 9.332031 11.667969 9.332031 C 12.308594 9.332031 12.832031 8.808594 12.832031 8.167969 C 12.832031 7.523438 12.308594 7 11.667969 7 Z M 7.582031 3.5 L 6.417969 3.5 L 6.417969 1.167969 L 7.582031 1.167969 Z M 5.832031 3.5 L 4.667969 3.5 L 4.667969 0 L 5.832031 0 Z M 4.082031 3.5 L 2.917969 3.5 L 2.917969 1.167969 L 4.082031 1.167969 Z M 4.082031 3.5 "/>
<path style=" stroke:none;fill-rule:nonzero;fill:rgb(0%,0%,0%);fill-opacity:1;" d="M 5.25 13.417969 C 2.671875 13.417969 0.582031 11.328125 0.582031 8.75 L 0.582031 5.25 L 9.917969 5.25 L 9.917969 8.75 C 9.917969 11.328125 7.828125 13.417969 5.25 13.417969 Z M 5.25 13.417969 "/>
</g>
</svg>
