<?xml version="1.0" encoding="UTF-8"?>
<svg xmlns="http://www.w3.org/2000/svg" xmlns:xlink="http://www.w3.org/1999/xlink" width="14px" height="14px" viewBox="0 0 14 14" version="1.1">
<g id="surface1">
<path style=" stroke:none;fill-rule:nonzero;fill:rgb(0%,0%,0%);fill-opacity:1;" d="M 10.644531 9.734375 C 9.640625 9.734375 8.824219 8.917969 8.824219 7.910156 C 8.824219 6.90625 9.640625 6.089844 10.644531 6.089844 C 11.652344 6.089844 12.46875 6.90625 12.46875 7.910156 C 12.46875 8.917969 11.652344 9.734375 10.644531 9.734375 Z M 10.644531 7 C 10.144531 7 9.734375 7.410156 9.734375 7.910156 C 9.734375 8.414062 10.144531 8.824219 10.644531 8.824219 C 11.148438 8.824219 11.558594 8.414062 11.558594 7.910156 C 11.558594 7.410156 11.148438 7 10.644531 7 Z M 7.457031 4.265625 L 6.542969 4.265625 L 6.542969 2.441406 L 7.457031 2.441406 Z M 6.089844 4.265625 L 5.175781 4.265625 L 5.175781 1.53125 L 6.089844 1.53125 Z M 4.722656 4.265625 L 3.808594 4.265625 L 3.808594 2.441406 L 4.722656 2.441406 Z M 4.722656 4.265625 "/>
<path style=" stroke:none;fill-rule:nonzero;fill:rgb(0%,0%,0%);fill-opacity:1;" d="M 5.632812 12.011719 C 3.617188 12.011719 1.988281 10.382812 1.988281 8.367188 L 1.988281 5.632812 L 9.277344 5.632812 L 9.277344 8.367188 C 9.277344 10.382812 7.648438 12.011719 5.632812 12.011719 Z M 5.632812 12.011719 "/>
</g>
</svg>
