<?xml version="1.0" encoding="utf-8"?>
<svg fill="#000000" height="800px" width="800px" version="1.1" id="Filled_Icons" xmlns="http://www.w3.org/2000/svg" xmlns:xlink="http://www.w3.org/1999/xlink" x="0px"
	 y="0px" viewBox="0 0 24 24" enable-background="new 0 0 24 24" xml:space="preserve">
<g id="Java-Filled">
	<path d="M20,18c-2.21,0-4-1.79-4-4s1.79-4,4-4s4,1.79,4,4S22.21,18,20,18z M20,12c-1.1,0-2,0.9-2,2s0.9,2,2,2s2-0.9,2-2
		S21.1,12,20,12z M13,6h-2V2h2V6z M10,6H8V0h2V6z M7,6H5V2h2V6z"/>
	<path d="M9,23L9,23c-4.42,0-8-3.58-8-8V9h16v6C17,19.42,13.42,23,9,23z"/>
</g>
</svg>
