<svg width="14" height="15" viewBox="0 0 14 15" fill="none" xmlns="http://www.w3.org/2000/svg">
<path d="M9.88091 7.62563C9.88091 9.47276 9.53899 11.1329 8.99678 12.3219C8.44442 13.5332 7.73228 14.1638 7.03536 14.1638C6.33843 14.1638 5.6263 13.5332 5.07394 12.3219C4.53173 11.1329 4.1898 9.47276 4.1898 7.62563C4.1898 5.77849 4.53173 4.11835 5.07394 2.92936C5.6263 1.71808 6.33843 1.0874 7.03536 1.0874C7.73228 1.0874 8.44442 1.71808 8.99678 2.92936C9.53899 4.11835 9.88091 5.77849 9.88091 7.62563Z" stroke="black" stroke-width="0.5"/>
<path d="M6.75394 5.0472C8.59129 5.0472 10.2425 5.39078 11.4251 5.93553C12.629 6.49015 13.2579 7.20586 13.2579 7.90847C13.2579 8.61108 12.629 9.32679 11.4251 9.8814C10.2425 10.4262 8.59129 10.7697 6.75394 10.7697C4.91659 10.7697 3.26534 10.4262 2.08278 9.8814C0.878828 9.32679 0.25 8.61108 0.25 7.90847C0.25 7.20586 0.878828 6.49015 2.08278 5.93553C3.26534 5.39078 4.91659 5.0472 6.75394 5.0472Z" stroke="black" stroke-width="0.5"/>
<path d="M9.04791 5.60286C10.3473 6.90882 11.2733 8.32551 11.7263 9.55138C12.1877 10.7998 12.1283 11.7523 11.6348 12.2484C11.1412 12.7445 10.1935 12.8041 8.95137 12.3404C7.7317 11.8851 6.32216 10.9544 5.02279 9.64841C3.72343 8.34245 2.79739 6.92575 2.34437 5.69989C1.883 4.45145 1.94237 3.49892 2.43593 3.00286C2.92948 2.5068 3.8772 2.44713 5.11934 2.91084C6.33901 3.36616 7.74855 4.2969 9.04791 5.60286Z" stroke="black" stroke-width="0.5"/>
<path d="M9.04791 9.6484C7.74855 10.9544 6.33901 11.8851 5.11934 12.3404C3.8772 12.8041 2.92949 12.7445 2.43593 12.2484C1.94237 11.7523 1.88301 10.7998 2.34437 9.55137C2.79739 8.3255 3.72343 6.90881 5.0228 5.60285C6.32216 4.29689 7.7317 3.36615 8.95137 2.91083C10.1935 2.44712 11.1412 2.50679 11.6348 3.00285C12.1283 3.49891 12.1877 4.45144 11.7263 5.69988C11.2733 6.92574 10.3473 8.34244 9.04791 9.6484Z" stroke="black" stroke-width="0.5"/>
<path d="M8.25131 7.86863C8.25131 8.49347 7.74734 9 7.12566 9C6.50397 9 6 8.49347 6 7.86863C6 7.24379 6.50397 6.73726 7.12566 6.73726C7.74734 6.73726 8.25131 7.24379 8.25131 7.86863Z" fill="black"/>
</svg>
