<svg width="14" height="14" viewBox="0 0 14 14" fill="none" xmlns="http://www.w3.org/2000/svg">
<g clip-path="url(#clip0_1_3)">
<path d="M8.1375 7C8.1375 7.62878 7.62878 8.1375 7 8.1375C6.37123 8.1375 5.8625 7.62878 5.8625 7C5.8625 6.37123 6.37123 5.8625 7 5.8625C7.62878 5.8625 8.1375 6.37123 8.1375 7Z" fill="#8BB7F0"/>
<path d="M6.99999 8.22499C6.32467 8.22499 5.77499 7.67549 5.77499 6.99999C5.77499 6.32449 6.32467 5.77499 6.99999 5.77499C7.67532 5.77499 8.22499 6.32449 8.22499 6.99999C8.22499 7.67549 7.67532 8.22499 6.99999 8.22499ZM6.99999 5.94999C6.42092 5.94999 5.94999 6.42092 5.94999 6.99999C5.94999 7.57907 6.42092 8.04999 6.99999 8.04999C7.57907 8.04999 8.04999 7.57907 8.04999 6.99999C8.04999 6.42092 7.57907 5.94999 6.99999 5.94999Z" fill="#4E7AB5"/>
<path d="M4.28294 13.213C3.98352 13.213 3.71087 13.1444 3.47234 13.0093C3.07334 12.7831 2.79754 12.3932 2.65229 11.8508C2.48342 11.2196 2.50354 10.3812 2.71039 9.42219C1.04229 8.84836 0.0874939 7.96794 0.0874939 7.00001C0.0874939 6.03191 1.04212 5.15166 2.71022 4.57801C2.50337 3.61884 2.48307 2.78041 2.65194 2.14919C2.79719 1.60669 3.07299 1.21679 3.47182 0.990687C3.71017 0.855587 3.98299 0.786987 4.28242 0.786987C5.05032 0.786987 6.01334 1.26474 7.00034 2.13414C7.98734 1.26561 8.95002 0.788212 9.71704 0.788212C10.0165 0.788212 10.2891 0.856812 10.5276 0.991912C10.9261 1.21784 11.2021 1.60704 11.3473 2.14884C11.5164 2.77989 11.4961 3.61849 11.2891 4.57784C12.9575 5.15149 13.9125 6.03191 13.9125 7.00001C13.9125 7.96811 12.9575 8.84854 11.2891 9.42236C11.4959 10.3815 11.5162 11.22 11.3472 11.851C11.2019 12.393 10.9263 12.7822 10.5282 13.0081C10.2895 13.1432 10.0166 13.2118 9.71739 13.2118C8.94984 13.2118 7.98682 12.7344 7.00017 11.8662C6.01317 12.7355 5.05032 13.213 4.28294 13.213ZM3.38397 9.62606C3.21054 10.4515 3.19112 11.1568 3.32867 11.6699C3.42352 12.0244 3.58784 12.2703 3.81762 12.4005C3.94939 12.4752 4.10602 12.5132 4.28294 12.5132C4.87689 12.5132 5.65879 12.1139 6.49162 11.3867C6.07424 10.9664 5.66684 10.4906 5.27922 9.97081C4.60879 9.89801 3.97179 9.78216 3.38397 9.62606ZM7.50854 11.3864C8.34119 12.1128 9.12327 12.5118 9.71722 12.512C9.89414 12.512 10.0508 12.474 10.1829 12.3993C10.412 12.2694 10.5759 12.0241 10.6706 11.6701C10.8082 11.1566 10.7889 10.4515 10.6155 9.62624C10.0271 9.78234 9.38997 9.89819 8.71972 9.97099C8.33227 10.4907 7.92539 10.9664 7.50854 11.3864ZM6.22404 10.0438C6.47814 10.3546 6.73819 10.6446 6.99999 10.9083C7.26109 10.6447 7.52132 10.3548 7.77524 10.0438C7.51432 10.0562 7.25444 10.0625 6.99999 10.0625C6.74537 10.0625 6.48532 10.0562 6.22404 10.0438ZM5.66107 9.30634C6.09769 9.34361 6.54797 9.36251 6.99999 9.36251C7.45237 9.36251 7.90212 9.34361 8.33804 9.30651C8.59809 8.94181 8.84607 8.55961 9.07549 8.16989C9.29739 7.79276 9.50617 7.39919 9.69622 6.99984C9.50669 6.60154 9.29809 6.20814 9.07567 5.83014C8.84677 5.44129 8.59879 5.05909 8.33804 4.69351C7.90247 4.65641 7.45272 4.63751 6.99999 4.63751C6.54709 4.63751 6.09717 4.65641 5.66177 4.69369C5.40102 5.05874 5.15269 5.44094 4.92344 5.83031C4.70119 6.20814 4.49259 6.60154 4.30289 7.00036C4.49224 7.39831 4.70084 7.79171 4.92327 8.17006C5.15147 8.55769 5.39944 8.93971 5.66107 9.30634ZM10.0609 7.83634C9.93737 8.07189 9.80927 8.30289 9.67854 8.52479C9.54677 8.74914 9.40659 8.97419 9.26099 9.19609C9.67644 9.13204 10.0739 9.04996 10.4459 8.95109C10.3427 8.59251 10.2133 8.21854 10.0609 7.83634ZM3.55319 8.95091C3.92542 9.04961 4.32267 9.13186 4.73759 9.19591C4.59112 8.97261 4.45094 8.74739 4.32004 8.52479C4.18967 8.30306 4.06139 8.07241 3.93802 7.83686C3.78629 8.21731 3.65714 8.59094 3.55319 8.95091ZM10.4678 7.00001C10.7352 7.59344 10.9531 8.18004 11.1167 8.74599C12.412 8.29029 13.2125 7.62546 13.2125 7.00001C13.2125 6.37456 12.412 5.70974 11.1167 5.25404C10.9534 5.81999 10.7354 6.40659 10.4678 7.00001ZM2.88259 5.25439C1.58777 5.70991 0.787494 6.37474 0.787494 7.00001C0.787494 7.62546 1.58777 8.29029 2.88294 8.74581C3.04639 8.17969 3.26427 7.59309 3.53132 7.00036C3.26409 6.40746 3.04622 5.82086 2.88259 5.25439ZM3.55302 5.04911C3.65697 5.40856 3.78612 5.78236 3.93802 6.16351C4.06122 5.92866 4.18932 5.69784 4.32022 5.47541C4.45182 5.25159 4.59199 5.02654 4.73812 4.80411C4.32267 4.86799 3.92542 4.95024 3.55302 5.04911ZM9.26134 4.80394C9.40782 5.02741 9.54799 5.25246 9.67889 5.47541C9.80944 5.69714 9.93772 5.92796 10.0613 6.16351C10.2133 5.78254 10.3425 5.40874 10.4464 5.04894C10.0737 4.95006 9.67644 4.86781 9.26134 4.80394ZM4.28242 1.48699C4.10549 1.48699 3.94904 1.52479 3.81744 1.59969C3.58784 1.72989 3.42334 1.97576 3.32832 2.33031C3.19094 2.84394 3.21019 3.54901 3.38379 4.37414C3.97179 4.21804 4.60914 4.10201 5.27974 4.02921C5.66772 3.50929 6.07512 3.03381 6.49197 2.61381C5.65897 1.88634 4.87654 1.48699 4.28242 1.48699ZM8.71989 4.02904C9.39014 4.10184 10.0273 4.21769 10.6157 4.37379C10.7893 3.54849 10.8087 2.84324 10.671 2.32979C10.5761 1.97594 10.412 1.73059 10.1827 1.60074C10.0508 1.52601 9.89414 1.48804 9.71704 1.48804C9.12327 1.48804 8.34154 1.88721 7.50872 2.61381C7.92522 3.03364 8.33227 3.50929 8.71989 4.02904ZM6.99999 3.93751C7.25444 3.93751 7.51432 3.94381 7.77542 3.95624C7.52167 3.64579 7.26162 3.35599 7.00034 3.09209C6.73837 3.35634 6.47849 3.64614 6.22474 3.95624C6.48567 3.94381 6.74554 3.93751 6.99999 3.93751Z" fill="#8BB7F0"/>
<path d="M4.28243 0.874481C5.06888 0.874481 6.03172 1.38373 7.00052 2.25121C7.96915 1.38443 8.93147 0.875706 9.71722 0.875706C10.0012 0.875706 10.2595 0.940456 10.4848 1.06803C10.8621 1.28188 11.1239 1.65306 11.2628 2.17158C11.4513 2.85706 11.4117 3.70108 11.1869 4.63558C12.8007 5.17476 13.825 6.02543 13.825 7.00001C13.825 7.97458 12.8007 8.82526 11.1867 9.36461C11.4214 10.3749 11.4608 11.2417 11.2627 11.8284C11.1237 12.3468 10.8621 12.7181 10.4851 12.932C10.2595 13.0597 10.0546 13.125 9.77077 13.125C9.7706 13.125 9.69797 13.125 9.6978 13.125C8.9117 13.125 7.96845 12.6158 7 11.7493C6.03137 12.6166 5.06887 13.1255 4.28277 13.1255C3.99875 13.1255 3.74045 13.0608 3.51522 12.9332C3.13757 12.7188 2.8756 12.3471 2.73682 11.8283C2.52857 11.1778 2.57057 10.3227 2.81277 9.36443C1.1991 8.82508 0.175 7.97458 0.175 7.00001C0.175 6.02561 1.1991 5.17493 2.8126 4.63558C2.69238 4.10026 2.61555 3.60326 2.61292 3.15001C2.61082 2.79196 2.65965 2.45893 2.73665 2.17176C2.8756 1.65271 3.1374 1.28101 3.51505 1.06681C3.7401 0.939056 3.9984 0.874481 4.28243 0.874481ZM3.31765 4.48246C3.92612 4.31533 4.6018 4.18898 5.32717 4.11198C5.74402 3.55023 6.1803 3.04518 6.61972 2.60978C5.76712 1.84923 4.93693 1.39931 4.28243 1.39931C4.0901 1.39931 3.9193 1.44096 3.77422 1.52338C3.52345 1.66566 3.34512 1.92938 3.2438 2.30756C3.09365 2.86791 3.12777 3.62531 3.31765 4.48246ZM10.6818 4.48228C10.8717 3.62513 10.9058 2.86756 10.7557 2.30721C10.6545 1.92973 10.4762 1.66653 10.2259 1.52461C10.0807 1.44218 9.90937 1.40053 9.71722 1.40053C9.06325 1.40053 8.23358 1.84993 7.38115 2.60978C7.8204 3.04518 8.25615 3.55023 8.67265 4.11181C9.39767 4.18881 10.0734 4.31516 10.6818 4.48228ZM6.03348 4.05406C6.34883 4.03533 6.66505 4.01906 6.99387 4.01906C7.3227 4.01906 7.651 4.03551 7.96635 4.05406C7.64995 3.65523 7.32515 3.29088 7.00017 2.96836C6.6752 3.29088 6.35023 3.65523 6.03348 4.05406ZM7 9.45001C7.48317 9.45001 7.9457 9.42883 8.38565 9.39016C8.65147 9.01968 8.90855 8.62628 9.15075 8.21433C9.38753 7.81201 9.60172 7.40478 9.793 7.00001C9.60172 6.59523 9.38752 6.18818 9.15092 5.78603C8.90855 5.37391 8.65165 4.98068 8.38565 4.61021C7.94587 4.57118 7.48335 4.55001 7 4.55001C6.51665 4.55001 6.05395 4.57118 5.614 4.61003C5.34783 4.98051 5.09057 5.37391 4.8482 5.78586C4.6116 6.18818 4.3974 6.59541 4.20612 7.00018C4.3974 7.40496 4.61142 7.81201 4.84802 8.21416C5.0904 8.62611 5.34747 9.01951 5.61347 9.38998C6.0536 9.42883 6.51647 9.45001 7 9.45001ZM10.0706 6.37228C10.2674 5.89821 10.4303 5.43271 10.5546 4.98751C10.1078 4.86466 9.61432 4.76316 9.0797 4.68878C9.2596 4.95601 9.43477 5.23303 9.6033 5.51968C9.77025 5.80301 9.92548 6.08791 10.0706 6.37228ZM3.92857 6.37246C4.07347 6.08808 4.22888 5.80318 4.39548 5.51968C4.56418 5.23303 4.73952 4.95618 4.9196 4.68896C4.38497 4.76316 3.89147 4.86483 3.4447 4.98768C3.56895 5.43288 3.73187 5.89821 3.92857 6.37246ZM11.0579 8.85886C12.4712 8.38006 13.3 7.67656 13.3 7.00001C13.3 6.32346 12.4712 5.61996 11.0579 5.14116C10.8911 5.73703 10.6608 6.36318 10.3719 6.99983C10.6608 7.63666 10.8911 8.26281 11.0579 8.85886ZM2.94175 8.85868C3.10835 8.26298 3.33848 7.63683 3.6274 7.00036C3.33848 6.36371 3.10817 5.73738 2.94157 5.14151C1.52845 5.62031 0.7 6.32363 0.7 7.00001C0.7 7.67656 1.52862 8.37988 2.94175 8.85868ZM9.0797 9.31123C9.61432 9.23703 10.1078 9.13553 10.5546 9.01251C10.4302 8.56731 10.2673 8.10181 10.0706 7.62756C9.92548 7.91193 9.77007 8.19683 9.6033 8.48033C9.43477 8.76698 9.2596 9.04401 9.0797 9.31123ZM4.91907 9.31106C4.73917 9.04383 4.564 8.76698 4.3953 8.48051C4.2287 8.19718 4.07347 7.91246 3.92857 7.62826C3.73187 8.10216 3.56912 8.56748 3.44487 9.01251C3.89147 9.13518 4.3848 9.23668 4.91907 9.31106ZM4.28295 12.6005C4.93728 12.6005 5.76712 12.1508 6.61955 11.3906C6.17977 10.955 5.74367 10.4498 5.32665 9.88786C4.60162 9.81103 3.9263 9.68468 3.318 9.51756C3.1283 10.3747 3.09417 11.1321 3.24415 11.6925C3.3453 12.0705 3.5238 12.3342 3.7744 12.4765C3.9193 12.5589 4.09063 12.6005 4.28295 12.6005ZM9.71722 12.5995C9.90955 12.5995 10.0805 12.5578 10.2259 12.4754C10.4762 12.3335 10.6542 12.0703 10.7551 11.6926C10.9053 11.1321 10.8712 10.3747 10.6815 9.51773C10.073 9.68486 9.3975 9.81121 8.6723 9.88803C8.2558 10.4498 7.81987 10.9548 7.38062 11.3904C8.23305 12.1499 9.0629 12.5993 9.71722 12.5995ZM7 11.032C7.32497 10.7093 7.64977 10.3448 7.96635 9.94596C7.65117 9.96468 7.34352 10.0042 7.01452 10.0042C6.68535 10.0042 6.3483 9.96468 6.03295 9.94596C6.3497 10.345 6.67485 10.7095 7 11.032ZM4.2203 0.712606C3.90547 0.712606 3.68043 0.771756 3.42878 0.914381C3.00895 1.15256 2.71915 1.56031 2.5676 2.12643C2.3996 2.75416 2.41412 3.57928 2.6089 4.52061C0.948325 5.10808 0 6.00688 0 7.00001C0 7.99331 0.9485 8.89193 2.60908 9.47941C2.4143 10.4207 2.39977 11.2459 2.56795 11.8736C2.71932 12.4394 3.00895 12.8471 3.42912 13.0856C3.68112 13.2284 3.98387 13.2892 4.29852 13.2892C5.08375 13.2892 6.0053 12.8455 7.00017 11.9826C7.99487 12.8447 8.932 13.2993 9.71705 13.2995C10.0319 13.2995 10.3192 13.2272 10.5712 13.0844C10.9907 12.8466 11.2801 12.4394 11.4315 11.8739C11.5997 11.246 11.5852 10.4209 11.3904 9.47976C13.0513 8.89211 14 7.99331 14 7.00001C14 6.00671 13.0515 5.10791 11.3906 4.52043C11.5855 3.57893 11.5999 2.75381 11.4317 2.12608C11.2801 1.56066 10.9905 1.15343 10.5709 0.915606C10.319 0.772981 10.0317 0.700531 9.71705 0.700531C8.93217 0.700531 7.99522 1.15536 7.00035 2.01776C6.0053 1.15466 5.0638 0.712081 4.2784 0.712081L4.2203 0.712606ZM3.451 4.26598C3.37015 3.85928 3.3159 3.47813 3.31292 3.14388C3.3103 2.84288 3.3516 2.58091 3.41267 2.35271C3.5014 2.02161 3.65207 1.79376 3.8605 1.67546C3.9788 1.60826 4.123 1.56276 4.28452 1.56276C4.8412 1.56276 5.57375 1.94391 6.36405 2.61871C5.97538 3.01648 5.59545 3.46203 5.2325 3.94608C4.60512 4.01608 4.00697 4.12336 3.451 4.26598ZM7.63665 2.61906C8.42677 1.94478 9.16108 1.57553 9.71705 1.57553C9.87875 1.57553 10.021 1.60966 10.1395 1.67686C10.3476 1.79481 10.4981 2.02213 10.5866 2.35253C10.7396 2.84568 10.7198 3.50123 10.5485 4.26581C9.9925 4.12336 9.39452 4.01591 8.76732 3.94626C8.40455 3.46238 8.02497 3.01683 7.63665 2.61906ZM6.41777 3.86051C6.60957 3.63301 6.80435 3.41776 7.00017 3.21686C7.196 3.41776 7.3906 3.63301 7.58222 3.86051C7.3864 3.85351 7.19162 3.85001 7 3.85001C6.80837 3.85001 6.61377 3.85351 6.41777 3.86051ZM5.70937 4.77751C6.13025 4.74268 6.5639 4.71783 7 4.71783C7.43592 4.71783 7.86958 4.74268 8.29028 4.77751C8.54088 5.13083 8.77958 5.49956 9.00007 5.87458C9.21392 6.23823 9.41535 6.61641 9.5991 6.99983C9.41518 7.38343 9.21375 7.76178 8.9999 8.12543C8.77923 8.50063 8.5407 8.86918 8.2901 9.22251C7.86958 9.25733 7.43592 9.30406 7 9.30406C6.56372 9.30406 6.1299 9.25716 5.70885 9.22233C5.45808 8.86918 5.21937 8.50046 4.9987 8.12526C4.78485 7.76178 4.5836 7.38361 4.39985 7.00001C4.5836 6.61641 4.78503 6.23806 4.99888 5.87441C5.21972 5.49938 5.4586 5.13066 5.70937 4.77751ZM10.0488 5.95421C9.95277 5.77606 9.85425 5.60106 9.75432 5.43096C9.65457 5.26138 9.5501 5.09111 9.44195 4.92188C9.7524 4.97473 10.0518 5.03791 10.3369 5.11088C10.2552 5.38493 10.1587 5.66703 10.0488 5.95421ZM3.6624 5.11088C3.94747 5.03791 4.2469 4.97473 4.55735 4.92188C4.44902 5.09111 4.34455 5.26138 4.2448 5.43078C4.14488 5.60088 4.04635 5.77588 3.95027 5.95403C3.84037 5.66721 3.74412 5.38511 3.6624 5.11088ZM10.5639 6.99983C10.8115 6.44648 11.0166 5.89873 11.1746 5.36778C12.3826 5.80861 13.125 6.42618 13.125 7.00001C13.125 7.57383 12.3826 8.19141 11.1746 8.63223C11.0164 8.10111 10.8115 7.55318 10.5639 6.99983ZM2.82485 8.63206C1.61718 8.19123 0.875 7.57366 0.875 7.00001C0.875 6.42636 1.61718 5.80878 2.82468 5.36796C2.9827 5.89908 3.18762 6.44683 3.43525 7.00018C3.1878 7.55336 2.98287 8.10111 2.82485 8.63206ZM9.44177 9.07831C9.54992 8.90891 9.65457 8.73863 9.75415 8.56923C9.85425 8.39913 9.95277 8.22396 10.0488 8.04581C10.1587 8.33298 10.255 8.61526 10.3369 8.88948C10.0516 8.96211 9.75222 9.02546 9.44177 9.07831ZM3.66258 8.88913C3.7443 8.61508 3.84055 8.33316 3.95027 8.04633C4.04617 8.22431 4.1447 8.39931 4.24462 8.56923C4.3442 8.73863 4.44868 8.90873 4.557 9.07813C4.24673 9.02511 3.94748 8.96193 3.66258 8.88913ZM4.28295 12.4255C4.12125 12.4255 3.97915 12.3914 3.86068 12.3242C3.65243 12.2059 3.50175 11.9782 3.4132 11.6471C3.26777 11.1493 3.28422 10.4935 3.45135 9.73386C4.00715 9.87631 4.60495 9.98376 5.23197 10.0534C5.5951 10.5375 5.97503 10.9832 6.36388 11.3813C5.57375 12.0563 4.83928 12.4257 4.28295 12.4255ZM8.76715 10.0538C9.39435 9.98393 9.99232 9.87666 10.5483 9.73421C10.7417 10.5637 10.7569 11.2249 10.5863 11.6473C10.4979 11.9779 10.3476 12.2052 10.1397 12.323C10.021 12.3902 9.87892 12.4243 9.7174 12.4243C9.1609 12.4243 8.42625 12.0551 7.6363 11.3811C8.0248 10.9834 8.40437 10.5378 8.76715 10.0538ZM7 10.7835C6.804 10.5826 6.60905 10.3672 6.41725 10.1395C6.61325 10.1465 6.8082 10.15 7 10.15C7.19162 10.15 7.3864 10.1465 7.58222 10.1395C7.3906 10.3672 7.19582 10.5826 7 10.7835Z" fill="#4E7AB5"/>
</g>
<defs>
<clipPath id="clip0_1_3">
<rect width="14" height="14" fill="white"/>
</clipPath>
</defs>
</svg>
