<svg width="14" height="14" viewBox="0 0 14 14" fill="none" xmlns="http://www.w3.org/2000/svg">
<path d="M7 4.25434C8.90742 4.25434 10.6224 4.58653 11.8512 5.11372C12.466 5.37751 12.9476 5.68518 13.2719 6.01411C13.5951 6.34195 13.75 6.67738 13.75 7.0076C13.75 7.33781 13.5951 7.67325 13.2719 8.00108C12.9476 8.33001 12.466 8.63768 11.8512 8.90147C10.6224 9.42866 8.90742 9.76085 7 9.76085C5.09258 9.76085 3.3776 9.42866 2.14882 8.90147C1.53399 8.63768 1.05239 8.33001 0.728127 8.00108C0.404927 7.67325 0.25 7.33781 0.25 7.0076C0.25 6.67738 0.404927 6.34195 0.728127 6.01411C1.05239 5.68518 1.53399 5.37751 2.14882 5.11372C3.3776 4.58653 5.09258 4.25434 7 4.25434Z" stroke="black" stroke-width="0.5"/>
<path d="M9.65003 8.39337C8.69978 9.88411 7.52965 11.0578 6.41717 11.7543C5.28972 12.4602 4.29768 12.6344 3.63439 12.2876C2.97109 11.9407 2.64164 11.0754 2.75284 9.83814C2.86257 8.61725 3.39974 7.11256 4.34999 5.62182C5.30023 4.13107 6.47036 2.95737 7.58285 2.26086C8.71029 1.55498 9.70233 1.38077 10.3656 1.72763C11.0289 2.07449 11.3584 2.93974 11.2472 4.17705C11.1374 5.39794 10.6003 6.90263 9.65003 8.39337Z" stroke="black" stroke-width="0.5"/>
<path d="M9.75842 5.60662C10.7087 7.09736 11.2458 8.60206 11.3556 9.82294C11.4668 11.0603 11.1373 11.9255 10.474 12.2724C9.81073 12.6192 8.81869 12.445 7.69124 11.7391C6.57876 11.0426 5.40863 9.86892 4.45838 8.37818C3.50814 6.88744 2.97097 5.38274 2.86124 4.16185C2.75004 2.92455 3.07949 2.05929 3.74278 1.71244C4.40608 1.36558 5.39812 1.53978 6.52557 2.24566C7.63805 2.94218 8.80818 4.11588 9.75842 5.60662Z" stroke="black" stroke-width="0.5"/>
<ellipse cx="7.00001" cy="7.00759" rx="1.10526" ry="1.00108" fill="black"/>
</svg>
