<svg width="14" height="14" viewBox="0 0 14 14" fill="none" xmlns="http://www.w3.org/2000/svg">
<g clip-path="url(#clip0_20_7)">
<path d="M6.99999 8.4025C7.68915 8.4025 8.24782 7.77458 8.24782 7C8.24782 6.22542 7.68915 5.5975 6.99999 5.5975C6.31084 5.5975 5.75217 6.22542 5.75217 7C5.75217 7.77458 6.31084 8.4025 6.99999 8.4025Z" fill="black"/>
<path d="M7 9.87341C10.6979 9.87341 13.6957 8.58694 13.6957 7C13.6957 5.41306 10.6979 4.12659 7 4.12659C3.3021 4.12659 0.304352 5.41306 0.304352 7C0.304352 8.58694 3.3021 9.87341 7 9.87341Z" stroke="black" stroke-width="0.5"/>
<path d="M4.78598 8.43671C6.63493 12.0361 9.12505 14.3108 10.3478 13.5174C11.5706 12.7239 11.063 9.16273 9.21401 5.56329C7.36505 1.96385 4.87493 -0.310832 3.65217 0.482639C2.4294 1.27611 2.93703 4.83727 4.78598 8.43671Z" stroke="black" stroke-width="0.5"/>
<path d="M4.78598 5.56329C2.93702 9.16273 2.4294 12.7239 3.65216 13.5174C4.87493 14.3108 7.36505 12.0361 9.214 8.43671C11.063 4.83727 11.5706 1.27611 10.3478 0.482638C9.12505 -0.310833 6.63493 1.96385 4.78598 5.56329Z" stroke="black" stroke-width="0.5"/>
</g>
<defs>
<clipPath id="clip0_20_7">
<rect width="14" height="14" fill="white"/>
</clipPath>
</defs>
</svg>
