<?xml version="1.0" encoding="UTF-8"?>
<svg width="14" height="14" fill="none" version="1.1" viewBox="0 0 14 14" xmlns="http://www.w3.org/2000/svg">
 <path d="m7.0476 1.8083a2.4695 2.4695 0 0 0-2.4697 2.4685 2.4695 2.4695 0 0 0 2.4697 2.4697 2.4695 2.4695 0 0 0 2.4697-2.4697 2.4695 2.4695 0 0 0-2.4697-2.4685zm-2.9755 5.4452a2.4695 2.4695 0 0 0-2.4697 2.4697 2.4695 2.4695 0 0 0 2.4697 2.4685 2.4695 2.4695 0 0 0 2.4685-2.4685 2.4695 2.4695 0 0 0-2.4685-2.4697zm5.9511 0a2.4695 2.4695 0 0 0-2.4685 2.4697 2.4695 2.4695 0 0 0 2.4685 2.4685 2.4695 2.4695 0 0 0 2.4697-2.4685 2.4695 2.4695 0 0 0-2.4697-2.4697z" fill="#000" stroke-width=".68425"/>
</svg>
