<svg width="16" height="16" viewBox="0 0 16 16" fill="none" xmlns="http://www.w3.org/2000/svg">
<path d="M8.18066 11.3784C8.09052 11.3828 7.98455 11.3854 7.87814 11.3854C6.11134 11.3854 4.51339 10.6629 3.36352 9.49681L3.36264 9.49593C3.72585 10.5249 4.374 11.3779 5.21255 11.9843L5.2275 11.9949C6.04714 12.5889 7.07301 12.9455 8.18198 12.9455C9.29096 12.9455 10.3164 12.5894 11.1505 11.9852L11.1356 11.9953C11.9886 11.3784 12.6368 10.5258 12.989 9.53287L13 9.49681C11.8484 10.6634 10.2491 11.3859 8.48143 11.3859C8.37546 11.3859 8.26993 11.3832 8.16527 11.3779L8.18066 11.3784ZM8.18022 4.07285C8.27081 4.06801 8.37678 4.06538 8.48363 4.06538C10.25 4.06538 11.8479 4.78784 12.9974 5.95354L12.9982 5.95442C12.635 4.92547 11.9869 4.07241 11.1488 3.46604L11.1338 3.45548C10.3142 2.86186 9.28832 2.50613 8.17935 2.50613C7.07037 2.50613 6.04494 2.86186 5.21035 3.46604L5.2253 3.45592C4.3718 4.07241 3.72365 4.92547 3.37144 5.91836L3.36044 5.95442C4.51339 4.78828 6.11354 4.06582 7.88253 4.06582C7.98719 4.06582 8.09184 4.06845 8.19518 4.07329L8.18022 4.07285ZM4.1493 3.23914C4.1493 3.39876 4.08466 3.54343 3.98045 3.64852C3.87668 3.75318 3.73289 3.81825 3.57415 3.81825C3.41541 3.81825 3.27118 3.75318 3.16785 3.64852C3.06363 3.54343 2.99899 3.39832 2.99899 3.2387C2.99899 3.07908 3.06363 2.93397 3.16785 2.82888C3.27162 2.72423 3.41541 2.65915 3.57415 2.65915C3.73289 2.65915 3.87712 2.72423 3.98089 2.82932C4.0851 2.93441 4.1493 3.07908 4.1493 3.23914ZM12.7159 2.19041C12.7159 2.19085 12.7159 2.19129 12.7159 2.19129C12.7159 2.40719 12.6289 2.60286 12.4882 2.74489C12.3479 2.88692 12.1531 2.97487 11.9381 2.97487C11.7231 2.97487 11.5283 2.88692 11.388 2.74533C11.2473 2.60287 11.1602 2.40675 11.1602 2.19041C11.1602 1.97406 11.2473 1.77795 11.388 1.63548C11.5283 1.49389 11.7226 1.40594 11.9381 1.40594C12.1535 1.40594 12.3479 1.49389 12.4882 1.63548C12.6289 1.77751 12.7159 1.97318 12.7159 2.18953V2.19041ZM5.33875 13.6056C5.33875 13.6056 5.33875 13.606 5.33875 13.6064C5.33875 13.8786 5.22926 14.1253 5.05161 14.3047C4.87484 14.4837 4.62948 14.5945 4.35861 14.5945C4.08774 14.5945 3.84238 14.4837 3.66561 14.3052C3.48796 14.1258 3.37847 13.8786 3.37847 13.606C3.37847 13.3334 3.48796 13.0867 3.66561 12.9068C3.84238 12.7279 4.0873 12.6175 4.35861 12.6175C4.62992 12.6175 4.87484 12.7283 5.05161 12.9073C5.22882 13.0867 5.33875 13.3334 5.33875 13.6056C5.33875 13.606 5.33875 13.606 5.33875 13.6064V13.6056Z" fill="#C6CAD0"/>
<path d="M4.1493 3.23914C4.1493 3.39876 4.08466 3.54343 3.98045 3.64852C3.87668 3.75318 3.73289 3.81825 3.57415 3.81825C3.41541 3.81825 3.27118 3.75318 3.16785 3.64852C3.06363 3.54343 2.99899 3.39832 2.99899 3.2387C2.99899 3.07908 3.06363 2.93397 3.16785 2.82888C3.27162 2.72423 3.41541 2.65915 3.57415 2.65915C3.73289 2.65915 3.87712 2.72423 3.98089 2.82932C4.0851 2.93441 4.1493 3.07908 4.1493 3.23914ZM4.1493 3.23914V3.23958M5.33875 13.6056C5.33875 13.6056 5.33875 13.606 5.33875 13.6064M5.33875 13.6056C5.33875 13.3334 5.22882 13.0867 5.05161 12.9073C4.87484 12.7283 4.62992 12.6175 4.35861 12.6175C4.0873 12.6175 3.84238 12.7279 3.66561 12.9068C3.48796 13.0867 3.37847 13.3334 3.37847 13.606C3.37847 13.8786 3.48796 14.1258 3.66561 14.3052C3.84238 14.4837 4.08774 14.5945 4.35861 14.5945C4.62948 14.5945 4.87484 14.4837 5.05161 14.3047C5.22926 14.1253 5.33875 13.8786 5.33875 13.6064M5.33875 13.6056C5.33875 13.606 5.33875 13.606 5.33875 13.6064M5.33875 13.6056V13.6064M8.18066 11.3784C8.09052 11.3828 7.98455 11.3854 7.87814 11.3854C6.11134 11.3854 4.51339 10.6629 3.36352 9.49681L3.36264 9.49593C3.72585 10.5249 4.374 11.3779 5.21255 11.9843L5.2275 11.9949C6.04714 12.5889 7.07301 12.9455 8.18198 12.9455C9.29096 12.9455 10.3164 12.5894 11.1505 11.9852L11.1356 11.9953C11.9886 11.3784 12.6368 10.5258 12.989 9.53287L13 9.49681C11.8484 10.6634 10.2491 11.3859 8.48143 11.3859C8.37546 11.3859 8.26993 11.3832 8.16527 11.3779L8.18066 11.3784ZM8.18022 4.07285C8.27081 4.06801 8.37678 4.06538 8.48363 4.06538C10.25 4.06538 11.8479 4.78784 12.9974 5.95354L12.9982 5.95442C12.635 4.92547 11.9869 4.07241 11.1488 3.46604L11.1338 3.45548C10.3142 2.86186 9.28832 2.50613 8.17935 2.50613C7.07037 2.50613 6.04494 2.86186 5.21035 3.46604L5.2253 3.45592C4.3718 4.07241 3.72365 4.92547 3.37144 5.91836L3.36044 5.95442C4.51339 4.78828 6.11354 4.06582 7.88253 4.06582C7.98719 4.06582 8.09184 4.06845 8.19517 4.07329L8.18022 4.07285ZM12.7159 2.19041C12.7159 2.19085 12.7159 2.19129 12.7159 2.19129C12.7159 2.40719 12.6289 2.60287 12.4882 2.74489C12.3479 2.88692 12.1531 2.97487 11.9381 2.97487C11.7231 2.97487 11.5283 2.88692 11.388 2.74533C11.2473 2.60287 11.1602 2.40675 11.1602 2.19041C11.1602 1.97406 11.2473 1.77795 11.388 1.63548C11.5283 1.49389 11.7226 1.40594 11.9381 1.40594C12.1535 1.40594 12.3479 1.49389 12.4882 1.63548C12.6289 1.77751 12.7159 1.97318 12.7159 2.18953V2.19041Z" stroke="#C6CAD0" stroke-width="0.25"/>
</svg>
