<?xml version="1.0" encoding="UTF-8"?>
<svg xmlns="http://www.w3.org/2000/svg" xmlns:xlink="http://www.w3.org/1999/xlink" width="14px" height="14px" viewBox="0 0 14 14" version="1.1">
<g id="surface1">
<path style=" stroke:none;fill-rule:nonzero;fill:rgb(0%,0%,0%);fill-opacity:1;" d="M 12.714844 2.347656 L 1.285156 2.347656 C 0.578125 2.347656 0 2.921875 0 3.632812 L 0 10.367188 C 0 11.078125 0.578125 11.652344 1.285156 11.652344 L 12.714844 11.652344 C 13.421875 11.652344 14 11.078125 14 10.367188 L 14 3.632812 C 14 2.921875 13.421875 2.347656 12.714844 2.347656 Z M 3.371094 4.578125 C 4.082031 4.578125 4.65625 5.152344 4.65625 5.863281 C 4.65625 6.574219 4.082031 7.148438 3.371094 7.148438 C 2.660156 7.148438 2.085938 6.574219 2.085938 5.863281 C 2.085938 5.152344 2.660156 4.578125 3.371094 4.578125 Z M 3.371094 9.539062 C 2.488281 9.539062 1.582031 9.234375 1.722656 8.386719 C 1.78125 8.042969 2.066406 7.5625 2.28125 7.347656 C 2.308594 7.320312 2.4375 7.3125 2.46875 7.332031 C 2.734375 7.492188 3.039062 7.589844 3.371094 7.589844 C 3.699219 7.589844 4.007812 7.492188 4.269531 7.332031 C 4.304688 7.3125 4.429688 7.320312 4.460938 7.347656 C 4.675781 7.5625 4.960938 8.042969 5.015625 8.386719 C 5.15625 9.234375 4.253906 9.539062 3.371094 9.539062 Z M 10.019531 9.117188 L 6.347656 9.117188 L 6.347656 8.378906 L 10.019531 8.378906 Z M 12.214844 7.300781 L 6.347656 7.300781 L 6.347656 6.5625 L 12.214844 6.5625 Z M 12.214844 5.488281 L 6.347656 5.488281 L 6.347656 4.75 L 12.214844 4.75 Z M 12.214844 5.488281 "/>
</g>
</svg>
