<svg width="16" height="16" viewBox="0 0 16 16" fill="none" xmlns="http://www.w3.org/2000/svg">
<path d="M8 9V11" stroke="#DCE0E5" stroke-width="1.2" stroke-linecap="round"/>
<path d="M8 10C8.55228 10 9 9.55228 9 9C9 8.44772 8.55228 8 8 8C7.44772 8 7 8.44772 7 9C7 9.55228 7.44772 10 8 10Z" fill="#DCE0E5"/>
<path d="M11 5.75H5C4.30964 5.75 3.75 6.30964 3.75 7V12C3.75 12.6904 4.30964 13.25 5 13.25H11C11.6904 13.25 12.25 12.6904 12.25 12V7C12.25 6.30964 11.6904 5.75 11 5.75Z" stroke="#DCE0E5" stroke-width="1.2" stroke-linejoin="round"/>
<path d="M7.99998 2.79321C6.367 2.79321 5.04321 4.117 5.04321 5.74998H10.9568C10.9568 4.117 9.63296 2.79321 7.99998 2.79321Z" stroke="#DCE0E5" stroke-width="1.2" stroke-linejoin="round"/>
</svg>
