<svg width="16" height="16" viewBox="0 0 16 16" fill="none" xmlns="http://www.w3.org/2000/svg">
<path d="M8.90544 2.06787C8.82784 2.05613 8.74976 2.04587 8.67122 2.03712C8.59887 2.02907 8.52614 2.0223 8.45303 2.01685C8.38054 2.01143 8.30769 2.00731 8.2345 2.0045C8.15671 2.00151 8.07853 2 8 2C4.68629 2 2 4.68629 2 8C2 11.3137 4.68629 14 8 14C11.3137 14 14 11.3137 14 8C14 7.93451 13.999 7.86927 13.9969 7.80429C13.9949 7.74143 13.9919 7.67882 13.9879 7.61647C13.9838 7.5512 13.9787 7.48621 13.9725 7.42152C13.9655 7.34857 13.9572 7.27601 13.9476 7.20385" stroke="black" stroke-width="1.5" stroke-linecap="round" stroke-dasharray="2 3"/>
<circle cx="12.5" cy="3.5" r="1.5" fill="black"/>
<path fill-rule="evenodd" clip-rule="evenodd" d="M8 12C10.2091 12 12 10.2091 12 8C12 5.79086 10.2091 4 8 4C5.79086 4 4 5.79086 4 8C4 10.2091 5.79086 12 8 12ZM9 8.5C9.82843 8.5 10.5 7.82843 10.5 7C10.5 6.17157 9.82843 5.5 9 5.5C8.17157 5.5 7.5 6.17157 7.5 7C7.5 7.82843 8.17157 8.5 9 8.5Z" fill="black"/>
</svg>
