<svg width="14" height="14" viewBox="0 0 14 14" fill="none" xmlns="http://www.w3.org/2000/svg">
<g clip-path="url(#clip0_34_7)">
<path fill-rule="evenodd" clip-rule="evenodd" d="M12.2625 7.00157C12.2625 4.09565 9.90677 1.73994 7.00085 1.73994C4.09494 1.73994 1.73923 4.09565 1.73923 7.00157C1.73923 9.90749 4.09494 12.2632 7.00085 12.2632C9.90677 12.2632 12.2625 9.90749 12.2625 7.00157ZM10.7213 4.82205C10.7213 3.97095 10.0313 3.281 9.18023 3.281C8.32913 3.281 7.63917 3.97095 7.63917 4.82205C7.63917 5.67315 8.32913 6.3631 9.18023 6.3631C10.0313 6.3631 10.7213 5.67315 10.7213 4.82205ZM11.9704 11.3383L12.2849 11.6123C12.4856 11.3819 12.6732 11.1354 12.8424 10.8799L12.4947 10.6496C12.3355 10.8899 12.1591 11.1216 11.9704 11.3383ZM3.09019 12.8218C2.83557 12.6512 2.59021 12.4623 2.36091 12.2602L2.63665 11.9473C2.85224 12.1372 3.08295 12.3149 3.3224 12.4754L3.09019 12.8218ZM13.2533 9.09685L13.6488 9.22944C13.5516 9.51944 13.4341 9.806 13.2995 10.0812L12.9248 9.89792C13.0514 9.63912 13.1619 9.3696 13.2533 9.09685ZM11.3601 11.9516L11.6357 12.2647C11.4062 12.4667 11.1607 12.6555 10.9061 12.8259L10.6741 12.4793C10.9135 12.3191 11.1443 12.1415 11.3601 11.9516ZM9.92464 12.9125L10.1093 13.2865C9.83502 13.4219 9.54901 13.5406 9.25919 13.6391L9.12488 13.2442C9.39754 13.1515 9.66662 13.0399 9.92464 12.9125ZM0.698663 10.0754C0.564769 9.80041 0.447705 9.51376 0.350717 9.22346L0.746321 9.09128C0.837577 9.36442 0.947715 9.63411 1.0737 9.89286L0.698663 10.0754ZM4.7358 13.6379C4.44725 13.539 4.16148 13.4197 3.88645 13.2833L4.07178 12.9096C4.33065 13.038 4.59955 13.1503 4.871 13.2433L4.7358 13.6379ZM7.50907 0.425028L7.54103 0.00914471C7.84635 0.0326099 8.15299 0.0767322 8.45243 0.140276L8.36583 0.548303C8.08435 0.488557 7.79609 0.447081 7.50907 0.425028ZM8.28868 13.469L8.37042 13.878C8.07006 13.9381 7.76308 13.9787 7.45798 13.999L7.4304 13.5828C7.71737 13.5638 8.00614 13.5255 8.28868 13.469ZM6.56475 13.5831L6.5374 13.9993C6.23179 13.9792 5.92469 13.9385 5.62462 13.8783L5.70667 13.4693C5.98876 13.5259 6.27745 13.5642 6.56475 13.5831ZM1.71207 11.6074C1.51131 11.3768 1.32385 11.1303 1.15489 10.8748L1.5028 10.6447C1.66168 10.885 1.83795 11.1167 2.0267 11.3336L1.71207 11.6074ZM1.54706 3.2931L1.20185 3.05901C1.3739 2.80528 1.56421 2.56096 1.76748 2.33281L2.07891 2.61029C1.8878 2.82479 1.70885 3.05452 1.54706 3.2931ZM13.5829 7.4008L13.9993 7.42603C13.9807 7.73163 13.9418 8.03889 13.8834 8.33925L13.474 8.25969C13.5289 7.97721 13.5655 7.68824 13.5829 7.4008ZM2.69596 2.00373L2.42386 1.68762C2.65562 1.48813 2.90314 1.30202 3.15957 1.13448L3.38773 1.48365C3.14661 1.64119 2.91386 1.81619 2.69596 2.00373ZM4.14194 1.05867L3.96141 0.682649C4.23716 0.550267 4.52444 0.434775 4.8153 0.339358L4.9453 0.735689C4.67165 0.825447 4.40135 0.934116 4.14194 1.05867ZM6.64336 0.415732C6.35624 0.431589 6.06708 0.466692 5.78392 0.520066L5.70665 0.110177C6.00769 0.0534275 6.3151 0.0161137 6.62038 -0.00073251L6.64336 0.415732ZM9.33849 0.390492C9.62584 0.492485 9.91028 0.614901 10.1839 0.754324L9.99453 1.12595C9.73698 0.994735 9.46932 0.879534 9.19896 0.783565L9.33849 0.390492ZM0.116692 8.3334C0.0582983 8.03277 0.0192821 7.72556 0.000734408 7.42027L0.417082 7.39499C0.434525 7.68212 0.471213 7.97108 0.526144 8.25385L0.116692 8.3334ZM13.8694 5.59362C13.9308 5.89342 13.9729 6.20022 13.9945 6.50553L13.5785 6.53503C13.5581 6.24787 13.5185 5.95929 13.4607 5.67733L13.8694 5.59362ZM0.421578 6.52929L0.00551996 6.49964C0.0272978 6.19421 0.0697176 5.88734 0.131602 5.58753L0.540095 5.67184C0.48192 5.95369 0.442046 6.24218 0.421578 6.52929ZM13.268 3.85795C13.4053 4.1315 13.5257 4.41681 13.6258 4.70597L13.2317 4.84251C13.1375 4.57059 13.0243 4.30226 12.8952 4.045L13.268 3.85795ZM0.770731 4.83746L0.376902 4.70007C0.477381 4.41205 0.598242 4.12695 0.736138 3.85268L1.10878 4.04006C0.979007 4.29819 0.86526 4.56647 0.770731 4.83746ZM10.7213 1.73979C10.7213 0.888612 11.4113 0.198592 12.2625 0.198592C13.1137 0.198592 13.8037 0.888612 13.8037 1.73979C13.8037 2.59098 13.1137 3.281 12.2625 3.281C11.4113 3.281 10.7213 2.59098 10.7213 1.73979Z" fill="black"/>
</g>
<defs>
<clipPath id="clip0_34_7">
<rect width="14" height="14" fill="white" transform="matrix(-1 0 0 1 14 0)"/>
</clipPath>
</defs>
</svg>
