<svg width="16" height="16" viewBox="0 0 16 16" fill="none" xmlns="http://www.w3.org/2000/svg">
<path fill-rule="evenodd" clip-rule="evenodd" d="M7.85563 1.25939C8.23925 1.24605 8.62786 1.26732 9.01768 1.32632C9.42723 1.38831 9.70898 1.77057 9.64699 2.18012C9.585 2.58967 9.20274 2.87142 8.79319 2.80943C8.4967 2.76455 8.20072 2.7483 7.90773 2.75848C7.49377 2.77287 7.14652 2.44895 7.13213 2.03499C7.11774 1.62102 7.44166 1.27377 7.85563 1.25939ZM5.60906 2.51146C5.82536 2.86471 5.71435 3.32642 5.3611 3.54273C4.84568 3.85833 4.38064 4.25745 3.99073 4.71897C3.72342 5.03539 3.25022 5.07519 2.93381 4.80788C2.61739 4.54057 2.57759 4.06737 2.8449 3.75095C3.33834 3.16688 3.92581 2.66273 4.57779 2.2635C4.93104 2.04719 5.39275 2.15821 5.60906 2.51146ZM2.23313 6.24179C2.64026 6.31807 2.90847 6.70994 2.83219 7.11707C2.77825 7.40497 2.75 7.69997 2.75 8C2.75 8.28029 2.7719 8.55495 2.81394 8.82249C2.87825 9.23168 2.59866 9.61552 2.18947 9.67983C1.78028 9.74413 1.39643 9.46455 1.33213 9.05536C1.27802 8.71107 1.25 8.35855 1.25 8C1.25 7.60553 1.28717 7.21807 1.35784 6.84086C1.43412 6.43373 1.826 6.16551 2.23313 6.24179ZM13.8428 6.42448C14.2535 6.37004 14.6305 6.65878 14.6849 7.0694C14.7362 7.45608 14.7529 7.8404 14.7374 8.21909C14.7205 8.63296 14.3713 8.95478 13.9575 8.93789C13.5436 8.92101 13.2218 8.57181 13.2386 8.15794C13.2506 7.86463 13.2377 7.56674 13.1979 7.26654C13.1435 6.85592 13.4322 6.47892 13.8428 6.42448ZM13.4914 10.4511C13.8449 10.667 13.9564 11.1286 13.7405 11.4821C13.3418 12.135 12.8364 12.72 12.2469 13.2086C11.928 13.4729 11.4552 13.4286 11.1909 13.1097C10.9265 12.7907 10.9708 12.3179 11.2898 12.0536C11.751 11.6714 12.1475 11.2127 12.4604 10.7003C12.6763 10.3468 13.1379 10.2352 13.4914 10.4511ZM2.70419 10.9205C3.0391 10.6768 3.50819 10.7507 3.75193 11.0856C4.07618 11.5311 4.46887 11.9238 4.91442 12.2481C5.24933 12.4918 5.32323 12.9609 5.07949 13.2958C4.83576 13.6307 4.36667 13.7046 4.03176 13.4609C3.4596 13.0445 2.95552 12.5404 2.53911 11.9682C2.29537 11.6333 2.36928 11.1642 2.70419 10.9205ZM9.75637 13.7813C9.8282 14.1893 9.55574 14.5782 9.14781 14.6501C8.77491 14.7157 8.39143 14.75 8 14.75C7.64145 14.75 7.28894 14.722 6.94465 14.6679C6.53545 14.6036 6.25587 14.2197 6.32018 13.8105C6.38448 13.4013 6.76833 13.1218 7.17752 13.1861C7.44505 13.2281 7.71971 13.25 8 13.25C8.30366 13.25 8.60011 13.2234 8.88766 13.1728C9.29559 13.101 9.68453 13.3734 9.75637 13.7813Z" fill="black"/>
<circle cx="12.5" cy="3.5" r="1.5" fill="black"/>
<path fill-rule="evenodd" clip-rule="evenodd" d="M8 12C10.2091 12 12 10.2091 12 8C12 5.79086 10.2091 4 8 4C5.79086 4 4 5.79086 4 8C4 10.2091 5.79086 12 8 12ZM9 8.5C9.82843 8.5 10.5 7.82843 10.5 7C10.5 6.17157 9.82843 5.5 9 5.5C8.17157 5.5 7.5 6.17157 7.5 7C7.5 7.82843 8.17157 8.5 9 8.5Z" fill="black"/>
</svg>
