<svg width="16" height="16" viewBox="0 0 16 16" fill="none" xmlns="http://www.w3.org/2000/svg">
<g clip-path="url(#clip0_2779_25)">
<path fill-rule="evenodd" clip-rule="evenodd" d="M5.19504 1.72719L13.5664 3.97029C14.0999 4.11323 14.4164 4.66157 14.2735 5.19504L12.0304 13.5664C11.8875 14.0999 11.3391 14.4164 10.8057 14.2735L2.4343 12.0304C1.90084 11.8875 1.58425 11.3391 1.72719 10.8057L3.97029 2.4343C4.11323 1.90084 4.66157 1.58425 5.19504 1.72719ZM10.3503 4.48878L12.2672 5.00241C12.6163 5.09595 12.8235 5.45478 12.73 5.80387L12.2163 7.72077C12.1228 8.06986 11.764 8.27703 11.4149 8.18349L9.49798 7.66986C9.14889 7.57632 8.94172 7.21749 9.03526 6.8684L9.54889 4.9515C9.64243 4.60241 10.0013 4.39524 10.3503 4.48878Z" fill="black"/>
</g>
<defs>
<clipPath id="clip0_2779_25">
<rect width="16" height="16" fill="white"/>
</clipPath>
</defs>
</svg>
