<svg width="16" height="16" viewBox="0 0 16 16" fill="none" xmlns="http://www.w3.org/2000/svg">
<g clip-path="url(#clip0_2779_25)">
<path fill-rule="evenodd" clip-rule="evenodd" d="M5.19504 1.72719L13.5664 3.97029C14.0999 4.11323 14.4164 4.66157 14.2735 5.19504L12.0304 13.5664C11.8875 14.0999 11.3391 14.4164 10.8057 14.2735L2.4343 12.0304C1.90084 11.8875 1.58425 11.3391 1.72719 10.8057L3.97029 2.4343C4.11323 1.90084 4.66157 1.58425 5.19504 1.72719ZM10.9518 4.65003L12.4165 5.04248C12.6832 5.11396 12.8415 5.38812 12.77 5.65486L12.3776 7.11952C12.3061 7.38625 12.0319 7.54454 11.7652 7.47307L10.3005 7.08062C10.0338 7.00914 9.87552 6.73498 9.94699 6.46824L10.3394 5.00358C10.4109 4.73685 10.6851 4.57856 10.9518 4.65003Z" fill="black"/>
</g>
<defs>
<clipPath id="clip0_2779_25">
<rect width="16" height="16" fill="white"/>
</clipPath>
</defs>
</svg>
