<svg width="16" height="16" viewBox="0 0 256 256" fill="none" xmlns="http://www.w3.org/2000/svg">
<path d="m 53.024166,122.05531 c -0.196625,-37.064134 0.07133,-67.239177 0.595466,-67.055654 0.52413,0.183523 14.538157,16.533677 31.142282,36.333677 16.604126,19.799997 30.575286,36.150687 31.047036,36.334867 0.47174,0.18417 0.68326,-11.72398 0.47004,-26.46256 -0.23643,-16.342723 0.10149,-26.616963 0.86616,-26.334866 1.68136,0.620276 102.79029,112.187636 102.82647,113.462556 0.0156,0.55 -5.31691,1 -11.85003,1 H 196.24317 L 179.65525,171.66667 C 170.53188,161.95 157.44186,147.85 150.56629,140.33333 c -6.87556,-7.51666 -12.81571,-13.66717 -13.20032,-13.66779 -0.38462,-6.2e-4 -0.52779,13.79938 -0.31816,30.66667 0.20964,16.86728 -0.0904,30.61315 -0.66666,30.54636 -0.5763,-0.0668 -14.54782,-17.06626 -31.04782,-37.77662 L 75.333333,112.44676 74.666667,150.55671 74,188.66667 l -10.309167,0.38898 -10.309167,0.38898Z" fill="black"/>
</svg>
