<svg width="16" height="16" viewBox="0 0 16 16" fill="none" xmlns="http://www.w3.org/2000/svg">
<path d="M8.35355 3.35355C8.15829 3.15829 7.84171 3.15829 7.64645 3.35355L6.58346 4.41654C6.52858 4.47142 6.46166 4.51278 6.38802 4.53733L5.29316 4.90228C5.11349 4.96217 4.91541 4.91541 4.78149 4.78149L4.57206 4.57206C4.30924 4.30924 3.86171 4.41488 3.74417 4.7675L3.53733 5.38802C3.51278 5.46166 3.47142 5.52858 3.41654 5.58346L3.3554 5.6446C3.15942 5.84058 2.84146 5.83979 2.64615 5.64314C2.58143 5.57797 2.51312 5.50926 2.44612 5.44197C2.21933 5.21421 1.99828 5.30815 2.03473 5.62749C2.19672 7.04644 2.88949 7.82891 3.35136 7.97489C3.44548 8.00464 3.54274 7.96999 3.62829 7.92073C4.44835 7.4485 6.22418 7 8 7C9.77582 7 11.5516 7.4485 12.3717 7.92073C12.4573 7.96999 12.5545 8.00464 12.6486 7.97489C13.1034 7.83117 13.7819 7.07055 13.9574 5.69302C14.0005 5.35422 13.7444 5.24332 13.5043 5.48625C13.4537 5.53749 13.403 5.58893 13.3543 5.6384C13.1589 5.837 12.839 5.83898 12.642 5.64198L12.5835 5.58346C12.5286 5.52858 12.4872 5.46166 12.4627 5.38802L12.2558 4.7675C12.1383 4.41488 11.6908 4.30924 11.4279 4.57206L11.2185 4.78149C11.0846 4.91541 10.8865 4.96217 10.7068 4.90228L9.61198 4.53733C9.53834 4.51278 9.47142 4.47142 9.41654 4.41654L8.35355 3.35355Z" fill="black"/>
<path d="M8.3 8.725L9.86667 9.9C9.95321 9.96491 10.0585 10.0012 10.1666 9.99594C11.0914 9.9511 12.0092 9.53986 12.8026 8.99691C13.2041 8.72221 13.7852 9.05371 13.6254 9.51314C12.8809 11.6536 11.282 13 8 13C4.71804 13 3.11909 11.6536 2.37461 9.51314C2.21482 9.05371 2.79593 8.72221 3.19735 8.99691C3.99075 9.53986 4.90856 9.9511 5.8334 9.99594C5.94146 10.0012 6.04679 9.96491 6.13333 9.9L7.7 8.725C7.87778 8.59167 8.12222 8.59167 8.3 8.725Z" fill="black"/>
</svg>
