<?xml version="1.0" encoding="UTF-8"?>
<svg xmlns="http://www.w3.org/2000/svg" xmlns:xlink="http://www.w3.org/1999/xlink" width="14px" height="14px" viewBox="0 0 14 14" version="1.1">
<g id="surface1">
<path style=" stroke:none;fill-rule:nonzero;fill:rgb(0%,0%,0%);fill-opacity:1;" d="M 7.054688 1.691406 C 7.054688 1.691406 6.519531 2.148438 5.972656 2.59375 C 5.410156 2.578125 4.304688 2.710938 3.710938 2.945312 C 3.15625 2.570312 2.671875 2.15625 2.671875 2.15625 C 2.671875 2.15625 2.257812 2.917969 2 3.367188 C 1.613281 3.585938 1.226562 3.832031 0.882812 4.160156 C 0.480469 3.988281 0.015625 3.78125 0 3.777344 C 0.53125 4.921875 0.886719 6.070312 1.863281 6.761719 C 3.410156 4.144531 10.601562 4.386719 12.183594 6.746094 C 13.203125 6.175781 13.597656 4.953125 14 3.820312 C 13.957031 3.835938 13.410156 4.03125 13.058594 4.175781 C 12.84375 3.929688 12.347656 3.550781 12.0625 3.367188 C 11.847656 2.949219 11.628906 2.539062 11.402344 2.128906 C 11.402344 2.128906 10.941406 2.496094 10.402344 2.902344 C 9.675781 2.757812 8.800781 2.585938 8.0625 2.628906 C 7.71875 2.320312 7.382812 2.011719 7.054688 1.691406 Z M 0.550781 6.210938 L 1.828125 9.519531 C 4.046875 12.652344 9.707031 12.867188 12.175781 9.582031 C 12.757812 8.171875 13.546875 6.191406 13.546875 6.191406 C 12.914062 7.199219 11.882812 7.890625 11.246094 8.261719 C 10.796875 8.527344 9.757812 8.6875 9.757812 8.6875 L 7.023438 7.171875 L 4.277344 8.65625 C 4.277344 8.65625 3.25 8.480469 2.785156 8.25 C 1.847656 7.714844 1.214844 7.078125 0.550781 6.210938 Z M 0.550781 6.210938 "/>
</g>
</svg>
