<svg width="14" height="14" viewBox="0 0 14 14" fill="none" xmlns="http://www.w3.org/2000/svg">
<path d="M6.73843 11.709C6.70584 11.6334 6.60683 11.4367 6.55712 11.3736C6.44917 11.2362 6.42396 11.2258 6.39221 11.0523C6.33703 10.7501 6.19094 10.202 6.01879 9.82381C5.92987 9.62863 5.78201 9.46467 5.64665 9.32312C5.52847 9.19895 5.26214 8.99002 5.2157 9.00037C4.7807 9.09487 4.64576 9.55902 4.44115 9.92673C4.32795 10.1301 4.208 10.3031 4.1188 10.5195C4.03641 10.7184 4.04373 10.9387 3.90268 11.1095C3.75801 11.2849 3.66398 11.4715 3.59311 11.6981C3.57968 11.7412 3.54148 12.1939 3.5 12.3006L4.14649 12.2511C4.74896 12.2958 4.57496 12.547 5.51526 12.4922L7 12.4423C6.95398 12.2942 6.89056 12.1228 6.86613 12.067C6.82472 11.9732 6.77267 11.7897 6.73843 11.709Z" fill="black"/>
<path d="M8.72454 8.42043C8.61775 8.50889 8.40904 8.72165 7.95506 8.8021C7.75133 8.83825 7.56076 8.84122 7.35158 8.82925C7.24918 8.8236 7.15263 8.81758 7.04997 8.81605C6.9895 8.81552 6.78663 8.80812 6.79667 8.83039L6.77408 8.89506C6.7776 8.91633 6.78497 8.96949 6.78703 8.98237C6.79534 9.03461 6.79766 9.07617 6.79939 9.12421C6.80252 9.22297 6.79228 9.32592 6.79667 9.42559C6.80577 9.63232 6.87262 9.82076 6.88106 10.0293C6.89029 10.2615 6.99037 10.5072 7.08718 10.6969C7.12393 10.7691 7.17988 10.7773 7.20426 10.8663C7.23284 10.9681 7.20579 11.0762 7.21968 11.1848C7.27417 11.6058 7.37982 12.0459 7.54501 12.4259C7.54621 12.4291 7.54747 12.4325 7.54893 12.4354C7.75293 12.3961 7.95732 12.3119 8.22239 12.2669C8.70839 12.1841 9.3843 12.2268 9.81848 12.1801C10.9171 12.0616 11.5133 12.6972 12.5 12.4367V3.09052C12.5 2.21217 11.8798 1.5 11.1142 1.5H2.88578C2.1205 1.5 1.5 2.21217 1.5 3.09052V6.5608C1.69828 6.47851 1.98348 5.99435 2.07285 5.87661C2.2292 5.67071 2.25758 5.40808 2.33546 5.24267C2.51281 4.86596 2.54331 4.60691 2.94645 4.60691C3.13436 4.60691 3.20899 4.65663 3.3361 4.85238C3.42454 4.98851 3.57731 5.24 3.64881 5.40815C3.73134 5.60215 3.86583 5.86464 3.92497 5.91763C3.96876 5.95698 4.01221 5.9865 4.05275 6.00396C4.11813 6.0321 4.17222 5.98047 4.21595 5.94051C4.27176 5.8895 4.29582 5.78556 4.34751 5.64692C4.422 5.44689 4.5032 5.20721 4.54938 5.12356C4.62932 4.97897 4.65656 4.80739 4.74288 4.72427C4.8702 4.60172 5.03632 4.59311 5.08203 4.58274C5.33779 4.52478 5.45408 4.72419 5.58006 4.85315C5.66253 4.93764 5.77522 5.10785 5.85523 5.33594C5.91776 5.51408 5.99736 5.67887 6.03065 5.78174C6.06281 5.88103 6.14222 6.04018 6.18926 6.23098C6.23199 6.40424 6.34635 6.537 6.3898 6.61936C6.3898 6.61936 6.45632 6.83319 6.86079 7.02864C6.9485 7.07104 7.12579 7.13998 7.23157 7.18413C7.40733 7.25741 7.57757 7.24788 7.79432 7.21807C7.94888 7.21807 8.03261 6.96123 8.10284 6.75556C8.14437 6.634 8.18418 6.28566 8.21129 6.18675C8.23754 6.09051 8.17614 6.01608 8.22843 5.93174C8.28956 5.83329 8.32591 5.82796 8.3612 5.69961C8.43701 5.42478 8.87524 5.4109 9.12156 5.4109C9.32689 5.4109 9.30078 5.63967 9.6491 5.56143C9.84858 5.51652 10.0408 5.59094 10.2526 5.65531C10.4309 5.7096 10.5986 5.77145 10.699 5.90642C10.764 5.99382 10.9254 6.43169 10.761 6.45037C10.7768 6.47257 10.7884 6.5126 10.8179 6.53456C10.7813 6.69974 10.622 6.58207 10.5335 6.56087C10.4142 6.5325 10.33 6.56514 10.2133 6.6244C10.0138 6.72635 9.72206 6.71446 9.5483 6.88055C9.40085 7.02132 9.40111 7.33558 9.33234 7.51166C9.33234 7.51166 9.14137 8.07551 8.72454 8.42043Z" fill="black"/>
<path d="M3.6514 8.80413C3.57333 8.79137 3.50083 8.77702 3.425 8.75238C3.28339 8.70644 3.12867 8.66165 2.9892 8.60788C2.90451 8.57488 2.62239 8.41409 2.5611 8.36877C2.41737 8.26211 2.32191 7.97231 2.20955 8.00214C2.13782 8.02098 2.06795 8.06058 2.02333 8.17701C1.98692 8.27196 1.97457 8.43521 1.94936 8.54469C1.92011 8.67177 1.86959 8.7904 1.82536 8.91149C1.74401 9.13362 1.59759 9.33453 1.5345 9.55093C1.52181 9.59546 1.51055 9.64527 1.5 9.6972V10.5274V11.9637V12.1713C1.57359 12.1915 1.65057 12.2164 1.73674 12.2535C2.37264 12.5265 2.52781 12.5497 3.15152 12.4348L3.21002 12.4223C3.25775 12.2625 3.2946 11.718 3.32555 11.5494C3.34966 11.4202 3.38279 11.3173 3.39537 11.1853C3.40723 11.06 3.39427 10.9406 3.3876 10.8267C3.37011 10.5414 3.51669 10.4395 3.58667 10.1945C3.64976 9.97283 3.68617 9.7206 3.73839 9.49399C3.78847 9.27653 3.86665 8.96922 4 8.85975C3.98382 8.82938 3.72144 8.81539 3.6514 8.80413Z" fill="black"/>
</svg>
