<?xml version="1.0" encoding="UTF-8" standalone="no"?>
<svg
   width="150"
   height="150"
   viewBox="0 0 150 150"
   version="1.1"
   xml:space="preserve"
   style="clip-rule:evenodd;fill-rule:evenodd;stroke-linejoin:round;stroke-miterlimit:2"
   id="svg21"
   sodipodi:docname="odin-file-dark.svg"
   inkscape:version="1.1.2 (0a00cf5339, 2022-02-04)"
   xmlns:inkscape="http://www.inkscape.org/namespaces/inkscape"
   xmlns:sodipodi="http://sodipodi.sourceforge.net/DTD/sodipodi-0.dtd"
   xmlns:xlink="http://www.w3.org/1999/xlink"
   xmlns="http://www.w3.org/2000/svg"
   xmlns:svg="http://www.w3.org/2000/svg"><defs
   id="defs25"><linearGradient
     inkscape:collect="always"
     id="linearGradient1266"><stop
       style="stop-color:#1061f7;stop-opacity:1;"
       offset="0"
       id="stop1262" /><stop
       style="stop-color:#1061f7;stop-opacity:0;"
       offset="1"
       id="stop1264" /></linearGradient><linearGradient
     inkscape:collect="always"
     xlink:href="#linearGradient1266"
     id="linearGradient1268"
     x1="235.02269"
     y1="1240.1374"
     x2="1117.7737"
     y2="1240.1374"
     gradientUnits="userSpaceOnUse" /></defs><sodipodi:namedview
   id="namedview23"
   pagecolor="#505050"
   bordercolor="#eeeeee"
   borderopacity="1"
   inkscape:pageshadow="0"
   inkscape:pageopacity="0"
   inkscape:pagecheckerboard="0"
   showgrid="false"
   width="143px"
   inkscape:zoom="3.104"
   inkscape:cx="66.204897"
   inkscape:cy="62.016753"
   inkscape:window-width="1765"
   inkscape:window-height="1099"
   inkscape:window-x="280"
   inkscape:window-y="737"
   inkscape:window-maximized="0"
   inkscape:current-layer="ODIN"
   lock-margins="false" />
    <g
   id="ODIN"
   transform="matrix(1.00784,0,0,1.00784,-476.143,-714.215)">
        <g
   transform="matrix(0.12086872,0,0,0.12086872,479.70691,633.1206)"
   id="g5"
   style="stroke:#35618f;stroke-width:18.1589;stroke-miterlimit:2;stroke-dasharray:none;stroke-opacity:1;paint-order:normal;fill:#35618f;fill-opacity:1;stroke-linejoin:bevel;stroke-linecap:square"
   inkscape:export-filename="/home/flplv/software/ols/editors/vscode/fileicons/x.png"
   inkscape:export-xdpi="96"
   inkscape:export-ydpi="96">
            <g
   id="O"
   style="stroke:#35618f;stroke-width:18.1589;stroke-miterlimit:2;stroke-dasharray:none;stroke-opacity:1;paint-order:normal;fill:#35618f;fill-opacity:1;stroke-linejoin:bevel;stroke-linecap:square">
                <path
   d="m 430.516,1595.76 c -16.576,-11.38 -29.677,-22.4 -29.677,-22.4 L 827.125,835.012 c 0,0 17.547,6.508 32.041,13.457 18.27,8.757 33.403,17.294 33.403,17.294 206.631,119.3 277.541,383.917 158.241,590.547 -119.303,206.64 -383.92,277.54 -590.554,158.24 0,0 -14.473,-8.32 -29.74,-18.79 z M 856.543,928.162 496.282,1552.15 c 172.195,99.42 392.709,40.33 492.126,-131.86 99.412,-172.2 40.332,-392.71 -131.865,-492.128 z M 321.659,1487.36 c -14.487,-20.98 -19.644,-31.04 -19.644,-31.04 -74.475,-129.36 -79.937,-293.86 0.003,-432.32 79.94,-138.46 225.128,-215.977 374.397,-216.161 0,0 20.153,-0.052 36.933,1.555 25.28,2.422 42.087,5.684 42.087,5.684 L 347.771,1521.17 c 0,0 -9.671,-10.01 -26.112,-33.81 z M 633.291,882.532 c -108.638,13.203 -209.994,75.512 -268.874,177.498 -58.88,101.98 -62.162,220.91 -19.278,321.6 z"
   style="fill:#35618f;stroke:#35618f;stroke-width:18.1589;stroke-miterlimit:2;stroke-dasharray:none;stroke-opacity:1;paint-order:normal;fill-opacity:1;stroke-linejoin:bevel;stroke-linecap:square"
   id="path2" />
            </g>
        </g>
        
        
        
    </g>
</svg>
