<svg width="16" height="16" viewBox="0 0 16 16" fill="none" xmlns="http://www.w3.org/2000/svg">
    <path d="M13 9C13 8.32138 12.9375 7.5 12.7188 6.75C12.0625 7.53125 10.875 8.1875 10 8.5C10.75 5.90625 9.5625 3.1875 8 3C8 4.96875 7.625 5.90625 6.5 7.5C5 5 3.5 6.5 3 7C3.5 7.5 4.21832 8.24064 4.34375 9.3125C4.6875 12.25 6.75 13 8.5 13C10.25 13 10.5 11 12.5 12" stroke="black" stroke-width="1.2" stroke-linecap="round" stroke-linejoin="round"/>
    <path d="M5.03125 9.15625C5.87694 9.15625 6.5625 8.47069 6.5625 7.625C6.5625 6.77931 5.87694 6.09375 5.03125 6.09375C4.18556 6.09375 3.5 6.77931 3.5 7.625C3.5 8.47069 4.18556 9.15625 5.03125 9.15625Z" fill="black"/>
</svg>
