<svg width="14" height="14" viewBox="0 0 14 14" fill="none" xmlns="http://www.w3.org/2000/svg">
<path d="M12 8C12 7.32138 11.9375 6.5 11.7188 5.75C11.0625 6.53125 9.875 7.1875 9 7.5C9.75 4.90625 8.5625 2.1875 7 2C7 3.96875 6.625 4.90625 5.5 6.5C4 4 2.5 5.5 2 6C2.5 6.5 3.21832 7.24064 3.34375 8.3125C3.6875 11.25 5.75 12 7.5 12C9.25 12 9.5 10 11.5 11" stroke="black" stroke-width="1.5" stroke-linecap="round" stroke-linejoin="round"/>
<path d="M4.03125 8.15625C4.87694 8.15625 5.5625 7.47069 5.5625 6.625C5.5625 5.77931 4.87694 5.09375 4.03125 5.09375C3.18556 5.09375 2.5 5.77931 2.5 6.625C2.5 7.47069 3.18556 8.15625 4.03125 8.15625Z" fill="black"/>
</svg>
