<?xml version="1.0" encoding="UTF-8"?>
<svg xmlns="http://www.w3.org/2000/svg" xmlns:xlink="http://www.w3.org/1999/xlink" width="14px" height="14px" viewBox="0 0 14 14" version="1.1">
<g id="surface1">
<path style=" stroke:none;fill-rule:nonzero;fill:rgb(0%,0%,0%);fill-opacity:1;" d="M 4.65625 9.566406 C 4.589844 9.136719 4.410156 8.789062 3.972656 8.621094 C 3.800781 8.554688 3.652344 8.433594 3.484375 8.359375 C 3.292969 8.273438 3.097656 8.191406 2.894531 8.136719 C 2.742188 8.097656 2.597656 8.167969 2.507812 8.300781 C 2.421875 8.425781 2.484375 8.546875 2.554688 8.652344 C 2.636719 8.769531 2.726562 8.882812 2.816406 8.996094 C 2.96875 9.179688 3.128906 9.359375 3.277344 9.546875 C 3.417969 9.726562 3.535156 9.925781 3.515625 10.164062 C 3.46875 10.6875 3.234375 11.117188 2.851562 11.46875 C 2.8125 11.507812 2.738281 11.535156 2.683594 11.53125 C 2.441406 11.503906 2.21875 11.410156 2.042969 11.242188 C 1.835938 11.046875 1.867188 10.820312 2.113281 10.675781 C 2.171875 10.644531 2.230469 10.613281 2.285156 10.570312 C 2.433594 10.457031 2.484375 10.265625 2.402344 10.101562 C 2.367188 10.019531 2.320312 9.933594 2.257812 9.875 C 1.945312 9.589844 1.636719 9.296875 1.304688 9.035156 C 0.492188 8.40625 0.0742188 7.574219 0.0117188 6.5625 C -0.0585938 5.445312 0.199219 4.398438 0.792969 3.441406 C 1.015625 3.078125 1.277344 2.730469 1.675781 2.550781 C 1.949219 2.429688 2.246094 2.359375 2.539062 2.285156 C 3.339844 2.074219 4.148438 1.914062 4.984375 2.054688 C 5.703125 2.175781 6.226562 2.546875 6.46875 3.253906 C 6.625 3.714844 6.664062 4.191406 6.617188 4.679688 C 6.519531 5.640625 5.808594 6.5 4.882812 6.753906 C 4.484375 6.863281 4.261719 6.804688 4.023438 6.46875 C 3.847656 6.230469 3.707031 5.96875 3.550781 5.714844 C 3.527344 5.675781 3.511719 5.632812 3.492188 5.59375 C 3.472656 5.550781 3.453125 5.511719 3.433594 5.472656 C 3.492188 5.890625 3.585938 6.292969 3.816406 6.648438 C 3.9375 6.84375 4.101562 6.988281 4.34375 7.007812 C 5.226562 7.085938 5.972656 6.796875 6.503906 6.085938 C 7.097656 5.289062 7.226562 4.375 7.054688 3.410156 C 7.019531 3.21875 6.964844 3.035156 6.925781 2.84375 C 6.898438 2.722656 6.945312 2.632812 7.066406 2.589844 C 7.121094 2.570312 7.179688 2.554688 7.234375 2.542969 C 7.960938 2.386719 8.691406 2.335938 9.429688 2.410156 C 10.265625 2.496094 11.054688 2.722656 11.765625 3.191406 C 12.871094 3.917969 13.558594 4.957031 13.933594 6.210938 C 13.988281 6.394531 13.996094 6.59375 14 6.785156 C 14.003906 6.914062 13.921875 6.945312 13.824219 6.867188 C 13.714844 6.777344 13.617188 6.679688 13.523438 6.574219 C 13.4375 6.476562 13.371094 6.367188 13.285156 6.261719 C 13.222656 6.183594 13.164062 6.195312 13.132812 6.296875 C 13.113281 6.355469 13.097656 6.414062 13.078125 6.476562 C 12.886719 7.167969 12.582031 7.796875 12.085938 8.328125 C 12.015625 8.402344 11.957031 8.511719 11.949219 8.613281 C 11.925781 8.882812 11.910156 9.164062 11.9375 9.433594 C 11.992188 10.015625 12.074219 10.597656 12.140625 11.179688 C 12.179688 11.507812 12.070312 11.703125 11.761719 11.816406 C 11.546875 11.894531 11.3125 11.953125 11.082031 11.972656 C 10.71875 11.996094 10.347656 11.976562 9.980469 11.976562 C 9.96875 11.566406 10.003906 11.164062 9.621094 10.945312 C 9.695312 10.640625 9.78125 10.351562 9.832031 10.058594 C 9.875 9.8125 9.839844 9.570312 9.667969 9.371094 C 9.503906 9.179688 9.304688 9.128906 9.117188 9.238281 C 8.558594 9.5625 7.976562 9.5625 7.386719 9.351562 C 7.113281 9.253906 6.925781 9.308594 6.773438 9.554688 C 6.613281 9.824219 6.546875 10.121094 6.5625 10.425781 C 6.585938 10.804688 6.652344 11.183594 6.703125 11.5625 C 6.730469 11.777344 6.707031 11.832031 6.496094 11.886719 C 6.027344 12.003906 5.550781 12.015625 5.074219 11.976562 C 5.046875 11.976562 5.023438 11.964844 5.007812 11.960938 C 4.980469 11.5625 5.023438 11.148438 4.550781 10.9375 C 4.761719 10.492188 4.730469 10.03125 4.660156 9.570312 Z M 1.824219 8.003906 C 1.894531 7.9375 1.949219 7.835938 1.96875 7.742188 C 2.019531 7.503906 1.84375 7.1875 1.636719 7.101562 C 1.527344 7.054688 1.433594 7.070312 1.355469 7.15625 C 1.167969 7.371094 0.984375 7.585938 0.796875 7.800781 C 0.765625 7.835938 0.738281 7.882812 0.71875 7.925781 C 0.644531 8.066406 0.6875 8.167969 0.84375 8.207031 C 0.941406 8.230469 1.039062 8.238281 1.136719 8.25 C 1.390625 8.226562 1.636719 8.183594 1.824219 8.003906 Z M 1.847656 5.640625 C 1.847656 5.472656 1.703125 5.332031 1.539062 5.332031 C 1.367188 5.332031 1.21875 5.484375 1.226562 5.652344 C 1.230469 5.824219 1.375 5.957031 1.542969 5.957031 C 1.714844 5.953125 1.847656 5.8125 1.847656 5.644531 Z M 1.847656 5.640625 "/>
</g>
</svg>
