<svg width="16" height="16" viewBox="0 0 16 16" fill="none" xmlns="http://www.w3.org/2000/svg">
<path d="M2.53208 6.63971H2.42954L2.40949 6.74026L1.55857 11.0068L1.52876 11.1562H1.68115H2.50827H2.61075L2.63085 11.0557L2.83687 10.0256H3.44845C3.70004 10.0256 3.94417 9.99678 4.18045 9.93871C4.43396 9.8764 4.66578 9.731 4.87656 9.51212C5.0489 9.33959 5.18416 9.14531 5.28168 8.92947C5.38161 8.71688 5.4468 8.49901 5.47636 8.27605C5.55068 7.7954 5.48117 7.39356 5.24237 7.09178C5.00056 6.78618 4.61855 6.64383 4.12786 6.63971V6.63971H4.12681H2.53208ZM3.02254 9.10917L3.32957 7.57402H3.32975H3.32998H3.33022H3.33046H3.33069H3.33093H3.33116H3.3314H3.33163H3.33187H3.3321H3.33234H3.33257H3.33281H3.33304H3.33328H3.33351H3.33375H3.33398H3.33422H3.33445H3.33469H3.33492H3.33516H3.33539H3.33563H3.33586H3.3361H3.33633H3.33656H3.3368H3.33703H3.33727H3.3375H3.33774H3.33797H3.3382H3.33844H3.33867H3.33891H3.33914H3.33937H3.33961H3.33984H3.34007H3.34031H3.34054H3.34078H3.34101H3.34124H3.34148H3.34171H3.34194H3.34218H3.34241H3.34264H3.34288H3.34311H3.34334H3.34357H3.34381H3.34404H3.34427H3.34451H3.34474H3.34497H3.3452H3.34544H3.34567H3.3459H3.34613H3.34637H3.3466H3.34683H3.34706H3.3473C3.39341 7.57402 3.44096 7.57195 3.48998 7.56801C3.7978 7.56449 4.04639 7.59375 4.23948 7.652L4.24008 7.65218C4.3012 7.67028 4.34462 7.7103 4.36998 7.79556C4.39766 7.88859 4.40099 8.03042 4.36663 8.23098C4.28049 8.72036 4.12127 8.94206 3.93986 9.00209C3.70277 9.07608 3.39973 9.11302 3.02726 9.10918V9.10917H3.02597H3.02581H3.02564H3.02548H3.02532H3.02516H3.02499H3.02483H3.02467H3.02451H3.02434H3.02418H3.02402H3.02386H3.02369H3.02353H3.02337H3.02321H3.02304H3.02288H3.02272H3.02256H3.02254Z" fill="black" stroke="black" stroke-width="0.25"/>
<path d="M7.31195 5.50427H7.20953L7.18939 5.60469L6.32959 9.89176L6.29959 10.0413H6.45215H7.27613H7.37865L7.39871 9.9408L7.86807 7.58825L8.42737 7.59329L8.42737 7.59329H8.4285C8.52689 7.59329 8.60062 7.60317 8.65336 7.61922C8.70593 7.63523 8.72999 7.6549 8.74104 7.66941C8.76971 7.70706 8.79236 7.79972 8.75375 7.99304C8.75375 7.99307 8.75374 7.9931 8.75373 7.99312L8.37164 9.89168L8.34151 10.0413H8.49418H9.3301H9.43245L9.45264 9.941L9.85269 7.9527L9.8527 7.95271L9.853 7.95109C9.93841 7.4956 9.88972 7.12761 9.62862 6.92248C9.39863 6.73882 9.06399 6.65296 8.64591 6.64473L8.64591 6.6447H8.64345H8.05617L8.2584 5.65428L8.28903 5.50427H8.13593H7.31195Z" fill="black" stroke="black" stroke-width="0.25"/>
<path d="M11.9617 9.10917L11.9367 9.23417H11.9652C12.346 9.2381 12.6634 9.20049 12.9173 9.12111M11.9617 9.10917H11.9618H11.9619H11.9621H11.9623H11.9624H11.9626H11.9627H11.9629H11.9631H11.9632H11.9634H11.9636H11.9637H11.9639H11.964H11.9642H11.9644H11.9645H11.9647H11.9649H11.965H11.9652H11.9665L11.9665 9.10918C12.3389 9.11302 12.642 9.07608 12.8791 9.00209M11.9617 9.10917L12.2688 7.57402H12.269H12.2692H12.2694H12.2697H12.2699H12.2701H12.2704H12.2706H12.2708H12.2711H12.2713H12.2715H12.2718H12.272H12.2723H12.2725H12.2727H12.273H12.2732H12.2734H12.2737H12.2739H12.2741H12.2744H12.2746H12.2748H12.2751H12.2753H12.2755H12.2758H12.276H12.2762H12.2765H12.2767H12.2769H12.2772H12.2774H12.2776H12.2779H12.2781H12.2783H12.2786H12.2788H12.279H12.2793H12.2795H12.2798H12.28H12.2802H12.2805H12.2807H12.2809H12.2812H12.2814H12.2816H12.2819H12.2821H12.2823H12.2826H12.2828H12.283H12.2832H12.2835H12.2837H12.2839H12.2842H12.2844H12.2846H12.2849H12.2851H12.2853H12.2856H12.2858H12.286H12.2863H12.2865C12.3326 7.57402 12.3802 7.57195 12.4292 7.56801M11.9617 9.10917L12.4234 7.44307M12.8791 9.00209C12.8788 9.00217 12.8785 9.00226 12.8783 9.00234L12.9173 9.12111M12.8791 9.00209C12.8794 9.00199 12.8797 9.0019 12.88 9.00181L12.9173 9.12111M12.8791 9.00209C13.0605 8.94206 13.2197 8.72036 13.3058 8.23098M12.9173 9.12111C13.1711 9.03781 13.3418 8.74825 13.429 8.25234M13.429 8.25234L13.3058 8.23122C13.3058 8.23114 13.3058 8.23106 13.3058 8.23098M13.429 8.25234C13.5004 7.8358 13.429 7.59576 13.2148 7.53233C13.0045 7.46889 12.7408 7.43914 12.4234 7.44307M13.429 8.25234L13.3059 8.23068C13.3059 8.23078 13.3059 8.23088 13.3058 8.23098M13.3058 8.23098C13.3402 8.03042 13.3369 7.88859 13.3092 7.79556C13.2838 7.7103 13.2404 7.67028 13.1793 7.65218L13.1787 7.652C12.9856 7.59375 12.737 7.56449 12.4292 7.56801M12.4292 7.56801C12.4307 7.56789 12.4322 7.56777 12.4336 7.56764L12.4234 7.44307M12.4292 7.56801C12.4278 7.56802 12.4263 7.56804 12.4249 7.56806L12.4234 7.44307M11.4713 6.63971H11.3688L11.3487 6.74026L10.4978 11.0068L10.468 11.1562H10.6204H11.4475H11.55L11.5701 11.0557L11.7761 10.0256H12.3877C12.6393 10.0256 12.8834 9.99678 13.1197 9.93871C13.3732 9.8764 13.605 9.731 13.8158 9.51211C13.9881 9.33959 14.1234 9.14531 14.2209 8.92947C14.3208 8.71688 14.386 8.49901 14.4156 8.27605C14.4899 7.7954 14.4204 7.39356 14.1816 7.09178C13.9398 6.78618 13.5578 6.64383 13.0671 6.63971V6.63971H13.066H11.4713Z" fill="black" stroke="black" stroke-width="0.25"/>
</svg>
