<svg width="16" height="16" viewBox="0 0 16 16" fill="none" xmlns="http://www.w3.org/2000/svg">
    <path fill-rule="evenodd" clip-rule="evenodd" d="M8.52288 4.65031L6.87373 12.4973L11.5859 11.1126L8.52288 4.65031ZM7.17587 2.05794L2.67789 9.29624L2.67714 9.29747C2.43644 9.68731 2.44101 10.1739 2.69103 10.5593L4.90806 13.9715L4.92824 13.9955C5.05926 14.1506 5.23087 14.3221 5.46676 14.42C5.72045 14.5253 5.98325 14.52 6.24604 14.4427L12.6314 12.5664L12.633 12.5659C12.9671 12.4665 13.2459 12.2451 13.393 11.9333C13.5417 11.618 13.5341 11.2557 13.3784 10.9245L9.22289 2.15696L9.21685 2.14573C8.76262 1.30143 7.63198 1.29847 7.17587 2.05794Z" fill="black"/>
</svg>
