<svg width="16" height="16" viewBox="0 0 16 16" fill="none" xmlns="http://www.w3.org/2000/svg">
<path d="M8.22511 3.63615L6.28962 12.8455C6.25484 13.0115 6.41347 13.1537 6.57899 13.105L11.9968 11.513C12.1507 11.4678 12.2278 11.2996 12.1602 11.1569L8.22511 3.63615ZM8.22511 3.63615C8.2613 3.46383 8.50091 3.43658 8.5765 3.59606L8.22511 3.63615ZM11.9264 11.2731L11.9264 11.2731L6.54309 12.855L8.43089 3.87254L11.9342 11.2639L11.9343 11.264L11.9348 11.2653L11.9348 11.2655C11.9348 11.2656 11.9348 11.2663 11.9343 11.2673C11.934 11.2679 11.9337 11.2685 11.9333 11.269C11.9329 11.2695 11.9325 11.2699 11.9321 11.2703C11.9313 11.271 11.9297 11.2721 11.9264 11.2731ZM13.1522 11.0309L13.1518 11.0302L9.00244 2.27557L9.00273 2.27543L8.99669 2.26419C8.6328 1.58783 7.74374 1.59557 7.38928 2.1882L2.89024 9.42821L2.88986 9.42882C2.69981 9.73664 2.70346 10.1191 2.90076 10.4232L2.90086 10.4234L5.10065 13.8091L5.10917 13.8222L5.11926 13.8342C5.24148 13.979 5.38185 14.1141 5.56258 14.1891C5.75221 14.2678 5.95461 14.2678 6.17555 14.2029L12.5609 12.3265L12.5617 12.3263C12.8351 12.245 13.0533 12.0674 13.1669 11.8266C13.2813 11.5841 13.2787 11.3001 13.1522 11.0309Z" fill="black" stroke="black" stroke-width="0.5"/>
</svg>
