<svg width="14" height="14" viewBox="0 0 14 14" fill="none" xmlns="http://www.w3.org/2000/svg">
<path d="M6.18452 1.9164C5.01625 1.9164 3.98489 2.77625 3.91991 3.9468H3.72024C2.81569 3.9468 2 4.63733 2 5.587V7.1098C2 8.05947 2.81569 8.75 3.72024 8.75H4.33631C4.67376 8.75 5.02976 8.48561 5.02976 8.06155C5.02976 7.46058 5.51694 6.9734 6.11791 6.9734H7.27976C8.18431 6.9734 9 6.28288 9 5.3332V4.0642C9 2.83419 7.93913 1.9164 6.73214 1.9164H6.18452Z" stroke="black" stroke-width="1.25"/>
<path d="M7.79613 12.0836C8.97889 12.0836 10.0103 11.2025 10.0702 10.0191H10.2738C11.1885 10.0191 12 9.31459 12 8.36187V6.8135C12 5.86077 11.1885 5.15625 10.2738 5.15625H9.65439C9.30991 5.15625 8.96057 5.42749 8.96057 5.84577C8.96057 6.46262 8.46051 6.96268 7.84365 6.96268H6.69494C5.78027 6.96268 4.96875 7.6672 4.96875 8.61993V9.91023C4.96875 11.148 6.02678 12.0836 7.24554 12.0836H7.79613Z" stroke="black" stroke-width="1.25"/>
<circle cx="6.03975" cy="3.9167" r="0.633501" fill="black"/>
<circle cx="7.92285" cy="10.0793" r="0.670898" fill="black"/>
</svg>
