<svg width="16" height="16" viewBox="0 0 16 16" fill="none" xmlns="http://www.w3.org/2000/svg">
<path d="M7.76448 13.12C7.53252 13.12 7.34448 12.932 7.34448 12.7V6.50499C7.34448 6.27303 7.53252 6.08499 7.76448 6.08499H10.4242C11.0137 6.08499 11.5168 6.18003 11.9336 6.3701C12.3528 6.55788 12.6717 6.82467 12.8903 7.17047C13.1113 7.51398 13.2219 7.91817 13.2219 8.38305C13.2219 8.85021 13.1101 9.25212 12.8865 9.58875C12.6628 9.9231 12.3389 10.1796 11.9145 10.3582C11.4927 10.5368 10.982 10.6261 10.3823 10.6261H8.74024C8.50828 10.6261 8.32023 10.4381 8.32023 10.2061V9.85074C8.32023 9.61878 8.50828 9.43074 8.74023 9.43074H10.1155C10.4306 9.43074 10.6923 9.39181 10.9006 9.31395C11.109 9.23609 11.264 9.11929 11.3656 8.96357C11.4698 8.80785 11.5219 8.61434 11.5219 8.38305C11.5219 8.14946 11.4698 7.95252 11.3656 7.79222C11.264 7.63191 11.1077 7.51054 10.8968 7.4281C10.6885 7.34337 10.4255 7.301 10.1078 7.301H9.41488C9.18292 7.301 8.99488 7.48904 8.99488 7.721V12.7C8.99488 12.932 8.80684 13.12 8.57488 13.12H7.76448ZM11.3235 9.91852C11.4703 9.91852 11.6065 9.99524 11.6826 10.1208L13.1137 12.4823C13.2833 12.7622 13.0818 13.12 12.7545 13.12H11.9174C11.7691 13.12 11.6318 13.0418 11.5562 12.9142L10.1561 10.5527C9.99007 10.2727 10.1919 9.91852 10.5173 9.91852H11.3235Z" fill="black"/>
<path d="M11 4.62028C10.1708 4.15433 9.15422 3.88 8.05581 3.88C5.26356 3.88 3 5.65274 3 7.83952C3 9.35792 4.09133 10.6767 5.69321 11.341" stroke="black" stroke-width="1.26" stroke-linecap="round"/>
</svg>
