<svg version="1.1" xmlns="http://www.w3.org/2000/svg" width="512px" height="512px"><path d="M338.2297058,83.7217636C338.2297058,8.1730595,0,8.1730595,0,83.7217636v56.3716354c3.9655626,38.4013977,97.903595,59.1551514,191.6632843,55.8063354v-35.9110718h146.5669098L338.2297058,83.7217636z M6.1656833,182.3721924c31.5652275,32.911972,108.4758835,44.0948181,185.4976044,41.3987427v84.8722534C106.5709915,313.1337891,2.1801188,291.855072,0,252.8367462v-56.3716431C0.2435188,191.4356079,2.7277162,186.8165588,6.1656833,182.3721924z M0,365.5800781v-56.3716431c0.2938741-4.9908142,2.3487236-9.6893311,6.1656833-14.0924072c30.0246162,35.2910767,120.1462402,44.3032227,185.4976044,41.3987427v84.8717651C119.1908264,424.7876892,5.3356476,410.1216125,0,365.5800781z M370.2798462,300.8019409h-67.3899231v-60.30336h67.3899231c0,0,22.4632263,10.0014801,22.4632263,30.6147614C392.7430725,291.7266846,370.2798462,300.8019409,370.2798462,300.8019409z M362.4986877,391.1716003C378.4657288,422.2446594,409.4751282,485,409.4751282,485H512l-71.0568237-119.4515076c-7.7175598-12.0516968-43.2135925-20.3019409-43.2135925-20.3019409s83.8175049-4.0603333,82.8024292-88.313446c-0.758606-62.9641418-63.1983643-80.1926575-94.5352478-80.1926575H212.5462189V485h90.3437042V360.4729919h33.4981995C342.282959,360.4729919,352.0228577,373.5262451,362.4986877,391.1716003z M112.6162567,107.7038422C37.6237602,96.979744,37.6237335,70.023941,112.6162262,59.2998466s169.2420807,2.7538033,169.2420807,24.2019997S187.6087494,118.4279327,112.6162567,107.7038422z"/></svg>