<svg width="16" height="16" viewBox="0 0 16 16" fill="none" xmlns="http://www.w3.org/2000/svg">
<path d="M7.99752 9.14577C8.62961 9.14577 9.14201 8.63336 9.14201 8.00127C9.14201 7.36919 8.62961 6.85678 7.99752 6.85678C7.36543 6.85678 6.85303 7.36919 6.85303 8.00127C6.85303 8.63336 7.36543 9.14577 7.99752 9.14577Z" fill="black"/>
<path fill-rule="evenodd" clip-rule="evenodd" d="M5.37507 12.5467C5.35849 12.5371 5.26876 12.4764 5.21215 12.1996C5.15576 11.924 5.15423 11.5219 5.24075 11.0018C5.25336 10.926 5.2677 10.8485 5.28376 10.7695C5.61535 10.8289 5.96088 10.8775 6.31735 10.9146C6.52765 11.2048 6.74254 11.4797 6.9598 11.7371C6.8994 11.7906 6.83947 11.8417 6.7801 11.8906C6.37292 12.2255 6.02397 12.4252 5.75706 12.5142C5.48905 12.6036 5.39166 12.5562 5.37507 12.5467ZM4.63463 8.00002C4.48846 7.67278 4.35781 7.34921 4.24347 7.03232C4.16699 7.05793 4.09271 7.08426 4.0207 7.11126C3.52701 7.29639 3.17959 7.49875 2.96906 7.6854C2.75767 7.87282 2.75 7.98085 2.75 8C2.75 8.01916 2.75767 8.12719 2.96906 8.31461C3.17959 8.50126 3.52701 8.70361 4.0207 8.88875C4.09271 8.91575 4.167 8.94208 4.24348 8.96769C4.35782 8.65081 4.48846 8.32725 4.63463 8.00002ZM3.49402 5.70677C3.6016 5.66643 3.71247 5.6276 3.82645 5.59035C3.80173 5.47305 3.77992 5.35765 3.76108 5.24434C3.65732 4.62055 3.63633 4.01923 3.74257 3.49981C3.84858 2.98153 4.10358 2.45543 4.62507 2.15435C5.14656 1.85326 5.72968 1.89548 6.23152 2.06281C6.73448 2.23051 7.24474 2.54935 7.73308 2.95111C7.82179 3.02409 7.91084 3.10068 8.00007 3.18075C8.0893 3.10068 8.17835 3.02409 8.26706 2.9511C8.7554 2.54935 9.26566 2.23051 9.76862 2.06281C10.2705 1.89548 10.8536 1.85326 11.3751 2.15435C11.8966 2.45543 12.1516 2.98153 12.2576 3.49981C12.3638 4.01923 12.3428 4.62055 12.2391 5.24434C12.2202 5.35766 12.1984 5.47308 12.1737 5.59039C12.2876 5.62763 12.3984 5.66644 12.506 5.70677C13.0981 5.9288 13.6293 6.21129 14.026 6.56301C14.4219 6.91396 14.75 7.39783 14.75 8C14.75 8.60218 14.4219 9.08605 14.026 9.437C13.6293 9.78872 13.0981 10.0712 12.506 10.2932C12.3984 10.3336 12.2876 10.3724 12.1737 10.4096C12.1984 10.5269 12.2202 10.6424 12.2391 10.7557C12.3428 11.3795 12.3638 11.9808 12.2576 12.5002C12.1516 13.0185 11.8966 13.5446 11.3751 13.8457C10.8536 14.1468 10.2705 14.1046 9.76862 13.9372C9.26566 13.7695 8.7554 13.4507 8.26706 13.0489C8.17835 12.976 8.08931 12.8994 8.00007 12.8193C7.91084 12.8994 7.82179 12.976 7.73308 13.0489C7.24474 13.4507 6.73448 13.7695 6.23152 13.9372C5.72968 14.1046 5.14657 14.1468 4.62507 13.8457C4.10358 13.5446 3.84859 13.0185 3.74257 12.5002C3.63633 11.9808 3.65732 11.3795 3.76108 10.7557C3.77993 10.6424 3.80174 10.527 3.82646 10.4097C3.71248 10.3724 3.6016 10.3336 3.49402 10.2932C2.90192 10.0712 2.37066 9.78872 1.97395 9.437C1.57812 9.08605 1.25 8.60218 1.25 8C1.25 7.39783 1.57812 6.91396 1.97395 6.56301C2.37066 6.21129 2.90192 5.9288 3.49402 5.70677ZM9.22005 11.8906C9.16067 11.8417 9.10075 11.7906 9.04034 11.7371C9.25761 11.4797 9.4725 11.2048 9.68281 10.9145C10.0393 10.8775 10.3848 10.8289 10.7164 10.7695C10.7324 10.8485 10.7468 10.926 10.7594 11.0018C10.8459 11.5219 10.8444 11.924 10.788 12.1996C10.7314 12.4764 10.6417 12.5371 10.6251 12.5467C10.6085 12.5562 10.5111 12.6036 10.2431 12.5142C9.97617 12.4252 9.62722 12.2255 9.22005 11.8906ZM6.31737 5.08544C6.52766 4.79525 6.74254 4.52034 6.9598 4.26289C6.89939 4.20948 6.83947 4.15832 6.7801 4.10948C6.37292 3.77449 6.02397 3.57479 5.75706 3.4858C5.48905 3.39644 5.39165 3.44381 5.37507 3.45339C5.35849 3.46296 5.26876 3.52362 5.21214 3.80041C5.15576 4.07605 5.15423 4.4781 5.24075 4.99822C5.25336 5.07405 5.2677 5.15152 5.28375 5.23053C5.61535 5.1711 5.96089 5.12247 6.31737 5.08544ZM9.04034 4.26289C9.2576 4.52034 9.47249 4.79526 9.68278 5.08546C10.0393 5.12248 10.3848 5.17112 10.7164 5.23055C10.7324 5.15154 10.7468 5.07406 10.7594 4.99822C10.8459 4.4781 10.8444 4.07605 10.788 3.80041C10.7314 3.52362 10.6417 3.46296 10.6251 3.45339C10.6085 3.44381 10.5111 3.39644 10.2431 3.4858C9.97617 3.57479 9.62722 3.77449 9.22005 4.10947C9.16067 4.15832 9.10074 4.20948 9.04034 4.26289ZM11.3655 8.00002C11.5117 8.32723 11.6423 8.65078 11.7566 8.96765C11.8331 8.94205 11.9073 8.91574 11.9793 8.88875C12.473 8.70361 12.8204 8.50126 13.0309 8.31461C13.2423 8.12719 13.25 8.01916 13.25 8C13.25 7.98085 13.2423 7.87282 13.0309 7.6854C12.8204 7.49875 12.473 7.29639 11.9793 7.11126C11.9073 7.08427 11.8331 7.05796 11.7567 7.03237C11.6423 7.34924 11.5117 7.6728 11.3655 8.00002ZM7.99752 10.1458C9.18189 10.1458 10.142 9.18565 10.142 8.00127C10.142 6.8169 9.18189 5.85678 7.99752 5.85678C6.81315 5.85678 5.85303 6.8169 5.85303 8.00127C5.85303 9.18564 6.81315 10.1458 7.99752 10.1458Z" fill="black"/>
</svg>
