<svg width="16" height="16" viewBox="0 0 16 16" fill="none" xmlns="http://www.w3.org/2000/svg">
<path d="M4.85178 6.73014L4.85177 6.73013C4.83931 6.70408 4.81301 6.6875 4.78412 6.6875H4.30547C4.26405 6.6875 4.23047 6.72108 4.23047 6.7625V8.13672C4.23047 8.4819 3.95065 8.76172 3.60547 8.76172H3.5C3.15482 8.76172 2.875 8.4819 2.875 8.13672V3.5C2.875 3.15482 3.15482 2.875 3.5 2.875H5.04688C5.68252 2.875 6.20962 3.0513 6.57916 3.38697C6.95019 3.72398 7.14844 4.20904 7.14844 4.79688C7.14844 5.48515 6.82377 6.08279 6.28222 6.3929L4.85178 6.73014ZM4.85178 6.73014L5.65362 8.40642C5.75747 8.62353 5.97676 8.76172 6.21743 8.76172H6.34333C6.80794 8.76172 7.11013 8.27277 6.90234 7.85721L6.23288 6.51828C6.23287 6.51828 6.23287 6.51828 6.23287 6.51828L4.85178 6.73014ZM4.23047 4.10625C4.23047 4.06483 4.26405 4.03125 4.30547 4.03125H4.90234C5.19337 4.03125 5.40819 4.10933 5.54892 4.23672C5.68803 4.36264 5.76953 4.55002 5.76953 4.80078C5.76953 5.05738 5.68609 5.24873 5.54446 5.37712C5.40123 5.50696 5.18346 5.58594 4.89062 5.58594H4.30547C4.26405 5.58594 4.23047 5.55236 4.23047 5.51094V4.10625Z" fill="black" stroke="black" stroke-width="0.25"/>
<path d="M8.5 6.88672C10.433 6.88672 12 8.45372 12 10.3867V13M12 13L14 11M12 13L10 11" stroke="black" stroke-width="1.5" stroke-linecap="round" stroke-linejoin="round"/>
</svg>
