<svg width="16" height="16" viewBox="0 0 16 16" fill="none" xmlns="http://www.w3.org/2000/svg">
<path d="M7.99988 13C5.97267 13 4.22723 11.7936 3.44238 10.0595M7.99988 3C10.1122 3 11.9185 4.30981 12.6511 6.16152" stroke="black" stroke-width="1.2" stroke-linecap="round" stroke-linejoin="round"/>
<path d="M2.65625 3.29688C3.00143 3.29688 3.28125 3.01705 3.28125 2.67188C3.28125 2.3267 3.00143 2.04688 2.65625 2.04688C2.31107 2.04688 2.03125 2.3267 2.03125 2.67188C2.03125 3.01705 2.31107 3.29688 2.65625 3.29688Z" fill="black"/>
<path d="M4.71094 3.29688C5.05612 3.29688 5.33594 3.01705 5.33594 2.67188C5.33594 2.3267 5.05612 2.04688 4.71094 2.04688C4.36576 2.04688 4.08594 2.3267 4.08594 2.67188C4.08594 3.01705 4.36576 3.29688 4.71094 3.29688Z" fill="black"/>
<path d="M5.96094 4.99219C6.30612 4.99219 6.58594 4.71237 6.58594 4.36719C6.58594 4.02201 6.30612 3.74219 5.96094 3.74219C5.61576 3.74219 5.33594 4.02201 5.33594 4.36719C5.33594 4.71237 5.61576 4.99219 5.96094 4.99219Z" fill="black"/>
<path d="M4.71094 6.42188C5.05612 6.42188 5.33594 6.14205 5.33594 5.79688C5.33594 5.4517 5.05612 5.17188 4.71094 5.17188C4.36576 5.17188 4.08594 5.4517 4.08594 5.79688C4.08594 6.14205 4.36576 6.42188 4.71094 6.42188Z" fill="black"/>
<path d="M5.60156 8.29688C5.94674 8.29688 6.22656 8.01705 6.22656 7.67188C6.22656 7.3267 5.94674 7.04688 5.60156 7.04688C5.25638 7.04688 4.97656 7.3267 4.97656 7.67188C4.97656 8.01705 5.25638 8.29688 5.60156 8.29688Z" fill="black"/>
<path d="M2.65625 5.79687C3.00143 5.79687 3.28125 5.51705 3.28125 5.17187C3.28125 4.8267 3.00143 4.54688 2.65625 4.54688C2.31107 4.54688 2.03125 4.8267 2.03125 5.17187C2.03125 5.51705 2.31107 5.79687 2.65625 5.79687Z" fill="black"/>
<path d="M2.65625 8.29688C3.00143 8.29688 3.28125 8.01705 3.28125 7.67188C3.28125 7.3267 3.00143 7.04688 2.65625 7.04688C2.31107 7.04688 2.03125 7.3267 2.03125 7.67188C2.03125 8.01705 2.31107 8.29688 2.65625 8.29688Z" fill="black"/>
<path d="M11.7802 11.8195C11.838 11.8195 11.8906 11.8527 11.9155 11.9048L12.7174 13.5811C12.8088 13.7721 13.0017 13.8938 13.2135 13.8938H13.3394C13.7483 13.8938 14.0142 13.4635 13.8314 13.0978L13.1619 11.7589C13.1232 11.6816 13.1582 11.5823 13.241 11.5349C13.7565 11.2397 14.0695 10.6686 14.0695 10.0039C14.0695 9.43362 13.8777 8.97007 13.5248 8.64952C13.1725 8.32951 12.6652 8.15704 12.043 8.15704H10.496C10.1923 8.15704 9.94604 8.40328 9.94604 8.70704V13.3438C9.94604 13.6475 10.1923 13.8938 10.496 13.8938H10.6015C10.9053 13.8938 11.1516 13.6475 11.1516 13.3438V11.9695C11.1516 11.8867 11.2187 11.8195 11.3016 11.8195H11.7802ZM11.1516 9.31329C11.1516 9.23045 11.2187 9.16329 11.3016 9.16329H11.8984C12.2023 9.16329 12.4371 9.24491 12.5954 9.38815C12.7529 9.53081 12.8406 9.73994 12.8406 10.0078C12.8406 10.2816 12.751 10.4946 12.5909 10.6397C12.4302 10.7854 12.1925 10.868 11.8867 10.868H11.3016C11.2187 10.868 11.1516 10.8008 11.1516 10.718V9.31329Z" fill="black" stroke="black" stroke-width="0.25"/>
</svg>
