<svg width="14" height="14" viewBox="0 0 14 14" fill="none" xmlns="http://www.w3.org/2000/svg">
<path d="M3.96454 5.6762C3.93131 5.60672 3.86114 5.5625 3.78412 5.5625H3.30547C3.19501 5.5625 3.10547 5.65204 3.10547 5.7625V7.13672C3.10547 7.41286 2.88161 7.63672 2.60547 7.63672H2.5C2.22386 7.63672 2 7.41286 2 7.13672V2.5C2 2.22386 2.22386 2 2.5 2H4.04688C5.27344 2 6.02344 2.67969 6.02344 3.79688C6.02344 4.44581 5.71823 4.99918 5.2201 5.28443C5.11826 5.34275 5.06859 5.46921 5.12107 5.57418L5.79054 6.91311C5.95677 7.24556 5.71502 7.63672 5.34333 7.63672H5.21743C5.02489 7.63672 4.84946 7.52617 4.76638 7.35248L3.96454 5.6762ZM3.30547 2.90625C3.19501 2.90625 3.10547 2.99579 3.10547 3.10625V4.51094C3.10547 4.62139 3.19501 4.71094 3.30547 4.71094H3.89062C4.51953 4.71094 4.89453 4.37109 4.89453 3.80078C4.89453 3.24219 4.52734 2.90625 3.90234 2.90625H3.30547Z" fill="black" fill-opacity="0.5"/>
<path d="M3.78412 5.6125C3.84188 5.6125 3.89451 5.64567 3.91944 5.69777L4.72127 7.37405C4.81266 7.56511 5.00564 7.68672 5.21743 7.68672H5.34333C5.75219 7.68672 6.01811 7.25645 5.83526 6.89075L5.1658 5.55182C5.12715 5.47453 5.16207 5.37528 5.24495 5.32782C5.76044 5.03262 6.07344 4.46155 6.07344 3.79688C6.07344 3.22658 5.88164 2.76303 5.52873 2.44248C5.17642 2.12247 4.6691 1.95 4.04688 1.95H2.5C2.19624 1.95 1.95 2.19624 1.95 2.5V7.13672C1.95 7.44048 2.19624 7.68672 2.5 7.68672H2.60547C2.90923 7.68672 3.15547 7.44048 3.15547 7.13672V5.7625C3.15547 5.67966 3.22263 5.6125 3.30547 5.6125H3.78412ZM3.15547 3.10625C3.15547 3.02341 3.22263 2.95625 3.30547 2.95625H3.90234C4.20626 2.95625 4.44101 3.03787 4.59926 3.18111C4.75686 3.32376 4.84453 3.5329 4.84453 3.80078C4.84453 4.07452 4.75491 4.28758 4.59484 4.43268C4.43413 4.57837 4.19643 4.66094 3.89062 4.66094H3.30547C3.22263 4.66094 3.15547 4.59378 3.15547 4.51094V3.10625Z" stroke="black" stroke-opacity="0.5" stroke-width="0.1"/>
<path d="M7.5 5.88672C9.433 5.88672 11 7.45372 11 9.38672V12M11 12L13 10M11 12L9 10" stroke="black" stroke-width="1.25" stroke-linecap="round" stroke-linejoin="round"/>
</svg>
