<svg width="16" height="16" viewBox="0 0 16 16" fill="none" xmlns="http://www.w3.org/2000/svg">
    <path d="M8.5 6.88672C10.433 6.88672 12 8.45372 12 10.3867V13M12 13L14 11M12 13L10 11" stroke="black" stroke-width="1.2" stroke-linecap="round" stroke-linejoin="round"/>
    <path d="M4.94725 6.87672L4.94725 6.87672L5.74909 8.553C5.86125 8.78748 6.09809 8.93673 6.35802 8.93673H6.48391C6.98569 8.93673 7.31204 8.40867 7.08765 7.95986L6.97585 8.01576L7.08765 7.95986L6.41818 6.62094C6.41818 6.62093 6.41818 6.62093 6.41818 6.62093C6.41567 6.6159 6.414 6.60731 6.41826 6.59524C6.42256 6.58306 6.43223 6.57013 6.44764 6.56131L6.38553 6.45283L6.44764 6.56131C7.00658 6.24123 7.33902 5.62588 7.33902 4.92189C7.33902 4.32236 7.13648 3.82296 6.75336 3.47496L6.66932 3.56749L6.75336 3.47496C6.37232 3.12885 5.83204 2.95001 5.18746 2.95001H3.64058C3.26779 2.95001 2.96558 3.25222 2.96558 3.62501V8.26173C2.96558 8.63453 3.26779 8.93673 3.64058 8.93673H3.74605C4.11884 8.93673 4.42105 8.63453 4.42105 8.26173V6.88751C4.42105 6.87371 4.43224 6.86251 4.44605 6.86251H4.92471C4.93433 6.86251 4.9431 6.86804 4.94725 6.87672ZM5.65595 4.39879L5.65595 4.3988C5.78276 4.51357 5.86012 4.68648 5.86012 4.92579C5.86012 5.17095 5.78081 5.34783 5.65146 5.46508L5.65146 5.46508C5.51987 5.58438 5.31538 5.66095 5.03121 5.66095H4.44605C4.43224 5.66095 4.42105 5.64976 4.42105 5.63595V4.23126C4.42105 4.21746 4.43224 4.20626 4.44605 4.20626H5.04293C5.32535 4.20626 5.52689 4.28197 5.65595 4.39879Z" fill="black" stroke="black" stroke-width="0.25"/>
</svg>
