<svg width="14" height="14" viewBox="0 0 14 14" fill="none" xmlns="http://www.w3.org/2000/svg">
<path d="M4.10517 5.8012C4.07193 5.73172 4.00176 5.6875 3.92475 5.6875H3.44609C3.33564 5.6875 3.24609 5.77704 3.24609 5.8875V7.26172C3.24609 7.53786 3.02224 7.76172 2.74609 7.76172H2.64062C2.36448 7.76172 2.14062 7.53786 2.14062 7.26172V2.625C2.14062 2.34886 2.36448 2.125 2.64062 2.125H4.1875C5.41406 2.125 6.16406 2.80469 6.16406 3.92188C6.16406 4.57081 5.85885 5.12418 5.36073 5.40943C5.25888 5.46775 5.20921 5.59421 5.2617 5.69918L5.93117 7.03811C6.09739 7.37056 5.85564 7.76172 5.48395 7.76172H5.35806C5.16552 7.76172 4.99009 7.65117 4.907 7.47748L4.10517 5.8012ZM3.44609 3.03125C3.33564 3.03125 3.24609 3.12079 3.24609 3.23125V4.63594C3.24609 4.74639 3.33564 4.83594 3.44609 4.83594H4.03125C4.66016 4.83594 5.03516 4.49609 5.03516 3.92578C5.03516 3.36719 4.66797 3.03125 4.04297 3.03125H3.44609Z" fill="black" fill-opacity="0.5"/>
<path d="M3.92475 5.7375C3.98251 5.7375 4.03514 5.77067 4.06006 5.82277L4.8619 7.49905C4.95329 7.69011 5.14627 7.81172 5.35806 7.81172H5.48395C5.89281 7.81172 6.15873 7.38145 5.97589 7.01575L5.30642 5.67682C5.26778 5.59953 5.30269 5.50028 5.38557 5.45282C5.90107 5.15762 6.21406 4.58655 6.21406 3.92188C6.21406 3.35158 6.02226 2.88803 5.66936 2.56748C5.31705 2.24747 4.80973 2.075 4.1875 2.075H2.64062C2.33687 2.075 2.09062 2.32124 2.09062 2.625V7.26172C2.09062 7.56548 2.33687 7.81172 2.64062 7.81172H2.74609C3.04985 7.81172 3.29609 7.56548 3.29609 7.26172V5.8875C3.29609 5.80466 3.36325 5.7375 3.44609 5.7375H3.92475ZM3.29609 3.23125C3.29609 3.14841 3.36325 3.08125 3.44609 3.08125H4.04297C4.34688 3.08125 4.58164 3.16287 4.73988 3.30611C4.89748 3.44876 4.98516 3.6579 4.98516 3.92578C4.98516 4.19952 4.89553 4.41258 4.73546 4.55768C4.57475 4.70337 4.33706 4.78594 4.03125 4.78594H3.44609C3.36325 4.78594 3.29609 4.71878 3.29609 4.63594V3.23125Z" stroke="black" stroke-opacity="0.5" stroke-width="0.1"/>
<path d="M9.32812 6.65625V9.32812M9.32812 12V9.32812M12 9.32812H9.32812M6.65625 9.32812H9.32812M9.32812 9.32812L11.1094 7.54688M9.32812 9.32812L7.54688 11.1094M9.32812 9.32812L11.1094 11.1094M9.32812 9.32812L7.54688 7.54688" stroke="black" stroke-width="1.25" stroke-linecap="round"/>
</svg>
