<svg version="1.1" xmlns="http://www.w3.org/2000/svg" width="512px" height="512px"><path d="M220.9478149,311.3717346c-23.3077545-3.6538696-45.6543884-5.495697-65.90625-5.8072205c20.4134521,4.9222107,40.5994415,10.9995728,60.5596008,18.2228699c-7.8586731,19.0202332-13.9293365,37.5322571-18.0436859,54.9019775c-31.7519684,10.7259521-70.0746384,17.6116028-118.8477859,17.8994141c-19.8695984,22.2207947-32.3454781,45.3023376-47.2727509,72.7070312L0,483.6340332c8.1816692-14.0120239,29.9151745-53.7584229,61.8371887-97.8059082C140.6008148,263.199707,235.2292023,166.2825928,334.1991272,85.819191C226.1753387,152.2240143,135.0757599,251.9033508,54.6096268,375.0193787C88.4528809,176.1907654,278.2162781-0.8814166,446.5383911,26.1323719c-6.08078,23.4782772-10.8680115,43.0055466-18.1876831,66.5790482c-28.2769165-1.6224365-78.5726929,12.9795074-78.5726929,12.9795074c32.4489441-2.0860291,57.5671692-1.7716904,74.3477478,1.1423264c-2.1540527,6.5036469-4.4144897,13.0402374-6.7678528,19.5898438C354.2099609,129.6246185,280.0860901,187.0311737,220.9478149,311.3717346z M239.8477631,488.6047363c5.8605804-94.3406677,41.4374542-204.0913696,97.0956268-288.2590027c97.7801819-55.2075958,171.4333801,11.8587189,86.2895813,89.0460815c-33.5001526,28.561615-99.6313477,61.765564-150.4315491,65.9228516C334.102356,485.8554688,466.0549927,518.9547119,512,443.5632019c-65.9378357,18.0787354-146.5755615-11.2440796-202.6908264-73.51297c44.4002075-7.4361877,81.7195129-20.466217,116.9368286-40.792511c156.3597717-96.6446686,39.8149414-266.2718811-95.7857666-145.5831604C242.2834473,257.7891846,159.0540466,454.3112488,239.8477631,488.6047363"/></svg>