<svg width="16" height="16" viewBox="0 0 16 16" fill="none" xmlns="http://www.w3.org/2000/svg">
<path d="M4.80062 2.02702L1.20606 1.95067C0.981073 1.94589 0.864813 2.21756 1.0236 2.37702L5.5343 6.9068C5.70953 7.08277 6.00636 6.92326 5.95632 6.68002L5.04018 2.22659C5.01668 2.11231 4.91726 2.02949 4.80062 2.02702Z" fill="black" fill-opacity="0.5"/>
<path d="M7.17188 7.3578L11.4223 8.02844C11.656 8.06532 11.8054 7.78697 11.6455 7.61255L6.59003 2.09814C6.41901 1.91159 6.11086 2.06811 6.16063 2.31624L7.17188 7.3578Z" fill="black"/>
<path d="M8.38609 10.9541L11.5687 8.46118C11.7386 8.32805 11.6713 8.05659 11.4588 8.01833L7.14844 7.24219L7.98857 10.8145C8.03036 10.9922 8.24237 11.0667 8.38609 10.9541Z" fill="black" fill-opacity="0.5"/>
<path d="M4.38846 13.9632L6.87672 12.4532C6.96895 12.3972 7.01487 12.2884 6.99063 12.1832L6.04301 8.07484C5.98465 7.8218 5.62698 7.81448 5.55831 8.06491L4.01766 13.6834C3.95787 13.9014 4.19519 14.0805 4.38846 13.9632Z" fill="black"/>
<path d="M10.604 4.89351L12.4445 7.03149L14.8206 6.14302C14.9956 6.07761 15.0396 5.85043 14.9018 5.72438L13.0078 3.99219L10.7402 4.48614C10.5551 4.52645 10.4804 4.74995 10.604 4.89351Z" fill="black"/>
</svg>
