<svg version="1.1" xmlns="http://www.w3.org/2000/svg" width="512px" height="512px"><path fill-rule="evenodd" d="m127.7111 477.54684c-170.28143-98.16912-170.28147-344.92454-8e-5 -443.09368 170.28144-98.16916 384.28898 25.20851 384.28898 221.54685 0 196.3383-214.00747 319.716-384.2889 221.54683zm18.21244-374.55388c73.98244 3.81116 107.08181-10.530936 152.54865 5.75022 77.66452 27.81079 62.64005 124.22144-6.65569 141.53872-2.01488 1.5392-1.09571 2.90583 0 4.26207l69.48707 99.31701h32.65799v28.84817h-55.04029l-85.19797-125.67077h-38.9527v96.8226h37.21002v28.84817h-108.33564v-28.84817h37.79386v-217.96854c-9.60077-1.09018-21.78659-1.46757-35.5153-3.94265zm69.00869 33.3299c22.82813 0 45.94691-4.34825 66.02499 1.36124 22.94038 6.52341 33.8438 22.96788 33.83868 40.03891-7e-3 21.80135-9.54119 38.71329-35.32325 45.65318-28.22815 7.59832-64.54042 4.69838-64.54042 4.69838z"/></svg>