<svg width="14" height="14" viewBox="0 0 14 14" fill="none" xmlns="http://www.w3.org/2000/svg">
<path d="M4.27935 9.98207C4.32063 9.4038 3.9204 8.89049 3.35998 8.80276L2.60081 8.68387C2.37979 8.64945 2.20167 8.48001 2.15225 8.25614L2.01378 7.63511C1.96382 7.41235 2.05233 7.1807 2.23696 7.05125L2.8631 6.61242C3.33337 6.28297 3.47456 5.6369 3.18621 5.13364L2.79467 4.45092C2.68118 4.25261 2.69801 4.00374 2.83757 3.82321L3.22314 3.32436C3.3627 3.14438 3.59621 3.06994 3.81071 3.13772L4.57531 3.37769C5.11944 3.54879 5.70048 3.26159 5.90683 2.71886L6.1811 1.99782C6.26255 1.78395 6.46345 1.64285 6.68772 1.6423L7.31007 1.64063C7.53434 1.64007 7.73579 1.78006 7.81834 1.99337L8.09965 2.72275C8.30821 3.26214 8.88655 3.54712 9.42903 3.37714L10.1632 3.14716C10.3772 3.07994 10.6096 3.15382 10.7492 3.3327L11.1374 3.83099" stroke="black" stroke-opacity="0.6" stroke-width="1.25" stroke-linecap="round" stroke-linejoin="round"/>
<path fill-rule="evenodd" clip-rule="evenodd" d="M7.76988 10.5933C7.76988 10.6595 7.8236 10.7133 7.88988 10.7133H7.97588C8.32602 10.7133 8.60988 10.9971 8.60988 11.3472C8.60988 11.6974 8.32602 11.9812 7.97588 11.9812H6.05587C5.70573 11.9812 5.42188 11.6974 5.42188 11.3472C5.42188 10.9971 5.70573 10.7133 6.05587 10.7133H6.14188C6.20815 10.7133 6.26188 10.6595 6.26188 10.5933V6.66925C6.26188 6.60298 6.20815 6.54925 6.14188 6.54925H6.05588C5.70573 6.54925 5.42188 6.2654 5.42188 5.91525C5.42188 5.5651 5.70573 5.28125 6.05588 5.28125H8.89988C10.0518 5.28125 11.8619 5.71487 11.8619 7.15185C11.8619 7.67078 11.7284 8.10362 11.4642 8.45348C11.1981 8.79765 10.8458 9.05637 10.4056 9.22931C10.3782 9.24007 10.3673 9.27304 10.3829 9.29801L11.2163 10.6342C11.247 10.6834 11.3008 10.7133 11.3588 10.7133H11.7319C12.082 10.7133 12.3659 10.9971 12.3659 11.3472C12.3659 11.6974 12.082 11.9812 11.7319 11.9812H10.5637C10.4955 11.9812 10.432 11.9465 10.3952 11.889L8.96523 9.65406C8.92847 9.59661 8.86496 9.56185 8.79676 9.56185H7.96988C7.85942 9.56185 7.76988 9.65139 7.76988 9.76185V10.5933ZM8.61188 6.54925C9.02963 6.54925 10.125 6.54925 10.2339 7.18785C10.2975 7.56123 10.1181 7.86557 9.88118 8.07715C9.64227 8.29046 9.20527 8.38985 8.58788 8.38985H7.86988C7.81465 8.38985 7.76988 8.34508 7.76988 8.28985V6.64925C7.76988 6.59402 7.81465 6.54925 7.86988 6.54925H8.61188Z" fill="black"/>
</svg>
