<svg width="16" height="16" viewBox="0 0 16 16" fill="none" xmlns="http://www.w3.org/2000/svg">
<path d="M5.27935 10.9821C5.32063 10.4038 4.9204 9.89049 4.35998 9.80276L3.60081 9.68387C3.37979 9.64945 3.20167 9.48001 3.15225 9.25614L3.01378 8.63511C2.96382 8.41235 3.05233 8.1807 3.23696 8.05125L3.8631 7.61242C4.33337 7.28297 4.47456 6.6369 4.18621 6.13364L3.79467 5.45092C3.68118 5.25261 3.69801 5.00374 3.83757 4.82321L4.22314 4.32436C4.3627 4.14438 4.59621 4.06994 4.81071 4.13772L5.57531 4.37769C6.11944 4.54879 6.70048 4.26159 6.90683 3.71886L7.1811 2.99782C7.26255 2.78395 7.46345 2.64285 7.68772 2.6423L8.31007 2.64063C8.53434 2.64007 8.73579 2.78006 8.81834 2.99337L9.09965 3.72275C9.30821 4.26214 9.88655 4.54712 10.429 4.37714L11.1632 4.14716C11.3772 4.07994 11.6096 4.15382 11.7492 4.3327L12.1374 4.83099" stroke="black" stroke-width="1.2" stroke-linecap="round" stroke-linejoin="round"/>
<path fill-rule="evenodd" clip-rule="evenodd" d="M8.76988 11.5933C8.76988 11.6595 8.8236 11.7133 8.88988 11.7133H8.97588C9.32602 11.7133 9.60988 11.9971 9.60988 12.3472C9.60988 12.6974 9.32602 12.9812 8.97588 12.9812H7.05587C6.70573 12.9812 6.42188 12.6974 6.42188 12.3472C6.42188 11.9971 6.70573 11.7133 7.05587 11.7133H7.14188C7.20815 11.7133 7.26188 11.6595 7.26188 11.5933V7.66925C7.26188 7.60298 7.20815 7.54925 7.14188 7.54925H7.05588C6.70573 7.54925 6.42188 7.2654 6.42188 6.91525C6.42188 6.5651 6.70573 6.28125 7.05588 6.28125H9.89988C11.0518 6.28125 12.8619 6.71487 12.8619 8.15185C12.8619 8.67078 12.7284 9.10362 12.4642 9.45348C12.1981 9.79765 11.8458 10.0564 11.4056 10.2293C11.3782 10.2401 11.3673 10.273 11.3829 10.298L12.2163 11.6342C12.247 11.6834 12.3008 11.7133 12.3588 11.7133H12.7319C13.082 11.7133 13.3659 11.9971 13.3659 12.3472C13.3659 12.6974 13.082 12.9812 12.7319 12.9812H11.5637C11.4955 12.9812 11.432 12.9465 11.3952 12.889L9.96523 10.6541C9.92847 10.5966 9.86495 10.5618 9.79675 10.5618H8.96988C8.85942 10.5618 8.76988 10.6514 8.76988 10.7619V11.5933ZM9.61188 7.54925C10.0296 7.54925 11.125 7.54925 11.2339 8.18785C11.2975 8.56123 11.1181 8.86557 10.8812 9.07715C10.6423 9.29046 10.2053 9.38985 9.58788 9.38985H8.86988C8.81465 9.38985 8.76988 9.34508 8.76988 9.28985V7.64925C8.76988 7.59402 8.81465 7.54925 8.86988 7.54925H9.61188Z" fill="black"/>
</svg>
