<svg width="16" height="16" viewBox="0 0 16 16" fill="none" xmlns="http://www.w3.org/2000/svg">
<path fill-rule="evenodd" clip-rule="evenodd" d="M6.92096 7.00668C7.87408 7.83549 10.0987 7.48203 10.9376 7.06254C12.8751 6.09381 13.9407 4.39379 12.6407 2.90629C11.0157 1.04692 6.24221 2.49998 4.89844 3.40625C3.55467 4.31252 2.67972 5.53126 2.89071 7.1719C3.1017 8.81254 4.68758 9.7422 6.03128 10.3203C5.38786 10.5616 3.8517 11.0388 3.3125 11.7188C2.71341 12.4742 3.04343 14 4.51577 14C7.15639 14 7.59539 11.1486 7.14847 10.4375C7.88773 10.1295 8.49597 9.96169 9.40138 9.77081C9.63831 9.72087 9.65457 9.46395 9.41295 9.44827C8.80252 9.40864 7.30567 9.8489 6.92096 9.97657C5.78909 9.35157 4.51016 7.93818 4.59378 6.87501C4.68676 5.6928 5.27676 5.07603 6.84508 4.21876C8.01705 3.57813 10.258 3.10695 11.25 3.62501C12.6563 4.35936 10.7875 5.75599 9.92969 6.32031C9.28179 6.74656 8.21971 6.77513 7.22979 6.61435C6.99371 6.576 6.74048 6.84974 6.92096 7.00668ZM5.6719 12.4643C6.35508 11.9894 6.45471 11.1076 6.29955 10.8844C5.76663 11.0874 4.36593 11.9102 4.75111 12.4643C4.90628 12.6875 5.31358 12.7134 5.6719 12.4643Z" fill="black"/>
</svg>
