<?xml version="1.0" encoding="UTF-8"?>
<svg xmlns="http://www.w3.org/2000/svg" xmlns:xlink="http://www.w3.org/1999/xlink" width="14px" height="14px" viewBox="0 0 14 14" version="1.1">
<g id="surface1">
<path style=" stroke:none;fill-rule:nonzero;fill:rgb(0%,0%,0%);fill-opacity:1;" d="M 11.214844 0.015625 C 11.214844 1.125 5.859375 1.976562 2.785156 2.179688 L 2.785156 5.335938 C 4.082031 5.421875 5.789062 5.628906 7.324219 5.917969 C 5.789062 6.207031 4.082031 6.410156 2.785156 6.492188 L 2.785156 9.648438 C 4.082031 9.734375 5.785156 9.9375 7.320312 10.226562 C 5.785156 10.515625 4.082031 10.71875 2.785156 10.804688 L 2.785156 13.988281 L 4.308594 13.765625 C 7.152344 13.339844 10.285156 12.53125 11.214844 11.820312 L 11.214844 8.632812 C 11.214844 8.433594 10.851562 8.21875 10.265625 8 C 10.675781 7.832031 11.003906 7.667969 11.214844 7.507812 L 11.214844 4.324219 C 11.214844 4.125 10.855469 3.90625 10.277344 3.6875 C 10.683594 3.523438 11.003906 3.355469 11.214844 3.195312 Z M 10.269531 8.339844 C 10.6875 8.503906 10.839844 8.617188 10.890625 8.664062 C 10.855469 8.734375 10.726562 8.871094 10.359375 9.050781 C 10.300781 9.078125 10.238281 9.105469 10.183594 9.128906 C 9.550781 9.402344 8.570312 9.667969 7.320312 9.90625 C 6.707031 9.792969 6.046875 9.6875 5.382812 9.597656 C 7.25 9.261719 9.09375 8.796875 10.269531 8.339844 Z M 10.277344 4.027344 C 10.691406 4.195312 10.839844 4.308594 10.890625 4.355469 C 10.863281 4.40625 10.78125 4.5 10.578125 4.625 L 10.574219 4.625 C 10.535156 4.648438 10.488281 4.675781 10.441406 4.699219 C 9.839844 5.011719 8.765625 5.324219 7.335938 5.59375 C 6.71875 5.480469 6.058594 5.375 5.394531 5.285156 C 7.269531 4.953125 9.097656 4.492188 10.277344 4.027344 Z M 10.277344 4.027344 "/>
</g>
</svg>
