<svg width="16" height="16" viewBox="0 0 16 16" fill="none" xmlns="http://www.w3.org/2000/svg">
<path d="M12.5827 1.27457C10.4978 2.48798 6.32365 2.94703 3.49893 2.99561C3.22283 3.00036 3.00001 3.22384 3.00001 3.49998L3.00002 6.00003C3.00002 6.27617 3.22284 6.50038 3.49895 6.49563C6.42334 6.44533 10.7942 5.95506 12.7954 4.64327C12.927 4.557 13 4.40741 13 4.25004L13 1.50027C13 1.29426 12.7607 1.17094 12.5827 1.27457Z" fill="black"/>
<path d="M12.3072 6.51584C12.6851 6.6855 12.8539 7.12936 12.6842 7.50724C12.5145 7.88511 12.0707 8.05391 11.6928 7.88425L12.3072 6.51584ZM3 5.02142C4.32178 5.02142 6.01669 5.1159 7.68605 5.34579C9.34359 5.57406 11.0313 5.94302 12.3072 6.51584L11.6928 7.88425C10.611 7.39853 9.08921 7.05318 7.48142 6.83177C5.88546 6.61199 4.25922 6.52142 3 6.52142L3 5.02142Z" fill="black"/>
<path d="M3 10.0214C5.581 10.0214 9.64229 10.3915 12 11.45" stroke="black" stroke-width="1.2"/>
<path d="M12.1401 10.0067C9.94879 11.0472 6.13586 11.4503 3.49893 11.4956C3.22283 11.5004 3.00001 11.7238 3.00001 12L3.00002 14.5C3.00002 14.7762 3.22284 15.0004 3.49895 14.9956C6.42334 14.9453 10.7942 14.4551 12.7954 13.1433C12.927 13.057 13 12.9074 13 12.75L13 10.5002C13 10.0882 12.5123 9.82995 12.1401 10.0067Z" fill="black"/>
<path d="M12.1401 5.75668C9.94879 6.7972 6.13586 7.20026 3.49893 7.24561C3.22283 7.25036 3.00001 7.47384 3.00001 7.74998L3.00002 10.25C3.00002 10.5262 3.22284 10.7504 3.49895 10.7456C6.42334 10.6953 10.7942 10.2051 12.7954 8.89327C12.927 8.807 13 8.65741 13 8.50004L13 6.25023C13 5.83821 12.5123 5.57995 12.1401 5.75668Z" fill="black"/>
</svg>
