<svg width="14" height="14" viewBox="0 0 14 14" fill="none" xmlns="http://www.w3.org/2000/svg">
<path d="M2.60081 8.94324L3.35998 9.06214C3.9204 9.14986 4.32063 9.66317 4.27935 10.2414L4.22342 11.0252C4.20713 11.2536 4.32877 11.4686 4.53024 11.568L5.09174 11.8446C5.29321 11.9441 5.53379 11.9068 5.69834 11.7519L6.26255 11.2186C6.67855 10.8253 7.32041 10.8253 7.7369 11.2186L8.3011 11.7519C8.46565 11.9074 8.70572 11.9441 8.90772 11.8446L9.47027 11.5674C9.67124 11.4686 9.79234 11.2541 9.77607 11.0264L9.72007 10.2414C9.67883 9.66317 10.079 9.14986 10.6394 9.06214L11.3986 8.94324C11.6197 8.90883 11.7978 8.73938 11.8477 8.51607L11.9862 7.89504C12.0362 7.67172 11.9477 7.44007 11.763 7.31117L11.1293 6.86731C10.6617 6.53959 10.5189 5.89966 10.8013 5.3969L11.1841 4.71586C11.2954 4.51754 11.277 4.26923 11.1374 4.09036L10.7492 3.59207C10.6096 3.41319 10.3772 3.33932 10.1632 3.40653L9.42903 3.63651C8.88655 3.80649 8.30821 3.52152 8.09965 2.98213L7.81834 2.25275C7.73579 2.03944 7.53434 1.89945 7.31007 1.9L6.68772 1.90167C6.46345 1.90222 6.26255 2.04333 6.1811 2.25719L5.90683 2.97824C5.70048 3.52097 5.11944 3.80816 4.57531 3.63706L3.81071 3.39709C3.59621 3.32932 3.3627 3.40375 3.22314 3.58374L2.83757 4.08258C2.69801 4.26312 2.68118 4.51199 2.79467 4.7103L3.18621 5.39302C3.47456 5.89628 3.33337 6.54235 2.8631 6.87179L2.23696 7.31062C2.05233 7.44007 1.96382 7.67173 2.01378 7.89448L2.15225 8.51552C2.20167 8.73938 2.37979 8.90883 2.60081 8.94324Z" stroke="black" stroke-width="1.25" stroke-linecap="round" stroke-linejoin="round"/>
<path d="M8.14913 5.85093L8.14909 5.85089C7.51453 5.21637 6.48549 5.21637 5.85092 5.85089L5.85089 5.85092C5.21637 6.48549 5.21637 7.51453 5.85089 8.14909L5.85093 8.14913C6.48549 8.78362 7.51452 8.78362 8.14908 8.14913L8.14913 8.14908C8.78362 7.51452 8.78362 6.48549 8.14913 5.85093Z" fill="black" fill-opacity="0.3" stroke="black" stroke-width="1.25" stroke-linecap="round" stroke-linejoin="round"/>
</svg>
