<svg width="16" height="16" viewBox="0 0 16 16" fill="none" xmlns="http://www.w3.org/2000/svg">
<path d="M3.16089 10.2476L3.99598 10.3784C4.61244 10.4749 5.05269 11.0395 5.00728 11.6755L4.94576 12.5377C4.92784 12.789 5.06165 13.0255 5.28326 13.1348L5.90091 13.4391C6.12253 13.5485 6.38717 13.5075 6.56817 13.3371L7.1888 12.7505C7.64641 12.3178 8.35245 12.3178 8.81059 12.7505L9.43121 13.3371C9.61222 13.5081 9.87629 13.5485 10.0985 13.4391L10.7173 13.1341C10.9384 13.0255 11.0716 12.7895 11.0537 12.539L10.9921 11.6755C10.9467 11.0395 11.3869 10.4749 12.0033 10.3784L12.8385 10.2476C13.0817 10.2097 13.2776 10.0233 13.3325 9.77768L13.4848 9.09455C13.5398 8.8489 13.4425 8.59408 13.2393 8.45229L12.5422 7.96404C12.0279 7.60355 11.8708 6.89963 12.1814 6.34659L12.6025 5.59745C12.7249 5.3793 12.7047 5.10616 12.5511 4.9094L12.1241 4.36128C11.9706 4.16451 11.7149 4.08325 11.4795 4.15719L10.6719 4.41016C10.0752 4.59714 9.43903 4.28367 9.20962 3.69035L8.90017 2.88803C8.80937 2.65339 8.58777 2.4994 8.34108 2.5L7.65649 2.50184C7.40979 2.50244 7.1888 2.65766 7.09921 2.89291L6.79751 3.68607C6.57053 4.28307 5.93138 4.59898 5.33284 4.41077L4.49178 4.1468C4.25583 4.07225 3.99897 4.15413 3.84545 4.35212L3.42133 4.90084C3.26781 5.09943 3.2493 5.37319 3.37414 5.59133L3.80483 6.34232C4.12201 6.89591 3.96671 7.60659 3.44941 7.96897L2.76065 8.45169C2.55756 8.59408 2.4602 8.84891 2.51516 9.09393L2.66747 9.77708C2.72184 10.0233 2.91777 10.2097 3.16089 10.2476Z" stroke="black" stroke-width="1.2" stroke-linecap="round" stroke-linejoin="round"/>
<path d="M9.41432 6.83576C8.63332 6.05481 7.36676 6.05476 6.58575 6.83571C5.8048 7.61672 5.80476 8.88327 6.58571 9.66427C7.36671 10.4452 8.63326 10.4452 9.41426 9.66432C10.1952 8.88332 10.1952 7.61676 9.41432 6.83576Z" fill="black"/>
</svg>
