<svg width="16" height="16" viewBox="0 0 16 16" xmlns="http://www.w3.org/2000/svg" xmlns:xlink="http://www.w3.org/1999/xlink">
    <g transform="matrix(-0.695901,0,0,-0.62534,16.432,16.3349)">
        <path d="M12.018,9.212L9.225,14.8C9.142,14.965 8.986,15.067 8.817,15.067C8.648,15.067 8.492,14.965 8.409,14.8L5.753,9.487C5.744,9.471 5.736,9.455 5.728,9.438C5.698,9.37 5.682,9.293 5.682,9.212C5.682,9.131 5.698,9.055 5.728,8.987C5.736,8.97 5.744,8.954 5.753,8.938C5.753,8.938 8.685,3.072 8.688,3.067C8.728,2.991 8.785,2.927 8.853,2.882L12.018,9.212Z" style="fill-opacity:0.8;"/>
    </g>
    <g transform="matrix(-0.695901,0,0,-0.62534,16.432,16.3349)">
        <path d="M8.853,2.882C8.922,2.836 9.003,2.809 9.09,2.809L14.947,2.809C15.034,2.809 15.115,2.836 15.184,2.882L12.018,9.212L5.682,9.212C5.682,9.131 5.698,9.055 5.728,8.987C5.736,8.97 5.744,8.954 5.753,8.938C5.753,8.938 8.685,3.072 8.688,3.067C8.728,2.991 8.785,2.927 8.853,2.882Z" style="fill-opacity:0.45;"/>
    </g>
    <g transform="matrix(-0.695901,7.6582e-17,8.52233e-17,0.62534,14.204,8.81722)">
        <path d="M11.982,9.14C12.05,9.096 12.106,9.032 12.146,8.957C12.15,8.95 14.846,3.558 14.846,3.558C14.924,3.402 14.922,3.211 14.841,3.058C14.759,2.904 14.611,2.809 14.451,2.809L8.817,2.809L5.652,9.14C5.721,9.186 5.802,9.212 5.888,9.212L11.746,9.212C11.832,9.212 11.913,9.186 11.982,9.14Z" style="fill-opacity:0.6;"/>
    </g>
    <g transform="matrix(0.695901,8.52233e-17,-7.6582e-17,0.62534,-0.431975,-0.925195)">
        <path d="M12.018,9.212L9.225,14.8C9.142,14.965 8.986,15.067 8.817,15.067C8.648,15.067 8.492,14.965 8.409,14.8L5.753,9.487C5.744,9.471 5.736,9.455 5.728,9.438C5.698,9.37 5.682,9.293 5.682,9.212C5.682,9.131 5.698,9.055 5.728,8.987C5.736,8.97 5.744,8.954 5.753,8.938C5.753,8.938 8.685,3.072 8.688,3.067C8.728,2.991 8.785,2.927 8.853,2.882L12.018,9.212Z" style="fill-opacity:0.8;"/>
    </g>
    <g transform="matrix(0.695901,8.52233e-17,-7.6582e-17,0.62534,-0.431975,-0.925195)">
        <path d="M8.853,2.882C8.922,2.836 9.003,2.809 9.09,2.809L14.947,2.809C15.034,2.809 15.115,2.836 15.184,2.882L12.018,9.212L5.682,9.212C5.682,9.131 5.698,9.055 5.728,8.987C5.736,8.97 5.744,8.954 5.753,8.938C5.753,8.938 8.685,3.072 8.688,3.067C8.728,2.991 8.785,2.927 8.853,2.882Z" style="fill-opacity:0.45;"/>
    </g>
    <g transform="matrix(0.695901,8.64126e-18,-8.64126e-18,-0.62534,1.79595,6.59251)">
        <path d="M11.982,9.14C12.05,9.096 12.106,9.032 12.146,8.957C12.15,8.95 14.846,3.558 14.846,3.558C14.924,3.402 14.922,3.211 14.841,3.058C14.759,2.904 14.611,2.809 14.451,2.809L8.817,2.809L5.652,9.14C5.721,9.186 5.802,9.212 5.888,9.212L11.746,9.212C11.832,9.212 11.913,9.186 11.982,9.14Z" style="fill-opacity:0.6;"/>
    </g>
</svg>
