<?xml version="1.0" encoding="UTF-8"?>
<svg xmlns="http://www.w3.org/2000/svg" xmlns:xlink="http://www.w3.org/1999/xlink" width="14px" height="14px" viewBox="0 0 14 14" version="1.1">
<g id="surface1">
<path style=" stroke:none;fill-rule:nonzero;fill:rgb(0%,0%,0%);fill-opacity:1;" d="M 12.414062 5.007812 L 12.078125 5.007812 L 12.078125 3.386719 C 12.078125 3.375 12.078125 3.367188 12.074219 3.355469 C 12.074219 3.289062 12.054688 3.226562 12.011719 3.175781 L 9.3125 0.09375 C 9.308594 0.09375 9.308594 0.09375 9.308594 0.09375 C 9.292969 0.0742188 9.273438 0.0585938 9.253906 0.046875 C 9.25 0.0429688 9.242188 0.0390625 9.234375 0.0351562 C 9.21875 0.0273438 9.199219 0.0195312 9.183594 0.0117188 C 9.175781 0.0117188 9.171875 0.0078125 9.167969 0.0078125 C 9.148438 0.00390625 9.125 0 9.105469 0 L 2.46875 0 C 2.167969 0 1.921875 0.246094 1.921875 0.550781 L 1.921875 5.007812 L 1.585938 5.007812 C 1.152344 5.007812 0.800781 5.359375 0.800781 5.792969 L 0.800781 9.871094 C 0.800781 10.304688 1.152344 10.65625 1.585938 10.65625 L 1.921875 10.65625 L 1.921875 13.449219 C 1.921875 13.753906 2.167969 14 2.46875 14 L 11.53125 14 C 11.832031 14 12.078125 13.753906 12.078125 13.449219 L 12.078125 10.65625 L 12.414062 10.65625 C 12.847656 10.65625 13.199219 10.304688 13.199219 9.871094 L 13.199219 5.792969 C 13.199219 5.359375 12.847656 5.007812 12.414062 5.007812 Z M 2.46875 0.550781 L 8.828125 0.550781 L 8.828125 3.359375 C 8.828125 3.511719 8.953125 3.632812 9.105469 3.632812 L 11.53125 3.632812 L 11.53125 5.007812 L 2.46875 5.007812 Z M 9.078125 9.742188 L 8.8125 10.457031 C 8.226562 10.289062 7.742188 10.109375 7.191406 9.878906 C 7.101562 9.84375 7.003906 9.824219 6.90625 9.820312 C 5.984375 9.757812 5.121094 9.078125 5.121094 7.738281 C 5.121094 6.511719 5.898438 5.585938 7.121094 5.585938 C 8.375 5.585938 9.058594 6.535156 9.058594 7.652344 C 9.058594 8.585938 8.628906 9.242188 8.085938 9.484375 L 8.085938 9.507812 C 8.402344 9.601562 8.757812 9.671875 9.078125 9.742188 Z M 1.863281 9.5625 L 2.054688 8.796875 C 2.300781 8.925781 2.6875 9.054688 3.082031 9.054688 C 3.507812 9.054688 3.730469 8.875 3.730469 8.609375 C 3.730469 8.351562 3.539062 8.207031 3.042969 8.03125 C 2.363281 7.792969 1.917969 7.417969 1.917969 6.820312 C 1.917969 6.121094 2.503906 5.585938 3.46875 5.585938 C 3.933594 5.585938 4.273438 5.683594 4.515625 5.792969 L 4.308594 6.539062 C 4.144531 6.460938 3.851562 6.347656 3.453125 6.347656 C 3.050781 6.347656 2.855469 6.527344 2.855469 6.742188 C 2.855469 7.003906 3.085938 7.117188 3.617188 7.320312 C 4.339844 7.585938 4.679688 7.964844 4.679688 8.542969 C 4.679688 9.230469 4.152344 9.8125 3.027344 9.8125 C 2.558594 9.8125 2.09375 9.691406 1.863281 9.5625 Z M 11.53125 13.300781 L 2.46875 13.300781 L 2.46875 10.65625 L 11.53125 10.65625 Z M 12.230469 9.753906 L 9.667969 9.753906 L 9.667969 5.652344 L 10.597656 5.652344 L 10.597656 8.972656 L 12.230469 8.972656 Z M 12.230469 9.753906 "/>
<path style=" stroke:none;fill-rule:nonzero;fill:rgb(0%,0%,0%);fill-opacity:1;" d="M 7.09375 6.320312 C 6.464844 6.320312 6.097656 6.941406 6.097656 7.707031 C 6.09375 8.488281 6.46875 9.082031 7.089844 9.082031 C 7.714844 9.082031 8.082031 8.492188 8.082031 7.691406 C 8.082031 6.941406 7.726562 6.320312 7.09375 6.320312 Z M 7.09375 6.320312 "/>
</g>
</svg>
