<svg width="16" height="16" viewBox="0 0 16 16" xmlns="http://www.w3.org/2000/svg" xmlns:xlink="http://www.w3.org/1999/xlink">
    <g transform="matrix(0.278003,0,0,0.278003,3.97974,2.59174)">
        <path d="M13,7C13,7 11.788,6.394 10.698,5.849C10.334,5.667 9.902,5.686 9.556,5.9C9.211,6.114 9,6.491 9,6.898C9,8.168 9,9.832 9,11.102C9,11.509 9.211,11.886 9.556,12.1C9.902,12.314 10.334,12.333 10.698,12.151C11.788,11.606 13,11 13,11"/>
    </g>
    <g transform="matrix(0.278003,0,0,0.278003,4.11434,2.59174)">
        <path d="M17.992,7C18.548,7 19,7.452 19,8.009C19,8.615 19,9.385 19,9.991C19,10.548 18.548,11 17.992,11C16.884,11 15.116,11 14.008,11C13.452,11 13,10.548 13,9.991C13,9.385 13,8.615 13,8.009C13,7.452 13.452,7 14.008,7C15.116,7 16.884,7 17.992,7Z"/>
    </g>
    <g transform="matrix(-0.278003,0,0,0.278003,13.145,2.55354)">
        <path d="M13,7C13,7 11.533,6.267 10.376,5.688C10.081,5.541 9.731,5.556 9.451,5.73C9.171,5.903 9,6.209 9,6.538C9,7.955 9,10.045 9,11.462C9,11.791 9.171,12.097 9.451,12.27C9.731,12.444 10.081,12.459 10.376,12.312C11.533,11.733 13,11 13,11"/>
    </g>
    <g transform="matrix(0.465105,0,0,0.465105,1.81879,0.818751)">
        <path d="M9.416,6.455L9.416,10.973C9.416,11.268 9.569,11.543 9.82,11.698C10.071,11.853 10.385,11.867 10.649,11.735L10.89,11.615L11,12C11,12 13.668,22.14 15.106,27.604C15.188,27.916 15.038,28.242 14.747,28.381C14.456,28.52 14.108,28.433 13.917,28.173C10.449,23.466 3.727,14.344 2.279,12.379C2.112,12.151 2.104,11.843 2.261,11.608C2.803,10.796 4,9 4,9C4,9 2.566,8.044 1.681,7.454C1.514,7.343 1.405,7.162 1.386,6.962C1.366,6.762 1.437,6.563 1.579,6.421C2.503,5.497 4.265,3.735 4.825,3.175C4.937,3.063 5.089,3 5.248,3C5.775,3 7.01,3 7.63,3C7.857,3 8.064,3.128 8.165,3.331C8.449,3.899 9,5 9,5L9.416,6.455Z"/>
    </g>
    <g transform="matrix(-0.465105,0,0,0.465105,15.2806,0.818751)">
        <path d="M9.416,6.455L9.416,10.973C9.416,11.268 9.569,11.543 9.82,11.698C10.071,11.853 10.385,11.867 10.649,11.735L10.89,11.615L11,12C11,12 13.668,22.14 15.106,27.604C15.188,27.916 15.038,28.242 14.747,28.381C14.456,28.52 14.108,28.433 13.917,28.173C10.449,23.466 3.727,14.344 2.279,12.379C2.112,12.151 2.104,11.843 2.261,11.608C2.803,10.796 4,9 4,9C4,9 2.566,8.044 1.681,7.454C1.514,7.343 1.405,7.162 1.386,6.962C1.366,6.762 1.437,6.563 1.579,6.421C2.503,5.497 4.265,3.735 4.825,3.175C4.937,3.063 5.089,3 5.248,3C5.775,3 7.01,3 7.63,3C7.857,3 8.064,3.128 8.165,3.331C8.449,3.899 9,5 9,5L9.416,6.455Z"/>
    </g>
    <g transform="matrix(0.556951,0,0,0.556951,-0.512605,-1.46817)">
        <circle cx="16.294" cy="15.715" r="1.285"/>
    </g>
</svg>
