<svg xmlns="http://www.w3.org/2000/svg" xml:space="preserve" width="16" height="16" fill="none"><g style="fill:#000"><path d="M1740.864 270.244v-.695h-1.321l.22-.24c.122-.133.359-.507.527-.83.454-.876.45-2.543 0-3.457-.6-1.22-1.83-2.114-3.233-2.347-1.867-.31-3.817.728-4.63 2.463-.417.889-.417 2.368 0 3.257.359.765 1.096 1.563 1.798 1.945.877.477 1.63.582 4.256.592l2.381.009zm-4.87-1.02c-1.2-.178-2.089-1.237-2.084-2.48 0-.719.275-1.316.823-1.81.552-.498 1.064-.663 1.892-.61 1.281.081 2.206 1.102 2.206 2.434 0 .713-.117 1.055-.556 1.628-.483.63-1.405.969-2.28.839m11.077.913v-.802h-3.745v-6.528h-1.82v8.133h5.565z" style="fill:#000;stroke-width:.107018" transform="translate(-1731.593 -258.78)"/></g></svg>