<svg width="16" height="16" viewBox="0 0 16 16" fill="none" xmlns="http://www.w3.org/2000/svg">
<path d="M9.628 11.0743V10.4575H8.45562L8.65084 10.2445C8.75911 10.1264 8.96952 9.79454 9.11862 9.50789C9.52153 8.73047 9.51798 7.25107 9.11862 6.43992C8.58614 5.35722 7.49453 4.56381 6.24942 4.35703C4.59252 4.08192 2.86196 5.00312 2.14045 6.54287C1.77038 7.33182 1.77038 8.64437 2.14045 9.43333C2.45905 10.1122 3.11309 10.8204 3.73609 11.1595C4.51439 11.5828 5.18264 11.676 7.51312 11.6848L9.62627 11.6928L9.628 11.0743ZM5.30605 10.169C4.24109 10.0111 3.45215 9.07124 3.45659 7.96813C3.45659 7.33004 3.70064 6.80022 4.18697 6.36182C4.67685 5.91986 5.1312 5.77344 5.86602 5.82048C7.00287 5.89236 7.82382 6.79845 7.82382 7.98056C7.82382 8.61332 7.71996 8.91682 7.33036 9.42534C6.90172 9.98444 6.08345 10.2853 5.30692 10.1699M15.1374 10.9802V10.2684H11.8138V4.47509H10.1986V11.6928H15.1374V10.9802Z" fill="black"/>
</svg>
