<svg width="16" height="16" viewBox="0 0 16 16" fill="none" xmlns="http://www.w3.org/2000/svg">
<g clip-path="url(#clip0_4_27)">
<path d="M14.9946 2.11525C13.2161 -0.0135586 9.67551 -0.637287 7.13017 0.718645L2.64321 3.09153C1.41949 3.72881 0.571047 4.77288 0.326304 5.95254C0.114193 6.94237 0.293671 7.95932 0.86474 8.84068C0.47315 9.32881 0.21209 9.87119 0.0978763 10.4407C-0.163183 11.6475 0.179458 12.8949 1.0279 13.8847C2.82269 16.0136 6.347 16.6373 8.89233 15.2949L13.3793 12.922C14.603 12.2847 15.4515 11.2407 15.6962 10.061C15.9083 9.07119 15.7288 8.05424 15.1578 7.17288C15.5494 6.68475 15.8104 6.14237 15.9246 5.57288C16.1857 4.35254 15.8594 3.10509 14.9946 2.11525ZM6.68964 14.0881C5.23749 14.4 3.72008 13.9254 2.87164 12.9085C2.34952 12.3119 2.15372 11.5661 2.30057 10.8339C2.3332 10.7119 2.36583 10.6034 2.39847 10.4814L2.48005 10.2644L2.70847 10.4C3.24691 10.7254 3.83429 10.9695 4.47063 11.1322L4.63379 11.1729L4.61747 11.3085C4.60116 11.4983 4.66642 11.7017 4.79695 11.8644C5.05801 12.1763 5.51487 12.3254 5.95541 12.2305C6.0533 12.2034 6.1512 12.1763 6.23278 12.1356L10.7034 9.76271C10.9319 9.64068 11.0787 9.46441 11.1277 9.24746C11.1766 9.03051 11.1113 8.8 10.9645 8.62373C10.7034 8.31186 10.2466 8.17627 9.80604 8.27119C9.70814 8.29831 9.61024 8.32542 9.52866 8.3661L7.83177 9.26102C7.5544 9.41017 7.24439 9.51864 6.91806 9.58644C5.46592 9.89831 3.94851 9.42373 3.10006 8.40678C2.59426 7.81017 2.38215 7.06441 2.54531 6.3322C2.69216 5.62712 3.21428 4.98983 3.94851 4.61017L8.41916 2.23729C8.69653 2.08814 9.00654 1.97966 9.33287 1.89831C10.785 1.58644 12.3024 2.06102 13.1509 3.07797C13.673 3.67458 13.8688 4.42034 13.7219 5.15254C13.6893 5.27458 13.6567 5.38305 13.6077 5.50509L13.5261 5.72203L13.2977 5.58644C12.7593 5.26102 12.1719 5.01695 11.5356 4.85424L11.3724 4.81356L11.3887 4.67797C11.405 4.48814 11.3398 4.28475 11.2092 4.12203C10.9482 3.81017 10.4913 3.67458 10.0508 3.76949C9.95288 3.79661 9.85499 3.82373 9.77341 3.86441L5.30276 6.25085C5.07433 6.37288 4.92748 6.54915 4.87853 6.7661C4.82959 6.98305 4.89485 7.21356 5.0417 7.38983C5.30276 7.7017 5.75961 7.83729 6.20015 7.74237C6.29805 7.71525 6.39594 7.68814 6.47753 7.64746L8.19073 6.73898C8.46811 6.58983 8.77811 6.48136 9.10444 6.4C10.5566 6.08814 12.074 6.56271 12.9224 7.57966C13.4446 8.17627 13.6404 8.92203 13.4935 9.65424C13.3467 10.3593 12.8245 10.9966 12.0903 11.3763L7.61966 13.7492C7.32597 13.8983 7.01596 14.0068 6.68964 14.0881Z" fill="black"/>
</g>
<defs>
<clipPath id="clip0_4_27">
<rect width="16" height="16" fill="white"/>
</clipPath>
</defs>
</svg>
