<svg width="16" height="16" viewBox="0 0 16 16" xmlns="http://www.w3.org/2000/svg" xmlns:xlink="http://www.w3.org/1999/xlink">
    <g transform="matrix(0.428571,0,0,0.428571,0.629053,1.14293)">
        <path d="M26.1,5.7C23.5,2 18.4,0.9 14.7,3.2L8.2,7.4C6.4,8.5 5.2,10.3 4.8,12.4C4.5,14.1 4.8,15.9 5.6,17.5C5,18.3 4.7,19.3 4.5,20.3C4.1,22.4 4.6,24.6 5.9,26.3C8.5,30 13.6,31.1 17.3,28.8L23.8,24.6C25.6,23.5 26.8,21.7 27.2,19.6C27.5,17.9 27.2,16.1 26.4,14.5C27,13.7 27.3,12.7 27.5,11.7C27.9,9.6 27.4,7.4 26.1,5.7M24.3,11C24.3,11.2 24.2,11.4 24.1,11.6L24,12L23.7,11.8C22.9,11.2 22.1,10.8 21.1,10.5L20.9,10.4L20.9,10.2C20.9,9.9 20.8,9.5 20.6,9.2C20.2,8.7 19.6,8.4 18.9,8.6C18.8,8.6 18.6,8.7 18.5,8.8L12,12.9C11.7,13.1 11.5,13.4 11.4,13.8C11.3,14.2 11.4,14.6 11.6,14.9C12,15.4 12.6,15.7 13.3,15.5C13.4,15.5 13.6,15.4 13.7,15.3L16.2,13.7C16.6,13.4 17.1,13.2 17.5,13.1C19.6,12.6 21.8,13.4 23.1,15.2C23.8,16.2 24.1,17.6 23.9,18.8C23.7,20 22.9,21.1 21.9,21.8L15.4,26C15,26.3 14.5,26.5 14.1,26.6C12,27.1 9.8,26.3 8.5,24.5C7.8,23.5 7.5,22.1 7.7,20.9C7.7,20.7 7.8,20.5 7.9,20.3L8,20L8.3,20.2C9.1,20.8 9.9,21.2 10.9,21.5L11.1,21.6L11.1,21.8C11.1,22.1 11.2,22.5 11.4,22.8C11.8,23.3 12.4,23.6 13.1,23.4C13.2,23.4 13.4,23.3 13.5,23.2L20,19C20.3,18.8 20.5,18.5 20.6,18.1C20.7,17.7 20.6,17.3 20.4,17C20,16.5 19.4,16.2 18.7,16.4C18.6,16.4 18.4,16.5 18.3,16.6L15.8,18.2C15.4,18.5 14.9,18.7 14.5,18.8C12.4,19.3 10.2,18.5 8.9,16.7C8.1,15.7 7.9,14.3 8.1,13.1C8.3,11.9 9.1,10.8 10.1,10.1L16.6,5.9C17,5.6 17.5,5.4 17.9,5.3C20,4.8 22.2,5.6 23.5,7.4C24.2,8.5 24.5,9.8 24.3,11" style="fill-rule:nonzero;"/>
    </g>
</svg>
