<?xml version="1.0" encoding="UTF-8"?>
<svg xmlns="http://www.w3.org/2000/svg" xmlns:xlink="http://www.w3.org/1999/xlink" width="14px" height="14px" viewBox="0 0 14 14" version="1.1">
<g id="surface1">
<path style=" stroke:none;fill-rule:evenodd;fill:rgb(0%,0%,0%);fill-opacity:1;" d="M 8.269531 1.53125 C 13.078125 4.824219 11.523438 8.457031 11.523438 8.457031 C 11.523438 8.457031 12.890625 10.015625 12.335938 11.375 C 12.335938 11.375 11.773438 10.421875 10.828125 10.421875 C 9.914062 10.421875 9.378906 11.375 7.546875 11.375 C 3.460938 11.375 1.53125 7.9375 1.53125 7.9375 C 5.210938 10.375 7.722656 8.648438 7.722656 8.648438 C 6.066406 7.679688 2.539062 3.039062 2.539062 3.039062 C 5.609375 5.675781 6.9375 6.371094 6.9375 6.371094 C 6.144531 5.710938 3.921875 2.484375 3.921875 2.484375 C 5.699219 4.296875 9.230469 6.828125 9.230469 6.828125 C 10.234375 4.027344 8.269531 1.53125 8.269531 1.53125 "/>
</g>
</svg>
