<?xml version="1.0" encoding="UTF-8"?>
<svg xmlns="http://www.w3.org/2000/svg" xmlns:xlink="http://www.w3.org/1999/xlink" width="14px" height="14px" viewBox="0 0 14 14" version="1.1">
<g id="surface1">
<path style=" stroke:none;fill-rule:nonzero;fill:rgb(0%,0%,0%);fill-opacity:1;" d="M 12.824219 9.535156 C 12.855469 9.472656 12.855469 9.40625 12.890625 9.339844 C 13.675781 6.265625 11.808594 2.667969 8.605469 0.769531 C 10.011719 2.667969 10.566406 4.925781 10.074219 6.953125 C 10.042969 7.117188 9.976562 7.3125 9.914062 7.476562 C 9.824219 7.425781 9.734375 7.371094 9.648438 7.3125 C 9.648438 7.3125 6.476562 5.347656 3.074219 1.914062 C 2.976562 1.816406 4.90625 4.660156 7.066406 6.917969 C 6.050781 6.332031 3.175781 4.269531 1.375 2.601562 C 1.570312 2.960938 1.867188 3.320312 2.160156 3.679688 C 3.664062 5.609375 5.628906 7.964844 7.984375 9.765625 C 6.316406 10.78125 3.992188 10.84375 1.636719 9.765625 C 1.046875 9.503906 0.558594 9.175781 0 8.785156 C 0.980469 10.320312 2.519531 11.726562 4.351562 12.480469 C 6.542969 13.429688 8.765625 13.363281 10.371094 12.480469 L 10.402344 12.480469 C 10.46875 12.449219 10.535156 12.414062 10.601562 12.351562 C 11.386719 11.957031 12.921875 11.53125 13.773438 13.167969 C 14 13.625 14.425781 11.5 12.824219 9.535156 Z M 12.824219 9.535156 "/>
</g>
</svg>
