<?xml version="1.0" encoding="UTF-8"?>
<svg xmlns="http://www.w3.org/2000/svg" xmlns:xlink="http://www.w3.org/1999/xlink" width="14px" height="14px" viewBox="0 0 14 14" version="1.1">
<g id="surface1">
<path style="fill-rule:nonzero;fill:rgb(100%,100%,100%);fill-opacity:1;stroke-width:1;stroke-linecap:butt;stroke-linejoin:miter;stroke:rgb(0%,0%,0%);stroke-opacity:1;stroke-miterlimit:4;" d="M 21.946429 2.875 C 21.982143 5.348214 21.910714 7.785714 19.776786 10.107143 L 19.696429 10.196429 L 19.8125 10.196429 L 20.6875 10.205357 C 19.267857 13.160714 18.348214 16.098214 16.303571 19.035714 L 16.232143 19.142857 L 16.357143 19.125 L 17.4375 18.919643 C 16.883929 20.598214 15.607143 21.946429 13.955357 22.571429 C 13.5625 17.116071 16.285714 12.303571 18.598214 7.5 L 18.607143 7.491071 L 18.517857 7.428571 C 14.732143 11.660714 13.026786 17.625 12.383929 22.553571 C 11.285714 21.901786 10.5 20.821429 10.241071 19.5625 L 11.133929 19.946429 L 11.232143 19.982143 L 11.214286 19.883929 C 10.526786 16.857143 11.589286 14.678571 12.607143 11.830357 L 13.348214 12.321429 L 13.4375 12.383929 L 13.4375 12.276786 C 13.375 9.964286 14.9375 7.633929 17.008929 5.553571 L 17.294643 6.321429 L 17.339286 6.419643 L 17.392857 6.321429 L 18.026786 5.267857 C 18.973214 3.991071 20.375 3.133929 21.946429 2.875 Z M 21.946429 2.875 " transform="matrix(0.4375,0,0,0.4375,0,0)"/>
<path style="fill-rule:nonzero;fill:rgb(100%,100%,100%);fill-opacity:1;stroke-width:1;stroke-linecap:butt;stroke-linejoin:miter;stroke:rgb(100%,100%,100%);stroke-opacity:1;stroke-miterlimit:4;" d="M 21.946429 2.875 C 20.375 3.133929 18.973214 3.991071 18.017857 5.258929 L 18.017857 5.267857 L 17.392857 6.321429 L 17.339286 6.419643 L 17.294643 6.321429 L 17 5.544643 C 14.928571 7.625 13.366071 9.955357 13.419643 12.267857 L 13.419643 12.375 L 13.339286 12.3125 L 12.598214 11.821429 C 11.571429 14.669643 10.517857 16.848214 11.196429 19.875 L 11.223214 19.973214 L 11.125 19.9375 L 10.241071 19.5625 C 10.241071 19.580357 10.25 19.598214 10.25 19.616071 C 10.517857 20.839286 11.294643 21.901786 12.375 22.544643 C 12.428571 22.160714 12.482143 21.776786 12.544643 21.383929 C 11 17.767857 12.348214 15.107143 12.955357 12.723214 L 13.892857 13.258929 C 13.758929 11.026786 15.080357 8.607143 16.785714 6.508929 L 17.285714 7.375 C 18.553571 4.767857 19.5625 3.723214 21.946429 2.875 Z M 21.946429 2.875 " transform="matrix(0.4375,0,0,0.4375,0,0)"/>
<path style="fill-rule:nonzero;fill:rgb(0%,0%,0%);fill-opacity:1;stroke-width:1;stroke-linecap:butt;stroke-linejoin:miter;stroke:rgb(0%,0%,0%);stroke-opacity:1;stroke-miterlimit:4;" d="M 22.517857 2 L 22.464286 2.008929 C 20.383929 2.375 18.339286 3.133929 17.446429 4.973214 L 17.071429 4.3125 L 17.035714 4.25 L 16.991071 4.303571 C 15.883929 5.357143 14.892857 6.526786 14.044643 7.803571 C 13.339286 8.723214 12.919643 9.839286 12.839286 11 L 12.303571 10.339286 L 12.25 10.267857 L 12.214286 10.348214 C 11.508929 11.857143 10.9375 13.428571 10.517857 15.044643 C 10.116071 16.25 10.0625 17.535714 10.366071 18.767857 L 9.482143 18.258929 L 9.410714 18.214286 L 9.401786 18.294643 C 9.223214 20.151786 9.982143 21.973214 11.419643 23.142857 L 10.455357 23.383929 L 10.25 23.428571 L 10.455357 23.482143 C 10.973214 23.598214 11.464286 23.794643 11.901786 24.089286 C 12.3125 24.383929 12.508929 24.892857 12.419643 25.383929 L 12.419643 28.098214 L 12.428571 28.116071 L 13.651786 29.857143 L 13.75 30 L 13.75 25.723214 C 13.839286 25.178571 14.053571 24.678571 14.366071 24.232143 C 14.660714 23.910714 15.071429 23.723214 15.5 23.696429 L 15.678571 23.678571 L 15.517857 23.598214 L 14.875 23.303571 C 16.714286 22.035714 18.035714 20.142857 18.571429 17.982143 L 18.589286 17.892857 L 18.508929 17.919643 L 17.714286 18.133929 C 18.607143 17.098214 19.3125 15.910714 19.803571 14.633929 C 20.508929 13 21.178571 11.169643 21.732143 9.696429 L 21.758929 9.625 L 21.678571 9.625 L 21.0625 9.669643 C 21.857143 8.651786 22.339286 7.428571 22.446429 6.142857 C 22.633929 4.785714 22.660714 3.419643 22.526786 2.053571 Z M 21.946429 2.875 C 21.982143 5.348214 21.910714 7.785714 19.776786 10.107143 L 19.696429 10.196429 L 19.8125 10.196429 L 20.6875 10.205357 C 19.267857 13.160714 18.348214 16.098214 16.303571 19.035714 L 16.232143 19.142857 L 16.357143 19.125 L 17.4375 18.919643 C 16.883929 20.598214 15.607143 21.946429 13.955357 22.571429 C 13.5625 17.116071 16.285714 12.303571 18.598214 7.5 L 18.607143 7.491071 L 18.517857 7.428571 C 14.732143 11.660714 13.026786 17.625 12.383929 22.553571 C 11.285714 21.901786 10.508929 20.821429 10.241071 19.5625 L 11.142857 19.946429 L 11.232143 19.982143 L 11.214286 19.883929 C 10.526786 16.857143 11.589286 14.678571 12.616071 11.830357 L 13.348214 12.321429 L 13.4375 12.383929 L 13.4375 12.276786 C 13.375 9.964286 14.9375 7.633929 17.008929 5.553571 L 17.303571 6.321429 L 17.339286 6.419643 L 17.392857 6.321429 L 18.026786 5.267857 C 18.973214 3.991071 20.375 3.133929 21.946429 2.875 Z M 21.946429 2.875 " transform="matrix(0.4375,0,0,0.4375,0,0)"/>
</g>
</svg>
