<svg width="16" height="16" viewBox="0 0 16 16" fill="none" xmlns="http://www.w3.org/2000/svg">
<path d="M3.03125 13C3.46875 12.2812 3.68556 12.0378 4.0625 11.5312M4.0625 11.5312C4.0625 9.86595 4.27768 8.02844 4.75687 7M4.0625 11.5312C4.75687 10.5981 6.6875 8.57812 7.92188 7.54688M4.0625 11.5312C7.875 11.5312 10.0507 9.46738 11.4062 8.03125C11.5818 7.84528 11.2307 7.34164 10.9157 6.96235C10.7718 6.78906 10.8964 6.50073 11.1213 6.48823C11.6657 6.45798 12.3874 6.36175 12.5 6.06684C12.7544 5.4003 12.9585 4.2437 13.0409 3.28832C13.0541 3.13644 12.9264 3.01119 12.7745 3.0243C10.5824 3.21343 8.22052 3.5262 6.5 4.82764" stroke="black" stroke-width="1.2" stroke-linecap="round"/>
</svg>
