<svg width="14" height="14" viewBox="0 0 14 14" fill="none" xmlns="http://www.w3.org/2000/svg">
<path d="M12 4.375V2.5C12 2.22386 11.7761 2 11.5 2H2.5C2.22386 2 2 2.22386 2 2.5V11.5C2 11.7761 2.22386 12 2.5 12H3.375" stroke="black" stroke-opacity="0.6" stroke-width="1.25" stroke-linecap="round"/>
<path d="M10.6836 7.82805C10.7933 7.65392 10.9823 7.57377 11.174 7.57377C11.2904 7.57377 11.4019 7.59384 11.5092 7.62792C11.8324 7.73069 12.2148 7.63925 12.3392 7.32368L12.3773 7.22707C12.4703 6.99131 12.3823 6.71761 12.1522 6.61154C11.8328 6.46436 11.4984 6.375 11.1262 6.375C9.87708 6.375 8.91935 7.60671 9.4239 8.84869C9.54205 9.13951 9.74219 9.36166 9.9515 9.54337C10.1061 9.6776 10.2858 9.80516 10.4475 9.92002C10.4972 9.95529 10.5452 9.98936 10.5903 10.0221C11.0283 10.34 11.2526 10.5876 11.2526 10.9466C11.2526 11.1518 11.1622 11.3133 11.016 11.4128C10.8777 11.5071 10.7055 11.5357 10.5454 11.5222C10.3931 11.5093 10.2529 11.4717 10.1214 11.4196C9.81633 11.2989 9.45533 11.4015 9.33641 11.7073L9.2814 11.8487C9.19162 12.0796 9.2749 12.3463 9.49799 12.4539C10.0894 12.7391 10.7377 12.8279 11.3915 12.5872C12.0569 12.3423 12.595 11.7708 12.595 10.9068C12.595 10.1301 12.1336 9.69583 11.6966 9.36109C11.606 9.29163 11.5259 9.23292 11.4493 9.17682C11.3259 9.08638 11.1964 8.99109 11.0734 8.88536C10.8937 8.73082 10.7518 8.57274 10.6595 8.38613C10.5746 8.21464 10.5815 7.99013 10.6836 7.82805Z" fill="black"/>
<path d="M6.98644 7.70936H7.69396C7.98162 7.70936 8.21481 7.47617 8.21481 7.18851V7.02346C8.21481 6.73581 7.98162 6.50261 7.69396 6.50261H4.96848C4.68082 6.50261 4.44763 6.73581 4.44763 7.02346V7.18851C4.44763 7.47617 4.68082 7.70936 4.96848 7.70936H5.676V12.102C5.676 12.3896 5.90919 12.6228 6.19685 12.6228H6.46559C6.75325 12.6228 6.98644 12.3896 6.98644 12.102V7.70936Z" fill="black"/>
</svg>
