<svg width="16" height="16" viewBox="0 0 16 16" fill="none" xmlns="http://www.w3.org/2000/svg">
<path d="M12.4026 6.83662L12.4027 6.83665C12.8955 7.03629 13.1038 7.5797 12.8954 8.04392L12.4026 6.83662ZM12.4026 6.83662C12.0345 6.68756 11.6375 6.59287 11.1923 6.59287C10.4284 6.59287 9.73303 6.92348 9.30132 7.45199C9.21949 7.55216 9.14741 7.65939 9.08644 7.7723C9.0875 7.75377 9.08803 7.73512 9.08803 7.71637V7.56633C9.08803 7.04084 8.66952 6.59287 8.12651 6.59287H5.71152C5.16851 6.59287 4.75 7.04084 4.75 7.56633V7.71637C4.75 8.24187 5.16851 8.68983 5.71152 8.68983H5.83844V12.1828C5.83844 12.7083 6.25697 13.1562 6.79995 13.1562H7.03808C7.58105 13.1562 7.99959 12.7083 7.99959 12.1828V8.68983H8.12651C8.44496 8.68983 8.72059 8.53577 8.8941 8.30235C8.82024 8.67161 8.8581 9.07201 9.04181 9.46944L9.04181 9.46945M12.4026 6.83662L9.04181 9.46945M9.04181 9.46945C9.2086 9.83024 9.4806 10.0843 9.71821 10.2656L9.04181 9.46945ZM10.2513 10.6223L10.2511 10.6222L10.2494 10.6211L10.2494 10.6211L10.2407 10.6157C10.0855 10.5188 9.89053 10.3971 9.71823 10.2657L10.2513 10.6223ZM10.2513 10.6223C10.3012 10.6535 10.3469 10.6819 10.3893 10.709L10.3893 10.709M10.2513 10.6223L10.3893 10.709M10.3893 10.709C10.5998 10.8433 10.7127 10.935 10.773 11.005C10.8062 11.0437 10.8151 11.0651 10.8175 11.081C10.7898 11.0943 10.733 11.1089 10.6506 11.1028C10.5488 11.0953 10.452 11.0731 10.3553 11.0394L10.3551 11.0393M10.3893 10.709L10.3551 11.0393M10.3551 11.0393C10.1084 10.9535 9.83475 10.9442 9.58671 11.0185C9.33649 11.0934 9.08214 11.2654 8.95123 11.5613L8.89643 11.6851L8.89639 11.6851M10.3551 11.0393L8.89639 11.6851M8.89639 11.6851C8.69535 12.1395 8.89178 12.6733 9.37438 12.8779L9.3744 12.8779M8.89639 11.6851L9.3744 12.8779M9.3744 12.8779C10.0522 13.1652 10.8235 13.2647 11.6107 13.01M9.3744 12.8779L11.6107 13.01M11.1875 8.6484C11.2352 8.71736 11.3128 8.79583 11.4412 8.89288C11.5466 8.97252 11.6604 9.04638 11.785 9.12663L11.1875 8.6484ZM11.1875 8.6484C11.2013 8.64523 11.219 8.64291 11.24 8.64291C11.3047 8.64291 11.3704 8.65262 11.4395 8.67189L11.1875 8.6484ZM11.6107 13.01C12.4029 12.7538 13.1562 12.1075 13.1562 11.0624M11.6107 13.01L13.1562 11.0624M13.1562 11.0624C13.1562 10.1064 12.4874 9.59487 12.0402 9.29381L13.1562 11.0624ZM12.8575 8.12848L12.8954 8.04397L11.4396 8.67193C11.6806 8.73925 11.9511 8.74646 12.1998 8.67513C12.4502 8.6033 12.7193 8.43659 12.8575 8.12855C12.8575 8.12852 12.8575 8.1285 12.8575 8.12848ZM2.5 4C2.5 3.17157 3.17157 2.5 4 2.5H12C12.8284 2.5 13.5 3.17157 13.5 4V12C13.5 12.8284 12.8284 13.5 12 13.5H4C3.17157 13.5 2.5 12.8284 2.5 12V4ZM12.0401 9.2937C11.945 9.22968 11.8613 9.17574 11.7851 9.12671L12.0401 9.2937Z" fill="black" stroke="black"/>
</svg>
