<svg xmlns="http://www.w3.org/2000/svg"  viewBox="0 0 28 28" width="16px" height="16px"><path d="M 40.449219 3 C 40.359375 2.996094 40.265625 3.007813 40.175781 3.03125 L 23.765625 7.03125 C 23.449219 7.105469 23.191406 7.328125 23.074219 7.628906 L 21.324219 12 L 16 12 C 15.722656 12 15.453125 12.117188 15.265625 12.324219 L 3.265625 25.324219 C 2.894531 25.722656 2.914063 26.347656 3.3125 26.722656 L 15.890625 38.722656 C 16.078125 38.902344 16.324219 39 16.582031 39 L 22.324219 39 L 24.074219 43.371094 C 24.199219 43.695313 24.488281 43.925781 24.828125 43.984375 L 42.289063 46.984375 C 42.816406 47.078125 43.320313 46.734375 43.4375 46.214844 L 46.976563 29.984375 C 47.03125 29.734375 46.988281 29.46875 46.855469 29.25 L 44.527344 25.429688 L 46.902344 20.429688 C 47.015625 20.191406 47.03125 19.917969 46.941406 19.671875 L 41.359375 3.671875 C 41.222656 3.28125 40.859375 3.015625 40.449219 3 Z M 39.769531 5.1875 L 44.921875 19.941406 L 43.445313 23.046875 L 39.953125 11.703125 C 39.824219 11.277344 39.421875 10.988281 38.972656 11 C 38.605469 11.011719 38.269531 11.222656 38.105469 11.550781 L 31.105469 25.550781 C 30.945313 25.871094 30.96875 26.25 31.164063 26.546875 L 39.164063 38.757813 C 39.382813 39.09375 39.785156 39.261719 40.179688 39.191406 C 40.570313 39.121094 40.886719 38.820313 40.972656 38.429688 L 43.453125 27.515625 L 44.9375 29.949219 L 41.6875 44.851563 L 25.71875 42.109375 L 24.601563 39.3125 L 36.183594 41.464844 C 36.578125 41.535156 36.980469 41.367188 37.199219 41.03125 C 37.421875 40.691406 37.421875 40.257813 37.195313 39.921875 L 28.828125 27.441406 C 28.644531 27.167969 28.332031 27 28 27 L 12 27 C 11.585938 27 11.214844 27.253906 11.066406 27.640625 C 10.917969 28.023438 11.023438 28.460938 11.328125 28.738281 L 20.414063 37 L 16.984375 37 L 5.402344 25.953125 L 16.4375 14 L 19.738281 14 L 11.261719 23.328125 C 10.992188 23.621094 10.925781 24.042969 11.085938 24.40625 C 11.246094 24.765625 11.605469 25 12 25 L 28 25 C 28.378906 25 28.726563 24.785156 28.894531 24.449219 L 35.894531 10.449219 C 36.046875 10.140625 36.035156 9.78125 35.859375 9.488281 C 35.683594 9.195313 35.375 9.011719 35.03125 9 C 34.945313 8.996094 34.859375 9.003906 34.777344 9.023438 L 23.640625 11.59375 L 24.734375 8.851563 Z M 33.15625 11.453125 L 27.382813 23 L 14.261719 23 L 22.53125 13.90625 Z M 38.78125 14.679688 L 41.964844 25.039063 L 39.546875 35.691406 L 33.152344 25.933594 Z M 14.585938 29 L 27.46875 29 L 34.210938 39.0625 L 23.464844 37.066406 Z"/></svg>
