<svg width="16" height="16" viewBox="0 0 16 16" fill="none" xmlns="http://www.w3.org/2000/svg">
<path fill="black" fill-opacity="0.5" d="m10.01,14.308l4.189,-12.212c0.071,-0.207 -0.041,-0.358 -0.25,-0.337l-3.295,0.333c-0.209,0.021 -0.435,0.207 -0.504,0.415l-3.878,11.670c-0.069,0.208 0.045,0.376 0.255,0.376l3.207,0c0.105,0 0.219,-0.084 0.255,-0.188l0.02,-0.058l0,0l0,0z"/>
<path fill="black" d="m2.267,1.759l3.247,0.333c0.206,0.021 0.428,0.207 0.497,0.415l3.903,11.859c0.034,0.104 -0.022,0.188 -0.126,0.188l-3.18,0c-0.207,0 -0.431,-0.168 -0.502,-0.375l-4.086,-12.082c-0.07,-0.207 0.04,-0.358 0.246,-0.337l0,0l0,0z"/>
</svg>
