<svg width="16" height="16" viewBox="0 0 16 16" fill="none" xmlns="http://www.w3.org/2000/svg">
<path d="M14.25 12H11C10.794 12 10.6764 11.7648 10.8 11.6L11.925 10.1C11.9722 10.037 12.0463 10 12.125 10H12.75C12.8881 10 13 9.88807 13 9.75V6.25C13 6.11193 12.8881 6 12.75 6H12.4045C12.2187 6 12.0978 5.80442 12.1809 5.6382L12.9309 4.1382C12.9732 4.0535 13.0598 4 13.1545 4H14.25C14.3881 4 14.5 4.11193 14.5 4.25V11.75C14.5 11.8881 14.3881 12 14.25 12Z" fill="black"/>
<path d="M1.75 4H5C5.20601 4 5.32361 4.23519 5.2 4.4L4.075 5.9C4.02779 5.96295 3.95369 6 3.875 6H3.25C3.11193 6 3 6.11193 3 6.25V9.75C3 9.88807 3.11193 10 3.25 10H3.59549C3.78134 10 3.90221 10.1956 3.8191 10.3618L3.0691 11.8618C3.02675 11.9465 2.94018 12 2.84549 12H1.75C1.61193 12 1.5 11.8881 1.5 11.75V4.25C1.5 4.11193 1.61193 4 1.75 4Z" fill="black"/>
<path d="M7.55748 6H5.95006C5.74177 6 5.62482 5.76022 5.75306 5.59609L6.92493 4.09609C6.97231 4.03544 7.04498 4 7.12194 4H9.93075C9.97607 4 10.0205 3.98769 10.0594 3.96437L11.6408 3.0155C11.8641 2.88154 12.1179 3.13555 11.9837 3.3587L8.22612 9.6083C8.12629 9.77433 8.24508 9.98591 8.43881 9.98712L10.0039 9.9969C10.2092 9.99818 10.3255 10.2327 10.2023 10.3969L9.075 11.9C9.02779 11.963 8.95369 12 8.875 12H6.55383C6.51835 12 6.48328 12.0076 6.45094 12.0222L4.32473 12.9824C4.10122 13.0833 3.88113 12.8356 4.00771 12.6255L7.77161 6.37903C7.87201 6.2124 7.75202 6 7.55748 6Z" fill="black"/>
</svg>
