<svg width="16" height="16" viewBox="0 0 16 16" fill="none" xmlns="http://www.w3.org/2000/svg">
<path d="M4.85433 2.51429L3.24089 5.02857L2.43417 3.42857L4.85433 2.51429Z" fill="black"/>
<path d="M4.85434 2.51429L3.68908 3.77143L3.2409 5.02857H2.70308V10.8571H3.50981L2.52381 11.4286L1.80672 13.3714H0.731094V2.51429H4.85434Z" fill="black"/>
<path d="M3.50982 10.8571L1.80674 13.3714L1.08965 12.1143L3.50982 10.8571Z" fill="black"/>
<path d="M5.7507 2.51429L6.28852 4.11429L4.04762 5.02857L5.7507 2.51429Z" fill="black"/>
<path d="M5.7507 2.51429H10.6807V5.02857H4.04762L5.7507 3.65714V2.51429Z" fill="black"/>
<path d="M11.1288 10.8571L9.42577 13.3714L8.79832 11.8857L11.1288 10.8571Z" fill="black"/>
<path d="M11.1289 10.8571L9.69468 11.8857L9.42578 13.3714H4.4958V10.8571H11.1289Z" fill="black"/>
<path d="M14.1765 0L5.39216 13.3714L1 16L9.78431 2.51429L14.1765 0Z" fill="black"/>
<path d="M13.3697 2.51429L13.2801 4.57143L11.6667 5.14286L13.3697 2.51429Z" fill="black"/>
<path d="M14.4454 2.51429V13.3714H10.2325L11.4874 12L11.9356 10.8571H12.4734V5.14286H11.6667L12.563 4.11429L13.3697 2.51429H14.4454Z" fill="black"/>
<path d="M11.9356 10.8571L12.3838 12.5714L10.2325 13.3714L11.9356 10.8571Z" fill="black"/>
</svg>
