<svg xmlns="http://www.w3.org/2000/svg" width="1em" height="1em" viewBox="0 0 24 24"><path fill="currentColor" d="M12 22q-2.05 0-3.875-.788t-3.187-2.15q-1.363-1.362-2.15-3.187T2 12q0-2.075.813-3.9t2.2-3.175Q6.4 3.575 8.25 2.788T12.2 2q2 0 3.775.688t3.113 1.9q1.337 1.212 2.125 2.875T22 11.05q0 2.875-1.75 4.413T16 17h-1.85q-.225 0-.312.125t-.088.275q0 .3.375.863t.375 1.287q0 1.25-.687 1.85T12 22m-5.5-9q.65 0 1.075-.425T8 11.5q0-.65-.425-1.075T6.5 10q-.65 0-1.075.425T5 11.5q0 .65.425 1.075T6.5 13m3-4q.65 0 1.075-.425T11 7.5q0-.65-.425-1.075T9.5 6q-.65 0-1.075.425T8 7.5q0 .65.425 1.075T9.5 9m5 0q.65 0 1.075-.425T16 7.5q0-.65-.425-1.075T14.5 6q-.65 0-1.075.425T13 7.5q0 .65.425 1.075T14.5 9m3 4q.65 0 1.075-.425T19 11.5q0-.65-.425-1.075T17.5 10q-.65 0-1.075.425T16 11.5q0 .65.425 1.075T17.5 13"/></svg>