<svg width="16" height="16" viewBox="0 0 16 16" fill="none" xmlns="http://www.w3.org/2000/svg">
<path fill-rule="evenodd" clip-rule="evenodd" d="M11.0003 6H10.0003V5.5C10.0003 5.22386 9.7764 5 9.50026 5H8.47926V10.5C8.47926 10.7761 8.70312 11 8.97926 11H9.47926V12H6.47926V11H6.97926C7.2554 11 7.47926 10.7761 7.47926 10.5V5H6.50026C6.22412 5 6.00026 5.22386 6.00026 5.5V6H5.00026V4H11.0003V6ZM13.9145 8.0481L12.4522 6.58581L13.1593 5.87871L14.9751 7.69454V8.40165L13.2074 10.1694L12.5003 9.46231L13.9145 8.0481ZM3.54835 9.4623L2.08605 8.00002L3.50026 6.58581L2.79316 5.8787L1.02539 7.64647V8.35357L2.84124 10.1694L3.54835 9.4623Z" fill="#000000"/>
</svg>
