<svg xmlns="http://www.w3.org/2000/svg" width="1em" height="1em" viewBox="0 0 24 24"><path fill="currentColor" d="M18.08 17.8c-.46.13-.87.2-1.23.2c-1.2 0-2.01-.88-2.42-2.65h-.05c-.99 1.91-2.38 2.86-4.13 2.86c-1.31 0-2.36-.49-3.15-1.48S5.92 14.5 5.92 13c0-1.75.45-3.15 1.34-4.24c.89-1.09 2.1-1.64 3.63-1.64c.82 0 1.56.23 2.2.68c.64.46 1.13 1.1 1.47 1.93h.04l.71-2.4h2.56l-2.14 5.32c.24 1.24.49 2.09.77 2.54c.24.45.58.68 1 .68c.24 0 .43-.04.6-.11zm-4.26-5.24c-.21-1.13-.55-2.01-1.01-2.61c-.45-.61-1-.91-1.63-.91c-.82 0-1.48.37-1.97 1.1c-.49.74-.71 1.65-.71 2.72c0 .98.19 1.79.62 2.45c.42.66.99.98 1.7.98c.6 0 1.15-.29 1.64-.84c.5-.57.91-1.4 1.24-2.49z"/></svg>