<svg width="1147" height="310" viewBox="0 0 1147 310" fill="none" xmlns="http://www.w3.org/2000/svg">
<path d="M4.34388 233H166.2V186.632H82.1039L169.368 28.52H7.79988V74.888H91.6079L4.34388 233ZM233.094 186.632V152.936H291.27V107.144H233.094V74.888H303.078V28.52H182.406V233H305.382V186.632H233.094ZM323.108 233H406.916C460.484 233 504.548 190.376 504.548 130.76C504.548 71.144 460.484 28.52 406.916 28.52H323.108V233ZM373.796 185.192V76.328H405.188C436.292 76.328 451.556 99.08 451.556 130.76C451.556 162.44 436.292 185.192 405.188 185.192H373.796Z" fill="black"/>
<rect x="372" y="222" width="773" height="86" rx="2" fill="black" stroke="black" stroke-width="4"/>
<rect x="351" y="205" width="773" height="85" rx="2" fill="#F9FAFB" stroke="black" stroke-width="4"/>
<path d="M397.006 245.184C400.942 243.936 402.43 240.912 402.43 237.84C402.43 233.712 399.742 229.92 393.358 229.92H382.414V264H392.878C400.75 264 404.302 259.92 404.302 254.448C404.302 249.792 401.71 246.192 397.006 245.184ZM393.07 231.984C397.966 231.984 400.27 234.432 400.27 237.984C400.27 241.728 397.63 244.416 392.878 244.416H384.67V231.984H393.07ZM392.782 261.936H384.67V246.336H392.782C398.926 246.336 402.094 249.504 402.094 254.4C402.094 259.152 398.974 261.936 392.782 261.936ZM426.928 239.04V253.536C426.928 259.632 422.992 262.416 418.528 262.416C414.016 262.416 410.32 259.632 410.32 253.536V239.04H408.112V253.728C408.112 261.168 412.72 264.48 418.048 264.48C422.896 264.48 425.728 261.84 426.928 259.344V264H429.136V239.04H426.928ZM433.856 232.224H436.064V229.92H433.856V232.224ZM433.856 264H436.064V239.04H433.856V264ZM440.756 264H442.964V229.92H440.756V264ZM469.448 229.92V244.8H469.304C467.672 241.152 463.64 238.56 458.888 238.56C452.552 238.56 446.456 243.072 446.456 251.52C446.456 259.968 452.552 264.48 458.888 264.48C463.64 264.48 467.672 261.888 469.304 258.24H469.448V264H471.656V229.92H469.448ZM459.08 262.416C453.944 262.416 448.712 258.864 448.712 251.52C448.712 244.176 453.944 240.624 459.08 240.624C464.216 240.624 469.496 244.224 469.496 251.52C469.496 258.816 464.216 262.416 459.08 262.416ZM476.354 232.224H478.562V229.92H476.354V232.224ZM476.354 264H478.562V239.04H476.354V264ZM494.294 238.56C489.494 238.56 486.662 241.152 485.462 243.6V239.04H483.254V264H485.462V249.504C485.462 243.408 489.35 240.624 493.862 240.624C498.374 240.624 502.07 243.408 502.07 249.504V264H504.278V249.312C504.278 241.872 499.67 238.56 494.294 238.56ZM530.79 239.04V244.8H530.598C528.966 241.152 524.934 238.56 520.182 238.56C513.942 238.56 507.798 243.024 507.798 251.52C507.798 260.016 513.942 264.48 520.182 264.48C524.934 264.48 528.966 261.888 530.598 258.24H530.79V262.752C530.79 269.808 525.606 271.968 520.566 271.968C516.918 271.968 514.518 270.864 513.414 270.096V272.16C514.422 272.928 517.11 273.984 520.758 273.984C526.614 273.984 532.998 271.248 532.998 262.992V239.04H530.79ZM520.374 262.416C515.286 262.416 510.054 258.864 510.054 251.52C510.054 244.176 515.286 240.624 520.374 240.624C525.51 240.624 530.838 244.224 530.838 251.52C530.838 258.816 525.51 262.416 520.374 262.416ZM555.633 240.96V239.04H550.833V232.656H548.625V239.04H545.505V240.96H548.625V260.304C548.625 263.04 550.305 264.288 552.897 264.288C553.761 264.288 554.673 264.144 555.537 263.616V261.744C554.577 262.176 553.857 262.272 553.281 262.272C551.649 262.272 550.833 261.456 550.833 259.776V240.96H555.633ZM570.458 238.56C565.658 238.56 562.826 241.152 561.626 243.6V229.92H559.418V264H561.626V249.504C561.626 243.408 565.514 240.624 570.026 240.624C574.538 240.624 578.234 243.408 578.234 249.504V264H580.442V249.312C580.442 241.872 575.834 238.56 570.458 238.56ZM596.202 238.56C589.962 238.56 583.962 243.12 583.962 251.472C583.962 259.872 589.962 264.48 596.538 264.48C600.33 264.48 603.978 262.944 606.282 260.112L604.986 258.816C603.162 261.12 600.138 262.416 596.778 262.416C591.306 262.416 586.458 258.864 586.074 252.288H608.058C608.778 243.216 602.538 238.56 596.202 238.56ZM596.202 240.624C601.29 240.624 605.898 244.176 606.09 250.416H586.122C586.554 243.984 591.258 240.624 596.202 240.624ZM658.107 239.04L649.755 260.976L640.779 239.04H638.523L629.547 260.976L621.243 239.04H618.939L628.491 264H630.555L639.675 241.776L648.747 264H650.859L660.411 239.04H658.107ZM673.541 264.48C679.973 264.48 686.357 259.824 686.357 251.52C686.357 243.216 679.973 238.56 673.541 238.56C667.109 238.56 660.773 243.216 660.773 251.52C660.773 259.824 667.109 264.48 673.541 264.48ZM673.541 262.416C668.213 262.416 663.029 258.576 663.029 251.52C663.029 244.464 668.213 240.624 673.541 240.624C678.869 240.624 684.101 244.464 684.101 251.52C684.101 258.576 678.869 262.416 673.541 262.416ZM700.288 238.56C695.728 238.56 693.136 241.44 692.128 244.704V239.04H689.92V264H692.128V250.272C692.128 244.224 695.824 240.624 700.336 240.624C700.864 240.624 701.2 240.672 701.536 240.72V238.704C701.248 238.608 700.864 238.56 700.288 238.56ZM705.023 264H707.231V229.92H705.023V264ZM733.716 229.92V244.8H733.572C731.94 241.152 727.908 238.56 723.156 238.56C716.82 238.56 710.724 243.072 710.724 251.52C710.724 259.968 716.82 264.48 723.156 264.48C727.908 264.48 731.94 261.888 733.572 258.24H733.716V264H735.924V229.92H733.716ZM723.348 262.416C718.212 262.416 712.98 258.864 712.98 251.52C712.98 244.176 718.212 240.624 723.348 240.624C728.484 240.624 733.764 244.224 733.764 251.52C733.764 258.816 728.484 262.416 723.348 262.416ZM738.893 239.376H741.005L744.365 229.92H742.253L738.893 239.376ZM750.449 264.48C754.385 264.48 758.513 262.416 758.513 257.616C758.513 253.68 755.921 252 751.361 250.08L749.921 249.504C746.801 248.16 745.553 246.672 745.553 244.608C745.553 241.824 747.857 240.576 750.401 240.576C753.281 240.576 754.865 242.064 755.729 244.224L757.553 243.552C756.641 240.528 753.905 238.56 750.353 238.56C746.321 238.56 743.345 241.056 743.345 244.608C743.345 247.296 745.025 249.648 749.153 251.376L750.833 252.096C754.385 253.584 756.305 254.784 756.305 257.616C756.305 261.024 753.377 262.464 750.497 262.464C747.473 262.464 744.929 260.784 744.065 257.376L742.097 257.904C742.865 261.888 745.985 264.48 750.449 264.48ZM783.745 238.56C778.993 238.56 774.961 241.152 773.377 244.8H773.233V229.92H771.025V264H773.233V258.24H773.377C774.961 261.888 778.993 264.48 783.745 264.48C790.081 264.48 796.225 259.968 796.225 251.52C796.225 243.072 790.081 238.56 783.745 238.56ZM783.553 262.416C778.417 262.416 773.137 258.816 773.137 251.52C773.137 244.224 778.417 240.624 783.553 240.624C788.689 240.624 793.921 244.176 793.921 251.52C793.921 258.864 788.689 262.416 783.553 262.416ZM810.763 238.56C804.523 238.56 798.523 243.12 798.523 251.472C798.523 259.872 804.523 264.48 811.099 264.48C814.891 264.48 818.539 262.944 820.843 260.112L819.547 258.816C817.723 261.12 814.699 262.416 811.339 262.416C805.867 262.416 801.019 258.864 800.635 252.288H822.619C823.339 243.216 817.099 238.56 810.763 238.56ZM810.763 240.624C815.851 240.624 820.459 244.176 820.651 250.416H800.683C801.115 243.984 805.819 240.624 810.763 240.624ZM832.379 264.48C836.315 264.48 840.443 262.416 840.443 257.616C840.443 253.68 837.851 252 833.291 250.08L831.851 249.504C828.731 248.16 827.483 246.672 827.483 244.608C827.483 241.824 829.787 240.576 832.331 240.576C835.211 240.576 836.795 242.064 837.659 244.224L839.483 243.552C838.571 240.528 835.835 238.56 832.283 238.56C828.251 238.56 825.275 241.056 825.275 244.608C825.275 247.296 826.955 249.648 831.083 251.376L832.763 252.096C836.315 253.584 838.235 254.784 838.235 257.616C838.235 261.024 835.307 262.464 832.427 262.464C829.403 262.464 826.859 260.784 825.995 257.376L824.027 257.904C824.795 261.888 827.915 264.48 832.379 264.48ZM852.405 240.96V239.04H847.605V232.656H845.397V239.04H842.277V240.96H845.397V260.304C845.397 263.04 847.077 264.288 849.669 264.288C850.533 264.288 851.445 264.144 852.309 263.616V261.744C851.349 262.176 850.629 262.272 850.053 262.272C848.421 262.272 847.605 261.456 847.605 259.776V240.96H852.405ZM876.719 264.48C881.039 264.48 885.215 262.368 887.327 258.336L885.551 257.376C883.775 260.64 880.367 262.416 876.815 262.416C871.583 262.416 866.255 258.576 866.255 251.568C866.255 244.464 871.583 240.624 876.815 240.624C880.367 240.624 883.775 242.4 885.551 245.664L887.327 244.704C885.215 240.672 881.039 238.56 876.719 238.56C870.335 238.56 863.999 243.216 863.999 251.568C863.999 259.824 870.335 264.48 876.719 264.48ZM902.23 264.48C908.662 264.48 915.046 259.824 915.046 251.52C915.046 243.216 908.662 238.56 902.23 238.56C895.798 238.56 889.462 243.216 889.462 251.52C889.462 259.824 895.798 264.48 902.23 264.48ZM902.23 262.416C896.902 262.416 891.718 258.576 891.718 251.52C891.718 244.464 896.902 240.624 902.23 240.624C907.558 240.624 912.79 244.464 912.79 251.52C912.79 258.576 907.558 262.416 902.23 262.416ZM940.401 229.92V244.8H940.257C938.625 241.152 934.593 238.56 929.841 238.56C923.505 238.56 917.409 243.072 917.409 251.52C917.409 259.968 923.505 264.48 929.841 264.48C934.593 264.48 938.625 261.888 940.257 258.24H940.401V264H942.609V229.92H940.401ZM930.033 262.416C924.897 262.416 919.665 258.864 919.665 251.52C919.665 244.176 924.897 240.624 930.033 240.624C935.169 240.624 940.449 244.224 940.449 251.52C940.449 258.816 935.169 262.416 930.033 262.416ZM958.347 238.56C952.107 238.56 946.107 243.12 946.107 251.472C946.107 259.872 952.107 264.48 958.683 264.48C962.475 264.48 966.123 262.944 968.427 260.112L967.131 258.816C965.307 261.12 962.283 262.416 958.923 262.416C953.451 262.416 948.603 258.864 948.219 252.288H970.203C970.923 243.216 964.683 238.56 958.347 238.56ZM958.347 240.624C963.435 240.624 968.043 244.176 968.235 250.416H948.267C948.699 243.984 953.403 240.624 958.347 240.624ZM993.803 238.56C987.563 238.56 981.563 243.12 981.563 251.472C981.563 259.872 987.563 264.48 994.139 264.48C997.931 264.48 1001.58 262.944 1003.88 260.112L1002.59 258.816C1000.76 261.12 997.739 262.416 994.379 262.416C988.907 262.416 984.059 258.864 983.675 252.288H1005.66C1006.38 243.216 1000.14 238.56 993.803 238.56ZM993.803 240.624C998.891 240.624 1003.5 244.176 1003.69 250.416H983.723C984.155 243.984 988.859 240.624 993.803 240.624ZM1031 229.92V244.8H1030.86C1029.23 241.152 1025.19 238.56 1020.44 238.56C1014.11 238.56 1008.01 243.072 1008.01 251.52C1008.01 259.968 1014.11 264.48 1020.44 264.48C1025.19 264.48 1029.23 261.888 1030.86 258.24H1031V264H1033.21V229.92H1031ZM1020.63 262.416C1015.5 262.416 1010.27 258.864 1010.27 251.52C1010.27 244.176 1015.5 240.624 1020.63 240.624C1025.77 240.624 1031.05 244.224 1031.05 251.52C1031.05 258.816 1025.77 262.416 1020.63 262.416ZM1037.91 232.224H1040.12V229.92H1037.91V232.224ZM1037.91 264H1040.12V239.04H1037.91V264ZM1053.74 240.96V239.04H1048.94V232.656H1046.73V239.04H1043.61V240.96H1046.73V260.304C1046.73 263.04 1048.41 264.288 1051 264.288C1051.86 264.288 1052.78 264.144 1053.64 263.616V261.744C1052.68 262.176 1051.96 262.272 1051.38 262.272C1049.75 262.272 1048.94 261.456 1048.94 259.776V240.96H1053.74ZM1068.85 264.48C1075.29 264.48 1081.67 259.824 1081.67 251.52C1081.67 243.216 1075.29 238.56 1068.85 238.56C1062.42 238.56 1056.09 243.216 1056.09 251.52C1056.09 259.824 1062.42 264.48 1068.85 264.48ZM1068.85 262.416C1063.53 262.416 1058.34 258.576 1058.34 251.52C1058.34 244.464 1063.53 240.624 1068.85 240.624C1074.18 240.624 1079.41 244.464 1079.41 251.52C1079.41 258.576 1074.18 262.416 1068.85 262.416ZM1095.6 238.56C1091.04 238.56 1088.45 241.44 1087.44 244.704V239.04H1085.23V264H1087.44V250.272C1087.44 244.224 1091.14 240.624 1095.65 240.624C1096.18 240.624 1096.51 240.672 1096.85 240.72V238.704C1096.56 238.608 1096.18 238.56 1095.6 238.56Z" fill="black"/>
</svg>
