<svg width="14" height="14" viewBox="0 0 14 14" fill="none" xmlns="http://www.w3.org/2000/svg">
<path d="M7.70312 4L7.26046 2.97339C7.10239 2.60679 6.74141 2.36933 6.34219 2.36933H2.5C2.22386 2.36933 2 2.59319 2 2.86933V4.375V8" stroke="#11181C" stroke-width="1.25" stroke-linecap="round"/>
<path fill-rule="evenodd" clip-rule="evenodd" d="M7.07812 4C7.07812 3.65482 7.35795 3.375 7.70312 3.375H7.71945H7.73568H7.75182H7.76787H7.78382H7.79968H7.81546H7.83114H7.84673H7.86223H7.87763H7.89295H7.90818H7.92333H7.93838H7.95334H7.96822H7.98301H7.99771H8.01232H8.02685H8.04129H8.05565H8.06992H8.08411H8.09821H8.11222H8.12615H8.14H8.15377H8.16745H8.18105H8.19456H8.208H8.22135H8.23462H8.24781H8.26092H8.27394H8.28689H8.29976H8.31255H8.32526H8.33789H8.35044H8.36292H8.37532H8.38764H8.39988H8.41204H8.42413H8.43615H8.44809H8.45995H8.47174H8.48345H8.49509H8.50666H8.51815H8.52957H8.54091H8.55219H8.56339H8.57452H8.58557H8.59656H8.60748H8.61832H8.6291H8.6398H8.65044H8.661H8.6715H8.68193H8.69229H8.70258H8.71281H8.72297H8.73306H8.74309H8.75305H8.76294H8.77277H8.78254H8.79223H8.80187H8.81144H8.82095H8.83039H8.83977H8.84909H8.85835H8.86754H8.87667H8.88575H8.89476H8.90371H8.9126H8.92143H8.9302H8.93891H8.94756H8.95615H8.96469H8.97317H8.98159H8.98995H8.99826H9.00651H9.0147H9.02284H9.03092H9.03895H9.04692H9.05484H9.06271H9.07052H9.07827H9.08598H9.09363H9.10123H9.10878H9.11627H9.12372H9.13111H9.13845H9.14575H9.15299H9.16018H9.16733H9.17442H9.18147H9.18846H9.19541H9.20232H9.20917H9.21598H9.22274H9.22946H9.23613H9.24275H9.24933H9.25587H9.26236H9.2688H9.27521H9.28157H9.28788H9.29415H9.30038H9.30657H9.31272H9.31883H9.32489H9.33091H9.3369H9.34284H9.34874H9.35461H9.36043H9.36622H9.37197H9.37768H9.38335H9.38899H9.39459H9.40015H9.40567H9.41116H9.41662H9.42204H9.42742H9.43277H9.43809H9.44337H9.44862H9.45383H9.45901H9.46416H9.46928H9.47437H9.47942H9.48445H9.48944H9.4944H9.49933H9.50424H9.50911H9.51395H9.51877H9.52355H9.52831H9.53304H9.53775H9.54243H9.54708H9.5517H9.5563H9.56087H9.56542H9.56994H9.57444H9.57891H9.58336H9.58778H9.59219H9.59657H9.60092H9.60526H9.60957H9.61386H9.61813H9.62238H9.62661H9.63082H9.63501H9.63918H9.64333H9.64746H9.65157H9.65567H9.65975H9.66381H9.66785H9.67188H9.67588H9.67988H9.68386H9.68782H9.69177H9.6957H9.69962H9.70352H9.70741H9.71129H9.71516H9.71901H9.72285H9.72668H9.73049H9.7343H9.73809H9.74188H9.74565H9.74941H9.75317H9.75691H9.76065H9.76438H9.7681H9.77181H9.77551H9.77921H9.7829H9.78658H9.79026H9.79393H9.7976H9.80126H9.80492H9.80857H9.81222H9.81586H9.8195H9.82314H9.82678H9.83041H9.83404H9.83767H9.8413H9.84493H9.84855H9.85218H9.85581H9.85943H9.86306H9.86669H9.87032H9.87395H9.87758H9.88122H9.88486H9.8885H9.89215H9.8958H9.89945H9.90311H9.90677H9.91044H9.91411H9.91779H9.92148H9.92517H9.92887H9.93258H9.93629H9.94001H9.94375H9.94748H9.95123H9.95499H9.95876H9.96253H9.96632H9.97012H9.97393H9.97775H9.98158H9.98542H9.98928H9.99315H9.99703H10.0009H10.0048H10.0088H10.0127H10.0167H10.0206H10.0246H10.0286H10.0326H10.0366H10.0407H10.0448H10.0488H10.0529H10.0571H10.0612H10.0654H10.0695H10.0737H10.078H10.0822H10.0864H10.0907H10.095H10.0993H10.1037H10.108H10.1124H10.1168H10.1213H10.1257H10.1302H10.1347H10.1393H10.1438H10.1484H10.153H10.1576H10.1623H10.167H10.1717H10.1764H10.1812H10.186H10.1908H10.1957H10.2006H10.2055H10.2104H10.2154H10.2204H10.2254H10.2305H10.2356H10.2407H10.2459H10.2511H10.2563H10.2615H10.2668H10.2722H10.2775H10.2829H10.2884H10.2938H10.2993H10.3049H10.3104H10.3161H10.3217H10.3274H10.3331H10.3389H10.3447H10.3505H10.3564H10.3623H10.3683H10.3743H10.3803H10.3864H10.3925H10.3987H10.4049H10.4111H10.4174H10.4237H10.4301H10.4365H10.443H10.4495H10.456H10.4626H10.4693H10.4759H10.4827H10.4895H10.4963H10.5032H10.5101H10.517H10.5241H10.5311H10.5382H10.5454H10.5526H10.5599H10.5672H10.5745H10.5819H10.5894H10.5969H10.6045H10.6121H10.6198H10.6275H10.6353H10.6431H10.651H10.6589H10.6669H10.6749H10.683H10.6912H10.6994H10.7077H10.716H10.7244H10.7328H10.7413H10.7499H10.7585H10.7672H10.7759H10.7847H10.7935H10.8025H10.8114H10.8205H10.8296H10.8387H10.8479H10.8572H10.8665H10.8759H10.8854H10.8949H10.9045H10.9142H10.9239H10.9337H10.9435H10.9535H10.9634H10.9735H10.9836H10.9938H11.004H11.0144H11.0247H11.0352H11.0457H11.0563H11.067H11.0777H11.0885H11.0994H11.1103H11.1213H11.1324H11.1435H11.1548H11.1661H11.1774H11.1889H11.2004H11.212H11.2237H11.2354H11.2472H11.2591H11.2711H11.2831H11.2952H11.3074H11.3197H11.332H11.3444H11.3569H11.3695H11.3822H11.3949H11.4077H11.4206H11.4336H11.4467H11.4598H11.473H11.4863H11.4997C12.1205 3.375 12.625 3.87818 12.625 4.5V4.92724L12.6065 4.9457L11.375 6.17606V4.625H11.3695H11.3569H11.3444H11.332H11.3197H11.3074H11.2952H11.2831H11.2711H11.2591H11.2472H11.2354H11.2237H11.212H11.2004H11.1889H11.1774H11.1661H11.1548H11.1435H11.1324H11.1213H11.1103H11.0994H11.0885H11.0777H11.067H11.0563H11.0457H11.0352H11.0247H11.0144H11.004H10.9938H10.9836H10.9735H10.9634H10.9535H10.9435H10.9337H10.9239H10.9142H10.9045H10.8949H10.8854H10.8759H10.8665H10.8572H10.8479H10.8387H10.8296H10.8205H10.8114H10.8025H10.7935H10.7847H10.7759H10.7672H10.7585H10.7499H10.7413H10.7328H10.7244H10.716H10.7077H10.6994H10.6912H10.683H10.6749H10.6669H10.6589H10.651H10.6431H10.6353H10.6275H10.6198H10.6121H10.6045H10.5969H10.5894H10.5819H10.5745H10.5672H10.5599H10.5526H10.5454H10.5382H10.5311H10.5241H10.517H10.5101H10.5032H10.4963H10.4895H10.4827H10.4759H10.4693H10.4626H10.456H10.4495H10.443H10.4365H10.4301H10.4237H10.4174H10.4111H10.4049H10.3987H10.3925H10.3864H10.3803H10.3743H10.3683H10.3623H10.3564H10.3505H10.3447H10.3389H10.3331H10.3274H10.3217H10.3161H10.3104H10.3049H10.2993H10.2938H10.2884H10.2829H10.2775H10.2722H10.2668H10.2615H10.2563H10.2511H10.2459H10.2407H10.2356H10.2305H10.2254H10.2204H10.2154H10.2104H10.2055H10.2006H10.1957H10.1908H10.186H10.1812H10.1764H10.1717H10.167H10.1623H10.1576H10.153H10.1484H10.1438H10.1393H10.1347H10.1302H10.1257H10.1213H10.1168H10.1124H10.108H10.1037H10.0993H10.095H10.0907H10.0864H10.0822H10.078H10.0737H10.0695H10.0654H10.0612H10.0571H10.0529H10.0488H10.0448H10.0407H10.0366H10.0326H10.0286H10.0246H10.0206H10.0167H10.0127H10.0088H10.0048H10.0009H9.99703H9.99315H9.98928H9.98542H9.98158H9.97775H9.97393H9.97012H9.96632H9.96253H9.95876H9.95499H9.95123H9.94748H9.94375H9.94001H9.93629H9.93258H9.92887H9.92517H9.92148H9.91779H9.91411H9.91044H9.90677H9.90311H9.89945H9.8958H9.89215H9.8885H9.88486H9.88122H9.87758H9.87395H9.87032H9.86669H9.86306H9.85943H9.85581H9.85218H9.84855H9.84493H9.8413H9.83767H9.83404H9.83041H9.82678H9.82314H9.8195H9.81586H9.81222H9.80857H9.80492H9.80126H9.7976H9.79393H9.79026H9.78658H9.7829H9.77921H9.77551H9.77181H9.7681H9.76438H9.76065H9.75691H9.75317H9.74941H9.74565H9.74188H9.73809H9.7343H9.73049H9.72668H9.72285H9.71901H9.71516H9.71129H9.70741H9.70352H9.69962H9.6957H9.69177H9.68782H9.68386H9.67988H9.67588H9.67188H9.66785H9.66381H9.65975H9.65567H9.65157H9.64746H9.64333H9.63918H9.63501H9.63082H9.62661H9.62238H9.61813H9.61386H9.60957H9.60526H9.60092H9.59657H9.59219H9.58778H9.58336H9.57891H9.57444H9.56994H9.56542H9.56087H9.5563H9.5517H9.54708H9.54243H9.53775H9.53304H9.52831H9.52355H9.51877H9.51395H9.50911H9.50424H9.49933H9.4944H9.48944H9.48445H9.47942H9.47437H9.46928H9.46416H9.45901H9.45383H9.44862H9.44337H9.43809H9.43277H9.42742H9.42204H9.41662H9.41116H9.40567H9.40015H9.39459H9.38899H9.38335H9.37768H9.37197H9.36622H9.36043H9.35461H9.34874H9.34284H9.3369H9.33091H9.32489H9.31883H9.31272H9.30657H9.30038H9.29415H9.28788H9.28157H9.27521H9.2688H9.26236H9.25587H9.24933H9.24275H9.23613H9.22946H9.22274H9.21598H9.20917H9.20232H9.19541H9.18846H9.18147H9.17442H9.16733H9.16018H9.15299H9.14575H9.13845H9.13111H9.12372H9.11627H9.10878H9.10123H9.09363H9.08598H9.07827H9.07052H9.06271H9.05484H9.04692H9.03895H9.03092H9.02284H9.0147H9.00651H8.99826H8.98995H8.98159H8.97317H8.96469H8.95615H8.94756H8.93891H8.9302H8.92143H8.9126H8.90371H8.89476H8.88575H8.87667H8.86754H8.85835H8.84909H8.83977H8.83039H8.82095H8.81144H8.80187H8.79223H8.78254H8.77277H8.76294H8.75305H8.74309H8.73306H8.72297H8.71281H8.70258H8.69229H8.68193H8.6715H8.661H8.65044H8.6398H8.6291H8.61832H8.60748H8.59656H8.58557H8.57452H8.56339H8.55219H8.54091H8.52957H8.51815H8.50666H8.49509H8.48345H8.47174H8.45995H8.44809H8.43615H8.42413H8.41204H8.39988H8.38764H8.37532H8.36292H8.35044H8.33789H8.32526H8.31255H8.29976H8.28689H8.27394H8.26092H8.24781H8.23462H8.22135H8.208H8.19456H8.18105H8.16745H8.15377H8.14H8.12615H8.11222H8.09821H8.08411H8.06992H8.05565H8.04129H8.02685H8.01232H7.99771H7.98301H7.96822H7.95334H7.93838H7.92333H7.90818H7.89295H7.87763H7.86223H7.84673H7.83114H7.81546H7.79968H7.78382H7.76787H7.75182H7.73568H7.71945H7.70312C7.35795 4.625 7.07812 4.34518 7.07812 4ZM6.5465 11H2.625V5H1.375V11.125C1.375 11.7463 1.87868 12.25 2.5 12.25H5.29532L5.94495 11.601L6.5465 11Z" fill="#11181C"/>
<path d="M12 7.31372L7.31372 12M12 12L7.31372 7.31372" stroke="#11181C" stroke-width="1.25" stroke-linecap="round"/>
</svg>
