<svg width="14" height="14" viewBox="0 0 14 14" fill="none" xmlns="http://www.w3.org/2000/svg">
<path fill-rule="evenodd" clip-rule="evenodd" d="M4.74672 9.48686L4.07031 6.03232L3.38584 9.48686H2.17614L1.00281 4.00781H2.27559L2.81566 7.41754L3.48439 4.01752H4.65865L5.31819 7.41176L5.85736 4.00781H7.13014L5.9568 9.48686H4.74672Z" fill="#787D87"/>
<path fill-rule="evenodd" clip-rule="evenodd" d="M8.64907 9.32382C8.313 9.13287 8.08213 8.81954 7.94725 8.4078C7.8147 8.00318 7.75317 7.44207 7.75317 6.73677C7.75317 6.03845 7.81141 5.48454 7.9369 5.08716L7.93755 5.08512C8.07231 4.67373 8.3034 4.36258 8.64088 4.17794C8.96806 3.99257 9.41119 3.9104 9.9496 3.9104C10.3406 3.9104 10.6632 3.95585 10.8967 4.06485C11.0079 4.11675 11.1099 4.18844 11.2033 4.27745V2.03027H12.4077V9.4856H11.2033V9.18983C11.0945 9.29074 10.98 9.37096 10.8591 9.42752C10.6327 9.53648 10.3335 9.58252 9.97867 9.58252C9.4339 9.58252 8.98592 9.50355 8.65375 9.3264L8.64907 9.32382ZM11.1139 7.85508C11.1841 7.60311 11.2227 7.23354 11.2227 6.73677C11.2227 6.24602 11.1841 5.88331 11.1141 5.63844C11.0457 5.39902 10.9401 5.25863 10.8149 5.18266L10.8077 5.17826C10.6804 5.09342 10.4713 5.03726 10.1531 5.03726C9.80785 5.03726 9.5719 5.09359 9.42256 5.1832L9.41829 5.18576C9.28002 5.26412 9.16722 5.40602 9.09399 5.64263C9.01876 5.88566 8.97694 6.24668 8.97694 6.73677C8.97694 7.23363 9.01882 7.59774 9.09399 7.8406C9.1673 8.07745 9.28097 8.22477 9.42256 8.30972C9.5719 8.39933 9.80785 8.45566 10.1531 8.45566C10.4721 8.45566 10.683 8.40265 10.8114 8.32216C10.9396 8.23944 11.0456 8.09373 11.1139 7.85508Z" fill="#787D87"/>
<rect x="1.14087" y="10.7188" width="11.7183" height="1.26565" rx="0.632824" fill="#787D87"/>
</svg>
