<svg width="400" height="92" viewBox="0 0 400 92" fill="none" xmlns="http://www.w3.org/2000/svg">
<g clip-path="url(#clip0_2891_317)">
<g clip-path="url(#clip1_2891_317)">
<path d="M271.754 -1.46563C271.982 -0.681001 272.04 0.13307 271.929 0.976585C272.04 0.13307 272.302 -0.638981 272.714 -1.33957C273.137 -2.03882 273.659 -2.62679 274.279 -3.10357C274.9 -3.58035 275.602 -3.92757 276.386 -4.14525C277.17 -4.37308 277.984 -4.43165 278.828 -4.32093C277.984 -4.43165 277.212 -4.69322 276.512 -5.10567C275.83 -5.51179 275.232 -6.0428 274.748 -6.67085C274.266 -7.30083 273.907 -8.01606 273.691 -8.77902C273.473 -9.56229 273.42 -10.3757 273.53 -11.2192C273.42 -10.3757 273.153 -9.60431 272.73 -8.90508C272.318 -8.20452 271.801 -7.61585 271.18 -7.13908C270.55 -6.6573 269.835 -6.29871 269.072 -6.08215C268.289 -5.86447 267.476 -5.81099 266.632 -5.92171C267.476 -5.81099 268.247 -5.54433 268.946 -5.12173C269.647 -4.70929 270.235 -4.19265 270.712 -3.5718C271.189 -2.95095 271.536 -2.24892 271.754 -1.46563Z" fill="black"/>
</g>
<path fill-rule="evenodd" clip-rule="evenodd" d="M292.168 -7.22212C291.988 -7.2458 291.823 -7.11874 291.799 -6.93833L290.856 0.248493L290.202 0.162736L291.146 -7.02408C291.217 -7.56533 291.713 -7.94651 292.254 -7.87547L301.007 -6.72664C301.443 -6.66934 301.593 -6.11283 301.243 -5.84466L295.145 -1.16152L296.664 -0.96221L296.752 -1.63597L297.405 -1.55021L297.296 -0.713117C297.26 -0.442483 297.012 -0.251923 296.741 -0.287449L294.406 -0.593955L293.136 0.381623L298.227 1.04991L298.763 -3.03351L299.416 -2.94775L298.881 1.13567C298.833 1.49649 298.502 1.75062 298.141 1.70326L292.397 0.949214L291.103 1.9425L299.461 3.03957C299.642 3.06325 299.807 2.93619 299.831 2.75578L300.774 -4.43104L301.428 -4.34529L300.484 2.84153C300.413 3.38276 299.917 3.76396 299.376 3.69292L290.623 2.54409C290.187 2.48679 290.037 1.93027 290.386 1.66206L296.462 -3.0033L294.964 -3.19993L294.878 -2.54658L294.224 -2.63234L294.332 -3.44902C294.367 -3.71965 294.615 -3.91024 294.886 -3.87472L297.201 -3.57089L298.494 -4.56418L293.403 -5.23247L292.867 -1.14905L292.213 -1.2348L292.749 -5.31822C292.797 -5.67905 293.128 -5.93317 293.488 -5.88581L299.233 -5.13178L300.527 -6.12505L292.168 -7.22212Z" fill="black"/>
<g clip-path="url(#clip2_2891_317)">
<path d="M318.608 -3.5865L317.297 -0.86051C317.23 -0.720996 317.131 -0.59919 317.008 -0.504903C316.885 -0.410606 316.742 -0.34647 316.59 -0.317644L313.618 0.245481L316.344 1.5565C316.484 1.62361 316.605 1.72253 316.7 1.84532C316.794 1.9681 316.858 2.11131 316.887 2.26344L317.45 5.23541L318.761 2.50943C318.828 2.36989 318.927 2.24809 319.05 2.1538C319.173 2.0595 319.316 1.99537 319.468 1.96654L322.44 1.40342L319.714 0.0923962C319.574 0.0252898 319.453 -0.0736318 319.358 -0.19642C319.264 -0.319201 319.2 -0.46241 319.171 -0.614516L318.608 -3.5865Z" fill="black" fill-opacity="0.15" stroke="black" stroke-width="1.05432" stroke-linecap="round" stroke-linejoin="round"/>
<path d="M321.713 4.26178L321.408 6.58483M320.399 5.27082L322.722 5.57573" stroke="black" stroke-opacity="0.75" stroke-width="1.09825" stroke-linecap="round" stroke-linejoin="round"/>
</g>
<path fill-rule="evenodd" clip-rule="evenodd" d="M337.467 -1.27635C337.287 -1.30003 337.121 -1.17297 337.098 -0.992557L336.154 6.19426L335.501 6.10851L336.444 -1.07831C336.515 -1.61956 337.012 -2.00074 337.553 -1.9297L346.306 -0.780874C346.742 -0.723566 346.891 -0.16706 346.542 0.101113L340.444 4.78425L341.962 4.98356L342.051 4.3098L342.704 4.39556L342.594 5.23265C342.559 5.50329 342.311 5.69385 342.04 5.65832L339.705 5.35182L338.435 6.32739L343.526 6.99568L344.062 2.91226L344.715 2.99802L344.179 7.08144C344.132 7.44226 343.801 7.69639 343.44 7.64903L337.695 6.89498L336.402 7.88827L344.76 8.98534C344.941 9.00902 345.106 8.88196 345.13 8.70155L346.073 1.51473L346.726 1.60048L345.783 8.7873C345.712 9.32854 345.216 9.70973 344.674 9.63869L335.922 8.48986C335.485 8.43256 335.336 7.87605 335.685 7.60783L341.76 2.94247L340.262 2.74584L340.177 3.39919L339.523 3.31343L339.63 2.49675C339.666 2.22612 339.914 2.03553 340.185 2.07105L342.5 2.37488L343.793 1.38159L338.701 0.713304L338.165 4.79672L337.512 4.71097L338.048 0.627548C338.095 0.266717 338.426 0.0125953 338.787 0.0599568L344.532 0.813995L345.825 -0.179278L337.467 -1.27635Z" fill="black"/>
<g clip-path="url(#clip3_2891_317)">
<path d="M362.351 10.4259C362.579 11.2105 362.638 12.0246 362.527 12.8681C362.638 12.0246 362.899 11.2526 363.312 10.552C363.734 9.85272 364.256 9.26475 364.877 8.78797C365.498 8.31119 366.2 7.96397 366.983 7.74629C367.768 7.51846 368.582 7.45989 369.425 7.57061C368.582 7.45989 367.81 7.19832 367.109 6.78587C366.428 6.37975 365.83 5.84874 365.345 5.22069C364.864 4.59071 364.505 3.87548 364.288 3.11252C364.071 2.32926 364.017 1.51585 364.128 0.67231C364.017 1.51585 363.751 2.28723 363.328 2.98646C362.916 3.68702 362.399 4.27569 361.778 4.75246C361.148 5.23425 360.433 5.59283 359.67 5.80939C358.887 6.02707 358.073 6.08055 357.23 5.96983C358.073 6.08055 358.845 6.34721 359.544 6.76981C360.244 7.18225 360.833 7.69889 361.31 8.31974C361.787 8.94059 362.134 9.64262 362.351 10.4259Z" fill="black"/>
</g>
<path fill-rule="evenodd" clip-rule="evenodd" d="M382.766 4.66945C382.585 4.64577 382.42 4.77283 382.396 4.95324L381.453 12.1401L380.8 12.0543L381.743 4.86749C381.814 4.32624 382.31 3.94506 382.852 4.0161L391.604 5.16493C392.041 5.22223 392.19 5.77874 391.841 6.04691L385.743 10.7301L387.261 10.9294L387.349 10.2556L388.003 10.3414L387.893 11.1785C387.857 11.4491 387.609 11.6396 387.339 11.6041L385.003 11.2976L383.733 12.2732L388.825 12.9415L389.361 8.85806L390.014 8.94382L389.478 13.0272C389.431 13.3881 389.1 13.6422 388.739 13.5948L382.994 12.8408L381.701 13.8341L390.059 14.9311C390.239 14.9548 390.405 14.8278 390.428 14.6473L391.372 7.46053L392.025 7.54628L391.082 14.7331C391.011 15.2743 390.514 15.6555 389.973 15.5845L381.22 14.4357C380.784 14.3784 380.635 13.8218 380.984 13.5536L387.059 8.88827L385.561 8.69164L385.475 9.34499L384.822 9.25923L384.929 8.44255C384.965 8.17192 385.213 7.98133 385.483 8.01685L387.798 8.32068L389.091 7.32739L384 6.6591L383.464 10.7425L382.811 10.6568L383.347 6.57335C383.394 6.21252 383.725 5.9584 384.086 6.00576L389.831 6.7598L391.124 5.76652L382.766 4.66945Z" fill="black"/>
<g clip-path="url(#clip4_2891_317)">
<path d="M78.6674 65.3488C78.8952 66.1334 78.9538 66.9475 78.8431 67.791C78.9538 66.9475 79.2154 66.1754 79.6278 65.4748C80.0504 64.7756 80.5721 64.1876 81.193 63.7108C81.8138 63.234 82.5159 62.8868 83.2992 62.6691C84.0838 62.4413 84.8979 62.3827 85.7414 62.4935C84.8979 62.3827 84.1258 62.1212 83.4252 61.7087C82.744 61.3026 82.1456 60.7716 81.6612 60.1435C81.1794 59.5136 80.8209 58.7983 80.6043 58.0354C80.3866 57.2521 80.3331 56.4387 80.4439 55.5952C80.3331 56.4387 80.0665 57.2101 79.6439 57.9093C79.2314 58.6099 78.7148 59.1985 78.0939 59.6753C77.464 60.1571 76.7487 60.5157 75.9858 60.7322C75.2025 60.9499 74.3891 61.0034 73.5456 60.8927C74.3891 61.0034 75.1605 61.2701 75.8597 61.6927C76.5603 62.1051 77.1489 62.6217 77.6257 63.2426C78.1025 63.8634 78.4497 64.5655 78.6674 65.3488Z" fill="black"/>
</g>
<g clip-path="url(#clip5_2891_317)">
<path fill-rule="evenodd" clip-rule="evenodd" d="M99.0818 59.5923C98.9014 59.5686 98.7359 59.6957 98.7122 59.8761L97.7689 67.0629L97.1155 66.9771L98.0589 59.7903C98.1299 59.2491 98.6263 58.8679 99.1675 58.9389L107.92 60.0878C108.357 60.1451 108.506 60.7016 108.157 60.9698L102.058 65.6529L103.577 65.8522L103.665 65.1784L104.319 65.2642L104.209 66.1013C104.173 66.3719 103.925 66.5625 103.655 66.527L101.319 66.2205L100.049 67.196L105.14 67.8643L105.676 63.7809L106.33 63.8667L105.794 67.9501C105.746 68.3109 105.416 68.565 105.055 68.5177L99.3099 67.7636L98.0165 68.7569L106.375 69.854C106.555 69.8777 106.721 69.7506 106.744 69.5702L107.688 62.3834L108.341 62.4691L107.398 69.6559C107.327 70.1972 106.83 70.5784 106.289 70.5073L97.5364 69.3585C97.0998 69.3012 96.9505 68.7447 97.2997 68.4765L103.375 63.8111L101.877 63.6145L101.791 64.2678L101.138 64.1821L101.245 63.3654C101.28 63.0948 101.529 62.9042 101.799 62.9397L104.114 63.2435L105.407 62.2502L100.316 61.5819L99.78 65.6654L99.1266 65.5796L99.6626 61.4962C99.71 61.1354 100.041 60.8812 100.402 60.9286L106.146 61.6826L107.44 60.6894L99.0818 59.5923Z" fill="black"/>
</g>
<g clip-path="url(#clip6_2891_317)">
<path d="M125.521 63.228L124.21 65.9539C124.143 66.0935 124.044 66.2153 123.921 66.3096C123.798 66.4038 123.655 66.468 123.503 66.4968L120.531 67.0599L123.257 68.371C123.396 68.4381 123.518 68.537 123.612 68.6598C123.707 68.7826 123.771 68.9258 123.8 69.0779L124.363 72.0499L125.674 69.3239C125.741 69.1843 125.84 69.0625 125.963 68.9683C126.085 68.874 126.229 68.8098 126.381 68.781L129.353 68.2179L126.627 66.9068C126.487 66.8397 126.365 66.7408 126.271 66.618C126.177 66.4953 126.113 66.352 126.084 66.1999L125.521 63.228Z" fill="black" fill-opacity="0.15" stroke="black" stroke-width="1.05432" stroke-linecap="round" stroke-linejoin="round"/>
<path d="M121.563 61.8785L121.258 64.2015M120.249 62.8876L122.572 63.1925" stroke="black" stroke-opacity="0.75" stroke-width="1.09825" stroke-linecap="round" stroke-linejoin="round"/>
<path d="M128.626 71.0762L128.321 73.3992M127.312 72.0852L129.635 72.3901" stroke="black" stroke-opacity="0.75" stroke-width="1.09825" stroke-linecap="round" stroke-linejoin="round"/>
</g>
<g clip-path="url(#clip7_2891_317)">
<path fill-rule="evenodd" clip-rule="evenodd" d="M144.381 65.5381C144.2 65.5144 144.035 65.6414 144.011 65.8219L143.068 73.0087L142.414 72.9229L143.358 65.7361C143.429 65.1948 143.925 64.8137 144.466 64.8847L153.219 66.0335C153.655 66.0908 153.805 66.6473 153.456 66.9155L147.357 71.5987L148.876 71.798L148.964 71.1242L149.618 71.21L149.508 72.0471C149.472 72.3177 149.224 72.5083 148.953 72.4727L146.618 72.1662L145.348 73.1418L150.439 73.8101L150.975 69.7267L151.629 69.8124L151.093 73.8958C151.045 74.2567 150.714 74.5108 150.354 74.4634L144.609 73.7094L143.315 74.7027L151.674 75.7997C151.854 75.8234 152.019 75.6964 152.043 75.516L152.986 68.3291L153.64 68.4149L152.696 75.6017C152.625 76.1429 152.129 76.5241 151.588 76.4531L142.835 75.3043C142.399 75.247 142.249 74.6905 142.599 74.4222L148.674 69.7569L147.176 69.5602L147.09 70.2136L146.437 70.1278L146.544 69.3112C146.579 69.0405 146.827 68.8499 147.098 68.8855L149.413 69.1893L150.706 68.196L145.615 67.5277L145.079 71.6111L144.425 71.5254L144.961 67.442C145.009 67.0811 145.34 66.827 145.701 66.8744L151.445 67.6284L152.739 66.6351L144.381 65.5381Z" fill="black"/>
</g>
<g clip-path="url(#clip8_2891_317)">
<path d="M169.265 77.2403C169.493 78.025 169.551 78.839 169.44 79.6825C169.551 78.839 169.813 78.067 170.225 77.3664C170.648 76.6671 171.17 76.0792 171.79 75.6024C172.411 75.1256 173.113 74.7784 173.897 74.5607C174.681 74.3329 175.495 74.2743 176.339 74.385C175.495 74.2743 174.723 74.0127 174.023 73.6003C173.341 73.1942 172.743 72.6632 172.259 72.0351C171.777 71.4051 171.418 70.6899 171.202 69.9269C170.984 69.1437 170.931 68.3303 171.041 67.4867C170.931 68.3303 170.664 69.1017 170.241 69.8009C169.829 70.5014 169.312 71.0901 168.691 71.5669C168.061 72.0487 167.346 72.4073 166.583 72.6238C165.8 72.8415 164.987 72.895 164.143 72.7842C164.987 72.895 165.758 73.1616 166.457 73.5842C167.158 73.9967 167.746 74.5133 168.223 75.1342C168.7 75.755 169.047 76.457 169.265 77.2403Z" fill="black"/>
</g>
<g clip-path="url(#clip9_2891_317)">
<path fill-rule="evenodd" clip-rule="evenodd" d="M189.679 71.4839C189.499 71.4602 189.333 71.5872 189.31 71.7677L188.366 78.9545L187.713 78.8687L188.656 71.6819C188.727 71.1406 189.224 70.7595 189.765 70.8305L198.517 71.9793C198.954 72.0366 199.103 72.5931 198.754 72.8613L192.656 77.5445L194.174 77.7438L194.263 77.07L194.916 77.1558L194.806 77.9929C194.771 78.2635 194.523 78.4541 194.252 78.4185L191.917 78.112L190.646 79.0876L195.738 79.7559L196.274 75.6725L196.927 75.7582L196.391 79.8416C196.344 80.2025 196.013 80.4566 195.652 80.4092L189.907 79.6552L188.614 80.6485L196.972 81.7455C197.153 81.7692 197.318 81.6422 197.342 81.4618L198.285 74.2749L198.938 74.3607L197.995 81.5475C197.924 82.0887 197.428 82.4699 196.886 82.3989L188.134 81.2501C187.697 81.1928 187.548 80.6363 187.897 80.368L193.972 75.7027L192.474 75.506L192.388 76.1594L191.735 76.0736L191.842 75.257C191.878 74.9863 192.126 74.7957 192.397 74.8313L194.711 75.1351L196.005 74.1418L190.913 73.4735L190.377 77.5569L189.724 77.4712L190.26 73.3878C190.307 73.0269 190.638 72.7728 190.999 72.8202L196.744 73.5742L198.037 72.5809L189.679 71.4839Z" fill="black"/>
</g>
<g clip-path="url(#clip10_2891_317)">
<path d="M216.118 75.1195L214.807 77.8455C214.74 77.985 214.641 78.1068 214.518 78.2011C214.396 78.2954 214.252 78.3595 214.1 78.3883L211.128 78.9514L213.854 80.2625C213.994 80.3296 214.116 80.4285 214.21 80.5513C214.304 80.6741 214.368 80.8173 214.397 80.9694L214.96 83.9414L216.271 81.2154C216.338 81.0759 216.437 80.9541 216.56 80.8598C216.683 80.7655 216.826 80.7013 216.978 80.6725L219.95 80.1094L217.224 78.7984C217.085 78.7313 216.963 78.6323 216.869 78.5095C216.774 78.3868 216.71 78.2436 216.681 78.0914L216.118 75.1195Z" fill="black" fill-opacity="0.15" stroke="black" stroke-width="1.05432" stroke-linecap="round" stroke-linejoin="round"/>
<path d="M212.16 73.77L211.855 76.093M210.846 74.7791L213.169 75.084" stroke="black" stroke-opacity="0.75" stroke-width="1.09825" stroke-linecap="round" stroke-linejoin="round"/>
<path d="M219.223 82.9677L218.918 85.2908M217.91 83.9768L220.233 84.2817" stroke="black" stroke-opacity="0.75" stroke-width="1.09825" stroke-linecap="round" stroke-linejoin="round"/>
</g>
<g clip-path="url(#clip11_2891_317)">
<path fill-rule="evenodd" clip-rule="evenodd" d="M234.978 77.4296C234.798 77.4059 234.632 77.533 234.609 77.7134L233.665 84.9002L233.012 84.8145L233.955 77.6277C234.026 77.0864 234.523 76.7052 235.064 76.7763L243.817 77.9251C244.253 77.9824 244.402 78.5389 244.053 78.8071L237.955 83.4902L239.473 83.6895L239.562 83.0158L240.215 83.1015L240.105 83.9386C240.07 84.2093 239.822 84.3998 239.551 84.3643L237.216 84.0578L235.945 85.0334L241.037 85.7017L241.573 81.6182L242.226 81.704L241.69 85.7874C241.643 86.1482 241.312 86.4024 240.951 86.355L235.206 85.601L233.913 86.5942L242.271 87.6913C242.452 87.715 242.617 87.5879 242.641 87.4075L243.584 80.2207L244.237 80.3065L243.294 87.4933C243.223 88.0345 242.727 88.4157 242.185 88.3447L233.433 87.1958C232.996 87.1385 232.847 86.582 233.196 86.3138L239.271 81.6484L237.773 81.4518L237.688 82.1052L237.034 82.0194L237.141 81.2027C237.177 80.9321 237.425 80.7415 237.696 80.777L240.01 81.0809L241.304 80.0876L236.212 79.4193L235.676 83.5027L235.023 83.4169L235.559 79.3335C235.606 78.9727 235.937 78.7186 236.298 78.7659L242.043 79.52L243.336 78.5267L234.978 77.4296Z" fill="black"/>
</g>
<g clip-path="url(#clip12_2891_317)">
<path d="M259.862 89.1318C260.09 89.9165 260.149 90.7305 260.038 91.5741C260.149 90.7305 260.41 89.9585 260.823 89.2579C261.245 88.5587 261.767 87.9707 262.388 87.4939C263.009 87.0171 263.711 86.6699 264.494 86.4522C265.279 86.2244 266.093 86.1658 266.936 86.2765C266.093 86.1658 265.321 85.9042 264.62 85.4918C263.939 85.0857 263.34 84.5547 262.856 83.9266C262.374 83.2966 262.016 82.5814 261.799 81.8185C261.581 81.0352 261.528 80.2218 261.639 79.3782C261.528 80.2218 261.261 80.9932 260.839 81.6924C260.426 82.393 259.91 82.9816 259.289 83.4584C258.659 83.9402 257.944 84.2988 257.181 84.5153C256.397 84.733 255.584 84.7865 254.74 84.6758C255.584 84.7865 256.355 85.0531 257.055 85.4757C257.755 85.8882 258.344 86.4048 258.821 87.0257C259.297 87.6465 259.645 88.3485 259.862 89.1318Z" fill="black"/>
</g>
<g clip-path="url(#clip13_2891_317)">
<path d="M350.46 101.023C350.688 101.808 350.746 102.622 350.636 103.466C350.746 102.622 351.008 101.85 351.42 101.15C351.843 100.45 352.365 99.8623 352.985 99.3855C353.606 98.9087 354.308 98.5615 355.092 98.3438C355.876 98.116 356.69 98.0574 357.534 98.1681C356.69 98.0574 355.918 97.7958 355.218 97.3834C354.536 96.9773 353.938 96.4463 353.454 95.8182C352.972 95.1882 352.613 94.473 352.397 93.7101C352.179 92.9268 352.126 92.1134 352.236 91.2698C352.126 92.1134 351.859 92.8848 351.436 93.584C351.024 94.2846 350.507 94.8732 349.886 95.35C349.256 95.8318 348.541 96.1904 347.778 96.4069C346.995 96.6246 346.182 96.6781 345.338 96.5674C346.182 96.6781 346.953 96.9447 347.652 97.3673C348.353 97.7798 348.941 98.2964 349.418 98.9173C349.895 99.5381 350.242 100.24 350.46 101.023Z" fill="black"/>
</g>
<g clip-path="url(#clip14_2891_317)">
<path d="M84.6132 20.05C84.841 20.8346 84.8996 21.6487 84.7889 22.4922C84.8996 21.6487 85.1612 20.8766 85.5736 20.1761C85.9962 19.4768 86.5179 18.8888 87.1388 18.4121C87.7596 17.9353 88.4617 17.5881 89.245 17.3704C90.0296 17.1425 90.8437 17.084 91.6872 17.1947C90.8437 17.084 90.0716 16.8224 89.371 16.41C88.6898 16.0038 88.0914 15.4728 87.607 14.8448C87.1252 14.2148 86.7667 13.4996 86.5501 12.7366C86.3324 11.9533 86.2789 11.1399 86.3897 10.2964C86.2789 11.1399 86.0123 11.9113 85.5897 12.6105C85.1772 13.3111 84.6606 13.8998 84.0397 14.3765C83.4098 14.8583 82.6945 15.2169 81.9316 15.4335C81.1483 15.6512 80.3349 15.7046 79.4914 15.5939C80.3349 15.7046 81.1063 15.9713 81.8055 16.3939C82.5061 16.8063 83.0947 17.323 83.5715 17.9438C84.0483 18.5647 84.3955 19.2667 84.6132 20.05Z" fill="black"/>
</g>
<g clip-path="url(#clip15_2891_317)">
<path fill-rule="evenodd" clip-rule="evenodd" d="M105.028 14.2935C104.847 14.2699 104.682 14.3969 104.658 14.5773L103.715 21.7642L103.062 21.6784L104.005 14.4916C104.076 13.9503 104.572 13.5692 105.114 13.6402L113.866 14.789C114.303 14.8463 114.452 15.4028 114.103 15.671L108.005 20.3542L109.523 20.5535L109.611 19.8797L110.265 19.9655L110.155 20.8026C110.119 21.0732 109.871 21.2637 109.601 21.2282L107.265 20.9217L105.995 21.8973L111.087 22.5656L111.623 18.4822L112.276 18.5679L111.74 22.6513C111.693 23.0122 111.362 23.2663 111.001 23.2189L105.256 22.4649L103.963 23.4582L112.321 24.5552C112.501 24.5789 112.667 24.4519 112.69 24.2714L113.634 17.0846L114.287 17.1704L113.344 24.3572C113.273 24.8984 112.776 25.2796 112.235 25.2086L103.482 24.0598C103.046 24.0025 102.897 23.4459 103.246 23.1777L109.321 18.5124L107.823 18.3157L107.737 18.9691L107.084 18.8833L107.191 18.0666C107.226 17.796 107.475 17.6054 107.745 17.641L110.06 17.9448L111.353 16.9515L106.262 16.2832L105.726 20.3666L105.073 20.2809L105.609 16.1974C105.656 15.8366 105.987 15.5825 106.348 15.6299L112.093 16.3839L113.386 15.3906L105.028 14.2935Z" fill="black"/>
</g>
<g clip-path="url(#clip16_2891_317)">
<path d="M131.467 17.9292L130.156 20.6551C130.088 20.7947 129.99 20.9165 129.867 21.0108C129.744 21.105 129.601 21.1692 129.449 21.198L126.477 21.7611L129.203 23.0722C129.342 23.1393 129.464 23.2382 129.558 23.361C129.653 23.4838 129.717 23.627 129.746 23.7791L130.309 26.7511L131.62 24.0251C131.687 23.8855 131.786 23.7637 131.909 23.6695C132.031 23.5752 132.175 23.511 132.327 23.4822L135.299 22.9191L132.573 21.6081C132.433 21.5409 132.311 21.442 132.217 21.3192C132.123 21.1965 132.059 21.0532 132.03 20.9011L131.467 17.9292Z" fill="black" fill-opacity="0.15" stroke="black" stroke-width="1.05432" stroke-linecap="round" stroke-linejoin="round"/>
<path d="M127.508 16.5797L127.204 18.9027M126.194 17.5888L128.517 17.8937" stroke="black" stroke-opacity="0.75" stroke-width="1.09825" stroke-linecap="round" stroke-linejoin="round"/>
<path d="M134.572 25.7774L134.267 28.1005M133.258 26.7864L135.581 27.0914" stroke="black" stroke-opacity="0.75" stroke-width="1.09825" stroke-linecap="round" stroke-linejoin="round"/>
</g>
<g clip-path="url(#clip17_2891_317)">
<path fill-rule="evenodd" clip-rule="evenodd" d="M150.327 20.2393C150.146 20.2156 149.981 20.3427 149.957 20.5231L149.014 27.7099L148.36 27.6242L149.304 20.4374C149.375 19.8961 149.871 19.5149 150.412 19.586L159.165 20.7348C159.602 20.7921 159.751 21.3486 159.402 21.6168L153.303 26.2999L154.822 26.4992L154.91 25.8255L155.564 25.9112L155.454 26.7483C155.418 27.019 155.17 27.2095 154.899 27.174L152.564 26.8675L151.294 27.8431L156.385 28.5114L156.921 24.4279L157.575 24.5137L157.039 28.5971C156.991 28.9579 156.66 29.2121 156.3 29.1647L150.555 28.4107L149.261 29.4039L157.62 30.501C157.8 30.5247 157.965 30.3976 157.989 30.2172L158.932 23.0304L159.586 23.1162L158.642 30.303C158.571 30.8442 158.075 31.2254 157.534 31.1544L148.781 30.0055C148.345 29.9482 148.195 29.3917 148.545 29.1235L154.62 24.4581L153.122 24.2615L153.036 24.9149L152.383 24.8291L152.49 24.0124C152.525 23.7418 152.774 23.5512 153.044 23.5867L155.359 23.8905L156.652 22.8973L151.561 22.229L151.025 26.3124L150.372 26.2266L150.907 22.1432C150.955 21.7824 151.286 21.5283 151.647 21.5756L157.391 22.3297L158.685 21.3364L150.327 20.2393Z" fill="black"/>
</g>
<g clip-path="url(#clip18_2891_317)">
<path d="M175.211 31.9416C175.439 32.7262 175.497 33.5403 175.387 34.3838C175.497 33.5403 175.759 32.7682 176.171 32.0676C176.594 31.3684 177.116 30.7804 177.736 30.3036C178.357 29.8268 179.059 29.4796 179.843 29.2619C180.627 29.0341 181.441 28.9755 182.285 29.0863C181.441 28.9755 180.669 28.714 179.969 28.3015C179.287 27.8954 178.689 27.3644 178.205 26.7363C177.723 26.1064 177.364 25.3911 177.148 24.6282C176.93 23.8449 176.877 23.0315 176.987 22.188C176.877 23.0315 176.61 23.8029 176.187 24.5021C175.775 25.2027 175.258 25.7913 174.637 26.2681C174.007 26.7499 173.292 27.1085 172.529 27.325C171.746 27.5427 170.933 27.5962 170.089 27.4855C170.933 27.5962 171.704 27.8629 172.403 28.2855C173.104 28.6979 173.692 29.2145 174.169 29.8354C174.646 30.4562 174.993 31.1583 175.211 31.9416Z" fill="black"/>
</g>
<path fill-rule="evenodd" clip-rule="evenodd" d="M195.625 26.1851C195.445 26.1614 195.279 26.2884 195.256 26.4689L194.312 33.6557L193.659 33.5699L194.602 26.3831C194.673 25.8418 195.17 25.4607 195.711 25.5317L204.463 26.6805C204.9 26.7378 205.049 27.2944 204.7 27.5625L198.602 32.2457L200.12 32.445L200.209 31.7712L200.862 31.857L200.752 32.6941C200.717 32.9647 200.469 33.1553 200.198 33.1197L197.863 32.8132L196.592 33.7888L201.684 34.4571L202.22 30.3737L202.873 30.4594L202.337 34.5429C202.29 34.9037 201.959 35.1578 201.598 35.1104L195.853 34.3564L194.56 35.3497L202.918 36.4468C203.099 36.4704 203.264 36.3434 203.288 36.163L204.231 28.9761L204.884 29.0619L203.941 36.2487C203.87 36.7899 203.374 37.1711 202.832 37.1001L194.08 35.9513C193.643 35.894 193.494 35.3375 193.843 35.0692L199.918 30.4039L198.42 30.2072L198.335 30.8606L197.681 30.7748L197.788 29.9582C197.824 29.6875 198.072 29.4969 198.343 29.5325L200.657 29.8363L201.951 28.843L196.859 28.1747L196.323 32.2581L195.67 32.1724L196.206 28.089C196.253 27.7281 196.584 27.474 196.945 27.5214L202.69 28.2754L203.983 27.2821L195.625 26.1851Z" fill="black"/>
<g clip-path="url(#clip19_2891_317)">
<path d="M222.064 29.8207L220.753 32.5467C220.686 32.6862 220.587 32.808 220.464 32.9023C220.341 32.9966 220.198 33.0608 220.046 33.0896L217.074 33.6527L219.8 34.9637C219.94 35.0308 220.061 35.1298 220.156 35.2525C220.25 35.3753 220.314 35.5185 220.343 35.6707L220.906 38.6426L222.217 35.9167C222.284 35.7771 222.383 35.6553 222.506 35.561C222.629 35.4667 222.772 35.4026 222.924 35.3738L225.896 34.8106L223.17 33.4996C223.031 33.4325 222.909 33.3336 222.814 33.2108C222.72 33.088 222.656 32.9448 222.627 32.7927L222.064 29.8207Z" fill="black" fill-opacity="0.15" stroke="black" stroke-width="1.05432" stroke-linecap="round" stroke-linejoin="round"/>
<path d="M218.106 28.4713L217.801 30.7943M216.792 29.4803L219.115 29.7852" stroke="black" stroke-opacity="0.75" stroke-width="1.09825" stroke-linecap="round" stroke-linejoin="round"/>
<path d="M225.169 37.669L224.865 39.992M223.856 38.678L226.179 38.9829" stroke="black" stroke-opacity="0.75" stroke-width="1.09825" stroke-linecap="round" stroke-linejoin="round"/>
</g>
<g clip-path="url(#clip20_2891_317)">
<path fill-rule="evenodd" clip-rule="evenodd" d="M240.924 32.1309C240.744 32.1072 240.578 32.2342 240.554 32.4147L239.611 39.6015L238.958 39.5157L239.901 32.3289C239.972 31.7876 240.469 31.4065 241.01 31.4775L249.762 32.6263C250.199 32.6836 250.348 33.2402 249.999 33.5083L243.901 38.1915L245.419 38.3908L245.508 37.717L246.161 37.8028L246.051 38.6399C246.016 38.9105 245.767 39.1011 245.497 39.0655L243.162 38.759L241.891 39.7346L246.983 40.4029L247.519 36.3195L248.172 36.4052L247.636 40.4887C247.589 40.8495 247.258 41.1036 246.897 41.0562L241.152 40.3022L239.859 41.2955L248.217 42.3926C248.397 42.4162 248.563 42.2892 248.587 42.1088L249.53 34.9219L250.183 35.0077L249.24 42.1945C249.169 42.7357 248.672 43.1169 248.131 43.0459L239.379 41.8971C238.942 41.8398 238.793 41.2833 239.142 41.015L245.217 36.3497L243.719 36.1531L243.633 36.8064L242.98 36.7206L243.087 35.904C243.123 35.6333 243.371 35.4427 243.642 35.4783L245.956 35.7821L247.25 34.7888L242.158 34.1205L241.622 38.2039L240.969 38.1182L241.505 34.0348C241.552 33.6739 241.883 33.4198 242.244 33.4672L247.989 34.2212L249.282 33.2279L240.924 32.1309Z" fill="black"/>
</g>
<g clip-path="url(#clip21_2891_317)">
<path d="M265.808 43.8331C266.036 44.6177 266.095 45.4318 265.984 46.2753C266.095 45.4318 266.356 44.6598 266.769 43.9592C267.191 43.2599 267.713 42.6719 268.334 42.1952C268.955 41.7184 269.657 41.3712 270.44 41.1535C271.225 40.9257 272.039 40.8671 272.882 40.9778C272.039 40.8671 271.267 40.6055 270.566 40.1931C269.885 39.7869 269.286 39.2559 268.802 38.6279C268.32 37.9979 267.962 37.2827 267.745 36.5197C267.527 35.7365 267.474 34.923 267.585 34.0795C267.474 34.923 267.207 35.6944 266.785 36.3937C266.372 37.0942 265.856 37.6829 265.235 38.1597C264.605 38.6414 263.89 39 263.127 39.2166C262.343 39.4343 261.53 39.4877 260.686 39.377C261.53 39.4877 262.301 39.7544 263.001 40.177C263.701 40.5895 264.29 41.1061 264.767 41.7269C265.243 42.3478 265.591 43.0498 265.808 43.8331Z" fill="black"/>
</g>
<path fill-rule="evenodd" clip-rule="evenodd" d="M286.223 38.0766C286.042 38.0529 285.877 38.18 285.853 38.3604L284.91 45.5472L284.256 45.4615L285.2 38.2747C285.271 37.7334 285.767 37.3522 286.308 37.4233L295.061 38.5721C295.498 38.6294 295.647 39.1859 295.298 39.4541L289.199 44.1372L290.718 44.3365L290.806 43.6628L291.46 43.7485L291.35 44.5856C291.314 44.8563 291.066 45.0468 290.795 45.0113L288.46 44.7048L287.19 45.6804L292.281 46.3487L292.817 42.2652L293.471 42.351L292.935 46.4344C292.887 46.7952 292.556 47.0494 292.196 47.002L286.451 46.248L285.157 47.2413L293.516 48.3383C293.696 48.362 293.861 48.2349 293.885 48.0545L294.828 40.8677L295.482 40.9535L294.538 48.1403C294.467 48.6815 293.971 49.0627 293.43 48.9917L284.677 47.8428C284.241 47.7855 284.091 47.229 284.441 46.9608L290.516 42.2955L289.018 42.0988L288.932 42.7522L288.279 42.6664L288.386 41.8497C288.421 41.5791 288.67 41.3885 288.94 41.424L291.255 41.7279L292.548 40.7346L287.457 40.0663L286.921 44.1497L286.268 44.0639L286.803 39.9805C286.851 39.6197 287.182 39.3656 287.543 39.4129L293.287 40.167L294.581 39.1737L286.223 38.0766Z" fill="black"/>
<g clip-path="url(#clip22_2891_317)">
<path d="M312.662 41.7123L311.351 44.4383C311.284 44.5778 311.185 44.6996 311.062 44.7939C310.94 44.8882 310.796 44.9523 310.644 44.9811L307.672 45.5442L310.398 46.8553C310.538 46.9224 310.66 47.0213 310.754 47.1441C310.848 47.2669 310.912 47.4101 310.941 47.5622L311.504 50.5342L312.815 47.8082C312.882 47.6687 312.981 47.5469 313.104 47.4526C313.227 47.3583 313.37 47.2941 313.522 47.2653L316.494 46.7022L313.768 45.3912C313.629 45.3241 313.507 45.2251 313.413 45.1023C313.318 44.9796 313.254 44.8364 313.225 44.6843L312.662 41.7123Z" fill="black" fill-opacity="0.15" stroke="black" stroke-width="1.05432" stroke-linecap="round" stroke-linejoin="round"/>
<path d="M308.704 40.3628L308.399 42.6859M307.39 41.3719L309.713 41.6768" stroke="black" stroke-opacity="0.75" stroke-width="1.09825" stroke-linecap="round" stroke-linejoin="round"/>
<path d="M315.767 49.5605L315.462 51.8836M314.453 50.5696L316.776 50.8745" stroke="black" stroke-opacity="0.75" stroke-width="1.09825" stroke-linecap="round" stroke-linejoin="round"/>
</g>
<path fill-rule="evenodd" clip-rule="evenodd" d="M331.522 44.0224C331.341 43.9987 331.176 44.1258 331.152 44.3062L330.209 51.493L329.555 51.4073L330.499 44.2204C330.57 43.6792 331.066 43.298 331.607 43.3691L340.36 44.5179C340.797 44.5752 340.946 45.1317 340.597 45.3999L334.498 50.083L336.017 50.2823L336.105 49.6086L336.759 49.6943L336.649 50.5314C336.613 50.802 336.365 50.9926 336.094 50.9571L333.759 50.6506L332.489 51.6261L337.58 52.2944L338.116 48.211L338.77 48.2968L338.234 52.3802C338.186 52.741 337.855 52.9951 337.495 52.9478L331.75 52.1937L330.456 53.187L338.815 54.2841C338.995 54.3078 339.161 54.1807 339.184 54.0003L340.128 46.8135L340.781 46.8992L339.838 54.0861C339.766 54.6273 339.27 55.0085 338.729 54.9374L329.976 53.7886C329.54 53.7313 329.39 53.1748 329.74 52.9066L335.815 48.2412L334.317 48.0446L334.231 48.6979L333.578 48.6122L333.685 47.7955C333.72 47.5249 333.969 47.3343 334.239 47.3698L336.554 47.6736L337.847 46.6803L332.756 46.0121L332.22 50.0955L331.567 50.0097L332.103 45.9263C332.15 45.5655 332.481 45.3113 332.842 45.3587L338.586 46.1127L339.88 45.1195L331.522 44.0224Z" fill="black"/>
<g clip-path="url(#clip23_2891_317)">
<path d="M356.406 55.7246C356.634 56.5093 356.692 57.3233 356.581 58.1669C356.692 57.3233 356.954 56.5513 357.366 55.8507C357.789 55.1515 358.31 54.5635 358.931 54.0867C359.552 53.6099 360.254 53.2627 361.037 53.045C361.822 52.8172 362.636 52.7586 363.48 52.8693C362.636 52.7586 361.864 52.4971 361.163 52.0846C360.482 51.6785 359.884 51.1475 359.399 50.5194C358.918 49.8894 358.559 49.1742 358.343 48.4113C358.125 47.628 358.071 46.8146 358.182 45.971C358.071 46.8146 357.805 47.586 357.382 48.2852C356.97 48.9858 356.453 49.5744 355.832 50.0512C355.202 50.533 354.487 50.8916 353.724 51.1081C352.941 51.3258 352.127 51.3793 351.284 51.2686C352.127 51.3793 352.899 51.6459 353.598 52.0685C354.299 52.481 354.887 52.9976 355.364 53.6185C355.841 54.2393 356.188 54.9414 356.406 55.7246Z" fill="black"/>
</g>
<path fill-rule="evenodd" clip-rule="evenodd" d="M376.82 49.9682C376.64 49.9445 376.474 50.0716 376.451 50.252L375.507 57.4388L374.854 57.353L375.797 50.1662C375.868 49.625 376.365 49.2438 376.906 49.3148L385.659 50.4636C386.095 50.521 386.244 51.0775 385.895 51.3456L379.797 56.0288L381.315 56.2281L381.404 55.5543L382.057 55.6401L381.947 56.4772C381.912 56.7478 381.664 56.9384 381.393 56.9028L379.058 56.5963L377.788 57.5719L382.879 58.2402L383.415 54.1568L384.068 54.2425L383.532 58.326C383.485 58.6868 383.154 58.9409 382.793 58.8936L377.048 58.1395L375.755 59.1328L384.113 60.2299C384.294 60.2535 384.459 60.1265 384.483 59.9461L385.426 52.7592L386.079 52.845L385.136 60.0318C385.065 60.5731 384.569 60.9543 384.027 60.8832L375.275 59.7344C374.838 59.6771 374.689 59.1206 375.038 58.8524L381.113 54.187L379.615 53.9904L379.53 54.6437L378.876 54.558L378.983 53.7413C379.019 53.4706 379.267 53.2801 379.538 53.3156L381.853 53.6194L383.146 52.6261L378.054 51.9578L377.519 56.0412L376.865 55.9555L377.401 51.8721C377.449 51.5112 377.779 51.2571 378.14 51.3045L383.885 52.0585L385.179 51.0652L376.82 49.9682Z" fill="black"/>
<g clip-path="url(#clip24_2891_317)">
<path d="M403.26 53.6038L401.949 56.3298C401.882 56.4693 401.783 56.5911 401.66 56.6854C401.537 56.7797 401.394 56.8438 401.242 56.8727L398.27 57.4358L400.996 58.7468C401.135 58.8139 401.257 58.9128 401.352 59.0356C401.446 59.1584 401.51 59.3016 401.539 59.4537L402.102 62.4257L403.413 59.6997C403.48 59.5602 403.579 59.4384 403.702 59.3441C403.825 59.2498 403.968 59.1857 404.12 59.1569L407.092 58.5937L404.366 57.2827C404.226 57.2156 404.104 57.1167 404.01 56.9939C403.916 56.8711 403.852 56.7279 403.823 56.5758L403.26 53.6038Z" fill="black" fill-opacity="0.15" stroke="black" stroke-width="1.05432" stroke-linecap="round" stroke-linejoin="round"/>
<path d="M399.301 52.2544L398.996 54.5774M397.987 53.2634L400.31 53.5683" stroke="black" stroke-opacity="0.75" stroke-width="1.09825" stroke-linecap="round" stroke-linejoin="round"/>
</g>
<g clip-path="url(#clip25_2891_317)">
<path d="M110.235 0.373543C110.463 1.15817 110.522 1.97224 110.411 2.81576C110.522 1.97224 110.783 1.20019 111.196 0.499604C111.618 -0.19965 112.14 -0.787621 112.761 -1.2644C113.382 -1.74117 114.084 -2.0884 114.867 -2.30608C115.652 -2.53391 116.466 -2.59248 117.309 -2.48176C116.466 -2.59248 115.694 -2.85405 114.993 -3.2665C114.312 -3.67262 113.713 -4.20363 113.229 -4.83167C112.747 -5.46166 112.389 -6.17689 112.172 -6.93984C111.954 -7.72311 111.901 -8.53652 112.012 -9.38006C111.901 -8.53652 111.634 -7.76513 111.212 -7.06591C110.799 -6.36534 110.283 -5.77668 109.662 -5.2999C109.032 -4.81812 108.317 -4.45954 107.554 -4.24298C106.77 -4.0253 105.957 -3.97182 105.113 -4.08254C105.957 -3.97182 106.728 -3.70516 107.428 -3.28256C108.128 -2.87011 108.717 -2.35347 109.194 -1.73263C109.67 -1.11178 110.018 -0.409753 110.235 0.373543Z" fill="black"/>
</g>
<g clip-path="url(#clip26_2891_317)">
<path fill-rule="evenodd" clip-rule="evenodd" d="M130.65 -5.38294C130.469 -5.40662 130.304 -5.27955 130.28 -5.09914L129.337 2.08768L128.683 2.00192L129.627 -5.1849C129.698 -5.72615 130.194 -6.10733 130.735 -6.03628L139.488 -4.88746C139.925 -4.83015 140.074 -4.27364 139.725 -4.00547L133.626 0.677667L135.145 0.876978L135.233 0.20322L135.887 0.288976L135.777 1.12607C135.741 1.3967 135.493 1.58726 135.222 1.55174L132.887 1.24523L131.617 2.22081L136.708 2.8891L137.244 -1.19432L137.898 -1.10856L137.362 2.97486C137.314 3.33568 136.983 3.58981 136.623 3.54245L130.878 2.7884L129.584 3.78169L137.943 4.87876C138.123 4.90244 138.288 4.77537 138.312 4.59496L139.255 -2.59186L139.909 -2.5061L138.965 4.68072C138.894 5.22195 138.398 5.60315 137.857 5.53211L129.104 4.38328C128.668 4.32598 128.518 3.76946 128.868 3.50125L134.943 -1.16411L133.445 -1.36074L133.359 -0.707396L132.706 -0.793153L132.813 -1.60984C132.848 -1.88046 133.097 -2.07105 133.367 -2.03553L135.682 -1.7317L136.975 -2.725L131.884 -3.39328L131.348 0.690142L130.695 0.604386L131.23 -3.47903C131.278 -3.83987 131.609 -4.09399 131.97 -4.04663L137.714 -3.29259L139.008 -4.28586L130.65 -5.38294Z" fill="black"/>
</g>
<g clip-path="url(#clip27_2891_317)">
<path d="M157.089 -1.74731L155.778 0.978677C155.711 1.11819 155.612 1.24 155.489 1.33428C155.366 1.42858 155.223 1.49272 155.071 1.52154L152.099 2.08467L154.825 3.39569C154.965 3.4628 155.086 3.56172 155.181 3.68451C155.275 3.80729 155.339 3.9505 155.368 4.10263L155.931 7.0746L157.242 4.34862C157.309 4.20908 157.408 4.08728 157.531 3.99299C157.654 3.89869 157.797 3.83455 157.949 3.80573L160.921 3.24261L158.195 1.93158C158.055 1.86448 157.934 1.76556 157.839 1.64277C157.745 1.51999 157.681 1.37678 157.652 1.22467L157.089 -1.74731Z" fill="black" fill-opacity="0.15" stroke="black" stroke-width="1.05432" stroke-linecap="round" stroke-linejoin="round"/>
<path d="M160.194 6.10094L159.889 8.42398M158.88 7.10998L161.203 7.41488" stroke="black" stroke-opacity="0.75" stroke-width="1.09825" stroke-linecap="round" stroke-linejoin="round"/>
</g>
<g clip-path="url(#clip28_2891_317)">
<path fill-rule="evenodd" clip-rule="evenodd" d="M175.948 0.562835C175.768 0.539155 175.603 0.66622 175.579 0.84663L174.636 8.03345L173.982 7.94769L174.926 0.760874C174.997 0.219624 175.493 -0.161555 176.034 -0.0905123L184.787 1.05831C185.223 1.11562 185.373 1.67213 185.023 1.9403L178.925 6.62344L180.444 6.82275L180.532 6.14899L181.185 6.23475L181.076 7.07184C181.04 7.34247 180.792 7.53303 180.521 7.49751L178.186 7.191L176.916 8.16658L182.007 8.83487L182.543 4.75145L183.197 4.83721L182.661 8.92063C182.613 9.28145 182.282 9.53558 181.921 9.48822L176.177 8.73417L174.883 9.72746L183.241 10.8245C183.422 10.8482 183.587 10.7211 183.611 10.5407L184.554 3.35391L185.208 3.43967L184.264 10.6265C184.193 11.1677 183.697 11.5489 183.156 11.4779L174.403 10.329C173.967 10.2717 173.817 9.71523 174.166 9.44702L180.242 4.78166L178.744 4.58503L178.658 5.23837L178.004 5.15262L178.112 4.33593C178.147 4.06531 178.395 3.87472 178.666 3.91024L180.981 4.21407L182.274 3.22077L177.183 2.55249L176.647 6.63591L175.993 6.55016L176.529 2.46674C176.577 2.1059 176.908 1.85178 177.268 1.89914L183.013 2.65318L184.307 1.65991L175.948 0.562835Z" fill="black"/>
</g>
<g clip-path="url(#clip29_2891_317)">
<path d="M200.833 12.2651C201.061 13.0497 201.119 13.8638 201.008 14.7073C201.119 13.8638 201.381 13.0917 201.793 12.3912C202.216 11.6919 202.737 11.1039 203.358 10.6272C203.979 10.1504 204.681 9.80315 205.464 9.58548C206.249 9.35764 207.063 9.29908 207.907 9.4098C207.063 9.29908 206.291 9.0375 205.591 8.62506C204.909 8.21894 204.311 7.68792 203.826 7.05988C203.345 6.4299 202.986 5.71467 202.77 4.95171C202.552 4.16844 202.498 3.35504 202.609 2.5115C202.498 3.35504 202.232 4.12642 201.809 4.82565C201.397 5.52621 200.88 6.11488 200.259 6.59165C199.629 7.07343 198.914 7.43202 198.151 7.64858C197.368 7.86626 196.554 7.91973 195.711 7.80901C196.554 7.91973 197.326 8.1864 198.025 8.609C198.726 9.02144 199.314 9.53808 199.791 10.1589C200.268 10.7798 200.615 11.4818 200.833 12.2651Z" fill="black"/>
</g>
<g clip-path="url(#clip30_2891_317)">
<path fill-rule="evenodd" clip-rule="evenodd" d="M221.247 6.50859C221.067 6.48491 220.901 6.61197 220.878 6.79239L219.934 13.9792L219.281 13.8934L220.224 6.70663C220.295 6.16538 220.792 5.7842 221.333 5.85524L230.086 7.00407C230.522 7.06138 230.671 7.61788 230.322 7.88606L224.224 12.5692L225.742 12.7685L225.831 12.0947L226.484 12.1805L226.374 13.0176C226.339 13.2882 226.091 13.4788 225.82 13.4433L223.485 13.1368L222.215 14.1123L227.306 14.7806L227.842 10.6972L228.495 10.783L227.959 14.8664C227.912 15.2272 227.581 15.4813 227.22 15.434L221.475 14.6799L220.182 15.6732L228.54 16.7703C228.721 16.794 228.886 16.6669 228.91 16.4865L229.853 9.29967L230.506 9.38542L229.563 16.5722C229.492 17.1135 228.996 17.4947 228.454 17.4236L219.702 16.2748C219.265 16.2175 219.116 15.661 219.465 15.3928L225.54 10.7274L224.042 10.5308L223.957 11.1841L223.303 11.0984L223.41 10.2817C223.446 10.0111 223.694 9.82047 223.965 9.856L226.28 10.1598L227.573 9.16653L222.481 8.49825L221.946 12.5817L221.292 12.4959L221.828 8.41249C221.876 8.05166 222.206 7.79754 222.567 7.8449L228.312 8.59894L229.606 7.60566L221.247 6.50859Z" fill="black"/>
</g>
<g clip-path="url(#clip31_2891_317)">
<path d="M247.687 10.1442L246.376 12.8702C246.308 13.0097 246.21 13.1316 246.087 13.2258C245.964 13.3201 245.821 13.3843 245.669 13.4131L242.697 13.9762L245.423 15.2872C245.562 15.3544 245.684 15.4533 245.778 15.5761C245.873 15.6988 245.937 15.8421 245.966 15.9942L246.529 18.9662L247.84 16.2402C247.907 16.1006 248.006 15.9788 248.128 15.8845C248.251 15.7902 248.394 15.7261 248.547 15.6973L251.519 15.1342L248.793 13.8231C248.653 13.756 248.531 13.6571 248.437 13.5343C248.343 13.4115 248.279 13.2683 248.25 13.1162L247.687 10.1442Z" fill="black" fill-opacity="0.15" stroke="black" stroke-width="1.05432" stroke-linecap="round" stroke-linejoin="round"/>
<path d="M243.728 8.79479L243.423 11.1178M242.414 9.80385L244.737 10.1088" stroke="black" stroke-opacity="0.75" stroke-width="1.09825" stroke-linecap="round" stroke-linejoin="round"/>
<path d="M250.792 17.9925L250.487 20.3155M249.478 19.0015L251.801 19.3064" stroke="black" stroke-opacity="0.75" stroke-width="1.09825" stroke-linecap="round" stroke-linejoin="round"/>
</g>
<g clip-path="url(#clip32_2891_317)">
<path fill-rule="evenodd" clip-rule="evenodd" d="M266.546 12.4544C266.366 12.4307 266.2 12.5578 266.177 12.7382L265.233 19.925L264.58 19.8393L265.523 12.6524C265.594 12.1112 266.091 11.73 266.632 11.8011L275.384 12.9499C275.821 13.0072 275.97 13.5637 275.621 13.8319L269.523 18.515L271.041 18.7143L271.13 18.0406L271.783 18.1263L271.673 18.9634C271.638 19.234 271.39 19.4246 271.119 19.3891L268.784 19.0826L267.513 20.0582L272.605 20.7264L273.141 16.643L273.794 16.7288L273.258 20.8122C273.211 21.173 272.88 21.4272 272.519 21.3798L266.774 20.6257L265.481 21.619L273.839 22.7161C274.019 22.7398 274.185 22.6127 274.209 22.4323L275.152 15.2455L275.805 15.3312L274.862 22.5181C274.791 23.0593 274.295 23.4405 273.753 23.3694L265.001 22.2206C264.564 22.1633 264.415 21.6068 264.764 21.3386L270.839 16.6732L269.341 16.4766L269.255 17.1299L268.602 17.0442L268.709 16.2275C268.745 15.9569 268.993 15.7663 269.264 15.8018L271.578 16.1056L272.872 15.1123L267.78 14.4441L267.244 18.5275L266.591 18.4417L267.127 14.3583C267.174 13.9975 267.505 13.7434 267.866 13.7907L273.611 14.5448L274.904 13.5515L266.546 12.4544Z" fill="black"/>
</g>
<g clip-path="url(#clip33_2891_317)">
<path d="M291.43 24.1567C291.658 24.9413 291.717 25.7554 291.606 26.5989C291.717 25.7554 291.978 24.9833 292.391 24.2827C292.813 23.5835 293.335 22.9955 293.956 22.5187C294.577 22.0419 295.279 21.6947 296.062 21.477C296.847 21.2492 297.661 21.1906 298.504 21.3014C297.661 21.1906 296.889 20.9291 296.188 20.5166C295.507 20.1105 294.908 19.5795 294.424 18.9514C293.942 18.3215 293.584 17.6062 293.367 16.8433C293.15 16.06 293.096 15.2466 293.207 14.4031C293.096 15.2466 292.829 16.018 292.407 16.7172C291.994 17.4178 291.478 18.0064 290.857 18.4832C290.227 18.965 289.512 19.3236 288.749 19.5401C287.965 19.7578 287.152 19.8113 286.308 19.7006C287.152 19.8113 287.923 20.078 288.623 20.5006C289.323 20.913 289.912 21.4296 290.389 22.0505C290.865 22.6713 291.213 23.3734 291.43 24.1567Z" fill="black"/>
</g>
<g clip-path="url(#clip34_2891_317)">
<path fill-rule="evenodd" clip-rule="evenodd" d="M311.845 18.4001C311.665 18.3765 311.499 18.5035 311.475 18.6839L310.532 25.8708L309.879 25.785L310.822 18.5982C310.893 18.0569 311.389 17.6758 311.931 17.7468L320.683 18.8956C321.12 18.9529 321.269 19.5094 320.92 19.7776L314.822 24.4607L316.34 24.6601L316.429 23.9863L317.082 24.0721L316.972 24.9092C316.937 25.1798 316.688 25.3703 316.418 25.3348L314.083 25.0283L312.812 26.0039L317.904 26.6722L318.44 22.5888L319.093 22.6745L318.557 26.7579C318.51 27.1188 318.179 27.3729 317.818 27.3255L312.073 26.5715L310.78 27.5648L319.138 28.6618C319.318 28.6855 319.484 28.5585 319.507 28.378L320.451 21.1912L321.104 21.277L320.161 28.4638C320.09 29.005 319.593 29.3862 319.052 29.3152L310.3 28.1664C309.863 28.1091 309.714 27.5525 310.063 27.2843L316.138 22.619L314.64 22.4223L314.554 23.0757L313.901 22.9899L314.008 22.1732C314.044 21.9026 314.292 21.712 314.562 21.7476L316.877 22.0514L318.171 21.0581L313.079 20.3898L312.543 24.4732L311.89 24.3875L312.426 20.304C312.473 19.9432 312.804 19.6891 313.165 19.7365L318.91 20.4905L320.203 19.4972L311.845 18.4001Z" fill="black"/>
</g>
<g clip-path="url(#clip35_2891_317)">
<path d="M338.284 22.0358L336.973 24.7618C336.906 24.9013 336.807 25.0231 336.684 25.1174C336.562 25.2117 336.418 25.2758 336.266 25.3047L333.294 25.8678L336.02 27.1788C336.16 27.2459 336.282 27.3448 336.376 27.4676C336.47 27.5904 336.534 27.7336 336.563 27.8858L337.126 30.8577L338.437 28.1317C338.504 27.9922 338.603 27.8704 338.726 27.7761C338.849 27.6818 338.992 27.6177 339.144 27.5889L342.116 27.0257L339.39 25.7147C339.251 25.6476 339.129 25.5487 339.035 25.4259C338.94 25.3031 338.876 25.1599 338.847 25.0078L338.284 22.0358Z" fill="black" fill-opacity="0.15" stroke="black" stroke-width="1.05432" stroke-linecap="round" stroke-linejoin="round"/>
<path d="M334.326 20.6864L334.021 23.0094M333.012 21.6954L335.335 22.0003" stroke="black" stroke-opacity="0.75" stroke-width="1.09825" stroke-linecap="round" stroke-linejoin="round"/>
<path d="M341.389 29.8841L341.084 32.2071M340.075 30.8931L342.398 31.198" stroke="black" stroke-opacity="0.75" stroke-width="1.09825" stroke-linecap="round" stroke-linejoin="round"/>
</g>
<g clip-path="url(#clip36_2891_317)">
<path fill-rule="evenodd" clip-rule="evenodd" d="M357.144 24.3459C356.963 24.3223 356.798 24.4493 356.774 24.6297L355.831 31.8166L355.177 31.7308L356.121 24.544C356.192 24.0027 356.688 23.6216 357.229 23.6926L365.982 24.8414C366.418 24.8987 366.568 25.4552 366.219 25.7234L360.12 30.4065L361.639 30.6059L361.727 29.9321L362.38 30.0179L362.271 30.855C362.235 31.1256 361.987 31.3161 361.716 31.2806L359.381 30.9741L358.111 31.9497L363.202 32.618L363.738 28.5346L364.392 28.6203L363.856 32.7037C363.808 33.0646 363.477 33.3187 363.117 33.2713L357.372 32.5173L356.078 33.5106L364.436 34.6076C364.617 34.6313 364.782 34.5043 364.806 34.3238L365.749 27.137L366.403 27.2228L365.459 34.4096C365.388 34.9508 364.892 35.332 364.351 35.261L355.598 34.1122C355.162 34.0549 355.012 33.4983 355.361 33.2301L361.437 28.5648L359.939 28.3681L359.853 29.0215L359.2 28.9357L359.307 28.119C359.342 27.8484 359.59 27.6578 359.861 27.6934L362.176 27.9972L363.469 27.0039L358.378 26.3356L357.842 30.419L357.188 30.3333L357.724 26.2498C357.772 25.889 358.103 25.6349 358.463 25.6823L364.208 26.4363L365.502 25.443L357.144 24.3459Z" fill="black"/>
</g>
<g clip-path="url(#clip37_2891_317)">
<path d="M382.028 36.0482C382.256 36.8328 382.314 37.6469 382.203 38.4904C382.314 37.6469 382.576 36.8748 382.988 36.1743C383.411 35.475 383.932 34.887 384.553 34.4103C385.174 33.9335 385.876 33.5863 386.66 33.3686C387.444 33.1407 388.258 33.0822 389.102 33.1929C388.258 33.0822 387.486 32.8206 386.786 32.4082C386.104 32.002 385.506 31.471 385.022 30.843C384.54 30.213 384.181 29.4978 383.965 28.7348C383.747 27.9515 383.693 27.1381 383.804 26.2946C383.693 27.1381 383.427 27.9095 383.004 28.6087C382.592 29.3093 382.075 29.898 381.454 30.3747C380.824 30.8565 380.109 31.2151 379.346 31.4317C378.563 31.6494 377.749 31.7028 376.906 31.5921C377.749 31.7028 378.521 31.9695 379.22 32.3921C379.921 32.8045 380.509 33.3212 380.986 33.942C381.463 34.5629 381.81 35.2649 382.028 36.0482Z" fill="black"/>
</g>
<path fill-rule="evenodd" clip-rule="evenodd" d="M79.4055 33.97C79.2251 33.9464 79.0596 34.0734 79.0359 34.2538L78.0926 41.4406L77.4393 41.3549L78.3826 34.1681C78.4536 33.6268 78.95 33.2456 79.4913 33.3167L88.2438 34.4655C88.6804 34.5228 88.8296 35.0793 88.4805 35.3475L82.3822 40.0306L83.9007 40.2299L83.9891 39.5562L84.6424 39.6419L84.5326 40.479C84.4971 40.7497 84.2489 40.9402 83.9782 40.9047L81.6431 40.5982L80.3727 41.5738L85.4642 42.2421L86.0002 38.1586L86.6535 38.2444L86.1176 42.3278C86.0702 42.6886 85.7393 42.9428 85.3785 42.8954L79.6336 42.1414L78.3402 43.1347L86.6984 44.2317C86.8788 44.2554 87.0443 44.1283 87.068 43.9479L88.0113 36.7611L88.6646 36.8469L87.7213 44.0337C87.6503 44.5749 87.1539 44.9561 86.6127 44.8851L77.8601 43.7362C77.4236 43.6789 77.2742 43.1224 77.6234 42.8542L83.6986 38.1889L82.2006 37.9922L82.1148 38.6456L81.4615 38.5598L81.5687 37.7431C81.6042 37.4725 81.8524 37.2819 82.123 37.3174L84.4377 37.6213L85.7311 36.628L80.6397 35.9597L80.1037 40.0431L79.4504 39.9574L79.9863 35.8739C80.0337 35.5131 80.3646 35.259 80.7255 35.3063L86.4702 36.0604L87.7637 35.0671L79.4055 33.97Z" fill="black"/>
<g clip-path="url(#clip38_2891_317)">
<path d="M104.289 45.6723C104.517 46.4569 104.576 47.271 104.465 48.1145C104.576 47.271 104.837 46.4989 105.25 45.7983C105.672 45.0991 106.194 44.5111 106.815 44.0343C107.436 43.5576 108.138 43.2103 108.921 42.9927C109.706 42.7648 110.52 42.7063 111.363 42.817C110.52 42.7063 109.748 42.4447 109.047 42.0322C108.366 41.6261 107.768 41.0951 107.283 40.4671C106.802 39.8371 106.443 39.1218 106.226 38.3589C106.009 37.5756 105.955 36.7622 106.066 35.9187C105.955 36.7622 105.689 37.5336 105.266 38.2328C104.853 38.9334 104.337 39.5221 103.716 39.9988C103.086 40.4806 102.371 40.8392 101.608 41.0558C100.825 41.2734 100.011 41.3269 99.1676 41.2162C100.011 41.3269 100.783 41.5936 101.482 42.0162C102.182 42.4286 102.771 42.9453 103.248 43.5661C103.725 44.187 104.072 44.889 104.289 45.6723Z" fill="black"/>
</g>
<path fill-rule="evenodd" clip-rule="evenodd" d="M124.704 39.9158C124.524 39.8922 124.358 40.0192 124.335 40.1996L123.391 47.3864L122.738 47.3007L123.681 40.1139C123.752 39.5726 124.249 39.1914 124.79 39.2625L133.542 40.4113C133.979 40.4686 134.128 41.0251 133.779 41.2933L127.681 45.9764L129.199 46.1757L129.288 45.502L129.941 45.5877L129.831 46.4248C129.796 46.6955 129.547 46.886 129.277 46.8505L126.942 46.544L125.671 47.5196L130.763 48.1879L131.299 44.1044L131.952 44.1902L131.416 48.2736C131.369 48.6344 131.038 48.8886 130.677 48.8412L124.932 48.0872L123.639 49.0805L131.997 50.1775C132.177 50.2012 132.343 50.0741 132.367 49.8937L133.31 42.7069L133.963 42.7927L133.02 49.9795C132.949 50.5207 132.452 50.9019 131.911 50.8309L123.159 49.682C122.722 49.6247 122.573 49.0682 122.922 48.8L128.997 44.1347L127.499 43.938L127.413 44.5914L126.76 44.5056L126.867 43.6889C126.903 43.4183 127.151 43.2277 127.422 43.2632L129.736 43.5671L131.03 42.5738L125.938 41.9055L125.402 45.9889L124.749 45.9032L125.285 41.8197C125.332 41.4589 125.663 41.2048 126.024 41.2521L131.769 42.0062L133.062 41.0129L124.704 39.9158Z" fill="black"/>
<g clip-path="url(#clip39_2891_317)">
<path d="M151.143 43.5514L149.832 46.2774C149.765 46.4169 149.666 46.5387 149.544 46.633C149.421 46.7273 149.278 46.7915 149.125 46.8203L146.153 47.3834L148.879 48.6944C149.019 48.7615 149.141 48.8605 149.235 48.9833C149.329 49.106 149.393 49.2492 149.422 49.4014L149.985 52.3734L151.296 49.6474C151.364 49.5078 151.462 49.386 151.585 49.2917C151.708 49.1974 151.851 49.1333 152.003 49.1045L154.975 48.5414L152.249 47.2303C152.11 47.1632 151.988 47.0643 151.894 46.9415C151.799 46.8187 151.735 46.6755 151.706 46.5234L151.143 43.5514Z" fill="black" fill-opacity="0.15" stroke="black" stroke-width="1.05432" stroke-linecap="round" stroke-linejoin="round"/>
<path d="M147.185 42.202L146.88 44.525M145.871 43.211L148.194 43.516" stroke="black" stroke-opacity="0.75" stroke-width="1.09825" stroke-linecap="round" stroke-linejoin="round"/>
<path d="M154.249 51.3997L153.944 53.7227M152.935 52.4087L155.258 52.7136" stroke="black" stroke-opacity="0.75" stroke-width="1.09825" stroke-linecap="round" stroke-linejoin="round"/>
</g>
<path fill-rule="evenodd" clip-rule="evenodd" d="M170.003 45.8616C169.822 45.8379 169.657 45.965 169.633 46.1454L168.69 53.3322L168.037 53.2464L168.98 46.0596C169.051 45.5184 169.547 45.1372 170.089 45.2082L178.841 46.3571C179.278 46.4144 179.427 46.9709 179.078 47.239L172.98 51.9222L174.498 52.1215L174.587 51.4477L175.24 51.5335L175.13 52.3706C175.094 52.6412 174.846 52.8318 174.576 52.7962L172.241 52.4897L170.97 53.4653L176.062 54.1336L176.598 50.0502L177.251 50.1359L176.715 54.2194C176.668 54.5802 176.337 54.8343 175.976 54.787L170.231 54.0329L168.938 55.0262L177.296 56.1233C177.476 56.1469 177.642 56.0199 177.665 55.8395L178.609 48.6526L179.262 48.7384L178.319 55.9252C178.248 56.4665 177.751 56.8477 177.21 56.7766L168.458 55.6278C168.021 55.5705 167.872 55.014 168.221 54.7458L174.296 50.0804L172.798 49.8838L172.712 50.5371L172.059 50.4514L172.166 49.6347C172.202 49.364 172.45 49.1735 172.72 49.209L175.035 49.5128L176.329 48.5195L171.237 47.8512L170.701 51.9346L170.048 51.8489L170.584 47.7655C170.631 47.4046 170.962 47.1505 171.323 47.1979L177.068 47.9519L178.361 46.9586L170.003 45.8616Z" fill="black"/>
<g clip-path="url(#clip40_2891_317)">
<path d="M194.887 57.5638C195.115 58.3484 195.174 59.1625 195.063 60.006C195.174 59.1625 195.435 58.3905 195.848 57.6899C196.27 56.9906 196.792 56.4027 197.413 55.9259C198.034 55.4491 198.736 55.1019 199.519 54.8842C200.304 54.6564 201.118 54.5978 201.961 54.7085C201.118 54.5978 200.346 54.3362 199.645 53.9238C198.964 53.5177 198.365 52.9866 197.881 52.3586C197.399 51.7286 197.041 51.0134 196.824 50.2504C196.606 49.4672 196.553 48.6538 196.664 47.8102C196.553 48.6538 196.286 49.4251 195.864 50.1244C195.451 50.8249 194.935 51.4136 194.314 51.8904C193.684 52.3722 192.968 52.7307 192.205 52.9473C191.422 53.165 190.609 53.2185 189.765 53.1077C190.609 53.2185 191.38 53.4851 192.079 53.9077C192.78 54.3202 193.369 54.8368 193.845 55.4576C194.322 56.0785 194.669 56.7805 194.887 57.5638Z" fill="black"/>
</g>
<path fill-rule="evenodd" clip-rule="evenodd" d="M215.301 51.8073C215.121 51.7837 214.956 51.9107 214.932 52.0911L213.989 59.278L213.335 59.1922L214.279 52.0054C214.35 51.4641 214.846 51.083 215.387 51.154L224.14 52.3028C224.576 52.3601 224.726 52.9166 224.376 53.1848L218.278 57.8679L219.797 58.0673L219.885 57.3935L220.538 57.4793L220.429 58.3163C220.393 58.587 220.145 58.7775 219.874 58.742L217.539 58.4355L216.269 59.4111L221.36 60.0794L221.896 55.996L222.55 56.0817L222.014 60.1651C221.966 60.526 221.635 60.7801 221.274 60.7327L215.53 59.9787L214.236 60.972L222.594 62.069C222.775 62.0927 222.94 61.9657 222.964 61.7852L223.907 54.5984L224.561 54.6842L223.617 61.871C223.546 62.4122 223.05 62.7934 222.509 62.7224L213.756 61.5736C213.32 61.5163 213.17 60.9597 213.519 60.6915L219.595 56.0262L218.097 55.8295L218.011 56.4829L217.357 56.3971L217.465 55.5804C217.5 55.3098 217.748 55.1192 218.019 55.1547L220.334 55.4586L221.627 54.4653L216.536 53.797L216 57.8804L215.346 57.7947L215.882 53.7112C215.93 53.3504 216.261 53.0963 216.621 53.1437L222.366 53.8977L223.66 52.9044L215.301 51.8073Z" fill="black"/>
<g clip-path="url(#clip41_2891_317)">
<path d="M241.741 55.443L240.43 58.169C240.363 58.3085 240.264 58.4303 240.141 58.5246C240.018 58.6189 239.875 58.683 239.723 58.7118L236.751 59.275L239.477 60.586C239.617 60.6531 239.738 60.752 239.833 60.8748C239.927 60.9976 239.991 61.1408 240.02 61.2929L240.583 64.2649L241.894 61.5389C241.961 61.3994 242.06 61.2776 242.183 61.1833C242.306 61.089 242.449 61.0248 242.601 60.996L245.573 60.4329L242.847 59.1219C242.708 59.0548 242.586 58.9558 242.491 58.8331C242.397 58.7103 242.333 58.5671 242.304 58.415L241.741 55.443Z" fill="black" fill-opacity="0.15" stroke="black" stroke-width="1.05432" stroke-linecap="round" stroke-linejoin="round"/>
<path d="M237.783 54.0936L237.478 56.4166M236.469 55.1026L238.792 55.4075" stroke="black" stroke-opacity="0.75" stroke-width="1.09825" stroke-linecap="round" stroke-linejoin="round"/>
<path d="M244.846 63.2912L244.541 65.6143M243.532 64.3003L245.855 64.6052" stroke="black" stroke-opacity="0.75" stroke-width="1.09825" stroke-linecap="round" stroke-linejoin="round"/>
</g>
<path fill-rule="evenodd" clip-rule="evenodd" d="M260.6 57.7531C260.42 57.7294 260.254 57.8565 260.231 58.0369L259.287 65.2237L258.634 65.138L259.577 57.9512C259.648 57.4099 260.145 57.0287 260.686 57.0998L269.439 58.2486C269.875 58.3059 270.024 58.8624 269.675 59.1306L263.577 63.8137L265.095 64.013L265.184 63.3393L265.837 63.425L265.727 64.2621C265.692 64.5328 265.444 64.7233 265.173 64.6878L262.838 64.3813L261.568 65.3569L266.659 66.0251L267.195 61.9417L267.848 62.0275L267.312 66.1109C267.265 66.4717 266.934 66.7259 266.573 66.6785L260.828 65.9244L259.535 66.9177L267.893 68.0148C268.074 68.0385 268.239 67.9114 268.263 67.731L269.206 60.5442L269.859 60.6299L268.916 67.8168C268.845 68.358 268.349 68.7392 267.807 68.6682L259.055 67.5193C258.618 67.462 258.469 66.9055 258.818 66.6373L264.893 61.9719L263.395 61.7753L263.31 62.4287L262.656 62.3429L262.763 61.5262C262.799 61.2556 263.047 61.065 263.318 61.1005L265.633 61.4043L266.926 60.4111L261.835 59.7428L261.299 63.8262L260.645 63.7404L261.181 59.657C261.229 59.2962 261.559 59.0421 261.92 59.0894L267.665 59.8435L268.959 58.8502L260.6 57.7531Z" fill="black"/>
<g clip-path="url(#clip42_2891_317)">
<path d="M285.485 69.4554C285.712 70.24 285.771 71.0541 285.66 71.8976C285.771 71.0541 286.033 70.282 286.445 69.5814C286.868 68.8822 287.389 68.2942 288.01 67.8174C288.631 67.3406 289.333 66.9934 290.116 66.7757C290.901 66.5479 291.715 66.4893 292.559 66.6001C291.715 66.4893 290.943 66.2278 290.242 65.8153C289.561 65.4092 288.963 64.8782 288.478 64.2501C287.997 63.6202 287.638 62.9049 287.421 62.142C287.204 61.3587 287.15 60.5453 287.261 59.7018C287.15 60.5453 286.884 61.3167 286.461 62.0159C286.049 62.7165 285.532 63.3051 284.911 63.7819C284.281 64.2637 283.566 64.6223 282.803 64.8388C282.02 65.0565 281.206 65.11 280.363 64.9993C281.206 65.11 281.978 65.3767 282.677 65.7993C283.377 66.2117 283.966 66.7283 284.443 67.3492C284.92 67.97 285.267 68.6721 285.485 69.4554Z" fill="black"/>
</g>
<path fill-rule="evenodd" clip-rule="evenodd" d="M305.899 63.6989C305.719 63.6752 305.554 63.8023 305.53 63.9827L304.587 71.1695L303.933 71.0838L304.876 63.897C304.948 63.3557 305.444 62.9745 305.985 63.0456L314.738 64.1944C315.174 64.2517 315.324 64.8082 314.974 65.0764L308.876 69.7595L310.395 69.9588L310.483 69.2851L311.136 69.3708L311.026 70.2079C310.991 70.4786 310.743 70.6691 310.472 70.6336L308.137 70.3271L306.867 71.3027L311.958 71.971L312.494 67.8875L313.147 67.9733L312.611 72.0567C312.564 72.4175 312.233 72.6717 311.872 72.6243L306.128 71.8703L304.834 72.8635L313.192 73.9606C313.373 73.9843 313.538 73.8572 313.562 73.6768L314.505 66.49L315.159 66.5757L314.215 73.7626C314.144 74.3038 313.648 74.685 313.107 74.614L304.354 73.4651C303.917 73.4078 303.768 72.8513 304.117 72.5831L310.193 67.9177L308.694 67.7211L308.609 68.3745L307.955 68.2887L308.063 67.472C308.098 67.2014 308.346 67.0108 308.617 67.0463L310.932 67.3501L312.225 66.3569L307.134 65.6886L306.598 69.772L305.944 69.6862L306.48 65.6028C306.528 65.242 306.859 64.9879 307.219 65.0352L312.964 65.7893L314.258 64.796L305.899 63.6989Z" fill="black"/>
<g clip-path="url(#clip43_2891_317)">
<path d="M332.338 67.3345L331.027 70.0605C330.96 70.2 330.861 70.3218 330.739 70.4161C330.616 70.5104 330.473 70.5746 330.321 70.6034L327.349 71.1665L330.075 72.4775C330.214 72.5446 330.336 72.6435 330.43 72.7663C330.524 72.8891 330.589 73.0323 330.617 73.1845L331.181 76.1564L332.492 73.4305C332.559 73.2909 332.658 73.1691 332.78 73.0748C332.903 72.9805 333.046 72.9164 333.198 72.8876L336.17 72.3244L333.444 71.0134C333.305 70.9463 333.183 70.8474 333.089 70.7246C332.995 70.6018 332.93 70.4586 332.902 70.3065L332.338 67.3345Z" fill="black" fill-opacity="0.15" stroke="black" stroke-width="1.05432" stroke-linecap="round" stroke-linejoin="round"/>
<path d="M328.38 65.9851L328.075 68.3081M327.066 66.9941L329.389 67.299" stroke="black" stroke-opacity="0.75" stroke-width="1.09825" stroke-linecap="round" stroke-linejoin="round"/>
<path d="M335.443 75.1828L335.138 77.5058M334.13 76.1918L336.452 76.4967" stroke="black" stroke-opacity="0.75" stroke-width="1.09825" stroke-linecap="round" stroke-linejoin="round"/>
</g>
<g clip-path="url(#clip44_2891_317)">
<path fill-rule="evenodd" clip-rule="evenodd" d="M351.198 69.6447C351.018 69.621 350.852 69.7481 350.828 69.9285L349.885 77.1153L349.232 77.0295L350.175 69.8427C350.246 69.3015 350.742 68.9203 351.284 68.9913L360.036 70.1402C360.473 70.1975 360.622 70.754 360.273 71.0221L354.175 75.7053L355.693 75.9046L355.782 75.2308L356.435 75.3166L356.325 76.1537C356.29 76.4243 356.041 76.6149 355.771 76.5794L353.436 76.2729L352.165 77.2484L357.257 77.9167L357.793 73.8333L358.446 73.9191L357.91 78.0025C357.863 78.3633 357.532 78.6174 357.171 78.5701L351.426 77.816L350.133 78.8093L358.491 79.9064C358.671 79.9301 358.837 79.803 358.86 79.6226L359.804 72.4358L360.457 72.5215L359.514 79.7083C359.443 80.2496 358.946 80.6308 358.405 80.5597L349.653 79.4109C349.216 79.3536 349.067 78.7971 349.416 78.5289L355.491 73.8635L353.993 73.6669L353.907 74.3202L353.254 74.2345L353.361 73.4178C353.397 73.1472 353.645 72.9566 353.915 72.9921L356.23 73.2959L357.524 72.3026L352.432 71.6343L351.896 75.7178L351.243 75.632L351.779 71.5486C351.826 71.1878 352.157 70.9336 352.518 70.981L358.263 71.735L359.556 70.7418L351.198 69.6447Z" fill="black"/>
</g>
<g clip-path="url(#clip45_2891_317)">
<path d="M376.082 81.3469C376.31 82.1316 376.368 82.9456 376.258 83.7891C376.368 82.9456 376.63 82.1736 377.042 81.473C377.465 80.7737 377.987 80.1858 378.608 79.709C379.228 79.2322 379.93 78.885 380.714 78.6673C381.498 78.4395 382.312 78.3809 383.156 78.4916C382.312 78.3809 381.54 78.1193 380.84 77.7069C380.159 77.3008 379.56 76.7698 379.076 76.1417C378.594 75.5117 378.235 74.7965 378.019 74.0335C377.801 73.2503 377.748 72.4369 377.858 71.5933C377.748 72.4369 377.481 73.2083 377.058 73.9075C376.646 74.608 376.129 75.1967 375.508 75.6735C374.879 76.1553 374.163 76.5138 373.4 76.7304C372.617 76.9481 371.804 77.0016 370.96 76.8908C371.804 77.0016 372.575 77.2682 373.274 77.6908C373.975 78.1033 374.563 78.6199 375.04 79.2408C375.517 79.8616 375.864 80.5636 376.082 81.3469Z" fill="black"/>
</g>
<g clip-path="url(#clip46_2891_317)">
<path fill-rule="evenodd" clip-rule="evenodd" d="M396.497 75.5904C396.316 75.5667 396.151 75.6938 396.127 75.8742L395.184 83.061L394.531 82.9753L395.474 75.7885C395.545 75.2472 396.041 74.866 396.583 74.9371L405.335 76.0859C405.772 76.1432 405.921 76.6997 405.572 76.9679L399.473 81.651L400.992 81.8503L401.08 81.1766L401.734 81.2623L401.624 82.0994C401.588 82.3701 401.34 82.5606 401.07 82.5251L398.734 82.2186L397.464 83.1942L402.556 83.8625L403.092 79.779L403.745 79.8648L403.209 83.9482C403.162 84.309 402.831 84.5632 402.47 84.5158L396.725 83.7618L395.432 84.755L403.79 85.8521C403.97 85.8758 404.136 85.7487 404.159 85.5683L405.103 78.3815L405.756 78.4673L404.813 85.6541C404.742 86.1953 404.245 86.5765 403.704 86.5055L394.951 85.3566C394.515 85.2993 394.366 84.7428 394.715 84.4746L400.79 79.8092L399.292 79.6126L399.206 80.266L398.553 80.1802L398.66 79.3635C398.695 79.0929 398.944 78.9023 399.214 78.9378L401.529 79.2417L402.822 78.2484L397.731 77.5801L397.195 81.6635L396.542 81.5777L397.078 77.4943C397.125 77.1335 397.456 76.8794 397.817 76.9267L403.562 77.6808L404.855 76.6875L396.497 75.5904Z" fill="black"/>
</g>
</g>
<defs>
<clipPath id="clip0_2891_317">
<rect width="400" height="92" fill="white"/>
</clipPath>
<clipPath id="clip1_2891_317">
<rect width="14.0576" height="14.0576" fill="white" transform="translate(266.676 -13.0051) rotate(7.47772)"/>
</clipPath>
<clipPath id="clip2_2891_317">
<rect width="14.0576" height="14.0576" fill="white" transform="translate(311.974 -7.05931) rotate(7.47772)"/>
</clipPath>
<clipPath id="clip3_2891_317">
<rect width="14.0576" height="14.0576" fill="white" transform="translate(357.273 -1.11356) rotate(7.47772)"/>
</clipPath>
<clipPath id="clip4_2891_317">
<rect width="14.0576" height="14.0576" fill="white" transform="translate(73.5889 53.8093) rotate(7.47772)"/>
</clipPath>
<clipPath id="clip5_2891_317">
<rect width="14.0576" height="14.0576" fill="white" transform="translate(96.2383 56.7822) rotate(7.47772)"/>
</clipPath>
<clipPath id="clip6_2891_317">
<rect width="14.0576" height="14.0576" fill="white" transform="translate(118.887 59.7551) rotate(7.47772)"/>
</clipPath>
<clipPath id="clip7_2891_317">
<rect width="14.0576" height="14.0576" fill="white" transform="translate(141.537 62.728) rotate(7.47772)"/>
</clipPath>
<clipPath id="clip8_2891_317">
<rect width="14.0576" height="14.0576" fill="white" transform="translate(164.187 65.7009) rotate(7.47772)"/>
</clipPath>
<clipPath id="clip9_2891_317">
<rect width="14.0576" height="14.0576" fill="white" transform="translate(186.836 68.6738) rotate(7.47772)"/>
</clipPath>
<clipPath id="clip10_2891_317">
<rect width="14.0576" height="14.0576" fill="white" transform="translate(209.485 71.6466) rotate(7.47772)"/>
</clipPath>
<clipPath id="clip11_2891_317">
<rect width="14.0576" height="14.0576" fill="white" transform="translate(232.135 74.6195) rotate(7.47772)"/>
</clipPath>
<clipPath id="clip12_2891_317">
<rect width="14.0576" height="14.0576" fill="white" transform="translate(254.784 77.5924) rotate(7.47772)"/>
</clipPath>
<clipPath id="clip13_2891_317">
<rect width="14.0576" height="14.0576" fill="white" transform="translate(345.381 89.4839) rotate(7.47772)"/>
</clipPath>
<clipPath id="clip14_2891_317">
<rect width="14.0576" height="14.0576" fill="white" transform="translate(79.5349 8.51053) rotate(7.47772)"/>
</clipPath>
<clipPath id="clip15_2891_317">
<rect width="14.0576" height="14.0576" fill="white" transform="translate(102.184 11.4834) rotate(7.47772)"/>
</clipPath>
<clipPath id="clip16_2891_317">
<rect width="14.0576" height="14.0576" fill="white" transform="translate(124.833 14.4563) rotate(7.47772)"/>
</clipPath>
<clipPath id="clip17_2891_317">
<rect width="14.0576" height="14.0576" fill="white" transform="translate(147.483 17.4292) rotate(7.47772)"/>
</clipPath>
<clipPath id="clip18_2891_317">
<rect width="14.0576" height="14.0576" fill="white" transform="translate(170.132 20.4021) rotate(7.47772)"/>
</clipPath>
<clipPath id="clip19_2891_317">
<rect width="14.0576" height="14.0576" fill="white" transform="translate(215.431 26.3479) rotate(7.47772)"/>
</clipPath>
<clipPath id="clip20_2891_317">
<rect width="14.0576" height="14.0576" fill="white" transform="translate(238.081 29.3208) rotate(7.47772)"/>
</clipPath>
<clipPath id="clip21_2891_317">
<rect width="14.0576" height="14.0576" fill="white" transform="translate(260.73 32.2936) rotate(7.47772)"/>
</clipPath>
<clipPath id="clip22_2891_317">
<rect width="14.0576" height="14.0576" fill="white" transform="translate(306.029 38.2394) rotate(7.47772)"/>
</clipPath>
<clipPath id="clip23_2891_317">
<rect width="14.0576" height="14.0576" fill="white" transform="translate(351.327 44.1852) rotate(7.47772)"/>
</clipPath>
<clipPath id="clip24_2891_317">
<rect width="14.0576" height="14.0576" fill="white" transform="translate(396.626 50.131) rotate(7.47772)"/>
</clipPath>
<clipPath id="clip25_2891_317">
<rect width="14.0576" height="14.0576" fill="white" transform="translate(105.157 -11.1659) rotate(7.47772)"/>
</clipPath>
<clipPath id="clip26_2891_317">
<rect width="14.0576" height="14.0576" fill="white" transform="translate(127.806 -8.19304) rotate(7.47772)"/>
</clipPath>
<clipPath id="clip27_2891_317">
<rect width="14.0576" height="14.0576" fill="white" transform="translate(150.456 -5.22015) rotate(7.47772)"/>
</clipPath>
<clipPath id="clip28_2891_317">
<rect width="14.0576" height="14.0576" fill="white" transform="translate(173.105 -2.24727) rotate(7.47772)"/>
</clipPath>
<clipPath id="clip29_2891_317">
<rect width="14.0576" height="14.0576" fill="white" transform="translate(195.754 0.725632) rotate(7.47772)"/>
</clipPath>
<clipPath id="clip30_2891_317">
<rect width="14.0576" height="14.0576" fill="white" transform="translate(218.404 3.6985) rotate(7.47772)"/>
</clipPath>
<clipPath id="clip31_2891_317">
<rect width="14.0576" height="14.0576" fill="white" transform="translate(241.053 6.67139) rotate(7.47772)"/>
</clipPath>
<clipPath id="clip32_2891_317">
<rect width="14.0576" height="14.0576" fill="white" transform="translate(263.703 9.64429) rotate(7.47772)"/>
</clipPath>
<clipPath id="clip33_2891_317">
<rect width="14.0576" height="14.0576" fill="white" transform="translate(286.352 12.6172) rotate(7.47772)"/>
</clipPath>
<clipPath id="clip34_2891_317">
<rect width="14.0576" height="14.0576" fill="white" transform="translate(309.001 15.5901) rotate(7.47772)"/>
</clipPath>
<clipPath id="clip35_2891_317">
<rect width="14.0576" height="14.0576" fill="white" transform="translate(331.651 18.563) rotate(7.47772)"/>
</clipPath>
<clipPath id="clip36_2891_317">
<rect width="14.0576" height="14.0576" fill="white" transform="translate(354.3 21.5359) rotate(7.47772)"/>
</clipPath>
<clipPath id="clip37_2891_317">
<rect width="14.0576" height="14.0576" fill="white" transform="translate(376.949 24.5087) rotate(7.47772)"/>
</clipPath>
<clipPath id="clip38_2891_317">
<rect width="14.0576" height="14.0576" fill="white" transform="translate(99.2112 34.1328) rotate(7.47772)"/>
</clipPath>
<clipPath id="clip39_2891_317">
<rect width="14.0576" height="14.0576" fill="white" transform="translate(144.51 40.0786) rotate(7.47772)"/>
</clipPath>
<clipPath id="clip40_2891_317">
<rect width="14.0576" height="14.0576" fill="white" transform="translate(189.809 46.0244) rotate(7.47772)"/>
</clipPath>
<clipPath id="clip41_2891_317">
<rect width="14.0576" height="14.0576" fill="white" transform="translate(235.108 51.9702) rotate(7.47772)"/>
</clipPath>
<clipPath id="clip42_2891_317">
<rect width="14.0576" height="14.0576" fill="white" transform="translate(280.406 57.9159) rotate(7.47772)"/>
</clipPath>
<clipPath id="clip43_2891_317">
<rect width="14.0576" height="14.0576" fill="white" transform="translate(325.705 63.8617) rotate(7.47772)"/>
</clipPath>
<clipPath id="clip44_2891_317">
<rect width="14.0576" height="14.0576" fill="white" transform="translate(348.354 66.8346) rotate(7.47772)"/>
</clipPath>
<clipPath id="clip45_2891_317">
<rect width="14.0576" height="14.0576" fill="white" transform="translate(371.004 69.8075) rotate(7.47772)"/>
</clipPath>
<clipPath id="clip46_2891_317">
<rect width="14.0576" height="14.0576" fill="white" transform="translate(393.653 72.7803) rotate(7.47772)"/>
</clipPath>
</defs>
</svg>
