
<svg xmlns="http://www.w3.org/2000/svg" width="119" height="44" fill="none"><path fill="#fff" d="M28.35 32.01c.994 0 1.896.242 2.706.725a5.339 5.339 0 0 1 1.937 1.916c.483.81.725 1.733.725 2.77 0 1.093-.242 2.094-.725 3.002a5.564 5.564 0 0 1-1.917 2.13c-.81.525-1.717.788-2.725.788-.994 0-1.896-.228-2.706-.682a5.337 5.337 0 0 1-1.937-1.916c-.468-.824-.703-1.761-.703-2.812 0-1.121.235-2.13.703-3.024.469-.894 1.107-1.597 1.916-2.108.81-.526 1.719-.789 2.727-.789Zm9.775.341h3.578v.831l-3.578.042-.042 5.921c0 .639.05 1.186.148 1.64.114.44.292.774.534 1 .241.228.553.342.936.342.398 0 .767-.114 1.108-.341a3.27 3.27 0 0 0 .937-.937l.575.468c-.312.468-.625.838-.937 1.108a3.42 3.42 0 0 1-.873.596 2.42 2.42 0 0 1-.788.256 3.63 3.63 0 0 1-.617.063c-.327 0-.66-.049-1.002-.148a2.237 2.237 0 0 1-.959-.533c-.283-.27-.51-.66-.681-1.171-.17-.525-.255-1.214-.255-2.066l.042-6.176-1.64.021v-.916c.37-.014.746-.148 1.13-.404.383-.27.724-.632 1.022-1.086.312-.454.525-.952.638-1.491h.724v2.981Zm10.067-.34c.994 0 1.896.241 2.706.724a5.339 5.339 0 0 1 1.937 1.916c.483.81.725 1.733.725 2.77 0 1.093-.242 2.094-.725 3.002a5.564 5.564 0 0 1-1.917 2.13c-.81.525-1.718.788-2.726.788-.993 0-1.895-.228-2.705-.682a5.337 5.337 0 0 1-1.937-1.916c-.469-.824-.703-1.761-.703-2.812 0-1.121.234-2.13.703-3.024.468-.894 1.107-1.597 1.916-2.108.81-.526 1.718-.789 2.726-.789Zm12.245 0c.795 0 1.484.12 2.066.362.596.241 1.058.56 1.385.958.326.397.49.831.49 1.3 0 .312-.086.581-.256.808-.17.213-.419.32-.745.32-.355.014-.611-.093-.768-.32-.141-.241-.212-.454-.212-.639 0-.142.021-.283.064-.425a.954.954 0 0 1 .255-.426c-.114-.34-.312-.59-.596-.746a2.34 2.34 0 0 0-.894-.32 4.112 4.112 0 0 0-.745-.085c-.966 0-1.782.392-2.45 1.172-.653.767-.98 1.888-.98 3.365 0 .95.149 1.797.447 2.535.312.738.746 1.32 1.3 1.746a3.127 3.127 0 0 0 1.917.617 3.76 3.76 0 0 0 1.916-.532c.61-.355 1.086-.788 1.427-1.299l.553.426a4.877 4.877 0 0 1-1.34 1.448c-.512.37-1.044.64-1.598.81-.54.17-1.05.255-1.533.255a5.586 5.586 0 0 1-2.642-.64 5.057 5.057 0 0 1-1.916-1.873c-.468-.824-.703-1.81-.703-2.96 0-.738.135-1.456.404-2.151.27-.696.646-1.32 1.13-1.874A5.46 5.46 0 0 1 58.18 32.5a5.157 5.157 0 0 1 2.258-.49Zm10.593 0c.994 0 1.896.241 2.705.724a5.339 5.339 0 0 1 1.938 1.916c.483.81.724 1.733.724 2.77 0 1.093-.242 2.094-.724 3.002a5.564 5.564 0 0 1-1.917 2.13c-.81.525-1.718.788-2.726.788-.994 0-1.895-.228-2.705-.682a5.337 5.337 0 0 1-1.937-1.916c-.469-.824-.703-1.761-.703-2.812 0-1.121.234-2.13.703-3.024.468-.894 1.107-1.597 1.916-2.108.809-.526 1.718-.789 2.726-.789ZM6.92 28.048c1.377 0 2.535.157 3.472.47.937.312 1.654.773 2.151 1.383.497.61.766 1.37.809 2.28a4.83 4.83 0 0 1-.255 1.745c-.185.597-.54 1.165-1.066 1.705-.51.525-1.235.95-2.172 1.277-.937.326-2.137.49-3.6.49H5.94c-.156 0-.305-.007-.447-.021v3.087c0 .384-.007.717-.021 1.002 0 .27-.014.497-.042.681l.66-.043a9.66 9.66 0 0 1 .639-.02l.66-.043V43H2.17v-.703c.54-.028.909-.149 1.107-.362.2-.227.305-.532.32-.916.028-.397.043-.845.043-1.342v-9.2c0-.284.007-.554.021-.81.014-.269.028-.51.042-.723l-.767.042-.766.043v-.938c.752-.014 1.526-.02 2.321-.02.795-.014 1.605-.022 2.428-.022Zm14.152 3.961c.398 0 .745.107 1.043.32.298.213.448.554.448 1.022 0 .114-.036.256-.107.426a1.19 1.19 0 0 1-.34.426c-.157.113-.363.17-.618.17a.971.971 0 0 1-.745-.362 1.076 1.076 0 0 1-.214-.83c-.355-.014-.724.078-1.107.277a4.01 4.01 0 0 0-1.043.83c-.327.341-.618.746-.873 1.215l.02 5.239c0 .284-.006.54-.02.766 0 .213-.022.44-.065.682.227-.014.447-.021.66-.021.227-.015.455-.03.682-.043V43h-4.366v-.639c.44 0 .745-.106.916-.32.17-.226.27-.532.299-.915.028-.398.042-.853.042-1.364v-5.537c.014-.227.042-.46.085-.702l-.767.042c-.241 0-.49.007-.745.022v-.873h.66c.61 0 1.03-.058 1.257-.171a2.9 2.9 0 0 0 .596-.405h.618c.028.227.049.511.063.852.014.326.029.746.043 1.257.213-.355.504-.703.873-1.044a5.32 5.32 0 0 1 1.235-.852 3.33 3.33 0 0 1 1.47-.34Zm59.605 8.733c0 .284-.008.54-.022.766-.014.213-.042.44-.085.682.227-.014.448-.021.66-.021.228-.015.455-.03.682-.043V43h-4.345v-.639c.44 0 .746-.106.916-.32.17-.226.27-.532.298-.915.029-.398.043-.853.043-1.364V29.05c.014-.212.035-.46.064-.745l-.767.042c-.241.014-.49.03-.745.043v-.894c.625 0 1.108-.028 1.448-.085.355-.057.618-.128.788-.213.185-.085.327-.178.426-.277h.617l.022 13.822ZM28.35 32.82c-.739 0-1.342.213-1.811.639-.468.425-.816.98-1.043 1.66a7.314 7.314 0 0 0-.32 2.194c0 .88.12 1.719.362 2.514.241.78.61 1.42 1.107 1.917.497.497 1.122.745 1.874.745.753 0 1.35-.213 1.79-.639.44-.426.753-.98.937-1.66a7.649 7.649 0 0 0 .298-2.152c0-.64-.064-1.264-.192-1.874a6.01 6.01 0 0 0-.553-1.683 3.268 3.268 0 0 0-1.001-1.214c-.398-.298-.88-.447-1.448-.447Zm19.841 0c-.738 0-1.342.213-1.81.639-.469.425-.816.98-1.043 1.66a7.314 7.314 0 0 0-.32 2.194c0 .88.12 1.719.362 2.514.241.78.61 1.42 1.107 1.917.497.497 1.122.745 1.874.745.753 0 1.35-.213 1.79-.639.44-.426.752-.98.937-1.66a7.649 7.649 0 0 0 .298-2.152c0-.64-.064-1.264-.192-1.874a6.01 6.01 0 0 0-.553-1.683 3.268 3.268 0 0 0-1.001-1.214c-.398-.298-.88-.447-1.449-.447Zm22.838 0c-.738 0-1.342.213-1.81.639-.469.425-.816.98-1.043 1.66a7.317 7.317 0 0 0-.32 2.194c0 .88.12 1.719.362 2.514.241.78.61 1.42 1.107 1.917.497.497 1.122.745 1.874.745s1.35-.213 1.79-.639c.44-.426.752-.98.937-1.66a7.649 7.649 0 0 0 .298-2.152c0-.64-.064-1.264-.192-1.874a6.013 6.013 0 0 0-.553-1.683 3.268 3.268 0 0 0-1.002-1.214c-.397-.298-.88-.447-1.448-.447ZM6.878 28.88c-.497 0-.845.106-1.044.319-.185.213-.29.511-.32.894-.014.37-.02.81-.02 1.322v5.09c.269.028.496.049.68.063h.704c.81 0 1.548-.156 2.215-.469a3.984 3.984 0 0 0 1.597-1.383c.397-.597.596-1.307.596-2.13 0-.668-.106-1.236-.32-1.704a2.736 2.736 0 0 0-.915-1.15 3.556 3.556 0 0 0-1.384-.64 7.025 7.025 0 0 0-1.79-.212ZM24.895 4.733c.37 0 .646.1.83.298.2.184.3.44.3.767 0 .099-.03.22-.086.362a.807.807 0 0 1-.298.362c-.128.1-.306.149-.533.149a.853.853 0 0 1-.596-.213.953.953 0 0 1-.298-.533 1.204 1.204 0 0 0-.831.511c-.199.27-.334.568-.404.895.34.312.61.689.81 1.129.212.44.318.909.318 1.406 0 .795-.213 1.504-.638 2.129a4.317 4.317 0 0 1-1.64 1.47c-.682.34-1.42.511-2.216.511-.27 0-.503-.014-.702-.043a3.52 3.52 0 0 0-.725-.063c-.525 0-.95.127-1.277.383-.326.255-.44.56-.34.916.113.34.46.56 1.042.66.582.085 1.364.149 2.343.191 1.093.043 2.03.171 2.812.384.78.213 1.377.54 1.789.98.425.454.638 1.064.638 1.83 0 .569-.156 1.073-.468 1.513-.299.454-.703.831-1.214 1.13a6.15 6.15 0 0 1-1.683.68 7.448 7.448 0 0 1-1.852.234c-1.278 0-2.307-.142-3.088-.426-.781-.284-1.35-.645-1.704-1.086-.355-.44-.533-.894-.533-1.363 0-.44.1-.83.298-1.17.213-.327.469-.612.767-.853.312-.242.61-.419.894-.533-.454-.156-.816-.361-1.086-.617-.255-.27-.382-.625-.382-1.065 0-.497.198-.958.595-1.384.398-.44.909-.71 1.533-.81a4.051 4.051 0 0 1-1.575-1.298c-.383-.554-.575-1.2-.575-1.939 0-.852.22-1.59.66-2.215a4.412 4.412 0 0 1 1.683-1.47 4.68 4.68 0 0 1 2.15-.532c.469 0 .938.071 1.407.213.468.128.9.32 1.298.576.142-.398.341-.753.597-1.065.27-.312.574-.554.915-.725.34-.184.696-.276 1.066-.276Zm-7.347 12.8a2.81 2.81 0 0 0-.895.936c-.213.37-.319.76-.319 1.172 0 .696.326 1.25.98 1.661.667.426 1.547.639 2.64.64 1.221 0 2.173-.228 2.855-.683.68-.454 1.021-.987 1.021-1.597 0-.525-.177-.93-.532-1.214-.355-.27-.838-.462-1.448-.575-.61-.1-1.314-.156-2.109-.17-.383-.014-.76-.035-1.129-.064a8.46 8.46 0 0 1-1.064-.106ZM31.409 6.01c.596 0 1.15.1 1.661.3.526.184.987.475 1.384.872.398.384.71.873.938 1.469.227.582.34 1.271.34 2.066l-7.497.128c0 1.08.114 2.03.341 2.854.241.81.625 1.441 1.15 1.895.526.44 1.2.66 2.024.66.44 0 .888-.078 1.342-.234a5.268 5.268 0 0 0 1.299-.638c.397-.27.716-.569.958-.895l.511.426a4.753 4.753 0 0 1-1.384 1.427c-.54.355-1.094.61-1.661.766a5.974 5.974 0 0 1-1.577.234c-.98 0-1.867-.227-2.662-.681a5.03 5.03 0 0 1-1.852-1.96c-.455-.851-.682-1.852-.682-3.002 0-.994.22-1.924.66-2.79a5.48 5.48 0 0 1 1.896-2.087c.809-.54 1.746-.81 2.811-.81Zm21.14.341h3.578v.831l-3.578.042-.042 5.921c0 .639.049 1.186.148 1.64.114.44.292.774.533 1 .242.228.554.342.937.342.398 0 .767-.114 1.107-.341.355-.227.668-.54.938-.937l.575.468c-.312.469-.625.838-.937 1.107-.298.27-.59.47-.873.597a2.42 2.42 0 0 1-.788.256 3.63 3.63 0 0 1-.618.063c-.326 0-.66-.049-1-.148a2.238 2.238 0 0 1-.96-.533c-.284-.27-.511-.66-.681-1.171-.17-.525-.255-1.214-.255-2.066l.042-6.176-1.64.021v-.916c.37-.014.746-.148 1.13-.404.382-.27.723-.632 1.022-1.086.312-.454.525-.952.638-1.491h.724V6.35Zm17.387-4.6c.795 0 1.548.107 2.257.32a7.51 7.51 0 0 1 2.045.98l-.106-1.15h1.15v4.94h-.767c-.142-1.334-.61-2.37-1.406-3.109-.78-.738-1.789-1.107-3.024-1.107-.752 0-1.463.162-2.13.489a5.099 5.099 0 0 0-1.724 1.363c-.497.597-.888 1.314-1.172 2.152-.284.837-.426 1.781-.426 2.832 0 1.334.255 2.513.766 3.535.511 1.022 1.2 1.818 2.067 2.386a5.133 5.133 0 0 0 2.875.851 6.46 6.46 0 0 0 2.725-.617 5.621 5.621 0 0 0 2.195-1.832l.553.447c-.61.838-1.271 1.484-1.981 1.939-.71.454-1.42.76-2.129.916a8.104 8.104 0 0 1-1.917.255c-1.065 0-2.045-.192-2.94-.576a7.048 7.048 0 0 1-2.3-1.596 7.625 7.625 0 0 1-1.49-2.408 8.544 8.544 0 0 1-.511-2.981c0-1.008.15-1.987.447-2.939a8.216 8.216 0 0 1 1.385-2.577 6.648 6.648 0 0 1 2.3-1.832c.937-.454 2.023-.68 3.258-.68Zm23.298 4.26c.597 0 1.15.1 1.662.298.525.185.986.476 1.383.873.398.384.71.873.938 1.469.227.582.34 1.271.34 2.066l-7.496.128c0 1.08.113 2.03.34 2.854.242.81.625 1.441 1.15 1.895.526.44 1.2.66 2.024.66.44 0 .888-.078 1.342-.234a5.268 5.268 0 0 0 1.299-.638c.397-.27.717-.569.958-.895l.511.426a4.752 4.752 0 0 1-1.384 1.427 5.83 5.83 0 0 1-1.661.766 5.973 5.973 0 0 1-1.576.234c-.98 0-1.868-.227-2.663-.681a5.03 5.03 0 0 1-1.852-1.96c-.455-.851-.682-1.852-.682-3.002 0-.994.22-1.924.66-2.79a5.48 5.48 0 0 1 1.896-2.087c.81-.54 1.746-.81 2.811-.81Zm21.14.34h3.578v.831l-3.578.042-.042 5.921c0 .639.049 1.186.148 1.64.114.44.292.774.534 1 .241.228.553.342.936.342.398 0 .767-.114 1.108-.341a3.27 3.27 0 0 0 .937-.937l.575.468c-.312.469-.625.838-.937 1.107-.298.27-.589.47-.873.597a2.423 2.423 0 0 1-.788.256 3.63 3.63 0 0 1-.618.063c-.326 0-.66-.049-1-.148a2.235 2.235 0 0 1-.959-.533c-.284-.27-.512-.66-.682-1.171-.17-.525-.255-1.214-.255-2.066l.042-6.176-1.64.021v-.916c.37-.014.746-.148 1.129-.404.384-.27.725-.632 1.023-1.086.312-.454.525-.952.638-1.491h.724V6.35ZM12.586 13.805c.114.299.24.682.383 1.15.142.47.199.867.17 1.193l.724-.043.725-.042V17H9.71v-.703c.54-.014.895-.135 1.065-.362.17-.227.234-.497.192-.81a3.737 3.737 0 0 0-.213-.85l-.745-2.003-5.537.128-.746 2.278c-.1.341-.192.611-.277.81-.07.199-.156.419-.256.66l.831-.043.83-.042V17H.872v-.703c.426 0 .752-.113.98-.34.227-.228.411-.54.553-.938.156-.397.334-.858.533-1.384L7.324 1.687h.51l4.75 12.118ZM43.74 6.01c1.235 0 2.137.391 2.705 1.172.568.767.852 1.967.852 3.599v3.962c0 .284-.007.54-.022.766 0 .213-.02.44-.063.682.227-.014.447-.021.66-.021.227-.015.455-.03.682-.043V17h-4.345v-.639c.44 0 .745-.107.915-.32.17-.226.27-.532.299-.915.028-.398.042-.853.042-1.364v-2.981c-.014-1.221-.22-2.144-.617-2.769-.384-.624-.995-.93-1.832-.916a3.492 3.492 0 0 0-1.512.406 3.928 3.928 0 0 0-1.214.98c.014.113.022.241.022.383v.447l-.022 5.43c0 .285-.007.54-.021.767 0 .213-.021.44-.064.682.227-.014.447-.021.66-.021.227-.015.455-.03.682-.043V17h-4.345v-.639c.44 0 .745-.107.915-.32.17-.226.27-.532.299-.915.028-.398.042-.853.042-1.364l.022-4.855v-.682c.014-.227.042-.46.085-.702l-.767.042-.745.043v-.894c.624 0 1.093-.029 1.405-.085.327-.057.568-.128.725-.213.156-.085.283-.178.382-.278h.619c.014.1.021.213.021.341.014.128.028.27.042.426.014.156.022.334.022.532.312-.27.653-.51 1.022-.723.383-.213.78-.384 1.192-.512a4.36 4.36 0 0 1 1.257-.192Zm36.125 8.733c0 .284-.007.54-.021.766a6.4 6.4 0 0 1-.085.682c.227-.014.447-.021.66-.021.227-.015.455-.03.682-.043V17h-4.345v-.639c.44 0 .745-.106.916-.32.17-.226.27-.532.298-.915.028-.398.043-.853.043-1.364V3.05c.014-.212.035-.46.063-.745-.255.015-.511.028-.766.042-.242.015-.49.03-.746.043v-.894c.625 0 1.108-.028 1.449-.085.355-.057.617-.128.788-.213.184-.085.326-.178.426-.277h.617l.021 13.822Zm5.57 0c0 .284-.008.54-.022.766 0 .213-.022.44-.064.682.227-.014.448-.021.66-.021.228-.015.454-.03.681-.043V17h-4.344v-.639c.44 0 .745-.107.916-.32.17-.226.27-.532.299-.915.028-.398.041-.853.041-1.364V8.907c0-.227.008-.44.022-.639.014-.213.035-.461.064-.745l-.767.042-.745.043v-.894c.624 0 1.107-.029 1.448-.085.34-.057.596-.128.767-.213.184-.085.326-.178.425-.278h.619v8.605Zm20.13-8.733c1.236 0 2.137.391 2.705 1.172.567.767.852 1.966.852 3.599v3.962c0 .284-.007.54-.021.766 0 .213-.021.44-.064.682.227-.014.447-.021.66-.021.227-.015.455-.03.682-.043V17h-4.345v-.639c.44 0 .745-.107.915-.32.171-.226.271-.532.299-.915.028-.398.042-.853.042-1.364v-2.981c-.014-1.221-.22-2.144-.617-2.769-.384-.624-.995-.93-1.832-.916a3.494 3.494 0 0 0-1.512.406 3.93 3.93 0 0 0-1.214.98c.014.113.022.241.022.383v.447l-.022 5.43c0 .285-.007.54-.021.767 0 .213-.021.44-.064.682.227-.014.448-.021.66-.021.228-.015.455-.03.682-.043V17h-4.345v-.639c.44 0 .745-.107.915-.32.171-.226.271-.532.299-.915.029-.398.042-.853.042-1.364l.022-4.855v-.682c.014-.227.042-.46.085-.702l-.767.042-.745.043v-.894c.624 0 1.093-.029 1.405-.085.327-.057.569-.128.725-.213.156-.085.283-.178.383-.278h.618c.014.1.021.213.021.341.014.128.028.27.042.426.014.156.022.334.022.532.312-.27.653-.51 1.022-.723a6.305 6.305 0 0 1 1.193-.512 4.359 4.359 0 0 1 1.256-.192Zm-85.994.746c-.766 0-1.363.291-1.789.874-.411.567-.618 1.277-.618 2.128 0 .682.1 1.286.299 1.811.199.511.482.916.851 1.214.384.284.838.426 1.364.426.525 0 .958-.128 1.299-.383.354-.256.617-.604.788-1.044.184-.44.277-.937.277-1.49 0-.625-.093-1.208-.277-1.747-.185-.54-.462-.973-.831-1.3-.355-.326-.81-.49-1.363-.49ZM7.197 4.796c-.142.398-.29.795-.447 1.193a66.26 66.26 0 0 1-.447 1.214L4.79 11.484H9.71L8.198 7.417c-.156-.44-.32-.874-.49-1.3l-.468-1.32h-.043Zm24.234 2.045c-.824 0-1.513.249-2.067.746-.54.482-.894 1.27-1.064 2.364h5.43c0-.511-.078-1.001-.234-1.47a2.423 2.423 0 0 0-.724-1.17c-.341-.313-.788-.47-1.341-.47Zm61.825 0c-.824 0-1.513.249-2.067.746-.54.482-.894 1.27-1.064 2.364h5.43c0-.511-.078-1.001-.234-1.47a2.423 2.423 0 0 0-.724-1.17c-.341-.313-.788-.47-1.341-.47Zm-8.844-5.345c.327 0 .597.127.81.383.227.24.34.54.34.894 0 .355-.12.653-.362.895a1.075 1.075 0 0 1-.81.362c-.297 0-.56-.121-.787-.362a1.256 1.256 0 0 1-.341-.895c0-.355.113-.653.34-.894.242-.256.512-.383.81-.383Z"/></svg>
