<svg width="257" height="47" viewBox="0 0 257 47" fill="none" xmlns="http://www.w3.org/2000/svg">
<g clip-path="url(#clip0_100_26)">
<path d="M119.922 24.4481L109.212 5.8996C107.081 2.20815 103.26 0 98.9973 0C94.7394 0 90.9279 2.19855 88.7918 5.8804L66.6239 44.2734C66.3646 44.7198 66.3646 45.2671 66.6239 45.7135C66.8831 46.1599 67.3583 46.4336 67.8719 46.4336H73.7715C74.2852 46.4336 74.7604 46.1599 75.0196 45.7135L76.9302 42.4013L77.5158 41.4652C77.5158 41.4652 77.535 41.4364 77.5398 41.422L84.6923 29.0324C84.7211 28.9844 84.7499 28.9316 84.7691 28.874C84.8363 28.7203 84.9035 28.5763 84.9851 28.4419L95.6946 9.89347C96.3811 8.70299 97.6148 7.98774 98.9925 7.98774C100.37 7.98774 101.604 8.69819 102.29 9.89347L113 28.4419C113.686 29.6324 113.691 31.0581 113 32.2486C112.313 33.4391 111.08 34.1543 109.702 34.1543H102.232C101.718 34.1543 101.243 34.4279 100.984 34.8744L98.0318 39.9819C97.7726 40.4283 97.7726 40.9756 98.0318 41.422C98.291 41.8684 98.7662 42.1421 99.2799 42.1421H109.404C113.965 42.1421 118.079 39.7275 120.133 35.844C122.039 32.2438 121.957 27.9859 119.912 24.4433L119.922 24.4481Z" fill="white"/>
<path d="M82.8564 34.1538H104.17L103.872 42.1416H79.9042C79.3905 42.1416 78.9153 41.8679 78.6561 41.4215C78.3969 40.9751 78.3969 40.4278 78.6561 39.9814L81.6083 34.8739C81.8675 34.4274 82.3427 34.1538 82.8564 34.1538Z" fill="url(#paint0_linear_100_26)"/>
<path d="M43.7123 25.1535C43.7123 24.9039 43.6451 24.659 43.5155 24.443L32.8972 6.14897C30.7131 2.36152 26.7288 -0.000244141 22.5093 -0.000244141C22.3701 -0.000244141 22.2309 -0.000244141 22.0869 0.00935651C18.0162 0.158167 14.368 2.36152 12.323 5.89936L1.61829 24.4478C-1.31951 29.5314 -0.181833 35.6374 4.44568 39.6361C6.31301 41.2538 8.78518 42.1418 11.4062 42.1418H31.3851C31.8987 42.1418 32.374 41.8682 32.6332 41.4218L35.5806 36.3142C35.8398 35.8678 35.8398 35.3206 35.5806 34.8741C35.3214 34.4277 34.8461 34.1541 34.3325 34.1541H11.8334C10.4557 34.1541 9.22201 33.4436 8.53556 32.2532C7.84431 31.0627 7.84431 29.6418 8.53556 28.4465L19.2451 9.89803C19.9315 8.70755 21.1652 7.9923 22.5429 7.9923C23.9206 7.9923 25.1495 8.70275 25.8407 9.89803L41.1346 36.4198C41.461 36.9863 42.1282 37.2599 42.7619 37.0919C43.3955 36.9191 43.8276 36.343 43.8228 35.6902L43.7171 25.1583L43.7123 25.1535Z" fill="url(#paint1_linear_100_26)"/>
<path d="M4.44544 39.6362C-0.182077 35.6376 -1.31975 29.5315 1.61805 24.448L8.53532 28.4467C7.84407 29.6419 7.84407 31.0628 8.53532 32.2533C9.22176 33.4438 10.4554 34.1543 11.8331 34.1543H34.3323C34.8459 34.1543 35.3211 34.4279 35.5804 34.8743C35.8396 35.3207 35.8396 35.868 35.5804 36.3144L32.633 41.422C32.3737 41.8684 31.8985 42.142 31.3849 42.142H11.4059C8.78493 42.142 6.31276 41.2539 4.44544 39.6362Z" fill="white"/>
<path d="M74.6308 34.8696C74.3716 34.4231 73.8964 34.1495 73.3827 34.1495H51.2532C49.8755 34.1495 48.6418 33.4391 47.9554 32.2486C47.2642 31.0581 47.2642 29.6372 47.9554 28.4419L58.6649 9.89347C59.3514 8.70299 60.5851 7.98774 61.9628 7.98774C63.3404 7.98774 64.5693 8.69819 65.2606 9.89347L65.899 10.9975C66.1582 11.444 66.6335 11.7176 67.1471 11.7176C67.6607 11.7176 68.1408 11.4392 68.3952 10.9927L71.2322 6.01961C71.5298 5.49637 71.4722 4.84353 71.0882 4.3827C68.7648 1.59851 65.4238 0 61.9291 0C61.7899 0 61.6507 0 61.5067 0.00960065C57.436 0.158411 53.7878 2.36176 51.7429 5.8996L41.0333 24.4481C38.0955 29.5316 39.2332 35.6376 43.8607 39.6363C45.728 41.254 48.2002 42.1421 50.8212 42.1421H70.4257C70.9394 42.1421 71.4146 41.8684 71.6738 41.422L74.626 36.3145C74.8852 35.868 74.8852 35.3208 74.626 34.8744L74.6308 34.8696Z" fill="url(#paint2_linear_100_26)"/>
</g>
<path d="M132.976 15.5649V14.6449C133.383 14.6449 133.695 14.5359 133.911 14.3178C134.128 14.0998 134.311 13.8067 134.461 13.4388C134.61 13.0571 134.773 12.6346 134.949 12.1712L139.057 0.865676H139.871L144.325 12.3348C144.434 12.5937 144.556 12.9481 144.692 13.3979C144.827 13.834 144.888 14.2088 144.875 14.5223C145.105 14.495 145.329 14.4814 145.546 14.4814C145.776 14.4678 145.993 14.4541 146.197 14.4405V15.5649H141.254V14.6654C141.729 14.6518 142.041 14.5495 142.19 14.3587C142.352 14.1543 142.413 13.909 142.373 13.6227C142.346 13.3365 142.278 13.0503 142.169 12.7641L141.559 11.1081L136.576 11.2308L135.986 13.0094C135.905 13.282 135.817 13.541 135.722 13.7863C135.627 14.0316 135.532 14.2701 135.437 14.5018C135.681 14.4746 135.939 14.461 136.21 14.461C136.495 14.4473 136.745 14.4337 136.962 14.4201V15.5649H132.976ZM136.942 10.1268H141.213L139.932 6.67178C139.769 6.22201 139.613 5.77906 139.464 5.34292C139.315 4.89315 139.179 4.46382 139.057 4.05494H139.037C138.929 4.39568 138.807 4.77048 138.671 5.17937C138.535 5.58825 138.379 6.0312 138.203 6.50823L136.942 10.1268Z" fill="white"/>
<path d="M151.397 21.1053C150.204 21.1053 149.241 20.969 148.509 20.6964C147.791 20.4374 147.268 20.0967 146.943 19.6742C146.631 19.2653 146.475 18.8292 146.475 18.3658C146.475 17.9978 146.557 17.657 146.719 17.3436C146.896 17.0301 147.126 16.7507 147.411 16.5054C147.696 16.2737 148.014 16.0897 148.367 15.9534C147.892 15.8034 147.533 15.5922 147.289 15.3196C147.045 15.0334 146.923 14.6858 146.923 14.277C146.923 13.8408 147.092 13.4115 147.431 12.989C147.784 12.5665 148.285 12.2803 148.936 12.1303C148.326 11.8577 147.838 11.4625 147.472 10.9446C147.106 10.4267 146.916 9.81334 146.902 9.10462C146.889 8.28686 147.092 7.57132 147.513 6.95799C147.946 6.34467 148.496 5.86765 149.16 5.52691C149.838 5.18618 150.543 5.01581 151.275 5.01581C151.696 5.01581 152.13 5.07714 152.577 5.19981C153.025 5.30884 153.431 5.48603 153.798 5.73135C153.947 5.3361 154.143 4.97492 154.387 4.64782C154.631 4.32072 154.916 4.06176 155.242 3.87095C155.581 3.68014 155.933 3.58473 156.299 3.58473C156.693 3.58473 156.991 3.68695 157.194 3.89139C157.398 4.09583 157.499 4.36842 157.499 4.70915C157.499 4.81819 157.465 4.95448 157.398 5.11803C157.343 5.26796 157.242 5.39743 157.093 5.50647C156.943 5.6155 156.74 5.67002 156.482 5.67002C156.265 5.67002 156.069 5.60187 155.893 5.46558C155.73 5.31566 155.628 5.13848 155.587 4.93404C155.303 4.98855 155.065 5.15892 154.876 5.44514C154.699 5.71772 154.584 5.99713 154.53 6.28334C154.882 6.59682 155.154 6.97162 155.343 7.40776C155.547 7.83027 155.648 8.28686 155.648 8.77751C155.648 9.55439 155.438 10.2427 155.018 10.8424C154.611 11.4421 154.076 11.9123 153.411 12.253C152.747 12.5937 152.028 12.7641 151.255 12.7641C151.025 12.7641 150.808 12.7505 150.604 12.7232C150.401 12.6823 150.177 12.6619 149.933 12.6619C149.499 12.6619 149.14 12.7641 148.855 12.9685C148.584 13.173 148.482 13.4183 148.55 13.7045C148.618 14.0044 148.902 14.202 149.404 14.2974C149.906 14.3928 150.631 14.461 151.581 14.5018C152.625 14.5427 153.52 14.6722 154.265 14.8903C155.025 15.0947 155.608 15.415 156.015 15.8511C156.435 16.2873 156.645 16.8802 156.645 17.6298C156.645 18.1886 156.489 18.6861 156.177 19.1222C155.879 19.5583 155.472 19.9195 154.957 20.2057C154.455 20.5056 153.892 20.7305 153.269 20.8804C152.645 21.0303 152.021 21.1053 151.397 21.1053ZM151.581 20.1035C152.679 20.1035 153.526 19.8991 154.123 19.4902C154.733 19.0813 155.038 18.6179 155.038 18.1C155.038 17.6638 154.889 17.3231 154.591 17.0778C154.292 16.8461 153.872 16.6757 153.33 16.5667C152.801 16.4713 152.177 16.4168 151.458 16.4031C151.106 16.3759 150.747 16.3554 150.38 16.3418C150.014 16.3282 149.675 16.2941 149.363 16.2396C149.052 16.4577 148.808 16.7234 148.631 17.0369C148.469 17.3504 148.38 17.6775 148.367 18.0182C148.367 18.6452 148.658 19.1494 149.241 19.5311C149.825 19.9127 150.604 20.1035 151.581 20.1035ZM151.316 11.8032C151.777 11.8032 152.157 11.6874 152.455 11.4557C152.767 11.2104 152.998 10.8901 153.147 10.4948C153.309 10.0859 153.391 9.64298 153.391 9.16595C153.391 8.60715 153.309 8.08242 153.147 7.59176C152.984 7.1011 152.747 6.70585 152.435 6.40601C152.123 6.10616 151.723 5.95624 151.235 5.95624C150.57 5.95624 150.055 6.22201 149.689 6.75356C149.323 7.2851 149.14 7.92568 149.14 8.67529C149.14 9.27499 149.221 9.81334 149.384 10.2904C149.56 10.7538 149.811 11.1218 150.136 11.3943C150.462 11.6669 150.855 11.8032 151.316 11.8032Z" fill="white"/>
<path d="M162.5 15.892C161.551 15.892 160.696 15.674 159.937 15.2378C159.191 14.7881 158.601 14.1611 158.168 13.357C157.734 12.5392 157.517 11.5783 157.517 10.4744C157.517 9.52031 157.727 8.62759 158.147 7.7962C158.581 6.96481 159.185 6.29697 159.957 5.79269C160.73 5.27477 161.625 5.01581 162.642 5.01581C163.212 5.01581 163.747 5.1044 164.249 5.28159C164.764 5.45877 165.219 5.73817 165.612 6.11979C166.019 6.48778 166.337 6.97162 166.568 7.57132C166.798 8.15738 166.914 8.87292 166.914 9.71794L159.917 9.8406C159.917 10.7674 160.018 11.592 160.222 12.3143C160.439 13.0367 160.785 13.5955 161.259 13.9907C161.734 14.386 162.351 14.5836 163.11 14.5836C163.476 14.5836 163.863 14.5223 164.27 14.3996C164.69 14.2633 165.083 14.0725 165.449 13.8272C165.829 13.5819 166.148 13.2888 166.405 12.9481L167.036 13.5001C166.629 14.1134 166.161 14.5972 165.632 14.9516C165.103 15.2923 164.561 15.5309 164.005 15.6672C163.463 15.8171 162.961 15.892 162.5 15.892ZM159.998 8.77751H164.697C164.697 8.2596 164.622 7.7962 164.473 7.38732C164.337 6.96481 164.12 6.63089 163.822 6.38556C163.524 6.14023 163.144 6.01757 162.683 6.01757C161.964 6.01757 161.374 6.24927 160.913 6.71267C160.452 7.16244 160.147 7.85072 159.998 8.77751Z" fill="white"/>
<path d="M168.419 15.5649V14.7063C168.826 14.7063 169.111 14.6109 169.273 14.4201C169.436 14.2293 169.531 13.9635 169.558 13.6227C169.599 13.282 169.619 12.8868 169.619 12.437L169.64 8.18464C169.64 7.96657 169.64 7.73487 169.64 7.48954C169.653 7.23058 169.68 6.97844 169.721 6.73311C169.477 6.74674 169.226 6.76037 168.968 6.774C168.724 6.774 168.494 6.78081 168.277 6.79444V5.71091C168.887 5.71091 169.362 5.68365 169.701 5.62913C170.053 5.56099 170.318 5.48603 170.494 5.40425C170.684 5.32247 170.826 5.23388 170.921 5.13848H171.653C171.667 5.26114 171.673 5.37699 171.673 5.48603C171.687 5.59506 171.694 5.71091 171.694 5.83357C171.707 5.95624 171.721 6.11298 171.735 6.30379C172.033 6.05846 172.358 5.84039 172.711 5.64958C173.063 5.45877 173.429 5.30884 173.809 5.19981C174.202 5.07714 174.575 5.01581 174.928 5.01581C176.135 5.01581 177.003 5.38381 177.531 6.11979C178.074 6.85578 178.345 8.00745 178.345 9.57483V13.0299C178.345 13.2752 178.338 13.5273 178.325 13.7863C178.311 14.0316 178.291 14.2838 178.264 14.5427C178.481 14.5291 178.697 14.5223 178.914 14.5223C179.145 14.5087 179.355 14.495 179.545 14.4814V15.5649H175.009V14.7063C175.416 14.7063 175.701 14.6109 175.863 14.4201C176.026 14.2293 176.121 13.9635 176.148 13.6227C176.189 13.282 176.209 12.8868 176.209 12.437V9.57483C176.196 8.49811 176.019 7.68717 175.68 7.14199C175.355 6.59682 174.826 6.33105 174.094 6.34467C173.66 6.34467 173.233 6.45371 172.813 6.67178C172.392 6.88985 172.04 7.15562 171.755 7.4691C171.755 7.60539 171.755 7.75531 171.755 7.91886C171.755 8.06879 171.755 8.22552 171.755 8.38908V13.0299C171.755 13.2752 171.748 13.5273 171.735 13.7863C171.721 14.0316 171.701 14.2838 171.673 14.5427C171.89 14.5291 172.107 14.5223 172.324 14.5223C172.555 14.5087 172.765 14.495 172.955 14.4814V15.5649H168.419Z" fill="white"/>
<path d="M184.495 15.892C184.156 15.892 183.81 15.8443 183.458 15.7489C183.119 15.6671 182.807 15.4968 182.522 15.2378C182.237 14.9652 182.014 14.5768 181.851 14.0725C181.688 13.5682 181.607 12.9004 181.607 12.069L181.648 6.48778H180.142V5.34292C180.509 5.32929 180.881 5.19299 181.261 4.93404C181.641 4.67508 181.973 4.32753 182.258 3.89139C182.543 3.45525 182.739 2.98504 182.848 2.48075H183.804V5.34292H186.936V6.40601L183.804 6.4469L183.763 11.9054C183.763 12.4234 183.804 12.8799 183.885 13.2752C183.98 13.6568 184.129 13.9567 184.332 14.1747C184.549 14.3792 184.841 14.4814 185.207 14.4814C185.519 14.4814 185.838 14.386 186.163 14.1952C186.502 14.0044 186.821 13.6909 187.119 13.2548L187.811 13.8681C187.485 14.3451 187.16 14.7199 186.834 14.9925C186.509 15.2651 186.197 15.4627 185.899 15.5854C185.6 15.7217 185.329 15.8034 185.085 15.8307C184.841 15.8716 184.644 15.892 184.495 15.892Z" fill="white"/>
<path d="M188.83 21.1053L187.508 20.2671L199.224 0.0683594L200.708 1.00878L188.83 21.1053Z" fill="white"/>
<path d="M212.664 5.81313C212.515 4.58649 212.095 3.64606 211.403 2.99185C210.712 2.32402 209.81 1.98328 208.698 1.96965C207.993 1.96965 207.342 2.12639 206.745 2.43987C206.149 2.75334 205.633 3.19629 205.199 3.76873C204.766 4.32753 204.427 4.99537 204.182 5.77224C203.952 6.53549 203.837 7.37369 203.837 8.28686C203.837 9.52713 204.054 10.6311 204.488 11.5988C204.921 12.5528 205.518 13.2956 206.277 13.8272C207.05 14.3587 207.925 14.6245 208.901 14.6245C209.769 14.6245 210.623 14.4201 211.464 14.0112C212.318 13.5887 213.023 12.9958 213.579 12.2326L214.251 12.805C213.64 13.65 212.99 14.2974 212.298 14.7472C211.606 15.1969 210.915 15.4968 210.223 15.6467C209.545 15.8103 208.928 15.892 208.372 15.892C207.355 15.892 206.42 15.708 205.566 15.34C204.711 14.9721 203.972 14.461 203.349 13.8067C202.738 13.1389 202.264 12.3688 201.925 11.4966C201.599 10.6107 201.437 9.65661 201.437 8.63441C201.437 7.68035 201.586 6.74674 201.884 5.83357C202.182 4.92041 202.623 4.09583 203.206 3.35985C203.789 2.61023 204.521 2.01736 205.403 1.58122C206.298 1.14508 207.335 0.927008 208.515 0.927008C209.206 0.927008 209.878 1.02241 210.528 1.21322C211.193 1.40404 211.83 1.69707 212.44 2.09232L212.339 1.07012H213.6V5.81313H212.664Z" fill="white"/>
<path d="M215.152 14.7063C215.559 14.7063 215.844 14.6109 216.006 14.4201C216.169 14.2293 216.264 13.9635 216.291 13.6227C216.332 13.282 216.352 12.8868 216.352 12.437V3.19629C216.352 2.9646 216.352 2.7329 216.352 2.5012C216.366 2.25587 216.386 1.99691 216.413 1.72432C216.183 1.73795 215.938 1.75158 215.681 1.76521C215.423 1.76521 215.193 1.77203 214.989 1.78566V0.702123C215.599 0.702123 216.081 0.674865 216.433 0.620348C216.799 0.552201 217.077 0.477239 217.267 0.395463C217.471 0.313687 217.62 0.225096 217.715 0.129691H218.488V13.0299C218.488 13.2752 218.481 13.5273 218.467 13.7863C218.454 14.0316 218.433 14.2838 218.406 14.5427C218.623 14.5291 218.84 14.5223 219.057 14.5223C219.288 14.5087 219.498 14.495 219.688 14.4814V15.5649H215.152V14.7063Z" fill="white"/>
<path d="M220.993 14.7063C221.399 14.7063 221.684 14.6109 221.847 14.4201C222.01 14.2293 222.105 13.9635 222.132 13.6227C222.172 13.282 222.193 12.8868 222.193 12.437V8.20508C222.193 7.97338 222.199 7.74168 222.213 7.50998C222.227 7.26466 222.247 7.0057 222.274 6.73311C222.044 6.74674 221.799 6.76037 221.542 6.774C221.284 6.774 221.047 6.78081 220.83 6.79444V5.71091C221.44 5.71091 221.921 5.68365 222.274 5.62913C222.64 5.56099 222.918 5.48603 223.108 5.40425C223.311 5.32247 223.461 5.23388 223.555 5.13848H224.328V13.0299C224.328 13.2752 224.322 13.5273 224.308 13.7863C224.294 14.0316 224.274 14.2838 224.247 14.5427C224.464 14.5291 224.681 14.5223 224.898 14.5223C225.128 14.5087 225.339 14.495 225.528 14.4814V15.5649H220.993V14.7063ZM223.149 3.25763C222.796 3.25763 222.498 3.12815 222.254 2.86919C222.01 2.5966 221.888 2.2695 221.888 1.88788C221.888 1.50626 222.016 1.18597 222.274 0.927008C222.532 0.654421 222.823 0.518127 223.149 0.518127C223.501 0.518127 223.793 0.654421 224.023 0.927008C224.267 1.18597 224.389 1.50626 224.389 1.88788C224.389 2.2695 224.267 2.5966 224.023 2.86919C223.793 3.12815 223.501 3.25763 223.149 3.25763Z" fill="white"/>
<path d="M231.689 15.892C230.74 15.892 229.886 15.674 229.126 15.2378C228.381 14.7881 227.791 14.1611 227.357 13.357C226.923 12.5392 226.706 11.5783 226.706 10.4744C226.706 9.52031 226.916 8.62759 227.337 7.7962C227.771 6.96481 228.374 6.29697 229.147 5.79269C229.92 5.27477 230.815 5.01581 231.832 5.01581C232.401 5.01581 232.937 5.1044 233.439 5.28159C233.954 5.45877 234.408 5.73817 234.801 6.11979C235.208 6.48778 235.527 6.97162 235.757 7.57132C235.988 8.15738 236.103 8.87292 236.103 9.71794L229.106 9.8406C229.106 10.7674 229.208 11.592 229.411 12.3143C229.628 13.0367 229.974 13.5955 230.449 13.9907C230.923 14.386 231.54 14.5836 232.299 14.5836C232.666 14.5836 233.052 14.5223 233.459 14.3996C233.879 14.2633 234.272 14.0725 234.639 13.8272C235.018 13.5819 235.337 13.2888 235.595 12.9481L236.225 13.5001C235.818 14.1134 235.35 14.5972 234.822 14.9516C234.293 15.2923 233.75 15.5309 233.194 15.6672C232.652 15.8171 232.15 15.892 231.689 15.892ZM229.188 8.77751H233.886C233.886 8.2596 233.811 7.7962 233.662 7.38732C233.527 6.96481 233.31 6.63089 233.011 6.38556C232.713 6.14023 232.333 6.01757 231.872 6.01757C231.154 6.01757 230.564 6.24927 230.103 6.71267C229.642 7.16244 229.337 7.85072 229.188 8.77751Z" fill="white"/>
<path d="M237.608 15.5649V14.7063C238.015 14.7063 238.3 14.6109 238.463 14.4201C238.625 14.2293 238.72 13.9635 238.748 13.6227C238.788 13.282 238.809 12.8868 238.809 12.437L238.829 8.18464C238.829 7.96657 238.829 7.73487 238.829 7.48954C238.842 7.23058 238.87 6.97844 238.91 6.73311C238.666 6.74674 238.415 6.76037 238.158 6.774C237.914 6.774 237.683 6.78081 237.466 6.79444V5.71091C238.076 5.71091 238.551 5.68365 238.89 5.62913C239.242 5.56099 239.507 5.48603 239.683 5.40425C239.873 5.32247 240.015 5.23388 240.11 5.13848H240.842C240.856 5.26114 240.863 5.37699 240.863 5.48603C240.876 5.59506 240.883 5.71091 240.883 5.83357C240.897 5.95624 240.91 6.11298 240.924 6.30379C241.222 6.05846 241.548 5.84039 241.9 5.64958C242.253 5.45877 242.619 5.30884 242.999 5.19981C243.392 5.07714 243.765 5.01581 244.117 5.01581C245.324 5.01581 246.192 5.38381 246.721 6.11979C247.263 6.85578 247.534 8.00745 247.534 9.57483V13.0299C247.534 13.2752 247.528 13.5273 247.514 13.7863C247.5 14.0316 247.48 14.2838 247.453 14.5427C247.67 14.5291 247.887 14.5223 248.104 14.5223C248.334 14.5087 248.544 14.495 248.734 14.4814V15.5649H244.199V14.7063C244.605 14.7063 244.89 14.6109 245.053 14.4201C245.216 14.2293 245.31 13.9635 245.338 13.6227C245.378 13.282 245.399 12.8868 245.399 12.437V9.57483C245.385 8.49811 245.209 7.68717 244.87 7.14199C244.544 6.59682 244.016 6.33105 243.283 6.34467C242.849 6.34467 242.422 6.45371 242.002 6.67178C241.582 6.88985 241.229 7.15562 240.944 7.4691C240.944 7.60539 240.944 7.75531 240.944 7.91886C240.944 8.06879 240.944 8.22552 240.944 8.38908V13.0299C240.944 13.2752 240.937 13.5273 240.924 13.7863C240.91 14.0316 240.89 14.2838 240.863 14.5427C241.08 14.5291 241.297 14.5223 241.514 14.5223C241.744 14.5087 241.954 14.495 242.144 14.4814V15.5649H237.608Z" fill="white"/>
<path d="M253.685 15.892C253.346 15.892 253 15.8443 252.647 15.7489C252.308 15.6671 251.996 15.4968 251.712 15.2378C251.427 14.9652 251.203 14.5768 251.04 14.0725C250.878 13.5682 250.796 12.9004 250.796 12.069L250.837 6.48778H249.332V5.34292C249.698 5.32929 250.071 5.19299 250.451 4.93404C250.83 4.67508 251.162 4.32753 251.447 3.89139C251.732 3.45525 251.929 2.98504 252.037 2.48075H252.993V5.34292H256.125V6.40601L252.993 6.4469L252.952 11.9054C252.952 12.4234 252.993 12.8799 253.074 13.2752C253.169 13.6568 253.318 13.9567 253.522 14.1747C253.739 14.3792 254.03 14.4814 254.396 14.4814C254.708 14.4814 255.027 14.386 255.352 14.1952C255.691 14.0044 256.01 13.6909 256.308 13.2548L257 13.8681C256.674 14.3451 256.349 14.7199 256.024 14.9925C255.698 15.2651 255.386 15.4627 255.088 15.5854C254.79 15.7217 254.518 15.8034 254.274 15.8307C254.03 15.8716 253.834 15.892 253.685 15.892Z" fill="white"/>
<path d="M134.115 40.8445C134.562 40.8173 134.881 40.7219 135.071 40.5583C135.274 40.3948 135.403 40.1494 135.457 39.8223C135.512 39.4952 135.539 39.0795 135.539 38.5752V30.0705C135.539 29.7707 135.545 29.4845 135.559 29.2119C135.573 28.9257 135.586 28.6803 135.6 28.4759C135.369 28.4895 135.118 28.5032 134.847 28.5168C134.576 28.5304 134.332 28.544 134.115 28.5577V27.4333C134.915 27.4196 135.728 27.4128 136.556 27.4128C137.383 27.3992 138.223 27.3924 139.078 27.3924C140.352 27.3924 141.43 27.5491 142.312 27.8626C143.207 28.1624 143.892 28.6258 144.366 29.2528C144.854 29.8661 145.105 30.643 145.119 31.5834C145.132 32.1149 145.037 32.6669 144.834 33.2394C144.631 33.7982 144.285 34.3229 143.797 34.8135C143.308 35.2906 142.644 35.679 141.803 35.9789C140.976 36.2787 139.932 36.4286 138.671 36.4286C138.535 36.4423 138.379 36.4491 138.203 36.4491C138.04 36.4491 137.871 36.4423 137.695 36.4286V39.0046C137.695 39.3726 137.688 39.7065 137.674 40.0063C137.674 40.2925 137.661 40.5242 137.634 40.7014C137.823 40.6878 138.027 40.6742 138.244 40.6605C138.461 40.6469 138.671 40.6401 138.874 40.6401C139.091 40.6265 139.288 40.6128 139.464 40.5992V41.7441H134.115V40.8445ZM137.695 35.3451C137.925 35.3724 138.122 35.3928 138.285 35.4064C138.461 35.4064 138.664 35.4064 138.895 35.4064C139.654 35.4064 140.325 35.2633 140.908 34.9771C141.491 34.6909 141.946 34.2752 142.271 33.73C142.597 33.1848 142.759 32.5375 142.759 31.7878C142.759 31.1336 142.658 30.5885 142.454 30.1523C142.264 29.7025 141.993 29.355 141.641 29.1097C141.302 28.8507 140.908 28.6667 140.461 28.5577C140.013 28.4486 139.539 28.3941 139.037 28.3941C138.63 28.3941 138.332 28.4759 138.142 28.6395C137.952 28.803 137.83 29.0415 137.776 29.355C137.722 29.6685 137.695 30.0705 137.695 30.5612V35.3451Z" fill="white"/>
<path d="M146.262 40.8854C146.668 40.8854 146.953 40.79 147.116 40.5992C147.278 40.4084 147.373 40.1426 147.401 39.8019C147.441 39.4612 147.462 39.0659 147.462 38.6161V34.3638C147.462 34.1457 147.462 33.914 147.462 33.6687C147.475 33.4097 147.502 33.1576 147.543 32.9123C147.312 32.9259 147.068 32.9395 146.811 32.9531C146.553 32.9531 146.316 32.96 146.099 32.9736V31.8901H146.79C147.36 31.8901 147.794 31.8287 148.092 31.7061C148.39 31.5834 148.607 31.4539 148.743 31.3176H149.475C149.502 31.5084 149.523 31.7742 149.536 32.1149C149.55 32.4557 149.563 32.8373 149.577 33.2598C149.835 32.8782 150.133 32.5374 150.472 32.2376C150.811 31.9241 151.177 31.672 151.57 31.4812C151.977 31.2904 152.397 31.195 152.831 31.195C153.252 31.195 153.611 31.3108 153.909 31.5425C154.221 31.7606 154.377 32.1218 154.377 32.626C154.377 32.7623 154.336 32.9191 154.255 33.0963C154.187 33.2734 154.065 33.4302 153.889 33.5665C153.726 33.6891 153.502 33.7505 153.218 33.7505C152.933 33.7368 152.682 33.6278 152.465 33.4234C152.262 33.2189 152.167 32.9395 152.18 32.5852C151.855 32.5852 151.53 32.6874 151.204 32.8918C150.879 33.0826 150.574 33.3416 150.289 33.6687C150.018 33.9958 149.787 34.3502 149.597 34.7318V39.209C149.597 39.4543 149.59 39.7065 149.577 39.9654C149.577 40.2108 149.557 40.4629 149.516 40.7219C149.733 40.7082 149.957 40.7014 150.187 40.7014C150.418 40.6878 150.628 40.6742 150.818 40.6605V41.7441H146.262V40.8854Z" fill="white"/>
<path d="M160.08 42.0712C159.117 42.0712 158.249 41.8531 157.477 41.417C156.704 40.9808 156.087 40.3743 155.626 39.5975C155.178 38.8069 154.954 37.9006 154.954 36.8784C154.954 35.7744 155.178 34.7999 155.626 33.9549C156.087 33.0963 156.704 32.4216 157.477 31.9309C158.249 31.4403 159.11 31.195 160.06 31.195C161.022 31.195 161.89 31.4198 162.663 31.8696C163.436 32.3058 164.046 32.9191 164.494 33.7096C164.955 34.4864 165.185 35.386 165.185 36.4082C165.185 37.4849 164.962 38.4526 164.514 39.3112C164.067 40.1699 163.456 40.8445 162.683 41.3352C161.924 41.8259 161.056 42.0712 160.08 42.0712ZM160.222 41.049C160.873 41.0353 161.382 40.8309 161.748 40.4357C162.128 40.0404 162.399 39.5361 162.561 38.9228C162.724 38.2959 162.806 37.6485 162.806 36.9806C162.806 36.3946 162.751 35.8221 162.643 35.2633C162.548 34.6909 162.392 34.173 162.175 33.7096C161.958 33.2462 161.673 32.8782 161.321 32.6056C160.968 32.3194 160.541 32.1831 160.039 32.1967C159.402 32.1967 158.88 32.3943 158.473 32.7896C158.08 33.1848 157.788 33.6959 157.599 34.3229C157.422 34.9362 157.334 35.5904 157.334 36.2855C157.334 37.0897 157.436 37.8529 157.639 38.5752C157.843 39.2976 158.154 39.8905 158.575 40.3539C159.009 40.8173 159.558 41.049 160.222 41.049Z" fill="white"/>
<path d="M170.516 42.0712C170.177 42.0712 169.832 42.0235 169.479 41.9281C169.14 41.8463 168.828 41.6759 168.543 41.417C168.259 41.1444 168.035 40.7559 167.872 40.2517C167.709 39.7474 167.628 39.0795 167.628 38.2481L167.669 32.6669H166.164V31.5221C166.53 31.5084 166.903 31.3721 167.282 31.1132C167.662 30.8542 167.994 30.5067 168.279 30.0705C168.564 29.6344 168.76 29.1642 168.869 28.6599H169.825V31.5221H172.957V32.5852L169.825 32.626L169.784 38.0846C169.784 38.6025 169.825 39.0591 169.906 39.4543C170.001 39.836 170.15 40.1358 170.354 40.3539C170.571 40.5583 170.862 40.6605 171.228 40.6605C171.54 40.6605 171.859 40.5651 172.184 40.3743C172.523 40.1835 172.842 39.87 173.14 39.4339L173.832 40.0472C173.506 40.5243 173.181 40.8991 172.855 41.1716C172.53 41.4442 172.218 41.6419 171.92 41.7645C171.621 41.9008 171.35 41.9826 171.106 42.0098C170.862 42.0507 170.666 42.0712 170.516 42.0712Z" fill="white"/>
<path d="M179.516 42.0712C178.554 42.0712 177.686 41.8531 176.913 41.417C176.14 40.9808 175.523 40.3743 175.062 39.5975C174.615 38.8069 174.391 37.9006 174.391 36.8784C174.391 35.7744 174.615 34.7999 175.062 33.9549C175.523 33.0963 176.14 32.4216 176.913 31.9309C177.686 31.4403 178.547 31.195 179.496 31.195C180.459 31.195 181.327 31.4198 182.1 31.8696C182.872 32.3058 183.483 32.9191 183.93 33.7096C184.391 34.4864 184.622 35.386 184.622 36.4082C184.622 37.4849 184.398 38.4526 183.95 39.3112C183.503 40.1699 182.893 40.8445 182.12 41.3352C181.361 41.8259 180.493 42.0712 179.516 42.0712ZM179.659 41.049C180.31 41.0353 180.818 40.8309 181.184 40.4357C181.564 40.0404 181.835 39.5361 181.998 38.9228C182.161 38.2959 182.242 37.6485 182.242 36.9806C182.242 36.3946 182.188 35.8221 182.079 35.2633C181.984 34.6909 181.828 34.173 181.611 33.7096C181.394 33.2462 181.11 32.8782 180.757 32.6056C180.405 32.3194 179.977 32.1831 179.476 32.1967C178.838 32.1967 178.316 32.3943 177.91 32.7896C177.516 33.1848 177.225 33.6959 177.035 34.3229C176.859 34.9362 176.771 35.5904 176.771 36.2855C176.771 37.0897 176.872 37.8529 177.076 38.5752C177.279 39.2976 177.591 39.8905 178.011 40.3539C178.445 40.8173 178.994 41.049 179.659 41.049Z" fill="white"/>
<path d="M190.97 42.0712C190.061 42.0712 189.227 41.8667 188.468 41.4579C187.709 41.0354 187.098 40.4357 186.637 39.6588C186.19 38.8819 185.966 37.9415 185.966 36.8375C185.966 36.1015 186.095 35.3996 186.353 34.7318C186.61 34.0503 186.97 33.4438 187.431 32.9123C187.905 32.3807 188.461 31.965 189.098 31.6652C189.749 31.3517 190.468 31.195 191.254 31.195C192.055 31.195 192.739 31.3176 193.309 31.563C193.878 31.8083 194.312 32.1286 194.611 32.5238C194.922 32.9191 195.078 33.3484 195.078 33.8118C195.078 34.1389 194.983 34.4251 194.794 34.6704C194.604 34.9158 194.333 35.0384 193.98 35.0384C193.587 35.0521 193.309 34.9362 193.146 34.6909C192.983 34.4319 192.902 34.1934 192.902 33.9753C192.902 33.8527 192.922 33.7164 192.963 33.5665C193.004 33.4029 193.078 33.2598 193.187 33.1371C193.078 32.8509 192.902 32.6397 192.658 32.5034C192.414 32.3671 192.163 32.2785 191.905 32.2376C191.648 32.1967 191.431 32.1763 191.254 32.1763C190.427 32.1899 189.729 32.5511 189.159 33.2598C188.604 33.9549 188.326 34.9635 188.326 36.2855C188.326 37.1305 188.448 37.887 188.692 38.5548C188.949 39.2226 189.322 39.7542 189.81 40.1494C190.299 40.5447 190.882 40.7491 191.56 40.7628C192.17 40.7628 192.76 40.606 193.329 40.2926C193.899 39.9654 194.36 39.5566 194.712 39.0659L195.363 39.6383C194.97 40.2517 194.516 40.7355 194 41.0899C193.499 41.4442 192.983 41.6964 192.455 41.8463C191.939 41.9962 191.444 42.0712 190.97 42.0712Z" fill="white"/>
<path d="M201.555 42.0712C200.592 42.0712 199.724 41.8531 198.951 41.417C198.178 40.9808 197.561 40.3743 197.1 39.5975C196.653 38.8069 196.429 37.9006 196.429 36.8784C196.429 35.7744 196.653 34.7999 197.1 33.9549C197.561 33.0963 198.178 32.4216 198.951 31.9309C199.724 31.4403 200.585 31.195 201.534 31.195C202.497 31.195 203.365 31.4198 204.138 31.8696C204.911 32.3058 205.521 32.9191 205.969 33.7096C206.43 34.4864 206.66 35.386 206.66 36.4082C206.66 37.4849 206.436 38.4526 205.989 39.3112C205.541 40.1699 204.931 40.8445 204.158 41.3352C203.399 41.8259 202.531 42.0712 201.555 42.0712ZM201.697 41.049C202.348 41.0353 202.857 40.8309 203.223 40.4357C203.602 40.0404 203.874 39.5361 204.036 38.9228C204.199 38.2959 204.28 37.6485 204.28 36.9806C204.28 36.3946 204.226 35.8221 204.118 35.2633C204.023 34.6909 203.867 34.173 203.65 33.7096C203.433 33.2462 203.148 32.8782 202.796 32.6056C202.443 32.3194 202.016 32.1831 201.514 32.1967C200.877 32.1967 200.355 32.3943 199.948 32.7896C199.555 33.1848 199.263 33.6959 199.073 34.3229C198.897 34.9362 198.809 35.5904 198.809 36.2855C198.809 37.0897 198.911 37.8529 199.114 38.5752C199.317 39.2976 199.629 39.8905 200.05 40.3539C200.484 40.8173 201.033 41.049 201.697 41.049Z" fill="white"/>
<path d="M207.842 40.8854C208.249 40.8854 208.534 40.79 208.697 40.5992C208.859 40.4084 208.954 40.1426 208.981 39.8019C209.022 39.4612 209.042 39.0659 209.042 38.6161V29.3754C209.042 29.1437 209.042 28.912 209.042 28.6803C209.056 28.435 209.076 28.1761 209.103 27.9035C208.873 27.9171 208.629 27.9307 208.371 27.9444C208.114 27.9444 207.883 27.9512 207.68 27.9648V26.8813C208.29 26.8813 208.771 26.854 209.124 26.7995C209.49 26.7313 209.768 26.6564 209.958 26.5746C210.161 26.4928 210.31 26.4042 210.405 26.3088H211.178V39.209C211.178 39.4543 211.171 39.7065 211.158 39.9654C211.144 40.2108 211.124 40.4629 211.097 40.7219C211.314 40.7082 211.531 40.7014 211.748 40.7014C211.978 40.6878 212.188 40.6742 212.378 40.6605V41.7441H207.842V40.8854Z" fill="white"/>
<defs>
<linearGradient id="paint0_linear_100_26" x1="99.1169" y1="38.1477" x2="82.6837" y2="38.1477" gradientUnits="userSpaceOnUse">
<stop stop-color="white"/>
<stop offset="1" stop-color="white" stop-opacity="0"/>
</linearGradient>
<linearGradient id="paint1_linear_100_26" x1="33.8049" y1="16.9269" x2="38.7165" y2="26.9811" gradientUnits="userSpaceOnUse">
<stop stop-color="white"/>
<stop offset="1" stop-color="white" stop-opacity="0"/>
</linearGradient>
<linearGradient id="paint2_linear_100_26" x1="55.0065" y1="30.3095" x2="68.2066" y2="40.7142" gradientUnits="userSpaceOnUse">
<stop stop-color="white"/>
<stop offset="1" stop-color="white" stop-opacity="0"/>
</linearGradient>
<clipPath id="clip0_100_26">
<rect width="121.515" height="46.4384" fill="white"/>
</clipPath>
</defs>
</svg>
