<svg width="400" height="92" viewBox="0 0 400 92" fill="none" xmlns="http://www.w3.org/2000/svg">
<g clip-path="url(#clip0_2891_317)">
<g clip-path="url(#clip1_2891_317)">
<path d="M354.581 -1.79189C354.896 -1.03814 355.047 -0.235946 355.032 0.614682C355.047 -0.235946 355.219 -1.03267 355.55 -1.77548C355.89 -2.51812 356.342 -3.16143 356.905 -3.70549C357.468 -4.24955 358.126 -4.6741 358.879 -4.97914C359.633 -5.29442 360.435 -5.44486 361.286 -5.43045C360.435 -5.44486 359.639 -5.61726 358.896 -5.94766C358.173 -6.27396 357.518 -6.73374 356.966 -7.30285C356.416 -7.87418 355.978 -8.54417 355.677 -9.27766C355.372 -10.0312 355.226 -10.8333 355.241 -11.684C355.226 -10.8333 355.049 -10.0367 354.708 -9.29407C354.378 -8.55129 353.931 -7.90787 353.368 -7.36381C352.797 -6.81374 352.127 -6.37641 351.394 -6.07478C350.64 -5.76974 349.838 -5.62443 348.987 -5.63885C349.838 -5.62443 350.635 -5.4469 351.377 -5.10626C352.12 -4.77587 352.763 -4.32927 353.308 -3.76645C353.852 -3.20363 354.276 -2.54547 354.581 -1.79189Z" fill="black"/>
</g>
<path fill-rule="evenodd" clip-rule="evenodd" d="M374.211 -9.82472C374.03 -9.8278 373.88 -9.6828 373.876 -9.50087L373.754 -2.25345L373.095 -2.26461L373.218 -9.51204C373.227 -10.0578 373.677 -10.4928 374.223 -10.4836L383.049 -10.334C383.489 -10.3266 383.701 -9.79055 383.384 -9.48453L377.856 -4.14049L379.387 -4.11454L379.399 -4.79398L380.057 -4.78281L380.043 -3.93866C380.039 -3.66574 379.814 -3.44829 379.541 -3.45292L377.186 -3.49282L376.034 -2.37957L381.169 -2.29256L381.238 -6.41042L381.897 -6.39925L381.827 -2.2814C381.821 -1.91753 381.521 -1.62754 381.157 -1.63371L375.364 -1.73187L374.192 -0.598411L382.62 -0.455587C382.802 -0.452504 382.952 -0.597501 382.955 -0.779433L383.078 -8.02686L383.737 -8.01569L383.614 -0.768269C383.605 -0.222472 383.155 0.212518 382.609 0.20327L373.783 0.0537076C373.343 0.0462477 373.131 -0.489757 373.448 -0.795814L378.955 -6.11958L377.444 -6.14518L377.433 -5.48633L376.774 -5.49749L376.788 -6.32106C376.793 -6.59397 377.018 -6.81146 377.291 -6.80683L379.625 -6.76728L380.798 -7.90074L375.663 -7.98774L375.593 -3.86989L374.935 -3.88105L375.004 -7.99891C375.011 -8.36278 375.311 -8.65276 375.674 -8.6466L381.468 -8.54843L382.64 -9.68189L374.211 -9.82472Z" fill="black"/>
<path d="M400.893 -9.20873L399.899 -6.35173C399.848 -6.20551 399.764 -6.07328 399.652 -5.96569C399.541 -5.85808 399.406 -5.77813 399.258 -5.73225L396.369 -4.83596L399.226 -3.8423C399.372 -3.79144 399.505 -3.70696 399.612 -3.59565C399.72 -3.48434 399.8 -3.34932 399.846 -3.20144L400.742 -0.312425L401.736 -3.16941C401.786 -3.31566 401.871 -3.44789 401.982 -3.55549C402.094 -3.66309 402.229 -3.74304 402.376 -3.78892L405.266 -4.68521L402.409 -5.67887C402.262 -5.72973 402.13 -5.81421 402.022 -5.92553C401.915 -6.03683 401.835 -6.17185 401.789 -6.31971L400.893 -9.20873Z" fill="black" fill-opacity="0.15" stroke="black" stroke-width="1.05432" stroke-linecap="round" stroke-linejoin="round"/>
<path d="M78.9484 84.9252C79.2636 85.679 79.4141 86.4812 79.3997 87.3318C79.4141 86.4812 79.5865 85.6844 79.9169 84.9416C80.2575 84.199 80.7093 83.5557 81.2721 83.0116C81.8349 82.4675 82.493 82.043 83.2466 81.738C84.0004 81.4227 84.8026 81.2722 85.6532 81.2867C84.8026 81.2722 84.0059 81.0998 83.263 80.7694C82.5402 80.4431 81.8854 79.9834 81.333 79.4143C80.783 78.8429 80.3456 78.1729 80.044 77.4394C79.739 76.6859 79.5937 75.8838 79.6081 75.0331C79.5937 75.8838 79.4161 76.6804 79.0755 77.423C78.7451 78.1658 78.2985 78.8092 77.7357 79.3533C77.1643 79.9034 76.4944 80.3407 75.7609 80.6423C75.0073 80.9474 74.2052 81.0927 73.3545 81.0783C74.2052 81.0927 75.0018 81.2702 75.7444 81.6108C76.4872 81.9412 77.1307 82.3878 77.6747 82.9507C78.2188 83.5135 78.6433 84.1716 78.9484 84.9252Z" fill="black"/>
<path fill-rule="evenodd" clip-rule="evenodd" d="M98.5789 76.8924C98.397 76.8893 98.247 77.0343 98.2439 77.2162L98.1211 84.4636L97.4623 84.4525L97.5851 77.2051C97.5943 76.6592 98.0443 76.2243 98.5901 76.2335L107.416 76.3831C107.857 76.3905 108.068 76.9265 107.752 77.2326L102.223 82.5766L103.755 82.6025L103.766 81.9231L104.425 81.9343L104.411 82.7784C104.406 83.0513 104.181 83.2688 103.908 83.2642L101.553 83.2243L100.402 84.3375L105.536 84.4245L105.606 80.3067L106.265 80.3178L106.195 84.4357C106.189 84.7996 105.889 85.0895 105.525 85.0834L99.7316 84.9852L98.5591 86.1187L106.988 86.2615C107.17 86.2646 107.32 86.1196 107.323 85.9377L107.446 78.6902L108.104 78.7014L107.982 85.9488C107.972 86.4946 107.522 86.9296 106.977 86.9204L98.1503 86.7708C97.71 86.7633 97.4986 86.2273 97.8151 85.9213L103.323 80.5975L101.812 80.5719L101.801 81.2308L101.142 81.2196L101.156 80.396C101.16 80.1231 101.385 79.9056 101.658 79.9103L103.993 79.9498L105.165 78.8163L100.031 78.7293L99.9609 82.8472L99.302 82.836L99.3718 78.7182C99.378 78.3543 99.6779 78.0643 100.042 78.0705L105.835 78.1687L107.008 77.0352L98.5789 76.8924Z" fill="black"/>
<path d="M125.26 77.5084L124.266 80.3654C124.215 80.5117 124.131 80.6439 124.019 80.7515C123.908 80.8591 123.773 80.939 123.625 80.9849L120.736 81.8812L123.593 82.8749C123.739 82.9257 123.872 83.0102 123.979 83.1215C124.087 83.2328 124.167 83.3679 124.213 83.5157L125.109 86.4048L126.103 83.5478C126.153 83.4015 126.238 83.2693 126.349 83.1617C126.461 83.0541 126.596 82.9741 126.743 82.9283L129.632 82.032L126.775 81.0383C126.629 80.9874 126.497 80.903 126.389 80.7917C126.282 80.6803 126.202 80.5453 126.156 80.3975L125.26 77.5084Z" fill="black" fill-opacity="0.15" stroke="black" stroke-width="1.05432" stroke-linecap="round" stroke-linejoin="round"/>
<path d="M121.174 76.6162L121.135 78.9588M119.983 77.7677L122.326 77.8074" stroke="black" stroke-opacity="0.75" stroke-width="1.09825" stroke-linecap="round" stroke-linejoin="round"/>
<path d="M129.234 84.9542L129.195 87.2969M128.043 86.1057L130.386 86.1454" stroke="black" stroke-opacity="0.75" stroke-width="1.09825" stroke-linecap="round" stroke-linejoin="round"/>
<path fill-rule="evenodd" clip-rule="evenodd" d="M144.26 77.6664C144.078 77.6633 143.928 77.8083 143.925 77.9902L143.802 85.2377L143.143 85.2265L143.266 77.9791C143.275 77.4333 143.725 76.9983 144.271 77.0075L153.097 77.1571C153.538 77.1646 153.749 77.7006 153.432 78.0066L147.904 83.3506L149.435 83.3766L149.447 82.6971L150.106 82.7083L150.092 83.5524C150.087 83.8254 149.862 84.0428 149.589 84.0382L147.234 83.9983L146.083 85.1115L151.217 85.1985L151.287 81.0807L151.946 81.0919L151.876 85.2097C151.87 85.5736 151.57 85.8636 151.206 85.8574L145.413 85.7592L144.24 86.8927L152.669 87.0355C152.851 87.0386 153.001 86.8936 153.004 86.7117L153.126 79.4642L153.785 79.4754L153.663 86.7228C153.653 87.2686 153.203 87.7036 152.658 87.6944L143.831 87.5448C143.391 87.5374 143.179 87.0013 143.496 86.6953L149.003 81.3715L147.493 81.3459L147.482 82.0048L146.823 81.9936L146.837 81.17C146.841 80.8971 147.066 80.6796 147.339 80.6843L149.673 80.7238L150.846 79.5904L145.712 79.5034L145.642 83.6212L144.983 83.6101L145.053 79.4922C145.059 79.1283 145.359 78.8383 145.723 78.8445L151.516 78.9427L152.689 77.8092L144.26 77.6664Z" fill="black"/>
<path d="M170.31 86.4733C170.625 87.2271 170.775 88.0293 170.761 88.8799C170.775 88.0293 170.948 87.2326 171.278 86.4897C171.619 85.7471 172.071 85.1038 172.633 84.5597C173.196 84.0157 173.854 83.5911 174.608 83.2861C175.362 82.9708 176.164 82.8204 177.015 82.8348C176.164 82.8204 175.367 82.648 174.624 82.3176C173.902 81.9913 173.247 81.5315 172.694 80.9624C172.144 80.3911 171.707 79.7211 171.405 78.9876C171.1 78.234 170.955 77.4319 170.969 76.5813C170.955 77.4319 170.777 78.2285 170.437 78.9712C170.106 79.7139 169.66 80.3574 169.097 80.9014C168.526 81.4515 167.856 81.8888 167.122 82.1904C166.369 82.4955 165.567 82.6408 164.716 82.6264C165.567 82.6408 166.363 82.8183 167.106 83.159C167.849 83.4894 168.492 83.936 169.036 84.4988C169.58 85.0616 170.005 85.7198 170.31 86.4733Z" fill="black"/>
<path fill-rule="evenodd" clip-rule="evenodd" d="M189.94 78.4405C189.759 78.4374 189.609 78.5824 189.605 78.7643L189.483 86.0118L188.824 86.0006L188.947 78.7532C188.956 78.2074 189.406 77.7724 189.952 77.7816L198.778 77.9312C199.218 77.9387 199.43 78.4747 199.113 78.7807L193.585 84.1247L195.116 84.1507L195.128 83.4712L195.786 83.4824L195.772 84.3266C195.768 84.5995 195.543 84.8169 195.27 84.8123L192.915 84.7724L191.763 85.8856L196.898 85.9727L196.967 81.8548L197.626 81.866L197.556 85.9838C197.55 86.3477 197.25 86.6377 196.886 86.6315L191.093 86.5333L189.921 87.6668L198.349 87.8096C198.531 87.8127 198.681 87.6677 198.684 87.4858L198.807 80.2384L199.466 80.2495L199.343 87.4969C199.334 88.0427 198.884 88.4777 198.338 88.4685L189.512 88.3189C189.072 88.3115 188.86 87.7755 189.177 87.4694L194.684 82.1456L193.173 82.12L193.162 82.7789L192.503 82.7677L192.517 81.9442C192.522 81.6712 192.747 81.4538 193.02 81.4584L195.354 81.4979L196.527 80.3645L191.392 80.2775L191.322 84.3953L190.664 84.3842L190.733 80.2663C190.74 79.9024 191.04 79.6124 191.403 79.6186L197.197 79.7168L198.369 78.5833L189.94 78.4405Z" fill="black"/>
<path d="M216.621 79.0566L215.628 81.9136C215.577 82.0598 215.492 82.1921 215.381 82.2996C215.27 82.4073 215.135 82.4872 214.987 82.5331L212.098 83.4294L214.955 84.423C215.101 84.4739 215.233 84.5584 215.341 84.6697C215.448 84.781 215.528 84.916 215.574 85.0639L216.47 87.9529L217.464 85.0959C217.515 84.9497 217.599 84.8174 217.711 84.7098C217.822 84.6022 217.957 84.5223 218.105 84.4764L220.994 83.5801L218.137 82.5865C217.991 82.5356 217.859 82.4511 217.751 82.3398C217.643 82.2285 217.563 82.0935 217.518 81.9456L216.621 79.0566Z" fill="black" fill-opacity="0.15" stroke="black" stroke-width="1.05432" stroke-linecap="round" stroke-linejoin="round"/>
<path d="M212.536 78.1644L212.496 80.507M211.344 79.3158L213.687 79.3555" stroke="black" stroke-opacity="0.75" stroke-width="1.09825" stroke-linecap="round" stroke-linejoin="round"/>
<path d="M220.596 86.5024L220.556 88.845M219.405 87.6538L221.747 87.6935" stroke="black" stroke-opacity="0.75" stroke-width="1.09825" stroke-linecap="round" stroke-linejoin="round"/>
<path fill-rule="evenodd" clip-rule="evenodd" d="M235.622 79.2145C235.44 79.2115 235.29 79.3565 235.287 79.5384L235.164 86.7858L234.505 86.7746L234.628 79.5272C234.637 78.9814 235.087 78.5464 235.633 78.5557L244.459 78.7052C244.899 78.7127 245.111 79.2487 244.794 79.5547L239.266 84.8988L240.797 84.9247L240.809 84.2453L241.468 84.2564L241.453 85.1006C241.449 85.3735 241.224 85.591 240.951 85.5863L238.596 85.5464L237.444 86.6597L242.579 86.7467L242.649 82.6288L243.307 82.64L243.238 86.7579C243.231 87.1217 242.931 87.4117 242.568 87.4056L236.774 87.3074L235.602 88.4408L244.03 88.5837C244.212 88.5868 244.362 88.4418 244.365 88.2598L244.488 81.0124L245.147 81.0236L245.024 88.271C245.015 88.8168 244.565 89.2518 244.019 89.2425L235.193 89.093C234.753 89.0855 234.541 88.5495 234.858 88.2434L240.365 82.9197L238.855 82.8941L238.843 83.5529L238.185 83.5418L238.198 82.7182C238.203 82.4453 238.428 82.2278 238.701 82.2324L241.035 82.272L242.208 81.1385L237.073 81.0515L237.004 85.1694L236.345 85.1582L236.415 81.0404C236.421 80.6765 236.721 80.3865 237.085 80.3927L242.878 80.4908L244.05 79.3574L235.622 79.2145Z" fill="black"/>
<path d="M261.672 88.0214C261.987 88.7752 262.137 89.5774 262.123 90.428C262.137 89.5774 262.31 88.7807 262.64 88.0378C262.981 87.2952 263.432 86.6519 263.995 86.1078C264.558 85.5638 265.216 85.1392 265.97 84.8342C266.724 84.5189 267.526 84.3685 268.376 84.3829C267.526 84.3685 266.729 84.1961 265.986 83.8657C265.263 83.5394 264.609 83.0796 264.056 82.5105C263.506 81.9391 263.069 81.2692 262.767 80.5357C262.462 79.7821 262.317 78.98 262.331 78.1293C262.317 78.98 262.139 79.7766 261.799 80.5192C261.468 81.262 261.022 81.9055 260.459 82.4495C259.887 82.9996 259.217 83.4369 258.484 83.7385C257.73 84.0436 256.928 84.1889 256.078 84.1745C256.928 84.1889 257.725 84.3664 258.468 84.7071C259.21 85.0375 259.854 85.4841 260.398 86.0469C260.942 86.6097 261.366 87.2679 261.672 88.0214Z" fill="black"/>
<path fill-rule="evenodd" clip-rule="evenodd" d="M281.302 79.9886C281.12 79.9855 280.97 80.1305 280.967 80.3125L280.844 87.5599L280.185 87.5487L280.308 80.3013C280.317 79.7555 280.767 79.3205 281.313 79.3298L290.14 79.4793C290.58 79.4868 290.791 80.0228 290.475 80.3288L284.946 85.6729L286.478 85.6988L286.489 85.0194L287.148 85.0305L287.134 85.8747C287.129 86.1476 286.904 86.365 286.631 86.3604L284.276 86.3205L283.125 87.4338L288.259 87.5208L288.329 83.4029L288.988 83.4141L288.918 87.5319C288.912 87.8958 288.612 88.1858 288.248 88.1796L282.455 88.0815L281.282 89.2149L289.711 89.3578C289.893 89.3608 290.043 89.2158 290.046 89.0339L290.169 81.7865L290.828 81.7976L290.705 89.0451C290.696 89.5909 290.246 90.0259 289.7 90.0166L280.873 89.867C280.433 89.8596 280.222 89.3236 280.538 89.0175L286.046 83.6938L284.535 83.6682L284.524 84.327L283.865 84.3158L283.879 83.4923C283.884 83.2194 284.108 83.0019 284.381 83.0065L286.716 83.0461L287.888 81.9126L282.754 81.8256L282.684 85.9435L282.025 85.9323L282.095 81.8144C282.101 81.4506 282.401 81.1606 282.765 81.1667L288.558 81.2649L289.731 80.1314L281.302 79.9886Z" fill="black"/>
<path d="M307.983 80.6046L306.99 83.4616C306.939 83.6079 306.854 83.7401 306.743 83.8477C306.632 83.9553 306.497 84.0352 306.349 84.0811L303.46 84.9774L306.317 85.9711C306.463 86.0219 306.595 86.1064 306.703 86.2177C306.81 86.329 306.89 86.464 306.936 86.6119L307.833 89.5009L308.826 86.644C308.877 86.4977 308.962 86.3655 309.073 86.2579C309.184 86.1503 309.319 86.0703 309.467 86.0245L312.356 85.1282L309.499 84.1345C309.353 84.0836 309.221 83.9992 309.113 83.8878C309.005 83.7765 308.925 83.6415 308.88 83.4937L307.983 80.6046Z" fill="black" fill-opacity="0.15" stroke="black" stroke-width="1.05432" stroke-linecap="round" stroke-linejoin="round"/>
<path d="M303.898 79.7125L303.858 82.0551M302.706 80.8639L305.049 80.9036" stroke="black" stroke-opacity="0.75" stroke-width="1.09825" stroke-linecap="round" stroke-linejoin="round"/>
<path d="M311.958 88.0505L311.918 90.3931M310.767 89.2019L313.109 89.2416" stroke="black" stroke-opacity="0.75" stroke-width="1.09825" stroke-linecap="round" stroke-linejoin="round"/>
<path fill-rule="evenodd" clip-rule="evenodd" d="M326.983 80.7627C326.801 80.7596 326.651 80.9046 326.648 81.0865L326.525 88.3339L325.866 88.3228L325.989 81.0754C325.998 80.5295 326.448 80.0946 326.994 80.1038L335.82 80.2534C336.261 80.2608 336.472 80.7968 336.156 81.1029L330.627 86.4469L332.159 86.4728L332.17 85.7934L332.829 85.8046L332.815 86.6487C332.81 86.9216 332.585 87.1391 332.312 87.1345L329.957 87.0946L328.806 88.2078L333.94 88.2948L334.01 84.177L334.669 84.1881L334.599 88.306C334.593 88.6699 334.293 88.9598 333.929 88.9537L328.136 88.8555L326.963 89.989L335.392 90.1318C335.574 90.1349 335.724 89.9899 335.727 89.808L335.85 82.5605L336.508 82.5717L336.386 89.8191C336.376 90.3649 335.926 90.7999 335.381 90.7907L326.554 90.6411C326.114 90.6336 325.903 90.0976 326.219 89.7916L331.727 84.4678L330.216 84.4422L330.205 85.1011L329.546 85.0899L329.56 84.2663C329.564 83.9934 329.789 83.7759 330.062 83.7806L332.397 83.8201L333.569 82.6866L328.435 82.5996L328.365 86.7175L327.706 86.7063L327.776 82.5885C327.782 82.2246 328.082 81.9346 328.446 81.9408L334.239 82.039L335.412 80.9055L326.983 80.7627Z" fill="black"/>
<path d="M353.033 89.5696C353.348 90.3234 353.499 91.1256 353.484 91.9762C353.499 91.1256 353.671 90.3288 354.002 89.586C354.342 88.8434 354.794 88.2001 355.357 87.656C355.92 87.112 356.578 86.6874 357.331 86.3824C358.085 86.0671 358.887 85.9166 359.738 85.9311C358.887 85.9166 358.091 85.7442 357.348 85.4139C356.625 85.0875 355.97 84.6278 355.418 84.0587C354.868 83.4873 354.43 82.8173 354.129 82.0838C353.824 81.3303 353.678 80.5282 353.693 79.6775C353.678 80.5282 353.501 81.3248 353.16 82.0674C352.83 82.8102 352.383 83.4536 351.82 83.9977C351.249 84.5478 350.579 84.9851 349.846 85.2867C349.092 85.5918 348.29 85.7371 347.439 85.7227C348.29 85.7371 349.087 85.9146 349.829 86.2552C350.572 86.5856 351.215 87.0322 351.759 87.5951C352.303 88.1579 352.728 88.816 353.033 89.5696Z" fill="black"/>
<path fill-rule="evenodd" clip-rule="evenodd" d="M372.663 81.5368C372.481 81.5337 372.331 81.6787 372.328 81.8606L372.206 89.108L371.547 89.0969L371.67 81.8495C371.679 81.3036 372.129 80.8687 372.675 80.8779L381.501 81.0275C381.941 81.0349 382.153 81.5709 381.836 81.877L376.308 87.221L377.839 87.247L377.851 86.5675L378.509 86.5787L378.495 87.4228C378.49 87.6958 378.266 87.9132 377.993 87.9086L375.638 87.8687L374.486 88.9819L379.621 89.0689L379.69 84.9511L380.349 84.9622L380.279 89.0801C380.273 89.444 379.973 89.734 379.609 89.7278L373.816 89.6296L372.644 90.7631L381.072 90.9059C381.254 90.909 381.404 90.764 381.407 90.5821L381.53 83.3346L382.189 83.3458L382.066 90.5932C382.057 91.139 381.607 91.574 381.061 91.5648L372.235 91.4152C371.794 91.4077 371.583 90.8717 371.9 90.5657L377.407 85.2419L375.896 85.2163L375.885 85.8752L375.226 85.864L375.24 85.0404C375.245 84.7675 375.47 84.55 375.743 84.5547L378.077 84.5942L379.249 83.4608L374.115 83.3738L374.045 87.4916L373.386 87.4804L373.456 83.3626C373.462 82.9987 373.762 82.7087 374.126 82.7149L379.919 82.8131L381.092 81.6796L372.663 81.5368Z" fill="black"/>
<path d="M399.345 82.1527L398.351 85.0097C398.3 85.156 398.216 85.2882 398.104 85.3958C397.993 85.5034 397.858 85.5833 397.71 85.6292L394.821 86.5255L397.678 87.5192C397.824 87.57 397.957 87.6545 398.064 87.7658C398.172 87.8771 398.252 88.0121 398.298 88.16L399.194 91.049L400.188 88.1921C400.238 88.0458 400.323 87.9136 400.434 87.806C400.545 87.6984 400.681 87.6184 400.828 87.5725L403.717 86.6763L400.86 85.6826C400.714 85.6317 400.582 85.5473 400.474 85.4359C400.367 85.3246 400.287 85.1896 400.241 85.0418L399.345 82.1527Z" fill="black" fill-opacity="0.15" stroke="black" stroke-width="1.05432" stroke-linecap="round" stroke-linejoin="round"/>
<path d="M395.259 81.2606L395.219 83.6032M394.068 82.412L396.41 82.4517" stroke="black" stroke-opacity="0.75" stroke-width="1.09825" stroke-linecap="round" stroke-linejoin="round"/>
<path d="M79.7225 39.2445C80.0378 39.9982 80.1883 40.8004 80.1738 41.6511C80.1883 40.8004 80.3607 40.0037 80.691 39.2609C81.0317 38.5183 81.4834 37.8749 82.0462 37.3309C82.6091 36.7868 83.2672 36.3623 84.0208 36.0572C84.7745 35.742 85.5767 35.5915 86.4274 35.6059C85.5767 35.5915 84.78 35.4191 84.0372 35.0887C83.3144 34.7624 82.6596 34.3026 82.1072 33.7335C81.5571 33.1622 81.1198 32.4922 80.8182 31.7587C80.5131 31.0052 80.3678 30.2031 80.3822 29.3524C80.3678 30.2031 80.1903 30.9997 79.8497 31.7423C79.5193 32.4851 79.0727 33.1285 78.5098 33.6726C77.9385 34.2226 77.2685 34.66 76.535 34.9616C75.7815 35.2666 74.9794 35.4119 74.1287 35.3975C74.9794 35.4119 75.776 35.5895 76.5186 35.9301C77.2614 36.2605 77.9048 36.7071 78.4489 37.2699C78.9929 37.8327 79.4175 38.4909 79.7225 39.2445Z" fill="black"/>
<path fill-rule="evenodd" clip-rule="evenodd" d="M99.3533 31.2116C99.1714 31.2086 99.0214 31.3536 99.0183 31.5355L98.8955 38.7829L98.2367 38.7718L98.3595 31.5243C98.3687 30.9785 98.8187 30.5435 99.3645 30.5528L108.191 30.7023C108.631 30.7098 108.842 31.2458 108.526 31.5518L102.998 36.8959L104.529 36.9218L104.54 36.2424L105.199 36.2535L105.185 37.0977C105.18 37.3706 104.955 37.5881 104.682 37.5834L102.328 37.5435L101.176 38.6568L106.31 38.7438L106.38 34.6259L107.039 34.6371L106.969 38.755C106.963 39.1188 106.663 39.4088 106.299 39.4027L100.506 39.3045L99.3335 40.438L107.762 40.5808C107.944 40.5839 108.094 40.4389 108.097 40.2569L108.22 33.0095L108.879 33.0207L108.756 40.2681C108.747 40.8139 108.297 41.2489 107.751 41.2396L98.9247 41.0901C98.4844 41.0826 98.273 40.5466 98.5896 40.2405L104.097 34.9168L102.586 34.8912L102.575 35.55L101.916 35.5389L101.93 34.7153C101.935 34.4424 102.16 34.2249 102.433 34.2295L104.767 34.2691L105.939 33.1356L100.805 33.0486L100.735 37.1665L100.076 37.1553L100.146 33.0375C100.152 32.6736 100.452 32.3836 100.816 32.3898L106.609 32.4879L107.782 31.3545L99.3533 31.2116Z" fill="black"/>
<path d="M126.034 31.8277L125.04 34.6847C124.989 34.8309 124.905 34.9631 124.794 35.0707C124.682 35.1783 124.547 35.2583 124.399 35.3042L121.51 36.2005L124.367 37.1941C124.514 37.245 124.646 37.3295 124.753 37.4408C124.861 37.5521 124.941 37.6871 124.987 37.835L125.883 40.724L126.877 37.867C126.928 37.7208 127.012 37.5885 127.123 37.4809C127.235 37.3733 127.37 37.2934 127.518 37.2475L130.407 36.3512L127.55 35.3576C127.403 35.3067 127.271 35.2222 127.164 35.1109C127.056 34.9996 126.976 34.8646 126.93 34.7167L126.034 31.8277Z" fill="black" fill-opacity="0.15" stroke="black" stroke-width="1.05432" stroke-linecap="round" stroke-linejoin="round"/>
<path d="M121.948 30.9355L121.908 33.2781M120.757 32.087L123.1 32.1267" stroke="black" stroke-opacity="0.75" stroke-width="1.09825" stroke-linecap="round" stroke-linejoin="round"/>
<path d="M130.008 39.2735L129.969 41.6161M128.817 40.4249L131.16 40.4646" stroke="black" stroke-opacity="0.75" stroke-width="1.09825" stroke-linecap="round" stroke-linejoin="round"/>
<path fill-rule="evenodd" clip-rule="evenodd" d="M145.034 31.9857C144.852 31.9826 144.702 32.1276 144.699 32.3095L144.576 39.557L143.917 39.5458L144.04 32.2984C144.049 31.7526 144.499 31.3176 145.045 31.3268L153.871 31.4764C154.312 31.4839 154.523 32.0199 154.207 32.3259L148.678 37.6699L150.21 37.6959L150.221 37.0164L150.88 37.0276L150.866 37.8718C150.861 38.1447 150.636 38.3621 150.363 38.3575L148.008 38.3176L146.857 39.4308L151.991 39.5178L152.061 35.4L152.72 35.4112L152.65 39.529C152.644 39.8929 152.344 40.1829 151.98 40.1767L146.187 40.0785L145.014 41.212L153.443 41.3548C153.625 41.3579 153.775 41.2129 153.778 41.031L153.901 33.7836L154.56 33.7947L154.437 41.0421C154.427 41.5879 153.977 42.0229 153.432 42.0137L144.605 41.8641C144.165 41.8567 143.954 41.3207 144.27 41.0146L149.778 35.6908L148.267 35.6652L148.256 36.3241L147.597 36.3129L147.611 35.4893C147.615 35.2164 147.84 34.999 148.113 35.0036L150.448 35.0431L151.62 33.9097L146.486 33.8227L146.416 37.9405L145.757 37.9294L145.827 33.8115C145.833 33.4476 146.133 33.1576 146.497 33.1638L152.29 33.262L153.463 32.1285L145.034 31.9857Z" fill="black"/>
<g clip-path="url(#clip2_2891_317)">
<path d="M171.084 40.7926C171.399 41.5464 171.55 42.3486 171.535 43.1992C171.55 42.3486 171.722 41.5518 172.052 40.809C172.393 40.0664 172.845 39.4231 173.408 38.879C173.97 38.335 174.629 37.9104 175.382 37.6054C176.136 37.2901 176.938 37.1396 177.789 37.1541C176.938 37.1396 176.141 36.9672 175.399 36.6368C174.676 36.3105 174.021 35.8508 173.469 35.2817C172.918 34.7103 172.481 34.0403 172.18 33.3068C171.874 32.5533 171.729 31.7512 171.744 30.9005C171.729 31.7512 171.552 32.5478 171.211 33.2904C170.881 34.0332 170.434 34.6766 169.871 35.2207C169.3 35.7708 168.63 36.2081 167.896 36.5097C167.143 36.8148 166.341 36.9601 165.49 36.9457C166.341 36.9601 167.137 37.1376 167.88 37.4782C168.623 37.8086 169.266 38.2552 169.81 38.8181C170.354 39.3809 170.779 40.039 171.084 40.7926Z" fill="black"/>
</g>
<path fill-rule="evenodd" clip-rule="evenodd" d="M190.714 32.7598C190.532 32.7567 190.382 32.9017 190.379 33.0836L190.257 40.331L189.598 40.3199L189.721 33.0725C189.73 32.5266 190.18 32.0917 190.726 32.1009L199.552 32.2505C199.992 32.2579 200.204 32.7939 199.887 33.1L194.359 38.444L195.89 38.4699L195.902 37.7905L196.56 37.8017L196.546 38.6458C196.541 38.9187 196.317 39.1362 196.044 39.1316L193.689 39.0917L192.537 40.2049L197.672 40.2919L197.741 36.1741L198.4 36.1852L198.33 40.3031C198.324 40.667 198.024 40.9569 197.66 40.9508L191.867 40.8526L190.695 41.9861L199.123 42.1289C199.305 42.132 199.455 41.987 199.458 41.8051L199.581 34.5576L200.24 34.5688L200.117 41.8162C200.108 42.362 199.658 42.797 199.112 42.7878L190.286 42.6382C189.846 42.6307 189.634 42.0947 189.951 41.7887L195.458 36.4649L193.947 36.4393L193.936 37.0982L193.277 37.087L193.291 36.2634C193.296 35.9905 193.521 35.773 193.794 35.7777L196.128 35.8172L197.3 34.6837L192.166 34.5967L192.096 38.7146L191.438 38.7034L191.507 34.5856C191.513 34.2217 191.813 33.9317 192.177 33.9379L197.971 34.0361L199.143 32.9026L190.714 32.7598Z" fill="black"/>
<path d="M217.395 33.3758L216.402 36.2328C216.351 36.3791 216.266 36.5113 216.155 36.6189C216.044 36.7265 215.909 36.8064 215.761 36.8523L212.872 37.7486L215.729 38.7423C215.875 38.7931 216.007 38.8776 216.115 38.9889C216.222 39.1002 216.302 39.2353 216.348 39.3831L217.244 42.2722L218.238 39.4152C218.289 39.2689 218.373 39.1367 218.485 39.0291C218.596 38.9215 218.731 38.8415 218.879 38.7957L221.768 37.8994L218.911 36.9057C218.765 36.8548 218.632 36.7704 218.525 36.6591C218.417 36.5478 218.337 36.4127 218.291 36.2649L217.395 33.3758Z" fill="black" fill-opacity="0.15" stroke="black" stroke-width="1.05432" stroke-linecap="round" stroke-linejoin="round"/>
<path d="M213.31 32.4836L213.27 34.8262M212.119 33.6351L214.461 33.6748" stroke="black" stroke-opacity="0.75" stroke-width="1.09825" stroke-linecap="round" stroke-linejoin="round"/>
<path d="M221.37 40.8216L221.33 43.1643M220.179 41.9731L222.521 42.0128" stroke="black" stroke-opacity="0.75" stroke-width="1.09825" stroke-linecap="round" stroke-linejoin="round"/>
<path fill-rule="evenodd" clip-rule="evenodd" d="M236.395 33.5338C236.213 33.5307 236.063 33.6757 236.06 33.8577L235.938 41.1051L235.279 41.0939L235.401 33.8465C235.411 33.3007 235.861 32.8657 236.406 32.875L245.233 33.0245C245.673 33.032 245.884 33.568 245.568 33.874L240.04 39.2181L241.571 39.244L241.582 38.5646L242.241 38.5757L242.227 39.4199C242.222 39.6928 241.997 39.9102 241.724 39.9056L239.37 39.8657L238.218 40.979L243.352 41.066L243.422 36.9481L244.081 36.9593L244.011 41.0771C244.005 41.441 243.705 41.731 243.341 41.7248L237.548 41.6267L236.375 42.7601L244.804 42.9029C244.986 42.906 245.136 42.761 245.139 42.5791L245.262 35.3317L245.921 35.3428L245.798 42.5903C245.789 43.1361 245.339 43.5711 244.793 43.5618L235.967 43.4122C235.526 43.4048 235.315 42.8688 235.632 42.5627L241.139 37.239L239.628 37.2134L239.617 37.8722L238.958 37.861L238.972 37.0375C238.977 36.7646 239.202 36.5471 239.475 36.5517L241.809 36.5913L242.981 35.4578L237.847 35.3708L237.777 39.4886L237.118 39.4775L237.188 35.3596C237.194 34.9958 237.494 34.7058 237.858 34.7119L243.651 34.8101L244.824 33.6766L236.395 33.5338Z" fill="black"/>
<g clip-path="url(#clip3_2891_317)">
<path d="M262.445 42.3407C262.76 43.0945 262.911 43.8967 262.896 44.7473C262.911 43.8967 263.083 43.0999 263.414 42.3571C263.754 41.6145 264.206 40.9712 264.769 40.4271C265.332 39.883 265.99 39.4585 266.743 39.1535C267.497 38.8382 268.299 38.6877 269.15 38.7022C268.299 38.6877 267.503 38.5153 266.76 38.1849C266.037 37.8586 265.382 37.3989 264.83 36.8298C264.28 36.2584 263.842 35.5884 263.541 34.8549C263.236 34.1014 263.09 33.2993 263.105 32.4486C263.09 33.2993 262.913 34.0959 262.572 34.8385C262.242 35.5813 261.795 36.2247 261.232 36.7688C260.661 37.3189 259.991 37.7562 259.258 38.0578C258.504 38.3629 257.702 38.5082 256.851 38.4938C257.702 38.5082 258.499 38.6857 259.241 39.0263C259.984 39.3567 260.627 39.8033 261.172 40.3662C261.716 40.929 262.14 41.5871 262.445 42.3407Z" fill="black"/>
</g>
<path fill-rule="evenodd" clip-rule="evenodd" d="M282.076 34.3079C281.894 34.3048 281.744 34.4498 281.741 34.6317L281.618 41.8792L280.959 41.868L281.082 34.6206C281.091 34.0748 281.541 33.6398 282.087 33.649L290.913 33.7986C291.354 33.8061 291.565 34.3421 291.248 34.6481L285.72 39.9921L287.251 40.0181L287.263 39.3386L287.922 39.3498L287.907 40.194C287.903 40.4669 287.678 40.6843 287.405 40.6797L285.05 40.6398L283.898 41.753L289.033 41.8401L289.103 37.7222L289.761 37.7334L289.692 41.8512C289.686 42.2151 289.386 42.5051 289.022 42.4989L283.228 42.4007L282.056 43.5342L290.485 43.677C290.667 43.6801 290.817 43.5351 290.82 43.3532L290.942 36.1058L291.601 36.1169L291.478 43.3643C291.469 43.9101 291.019 44.3451 290.473 44.3359L281.647 44.1863C281.207 44.1789 280.995 43.6429 281.312 43.3368L286.819 38.013L285.309 37.9874L285.297 38.6463L284.639 38.6351L284.653 37.8116C284.657 37.5386 284.882 37.3212 285.155 37.3258L287.489 37.3653L288.662 36.2319L283.527 36.1449L283.458 40.2627L282.799 40.2516L282.869 36.1337C282.875 35.7698 283.175 35.4799 283.539 35.486L289.332 35.5842L290.504 34.4507L282.076 34.3079Z" fill="black"/>
<path d="M308.757 34.9239L307.763 37.7809C307.712 37.9271 307.628 38.0594 307.517 38.167C307.405 38.2746 307.27 38.3545 307.122 38.4004L304.233 39.2967L307.09 40.2903C307.237 40.3412 307.369 40.4257 307.477 40.537C307.584 40.6483 307.664 40.7833 307.71 40.9312L308.606 43.8202L309.6 40.9632C309.651 40.817 309.735 40.6848 309.847 40.5772C309.958 40.4696 310.093 40.3896 310.241 40.3437L313.13 39.4474L310.273 38.4538C310.127 38.4029 309.994 38.3184 309.887 38.2071C309.779 38.0958 309.699 37.9608 309.653 37.8129L308.757 34.9239Z" fill="black" fill-opacity="0.15" stroke="black" stroke-width="1.05432" stroke-linecap="round" stroke-linejoin="round"/>
<path d="M304.671 34.0317L304.631 36.3743M303.48 35.1832L305.823 35.2229" stroke="black" stroke-opacity="0.75" stroke-width="1.09825" stroke-linecap="round" stroke-linejoin="round"/>
<path d="M312.731 42.3697L312.692 44.7124M311.54 43.5212L313.883 43.5609" stroke="black" stroke-opacity="0.75" stroke-width="1.09825" stroke-linecap="round" stroke-linejoin="round"/>
<path fill-rule="evenodd" clip-rule="evenodd" d="M327.757 35.0819C327.575 35.0789 327.425 35.2239 327.422 35.4058L327.299 42.6532L326.64 42.6421L326.763 35.3946C326.772 34.8488 327.222 34.4138 327.768 34.4231L336.594 34.5726C337.034 34.5801 337.246 35.1161 336.929 35.4221L331.401 40.7662L332.932 40.7921L332.944 40.1127L333.603 40.1238L333.588 40.968C333.584 41.2409 333.359 41.4584 333.086 41.4537L330.731 41.4138L329.579 42.5271L334.714 42.6141L334.784 38.4962L335.442 38.5074L335.373 42.6253C335.366 42.9891 335.066 43.2791 334.703 43.273L328.909 43.1748L327.737 44.3083L336.165 44.4511C336.347 44.4542 336.497 44.3092 336.501 44.1272L336.623 36.8798L337.282 36.891L337.159 44.1384C337.15 44.6842 336.7 45.1192 336.154 45.1099L327.328 44.9604C326.888 44.9529 326.676 44.4169 326.993 44.1108L332.5 38.7871L330.99 38.7615L330.978 39.4203L330.32 39.4092L330.333 38.5856C330.338 38.3127 330.563 38.0952 330.836 38.0998L333.17 38.1394L334.343 37.0059L329.208 36.9189L329.139 41.0368L328.48 41.0256L328.55 36.9078C328.556 36.5439 328.856 36.2539 329.22 36.2601L335.013 36.3582L336.185 35.2248L327.757 35.0819Z" fill="black"/>
<g clip-path="url(#clip4_2891_317)">
<path d="M353.807 43.8889C354.122 44.6426 354.272 45.4448 354.258 46.2955C354.272 45.4448 354.445 44.6481 354.775 43.9053C355.116 43.1627 355.568 42.5194 356.13 41.9753C356.693 41.4312 357.351 41.0067 358.105 40.7016C358.859 40.3864 359.661 40.2359 360.512 40.2503C359.661 40.2359 358.864 40.0635 358.121 39.7331C357.399 39.4068 356.744 38.947 356.191 38.3779C355.641 37.8066 355.204 37.1366 354.902 36.4031C354.597 35.6496 354.452 34.8475 354.466 33.9968C354.452 34.8475 354.275 35.6441 353.934 36.3867C353.603 37.1295 353.157 37.7729 352.594 38.317C352.023 38.867 351.353 39.3044 350.619 39.606C349.866 39.911 349.064 40.0564 348.213 40.0419C349.064 40.0564 349.86 40.2339 350.603 40.5745C351.346 40.9049 351.989 41.3515 352.533 41.9143C353.077 42.4772 353.502 43.1353 353.807 43.8889Z" fill="black"/>
</g>
<path fill-rule="evenodd" clip-rule="evenodd" d="M373.438 35.856C373.256 35.8529 373.106 35.9979 373.103 36.1798L372.98 43.4273L372.321 43.4161L372.444 36.1687C372.453 35.6229 372.903 35.1879 373.449 35.1971L382.275 35.3467C382.715 35.3542 382.927 35.8902 382.61 36.1962L377.082 41.5402L378.613 41.5662L378.625 40.8867L379.284 40.8979L379.269 41.7421C379.265 42.015 379.04 42.2324 378.767 42.2278L376.412 42.1879L375.26 43.3011L380.395 43.3881L380.464 39.2703L381.123 39.2815L381.054 43.3993C381.047 43.7632 380.747 44.0532 380.384 44.047L374.59 43.9488L373.418 45.0823L381.846 45.2251C382.028 45.2282 382.178 45.0832 382.181 44.9013L382.304 37.6539L382.963 37.665L382.84 44.9124C382.831 45.4582 382.381 45.8932 381.835 45.884L373.009 45.7344C372.569 45.727 372.357 45.191 372.674 44.8849L378.181 39.5611L376.67 39.5355L376.659 40.1944L376 40.1832L376.014 39.3596C376.019 39.0867 376.244 38.8693 376.517 38.8739L378.851 38.9134L380.024 37.78L374.889 37.693L374.82 41.8108L374.161 41.7997L374.23 37.6818C374.237 37.3179 374.537 37.0279 374.9 37.0341L380.694 37.1323L381.866 35.9988L373.438 35.856Z" fill="black"/>
<path d="M400.119 36.472L399.125 39.329C399.074 39.4752 398.99 39.6075 398.878 39.7151C398.767 39.8227 398.632 39.9026 398.484 39.9485L395.595 40.8448L398.452 41.8384C398.598 41.8893 398.73 41.9738 398.838 42.0851C398.946 42.1964 399.026 42.3314 399.072 42.4793L399.968 45.3683L400.961 42.5113C401.012 42.3651 401.097 42.2328 401.208 42.1253C401.319 42.0177 401.454 41.9377 401.602 41.8918L404.491 40.9955L401.634 40.0019C401.488 39.951 401.356 39.8665 401.248 39.7552C401.141 39.6439 401.061 39.5089 401.015 39.361L400.119 36.472Z" fill="black" fill-opacity="0.15" stroke="black" stroke-width="1.05432" stroke-linecap="round" stroke-linejoin="round"/>
<path d="M396.033 35.5798L395.993 37.9224M394.842 36.7313L397.184 36.771" stroke="black" stroke-opacity="0.75" stroke-width="1.09825" stroke-linecap="round" stroke-linejoin="round"/>
<path fill-rule="evenodd" clip-rule="evenodd" d="M76.8997 7.98427C76.7178 7.98119 76.5678 8.12619 76.5647 8.30812L76.4419 15.5555L75.7831 15.5444L75.9059 8.29696C75.9151 7.75114 76.3651 7.31617 76.9109 7.32542L85.7372 7.47498C86.1775 7.48244 86.3889 8.01844 86.0724 8.32446L80.5441 13.6685L82.0753 13.6945L82.0868 13.015L82.7457 13.0262L82.7314 13.8703C82.7268 14.1432 82.5018 14.3607 82.2289 14.3561L79.874 14.3162L78.7224 15.4294L83.8568 15.5164L83.9266 11.3986L84.5855 11.4097L84.5157 15.5276C84.5095 15.8915 84.2095 16.1815 83.8457 16.1753L78.0524 16.0771L76.8799 17.2106L85.3086 17.3534C85.4905 17.3565 85.6405 17.2115 85.6436 17.0296L85.7664 9.78213L86.4252 9.7933L86.3024 17.0407C86.2932 17.5865 85.8432 18.0215 85.2974 18.0123L76.4711 17.8627C76.0308 17.8552 75.8194 17.3192 76.1359 17.0132L81.6433 11.6894L80.1326 11.6638L80.1214 12.3227L79.4626 12.3115L79.4765 11.4879C79.4812 11.215 79.7062 10.9975 79.9791 11.0022L82.3133 11.0417L83.4858 9.90825L78.3515 9.82125L78.2817 13.9391L77.6228 13.9279L77.6926 9.81008C77.6988 9.44621 77.9987 9.15623 78.3626 9.16239L84.1558 9.26056L85.3284 8.1271L76.8997 7.98427Z" fill="black"/>
<g clip-path="url(#clip5_2891_317)">
<path d="M102.95 16.7912C103.265 17.5449 103.415 18.3471 103.401 19.1978C103.415 18.3471 103.588 17.5504 103.918 16.8076C104.259 16.065 104.71 15.4217 105.273 14.8776C105.836 14.3335 106.494 13.909 107.248 13.6039C108.002 13.2887 108.804 13.1382 109.654 13.1526C108.804 13.1382 108.007 12.9658 107.264 12.6354C106.541 12.3091 105.887 11.8493 105.334 11.2802C104.784 10.7089 104.347 10.0389 104.045 9.30542C103.74 8.55187 103.595 7.74976 103.609 6.89911C103.595 7.74976 103.417 8.5464 103.077 9.28901C102.746 10.0318 102.3 10.6752 101.737 11.2193C101.166 11.7693 100.496 12.2067 99.7621 12.5083C99.0085 12.8133 98.2064 12.9587 97.3558 12.9442C98.2064 12.9587 99.003 13.1362 99.7457 13.4768C100.488 13.8072 101.132 14.2538 101.676 14.8166C102.22 15.3795 102.645 16.0376 102.95 16.7912Z" fill="black"/>
</g>
<path fill-rule="evenodd" clip-rule="evenodd" d="M122.58 8.75837C122.398 8.75528 122.248 8.90028 122.245 9.08221L122.123 16.3296L121.464 16.3185L121.587 9.07105C121.596 8.52523 122.046 8.09026 122.592 8.09951L131.418 8.24907C131.858 8.25653 132.07 8.79254 131.753 9.09855L126.225 14.4426L127.756 14.4685L127.768 13.7891L128.426 13.8003L128.412 14.6444C128.407 14.9173 128.182 15.1348 127.91 15.1302L125.555 15.0903L124.403 16.2035L129.538 16.2905L129.607 12.1727L130.266 12.1838L130.196 16.3017C130.19 16.6656 129.89 16.9555 129.526 16.9494L123.733 16.8512L122.561 17.9847L130.989 18.1275C131.171 18.1306 131.321 17.9856 131.324 17.8037L131.447 10.5562L132.106 10.5674L131.983 17.8148C131.974 18.3606 131.524 18.7956 130.978 18.7864L122.152 18.6368C121.711 18.6293 121.5 18.0933 121.817 17.7873L127.324 12.4635L125.813 12.4379L125.802 13.0968L125.143 13.0856L125.157 12.262C125.162 11.9891 125.387 11.7716 125.66 11.7763L127.994 11.8158L129.166 10.6823L124.032 10.5953L123.962 14.7132L123.303 14.702L123.373 10.5842C123.379 10.2203 123.679 9.93032 124.043 9.93649L129.836 10.0347L131.009 8.90119L122.58 8.75837Z" fill="black"/>
<path d="M149.261 9.37439L148.268 12.2314C148.217 12.3776 148.132 12.5098 148.021 12.6174C147.91 12.725 147.775 12.805 147.627 12.8509L144.738 13.7472L147.595 14.7408C147.741 14.7917 147.873 14.8762 147.981 14.9875C148.089 15.0988 148.168 15.2338 148.214 15.3817L149.111 18.2707L150.104 15.4137C150.155 15.2675 150.24 15.1352 150.351 15.0276C150.462 14.92 150.597 14.8401 150.745 14.7942L153.634 13.8979L150.777 12.9042C150.631 12.8534 150.499 12.7689 150.391 12.6576C150.283 12.5463 150.204 12.4113 150.158 12.2634L149.261 9.37439Z" fill="black" fill-opacity="0.15" stroke="black" stroke-width="1.05432" stroke-linecap="round" stroke-linejoin="round"/>
<path d="M145.176 8.48216L145.136 10.8248M143.985 9.63362L146.327 9.67331" stroke="black" stroke-opacity="0.75" stroke-width="1.09825" stroke-linecap="round" stroke-linejoin="round"/>
<path d="M153.236 16.8202L153.196 19.1628M152.045 17.9716L154.387 18.0113" stroke="black" stroke-opacity="0.75" stroke-width="1.09825" stroke-linecap="round" stroke-linejoin="round"/>
<path fill-rule="evenodd" clip-rule="evenodd" d="M168.261 9.53238C168.079 9.5293 167.929 9.6743 167.926 9.85623L167.803 17.1037L167.145 17.0925L167.267 9.84507C167.277 9.29925 167.727 8.86428 168.272 8.87353L177.099 9.02309C177.539 9.03055 177.75 9.56655 177.434 9.87257L171.906 15.2166L173.437 15.2426L173.448 14.5631L174.107 14.5743L174.093 15.4184C174.088 15.6914 173.863 15.9088 173.59 15.9042L171.236 15.8643L170.084 16.9775L175.218 17.0645L175.288 12.9467L175.947 12.9578L175.877 17.0757C175.871 17.4396 175.571 17.7296 175.207 17.7234L169.414 17.6252L168.241 18.7587L176.67 18.9015C176.852 18.9046 177.002 18.7596 177.005 18.5777L177.128 11.3302L177.787 11.3414L177.664 18.5888C177.655 19.1346 177.205 19.5696 176.659 19.5604L167.833 19.4108C167.392 19.4033 167.181 18.8673 167.498 18.5613L173.005 13.2375L171.494 13.2119L171.483 13.8708L170.824 13.8596L170.838 13.036C170.843 12.7631 171.068 12.5456 171.341 12.5503L173.675 12.5898L174.847 11.4564L169.713 11.3694L169.643 15.4872L168.984 15.4761L169.054 11.3582C169.06 10.9943 169.36 10.7043 169.724 10.7105L175.517 10.8087L176.69 9.67521L168.261 9.53238Z" fill="black"/>
<path d="M194.311 18.3393C194.626 19.0931 194.777 19.8952 194.762 20.7459C194.777 19.8952 194.949 19.0985 195.28 18.3557C195.62 17.6131 196.072 16.9698 196.635 16.4257C197.198 15.8816 197.856 15.4571 198.609 15.1521C199.363 14.8368 200.165 14.6863 201.016 14.7007C200.165 14.6863 199.369 14.5139 198.626 14.1835C197.903 13.8572 197.248 13.3975 196.696 12.8283C196.146 12.257 195.708 11.587 195.407 10.8535C195.102 10.1 194.956 9.29787 194.971 8.44722C194.956 9.29787 194.779 10.0945 194.438 10.8371C194.108 11.5799 193.661 12.2233 193.098 12.7674C192.527 13.3175 191.857 13.7548 191.124 14.0564C190.37 14.3615 189.568 14.5068 188.717 14.4923C189.568 14.5068 190.365 14.6843 191.107 15.0249C191.85 15.3553 192.493 15.8019 193.038 16.3647C193.582 16.9276 194.006 17.5857 194.311 18.3393Z" fill="black"/>
<path fill-rule="evenodd" clip-rule="evenodd" d="M213.942 10.3064C213.76 10.3033 213.61 10.4483 213.607 10.6303L213.484 17.8777L212.825 17.8665L212.948 10.6191C212.957 10.0733 213.407 9.63833 213.953 9.64758L222.779 9.79714C223.22 9.8046 223.431 10.3406 223.115 10.6466L217.586 15.9907L219.118 16.0166L219.129 15.3372L219.788 15.3483L219.774 16.1925C219.769 16.4654 219.544 16.6829 219.271 16.6782L216.916 16.6383L215.765 17.7516L220.899 17.8386L220.969 13.7207L221.628 13.7319L221.558 17.8498C221.552 18.2136 221.252 18.5036 220.888 18.4974L215.095 18.3993L213.922 19.5327L222.351 19.6756C222.533 19.6786 222.683 19.5336 222.686 19.3517L222.809 12.1043L223.467 12.1155L223.345 19.3629C223.335 19.9087 222.885 20.3437 222.34 20.3344L213.513 20.1849C213.073 20.1774 212.862 19.6414 213.178 19.3353L218.686 14.0116L217.175 13.986L217.164 14.6448L216.505 14.6337L216.519 13.8101C216.523 13.5372 216.748 13.3197 217.021 13.3243L219.356 13.3639L220.528 12.2304L215.394 12.1434L215.324 16.2613L214.665 16.2501L214.735 12.1322C214.741 11.7684 215.041 11.4784 215.405 11.4846L221.198 11.5827L222.371 10.4493L213.942 10.3064Z" fill="black"/>
<path d="M240.623 10.9225L239.629 13.7795C239.578 13.9257 239.494 14.0579 239.383 14.1655C239.271 14.2731 239.136 14.3531 238.988 14.399L236.099 15.2953L238.956 16.2889C239.103 16.3398 239.235 16.4243 239.342 16.5356C239.45 16.6469 239.53 16.7819 239.576 16.9298L240.472 19.8188L241.466 16.9618C241.517 16.8156 241.601 16.6833 241.713 16.5757C241.824 16.4681 241.959 16.3882 242.107 16.3423L244.996 15.446L242.139 14.4523C241.993 14.4015 241.86 14.317 241.753 14.2057C241.645 14.0944 241.565 13.9594 241.519 13.8115L240.623 10.9225Z" fill="black" fill-opacity="0.15" stroke="black" stroke-width="1.05432" stroke-linecap="round" stroke-linejoin="round"/>
<path d="M236.537 10.0303L236.497 12.3729M235.346 11.1818L237.688 11.2215" stroke="black" stroke-opacity="0.75" stroke-width="1.09825" stroke-linecap="round" stroke-linejoin="round"/>
<path d="M244.597 18.3683L244.558 20.711M243.406 19.5198L245.749 19.5594" stroke="black" stroke-opacity="0.75" stroke-width="1.09825" stroke-linecap="round" stroke-linejoin="round"/>
<path fill-rule="evenodd" clip-rule="evenodd" d="M259.623 11.0805C259.441 11.0775 259.291 11.2225 259.288 11.4044L259.165 18.6518L258.506 18.6406L258.629 11.3932C258.638 10.8474 259.088 10.4124 259.634 10.4217L268.46 10.5712C268.9 10.5787 269.112 11.1147 268.795 11.4207L263.267 16.7648L264.798 16.7907L264.81 16.1113L265.469 16.1224L265.454 16.9666C265.45 17.2395 265.225 17.457 264.952 17.4523L262.597 17.4124L261.445 18.5257L266.58 18.6127L266.65 14.4948L267.308 14.506L267.239 18.6239C267.232 18.9877 266.932 19.2777 266.569 19.2716L260.775 19.1734L259.603 20.3068L268.031 20.4497C268.213 20.4528 268.363 20.3078 268.366 20.1258L268.489 12.8784L269.148 12.8896L269.025 20.137C269.016 20.6828 268.566 21.1178 268.02 21.1085L259.194 20.959C258.754 20.9515 258.542 20.4155 258.859 20.1094L264.366 14.7857L262.856 14.7601L262.844 15.4189L262.185 15.4078L262.199 14.5842C262.204 14.3113 262.429 14.0938 262.702 14.0984L265.036 14.138L266.209 13.0045L261.074 12.9175L261.005 17.0354L260.346 17.0242L260.415 12.9064C260.422 12.5425 260.722 12.2525 261.086 12.2587L266.879 12.3568L268.051 11.2234L259.623 11.0805Z" fill="black"/>
<g clip-path="url(#clip6_2891_317)">
<path d="M285.673 19.8875C285.988 20.6412 286.138 21.4434 286.124 22.294C286.138 21.4434 286.311 20.6467 286.641 19.9039C286.982 19.1612 287.434 18.5179 287.996 17.9739C288.559 17.4298 289.217 17.0053 289.971 16.7002C290.725 16.3849 291.527 16.2345 292.378 16.2489C291.527 16.2345 290.73 16.0621 289.987 15.7317C289.265 15.4054 288.61 14.9456 288.057 14.3765C287.507 13.8052 287.07 13.1352 286.768 12.4017C286.463 11.6481 286.318 10.846 286.332 9.99537C286.318 10.846 286.14 11.6427 285.8 12.3853C285.469 13.1281 285.023 13.7715 284.46 14.3155C283.889 14.8656 283.219 15.3029 282.485 15.6046C281.732 15.9096 280.93 16.0549 280.079 16.0405C280.93 16.0549 281.726 16.2324 282.469 16.5731C283.212 16.9035 283.855 17.3501 284.399 17.9129C284.943 18.4757 285.368 19.1339 285.673 19.8875Z" fill="black"/>
</g>
<path fill-rule="evenodd" clip-rule="evenodd" d="M305.304 11.8546C305.122 11.8515 304.972 11.9965 304.969 12.1784L304.846 19.4259L304.187 19.4147L304.31 12.1673C304.319 11.6215 304.769 11.1865 305.315 11.1957L314.141 11.3453C314.581 11.3528 314.793 11.8888 314.476 12.1948L308.948 17.5388L310.479 17.5648L310.491 16.8853L311.15 16.8965L311.135 17.7406C311.131 18.0136 310.906 18.231 310.633 18.2264L308.278 18.1865L307.126 19.2997L312.261 19.3867L312.33 15.2689L312.989 15.2801L312.92 19.3979C312.913 19.7618 312.613 20.0518 312.249 20.0456L306.456 19.9474L305.284 21.0809L313.712 21.2237C313.894 21.2268 314.044 21.0818 314.047 20.8999L314.17 13.6524L314.829 13.6636L314.706 20.911C314.697 21.4568 314.247 21.8918 313.701 21.8826L304.875 21.733C304.435 21.7256 304.223 21.1895 304.54 20.8835L310.047 15.5597L308.536 15.5341L308.525 16.193L307.866 16.1818L307.88 15.3582C307.885 15.0853 308.11 14.8679 308.383 14.8725L310.717 14.912L311.89 13.7786L306.755 13.6916L306.685 17.8094L306.027 17.7983L306.096 13.6804C306.103 13.3165 306.403 13.0265 306.766 13.0327L312.56 13.1309L313.732 11.9974L305.304 11.8546Z" fill="black"/>
<path d="M331.984 12.4706L330.991 15.3276C330.94 15.4738 330.855 15.6061 330.744 15.7137C330.633 15.8213 330.498 15.9012 330.35 15.9471L327.461 16.8434L330.318 17.837C330.464 17.8879 330.596 17.9724 330.704 18.0837C330.811 18.195 330.891 18.33 330.937 18.4779L331.834 21.3669L332.827 18.5099C332.878 18.3637 332.963 18.2314 333.074 18.1239C333.185 18.0162 333.32 17.9363 333.468 17.8904L336.357 16.9941L333.5 16.0005C333.354 15.9496 333.222 15.8651 333.114 15.7538C333.006 15.6425 332.926 15.5075 332.881 15.3596L331.984 12.4706Z" fill="black" fill-opacity="0.15" stroke="black" stroke-width="1.05432" stroke-linecap="round" stroke-linejoin="round"/>
<path d="M327.899 11.5784L327.859 13.921M326.707 12.7299L329.05 12.7696" stroke="black" stroke-opacity="0.75" stroke-width="1.09825" stroke-linecap="round" stroke-linejoin="round"/>
<path d="M335.959 19.9165L335.919 22.2591M334.768 21.0679L337.11 21.1076" stroke="black" stroke-opacity="0.75" stroke-width="1.09825" stroke-linecap="round" stroke-linejoin="round"/>
<path fill-rule="evenodd" clip-rule="evenodd" d="M350.984 12.6287C350.802 12.6256 350.652 12.7706 350.649 12.9525L350.526 20.2L349.867 20.1888L349.99 12.9414C349.999 12.3956 350.449 11.9606 350.995 11.9698L359.821 12.1194C360.262 12.1269 360.473 12.6629 360.157 12.9689L354.628 18.3129L356.16 18.3389L356.171 17.6594L356.83 17.6706L356.816 18.5148C356.811 18.7877 356.586 19.0051 356.313 19.0005L353.958 18.9606L352.807 20.0738L357.941 20.1609L358.011 16.043L358.67 16.0542L358.6 20.172C358.594 20.5359 358.294 20.8259 357.93 20.8197L352.137 20.7215L350.964 21.855L359.393 21.9978C359.575 22.0009 359.725 21.8559 359.728 21.674L359.851 14.4266L360.509 14.4377L360.387 21.6851C360.377 22.2309 359.927 22.6659 359.382 22.6567L350.555 22.5071C350.115 22.4997 349.904 21.9637 350.22 21.6576L355.728 16.3338L354.217 16.3082L354.206 16.9671L353.547 16.9559L353.561 16.1324C353.565 15.8594 353.79 15.642 354.063 15.6466L356.398 15.6861L357.57 14.5527L352.436 14.4657L352.366 18.5835L351.707 18.5724L351.777 14.4545C351.783 14.0906 352.083 13.8007 352.447 13.8068L358.24 13.905L359.413 12.7715L350.984 12.6287Z" fill="black"/>
<path d="M377.034 21.4356C377.349 22.1893 377.5 22.9915 377.485 23.8422C377.5 22.9915 377.672 22.1948 378.002 21.452C378.343 20.7094 378.795 20.066 379.358 19.522C379.92 18.9779 380.578 18.5534 381.332 18.2483C382.086 17.9331 382.888 17.7826 383.739 17.797C382.888 17.7826 382.091 17.6102 381.348 17.2798C380.626 16.9535 379.971 16.4937 379.418 15.9246C378.868 15.3533 378.431 14.6833 378.129 13.9498C377.824 13.1963 377.679 12.3942 377.694 11.5435C377.679 12.3942 377.502 13.1908 377.161 13.9334C376.831 14.6762 376.384 15.3196 375.821 15.8637C375.25 16.4137 374.58 16.8511 373.846 17.1527C373.093 17.4577 372.291 17.603 371.44 17.5886C372.291 17.603 373.087 17.7806 373.83 18.1212C374.573 18.4516 375.216 18.8982 375.76 19.461C376.304 20.0238 376.729 20.682 377.034 21.4356Z" fill="black"/>
<path fill-rule="evenodd" clip-rule="evenodd" d="M396.665 13.4027C396.483 13.3996 396.333 13.5446 396.33 13.7266L396.207 20.974L395.548 20.9628L395.671 13.7154C395.68 13.1696 396.13 12.7346 396.676 12.7439L405.502 12.8934C405.943 12.9009 406.154 13.4369 405.838 13.7429L400.309 19.0869L401.84 19.1129L401.852 18.4335L402.511 18.4446L402.497 19.2888C402.492 19.5617 402.267 19.7791 401.994 19.7745L399.639 19.7346L398.488 20.8479L403.622 20.9349L403.692 16.817L404.351 16.8282L404.281 20.946C404.275 21.3099 403.975 21.5999 403.611 21.5937L397.818 21.4956L396.645 22.629L405.074 22.7718C405.256 22.7749 405.406 22.6299 405.409 22.448L405.532 15.2006L406.19 15.2117L406.068 22.4592C406.058 23.005 405.608 23.44 405.063 23.4307L396.236 23.2811C395.796 23.2737 395.585 22.7377 395.901 22.4316L401.408 17.1078L399.898 17.0822L399.887 17.7411L399.228 17.7299L399.242 16.9064C399.246 16.6335 399.471 16.416 399.744 16.4206L402.078 16.4602L403.251 15.3267L398.117 15.2397L398.047 19.3575L397.388 19.3464L397.458 15.2285C397.464 14.8647 397.764 14.5747 398.128 14.5808L403.921 14.679L405.094 13.5455L396.665 13.4027Z" fill="black"/>
<path fill-rule="evenodd" clip-rule="evenodd" d="M76.1258 53.665C75.9439 53.6619 75.7939 53.8069 75.7908 53.9888L75.668 61.2363L75.0091 61.2251L75.1319 53.9777C75.1412 53.4319 75.5912 52.9969 76.137 53.0061L84.9633 53.1557C85.4036 53.1631 85.615 53.6992 85.2984 54.0052L79.7701 59.3492L81.3014 59.3752L81.3129 58.6957L81.9718 58.7069L81.9575 59.551C81.9529 59.824 81.7279 60.0414 81.455 60.0368L79.1001 59.9969L77.9485 61.1101L83.0829 61.1971L83.1527 57.0793L83.8115 57.0904L83.7418 61.2083C83.7356 61.5722 83.4356 61.8622 83.0717 61.856L77.2785 61.7578L76.1059 62.8913L84.5346 63.0341C84.7166 63.0372 84.8666 62.8922 84.8696 62.7103L84.9925 55.4628L85.6513 55.474L85.5285 62.7214C85.5193 63.2672 85.0693 63.7022 84.5235 63.693L75.6971 63.5434C75.2569 63.5359 75.0455 62.9999 75.362 62.6939L80.8694 57.3701L79.3587 57.3445L79.3475 58.0034L78.6887 57.9922L78.7026 57.1686C78.7072 56.8957 78.9322 56.6782 79.2051 56.6829L81.5394 56.7224L82.7119 55.589L77.5775 55.502L77.5078 59.6198L76.8489 59.6086L76.9187 55.4908C76.9248 55.1269 77.2248 54.8369 77.5887 54.8431L83.3819 54.9413L84.5545 53.8078L76.1258 53.665Z" fill="black"/>
<path d="M102.176 62.4719C102.491 63.2257 102.641 64.0278 102.627 64.8785C102.641 64.0278 102.814 63.2311 103.144 62.4883C103.485 61.7457 103.937 61.1024 104.499 60.5583C105.062 60.0142 105.72 59.5897 106.474 59.2847C107.228 58.9694 108.03 58.8189 108.88 58.8333C108.03 58.8189 107.233 58.6465 106.49 58.3161C105.767 57.9898 105.113 57.5301 104.56 56.9609C104.01 56.3896 103.573 55.7196 103.271 54.9861C102.966 54.2326 102.821 53.4305 102.835 52.5798C102.821 53.4305 102.643 54.2271 102.303 54.9697C101.972 55.7125 101.526 56.3559 100.963 56.9C100.392 57.4501 99.7216 57.8874 98.9881 58.189C98.2346 58.4941 97.4325 58.6394 96.5818 58.6249C97.4325 58.6394 98.2291 58.8169 98.9717 59.1575C99.7145 59.4879 100.358 59.9345 100.902 60.4973C101.446 61.0602 101.871 61.7183 102.176 62.4719Z" fill="black"/>
<path fill-rule="evenodd" clip-rule="evenodd" d="M121.806 54.4391C121.624 54.436 121.474 54.581 121.471 54.7629L121.348 62.0104L120.69 61.9992L120.812 54.7518C120.822 54.206 121.272 53.771 121.817 53.7802L130.644 53.9298C131.084 53.9373 131.295 54.4733 130.979 54.7793L125.451 60.1233L126.982 60.1493L126.993 59.4698L127.652 59.481L127.638 60.3251C127.633 60.5981 127.408 60.8155 127.135 60.8109L124.781 60.771L123.629 61.8842L128.763 61.9712L128.833 57.8534L129.492 57.8646L129.422 61.9824C129.416 62.3463 129.116 62.6363 128.752 62.6301L122.959 62.5319L121.786 63.6654L130.215 63.8082C130.397 63.8113 130.547 63.6663 130.55 63.4844L130.673 56.237L131.332 56.2481L131.209 63.4955C131.2 64.0413 130.75 64.4763 130.204 64.4671L121.378 64.3175C120.937 64.3101 120.726 63.7741 121.042 63.468L126.55 58.1442L125.039 58.1186L125.028 58.7775L124.369 58.7663L124.383 57.9427C124.388 57.6698 124.613 57.4524 124.886 57.457L127.22 57.4965L128.392 56.3631L123.258 56.2761L123.188 60.3939L122.529 60.3828L122.599 56.2649C122.605 55.901 122.905 55.611 123.269 55.6172L129.062 55.7154L130.235 54.5819L121.806 54.4391Z" fill="black"/>
<path d="M148.487 55.0551L147.494 57.9121C147.443 58.0583 147.358 58.1906 147.247 58.2982C147.136 58.4058 147.001 58.4857 146.853 58.5316L143.964 59.4279L146.821 60.4215C146.967 60.4724 147.099 60.5569 147.207 60.6682C147.314 60.7795 147.394 60.9145 147.44 61.0624L148.336 63.9514L149.33 61.0944C149.381 60.9482 149.465 60.8159 149.577 60.7084C149.688 60.6008 149.823 60.5208 149.971 60.4749L152.86 59.5786L150.003 58.585C149.857 58.5341 149.725 58.4496 149.617 58.3383C149.509 58.227 149.429 58.092 149.383 57.9441L148.487 55.0551Z" fill="black" fill-opacity="0.15" stroke="black" stroke-width="1.05432" stroke-linecap="round" stroke-linejoin="round"/>
<path d="M144.402 54.1629L144.362 56.5055M143.211 55.3143L145.553 55.354" stroke="black" stroke-opacity="0.75" stroke-width="1.09825" stroke-linecap="round" stroke-linejoin="round"/>
<path d="M152.462 62.5009L152.422 64.8435M151.271 63.6523L153.613 63.692" stroke="black" stroke-opacity="0.75" stroke-width="1.09825" stroke-linecap="round" stroke-linejoin="round"/>
<path fill-rule="evenodd" clip-rule="evenodd" d="M167.487 55.2131C167.305 55.2101 167.155 55.3551 167.152 55.537L167.029 62.7844L166.37 62.7732L166.493 55.5258C166.503 54.98 166.952 54.545 167.498 54.5543L176.325 54.7038C176.765 54.7113 176.976 55.2473 176.66 55.5533L171.131 60.8974L172.663 60.9233L172.674 60.2439L173.333 60.255L173.319 61.0992C173.314 61.3721 173.089 61.5896 172.816 61.5849L170.461 61.545L169.31 62.6583L174.444 62.7453L174.514 58.6274L175.173 58.6386L175.103 62.7565C175.097 63.1203 174.797 63.4103 174.433 63.4042L168.64 63.306L167.467 64.4394L175.896 64.5823C176.078 64.5854 176.228 64.4404 176.231 64.2584L176.354 57.011L177.013 57.0222L176.89 64.2696C176.881 64.8154 176.431 65.2504 175.885 65.2411L167.058 65.0916C166.618 65.0841 166.407 64.5481 166.723 64.242L172.231 58.9183L170.72 58.8927L170.709 59.5515L170.05 59.5404L170.064 58.7168C170.069 58.4439 170.294 58.2264 170.566 58.231L172.901 58.2706L174.073 57.1371L168.939 57.0501L168.869 61.168L168.21 61.1568L168.28 57.039C168.286 56.6751 168.586 56.3851 168.95 56.3913L174.743 56.4894L175.916 55.356L167.487 55.2131Z" fill="black"/>
<g clip-path="url(#clip7_2891_317)">
<path d="M193.537 64.02C193.853 64.7738 194.003 65.576 193.989 66.4266C194.003 65.576 194.175 64.7793 194.506 64.0364C194.846 63.2938 195.298 62.6505 195.861 62.1064C196.424 61.5624 197.082 61.1378 197.835 60.8328C198.589 60.5175 199.391 60.3671 200.242 60.3815C199.391 60.3671 198.595 60.1947 197.852 59.8643C197.129 59.538 196.474 59.0782 195.922 58.5091C195.372 57.9377 194.934 57.2678 194.633 56.5343C194.328 55.7807 194.183 54.9786 194.197 54.1279C194.183 54.9786 194.005 55.7752 193.664 56.5178C193.334 57.2606 192.887 57.9041 192.325 58.4481C191.753 58.9982 191.083 59.4355 190.35 59.7371C189.596 60.0422 188.794 60.1875 187.943 60.1731C188.794 60.1875 189.591 60.365 190.333 60.7057C191.076 61.0361 191.72 61.4827 192.264 62.0455C192.808 62.6083 193.232 63.2664 193.537 64.02Z" fill="black"/>
</g>
<path fill-rule="evenodd" clip-rule="evenodd" d="M213.168 55.9872C212.986 55.9841 212.836 56.1291 212.833 56.3111L212.71 63.5585L212.051 63.5473L212.174 56.2999C212.183 55.7541 212.633 55.3191 213.179 55.3284L222.005 55.4779C222.446 55.4854 222.657 56.0214 222.34 56.3274L216.812 61.6714L218.343 61.6974L218.355 61.018L219.014 61.0291L218.999 61.8733C218.995 62.1462 218.77 62.3636 218.497 62.359L216.142 62.3191L214.99 63.4324L220.125 63.5194L220.195 59.4015L220.854 59.4127L220.784 63.5305C220.778 63.8944 220.478 64.1844 220.114 64.1782L214.32 64.0801L213.148 65.2135L221.577 65.3563C221.759 65.3594 221.909 65.2144 221.912 65.0325L222.034 57.7851L222.693 57.7962L222.57 65.0437C222.561 65.5895 222.111 66.0245 221.565 66.0152L212.739 65.8656C212.299 65.8582 212.087 65.3222 212.404 65.0161L217.911 59.6924L216.401 59.6668L216.39 60.3256L215.731 60.3144L215.745 59.4909C215.749 59.218 215.974 59.0005 216.247 59.0051L218.581 59.0447L219.754 57.9112L214.62 57.8242L214.55 61.942L213.891 61.9309L213.961 57.813C213.967 57.4492 214.267 57.1592 214.631 57.1653L220.424 57.2635L221.597 56.13L213.168 55.9872Z" fill="black"/>
<path d="M239.849 56.6032L238.855 59.4602C238.805 59.6064 238.72 59.7387 238.609 59.8462C238.497 59.9539 238.362 60.0338 238.215 60.0797L235.326 60.976L238.183 61.9696C238.329 62.0205 238.461 62.105 238.569 62.2163C238.676 62.3276 238.756 62.4626 238.802 62.6105L239.698 65.4995L240.692 62.6425C240.743 62.4963 240.827 62.364 240.939 62.2564C241.05 62.1488 241.185 62.0689 241.333 62.023L244.222 61.1267L241.365 60.1331C241.219 60.0822 241.086 59.9977 240.979 59.8864C240.871 59.7751 240.791 59.6401 240.745 59.4922L239.849 56.6032Z" fill="black" fill-opacity="0.15" stroke="black" stroke-width="1.05432" stroke-linecap="round" stroke-linejoin="round"/>
<path d="M235.763 55.711L235.723 58.0536M234.572 56.8625L236.915 56.9022" stroke="black" stroke-opacity="0.75" stroke-width="1.09825" stroke-linecap="round" stroke-linejoin="round"/>
<path d="M243.823 64.049L243.784 66.3917M242.632 65.2004L244.975 65.2401" stroke="black" stroke-opacity="0.75" stroke-width="1.09825" stroke-linecap="round" stroke-linejoin="round"/>
<path fill-rule="evenodd" clip-rule="evenodd" d="M258.849 56.7612C258.667 56.7582 258.517 56.9031 258.514 57.0851L258.391 64.3325L257.732 64.3213L257.855 57.0739C257.864 56.5281 258.314 56.0931 258.86 56.1024L267.686 56.2519C268.126 56.2594 268.338 56.7954 268.021 57.1014L262.493 62.4455L264.024 62.4714L264.036 61.792L264.695 61.8031L264.68 62.6473C264.676 62.9202 264.451 63.1377 264.178 63.133L261.823 63.0931L260.671 64.2064L265.806 64.2934L265.876 60.1755L266.534 60.1867L266.465 64.3046C266.459 64.6684 266.159 64.9584 265.795 64.9522L260.001 64.8541L258.829 65.9875L267.258 66.1304C267.439 66.1334 267.589 65.9885 267.593 65.8065L267.715 58.5591L268.374 58.5703L268.251 65.8177C268.242 66.3635 267.792 66.7985 267.246 66.7892L258.42 66.6397C257.98 66.6322 257.768 66.0962 258.085 65.7901L263.592 60.4664L262.082 60.4408L262.07 61.0996L261.412 61.0885L261.426 60.2649C261.43 59.992 261.655 59.7745 261.928 59.7791L264.262 59.8187L265.435 58.6852L260.3 58.5982L260.231 62.7161L259.572 62.7049L259.642 58.587C259.648 58.2232 259.948 57.9332 260.312 57.9394L266.105 58.0375L267.277 56.9041L258.849 56.7612Z" fill="black"/>
<path d="M284.899 65.5682C285.214 66.3219 285.365 67.1241 285.35 67.9748C285.365 67.1241 285.537 66.3274 285.867 65.5846C286.208 64.842 286.66 64.1986 287.223 63.6546C287.785 63.1105 288.443 62.686 289.197 62.3809C289.951 62.0657 290.753 61.9152 291.604 61.9296C290.753 61.9152 289.956 61.7428 289.213 61.4124C288.491 61.0861 287.836 60.6263 287.283 60.0572C286.733 59.4859 286.296 58.8159 285.994 58.0824C285.689 57.3289 285.544 56.5268 285.559 55.6761C285.544 56.5268 285.367 57.3234 285.026 58.066C284.696 58.8088 284.249 59.4522 283.686 59.9963C283.115 60.5463 282.445 60.9837 281.711 61.2853C280.958 61.5903 280.156 61.7356 279.305 61.7212C280.156 61.7356 280.952 61.9132 281.695 62.2538C282.438 62.5842 283.081 63.0308 283.625 63.5936C284.169 64.1564 284.594 64.8146 284.899 65.5682Z" fill="black"/>
<path fill-rule="evenodd" clip-rule="evenodd" d="M304.53 57.5353C304.348 57.5323 304.198 57.6773 304.195 57.8592L304.072 65.1066L303.413 65.0955L303.536 57.848C303.545 57.3022 303.995 56.8672 304.541 56.8765L313.367 57.026C313.807 57.0335 314.019 57.5695 313.702 57.8755L308.174 63.2196L309.705 63.2455L309.717 62.5661L310.376 62.5772L310.361 63.4214C310.357 63.6943 310.132 63.9118 309.859 63.9071L307.504 63.8672L306.352 64.9805L311.487 65.0675L311.556 60.9496L312.215 60.9608L312.146 65.0787C312.139 65.4425 311.839 65.7325 311.476 65.7264L305.682 65.6282L304.51 66.7617L312.938 66.9045C313.12 66.9076 313.27 66.7626 313.273 66.5806L313.396 59.3332L314.055 59.3444L313.932 66.5918C313.923 67.1376 313.473 67.5726 312.927 67.5633L304.101 67.4138C303.661 67.4063 303.449 66.8703 303.766 66.5642L309.273 61.2405L307.762 61.2149L307.751 61.8737L307.092 61.8626L307.106 61.039C307.111 60.7661 307.336 60.5486 307.609 60.5532L309.943 60.5928L311.116 59.4593L305.981 59.3723L305.912 63.4902L305.253 63.479L305.322 59.3612C305.329 58.9973 305.629 58.7073 305.993 58.7135L311.786 58.8116L312.958 57.6782L304.53 57.5353Z" fill="black"/>
<path d="M331.211 58.1513L330.217 61.0083C330.166 61.1545 330.082 61.2868 329.97 61.3944C329.859 61.502 329.724 61.5819 329.576 61.6278L326.687 62.5241L329.544 63.5178C329.69 63.5686 329.823 63.6531 329.93 63.7644C330.038 63.8757 330.118 64.0107 330.164 64.1586L331.06 67.0476L332.054 64.1906C332.104 64.0444 332.189 63.9122 332.3 63.8046C332.411 63.697 332.546 63.617 332.694 63.5711L335.583 62.6748L332.726 61.6812C332.58 61.6303 332.448 61.5458 332.34 61.4345C332.233 61.3232 332.153 61.1882 332.107 61.0404L331.211 58.1513Z" fill="black" fill-opacity="0.15" stroke="black" stroke-width="1.05432" stroke-linecap="round" stroke-linejoin="round"/>
<path d="M327.125 57.2592L327.085 59.6018M325.934 58.4106L328.276 58.4503" stroke="black" stroke-opacity="0.75" stroke-width="1.09825" stroke-linecap="round" stroke-linejoin="round"/>
<path d="M335.185 65.5972L335.145 67.9398M333.994 66.7486L336.336 66.7883" stroke="black" stroke-opacity="0.75" stroke-width="1.09825" stroke-linecap="round" stroke-linejoin="round"/>
<path fill-rule="evenodd" clip-rule="evenodd" d="M350.21 58.3094C350.028 58.3063 349.878 58.4513 349.875 58.6332L349.752 65.8807L349.094 65.8695L349.216 58.6221C349.226 58.0763 349.676 57.6413 350.221 57.6505L359.048 57.8001C359.488 57.8076 359.699 58.3436 359.383 58.6496L353.855 63.9936L355.386 64.0196L355.397 63.3401L356.056 63.3513L356.042 64.1955C356.037 64.4684 355.812 64.6858 355.539 64.6812L353.185 64.6413L352.033 65.7545L357.167 65.8415L357.237 61.7237L357.896 61.7349L357.826 65.8527C357.82 66.2166 357.52 66.5066 357.156 66.5004L351.363 66.4022L350.19 67.5357L358.619 67.6785C358.801 67.6816 358.951 67.5366 358.954 67.3547L359.077 60.1073L359.736 60.1184L359.613 67.3658C359.604 67.9116 359.154 68.3466 358.608 68.3374L349.782 68.1878C349.341 68.1804 349.13 67.6444 349.446 67.3383L354.954 62.0145L353.443 61.9889L353.432 62.6478L352.773 62.6366L352.787 61.813C352.792 61.5401 353.017 61.3227 353.29 61.3273L355.624 61.3668L356.796 60.2334L351.662 60.1464L351.592 64.2642L350.933 64.2531L351.003 60.1352C351.009 59.7713 351.309 59.4813 351.673 59.4875L357.466 59.5857L358.639 58.4522L350.21 58.3094Z" fill="black"/>
<path d="M376.26 67.1163C376.576 67.87 376.726 68.6722 376.712 69.5229C376.726 68.6722 376.898 67.8755 377.229 67.1327C377.57 66.3901 378.021 65.7467 378.584 65.2027C379.147 64.6586 379.805 64.2341 380.559 63.929C381.312 63.6138 382.115 63.4633 382.965 63.4777C382.115 63.4633 381.318 63.2909 380.575 62.9605C379.852 62.6342 379.197 62.1744 378.645 61.6053C378.095 61.034 377.658 60.364 377.356 59.6305C377.051 58.877 376.906 58.0748 376.92 57.2242C376.906 58.0748 376.728 58.8715 376.387 59.6141C376.057 60.3569 375.61 61.0003 375.048 61.5444C374.476 62.0944 373.806 62.5318 373.073 62.8334C372.319 63.1384 371.517 63.2837 370.667 63.2693C371.517 63.2837 372.314 63.4613 373.056 63.8019C373.799 64.1323 374.443 64.5789 374.987 65.1417C375.531 65.7045 375.955 66.3627 376.26 67.1163Z" fill="black"/>
<path fill-rule="evenodd" clip-rule="evenodd" d="M395.891 59.0834C395.709 59.0803 395.559 59.2253 395.556 59.4073L395.433 66.6547L394.775 66.6435L394.897 59.3961C394.907 58.8503 395.357 58.4153 395.902 58.4246L404.729 58.5741C405.169 58.5816 405.38 59.1176 405.064 59.4236L399.536 64.7676L401.067 64.7936L401.078 64.1141L401.737 64.1253L401.723 64.9695C401.718 65.2424 401.493 65.4598 401.22 65.4552L398.865 65.4153L397.714 66.5286L402.848 66.6156L402.918 62.4977L403.577 62.5089L403.507 66.6267C403.501 66.9906 403.201 67.2806 402.837 67.2744L397.044 67.1763L395.871 68.3097L404.3 68.4525C404.482 68.4556 404.632 68.3106 404.635 68.1287L404.758 60.8813L405.417 60.8924L405.294 68.1399C405.285 68.6857 404.835 69.1206 404.289 69.1114L395.463 68.9618C395.022 68.9544 394.811 68.4184 395.127 68.1123L400.635 62.7885L399.124 62.7629L399.113 63.4218L398.454 63.4106L398.468 62.5871C398.473 62.3142 398.698 62.0967 398.971 62.1013L401.305 62.1408L402.477 61.0074L397.343 60.9204L397.273 65.0382L396.614 65.0271L396.684 60.9092C396.69 60.5453 396.99 60.2554 397.354 60.2615L403.147 60.3597L404.32 59.2262L395.891 59.0834Z" fill="black"/>
</g>
<defs>
<clipPath id="clip0_2891_317">
<rect width="400" height="92" fill="white"/>
</clipPath>
<clipPath id="clip1_2891_317">
<rect width="14.0576" height="14.0576" fill="white" transform="translate(348.228 -12.6815) rotate(0.970784)"/>
</clipPath>
<clipPath id="clip2_2891_317">
<rect width="14.0576" height="14.0576" fill="white" transform="translate(164.73 29.903) rotate(0.970784)"/>
</clipPath>
<clipPath id="clip3_2891_317">
<rect width="14.0576" height="14.0576" fill="white" transform="translate(256.092 31.4511) rotate(0.970784)"/>
</clipPath>
<clipPath id="clip4_2891_317">
<rect width="14.0576" height="14.0576" fill="white" transform="translate(347.453 32.9992) rotate(0.970784)"/>
</clipPath>
<clipPath id="clip5_2891_317">
<rect width="14.0576" height="14.0576" fill="white" transform="translate(96.5964 5.90154) rotate(0.970784)"/>
</clipPath>
<clipPath id="clip6_2891_317">
<rect width="14.0576" height="14.0576" fill="white" transform="translate(279.319 8.99783) rotate(0.970784)"/>
</clipPath>
<clipPath id="clip7_2891_317">
<rect width="14.0576" height="14.0576" fill="white" transform="translate(187.184 53.1304) rotate(0.970784)"/>
</clipPath>
</defs>
</svg>
