<svg width="180" height="154" viewBox="0 0 180 154" fill="none" xmlns="http://www.w3.org/2000/svg">
<g clip-path="url(#clip0_2498_559)">
<g clip-path="url(#clip1_2498_559)">
<path d="M46.6663 2.40552L46.8983 6.00359L43.6663 7.60167" stroke="black" stroke-width="1.5"/>
<path d="M44.1841 2.70453L44.3001 4.50357L42.6841 5.3026" stroke="black" stroke-width="1.5"/>
<path d="M40.8191 3.53302L39.7691 5.35167C37.9773 4.31715 37.2308 3.88618 35.439 2.85167L35.739 2.33205L42.4691 0.675133L42.7691 0.155518L38.439 -2.34448L37.389 -0.525829" stroke="black" stroke-width="1.5"/>
</g>
<g clip-path="url(#clip2_2498_559)">
<path d="M62.5342 9.73413C62.4374 9.37309 62.2013 9.06515 61.8775 8.87825C61.5538 8.69134 61.1691 8.6406 60.808 8.73731C60.4469 8.83402 60.139 9.07022 59.9521 9.39391C59.7651 9.71761 59.7145 10.1023 59.8111 10.4634L62.2551 19.5798C62.2972 19.7382 62.3777 19.8838 62.4895 20.0038L64.0437 21.6638C64.0747 21.6967 64.114 21.7204 64.1574 21.7327C64.2009 21.745 64.2468 21.7453 64.2904 21.7336C64.334 21.7219 64.3736 21.6986 64.405 21.6662C64.4364 21.6338 64.4584 21.5935 64.4688 21.5495L64.9855 19.3346C65.0226 19.1752 65.0198 19.0091 64.9778 18.851L62.5342 9.73413Z" stroke="black" stroke-width="1.33" stroke-linecap="round" stroke-linejoin="round"/>
<path d="M60.0227 11.2715L62.7548 10.5394" stroke="black" stroke-width="1.33" stroke-linecap="round" stroke-linejoin="round"/>
<path d="M57.815 14.1674L56.949 13.6674" stroke="black" stroke-width="1.2" stroke-linecap="round" stroke-linejoin="round"/>
<path d="M67.3416 15.9938L68.2076 16.4938" stroke="black" stroke-width="1.2" stroke-linecap="round" stroke-linejoin="round"/>
<path d="M58.4131 19.1315L58.9131 18.2655" stroke="black" stroke-width="1.2" stroke-linecap="round" stroke-linejoin="round"/>
<path d="M66.7434 11.0297L66.2434 11.8958" stroke="black" stroke-width="1.2" stroke-linecap="round" stroke-linejoin="round"/>
<path d="M57.681 16.3995L56.3149 16.7655" stroke="black" stroke-width="1.2" stroke-linecap="round" stroke-linejoin="round"/>
<path d="M67.4756 13.7618L68.8416 13.3958" stroke="black" stroke-width="1.2" stroke-linecap="round" stroke-linejoin="round"/>
</g>
<g clip-path="url(#clip3_2498_559)">
<mask id="mask0_2498_559" style="mask-type:luminance" maskUnits="userSpaceOnUse" x="72" y="16" width="23" height="22">
<path d="M94.1997 24.0754L80.3433 16.0754L72.3433 29.9318L86.1997 37.9318L94.1997 24.0754Z" fill="white"/>
</mask>
<g mask="url(#mask0_2498_559)">
<path d="M85.4195 29.283L84.3695 31.1016C82.2193 29.8602 81.3235 29.343 79.1733 28.1016L79.4733 27.582L87.0695 26.4251L87.3695 25.9055L82.1733 22.9055L81.1233 24.7241" stroke="black" stroke-width="1.5"/>
<path d="M78.8923 21.5885L80.8923 18.1244L83.9234 19.8744" stroke="black" stroke-opacity="0.5" stroke-width="1.5"/>
<path d="M90.1507 28.0885L92.1507 24.6244L89.1196 22.8744" stroke="black" stroke-opacity="0.5" stroke-width="1.5"/>
<path d="M76.3923 25.9186L74.3923 29.3827L77.4234 31.1327" stroke="black" stroke-opacity="0.5" stroke-width="1.5"/>
<path d="M87.6507 32.4186L85.6507 35.8827L82.6196 34.1327" stroke="black" stroke-opacity="0.5" stroke-width="1.5"/>
</g>
</g>
<g clip-path="url(#clip4_2498_559)">
<path d="M107.056 33.8074L104.014 36.5262C103.859 36.6654 103.672 36.766 103.471 36.8201C103.269 36.8741 103.057 36.88 102.853 36.8374L98.8596 36.0036L101.578 39.0451C101.718 39.2008 101.818 39.387 101.872 39.5887C101.926 39.7903 101.932 40.0019 101.89 40.2063L101.056 44.1997L104.097 41.4809C104.253 41.3418 104.439 41.2411 104.641 41.1871C104.843 41.1331 105.054 41.1271 105.258 41.1698L109.252 42.0036L106.533 38.962C106.394 38.8064 106.293 38.6202 106.239 38.4185C106.185 38.2168 106.179 38.0053 106.222 37.8009L107.056 33.8074Z" fill="black" fill-opacity="0.15" stroke="black" stroke-width="1.42857" stroke-linecap="round" stroke-linejoin="round"/>
<path d="M103.014 31.4741L101.681 33.7835M101.193 31.9621L103.502 33.2955" stroke="black" stroke-opacity="0.75" stroke-width="1.42857" stroke-linecap="round" stroke-linejoin="round"/>
<path d="M106.431 44.2237L105.097 46.5331M104.609 44.7117L106.919 46.045" stroke="black" stroke-opacity="0.75" stroke-width="1.42857" stroke-linecap="round" stroke-linejoin="round"/>
</g>
<g clip-path="url(#clip5_2498_559)">
<path d="M129.805 50.4055L130.037 54.0036L126.805 55.6017" stroke="black" stroke-width="1.5"/>
<path d="M127.323 50.7045L127.439 52.5036L125.823 53.3026" stroke="black" stroke-width="1.5"/>
<path d="M123.958 51.533L122.908 53.3517C121.116 52.3172 120.369 51.8862 118.577 50.8517L118.877 50.3321L125.608 48.6751L125.908 48.1555L121.577 45.6555L120.527 47.4742" stroke="black" stroke-width="1.5"/>
</g>
<g clip-path="url(#clip6_2498_559)">
<mask id="mask1_2498_559" style="mask-type:luminance" maskUnits="userSpaceOnUse" x="134" y="52" width="23" height="22">
<path d="M156.553 60.0754L142.697 52.0754L134.697 65.9318L148.553 73.9318L156.553 60.0754Z" fill="white"/>
</mask>
<g mask="url(#mask1_2498_559)">
<path d="M147.773 65.283L146.723 67.1016C144.573 65.8602 143.677 65.343 141.527 64.1016L141.827 63.582L149.423 62.4251L149.723 61.9055L144.527 58.9055L143.477 60.7241" stroke="black" stroke-width="1.5"/>
<path d="M141.246 57.5885L143.246 54.1244L146.277 55.8744" stroke="black" stroke-opacity="0.5" stroke-width="1.5"/>
<path d="M152.504 64.0885L154.504 60.6244L151.473 58.8744" stroke="black" stroke-opacity="0.5" stroke-width="1.5"/>
<path d="M138.746 61.9186L136.746 65.3827L139.777 67.1327" stroke="black" stroke-opacity="0.5" stroke-width="1.5"/>
<path d="M150.004 68.4186L148.004 71.8827L144.973 70.1327" stroke="black" stroke-opacity="0.5" stroke-width="1.5"/>
</g>
</g>
<g clip-path="url(#clip7_2498_559)">
<path d="M166.457 69.7341C166.361 69.3731 166.124 69.0652 165.801 68.8782C165.477 68.6913 165.092 68.6406 164.731 68.7373C164.37 68.834 164.062 69.0702 163.875 69.3939C163.688 69.7176 163.638 70.1023 163.734 70.4634L166.178 79.5798C166.22 79.7382 166.301 79.8838 166.413 80.0038L167.967 81.6638C167.998 81.6967 168.037 81.7204 168.08 81.7327C168.124 81.745 168.17 81.7453 168.213 81.7336C168.257 81.7219 168.297 81.6986 168.328 81.6662C168.36 81.6338 168.382 81.5935 168.392 81.5495L168.909 79.3346C168.946 79.1752 168.943 79.0091 168.901 78.851L166.457 69.7341Z" stroke="black" stroke-width="1.33" stroke-linecap="round" stroke-linejoin="round"/>
<path d="M163.946 71.2715L166.678 70.5394" stroke="black" stroke-width="1.33" stroke-linecap="round" stroke-linejoin="round"/>
<path d="M161.738 74.1674L160.872 73.6674" stroke="black" stroke-width="1.2" stroke-linecap="round" stroke-linejoin="round"/>
<path d="M171.265 75.9938L172.131 76.4938" stroke="black" stroke-width="1.2" stroke-linecap="round" stroke-linejoin="round"/>
<path d="M162.336 79.1315L162.836 78.2655" stroke="black" stroke-width="1.2" stroke-linecap="round" stroke-linejoin="round"/>
<path d="M170.667 71.0297L170.167 71.8958" stroke="black" stroke-width="1.2" stroke-linecap="round" stroke-linejoin="round"/>
<path d="M161.604 76.3995L160.238 76.7655" stroke="black" stroke-width="1.2" stroke-linecap="round" stroke-linejoin="round"/>
<path d="M171.399 73.7618L172.765 73.3958" stroke="black" stroke-width="1.2" stroke-linecap="round" stroke-linejoin="round"/>
</g>
<g clip-path="url(#clip8_2498_559)">
<mask id="mask2_2498_559" style="mask-type:luminance" maskUnits="userSpaceOnUse" x="2" y="40" width="23" height="23">
<path d="M24.6303 48.5728L10.7739 40.5728L2.77393 54.4292L16.6303 62.4292L24.6303 48.5728Z" fill="white"/>
</mask>
<g mask="url(#mask2_2498_559)">
<path d="M15.8502 53.7804L14.8002 55.599C12.65 54.3576 11.7542 53.8405 9.604 52.599L9.904 52.0794L17.5002 50.9225L17.8002 50.4029L12.604 47.4029L11.554 49.2215" stroke="black" stroke-width="1.5"/>
<path d="M9.323 46.0859L11.323 42.6218L14.3541 44.3718" stroke="black" stroke-opacity="0.5" stroke-width="1.5"/>
<path d="M20.5814 52.5859L22.5814 49.1218L19.5503 47.3718" stroke="black" stroke-opacity="0.5" stroke-width="1.5"/>
<path d="M6.823 50.4161L4.823 53.8802L7.85409 55.6302" stroke="black" stroke-opacity="0.5" stroke-width="1.5"/>
<path d="M18.0814 56.9161L16.0814 60.3802L13.0503 58.6302" stroke="black" stroke-opacity="0.5" stroke-width="1.5"/>
</g>
</g>
<g clip-path="url(#clip9_2498_559)">
<path d="M37.4867 58.3049L34.4451 61.0237C34.2895 61.1628 34.1033 61.2635 33.9016 61.3175C33.6999 61.3716 33.4884 61.3775 33.284 61.3348L29.2905 60.501L32.0093 63.5426C32.1485 63.6982 32.2491 63.8844 32.3032 64.0861C32.3572 64.2878 32.3631 64.4993 32.3205 64.7037L31.4867 68.6972L34.5282 65.9784C34.6839 65.8392 34.8701 65.7386 35.0718 65.6845C35.2734 65.6305 35.485 65.6246 35.6894 65.6672L39.6828 66.501L36.964 63.4595C36.8249 63.3038 36.7242 63.1176 36.6702 62.916C36.6161 62.7143 36.6102 62.5027 36.6529 62.2983L37.4867 58.3049Z" fill="black" fill-opacity="0.15" stroke="black" stroke-width="1.42857" stroke-linecap="round" stroke-linejoin="round"/>
<path d="M33.4452 55.9715L32.1119 58.2809M31.6239 56.4596L33.9333 57.7929" stroke="black" stroke-opacity="0.75" stroke-width="1.42857" stroke-linecap="round" stroke-linejoin="round"/>
<path d="M36.8615 68.7211L35.5281 71.0305M35.0401 69.2091L37.3495 70.5424" stroke="black" stroke-opacity="0.75" stroke-width="1.42857" stroke-linecap="round" stroke-linejoin="round"/>
</g>
<g clip-path="url(#clip10_2498_559)">
<path d="M55.3188 70.2316C55.2221 69.8705 54.9859 69.5626 54.6622 69.3757C54.3385 69.1888 53.9538 69.138 53.5927 69.2347C53.2316 69.3315 52.9237 69.5677 52.7368 69.8913C52.5498 70.215 52.4991 70.5997 52.5958 70.9609L55.0398 80.0772C55.0819 80.2356 55.1624 80.3812 55.2742 80.5012L56.8284 82.1612C56.8594 82.1941 56.8987 82.2179 56.9421 82.2301C56.9855 82.2425 57.0314 82.2427 57.075 82.231C57.1186 82.2193 57.1583 82.196 57.1897 82.1636C57.2211 82.1312 57.2431 82.0909 57.2535 82.047L57.7701 79.8321C57.8072 79.6726 57.8045 79.5065 57.7624 79.3484L55.3188 70.2316Z" stroke="black" stroke-width="1.33" stroke-linecap="round" stroke-linejoin="round"/>
<path d="M52.8074 71.7689L55.5394 71.0369" stroke="black" stroke-width="1.33" stroke-linecap="round" stroke-linejoin="round"/>
<path d="M50.5997 74.6649L49.7336 74.1649" stroke="black" stroke-width="1.2" stroke-linecap="round" stroke-linejoin="round"/>
<path d="M60.1262 76.4913L60.9922 76.9913" stroke="black" stroke-width="1.2" stroke-linecap="round" stroke-linejoin="round"/>
<path d="M51.1978 79.629L51.6978 78.7629" stroke="black" stroke-width="1.2" stroke-linecap="round" stroke-linejoin="round"/>
<path d="M59.5281 71.5272L59.0281 72.3932" stroke="black" stroke-width="1.2" stroke-linecap="round" stroke-linejoin="round"/>
<path d="M50.4656 76.8969L49.0996 77.2629" stroke="black" stroke-width="1.2" stroke-linecap="round" stroke-linejoin="round"/>
<path d="M60.2603 74.2592L61.6263 73.8932" stroke="black" stroke-width="1.2" stroke-linecap="round" stroke-linejoin="round"/>
</g>
<g clip-path="url(#clip11_2498_559)">
<path d="M81.02 86.903L81.2521 90.501L78.02 92.0991" stroke="black" stroke-width="1.5"/>
<path d="M78.5378 87.202L78.6539 89.001L77.0378 89.8" stroke="black" stroke-width="1.5"/>
<path d="M75.1729 88.0305L74.1229 89.8491C72.331 88.8146 71.5846 88.3836 69.7927 87.3491L70.0927 86.8295L76.8229 85.1726L77.1229 84.653L72.7927 82.153L71.7427 83.9716" stroke="black" stroke-width="1.5"/>
</g>
<g clip-path="url(#clip12_2498_559)">
<mask id="mask3_2498_559" style="mask-type:luminance" maskUnits="userSpaceOnUse" x="85" y="88" width="23" height="23">
<path d="M107.769 96.5728L93.9124 88.5728L85.9124 102.429L99.7688 110.429L107.769 96.5728Z" fill="white"/>
</mask>
<g mask="url(#mask3_2498_559)">
<path d="M98.9886 101.78L97.9386 103.599C95.7884 102.358 94.8926 101.84 92.7424 100.599L93.0424 100.079L100.639 98.9225L100.939 98.4029L95.7424 95.4029L94.6924 97.2215" stroke="black" stroke-width="1.5"/>
<path d="M92.4614 94.0859L94.4614 90.6218L97.4925 92.3718" stroke="black" stroke-opacity="0.5" stroke-width="1.5"/>
<path d="M103.72 100.586L105.72 97.1218L102.689 95.3718" stroke="black" stroke-opacity="0.5" stroke-width="1.5"/>
<path d="M89.9614 98.4161L87.9614 101.88L90.9925 103.63" stroke="black" stroke-opacity="0.5" stroke-width="1.5"/>
<path d="M101.22 104.916L99.2198 108.38L96.1887 106.63" stroke="black" stroke-opacity="0.5" stroke-width="1.5"/>
</g>
</g>
<g clip-path="url(#clip13_2498_559)">
<path d="M120.625 106.305L117.584 109.024C117.428 109.163 117.242 109.263 117.04 109.318C116.838 109.372 116.627 109.377 116.422 109.335L112.429 108.501L115.148 111.543C115.287 111.698 115.388 111.884 115.442 112.086C115.496 112.288 115.502 112.499 115.459 112.704L114.625 116.697L117.667 113.978C117.822 113.839 118.008 113.739 118.21 113.685C118.412 113.63 118.623 113.625 118.828 113.667L122.821 114.501L120.102 111.459C119.963 111.304 119.863 111.118 119.809 110.916C119.755 110.714 119.749 110.503 119.791 110.298L120.625 106.305Z" fill="black" fill-opacity="0.15" stroke="black" stroke-width="1.42857" stroke-linecap="round" stroke-linejoin="round"/>
<path d="M116.584 103.972L115.25 106.281M114.762 104.46L117.072 105.793" stroke="black" stroke-opacity="0.75" stroke-width="1.42857" stroke-linecap="round" stroke-linejoin="round"/>
<path d="M120 116.721L118.667 119.03M118.179 117.209L120.488 118.542" stroke="black" stroke-opacity="0.75" stroke-width="1.42857" stroke-linecap="round" stroke-linejoin="round"/>
</g>
<g clip-path="url(#clip14_2498_559)">
<path d="M138.457 118.232C138.361 117.871 138.124 117.563 137.801 117.376C137.477 117.189 137.092 117.138 136.731 117.235C136.37 117.331 136.062 117.568 135.875 117.891C135.688 118.215 135.638 118.6 135.734 118.961L138.178 128.077C138.22 128.236 138.301 128.381 138.413 128.501L139.967 130.161C139.998 130.194 140.037 130.218 140.08 130.23C140.124 130.242 140.17 130.243 140.213 130.231C140.257 130.219 140.297 130.196 140.328 130.164C140.36 130.131 140.382 130.091 140.392 130.047L140.909 127.832C140.946 127.673 140.943 127.507 140.901 127.348L138.457 118.232Z" stroke="black" stroke-width="1.33" stroke-linecap="round" stroke-linejoin="round"/>
<path d="M135.946 119.769L138.678 119.037" stroke="black" stroke-width="1.33" stroke-linecap="round" stroke-linejoin="round"/>
<path d="M133.738 122.665L132.872 122.165" stroke="black" stroke-width="1.2" stroke-linecap="round" stroke-linejoin="round"/>
<path d="M143.265 124.491L144.131 124.991" stroke="black" stroke-width="1.2" stroke-linecap="round" stroke-linejoin="round"/>
<path d="M134.336 127.629L134.836 126.763" stroke="black" stroke-width="1.2" stroke-linecap="round" stroke-linejoin="round"/>
<path d="M142.667 119.527L142.167 120.393" stroke="black" stroke-width="1.2" stroke-linecap="round" stroke-linejoin="round"/>
<path d="M133.604 124.897L132.238 125.263" stroke="black" stroke-width="1.2" stroke-linecap="round" stroke-linejoin="round"/>
<path d="M143.399 122.259L144.765 121.893" stroke="black" stroke-width="1.2" stroke-linecap="round" stroke-linejoin="round"/>
</g>
<g clip-path="url(#clip15_2498_559)">
<path d="M164.158 134.903L164.39 138.501L161.158 140.099" stroke="black" stroke-width="1.5"/>
<path d="M161.676 135.202L161.792 137.001L160.176 137.8" stroke="black" stroke-width="1.5"/>
<path d="M158.311 136.03L157.261 137.849C155.469 136.815 154.723 136.384 152.931 135.349L153.231 134.829L159.961 133.173L160.261 132.653L155.931 130.153L154.881 131.972" stroke="black" stroke-width="1.5"/>
</g>
<g clip-path="url(#clip16_2498_559)">
<path d="M17.3572 15.9828C17.2604 15.6218 17.0243 15.3139 16.7005 15.127C16.3768 14.9401 15.9921 14.8893 15.631 14.986C15.2699 15.0827 14.962 15.3189 14.7751 15.6426C14.5881 15.9663 14.5375 16.351 14.6341 16.7121L17.0781 25.8285C17.1202 25.9869 17.2007 26.1325 17.3125 26.2525L18.8667 27.9125C18.8977 27.9454 18.937 27.9692 18.9804 27.9814C19.0239 27.9937 19.0698 27.994 19.1134 27.9823C19.157 27.9706 19.1966 27.9473 19.228 27.9149C19.2594 27.8825 19.2814 27.8422 19.2918 27.7983L19.8085 25.5833C19.8456 25.4239 19.8428 25.2578 19.8008 25.0997L17.3572 15.9828Z" stroke="black" stroke-width="1.33" stroke-linecap="round" stroke-linejoin="round"/>
<path d="M14.8457 17.5202L17.5778 16.7882" stroke="black" stroke-width="1.33" stroke-linecap="round" stroke-linejoin="round"/>
<path d="M12.638 20.4161L11.772 19.9161" stroke="black" stroke-width="1.2" stroke-linecap="round" stroke-linejoin="round"/>
<path d="M22.1646 22.2426L23.0306 22.7426" stroke="black" stroke-width="1.2" stroke-linecap="round" stroke-linejoin="round"/>
<path d="M13.2361 25.3802L13.7361 24.5142" stroke="black" stroke-width="1.2" stroke-linecap="round" stroke-linejoin="round"/>
<path d="M21.5664 17.2784L21.0664 18.1445" stroke="black" stroke-width="1.2" stroke-linecap="round" stroke-linejoin="round"/>
<path d="M12.504 22.6482L11.1379 23.0142" stroke="black" stroke-width="1.2" stroke-linecap="round" stroke-linejoin="round"/>
<path d="M22.2986 20.0105L23.6646 19.6445" stroke="black" stroke-width="1.2" stroke-linecap="round" stroke-linejoin="round"/>
</g>
<g clip-path="url(#clip17_2498_559)">
<path d="M43.0586 32.6542L43.2906 36.2523L40.0586 37.8504" stroke="black" stroke-width="1.5"/>
<path d="M40.5764 32.9532L40.6924 34.7523L39.0764 35.5513" stroke="black" stroke-width="1.5"/>
<path d="M37.2114 33.7817L36.1614 35.6004C34.3696 34.5659 33.6231 34.1349 31.8313 33.1004L32.1313 32.5808L38.8614 30.9239L39.1614 30.4042L34.8313 27.9042L33.7813 29.7229" stroke="black" stroke-width="1.5"/>
</g>
<g clip-path="url(#clip18_2498_559)">
<path d="M61.879 40.0562L58.8375 42.775C58.6818 42.9141 58.4956 43.0148 58.2939 43.0688C58.0923 43.1228 57.8807 43.1288 57.6763 43.0861L53.6829 42.2523L56.4017 45.2939C56.5408 45.4495 56.6415 45.6357 56.6955 45.8374C56.7495 46.0391 56.7555 46.2506 56.7128 46.455L55.879 50.4485L58.9206 47.7296C59.0762 47.5905 59.2624 47.4899 59.4641 47.4358C59.6658 47.3818 59.8773 47.3759 60.0817 47.4185L64.0752 48.2523L61.3564 45.2107C61.2172 45.0551 61.1166 44.8689 61.0625 44.6672C61.0085 44.4656 61.0026 44.254 61.0452 44.0496L61.879 40.0562Z" fill="black" fill-opacity="0.15" stroke="black" stroke-width="1.42857" stroke-linecap="round" stroke-linejoin="round"/>
<path d="M57.8376 37.7228L56.5042 40.0322M56.0162 38.2109L58.3256 39.5442" stroke="black" stroke-opacity="0.75" stroke-width="1.42857" stroke-linecap="round" stroke-linejoin="round"/>
<path d="M61.2538 50.4724L59.9205 52.7818M59.4325 50.9604L61.7419 52.2937" stroke="black" stroke-opacity="0.75" stroke-width="1.42857" stroke-linecap="round" stroke-linejoin="round"/>
</g>
<g clip-path="url(#clip19_2498_559)">
<mask id="mask4_2498_559" style="mask-type:luminance" maskUnits="userSpaceOnUse" x="68" y="46" width="23" height="23">
<path d="M90.5918 54.3241L76.7354 46.3241L68.7354 60.1805L82.5918 68.1805L90.5918 54.3241Z" fill="white"/>
</mask>
<g mask="url(#mask4_2498_559)">
<path d="M81.8116 59.5317L80.7616 61.3503C78.6114 60.1089 77.7156 59.5917 75.5654 58.3503L75.8654 57.8307L83.4616 56.6738L83.7616 56.1542L78.5654 53.1542L77.5154 54.9728" stroke="black" stroke-width="1.5"/>
<path d="M75.2844 51.8372L77.2844 48.3731L80.3155 50.1231" stroke="black" stroke-opacity="0.5" stroke-width="1.5"/>
<path d="M86.5428 58.3372L88.5428 54.8731L85.5117 53.1231" stroke="black" stroke-opacity="0.5" stroke-width="1.5"/>
<path d="M72.7844 56.1674L70.7844 59.6315L73.8155 61.3815" stroke="black" stroke-opacity="0.5" stroke-width="1.5"/>
<path d="M84.0428 62.6674L82.0428 66.1315L79.0117 64.3815" stroke="black" stroke-opacity="0.5" stroke-width="1.5"/>
</g>
</g>
<g clip-path="url(#clip20_2498_559)">
<path d="M100.496 63.9828C100.399 63.6218 100.163 63.3139 99.839 63.127C99.5152 62.9401 99.1305 62.8893 98.7694 62.986C98.4083 63.0827 98.1005 63.3189 97.9135 63.6426C97.7266 63.9663 97.6759 64.351 97.7726 64.7121L100.217 73.8285C100.259 73.9869 100.339 74.1325 100.451 74.2525L102.005 75.9125C102.036 75.9454 102.075 75.9692 102.119 75.9814C102.162 75.9937 102.208 75.994 102.252 75.9823C102.295 75.9706 102.335 75.9473 102.366 75.9149C102.398 75.8825 102.42 75.8422 102.43 75.7983L102.947 73.5833C102.984 73.4239 102.981 73.2578 102.939 73.0997L100.496 63.9828Z" stroke="black" stroke-width="1.33" stroke-linecap="round" stroke-linejoin="round"/>
<path d="M97.9841 65.5202L100.716 64.7882" stroke="black" stroke-width="1.33" stroke-linecap="round" stroke-linejoin="round"/>
<path d="M95.7764 68.4161L94.9104 67.9161" stroke="black" stroke-width="1.2" stroke-linecap="round" stroke-linejoin="round"/>
<path d="M105.303 70.2426L106.169 70.7426" stroke="black" stroke-width="1.2" stroke-linecap="round" stroke-linejoin="round"/>
<path d="M96.3745 73.3802L96.8745 72.5142" stroke="black" stroke-width="1.2" stroke-linecap="round" stroke-linejoin="round"/>
<path d="M104.705 65.2784L104.205 66.1445" stroke="black" stroke-width="1.2" stroke-linecap="round" stroke-linejoin="round"/>
<path d="M95.6424 70.6482L94.2764 71.0142" stroke="black" stroke-width="1.2" stroke-linecap="round" stroke-linejoin="round"/>
<path d="M105.437 68.0105L106.803 67.6445" stroke="black" stroke-width="1.2" stroke-linecap="round" stroke-linejoin="round"/>
</g>
<g clip-path="url(#clip21_2498_559)">
<path d="M126.197 80.6542L126.429 84.2523L123.197 85.8504" stroke="black" stroke-width="1.5"/>
<path d="M123.715 80.9532L123.831 82.7523L122.215 83.5513" stroke="black" stroke-width="1.5"/>
<path d="M120.35 81.7817L119.3 83.6004C117.508 82.5659 116.762 82.1349 114.97 81.1004L115.27 80.5808L122 78.9239L122.3 78.4042L117.97 75.9042L116.92 77.7229" stroke="black" stroke-width="1.5"/>
</g>
<g clip-path="url(#clip22_2498_559)">
<path d="M145.017 88.0562L141.976 90.775C141.82 90.9141 141.634 91.0148 141.432 91.0688C141.231 91.1228 141.019 91.1288 140.815 91.0861L136.821 90.2523L139.54 93.2939C139.679 93.4495 139.78 93.6357 139.834 93.8374C139.888 94.0391 139.894 94.2506 139.851 94.455L139.017 98.4485L142.059 95.7296C142.215 95.5905 142.401 95.4899 142.603 95.4358C142.804 95.3818 143.016 95.3759 143.22 95.4185L147.214 96.2523L144.495 93.2107C144.356 93.0551 144.255 92.8689 144.201 92.6672C144.147 92.4656 144.141 92.254 144.184 92.0496L145.017 88.0562Z" fill="black" fill-opacity="0.15" stroke="black" stroke-width="1.42857" stroke-linecap="round" stroke-linejoin="round"/>
<path d="M140.976 85.7228L139.643 88.0322M139.155 86.2109L141.464 87.5442" stroke="black" stroke-opacity="0.75" stroke-width="1.42857" stroke-linecap="round" stroke-linejoin="round"/>
<path d="M144.392 98.4724L143.059 100.782M142.571 98.9604L144.88 100.294" stroke="black" stroke-opacity="0.75" stroke-width="1.42857" stroke-linecap="round" stroke-linejoin="round"/>
</g>
<g clip-path="url(#clip23_2498_559)">
<mask id="mask5_2498_559" style="mask-type:luminance" maskUnits="userSpaceOnUse" x="151" y="94" width="23" height="23">
<path d="M173.73 102.324L159.874 94.3241L151.874 108.181L165.73 116.181L173.73 102.324Z" fill="white"/>
</mask>
<g mask="url(#mask5_2498_559)">
<path d="M164.95 107.532L163.9 109.35C161.75 108.109 160.854 107.592 158.704 106.35L159.004 105.831L166.6 104.674L166.9 104.154L161.704 101.154L160.654 102.973" stroke="black" stroke-width="1.5"/>
<path d="M158.423 99.8372L160.423 96.3731L163.454 98.1231" stroke="black" stroke-opacity="0.5" stroke-width="1.5"/>
<path d="M169.681 106.337L171.681 102.873L168.65 101.123" stroke="black" stroke-opacity="0.5" stroke-width="1.5"/>
<path d="M155.923 104.167L153.923 107.631L156.954 109.381" stroke="black" stroke-opacity="0.5" stroke-width="1.5"/>
<path d="M167.181 110.667L165.181 114.131L162.15 112.381" stroke="black" stroke-opacity="0.5" stroke-width="1.5"/>
</g>
</g>
</g>
<defs>
<clipPath id="clip0_2498_559">
<rect width="180" height="154" fill="white"/>
</clipPath>
<clipPath id="clip1_2498_559">
<rect width="16" height="16" fill="white" transform="translate(38.7739 -7.92462) rotate(30)"/>
</clipPath>
<clipPath id="clip2_2498_559">
<rect width="16" height="16" fill="white" transform="translate(51.5586 17.9318) rotate(-60)"/>
</clipPath>
<clipPath id="clip3_2498_559">
<rect width="16" height="16" fill="white" transform="translate(80.3433 16.0754) rotate(30)"/>
</clipPath>
<clipPath id="clip4_2498_559">
<rect width="16" height="16" fill="white" transform="translate(101.128 28.0754) rotate(30)"/>
</clipPath>
<clipPath id="clip5_2498_559">
<rect width="16" height="16" fill="white" transform="translate(121.912 40.0754) rotate(30)"/>
</clipPath>
<clipPath id="clip6_2498_559">
<rect width="16" height="16" fill="white" transform="translate(142.697 52.0754) rotate(30)"/>
</clipPath>
<clipPath id="clip7_2498_559">
<rect width="16" height="16" fill="white" transform="translate(155.482 77.9318) rotate(-60)"/>
</clipPath>
<clipPath id="clip8_2498_559">
<rect width="16" height="16" fill="white" transform="translate(10.7739 40.5728) rotate(30)"/>
</clipPath>
<clipPath id="clip9_2498_559">
<rect width="16" height="16" fill="white" transform="translate(31.5586 52.5728) rotate(30)"/>
</clipPath>
<clipPath id="clip10_2498_559">
<rect width="16" height="16" fill="white" transform="translate(44.3433 78.4292) rotate(-60)"/>
</clipPath>
<clipPath id="clip11_2498_559">
<rect width="16" height="16" fill="white" transform="translate(73.1277 76.5728) rotate(30)"/>
</clipPath>
<clipPath id="clip12_2498_559">
<rect width="16" height="16" fill="white" transform="translate(93.9124 88.5728) rotate(30)"/>
</clipPath>
<clipPath id="clip13_2498_559">
<rect width="16" height="16" fill="white" transform="translate(114.697 100.573) rotate(30)"/>
</clipPath>
<clipPath id="clip14_2498_559">
<rect width="16" height="16" fill="white" transform="translate(127.482 126.429) rotate(-60)"/>
</clipPath>
<clipPath id="clip15_2498_559">
<rect width="16" height="16" fill="white" transform="translate(156.266 124.573) rotate(30)"/>
</clipPath>
<clipPath id="clip16_2498_559">
<rect width="16" height="16" fill="white" transform="translate(6.38159 24.1805) rotate(-60)"/>
</clipPath>
<clipPath id="clip17_2498_559">
<rect width="16" height="16" fill="white" transform="translate(35.1663 22.3241) rotate(30)"/>
</clipPath>
<clipPath id="clip18_2498_559">
<rect width="16" height="16" fill="white" transform="translate(55.9509 34.3241) rotate(30)"/>
</clipPath>
<clipPath id="clip19_2498_559">
<rect width="16" height="16" fill="white" transform="translate(76.7354 46.3241) rotate(30)"/>
</clipPath>
<clipPath id="clip20_2498_559">
<rect width="16" height="16" fill="white" transform="translate(89.52 72.1805) rotate(-60)"/>
</clipPath>
<clipPath id="clip21_2498_559">
<rect width="16" height="16" fill="white" transform="translate(118.305 70.3241) rotate(30)"/>
</clipPath>
<clipPath id="clip22_2498_559">
<rect width="16" height="16" fill="white" transform="translate(139.089 82.3241) rotate(30)"/>
</clipPath>
<clipPath id="clip23_2498_559">
<rect width="16" height="16" fill="white" transform="translate(159.874 94.3241) rotate(30)"/>
</clipPath>
</defs>
</svg>
