<svg width="21" height="21" viewBox="0 0 21 21" fill="none" xmlns="http://www.w3.org/2000/svg">
<g clip-path="url(#clip0_460_1758)" filter="url(#filter0_d_460_1758)">
<path fill-rule="evenodd" clip-rule="evenodd" d="M6.53471 10.9653C6.40877 11.2268 6.29908 11.4479 6.19486 11.6718C5.6733 12.7932 5.24127 13.9457 5.0183 15.1667C4.89424 15.8457 4.82642 16.5298 5.00377 17.2115C5.15611 17.7973 5.47314 18.0981 6.01549 18.1229C6.25283 18.134 6.50111 18.0837 6.73221 18.0186C7.34408 17.8453 7.87643 17.5106 8.39127 17.1481C8.51627 17.06 8.64408 17.005 8.80002 17.0629C9.07627 17.1657 9.17627 17.532 8.9433 17.7059C8.10252 18.3323 7.21267 18.8725 6.12314 18.9059C5.2308 18.9334 4.58486 18.4548 4.30017 17.6042C4.08767 16.9695 4.07517 16.3167 4.15314 15.6617C4.38471 13.712 5.13721 11.9406 6.0408 10.2234C6.11846 10.0759 6.12314 9.95871 6.06814 9.80106C5.84252 9.15309 5.63267 8.49949 5.42658 7.84496C5.38752 7.7209 5.34752 7.68559 5.21283 7.71512C4.32752 7.90981 3.45533 8.14746 2.67002 8.61262C2.36674 8.79231 2.0758 9.01543 1.8333 9.27012C1.43002 9.69356 1.42236 10.1622 1.75189 10.6456C2.03939 11.0676 2.44455 11.3562 2.87205 11.617C3.0058 11.6989 3.14689 11.7686 3.28158 11.8489C3.47736 11.9659 3.54439 12.1928 3.44392 12.3815C3.34314 12.5704 3.11705 12.6453 2.91174 12.5396C2.31111 12.2309 1.75096 11.8645 1.30174 11.3504C1.02642 11.0354 0.824706 10.6814 0.757987 10.2617C0.674862 9.73825 0.824862 9.27699 1.13924 8.86262C1.46346 8.43559 1.88924 8.1309 2.35408 7.87778C3.17846 7.42887 4.06674 7.16075 4.97924 6.96309C5.04174 6.94949 5.10361 6.93262 5.1883 6.91153C5.14533 6.66809 5.09924 6.43184 5.06236 6.19387C4.91283 5.22606 4.84392 4.25746 5.08158 3.29278C5.17564 2.91121 5.3233 2.55059 5.58017 2.24668C6.10455 1.62684 6.77892 1.48887 7.53518 1.67356C8.28268 1.85621 8.91033 2.27012 9.49564 2.75184C9.66127 2.88809 9.6658 3.13418 9.53064 3.29278C9.39268 3.45449 9.17814 3.47559 8.99033 3.34762C8.69533 3.14684 8.40846 2.93231 8.10189 2.7509C7.75064 2.54324 7.37346 2.3959 6.95314 2.39387C6.60596 2.39215 6.33611 2.5334 6.1383 2.81465C5.88767 3.17137 5.79814 3.58293 5.7508 4.00496C5.65064 4.89762 5.76955 5.77512 5.94346 6.6484C5.96205 6.74121 5.99767 6.77403 6.09533 6.76418C6.80002 6.69387 7.50486 6.62371 8.21064 6.56481C8.36408 6.55215 8.46424 6.49668 8.55939 6.37637C9.47658 5.21778 10.482 4.14496 11.6649 3.24981C12.3238 2.75121 13.02 2.31653 13.8211 2.07918C14.323 1.93059 14.831 1.87559 15.3364 2.05324C15.9677 2.27512 16.3205 2.75481 16.5024 3.37387C16.6952 4.03106 16.665 4.70106 16.5867 5.3709C16.5653 5.5425 16.5378 5.71329 16.5042 5.88293C16.4603 6.11387 16.2891 6.23621 16.0585 6.20934C15.8488 6.18496 15.7119 6.01637 15.7339 5.78231C15.7644 5.45949 15.838 5.1384 15.8413 4.81621C15.8452 4.43496 15.837 4.04387 15.7577 3.67356C15.5922 2.90356 15.0595 2.60153 14.2716 2.77528C13.6805 2.90543 13.1563 3.18356 12.6572 3.51246C11.632 4.18809 10.7569 5.03293 9.94439 5.94637C9.7933 6.11621 9.64799 6.29137 9.50111 6.46481C9.49221 6.47512 9.49283 6.49356 9.48158 6.53746H9.69424C11.7866 6.55856 13.8481 6.80731 15.8628 7.38715C16.8222 7.6634 17.7483 8.0234 18.6005 8.55356C19.0539 8.83559 19.4702 9.16199 19.7994 9.58793C20.4708 10.4567 20.4144 11.432 19.642 12.21C19.1205 12.7354 18.4781 13.0673 17.7939 13.3251C17.6003 13.3978 17.3872 13.2911 17.3131 13.1056C17.2317 12.9018 17.32 12.6911 17.5272 12.5906C17.8431 12.4375 18.1717 12.3048 18.4705 12.1229C18.7201 11.9716 18.9485 11.7878 19.1497 11.5762C19.568 11.1311 19.5835 10.6445 19.2288 10.1464C18.9631 9.77324 18.6063 9.50043 18.2225 9.26199C17.2756 8.67356 16.2366 8.30903 15.1667 8.0245C14.0514 7.72778 12.9183 7.52074 11.7675 7.43887C10.8505 7.37371 9.93017 7.35496 9.01143 7.31137C8.87877 7.30496 8.78814 7.34418 8.71439 7.45793C8.1758 8.28856 7.63111 9.11528 7.09533 9.94778C7.05627 10.0084 7.03971 10.1175 7.06643 10.1817C7.97346 12.3401 9.12221 14.3548 10.6446 16.1434C11.2855 16.8961 11.9825 17.5922 12.8289 18.1189C13.2261 18.3659 13.6406 18.572 14.1214 18.604C14.557 18.6334 14.8749 18.4511 15.0911 18.0814C15.2949 17.7331 15.3766 17.3478 15.4131 16.9518C15.5313 15.6742 15.2786 14.4418 14.9436 13.2221C14.6005 11.9728 14.1149 10.7762 13.5585 9.60715C13.5136 9.51309 13.4769 9.40137 13.4817 9.30012C13.4906 9.1159 13.636 8.98481 13.8177 8.95637C13.9774 8.93137 14.1455 9.01918 14.2253 9.19043C14.4244 9.61668 14.6264 10.0422 14.8088 10.4757C15.3716 11.815 15.8247 13.189 16.0641 14.6262C16.2311 15.6293 16.311 16.6361 16.0791 17.6409C16.0263 17.8671 15.951 18.0875 15.8542 18.2987C15.4594 19.1618 14.6588 19.5518 13.7311 19.349C12.9769 19.1839 12.3403 18.7898 11.7464 18.319C10.6541 17.4532 9.76783 16.3976 8.96627 15.2667C8.05252 13.9784 7.2808 12.6084 6.63424 11.1676C6.61002 11.114 6.58221 11.062 6.53471 10.9653ZM6.13971 7.53559L6.63908 9.12371C7.03361 8.52153 7.40142 7.96028 7.79705 7.35606L6.13971 7.53559ZM10.5731 11.6353C9.94549 11.6345 9.43471 11.1257 9.43596 10.5026C9.43705 9.86949 9.94721 9.36496 10.5853 9.36512C11.2125 9.36543 11.7222 9.87371 11.7227 10.4987C11.723 11.1311 11.2122 11.6361 10.5731 11.6353Z" fill="#AAAFBB"/>
</g>
<defs>
<filter id="filter0_d_460_1758" x="0.5" y="0.5" width="20" height="21.25" filterUnits="userSpaceOnUse" color-interpolation-filters="sRGB">
<feFlood flood-opacity="0" result="BackgroundImageFix"/>
<feColorMatrix in="SourceAlpha" type="matrix" values="0 0 0 0 0 0 0 0 0 0 0 0 0 0 0 0 0 0 127 0" result="hardAlpha"/>
<feOffset dy="1.25"/>
<feComposite in2="hardAlpha" operator="out"/>
<feColorMatrix type="matrix" values="0 0 0 0 0 0 0 0 0 0 0 0 0 0 0 0 0 0 0.16 0"/>
<feBlend mode="normal" in2="BackgroundImageFix" result="effect1_dropShadow_460_1758"/>
<feBlend mode="normal" in="SourceGraphic" in2="effect1_dropShadow_460_1758" result="shape"/>
</filter>
<clipPath id="clip0_460_1758">
<rect width="20" height="20" fill="white" transform="translate(0.5 0.5)"/>
</clipPath>
</defs>
</svg>
