<svg xmlns="http://www.w3.org/2000/svg" width="262" height="102" fill="none"><path stroke="#c6cad0" d="M.5.5h260.43v100.173H.5z" opacity=".2"/><path fill="#c6cad0" fill-opacity=".1" stroke="#c6cad0" d="M6.5 6.5h248.43v88.173H6.5z"/><path stroke="#c6cad0" stroke-linejoin="round" stroke-width=".6" d="M29.521 28.106c-.887 0-1.605.72-1.605 1.606v35.326h-3.212V29.712a4.817 4.817 0 0 1 4.817-4.817h43.023c2.146 0 3.22 2.594 1.703 4.111L47.75 55.504h7.464v-3.312h3.212v4.115a2.41 2.41 0 0 1-2.409 2.409H44.538l-5.52 5.52h25.027V44.164h3.211v20.072a3.21 3.21 0 0 1-3.211 3.211H35.806l-5.62 5.62h41.085c.887 0 1.605-.719 1.605-1.606V36.135h3.212V71.46a4.817 4.817 0 0 1-4.817 4.818H28.248c-2.146 0-3.22-2.595-1.703-4.112l26.397-26.398H45.58v3.212h-3.212v-4.014a2.41 2.41 0 0 1 2.409-2.41h11.378l5.62-5.62H36.747V57.01h-3.211V36.938a3.21 3.21 0 0 1 3.211-3.212h28.239l5.62-5.62z" clip-rule="evenodd"/><path fill="#c6cad0" d="M158.719 45.586q-1.204 0-2.08-.401a4.7 4.7 0 0 1-1.471-1.1l.802-.698q.55.58 1.203.892.654.312 1.575.312.892 0 1.456-.312.58-.327.58-1.01a.9.9 0 0 0-.119-.49.8.8 0 0 0-.297-.328 1.5 1.5 0 0 0-.431-.178 4 4 0 0 0-.505-.119l-1.204-.178q-.4-.06-.876-.163a3 3 0 0 1-.847-.327 2.2 2.2 0 0 1-.654-.624q-.252-.387-.252-1.01 0-.58.222-.996.238-.43.654-.713.416-.297.981-.431a4.8 4.8 0 0 1 1.233-.149q1.04 0 1.798.327.772.327 1.322.907l-.773.728a2.2 2.2 0 0 0-.341-.327 1.8 1.8 0 0 0-.491-.312 2.8 2.8 0 0 0-.668-.238 4 4 0 0 0-.892-.09q-.906 0-1.396.313-.476.312-.476.906 0 .297.104.505.12.194.312.312.194.12.431.193.253.06.505.104l1.204.179q.415.06.876.163t.847.342q.387.222.639.609.267.386.267 1.01 0 1.144-.891 1.768-.876.624-2.347.624M150.256 45.586q-1.203 0-2.08-.401a4.7 4.7 0 0 1-1.471-1.1l.802-.698a4.1 4.1 0 0 0 1.204.892q.653.312 1.574.312.892 0 1.456-.312.58-.327.58-1.01a.9.9 0 0 0-.119-.49.8.8 0 0 0-.297-.328 1.5 1.5 0 0 0-.431-.178 4 4 0 0 0-.505-.119l-1.204-.178q-.4-.06-.876-.163a3 3 0 0 1-.847-.327 2.2 2.2 0 0 1-.654-.624q-.252-.387-.252-1.01 0-.58.223-.996.237-.43.653-.713.417-.297.981-.431a4.8 4.8 0 0 1 1.233-.149q1.04 0 1.798.327.773.327 1.322.907l-.773.728a2.2 2.2 0 0 0-.341-.327 1.8 1.8 0 0 0-.491-.312 2.8 2.8 0 0 0-.668-.238 4 4 0 0 0-.892-.09q-.906 0-1.396.313-.475.312-.475.906 0 .297.104.505a.94.94 0 0 0 .312.312q.192.12.43.193.253.06.506.104l1.203.179q.416.06.876.163.462.104.847.342.387.222.639.609.268.386.268 1.01 0 1.144-.892 1.768-.876.624-2.347.624M141.838 45.586a3.8 3.8 0 0 1-1.501-.282 3.3 3.3 0 0 1-1.129-.802 3.8 3.8 0 0 1-.713-1.263 5.1 5.1 0 0 1-.253-1.65q0-.92.253-1.663.267-.744.728-1.263a3.1 3.1 0 0 1 1.099-.817 3.6 3.6 0 0 1 1.441-.283q.773 0 1.397.283.638.282 1.085.787.445.49.683 1.174.237.683.238 1.5v.565h-5.676v.356q0 .506.164.936.163.431.46.743.312.313.743.49.446.165.981.164.772 0 1.337-.357.564-.356.862-.98l.876.594q-.342.773-1.144 1.278-.788.49-1.931.49m-.075-7.042a2.28 2.28 0 0 0-1.634.669 2.4 2.4 0 0 0-.475.742 2.5 2.5 0 0 0-.164.922v.103h4.398v-.163q0-.506-.163-.921a2 2 0 0 0-.431-.713 1.7 1.7 0 0 0-.669-.476 2.2 2.2 0 0 0-.862-.163M130.24 45.408v-7.666h1.189v1.248h.059q.12-.283.297-.535.179-.268.431-.46.268-.195.624-.313.357-.119.832-.119 1.203 0 1.932.773.728.758.728 2.154v4.918h-1.189v-4.71q0-1.055-.461-1.56-.46-.52-1.352-.52-.356 0-.698.09-.342.088-.609.267a1.4 1.4 0 0 0-.431.46 1.3 1.3 0 0 0-.163.654v5.319zM125.254 36.048q-.52 0-.728-.208a.77.77 0 0 1-.208-.55v-.237q0-.328.208-.535.208-.223.728-.223t.728.223a.72.72 0 0 1 .208.535v.237a.77.77 0 0 1-.208.55q-.208.208-.728.208m-3.358 8.35h2.764v-5.646h-2.764v-1.01h3.952v6.656h2.585v1.01h-6.537zM116.405 45.586q-1.203 0-2.08-.401a4.7 4.7 0 0 1-1.471-1.1l.803-.698q.549.58 1.203.892t1.575.312q.89 0 1.456-.312.579-.327.579-1.01a.9.9 0 0 0-.119-.49.8.8 0 0 0-.297-.328 1.5 1.5 0 0 0-.431-.178 4 4 0 0 0-.505-.119l-1.203-.178q-.402-.06-.877-.163a3 3 0 0 1-.847-.327 2.2 2.2 0 0 1-.653-.624q-.253-.387-.253-1.01 0-.58.223-.996.237-.43.654-.713.416-.297.98-.431a4.9 4.9 0 0 1 1.233-.149q1.04 0 1.798.327.773.327 1.322.907l-.772.728a2.2 2.2 0 0 0-.342-.327 1.8 1.8 0 0 0-.49-.312 2.8 2.8 0 0 0-.669-.238 4 4 0 0 0-.891-.09q-.906 0-1.397.313-.475.312-.475.906 0 .297.104.505a.94.94 0 0 0 .312.312q.193.12.431.193.252.06.505.104l1.203.179q.417.06.877.163t.847.342q.386.222.638.609.268.386.268 1.01 0 1.144-.892 1.768-.876.624-2.347.624M109.666 44.16h-.06a3.3 3.3 0 0 1-.297.55 1.9 1.9 0 0 1-.446.445 2 2 0 0 1-.609.312q-.356.12-.832.12-1.203 0-1.931-.759-.728-.772-.728-2.169v-4.917h1.188v4.71q0 1.054.461 1.574.46.505 1.352.505.357 0 .698-.089a2 2 0 0 0 .609-.267q.268-.18.431-.446.164-.282.164-.669v-5.318h1.188v7.666h-1.188zM96.24 35.038h3.522q1.337 0 2.095.728t.758 1.946q0 .936-.461 1.47a2.4 2.4 0 0 1-1.159.758v.045q.876.208 1.441.788.565.564.565 1.649 0 .624-.208 1.173a2.8 2.8 0 0 1-.594.951 2.8 2.8 0 0 1-.892.639 2.7 2.7 0 0 1-1.099.223h-3.967zm3.596 9.285q.862 0 1.352-.386.49-.387.491-1.189v-.609q0-.787-.491-1.173-.49-.401-1.352-.401H97.49v3.758zm-.208-4.784q.788 0 1.233-.341.447-.357.446-1.07v-.58q0-.712-.446-1.07-.445-.356-1.233-.356h-2.14v3.417z"/><path fill="#c6cad0" d="M168.622 63.953h-.044q-.446.907-1.085 1.456-.624.535-1.634.535-1.16 0-1.783-.743-.609-.743-.609-2.228 0-.773.178-1.65a6.1 6.1 0 0 1 .609-1.649 3.8 3.8 0 0 1 1.13-1.248q.698-.505 1.708-.505.847 0 1.412.386.579.372.832 1.13h.044l.788-4.666h1.158l-1.842 10.995h-1.159zm-2.362.966a2.4 2.4 0 0 0 .936-.193q.46-.209.862-.654.297-.327.52-.773.237-.446.327-.98l.282-1.694q.133-.802-.386-1.233-.506-.446-1.367-.446-1.114 0-1.753.669-.624.668-.803 1.738l-.178 1.07q-.03.207-.044.371-.015.15-.015.297 0 .863.401 1.352.415.476 1.218.476M158.288 65.944q-1.457 0-2.244-.802-.787-.818-.787-2.481 0-1.041.312-1.902a4.5 4.5 0 0 1 .862-1.5 3.8 3.8 0 0 1 1.337-.981 4.1 4.1 0 0 1 1.708-.357q.565 0 1.04.134t.817.401q.357.252.55.639.193.386.193.891 0 .402-.193.832-.178.431-.772.803-.58.37-1.694.624-1.1.252-2.927.297-.015.118-.015.222v.12q0 .4.075.772.074.371.282.669.208.282.579.46.372.163.981.163.416 0 .743-.089.34-.103.638-.297.313-.207.595-.52.297-.327.624-.787l.817.505q-.654 1.07-1.486 1.634-.817.55-2.035.55m1.084-7.057q-1.158 0-1.886.698-.729.699-.892 2.006l-.015.148q1.397-.045 2.244-.208.861-.177 1.307-.416.46-.237.609-.52.149-.282.149-.564 0-.238-.089-.446a.8.8 0 0 0-.253-.356 1.2 1.2 0 0 0-.475-.253 2.4 2.4 0 0 0-.699-.09M149.261 65.944q-.52 0-.818-.282-.282-.282-.282-.818v-.282q.015-.178.045-.297l.891-5.17h-2.214l.164-.996h1.56q.386 0 .564-.148.193-.164.268-.55l.342-2.006h1.099l-.461 2.704h3.165l-.163.996h-3.165l-.951 5.675.297.178 3.343-2.228.58.743-1.679 1.188q-.52.372-.907.624a6 6 0 0 1-.683.387 2.7 2.7 0 0 1-.535.208q-.237.075-.46.074M142.298 56.39q-.475 0-.668-.177a.55.55 0 0 1-.193-.416q0-.09.014-.194t.045-.237a.8.8 0 0 1 .297-.52q.238-.193.684-.193.475 0 .668.178a.55.55 0 0 1 .193.416q0 .09-.015.193a3 3 0 0 1-.044.238.85.85 0 0 1-.297.535q-.238.177-.684.178m-1.01 9.554q-.565 0-.862-.282a1.04 1.04 0 0 1-.282-.743q0-.15.015-.297.03-.164.059-.297l1.011-5.23h-2.764l.164-.996h3.952l-1.293 6.686.342.134 2.927-2.526.698.654-1.352 1.248q-.52.49-.906.802a7 7 0 0 1-.669.505 2.1 2.1 0 0 1-.55.268 1.6 1.6 0 0 1-.49.074M128.963 65.766l1.277-7.667h1.07l-.193 1.204h.059a3.7 3.7 0 0 1 .639-.98q.387-.402 1.025-.402.654 0 .936.416t.238 1.04h.044q.298-.669.743-1.055.446-.4 1.115-.4.639 0 .965.385.342.372.342 1.085 0 .208-.03.49a8 8 0 0 1-.074.55l-.891 5.334h-1.07l.862-5.14q.044-.269.074-.506.03-.252.03-.416 0-.832-.654-.832a.9.9 0 0 0-.55.178 2 2 0 0 0-.416.416 3 3 0 0 0-.342.654 3.6 3.6 0 0 0-.193.683l-.832 4.963h-1.069l.861-5.14q.09-.536.089-.877 0-.475-.163-.669-.149-.208-.461-.208a.95.95 0 0 0-.564.178 1.6 1.6 0 0 0-.431.416 3 3 0 0 0-.342.654 3.6 3.6 0 0 0-.193.683l-.832 4.963zM125.373 56.39q-.475 0-.669-.177a.55.55 0 0 1-.193-.416q0-.09.015-.194t.045-.237a.78.78 0 0 1 .297-.52q.237-.193.683-.193.475 0 .669.178a.55.55 0 0 1 .193.416q0 .09-.015.193-.015.105-.044.238a.85.85 0 0 1-.298.535q-.237.177-.683.178m-1.01 9.554q-.565 0-.862-.282a1.04 1.04 0 0 1-.282-.743q0-.15.015-.297.029-.164.059-.297l1.01-5.23h-2.763l.163-.996h3.952l-1.292 6.686.341.134 2.927-2.526.699.654-1.352 1.248q-.52.49-.907.802-.37.312-.668.505a2.1 2.1 0 0 1-.55.268 1.6 1.6 0 0 1-.49.074M115.558 65.944q-.609 0-.861-.297-.253-.296-.253-.758v-.238q.015-.133.045-.237l1.664-8.647h-2.704l.163-.996h3.907L115.588 64.8l.371.119 3.046-2.585.669.653-1.545 1.397a20 20 0 0 1-.922.802 7 7 0 0 1-.683.476 2 2 0 0 1-.52.222q-.223.06-.446.06M104.273 65.766l1.278-7.667h1.158l-.297 1.813h.06q.43-.922 1.025-1.456.594-.535 1.53-.535.966 0 1.515.58.565.579.565 1.634 0 .222-.03.49-.014.253-.059.505l-.773 4.636h-1.159l.758-4.532a5 5 0 0 0 .074-.817q0-.684-.312-1.07-.311-.4-.965-.4-.505 0-.906.222a2.7 2.7 0 0 0-.714.61l-.193.237a3 3 0 0 0-.252.386 3.6 3.6 0 0 0-.253.52 3 3 0 0 0-.178.61l-.713 4.234zM98.44 55.395l-.996 5.943q-.075.401-.118.698-.03.283-.06.49a7 7 0 0 0-.044.372v.297q0 .386.074.699t.252.535q.194.207.52.326.327.12.817.12.729 0 1.174-.209.446-.207.713-.609.268-.416.401-1.01.149-.594.283-1.352l1.055-6.3h1.218l-1.01 6.047a19 19 0 0 1-.431 2.006q-.239.847-.639 1.411a2.4 2.4 0 0 1-1.055.818q-.639.267-1.664.267-1.59 0-2.258-.684-.654-.683-.654-1.96 0-.476.074-1.1.09-.624.194-1.233l.936-5.572z" opacity=".6"/><path fill="#c6cad0" d="M240.179 65.152v.073a.79.79 0 0 1-.29.616.79.79 0 0 1-.616.29h-.072a.9.9 0 0 1-.652-.29.84.84 0 0 1-.254-.616v-.073a.96.96 0 0 1 .254-.652.96.96 0 0 1 .652-.253h.072q.363 0 .616.253.29.29.29.652m0 3.623v.073a.79.79 0 0 1-.29.616.79.79 0 0 1-.616.29h-.072a.9.9 0 0 1-.652-.29.84.84 0 0 1-.254-.616v-.073a.96.96 0 0 1 .254-.652.96.96 0 0 1 .652-.253h.072q.363 0 .616.253.29.29.29.652m0 3.623v.073a.79.79 0 0 1-.29.615.79.79 0 0 1-.616.29h-.072a.9.9 0 0 1-.652-.29.84.84 0 0 1-.254-.615v-.073a.96.96 0 0 1 .254-.652.96.96 0 0 1 .652-.254h.072q.363 0 .616.254.29.29.29.652m0 3.623v.073a.79.79 0 0 1-.29.615.79.79 0 0 1-.616.29h-.072a.9.9 0 0 1-.652-.29.84.84 0 0 1-.254-.615v-.073a.96.96 0 0 1 .254-.652.96.96 0 0 1 .652-.254h.072q.363 0 .616.254.29.29.29.652m-3.623-7.246v.073a.79.79 0 0 1-.29.616.79.79 0 0 1-.616.29h-.072a.9.9 0 0 1-.652-.29.84.84 0 0 1-.254-.616v-.073q0-.362.254-.652a.96.96 0 0 1 .652-.253h.072q.363 0 .616.253.29.29.29.652m0 10.869v.072a.79.79 0 0 1-.29.616.79.79 0 0 1-.616.29h-.072q-.363 0-.652-.29a.84.84 0 0 1-.254-.616v-.072q0-.363.254-.652a.96.96 0 0 1 .652-.254h.072q.363 0 .616.254.29.29.29.652m-3.623-10.869v.073a.79.79 0 0 1-.29.616.79.79 0 0 1-.616.29h-.072a.9.9 0 0 1-.652-.29.84.84 0 0 1-.254-.616v-.073q0-.362.254-.652a.96.96 0 0 1 .652-.253h.072q.363 0 .616.253.29.29.29.652m0 10.869v.072a.79.79 0 0 1-.29.616.79.79 0 0 1-.616.29h-.072q-.363 0-.652-.29a.84.84 0 0 1-.254-.616v-.072q0-.363.254-.652a.96.96 0 0 1 .652-.254h.072q.363 0 .616.254.29.29.29.652m-3.623-10.869v.073a.79.79 0 0 1-.29.616.79.79 0 0 1-.615.29h-.073a.9.9 0 0 1-.652-.29.84.84 0 0 1-.254-.616v-.073q0-.362.254-.652a.97.97 0 0 1 .652-.253h.073q.362 0 .615.253.29.29.29.652m0 10.869v.072a.79.79 0 0 1-.29.616.79.79 0 0 1-.615.29h-.073a.9.9 0 0 1-.652-.29.84.84 0 0 1-.254-.616v-.072q0-.363.254-.652a.97.97 0 0 1 .652-.254h.073q.362 0 .615.254.29.29.29.652m-3.623-10.869v.073a.79.79 0 0 1-.289.616.8.8 0 0 1-.616.29h-.073a.9.9 0 0 1-.652-.29.84.84 0 0 1-.254-.616v-.073q0-.362.254-.652a.97.97 0 0 1 .652-.253h.073q.361 0 .616.253a.9.9 0 0 1 .289.652m0 10.869v.072a.79.79 0 0 1-.289.616.8.8 0 0 1-.616.29h-.073a.9.9 0 0 1-.652-.29.84.84 0 0 1-.254-.616v-.072q0-.363.254-.652a.97.97 0 0 1 .652-.254h.073q.361 0 .616.254a.9.9 0 0 1 .289.652m-3.622-10.869v.073a.79.79 0 0 1-.29.616.79.79 0 0 1-.616.29h-.073a.9.9 0 0 1-.652-.29.84.84 0 0 1-.253-.616v-.073q0-.362.253-.652a.97.97 0 0 1 .652-.253h.073a.84.84 0 0 1 .616.253q.29.29.29.652m0 10.869v.072a.79.79 0 0 1-.29.616.79.79 0 0 1-.616.29h-.073a.9.9 0 0 1-.652-.29.84.84 0 0 1-.253-.616v-.072q0-.363.253-.652a.97.97 0 0 1 .652-.254h.073a.84.84 0 0 1 .616.254q.29.29.29.652m-3.623-14.492v.073a.79.79 0 0 1-.29.616.79.79 0 0 1-.616.29h-.073q-.361 0-.652-.29a.84.84 0 0 1-.253-.616v-.073q0-.362.253-.652a.97.97 0 0 1 .652-.253h.073a.84.84 0 0 1 .616.253q.29.29.29.652m0 3.623v.073a.79.79 0 0 1-.29.616.79.79 0 0 1-.616.29h-.073q-.361 0-.652-.29a.84.84 0 0 1-.253-.616v-.073q0-.362.253-.652a.97.97 0 0 1 .652-.253h.073a.84.84 0 0 1 .616.253q.29.29.29.652m0 3.623v.073a.79.79 0 0 1-.29.615.79.79 0 0 1-.616.29h-.073q-.361 0-.652-.29a.84.84 0 0 1-.253-.615v-.073q0-.362.253-.652a.97.97 0 0 1 .652-.254h.073a.84.84 0 0 1 .616.254q.29.29.29.652m0 3.623v.073a.79.79 0 0 1-.29.615.79.79 0 0 1-.616.29h-.073q-.361 0-.652-.29a.84.84 0 0 1-.253-.615v-.073q0-.363.253-.652a.97.97 0 0 1 .652-.254h.073a.84.84 0 0 1 .616.254q.29.29.29.652M240.179 43.43v.072a.79.79 0 0 1-.29.616.79.79 0 0 1-.616.29h-.072a.9.9 0 0 1-.652-.29.84.84 0 0 1-.254-.616v-.073a.96.96 0 0 1 .254-.652.96.96 0 0 1 .652-.253h.072q.363 0 .616.253.29.29.29.652m0 3.622v.073a.79.79 0 0 1-.29.616.79.79 0 0 1-.616.29h-.072a.9.9 0 0 1-.652-.29.84.84 0 0 1-.254-.616v-.073a.96.96 0 0 1 .254-.652.96.96 0 0 1 .652-.253h.072q.363 0 .616.253.29.29.29.652m0 3.623v.073a.79.79 0 0 1-.29.616.79.79 0 0 1-.616.29h-.072a.9.9 0 0 1-.652-.29.84.84 0 0 1-.254-.616v-.073a.96.96 0 0 1 .254-.652.96.96 0 0 1 .652-.254h.072q.363 0 .616.254.29.29.29.652m0 3.623v.072a.79.79 0 0 1-.29.616.79.79 0 0 1-.616.29h-.072a.9.9 0 0 1-.652-.29.84.84 0 0 1-.254-.616v-.072a.96.96 0 0 1 .254-.652.96.96 0 0 1 .652-.254h.072q.363 0 .616.254.29.29.29.652m0 3.623v.072a.79.79 0 0 1-.29.616.79.79 0 0 1-.616.29h-.072a.9.9 0 0 1-.652-.29.84.84 0 0 1-.254-.616v-.072a.96.96 0 0 1 .254-.652.96.96 0 0 1 .652-.254h.072q.363 0 .616.254.29.29.29.652m-3.623-14.492v.073a.79.79 0 0 1-.29.616.79.79 0 0 1-.616.29h-.072a.9.9 0 0 1-.652-.29.84.84 0 0 1-.254-.616v-.073q0-.362.254-.652a.96.96 0 0 1 .652-.253h.072q.363 0 .616.253.29.29.29.652m-3.623 0v.073a.79.79 0 0 1-.29.616.79.79 0 0 1-.616.29h-.072a.9.9 0 0 1-.652-.29.84.84 0 0 1-.254-.616v-.073q0-.362.254-.652a.96.96 0 0 1 .652-.253h.072q.363 0 .616.253.29.29.29.652m-3.623 0v.073a.79.79 0 0 1-.29.616.79.79 0 0 1-.615.29h-.073a.9.9 0 0 1-.652-.29.84.84 0 0 1-.254-.616v-.073q0-.362.254-.652a.97.97 0 0 1 .652-.253h.073q.362 0 .615.253.29.29.29.652m0 3.623v.073a.79.79 0 0 1-.29.616.79.79 0 0 1-.615.29h-.073a.9.9 0 0 1-.652-.29.84.84 0 0 1-.254-.616v-.073q0-.362.254-.652a.97.97 0 0 1 .652-.253h.073q.362 0 .615.253.29.29.29.652m0 3.623v.073a.79.79 0 0 1-.29.616.79.79 0 0 1-.615.29h-.073a.9.9 0 0 1-.652-.29.84.84 0 0 1-.254-.616v-.073q0-.362.254-.652a.97.97 0 0 1 .652-.254h.073q.362 0 .615.254.29.29.29.652m0 3.623v.072a.79.79 0 0 1-.29.616.79.79 0 0 1-.615.29h-.073a.9.9 0 0 1-.652-.29.84.84 0 0 1-.254-.616v-.072q0-.363.254-.652a.97.97 0 0 1 .652-.254h.073q.362 0 .615.254.29.29.29.652m-3.623-10.869v.073a.79.79 0 0 1-.289.616.8.8 0 0 1-.616.29h-.073a.9.9 0 0 1-.652-.29.84.84 0 0 1-.254-.616v-.073q0-.362.254-.652a.97.97 0 0 1 .652-.253h.073q.361 0 .616.253a.9.9 0 0 1 .289.652m-3.622 0v.073a.79.79 0 0 1-.29.616.79.79 0 0 1-.616.29h-.073a.9.9 0 0 1-.652-.29.84.84 0 0 1-.253-.616v-.073q0-.362.253-.652a.97.97 0 0 1 .652-.253h.073a.84.84 0 0 1 .616.253q.29.29.29.652m-3.623 0v.073a.79.79 0 0 1-.29.616.79.79 0 0 1-.616.29h-.073q-.361 0-.652-.29a.84.84 0 0 1-.253-.616v-.073q0-.362.253-.652a.97.97 0 0 1 .652-.253h.073a.84.84 0 0 1 .616.253q.29.29.29.652m0 3.623v.073a.79.79 0 0 1-.29.616.79.79 0 0 1-.616.29h-.073q-.361 0-.652-.29a.84.84 0 0 1-.253-.616v-.073q0-.362.253-.652a.97.97 0 0 1 .652-.253h.073a.84.84 0 0 1 .616.253q.29.29.29.652m0 3.623v.073a.79.79 0 0 1-.29.616.79.79 0 0 1-.616.29h-.073q-.361 0-.652-.29a.84.84 0 0 1-.253-.616v-.073q0-.362.253-.652a.97.97 0 0 1 .652-.254h.073a.84.84 0 0 1 .616.254q.29.29.29.652m0 3.623v.072a.79.79 0 0 1-.29.616.79.79 0 0 1-.616.29h-.073q-.361 0-.652-.29a.84.84 0 0 1-.253-.616v-.072q0-.363.253-.652a.97.97 0 0 1 .652-.254h.073a.84.84 0 0 1 .616.254q.29.29.29.652m0 3.623v.072a.79.79 0 0 1-.29.616.79.79 0 0 1-.616.29h-.073q-.361 0-.652-.29a.84.84 0 0 1-.253-.616v-.072q0-.363.253-.652a.97.97 0 0 1 .652-.254h.073a.84.84 0 0 1 .616.254q.29.29.29.652M240.179 21.706v.073a.79.79 0 0 1-.29.616.79.79 0 0 1-.616.29h-.072a.9.9 0 0 1-.652-.29.84.84 0 0 1-.254-.616v-.073a.96.96 0 0 1 .254-.652.96.96 0 0 1 .652-.253h.072q.363 0 .616.253.29.29.29.652m0 3.623v.073a.79.79 0 0 1-.29.616.79.79 0 0 1-.616.29h-.072a.9.9 0 0 1-.652-.29.84.84 0 0 1-.254-.616v-.073a.96.96 0 0 1 .254-.652.96.96 0 0 1 .652-.253h.072q.363 0 .616.253.29.29.29.652m0 3.623v.073a.79.79 0 0 1-.29.615.79.79 0 0 1-.616.29h-.072a.9.9 0 0 1-.652-.29.84.84 0 0 1-.254-.615v-.073a.96.96 0 0 1 .254-.652.96.96 0 0 1 .652-.254h.072q.363 0 .616.254.29.29.29.652m0 3.623v.072a.79.79 0 0 1-.29.616.79.79 0 0 1-.616.29h-.072a.9.9 0 0 1-.652-.29.84.84 0 0 1-.254-.616v-.072a.96.96 0 0 1 .254-.652.96.96 0 0 1 .652-.254h.072q.363 0 .616.254.29.29.29.652m0 3.623v.072a.79.79 0 0 1-.29.616.79.79 0 0 1-.616.29h-.072a.9.9 0 0 1-.652-.29.84.84 0 0 1-.254-.616v-.072a.96.96 0 0 1 .254-.652.96.96 0 0 1 .652-.254h.072q.363 0 .616.254.29.29.29.652m-3.623 0v.072a.79.79 0 0 1-.29.616.79.79 0 0 1-.616.29h-.072a.9.9 0 0 1-.652-.29.84.84 0 0 1-.254-.616v-.072q0-.364.254-.652a.96.96 0 0 1 .652-.254h.072q.363 0 .616.254.29.29.29.652m-3.623-3.623v.072a.79.79 0 0 1-.29.616.79.79 0 0 1-.616.29h-.072a.9.9 0 0 1-.652-.29.84.84 0 0 1-.254-.616v-.072q0-.363.254-.652a.96.96 0 0 1 .652-.254h.072q.363 0 .616.254.29.29.29.652m-3.623-3.623v.073a.79.79 0 0 1-.29.615.79.79 0 0 1-.615.29h-.073a.9.9 0 0 1-.652-.29.84.84 0 0 1-.254-.615v-.073q0-.362.254-.652a.97.97 0 0 1 .652-.254h.073q.362 0 .615.254.29.29.29.652m-3.623-3.623v.073a.79.79 0 0 1-.289.616.8.8 0 0 1-.616.29h-.073a.9.9 0 0 1-.652-.29.84.84 0 0 1-.254-.616v-.073q0-.362.254-.652a.97.97 0 0 1 .652-.253h.073q.361 0 .616.253a.9.9 0 0 1 .289.652m-3.622-3.623v.073a.79.79 0 0 1-.29.616.79.79 0 0 1-.616.29h-.073a.9.9 0 0 1-.652-.29.84.84 0 0 1-.253-.616v-.073q0-.362.253-.652a.97.97 0 0 1 .652-.253h.073a.84.84 0 0 1 .616.253q.29.29.29.652m-3.623 0v.073a.79.79 0 0 1-.29.616.79.79 0 0 1-.616.29h-.073q-.361 0-.652-.29a.84.84 0 0 1-.253-.616v-.073q0-.362.253-.652a.97.97 0 0 1 .652-.253h.073a.84.84 0 0 1 .616.253q.29.29.29.652m0 3.623v.073a.79.79 0 0 1-.29.616.79.79 0 0 1-.616.29h-.073q-.361 0-.652-.29a.84.84 0 0 1-.253-.616v-.073q0-.362.253-.652a.97.97 0 0 1 .652-.253h.073a.84.84 0 0 1 .616.253q.29.29.29.652m0 3.623v.073a.79.79 0 0 1-.29.615.79.79 0 0 1-.616.29h-.073q-.361 0-.652-.29a.84.84 0 0 1-.253-.615v-.073q0-.362.253-.652a.97.97 0 0 1 .652-.254h.073a.84.84 0 0 1 .616.254q.29.29.29.652m0 3.623v.072a.79.79 0 0 1-.29.616.79.79 0 0 1-.616.29h-.073q-.361 0-.652-.29a.84.84 0 0 1-.253-.616v-.072q0-.363.253-.652a.97.97 0 0 1 .652-.254h.073a.84.84 0 0 1 .616.254q.29.29.29.652m0 3.623v.072a.79.79 0 0 1-.29.616.79.79 0 0 1-.616.29h-.073q-.361 0-.652-.29a.84.84 0 0 1-.253-.616v-.072q0-.364.253-.652a.97.97 0 0 1 .652-.254h.073a.84.84 0 0 1 .616.254q.29.29.29.652"/></svg>
