<svg xmlns="http://www.w3.org/2000/svg" width="51" height="51" fill="none"><path fill="#000" fill-opacity=".3" d="M25.5 3C37.926 3 48 13.074 48 25.5S37.926 48 25.5 48 3 37.926 3 25.5 13.074 3 25.5 3Zm0 3C14.73 6 6 14.73 6 25.5S14.73 45 25.5 45 45 36.27 45 25.5 36.27 6 25.5 6Z"/><circle cx="25.5" cy="25.5" r="22.5" stroke="#000"/><circle cx="25.5" cy="25.5" r="19.5" stroke="#000"/><path fill="#000" fill-rule="evenodd" d="M20.219 19.813a.406.406 0 0 0-.407.406v8.937H19V20.22c0-.673.546-1.219 1.219-1.219h10.884a.61.61 0 0 1 .431 1.04l-6.704 6.704h1.889v-.838h.812v1.041a.61.61 0 0 1-.61.61h-2.903l-1.397 1.396h6.332v-5.078h.813v5.078a.812.812 0 0 1-.813.813H21.81l-1.422 1.422h10.394a.406.406 0 0 0 .407-.407v-8.937H32v8.937c0 .673-.546 1.219-1.219 1.219H19.897a.61.61 0 0 1-.431-1.04l6.678-6.679h-1.863v.813h-.812v-1.016a.61.61 0 0 1 .61-.61h2.878l1.422-1.421h-6.332v5.078h-.813v-5.078c0-.449.364-.813.813-.813h7.144l1.422-1.422H20.219Z" clip-rule="evenodd"/><path fill="#000" d="M38.458 27.016c0-.648.622-1.13 1.464-1.13.836 0 1.464.486 1.464 1.135 0 .334-.168.59-.471.753v.026h1.464v.627H39.45a16 16 0 0 0-.94.037v-.601c.167-.021.313-.032.465-.042v-.027c-.335-.157-.518-.423-.518-.778Zm-.643-6.85 3.058.447-.727-1.511.517-.25 1.073 2.228-.47.227-3.06-.447.79 1.638-.519.25-1.133-2.355.47-.227Zm.683 4.304c-.169-.739.313-1.4 1.153-1.593.826-.188 1.527.183 1.688.886.157.688-.29 1.289-1.1 1.474l-.23.052-.402-1.759c-.441.155-.657.451-.574.818.053.23.2.388.388.41l.133.581c-.51.02-.933-.329-1.056-.869Zm1.85.098c.355-.114.54-.386.471-.687-.067-.295-.34-.458-.73-.444l.26 1.13Zm-1.315 2.594c0 .371.382.649.889.649s.888-.278.889-.649c0-.37-.382-.648-.89-.648-.506 0-.888.277-.888.648Zm-1.977 4.492.518.25-.329.683 2.26 1.089.325-.674.519.25-.933 1.936-.518-.25.325-.674-2.262-1.089-.328.684-.519-.25.942-1.955Zm-2.587 3.598 1.45 1.157c.242.193.484.192.64-.005.196-.245.107-.603-.216-.86l-1.287-1.027.39-.491 2.208 1.76-.375.47-.29-.231-.013.016a.78.78 0 0 1-.119.828c-.322.405-.83.429-1.288.064l-1.492-1.19.392-.49Zm.958-19.193a.784.784 0 1 1 .976-1.227.784.784 0 0 1-.976 1.227ZM32.04 37.022c.12.117.22.225.323.337l.02-.016c-.085-.36.009-.669.287-.89.507-.405 1.271-.218 1.796.44.521.654.532 1.447.025 1.851-.261.209-.566.238-.882.102l-.02.017.913 1.144-.49.392-1.827-2.29a15.93 15.93 0 0 0-.615-.713l.47-.374Zm.874-.029c-.29.232-.268.703.048 1.099.316.397.77.523 1.06.291.29-.231.27-.702-.046-1.099-.317-.396-.772-.522-1.062-.29Zm-3.46 1.101c.07.11.133.215.194.318l.019-.01a.78.78 0 0 1 .467-.694c.466-.224.933-.025 1.187.502l.828 1.72-.565.271-.806-1.672c-.133-.277-.352-.38-.578-.272-.282.136-.358.497-.178.87l.714 1.483-.565.272-.816-1.695c-.116-.24-.28-.545-.442-.832l.541-.261Zm.395-24.455c-.632-.144-.963-.858-.776-1.679.186-.815.8-1.319 1.433-1.175.326.075.538.295.629.626l.025.006.326-1.427.612.14-.652 2.855c-.059.26-.12.6-.174.925l-.585-.133c.016-.168.038-.313.062-.463l-.025-.006c-.228.291-.529.41-.875.33Zm-.163-1.54c-.113.495.072.929.433 1.012.362.082.717-.229.83-.723.113-.494-.073-.928-.434-1.01-.362-.083-.717.228-.83.722Zm-3.46 27.499c-.126-.55.23-1.034.872-1.18.622-.143 1.167.109 1.276.588l-.59.135c-.073-.177-.334-.262-.604-.2-.265.06-.408.232-.36.441.04.178.182.237.48.201l.14-.015c.644-.072 1.003.114 1.109.578.124.545-.198 1.01-.805 1.15-.58.132-1.104-.114-1.231-.578l.571-.13c.062.178.278.257.533.2.26-.06.394-.225.348-.428-.038-.169-.172-.235-.434-.207l-.14.016c-.686.076-1.06-.107-1.165-.571Zm-.146-28.044c0-.847.517-1.448 1.238-1.448.706 0 1.193.57 1.193 1.401v.235h-1.804c.052.465.293.742.669.743.235 0 .424-.11.486-.288h.596c-.094.501-.528.836-1.082.836-.758 0-1.296-.617-1.296-1.479Zm1.804-.304c-.032-.37-.257-.611-.566-.611-.303 0-.522.23-.595.611h1.16Zm-3.727-1.125.5 2.192.765-.175.128.56-2.14.49-.129-.56.765-.176-.372-1.63-.74.167-.127-.56 1.35-.308Zm-1.014 28.402c.156-.074.36-.11.575-.11.669 0 1.02.366 1.02 1.06v1.24h.73v.575h-.73v.78l-.629.109v-.889h-.915v-.575h.915v-1.24c0-.354-.167-.527-.511-.527a1.12 1.12 0 0 0-.455.1v-.523Zm.006-29.036a.474.474 0 0 1 .358-.569c.26-.06.51.098.57.358a.475.475 0 1 1-.928.211Zm-3.358 30.034.632.143c.003.173.123.308.307.35.31.07.596-.17.693-.593l.351-1.539.612.14-.628 2.752-.587-.134.085-.372-.02-.005a.844.844 0 0 1-.812.244c-.449-.102-.694-.486-.633-.986Zm.195-28.295-.015-.033c-.302-.626-.145-1.108.458-1.398.193-.093.392-.15.565-.151l.228.471a1.118 1.118 0 0 0-.453.108c-.311.15-.387.378-.233.698l.016.033.824-.397.25.518-.824.397.975 2.025-.565.273-.976-2.026-.659.318-.25-.518.66-.318Zm-2.438 1.138 1.401 1.758.613-.489.359.45-1.717 1.368-.358-.449.613-.49-1.043-1.307-.593.473-.358-.45 1.083-.864Zm.725 24.532-.706-.341.25-.518 1.978.952-.25.519-.706-.34-.726 1.507.683.33-.25.518-1.247-.602.974-2.025Zm-1.216 3.37a.471.471 0 0 1-.223-.634.475.475 0 1 1 .857.413.474.474 0 0 1-.634.222Zm-3.123-26.1.695.554.57-.716.45.359-.57.715.968.773c.278.221.517.198.732-.072a1.12 1.12 0 0 0 .206-.417l.409.326c-.041.168-.14.35-.273.518-.417.523-.921.568-1.465.135l-.969-.772-.457.572-.449-.359.456-.572-.61-.485.307-.56Zm2.431-1.935a.473.473 0 0 1 .075-.668.471.471 0 0 1 .67.075.477.477 0 0 1-.744.593Zm-1.55 24.734c-.552-.44-.577-1.189-.06-1.839l.147-.184 1.412 1.125c.248-.396.233-.763-.061-.997-.184-.147-.4-.178-.56-.079l-.466-.372c.387-.333.935-.325 1.368.02.592.474.63 1.292.091 1.967-.528.662-1.307.809-1.871.359Zm.272-1.247c-.207.31-.181.638.06.83.236.189.552.146.847-.106l-.907-.724Zm-2.49-1.46c-.372-.466-.377-1.043-.014-1.36l.364.459c-.134.133-.11.363.052.567.166.208.373.257.536.127.135-.108.137-.256-.002-.48l-.075-.12c-.366-.584-.363-1 .009-1.297.441-.352 1.03-.24 1.441.274.398.499.409 1.099.025 1.405l-.378-.475c.127-.141.09-.413-.082-.63-.17-.212-.387-.267-.554-.133-.143.114-.135.268.026.52l.076.12c.344.549.332.953-.04 1.25-.437.348-.996.26-1.384-.227Zm-.353-16.337.345.166.009-.018a.845.845 0 0 1-.058-.846c.2-.415.628-.568 1.103-.398l-.282.584c-.168-.034-.326.052-.408.221-.138.287.033.62.424.808l1.423.685-.273.565-2.544-1.225.261-.542Zm-.223 4.342c-.826-.189-1.298-.827-1.137-1.53.157-.688.821-1.036 1.632-.851l.23.052-.402 1.759c.465.052.788-.12.872-.488.052-.23-.013-.437-.172-.538l.133-.58c.468.203.697.7.574 1.24-.169.74-.89 1.128-1.73.936Zm-2.71 1.802c0-.612.407-1.093.993-1.182v.633a.543.543 0 0 0-.392.543c0 .47.502.774 1.28.774.785 0 1.282-.309 1.282-.79 0-.287-.173-.501-.445-.554v-.632c.612.062 1.046.56 1.046 1.197 0 .847-.769 1.433-1.883 1.433-1.113 0-1.881-.586-1.881-1.422Zm1.347 5.094a.782.782 0 0 1 .59-.938.783.783 0 1 1-.59.938Zm.746-8.308c-.067.295.108.561.464.718l.258-1.132c-.369-.052-.653.113-.722.414Z"/></svg>
