<svg xmlns="http://www.w3.org/2000/svg" width="262" height="102" fill="none"><path stroke="#c6cad0" d="M.5.5h260.43v100.173H.5z" opacity=".2"/><path fill="#c6cad0" fill-opacity=".05" stroke="#c6cad0" stroke-dasharray="4 4" d="M6.5 6.5h248.43v88.173H6.5z"/><path fill="#c6cad0" d="M116.316 45.586q-.802 0-1.456-.282a3.15 3.15 0 0 1-1.099-.802 3.8 3.8 0 0 1-.684-1.263 5.5 5.5 0 0 1-.238-1.664q0-.906.238-1.65t.684-1.262a3.1 3.1 0 0 1 1.099-.817 3.6 3.6 0 0 1 1.456-.283 3.5 3.5 0 0 1 1.441.283q.654.282 1.1.817.46.519.698 1.263t.238 1.649a5.5 5.5 0 0 1-.238 1.664 3.7 3.7 0 0 1-.698 1.263 3 3 0 0 1-1.1.802 3.5 3.5 0 0 1-1.441.282m0-1.025q.995 0 1.605-.594.609-.594.609-1.843v-1.099q0-1.248-.609-1.842-.61-.594-1.605-.594t-1.605.594q-.609.594-.609 1.842v1.1q0 1.247.609 1.842.61.594 1.605.594M104.54 44.398h2.244v-5.646h-2.244v-1.01h3.432v1.931h.074q.238-.907.892-1.411.669-.52 1.694-.52h1.069v1.188h-1.441q-1.025 0-1.664.594-.624.596-.624 1.56v3.313h2.972v1.01h-6.404zM96.27 45.408v-10.37h3.774q1.442 0 2.199.787.758.788.758 2.199t-.758 2.199q-.757.787-2.199.787h-2.525v4.398zm1.249-5.482h2.496q.787 0 1.218-.387.446-.401.446-1.129v-.772q0-.728-.446-1.115-.43-.4-1.218-.4h-2.496z"/><path fill="#c6cad0" d="M168.622 63.953h-.044q-.446.907-1.085 1.456-.624.535-1.634.535-1.16 0-1.783-.743-.609-.743-.609-2.228 0-.773.178-1.65a6.1 6.1 0 0 1 .609-1.649 3.8 3.8 0 0 1 1.129-1.248q.7-.505 1.709-.505.847 0 1.411.386.58.371.832 1.13h.045l.787-4.665h1.159l-1.842 10.994h-1.159zm-2.362.966q.475 0 .936-.193.46-.209.862-.654.297-.327.52-.773.237-.446.327-.98l.282-1.694q.133-.802-.386-1.233-.506-.446-1.367-.446-1.114 0-1.753.669-.624.669-.803 1.738l-.178 1.07q-.03.208-.045.371a3 3 0 0 0-.014.297q0 .863.401 1.352.415.476 1.218.476M158.288 65.944q-1.457 0-2.244-.802-.787-.818-.787-2.481 0-1.041.312-1.902a4.5 4.5 0 0 1 .862-1.5 3.8 3.8 0 0 1 1.337-.981 4.1 4.1 0 0 1 1.708-.357q.565 0 1.04.134t.817.401q.357.252.55.639.193.386.193.891 0 .402-.193.832-.178.431-.772.803-.58.37-1.694.624-1.1.252-2.927.297-.015.118-.015.222v.12q0 .4.074.772.075.371.283.669.207.282.579.46.372.163.981.163.416 0 .743-.089.34-.103.638-.297.312-.207.595-.52.297-.327.624-.787l.817.505q-.654 1.07-1.486 1.634-.817.55-2.035.55m1.084-7.057q-1.158 0-1.887.698-.728.699-.891 2.006l-.015.148q1.397-.045 2.244-.208.861-.177 1.307-.416.46-.237.609-.52.149-.282.149-.564 0-.238-.089-.446a.8.8 0 0 0-.253-.356 1.2 1.2 0 0 0-.475-.253 2.4 2.4 0 0 0-.699-.09M150.761 56.39q-.475 0-.669-.177a.55.55 0 0 1-.193-.416q0-.09.015-.194t.045-.237a.78.78 0 0 1 .297-.52q.237-.193.683-.193.476 0 .669.178a.55.55 0 0 1 .193.416q0 .09-.015.193-.015.105-.044.238a.85.85 0 0 1-.298.535q-.237.177-.683.178m-1.01 9.554q-.565 0-.862-.282a1.04 1.04 0 0 1-.282-.743q0-.15.015-.297.029-.164.059-.297l1.01-5.23h-2.763l.163-.996h3.952l-1.292 6.686.341.134 2.927-2.526.699.654-1.352 1.248q-.52.49-.907.802-.37.312-.668.505a2.1 2.1 0 0 1-.55.268q-.238.075-.49.074M140.159 68.915a1 1 0 0 1-.446-.104 2 2 0 0 1-.46-.297 7 7 0 0 1-.58-.55q-.311-.326-.758-.817l-.906-.995.788-.713 2.288 2.436.267-.06 1.456-8.72h-2.734l.164-.995h2.733l.268-1.59q.119-.757.609-1.248.49-.49 1.352-.49h2.57l-.163.995h-3.09l-.387 2.332h3.105l-.163.996h-3.105l-1.382 8.26a3 3 0 0 1-.148.595q-.105.282-.283.49a1.1 1.1 0 0 1-.416.342q-.252.133-.579.133M133.836 56.39q-.476 0-.669-.177a.55.55 0 0 1-.193-.416q0-.09.015-.194t.044-.237a.8.8 0 0 1 .297-.52q.238-.193.684-.193.476 0 .668.178a.55.55 0 0 1 .194.416q0 .09-.015.193-.015.105-.045.238a.85.85 0 0 1-.297.535q-.238.177-.683.178m-1.011 9.554q-.564 0-.861-.282a1.03 1.03 0 0 1-.283-.743q0-.15.015-.297.03-.164.06-.297l1.01-5.23h-2.764l.164-.996h3.952l-1.293 6.686.342.134 2.927-2.526.698.654-1.352 1.248q-.52.49-.906.802a7 7 0 0 1-.669.505 2.1 2.1 0 0 1-.549.268q-.238.075-.491.074M123.872 65.944q-.52 0-.817-.282-.282-.283-.282-.818v-.282a2 2 0 0 1 .045-.297l.891-5.17h-2.214l.164-.996h1.56q.386 0 .564-.148.193-.164.268-.55l.341-2.006h1.1l-.461 2.704h3.165l-.164.996h-3.164l-.951 5.675.297.178 3.343-2.228.579.743-1.679 1.188q-.519.372-.906.624a6 6 0 0 1-.683.387 2.7 2.7 0 0 1-.535.208q-.238.075-.461.074M114.503 65.766l1.115-6.671h-2.155l.164-.996h3.313l-.342 2.05h.074a4.8 4.8 0 0 1 .446-.831q.253-.387.58-.654.341-.267.772-.416a3 3 0 0 1 .981-.149h1.159l-.194 1.16h-1.307q-.669 0-1.114.192-.446.179-.788.58l-.208.252q-.119.15-.252.372a4 4 0 0 0-.253.505 3.6 3.6 0 0 0-.163.609l-.669 3.997zM107.512 65.944q-1.457 0-2.244-.802-.787-.818-.787-2.481 0-1.041.312-1.902a4.6 4.6 0 0 1 .861-1.5 3.85 3.85 0 0 1 1.338-.981 4.1 4.1 0 0 1 1.708-.357q.564 0 1.04.134.475.134.817.401.357.252.55.639.193.386.193.891 0 .402-.193.832-.178.431-.773.803-.579.37-1.693.624-1.1.252-2.927.297-.015.118-.015.222v.12q0 .4.074.772.075.371.283.669.207.282.579.46.371.163.981.163.415 0 .742-.089.342-.103.639-.297.312-.207.595-.52.297-.327.624-.787l.817.505q-.654 1.07-1.486 1.634-.817.55-2.035.55m1.084-7.057q-1.158 0-1.887.698-.727.699-.891 2.006l-.015.148q1.397-.045 2.243-.208.862-.177 1.308-.416.46-.237.609-.52.149-.282.149-.564 0-.238-.09-.446a.8.8 0 0 0-.252-.356 1.2 1.2 0 0 0-.476-.253 2.4 2.4 0 0 0-.698-.09M99.197 65.944q-1.62 0-2.362-.966-.743-.966-.743-2.778 0-.594.075-1.337.088-.758.297-1.53.207-.787.55-1.516.341-.743.846-1.322a3.9 3.9 0 0 1 1.233-.921q.714-.357 1.65-.357.712 0 1.218.208.505.208.832.55.342.327.52.743t.267.847l-1.099.356a3.3 3.3 0 0 0-.208-.624 1.52 1.52 0 0 0-.847-.876 2 2 0 0 0-.773-.134q-1.248 0-1.99.95-.729.938-.996 2.541l-.238 1.427q-.06.34-.089.668-.03.327-.03.639 0 1.07.476 1.723.475.64 1.545.64.446 0 .788-.12.34-.134.624-.386.297-.252.564-.639.267-.386.565-.906l.965.49a8 8 0 0 1-.638 1.1 3.7 3.7 0 0 1-.788.832 3.1 3.1 0 0 1-.98.52 3.9 3.9 0 0 1-1.234.178" opacity=".6"/><path stroke="#c6cad0" stroke-linejoin="round" stroke-width=".6" d="M29.521 28.106c-.887 0-1.605.72-1.605 1.606v35.326h-3.212V29.712a4.817 4.817 0 0 1 4.817-4.817h43.023c2.146 0 3.22 2.594 1.703 4.111L47.75 55.504h7.464v-3.312h3.212v4.115a2.41 2.41 0 0 1-2.409 2.409H44.538l-5.52 5.52h25.027V44.164h3.211v20.072a3.21 3.21 0 0 1-3.211 3.211H35.806l-5.62 5.62h41.085c.887 0 1.605-.719 1.605-1.606V36.135h3.212V71.46a4.817 4.817 0 0 1-4.817 4.818H28.248c-2.146 0-3.22-2.595-1.703-4.112l26.397-26.398H45.58v3.212h-3.212v-4.014a2.41 2.41 0 0 1 2.409-2.41h11.378l5.62-5.62H36.747V57.01h-3.211V36.938a3.21 3.21 0 0 1 3.211-3.212h28.239l5.62-5.62z" clip-rule="evenodd"/><path fill="#c6cad0" d="M240.179 65.152v.073a.79.79 0 0 1-.29.616.79.79 0 0 1-.616.29h-.072a.9.9 0 0 1-.652-.29.84.84 0 0 1-.254-.616v-.073a.96.96 0 0 1 .254-.652.96.96 0 0 1 .652-.253h.072q.363 0 .616.253.29.29.29.652m0 3.623v.073a.79.79 0 0 1-.29.616.79.79 0 0 1-.616.29h-.072a.9.9 0 0 1-.652-.29.84.84 0 0 1-.254-.616v-.073a.96.96 0 0 1 .254-.652.96.96 0 0 1 .652-.253h.072q.363 0 .616.253.29.29.29.652m0 3.623v.073a.79.79 0 0 1-.29.615.79.79 0 0 1-.616.29h-.072a.9.9 0 0 1-.652-.29.84.84 0 0 1-.254-.615v-.073a.96.96 0 0 1 .254-.652.96.96 0 0 1 .652-.254h.072q.363 0 .616.254.29.29.29.652m0 3.623v.073a.79.79 0 0 1-.29.615.79.79 0 0 1-.616.29h-.072a.9.9 0 0 1-.652-.29.84.84 0 0 1-.254-.615v-.073a.96.96 0 0 1 .254-.652.96.96 0 0 1 .652-.254h.072q.363 0 .616.254.29.29.29.652m-3.623-7.246v.073a.79.79 0 0 1-.29.616.79.79 0 0 1-.616.29h-.072a.9.9 0 0 1-.652-.29.84.84 0 0 1-.254-.616v-.073q0-.362.254-.652a.96.96 0 0 1 .652-.253h.072q.363 0 .616.253.29.29.29.652m0 10.869v.072a.79.79 0 0 1-.29.616.79.79 0 0 1-.616.29h-.072q-.363 0-.652-.29a.84.84 0 0 1-.254-.616v-.072q0-.363.254-.652a.96.96 0 0 1 .652-.254h.072q.363 0 .616.254.29.29.29.652m-3.623-10.869v.073a.79.79 0 0 1-.29.616.79.79 0 0 1-.616.29h-.072a.9.9 0 0 1-.652-.29.84.84 0 0 1-.254-.616v-.073q0-.362.254-.652a.96.96 0 0 1 .652-.253h.072q.363 0 .616.253.29.29.29.652m0 10.869v.072a.79.79 0 0 1-.29.616.79.79 0 0 1-.616.29h-.072q-.363 0-.652-.29a.84.84 0 0 1-.254-.616v-.072q0-.363.254-.652a.96.96 0 0 1 .652-.254h.072q.363 0 .616.254.29.29.29.652m-3.623-10.869v.073a.79.79 0 0 1-.29.616.79.79 0 0 1-.615.29h-.073a.9.9 0 0 1-.652-.29.84.84 0 0 1-.254-.616v-.073q0-.362.254-.652a.97.97 0 0 1 .652-.253h.073q.362 0 .615.253.29.29.29.652m0 10.869v.072a.79.79 0 0 1-.29.616.79.79 0 0 1-.615.29h-.073a.9.9 0 0 1-.652-.29.84.84 0 0 1-.254-.616v-.072q0-.363.254-.652a.97.97 0 0 1 .652-.254h.073q.362 0 .615.254.29.29.29.652m-3.623-10.869v.073a.79.79 0 0 1-.289.616.8.8 0 0 1-.616.29h-.073a.9.9 0 0 1-.652-.29.84.84 0 0 1-.254-.616v-.073q0-.362.254-.652a.97.97 0 0 1 .652-.253h.073q.361 0 .616.253a.9.9 0 0 1 .289.652m0 10.869v.072a.79.79 0 0 1-.289.616.8.8 0 0 1-.616.29h-.073a.9.9 0 0 1-.652-.29.84.84 0 0 1-.254-.616v-.072q0-.363.254-.652a.97.97 0 0 1 .652-.254h.073q.361 0 .616.254a.9.9 0 0 1 .289.652m-3.622-10.869v.073a.79.79 0 0 1-.29.616.79.79 0 0 1-.616.29h-.073a.9.9 0 0 1-.652-.29.84.84 0 0 1-.253-.616v-.073q0-.362.253-.652a.97.97 0 0 1 .652-.253h.073a.84.84 0 0 1 .616.253q.29.29.29.652m0 10.869v.072a.79.79 0 0 1-.29.616.79.79 0 0 1-.616.29h-.073a.9.9 0 0 1-.652-.29.84.84 0 0 1-.253-.616v-.072q0-.363.253-.652a.97.97 0 0 1 .652-.254h.073a.84.84 0 0 1 .616.254q.29.29.29.652m-3.623-14.492v.073a.79.79 0 0 1-.29.616.79.79 0 0 1-.616.29h-.073q-.361 0-.652-.29a.84.84 0 0 1-.253-.616v-.073q0-.362.253-.652a.97.97 0 0 1 .652-.253h.073a.84.84 0 0 1 .616.253q.29.29.29.652m0 3.623v.073a.79.79 0 0 1-.29.616.79.79 0 0 1-.616.29h-.073q-.361 0-.652-.29a.84.84 0 0 1-.253-.616v-.073q0-.362.253-.652a.97.97 0 0 1 .652-.253h.073a.84.84 0 0 1 .616.253q.29.29.29.652m0 3.623v.073a.79.79 0 0 1-.29.615.79.79 0 0 1-.616.29h-.073q-.361 0-.652-.29a.84.84 0 0 1-.253-.615v-.073q0-.362.253-.652a.97.97 0 0 1 .652-.254h.073a.84.84 0 0 1 .616.254q.29.29.29.652m0 3.623v.073a.79.79 0 0 1-.29.615.79.79 0 0 1-.616.29h-.073q-.361 0-.652-.29a.84.84 0 0 1-.253-.615v-.073q0-.363.253-.652a.97.97 0 0 1 .652-.254h.073a.84.84 0 0 1 .616.254q.29.29.29.652M240.179 43.43v.072a.79.79 0 0 1-.29.616.79.79 0 0 1-.616.29h-.072a.9.9 0 0 1-.652-.29.84.84 0 0 1-.254-.616v-.073a.96.96 0 0 1 .254-.652.96.96 0 0 1 .652-.253h.072q.363 0 .616.253.29.29.29.652m0 3.622v.073a.79.79 0 0 1-.29.616.79.79 0 0 1-.616.29h-.072a.9.9 0 0 1-.652-.29.84.84 0 0 1-.254-.616v-.073a.96.96 0 0 1 .254-.652.96.96 0 0 1 .652-.253h.072q.363 0 .616.253.29.29.29.652m0 3.623v.073a.79.79 0 0 1-.29.616.79.79 0 0 1-.616.29h-.072a.9.9 0 0 1-.652-.29.84.84 0 0 1-.254-.616v-.073a.96.96 0 0 1 .254-.652.96.96 0 0 1 .652-.254h.072q.363 0 .616.254.29.29.29.652m0 3.623v.072a.79.79 0 0 1-.29.616.79.79 0 0 1-.616.29h-.072a.9.9 0 0 1-.652-.29.84.84 0 0 1-.254-.616v-.072a.96.96 0 0 1 .254-.652.96.96 0 0 1 .652-.254h.072q.363 0 .616.254.29.29.29.652m0 3.623v.072a.79.79 0 0 1-.29.616.79.79 0 0 1-.616.29h-.072a.9.9 0 0 1-.652-.29.84.84 0 0 1-.254-.616v-.072a.96.96 0 0 1 .254-.652.96.96 0 0 1 .652-.254h.072q.363 0 .616.254.29.29.29.652m-3.623-14.492v.073a.79.79 0 0 1-.29.616.79.79 0 0 1-.616.29h-.072a.9.9 0 0 1-.652-.29.84.84 0 0 1-.254-.616v-.073q0-.362.254-.652a.96.96 0 0 1 .652-.253h.072q.363 0 .616.253.29.29.29.652m-3.623 0v.073a.79.79 0 0 1-.29.616.79.79 0 0 1-.616.29h-.072a.9.9 0 0 1-.652-.29.84.84 0 0 1-.254-.616v-.073q0-.362.254-.652a.96.96 0 0 1 .652-.253h.072q.363 0 .616.253.29.29.29.652m-3.623 0v.073a.79.79 0 0 1-.29.616.79.79 0 0 1-.615.29h-.073a.9.9 0 0 1-.652-.29.84.84 0 0 1-.254-.616v-.073q0-.362.254-.652a.97.97 0 0 1 .652-.253h.073q.362 0 .615.253.29.29.29.652m0 3.623v.073a.79.79 0 0 1-.29.616.79.79 0 0 1-.615.29h-.073a.9.9 0 0 1-.652-.29.84.84 0 0 1-.254-.616v-.073q0-.362.254-.652a.97.97 0 0 1 .652-.253h.073q.362 0 .615.253.29.29.29.652m0 3.623v.073a.79.79 0 0 1-.29.616.79.79 0 0 1-.615.29h-.073a.9.9 0 0 1-.652-.29.84.84 0 0 1-.254-.616v-.073q0-.362.254-.652a.97.97 0 0 1 .652-.254h.073q.362 0 .615.254.29.29.29.652m0 3.623v.072a.79.79 0 0 1-.29.616.79.79 0 0 1-.615.29h-.073a.9.9 0 0 1-.652-.29.84.84 0 0 1-.254-.616v-.072q0-.363.254-.652a.97.97 0 0 1 .652-.254h.073q.362 0 .615.254.29.29.29.652m-3.623-10.869v.073a.79.79 0 0 1-.289.616.8.8 0 0 1-.616.29h-.073a.9.9 0 0 1-.652-.29.84.84 0 0 1-.254-.616v-.073q0-.362.254-.652a.97.97 0 0 1 .652-.253h.073q.361 0 .616.253a.9.9 0 0 1 .289.652m-3.622 0v.073a.79.79 0 0 1-.29.616.79.79 0 0 1-.616.29h-.073a.9.9 0 0 1-.652-.29.84.84 0 0 1-.253-.616v-.073q0-.362.253-.652a.97.97 0 0 1 .652-.253h.073a.84.84 0 0 1 .616.253q.29.29.29.652m-3.623 0v.073a.79.79 0 0 1-.29.616.79.79 0 0 1-.616.29h-.073q-.361 0-.652-.29a.84.84 0 0 1-.253-.616v-.073q0-.362.253-.652a.97.97 0 0 1 .652-.253h.073a.84.84 0 0 1 .616.253q.29.29.29.652m0 3.623v.073a.79.79 0 0 1-.29.616.79.79 0 0 1-.616.29h-.073q-.361 0-.652-.29a.84.84 0 0 1-.253-.616v-.073q0-.362.253-.652a.97.97 0 0 1 .652-.253h.073a.84.84 0 0 1 .616.253q.29.29.29.652m0 3.623v.073a.79.79 0 0 1-.29.616.79.79 0 0 1-.616.29h-.073q-.361 0-.652-.29a.84.84 0 0 1-.253-.616v-.073q0-.362.253-.652a.97.97 0 0 1 .652-.254h.073a.84.84 0 0 1 .616.254q.29.29.29.652m0 3.623v.072a.79.79 0 0 1-.29.616.79.79 0 0 1-.616.29h-.073q-.361 0-.652-.29a.84.84 0 0 1-.253-.616v-.072q0-.363.253-.652a.97.97 0 0 1 .652-.254h.073a.84.84 0 0 1 .616.254q.29.29.29.652m0 3.623v.072a.79.79 0 0 1-.29.616.79.79 0 0 1-.616.29h-.073q-.361 0-.652-.29a.84.84 0 0 1-.253-.616v-.072q0-.363.253-.652a.97.97 0 0 1 .652-.254h.073a.84.84 0 0 1 .616.254q.29.29.29.652M240.179 21.706v.073a.79.79 0 0 1-.29.616.79.79 0 0 1-.616.29h-.072a.9.9 0 0 1-.652-.29.84.84 0 0 1-.254-.616v-.073a.96.96 0 0 1 .254-.652.96.96 0 0 1 .652-.253h.072q.363 0 .616.253.29.29.29.652m0 3.623v.073a.79.79 0 0 1-.29.616.79.79 0 0 1-.616.29h-.072a.9.9 0 0 1-.652-.29.84.84 0 0 1-.254-.616v-.073a.96.96 0 0 1 .254-.652.96.96 0 0 1 .652-.253h.072q.363 0 .616.253.29.29.29.652m0 3.623v.073a.79.79 0 0 1-.29.615.79.79 0 0 1-.616.29h-.072a.9.9 0 0 1-.652-.29.84.84 0 0 1-.254-.615v-.073a.96.96 0 0 1 .254-.652.96.96 0 0 1 .652-.254h.072q.363 0 .616.254.29.29.29.652m0 3.623v.072a.79.79 0 0 1-.29.616.79.79 0 0 1-.616.29h-.072a.9.9 0 0 1-.652-.29.84.84 0 0 1-.254-.616v-.072a.96.96 0 0 1 .254-.652.96.96 0 0 1 .652-.254h.072q.363 0 .616.254.29.29.29.652m0 3.623v.072a.79.79 0 0 1-.29.616.79.79 0 0 1-.616.29h-.072a.9.9 0 0 1-.652-.29.84.84 0 0 1-.254-.616v-.072a.96.96 0 0 1 .254-.652.96.96 0 0 1 .652-.254h.072q.363 0 .616.254.29.29.29.652m-3.623 0v.072a.79.79 0 0 1-.29.616.79.79 0 0 1-.616.29h-.072a.9.9 0 0 1-.652-.29.84.84 0 0 1-.254-.616v-.072q0-.364.254-.652a.96.96 0 0 1 .652-.254h.072q.363 0 .616.254.29.29.29.652m-3.623-3.623v.072a.79.79 0 0 1-.29.616.79.79 0 0 1-.616.29h-.072a.9.9 0 0 1-.652-.29.84.84 0 0 1-.254-.616v-.072q0-.363.254-.652a.96.96 0 0 1 .652-.254h.072q.363 0 .616.254.29.29.29.652m-3.623-3.623v.073a.79.79 0 0 1-.29.615.79.79 0 0 1-.615.29h-.073a.9.9 0 0 1-.652-.29.84.84 0 0 1-.254-.615v-.073q0-.362.254-.652a.97.97 0 0 1 .652-.254h.073q.362 0 .615.254.29.29.29.652m-3.623-3.623v.073a.79.79 0 0 1-.289.616.8.8 0 0 1-.616.29h-.073a.9.9 0 0 1-.652-.29.84.84 0 0 1-.254-.616v-.073q0-.362.254-.652a.97.97 0 0 1 .652-.253h.073q.361 0 .616.253a.9.9 0 0 1 .289.652m-3.622-3.623v.073a.79.79 0 0 1-.29.616.79.79 0 0 1-.616.29h-.073a.9.9 0 0 1-.652-.29.84.84 0 0 1-.253-.616v-.073q0-.362.253-.652a.97.97 0 0 1 .652-.253h.073a.84.84 0 0 1 .616.253q.29.29.29.652m-3.623 0v.073a.79.79 0 0 1-.29.616.79.79 0 0 1-.616.29h-.073q-.361 0-.652-.29a.84.84 0 0 1-.253-.616v-.073q0-.362.253-.652a.97.97 0 0 1 .652-.253h.073a.84.84 0 0 1 .616.253q.29.29.29.652m0 3.623v.073a.79.79 0 0 1-.29.616.79.79 0 0 1-.616.29h-.073q-.361 0-.652-.29a.84.84 0 0 1-.253-.616v-.073q0-.362.253-.652a.97.97 0 0 1 .652-.253h.073a.84.84 0 0 1 .616.253q.29.29.29.652m0 3.623v.073a.79.79 0 0 1-.29.615.79.79 0 0 1-.616.29h-.073q-.361 0-.652-.29a.84.84 0 0 1-.253-.615v-.073q0-.362.253-.652a.97.97 0 0 1 .652-.254h.073a.84.84 0 0 1 .616.254q.29.29.29.652m0 3.623v.072a.79.79 0 0 1-.29.616.79.79 0 0 1-.616.29h-.073q-.361 0-.652-.29a.84.84 0 0 1-.253-.616v-.072q0-.363.253-.652a.97.97 0 0 1 .652-.254h.073a.84.84 0 0 1 .616.254q.29.29.29.652m0 3.623v.072a.79.79 0 0 1-.29.616.79.79 0 0 1-.616.29h-.073q-.361 0-.652-.29a.84.84 0 0 1-.253-.616v-.072q0-.364.253-.652a.97.97 0 0 1 .652-.254h.073a.84.84 0 0 1 .616.254q.29.29.29.652"/></svg>
