<svg xmlns="http://www.w3.org/2000/svg" width="51" height="51" fill="none"><circle cx="25.5" cy="25.5" r="22.5" stroke="#000"/><circle cx="25.5" cy="25.5" r="19.5" stroke="#000"/><path fill="#000" fill-rule="evenodd" d="M20.219 19.813a.406.406 0 0 0-.407.406v8.937H19V20.22c0-.673.546-1.219 1.219-1.219h10.884a.61.61 0 0 1 .431 1.04l-6.704 6.704h1.889v-.838h.812v1.041a.61.61 0 0 1-.61.61h-2.903l-1.397 1.396h6.332v-5.078h.813v5.078a.812.812 0 0 1-.813.813H21.81l-1.422 1.422h10.394a.406.406 0 0 0 .407-.407v-8.937H32v8.937c0 .673-.546 1.219-1.219 1.219H19.897a.61.61 0 0 1-.431-1.04l6.678-6.679h-1.863v.813h-.812v-1.016a.61.61 0 0 1 .61-.61h2.878l1.422-1.421h-6.332v5.078h-.813v-5.078c0-.449.364-.813.813-.813h7.144l1.422-1.422H20.219Z" clip-rule="evenodd"/><path fill="#000" d="M37.732 22.393c-.19-.61.043-1.035.678-1.233l2.086-.651-.232-.74.526-.165.41 1.313-2.61.815c-.325.102-.435.304-.337.62.042.133.115.267.22.386l-.476.15a1.334 1.334 0 0 1-.265-.495Zm1.123 5.215a.75.75 0 1 1 1.482.225.75.75 0 0 1-1.482-.225Zm-2.298 4.336 2.875 1.996-1.203 1.733-.452-.314.847-1.22-.706-.49-.742 1.069-.452-.314.742-1.068-.814-.565-.847 1.22-.45-.314 1.202-1.733Zm-.296-12.918c-.26-.444-.15-.927.273-1.175.43-.253.86-.065 1.323.585l.097.135c.099.139.195.164.324.088.198-.116.24-.332.099-.573-.13-.22-.327-.32-.493-.245l-.295-.505c.403-.231.914-.021 1.223.505.314.534.223 1.07-.225 1.332l-.79.464a4.243 4.243 0 0 0-.782.575l-.293-.5c.071-.077.162-.16.264-.243l-.013-.021c-.293.004-.545-.138-.712-.422Zm.585-.663c-.19.111-.236.319-.112.53a.58.58 0 0 0 .807.198l.24-.141a.561.561 0 0 1-.15-.138l-.097-.128c-.27-.351-.477-.445-.688-.321Zm.1-3.48a.457.457 0 0 1 .019-.643.454.454 0 0 1 .643.018.45.45 0 0 1-.018.644.454.454 0 0 1-.644-.018Zm-2.504.99.516.546 1.163-1.099-.498-.527.4-.378.91.964-1.563 1.476.514.545-.399.378-1.442-1.526.399-.378Zm.007 18.737 1.447 1.59.518-.47.37.406-.518.471.024.026c.447.492.435.976-.038 1.407-.152.138-.32.243-.478.293l-.337-.37a1.07 1.07 0 0 0 .386-.223c.244-.222.252-.452.023-.703l-.024-.026-.647.59-.37-.408.647-.589-1.447-1.59.444-.404Zm-1.186-22.225.479.32-.202.303.016.011a.808.808 0 0 1 .809.059c.366.244.455.67.23 1.097l-.515-.344c.055-.155-.006-.316-.156-.416-.253-.17-.59-.052-.82.294l-.838 1.257-.5-.333 1.497-2.248Zm-1.056 23.98 1.053 1.875.61-.343.27.48-.611.342.017.03c.326.58.206 1.05-.352 1.363-.179.1-.366.165-.531.178l-.245-.436a1.07 1.07 0 0 0 .425-.13c.288-.161.347-.384.18-.68l-.017-.03-.762.428-.27-.48.763-.428-1.053-1.875.523-.293ZM30.75 10.992l-.927-.349.193-.514 2.434.916-.194.514-.922-.346-1.04 2.76-.584-.22 1.04-2.761Zm-2.39 27.73c-.047-.486.262-.909.77-1.057.696-.203 1.355.219 1.586 1.01.227.778-.087 1.468-.75 1.662-.647.188-1.246-.204-1.468-.967l-.064-.216 1.656-.483c-.172-.414-.468-.603-.813-.502-.216.063-.359.213-.37.393l-.546.16Zm.782.715c.128.332.399.493.682.41.278-.08.418-.35.384-.72l-1.066.31ZM25.3 39c.073-.48.495-.83 1.024-.86.719-.04 1.281.534 1.327 1.343.045.803-.44 1.412-1.16 1.452-.538.03-.986-.27-1.088-.739l.6-.034c.073.15.243.236.458.224.394-.022.62-.36.591-.865-.03-.524-.308-.853-.722-.83-.215.012-.374.117-.42.275l-.61.034Zm-2.267-27.083c-.077-.807.38-1.443 1.077-1.51.697-.065 1.265.474 1.342 1.28.076.807-.382 1.443-1.078 1.509-.697.066-1.265-.473-1.341-1.28Zm.596-.057c.048.503.33.822.693.788.363-.034.58-.401.532-.904-.047-.503-.329-.823-.692-.788-.363.034-.58.402-.532.904Zm-1.42 28.128.863.148.2-1.167c.058-.336-.072-.526-.397-.582a1.072 1.072 0 0 0-.446.02l.085-.492c.16-.044.358-.045.56-.01.63.108.901.51.789 1.165l-.2 1.168.69.118-.094.542-.69-.118-.125.734-.61.002.144-.838-.862-.148.093-.542Zm-1.803-28.691.116.346.019-.007a.808.808 0 0 1 .542-.602c.417-.14.808.052 1.008.491l-.588.196c-.089-.139-.254-.188-.424-.132-.29.097-.404.435-.273.829l.479 1.432-.57.19-.854-2.56.545-.183Zm-.123 26.328-.692-.291.214-.507 1.936.814-.214.507-.69-.29-.622 1.474.67.281-.215.507-1.22-.514.833-1.981Zm-1 3.278a.45.45 0 0 1-.242-.596.454.454 0 0 1 .595-.243c.23.097.34.366.244.597a.453.453 0 0 1-.596.242Zm-1.922-29.027c.563-.345 1.187-.206 1.517.33.329.538.169 1.158-.394 1.503l-.537.329.706 1.151-.533.326-1.83-2.984 1.071-.655Zm.653 23.764.649.47-.933 2.656-.486-.351.733-2.03-.016-.012-1.698 1.333-.478-.346 2.23-1.72Zm-.354-22.071.558-.343c.252-.154.312-.437.148-.706-.165-.268-.445-.342-.696-.188l-.559.341.549.896ZM14.138 35.76c-.444-.507-.34-1.216.257-1.74l.17-.148 1.136 1.298c.302-.331.35-.679.113-.95-.148-.169-.346-.235-.514-.169l-.376-.428c.42-.249.935-.147 1.285.252.477.545.372 1.32-.248 1.864-.61.534-1.368.54-1.823.021Zm-1.643-19.757 2.36 1.508c.214.138.5.303.777.456l-.31.484a7.723 7.723 0 0 1-.397-.206l-.013.021c.188.299.198.608.015.894-.334.522-1.083.59-1.761.156-.674-.43-.929-1.146-.595-1.668.172-.27.439-.39.767-.364l.013-.022-1.18-.753.324-.506Zm2.111 18.63c-.247.256-.278.57-.084.791.191.219.495.231.816.044l-.732-.836ZM13.107 17.83c-.19.299-.026.718.382.98.409.26.86.234 1.05-.065.192-.3.026-.72-.382-.98-.409-.262-.859-.234-1.05.065Zm-1.01 4.308c-.764-.27-1.14-.93-.91-1.58.226-.636.896-.892 1.645-.626l.212.076-.578 1.625c.436.102.763-.026.883-.365.075-.212.037-.417-.103-.53l.191-.537c.422.245.584.743.407 1.242-.242.683-.97.971-1.748.695ZM9.8 22.72l.496.057 2.248 1.92.197-1.728.546.063-.283 2.483-.497-.056-2.247-1.921-.181 1.595-.546-.063.267-2.35Zm1.505 6.883a.749.749 0 1 1 1.448-.392.749.749 0 1 1-1.448.392Zm.363-8.873c-.097.273.04.544.36.733l.372-1.046c-.345-.09-.634.035-.732.313Z"/></svg>
