<svg xmlns="http://www.w3.org/2000/svg" width="51" height="51" fill="none"><path fill="#000" fill-opacity=".3" d="M25.5 3C37.926 3 48 13.074 48 25.5S37.926 48 25.5 48 3 37.926 3 25.5 13.074 3 25.5 3Zm0 3C14.73 6 6 14.73 6 25.5S14.73 45 25.5 45 45 36.27 45 25.5 36.27 6 25.5 6Z"/><circle cx="25.5" cy="25.5" r="22.5" stroke="#000"/><circle cx="25.5" cy="25.5" r="19.5" fill="#000" fill-opacity=".04" stroke="#000"/><path fill="#000" fill-rule="evenodd" d="M20.219 19.813a.406.406 0 0 0-.407.406v8.937H19V20.22c0-.673.546-1.219 1.219-1.219h10.884a.61.61 0 0 1 .431 1.04l-6.704 6.704h1.889v-.838h.812v1.041a.61.61 0 0 1-.61.61h-2.903l-1.397 1.396h6.332v-5.078h.813v5.078a.812.812 0 0 1-.813.813H21.81l-1.422 1.422h10.394a.406.406 0 0 0 .407-.407v-8.937H32v8.937c0 .673-.546 1.219-1.219 1.219H19.897a.61.61 0 0 1-.431-1.04l6.678-6.679h-1.863v.813h-.812v-1.016a.61.61 0 0 1 .61-.61h2.878l1.422-1.421h-6.332v5.078h-.813v-5.078c0-.449.364-.813.813-.813h7.144l1.422-1.422H20.219Z" clip-rule="evenodd"/><path fill="#000" d="M41.093 27.434a.471.471 0 0 1 .933.121.466.466 0 0 1-.527.405.468.468 0 0 1-.406-.526Zm-.965-4.148-.081-.718.565-.064.081.719.035-.004c.683-.077 1.081.227 1.155.884.024.21.01.414-.044.576l-.513.059c.05-.157.064-.315.048-.458-.038-.34-.227-.484-.577-.445l-.035.004.1.899-.564.063-.101-.898-2.207.249-.07-.617 2.208-.249Zm-.95-3.421-.253-.678.534-.198.252.678.033-.012c.644-.24 1.104-.041 1.334.579.073.198.11.4.096.571l-.484.18c.01-.164-.014-.32-.064-.456-.119-.32-.337-.416-.666-.293l-.034.012.315.848-.533.197-.315-.847-2.083.773-.216-.581 2.083-.773ZM38.1 26.002l.564.074-.1.768 1.639.214.097-.743.564.073-.177 1.357-2.203-.286-.1.769-.564-.073.28-2.153Zm-.57 5.34c-.42-.275-.568-.82-.368-1.331.27-.693 1.052-.975 1.832-.67.775.302 1.138 1.021.867 1.714-.203.52-.678.81-1.163.704l.225-.577c.174-.004.328-.127.409-.334.148-.38-.073-.739-.559-.929-.505-.197-.934-.076-1.09.322-.082.207-.052.403.076.514l-.23.587Zm.988 3.746a.469.469 0 0 1-.112-.655.472.472 0 0 1 .655-.112.468.468 0 0 1 .112.655.465.465 0 0 1-.655.112ZM35.8 18.413c-.463-.678-.154-1.583.751-2.2.906-.616 1.86-.573 2.323.106.462.679.153 1.583-.752 2.2-.905.617-1.86.573-2.323-.106Zm.631 13.357.464.328-.447.633 1.35.954.432-.611.464.328-.79 1.118-1.814-1.283-.448.632-.464-.328 1.253-1.771Zm.484-15.023c-.632.43-.88.956-.624 1.331.256.376.836.338 1.467-.092.632-.43.88-.957.625-1.332-.256-.376-.836-.337-1.468.093Zm-3.511 18.486c.09.057.191.134.295.221l.02-.016c-.06-.297.037-.58.294-.803.402-.349.914-.327 1.245.055.339.39.229.863-.344 1.456l-.118.123c-.123.127-.13.229-.029.346.156.179.382.18.6-.01.2-.172.263-.39.157-.544l.457-.397c.31.367.194.926-.282 1.34-.484.419-1.044.427-1.397.02l-.62-.713a4.38 4.38 0 0 0-.731-.686l.453-.392Zm.834-.143a.6.6 0 0 0-.05.858l.19.218a.58.58 0 0 1 .11-.18l.112-.123c.306-.341.363-.568.198-.76-.15-.17-.369-.179-.56-.013Zm-3.9 2.059c.105-.135.268-.258.457-.355.588-.3 1.062-.137 1.375.475l1.028 2.01.713-.365.259.506-1.266.648-1.287-2.517c-.16-.312-.384-.39-.688-.234a1.107 1.107 0 0 0-.355.292l-.236-.46Zm1.4-23.46a.774.774 0 1 1 .728-1.367.774.774 0 0 1-.727 1.368Zm-7.464-2.082c.004-.837.538-1.445 1.262-1.442.723.004 1.252.616 1.249 1.453-.004.836-.539 1.443-1.262 1.44-.723-.003-1.252-.615-1.249-1.451ZM24.26 39.1c.01-.687.543-1.182 1.256-1.173.713.01 1.234.518 1.225 1.205l-.032 2.48-.646-.01.031-2.479a.572.572 0 0 0-.586-.601.57.57 0 0 0-.601.586l-.032 2.48-.646-.009.031-2.48Zm.633-27.492c-.002.521.255.879.632.88.377.002.636-.353.639-.874.002-.522-.254-.88-.631-.881-.377-.002-.638.353-.64.875ZM21.79 40.35c-.57-.149-.917-.602-.817-1.068l.56.147c-.027.185.127.353.377.418.255.066.448-.017.5-.217.043-.165-.044-.284-.286-.379l-.131-.05c-.635-.245-.88-.576-.762-1.03.14-.54.674-.803 1.304-.639.61.16.974.628.851 1.098l-.58-.151c.017-.188-.173-.381-.438-.45-.26-.068-.463.017-.517.222-.045.175.052.291.33.396l.13.05c.597.23.827.557.708 1.012-.14.535-.634.796-1.23.64Zm-.278-29.595.09.366.019-.005c.098-.295.31-.5.611-.573.442-.107.827.124.994.594l-.623.151c-.079-.15-.244-.217-.425-.173-.306.074-.452.412-.351.829l.367 1.516-.603.147-.657-2.712.578-.14ZM18.322 39c-.612-.334-.765-1.058-.372-1.779l.111-.204 1.566.852c.174-.428.096-.782-.23-.96-.204-.11-.42-.105-.558.02l-.517-.282c.319-.391.853-.476 1.334-.214.658.358.833 1.148.426 1.896-.4.735-1.134 1.012-1.76.671Zm-.111-27.83c.604-.316 1.238-.13 1.54.447.301.577.092 1.205-.512 1.521l-.577.302.646 1.236-.572.299-1.675-3.205 1.15-.6Zm.163 26.57c-.148.337-.068.653.2.798.263.144.563.048.806-.249l-1.006-.549Zm.025-24.804.6-.314c.27-.14.353-.429.202-.717-.15-.289-.434-.385-.704-.244l-.6.313.502.962Zm-3.357 23.676c-.336-.307-.36-.756-.064-1.157l.473.432c-.081.15-.044.325.094.45.232.213.595.145.884-.172l1.053-1.152.457.418-1.882 2.06-.438-.4.255-.28-.016-.013a.834.834 0 0 1-.816-.186Zm-2.273-21.276 2.377 1.65c.217.15.506.331.785.5l-.339.488a7.96 7.96 0 0 1-.401-.228l-.015.02c.184.317.182.637-.018.926-.365.526-1.142.566-1.825.091-.68-.47-.915-1.22-.55-1.746.19-.271.47-.384.806-.345l.015-.022-1.188-.825.353-.509Zm.56 1.91c-.208.302-.055.742.357 1.028.412.285.878.276 1.087-.026.21-.301.055-.741-.356-1.027-.412-.286-.878-.276-1.087.025Zm-1.21 4.52c-.782-.297-1.155-.987-.902-1.653.249-.652.946-.9 1.713-.608l.218.083-.635 1.665c.448.116.789-.009.921-.356.083-.217.048-.43-.095-.55l.21-.55c.43.263.587.781.392 1.293-.267.7-1.026.98-1.822.677Zm-2.398.68.513.062 2.308 2.003.216-1.785.564.068-.312 2.565-.512-.062-2.307-2.003-.2 1.646-.565-.069.295-2.425Zm1.907 8.199a.774.774 0 1 1 1.458-.526.774.774 0 1 1-1.458.526ZM11.71 20.3c-.107.28.028.564.355.766l.408-1.072c-.353-.101-.655.021-.763.306Z"/></svg>
