<svg xmlns="http://www.w3.org/2000/svg" width="262" height="102" fill="none"><path stroke="#c6cad0" stroke-dasharray="4 4" d="M.5.5h260.43v100.173H.5z" opacity=".2"/><path stroke="#c6cad0" stroke-dasharray="4 4" d="M6.5 6.5h248.43v88.173H6.5z"/><path fill="#c6cad0" d="M163.824 44.398h2.674v-8.974h-2.674v-1.01h3.862v9.984h2.675v1.01h-6.537zM161.527 45.408q-.699 0-.996-.357a1.73 1.73 0 0 1-.371-.891h-.075q-.252.669-.817 1.055-.549.37-1.485.371-1.204 0-1.917-.624t-.713-1.708q0-1.07.773-1.65.786-.579 2.525-.579h1.634v-.758q0-.846-.475-1.263-.476-.43-1.352-.43-.773 0-1.263.312-.49.297-.787.817l-.802-.595q.148-.296.401-.579.252-.282.624-.49.371-.224.847-.342.475-.135 1.054-.134 1.353 0 2.14.684.802.684.802 1.901v4.22h1.07v1.04zm-3.536-.817q.46 0 .832-.104.386-.12.668-.297.282-.194.431-.446.163-.267.163-.565v-1.263h-1.634q-1.07 0-1.56.298a.95.95 0 0 0-.49.861v.312q0 .595.416.907.43.297 1.174.297M150.642 36.048q-.52 0-.728-.208a.78.78 0 0 1-.208-.55v-.237q0-.328.208-.535.209-.223.728-.223.52 0 .728.223a.72.72 0 0 1 .208.535v.237a.77.77 0 0 1-.208.55q-.207.208-.728.208m-3.357 8.35h2.763v-5.646h-2.763v-1.01h3.952v6.656h2.585v1.01h-6.537zM138.391 44.398h2.243v-5.646h-2.243v-1.01h3.432v1.931h.074q.238-.907.892-1.411.668-.52 1.693-.52h1.07v1.188h-1.441q-1.025 0-1.664.595-.624.594-.624 1.56v3.313h2.971v1.01h-6.403zM133.865 36.122v9.286h-1.248v-9.286h-3.461v-1.084h8.171v1.084zM116.316 45.586q-.802 0-1.456-.282a3.15 3.15 0 0 1-1.099-.802 3.8 3.8 0 0 1-.684-1.263 5.5 5.5 0 0 1-.238-1.664q0-.906.238-1.65t.684-1.262a3.1 3.1 0 0 1 1.099-.817 3.6 3.6 0 0 1 1.456-.283 3.5 3.5 0 0 1 1.441.283q.654.282 1.1.817.46.519.698 1.263t.238 1.649a5.5 5.5 0 0 1-.238 1.664 3.7 3.7 0 0 1-.698 1.263 3 3 0 0 1-1.1.802 3.5 3.5 0 0 1-1.441.282m0-1.025q.995 0 1.605-.594.609-.594.609-1.843v-1.099q0-1.248-.609-1.842-.61-.594-1.605-.594t-1.605.594q-.609.594-.609 1.842v1.1q0 1.247.609 1.842.61.594 1.605.594M104.54 44.398h2.244v-5.646h-2.244v-1.01h3.432v1.931h.074q.238-.907.892-1.411.669-.52 1.694-.52h1.069v1.188h-1.441q-1.025 0-1.664.595-.624.594-.624 1.56v3.313h2.972v1.01h-6.404zM96.27 45.408v-10.37h3.774q1.442 0 2.199.787.758.788.758 2.199t-.758 2.199q-.757.787-2.199.787h-2.525v4.398zm1.249-5.482h2.496q.787 0 1.218-.387.446-.401.446-1.129v-.772q0-.728-.446-1.115-.43-.4-1.218-.4h-2.496z"/><path fill="#c6cad0" d="M149.825 65.944q-1.457 0-2.244-.802-.787-.818-.787-2.481 0-1.041.312-1.902a4.5 4.5 0 0 1 .862-1.5 3.8 3.8 0 0 1 1.337-.981 4.1 4.1 0 0 1 1.708-.357q.566 0 1.04.134.476.134.818.401.356.252.549.639.193.386.193.891 0 .402-.193.832-.178.431-.772.803-.58.37-1.694.624-1.1.252-2.927.297-.015.118-.015.222v.12q0 .4.075.772.073.371.282.669.208.282.579.46.372.163.981.163.416 0 .743-.089.342-.103.639-.297.312-.207.594-.52.297-.327.624-.787l.817.505q-.654 1.07-1.486 1.634-.817.55-2.035.55m1.084-7.057q-1.158 0-1.886.698-.729.699-.892 2.006l-.015.148q1.397-.045 2.244-.208.861-.177 1.307-.416.46-.237.609-.52.149-.282.149-.564 0-.238-.089-.446a.8.8 0 0 0-.253-.356 1.2 1.2 0 0 0-.475-.253 2.4 2.4 0 0 0-.699-.09M137.425 65.766l1.278-7.667h1.07l-.194 1.204h.06q.267-.58.639-.98.386-.402 1.025-.402.654 0 .936.416t.238 1.04h.044q.297-.669.743-1.055.446-.4 1.114-.4.639 0 .966.385.342.372.342 1.085 0 .208-.03.49t-.074.55l-.892 5.334h-1.069l.861-5.14q.045-.269.075-.506.029-.252.029-.416 0-.832-.653-.832a.9.9 0 0 0-.55.178 2 2 0 0 0-.416.416 3 3 0 0 0-.342.654 3.6 3.6 0 0 0-.193.683l-.832 4.963h-1.07l.862-5.14q.089-.536.089-.877 0-.475-.163-.669-.149-.208-.461-.208a.95.95 0 0 0-.564.178 1.6 1.6 0 0 0-.431.416 3 3 0 0 0-.342.654 3.5 3.5 0 0 0-.193.683l-.832 4.963zM132.721 65.944q-.743 0-1.307-.238a2.6 2.6 0 0 1-.921-.654 2.9 2.9 0 0 1-.565-1.025 4.4 4.4 0 0 1-.193-1.322q0-1.1.312-1.976.312-.892.847-1.515a3.7 3.7 0 0 1 1.278-.951 3.66 3.66 0 0 1 1.574-.342q.743 0 1.308.238.564.237.936.668.385.417.564 1.026.193.593.193 1.307 0 1.1-.312 1.99a4.6 4.6 0 0 1-.861 1.501 3.7 3.7 0 0 1-1.278.966 3.8 3.8 0 0 1-1.575.327m.06-1.01q1.084 0 1.723-.654.654-.669.847-1.813l.149-.891q.044-.267.059-.446.015-.178.015-.312 0-.98-.505-1.426-.506-.46-1.367-.46-1.085 0-1.738.668-.64.654-.832 1.798l-.149.891q-.045.267-.059.446-.015.178-.015.312 0 .981.505 1.44.505.447 1.367.447M124.333 65.944q-.713 0-1.263-.238a2.6 2.6 0 0 1-.906-.654 3.1 3.1 0 0 1-.55-1.025 4.7 4.7 0 0 1-.178-1.322q0-1.1.312-1.976.312-.892.847-1.515a3.6 3.6 0 0 1 1.248-.951q.728-.342 1.545-.342.609 0 1.055.149.46.149.787.4.327.239.52.58.208.342.312.713l-.995.387q-.224-.714-.669-.966-.431-.252-1.144-.253-.981 0-1.605.64-.609.638-.817 1.842l-.148.891q-.045.267-.06.416t-.015.297q0 .981.506 1.456.52.46 1.366.46.253 0 .506-.059.267-.06.564-.252.312-.194.669-.565.356-.372.817-.995l.832.49q-.357.58-.728 1.04a4 4 0 0 1-.802.743 3 3 0 0 1-.922.446 3.4 3.4 0 0 1-1.084.163M115.558 65.944q-.609 0-.862-.297-.252-.296-.252-.758v-.238q.015-.133.044-.237l1.664-8.647h-2.704l.164-.996h3.907L115.588 64.8l.371.119 3.046-2.585.669.653-1.546 1.397q-.534.49-.921.802a7 7 0 0 1-.683.476 2 2 0 0 1-.52.222q-.223.06-.446.06M107.511 65.944q-1.455 0-2.243-.802-.787-.818-.787-2.481 0-1.041.312-1.902a4.6 4.6 0 0 1 .861-1.5 3.84 3.84 0 0 1 1.337-.981 4.1 4.1 0 0 1 1.709-.357q.564 0 1.04.134.475.134.817.401.357.252.55.639.193.386.193.891 0 .402-.193.832-.179.431-.773.803-.58.37-1.693.624-1.1.252-2.927.297-.015.118-.015.222v.12q0 .4.074.772.075.371.282.669.208.282.58.46.37.163.98.163.416 0 .743-.089.342-.103.639-.297.312-.207.594-.52.297-.327.624-.787l.818.505q-.654 1.07-1.486 1.634-.817.55-2.036.55m1.085-7.057q-1.16 0-1.887.698-.727.699-.891 2.006l-.015.148q1.397-.045 2.243-.208.862-.177 1.308-.416.46-.237.609-.52.148-.282.148-.564a1.1 1.1 0 0 0-.089-.446.8.8 0 0 0-.252-.356 1.2 1.2 0 0 0-.476-.253 2.4 2.4 0 0 0-.698-.09M95.617 65.766l.906-10.37h1.085l-.55 5.838-.312 3.313h.119l2.422-6.448h1.396l.312 6.448h.119l.758-3.209 1.411-5.943h1.114l-2.54 10.37h-1.798l-.223-6.254h-.119l-2.302 6.255z" opacity=".6"/><path fill="#c6cad0" d="M240.179 65.152v.073a.79.79 0 0 1-.29.616.79.79 0 0 1-.616.29h-.072a.9.9 0 0 1-.652-.29.84.84 0 0 1-.254-.616v-.073a.96.96 0 0 1 .254-.652.96.96 0 0 1 .652-.253h.072q.363 0 .616.253.29.29.29.652m0 3.623v.073a.79.79 0 0 1-.29.616.79.79 0 0 1-.616.29h-.072a.9.9 0 0 1-.652-.29.84.84 0 0 1-.254-.616v-.073a.96.96 0 0 1 .254-.652.96.96 0 0 1 .652-.253h.072q.363 0 .616.253.29.29.29.652m0 3.623v.073a.79.79 0 0 1-.29.615.79.79 0 0 1-.616.29h-.072a.9.9 0 0 1-.652-.29.84.84 0 0 1-.254-.615v-.073a.96.96 0 0 1 .254-.652.96.96 0 0 1 .652-.254h.072q.363 0 .616.254.29.29.29.652m0 3.623v.073a.79.79 0 0 1-.29.615.79.79 0 0 1-.616.29h-.072a.9.9 0 0 1-.652-.29.84.84 0 0 1-.254-.615v-.073a.96.96 0 0 1 .254-.652.96.96 0 0 1 .652-.254h.072q.363 0 .616.254.29.29.29.652m-3.623-7.246v.073a.79.79 0 0 1-.29.616.79.79 0 0 1-.616.29h-.072a.9.9 0 0 1-.652-.29.84.84 0 0 1-.254-.616v-.073q0-.362.254-.652a.96.96 0 0 1 .652-.253h.072q.363 0 .616.253.29.29.29.652m0 10.869v.072a.79.79 0 0 1-.29.616.79.79 0 0 1-.616.29h-.072q-.363 0-.652-.29a.84.84 0 0 1-.254-.616v-.072q0-.363.254-.652a.96.96 0 0 1 .652-.254h.072q.363 0 .616.254.29.29.29.652m-3.623-10.869v.073a.79.79 0 0 1-.29.616.79.79 0 0 1-.616.29h-.072a.9.9 0 0 1-.652-.29.84.84 0 0 1-.254-.616v-.073q0-.362.254-.652a.96.96 0 0 1 .652-.253h.072q.363 0 .616.253.29.29.29.652m0 10.869v.072a.79.79 0 0 1-.29.616.79.79 0 0 1-.616.29h-.072q-.363 0-.652-.29a.84.84 0 0 1-.254-.616v-.072q0-.363.254-.652a.96.96 0 0 1 .652-.254h.072q.363 0 .616.254.29.29.29.652m-3.623-10.869v.073a.79.79 0 0 1-.29.616.79.79 0 0 1-.615.29h-.073a.9.9 0 0 1-.652-.29.84.84 0 0 1-.254-.616v-.073q0-.362.254-.652a.97.97 0 0 1 .652-.253h.073q.362 0 .615.253.29.29.29.652m0 10.869v.072a.79.79 0 0 1-.29.616.79.79 0 0 1-.615.29h-.073a.9.9 0 0 1-.652-.29.84.84 0 0 1-.254-.616v-.072q0-.363.254-.652a.97.97 0 0 1 .652-.254h.073q.362 0 .615.254.29.29.29.652m-3.623-10.869v.073a.79.79 0 0 1-.289.616.8.8 0 0 1-.616.29h-.073a.9.9 0 0 1-.652-.29.84.84 0 0 1-.254-.616v-.073q0-.362.254-.652a.97.97 0 0 1 .652-.253h.073q.361 0 .616.253a.9.9 0 0 1 .289.652m0 10.869v.072a.79.79 0 0 1-.289.616.8.8 0 0 1-.616.29h-.073a.9.9 0 0 1-.652-.29.84.84 0 0 1-.254-.616v-.072q0-.363.254-.652a.97.97 0 0 1 .652-.254h.073q.361 0 .616.254a.9.9 0 0 1 .289.652m-3.622-10.869v.073a.79.79 0 0 1-.29.616.79.79 0 0 1-.616.29h-.073a.9.9 0 0 1-.652-.29.84.84 0 0 1-.253-.616v-.073q0-.362.253-.652a.97.97 0 0 1 .652-.253h.073a.84.84 0 0 1 .616.253q.29.29.29.652m0 10.869v.072a.79.79 0 0 1-.29.616.79.79 0 0 1-.616.29h-.073a.9.9 0 0 1-.652-.29.84.84 0 0 1-.253-.616v-.072q0-.363.253-.652a.97.97 0 0 1 .652-.254h.073a.84.84 0 0 1 .616.254q.29.29.29.652m-3.623-14.492v.073a.79.79 0 0 1-.29.616.79.79 0 0 1-.616.29h-.073q-.361 0-.652-.29a.84.84 0 0 1-.253-.616v-.073q0-.362.253-.652a.97.97 0 0 1 .652-.253h.073a.84.84 0 0 1 .616.253q.29.29.29.652m0 3.623v.073a.79.79 0 0 1-.29.616.79.79 0 0 1-.616.29h-.073q-.361 0-.652-.29a.84.84 0 0 1-.253-.616v-.073q0-.362.253-.652a.97.97 0 0 1 .652-.253h.073a.84.84 0 0 1 .616.253q.29.29.29.652m0 3.623v.073a.79.79 0 0 1-.29.615.79.79 0 0 1-.616.29h-.073q-.361 0-.652-.29a.84.84 0 0 1-.253-.615v-.073q0-.362.253-.652a.97.97 0 0 1 .652-.254h.073a.84.84 0 0 1 .616.254q.29.29.29.652m0 3.623v.073a.79.79 0 0 1-.29.615.79.79 0 0 1-.616.29h-.073q-.361 0-.652-.29a.84.84 0 0 1-.253-.615v-.073q0-.363.253-.652a.97.97 0 0 1 .652-.254h.073a.84.84 0 0 1 .616.254q.29.29.29.652M240.179 43.43v.072a.79.79 0 0 1-.29.616.79.79 0 0 1-.616.29h-.072a.9.9 0 0 1-.652-.29.84.84 0 0 1-.254-.616v-.073a.96.96 0 0 1 .254-.652.96.96 0 0 1 .652-.253h.072q.363 0 .616.253.29.29.29.652m0 3.622v.073a.79.79 0 0 1-.29.616.79.79 0 0 1-.616.29h-.072a.9.9 0 0 1-.652-.29.84.84 0 0 1-.254-.616v-.073a.96.96 0 0 1 .254-.652.96.96 0 0 1 .652-.253h.072q.363 0 .616.253.29.29.29.652m0 3.623v.073a.79.79 0 0 1-.29.616.79.79 0 0 1-.616.29h-.072a.9.9 0 0 1-.652-.29.84.84 0 0 1-.254-.616v-.073a.96.96 0 0 1 .254-.652.96.96 0 0 1 .652-.254h.072q.363 0 .616.254.29.29.29.652m0 3.623v.072a.79.79 0 0 1-.29.616.79.79 0 0 1-.616.29h-.072a.9.9 0 0 1-.652-.29.84.84 0 0 1-.254-.616v-.072a.96.96 0 0 1 .254-.652.96.96 0 0 1 .652-.254h.072q.363 0 .616.254.29.29.29.652m0 3.623v.072a.79.79 0 0 1-.29.616.79.79 0 0 1-.616.29h-.072a.9.9 0 0 1-.652-.29.84.84 0 0 1-.254-.616v-.072a.96.96 0 0 1 .254-.652.96.96 0 0 1 .652-.254h.072q.363 0 .616.254.29.29.29.652m-3.623-14.492v.073a.79.79 0 0 1-.29.616.79.79 0 0 1-.616.29h-.072a.9.9 0 0 1-.652-.29.84.84 0 0 1-.254-.616v-.073q0-.362.254-.652a.96.96 0 0 1 .652-.253h.072q.363 0 .616.253.29.29.29.652m-3.623 0v.073a.79.79 0 0 1-.29.616.79.79 0 0 1-.616.29h-.072a.9.9 0 0 1-.652-.29.84.84 0 0 1-.254-.616v-.073q0-.362.254-.652a.96.96 0 0 1 .652-.253h.072q.363 0 .616.253.29.29.29.652m-3.623 0v.073a.79.79 0 0 1-.29.616.79.79 0 0 1-.615.29h-.073a.9.9 0 0 1-.652-.29.84.84 0 0 1-.254-.616v-.073q0-.362.254-.652a.97.97 0 0 1 .652-.253h.073q.362 0 .615.253.29.29.29.652m0 3.623v.073a.79.79 0 0 1-.29.616.79.79 0 0 1-.615.29h-.073a.9.9 0 0 1-.652-.29.84.84 0 0 1-.254-.616v-.073q0-.362.254-.652a.97.97 0 0 1 .652-.253h.073q.362 0 .615.253.29.29.29.652m0 3.623v.073a.79.79 0 0 1-.29.616.79.79 0 0 1-.615.29h-.073a.9.9 0 0 1-.652-.29.84.84 0 0 1-.254-.616v-.073q0-.362.254-.652a.97.97 0 0 1 .652-.254h.073q.362 0 .615.254.29.29.29.652m0 3.623v.072a.79.79 0 0 1-.29.616.79.79 0 0 1-.615.29h-.073a.9.9 0 0 1-.652-.29.84.84 0 0 1-.254-.616v-.072q0-.363.254-.652a.97.97 0 0 1 .652-.254h.073q.362 0 .615.254.29.29.29.652m-3.623-10.869v.073a.79.79 0 0 1-.289.616.8.8 0 0 1-.616.29h-.073a.9.9 0 0 1-.652-.29.84.84 0 0 1-.254-.616v-.073q0-.362.254-.652a.97.97 0 0 1 .652-.253h.073q.361 0 .616.253a.9.9 0 0 1 .289.652m-3.622 0v.073a.79.79 0 0 1-.29.616.79.79 0 0 1-.616.29h-.073a.9.9 0 0 1-.652-.29.84.84 0 0 1-.253-.616v-.073q0-.362.253-.652a.97.97 0 0 1 .652-.253h.073a.84.84 0 0 1 .616.253q.29.29.29.652m-3.623 0v.073a.79.79 0 0 1-.29.616.79.79 0 0 1-.616.29h-.073q-.361 0-.652-.29a.84.84 0 0 1-.253-.616v-.073q0-.362.253-.652a.97.97 0 0 1 .652-.253h.073a.84.84 0 0 1 .616.253q.29.29.29.652m0 3.623v.073a.79.79 0 0 1-.29.616.79.79 0 0 1-.616.29h-.073q-.361 0-.652-.29a.84.84 0 0 1-.253-.616v-.073q0-.362.253-.652a.97.97 0 0 1 .652-.253h.073a.84.84 0 0 1 .616.253q.29.29.29.652m0 3.623v.073a.79.79 0 0 1-.29.616.79.79 0 0 1-.616.29h-.073q-.361 0-.652-.29a.84.84 0 0 1-.253-.616v-.073q0-.362.253-.652a.97.97 0 0 1 .652-.254h.073a.84.84 0 0 1 .616.254q.29.29.29.652m0 3.623v.072a.79.79 0 0 1-.29.616.79.79 0 0 1-.616.29h-.073q-.361 0-.652-.29a.84.84 0 0 1-.253-.616v-.072q0-.363.253-.652a.97.97 0 0 1 .652-.254h.073a.84.84 0 0 1 .616.254q.29.29.29.652m0 3.623v.072a.79.79 0 0 1-.29.616.79.79 0 0 1-.616.29h-.073q-.361 0-.652-.29a.84.84 0 0 1-.253-.616v-.072q0-.363.253-.652a.97.97 0 0 1 .652-.254h.073a.84.84 0 0 1 .616.254q.29.29.29.652M240.179 21.706v.073a.79.79 0 0 1-.29.616.79.79 0 0 1-.616.29h-.072a.9.9 0 0 1-.652-.29.84.84 0 0 1-.254-.616v-.073a.96.96 0 0 1 .254-.652.96.96 0 0 1 .652-.253h.072q.363 0 .616.253.29.29.29.652m0 3.623v.073a.79.79 0 0 1-.29.616.79.79 0 0 1-.616.29h-.072a.9.9 0 0 1-.652-.29.84.84 0 0 1-.254-.616v-.073a.96.96 0 0 1 .254-.652.96.96 0 0 1 .652-.253h.072q.363 0 .616.253.29.29.29.652m0 3.623v.073a.79.79 0 0 1-.29.615.79.79 0 0 1-.616.29h-.072a.9.9 0 0 1-.652-.29.84.84 0 0 1-.254-.615v-.073a.96.96 0 0 1 .254-.652.96.96 0 0 1 .652-.254h.072q.363 0 .616.254.29.29.29.652m0 3.623v.072a.79.79 0 0 1-.29.616.79.79 0 0 1-.616.29h-.072a.9.9 0 0 1-.652-.29.84.84 0 0 1-.254-.616v-.072a.96.96 0 0 1 .254-.652.96.96 0 0 1 .652-.254h.072q.363 0 .616.254.29.29.29.652m0 3.623v.072a.79.79 0 0 1-.29.616.79.79 0 0 1-.616.29h-.072a.9.9 0 0 1-.652-.29.84.84 0 0 1-.254-.616v-.072a.96.96 0 0 1 .254-.652.96.96 0 0 1 .652-.254h.072q.363 0 .616.254.29.29.29.652m-3.623 0v.072a.79.79 0 0 1-.29.616.79.79 0 0 1-.616.29h-.072a.9.9 0 0 1-.652-.29.84.84 0 0 1-.254-.616v-.072q0-.364.254-.652a.96.96 0 0 1 .652-.254h.072q.363 0 .616.254.29.29.29.652m-3.623-3.623v.072a.79.79 0 0 1-.29.616.79.79 0 0 1-.616.29h-.072a.9.9 0 0 1-.652-.29.84.84 0 0 1-.254-.616v-.072q0-.363.254-.652a.96.96 0 0 1 .652-.254h.072q.363 0 .616.254.29.29.29.652m-3.623-3.623v.073a.79.79 0 0 1-.29.615.79.79 0 0 1-.615.29h-.073a.9.9 0 0 1-.652-.29.84.84 0 0 1-.254-.615v-.073q0-.362.254-.652a.97.97 0 0 1 .652-.254h.073q.362 0 .615.254.29.29.29.652m-3.623-3.623v.073a.79.79 0 0 1-.289.616.8.8 0 0 1-.616.29h-.073a.9.9 0 0 1-.652-.29.84.84 0 0 1-.254-.616v-.073q0-.362.254-.652a.97.97 0 0 1 .652-.253h.073q.361 0 .616.253a.9.9 0 0 1 .289.652m-3.622-3.623v.073a.79.79 0 0 1-.29.616.79.79 0 0 1-.616.29h-.073a.9.9 0 0 1-.652-.29.84.84 0 0 1-.253-.616v-.073q0-.362.253-.652a.97.97 0 0 1 .652-.253h.073a.84.84 0 0 1 .616.253q.29.29.29.652m-3.623 0v.073a.79.79 0 0 1-.29.616.79.79 0 0 1-.616.29h-.073q-.361 0-.652-.29a.84.84 0 0 1-.253-.616v-.073q0-.362.253-.652a.97.97 0 0 1 .652-.253h.073a.84.84 0 0 1 .616.253q.29.29.29.652m0 3.623v.073a.79.79 0 0 1-.29.616.79.79 0 0 1-.616.29h-.073q-.361 0-.652-.29a.84.84 0 0 1-.253-.616v-.073q0-.362.253-.652a.97.97 0 0 1 .652-.253h.073a.84.84 0 0 1 .616.253q.29.29.29.652m0 3.623v.073a.79.79 0 0 1-.29.615.79.79 0 0 1-.616.29h-.073q-.361 0-.652-.29a.84.84 0 0 1-.253-.615v-.073q0-.362.253-.652a.97.97 0 0 1 .652-.254h.073a.84.84 0 0 1 .616.254q.29.29.29.652m0 3.623v.072a.79.79 0 0 1-.29.616.79.79 0 0 1-.616.29h-.073q-.361 0-.652-.29a.84.84 0 0 1-.253-.616v-.072q0-.363.253-.652a.97.97 0 0 1 .652-.254h.073a.84.84 0 0 1 .616.254q.29.29.29.652m0 3.623v.072a.79.79 0 0 1-.29.616.79.79 0 0 1-.616.29h-.073q-.361 0-.652-.29a.84.84 0 0 1-.253-.616v-.072q0-.364.253-.652a.97.97 0 0 1 .652-.254h.073a.84.84 0 0 1 .616.254q.29.29.29.652"/><path stroke="#c6cad0" stroke-linejoin="round" stroke-width=".6" d="M29.521 28.106c-.887 0-1.605.72-1.605 1.606v35.326h-3.212V29.712a4.817 4.817 0 0 1 4.817-4.817h43.023c2.146 0 3.22 2.594 1.703 4.111L47.75 55.504h7.464v-3.312h3.212v4.115a2.41 2.41 0 0 1-2.409 2.409H44.538l-5.52 5.52h25.027V44.164h3.211v20.072a3.21 3.21 0 0 1-3.211 3.211H35.806l-5.62 5.62h41.085c.887 0 1.605-.719 1.605-1.606V36.135h3.212V71.46a4.817 4.817 0 0 1-4.817 4.818H28.248c-2.146 0-3.22-2.595-1.703-4.112l26.397-26.398H45.58v3.212h-3.212v-4.014a2.41 2.41 0 0 1 2.409-2.41h11.378l5.62-5.62H36.747V57.01h-3.211V36.938a3.21 3.21 0 0 1 3.211-3.212h28.239l5.62-5.62z" clip-rule="evenodd"/></svg>
