<svg xmlns="http://www.w3.org/2000/svg" width="51" height="51" fill="none"><path fill="#000" fill-opacity=".15" d="M45 3a3 3 0 0 1 3 3v39a3 3 0 0 1-3 3H6a3 3 0 0 1-3-3V6a3 3 0 0 1 3-3h39ZM10 7a3 3 0 0 0-3 3v31a3 3 0 0 0 3 3h31a3 3 0 0 0 3-3V10a3 3 0 0 0-3-3H10Z"/><rect width="36" height="36" x="7.5" y="7.5" stroke="#000" stroke-dasharray="2 2" rx=".5"/><rect width="44" height="44" x="3.5" y="3.5" stroke="#000" stroke-dasharray="2 2" rx="2.5"/><path fill="#000" d="M28.636 13.124c.732 0 1.27.617 1.27 1.464s-.538 1.465-1.27 1.465-1.27-.618-1.27-1.465c0-.847.538-1.464 1.27-1.464Zm-6.066-.784c.69 0 1.171.465 1.171 1.124s-.48 1.124-1.17 1.124h-.66V16h-.653v-3.66h1.312Zm3.323.8c.46 0 .784.319.837.82h-.649c-.042-.166-.188-.27-.376-.27-.319 0-.544.297-.544.73V16h-.627v-2.823h.6v.382h.022a.844.844 0 0 1 .737-.418Zm2.743.56c-.382 0-.643.36-.643.888s.261.89.643.89c.381 0 .643-.362.643-.89s-.262-.889-.643-.889Zm-6.725.314h.686c.308 0 .517-.22.517-.55 0-.33-.21-.549-.517-.549h-.686v1.099ZM28.63 36.124c.649 0 1.083.366 1.083.91v.957c0 .382.036.721.104 1.009h-.606a2.793 2.793 0 0 1-.078-.366h-.027c-.151.266-.413.419-.757.419-.539 0-.915-.356-.915-.868 0-.523.397-.811 1.228-.884l.173-.016c.177-.016.25-.09.25-.246 0-.24-.172-.392-.465-.392-.267 0-.46.126-.48.314h-.613c.006-.486.466-.837 1.104-.837Zm3.413 1.867c0 .355.167.527.512.528.146 0 .303-.031.455-.1v.523c-.157.074-.361.11-.575.11-.67 0-1.02-.366-1.02-1.06v-2.286h-.81v-.575h1.438v2.86Zm-11.452-2.076h-1.03V39h-.654v-3.085h-1.035v-.575h2.719v.575Zm2.23.226c.46 0 .784.318.836.82h-.648c-.042-.167-.188-.271-.376-.271-.32 0-.544.297-.544.73V39h-.627v-2.823h.6v.382h.022a.844.844 0 0 1 .737-.418Zm2.993 2.284h.785V39h-2.196v-.575h.785v-1.673h-.758v-.575h1.384v2.248Zm3.272-.784a.583.583 0 0 1-.204.062l-.168.022c-.46.057-.653.193-.653.449 0 .23.162.382.418.382.34 0 .607-.272.607-.622v-.293Zm-3.638-2.782c.267 0 .477.21.477.476a.477.477 0 0 1-.952 0c0-.267.214-.475.475-.476Z"/><path fill="#000" fill-rule="evenodd" d="M20.219 19.813a.406.406 0 0 0-.407.406v8.937H19V20.22c0-.673.546-1.219 1.219-1.219h10.884a.61.61 0 0 1 .431 1.04l-6.704 6.704h1.889v-.838h.812v1.041a.61.61 0 0 1-.61.61h-2.903l-1.397 1.396h6.332v-5.078h.813v5.078a.812.812 0 0 1-.813.813H21.81l-1.422 1.422h10.394a.406.406 0 0 0 .407-.407v-8.937H32v8.937c0 .673-.546 1.219-1.219 1.219H19.897a.61.61 0 0 1-.431-1.04l6.678-6.679h-1.863v.813h-.812v-1.016a.61.61 0 0 1 .61-.61h2.878l1.422-1.421h-6.332v5.078h-.813v-5.078c0-.449.364-.813.813-.813h7.144l1.422-1.422H20.219Z" clip-rule="evenodd"/></svg>
