<svg xmlns="http://www.w3.org/2000/svg" width="262" height="102" fill="none"><path stroke="#c6cad0" d="M.5.5h260.43v100.173H.5z" opacity=".2"/><path stroke="#c6cad0" d="M6.5 6.5h248.43v88.173H6.5z"/><path stroke="#c6cad0" stroke-linejoin="round" stroke-width=".6" d="M29.521 28.106c-.887 0-1.605.72-1.605 1.606v35.326h-3.212V29.712a4.817 4.817 0 0 1 4.817-4.817h43.023c2.146 0 3.22 2.594 1.703 4.111L47.75 55.504h7.464v-3.312h3.212v4.115a2.41 2.41 0 0 1-2.409 2.409H44.538l-5.52 5.52h25.027V44.164h3.211v20.072a3.21 3.21 0 0 1-3.211 3.211H35.806l-5.62 5.62h41.085c.887 0 1.605-.719 1.605-1.606V36.135h3.212V71.46a4.817 4.817 0 0 1-4.817 4.818H28.248c-2.146 0-3.22-2.595-1.703-4.112l26.397-26.398H45.58v3.212h-3.212v-4.014a2.41 2.41 0 0 1 2.409-2.41h11.378l5.62-5.62H36.747V57.01h-3.211V36.938a3.21 3.21 0 0 1 3.211-3.212h28.239l5.62-5.62z" clip-rule="evenodd"/><path fill="#c6cad0" d="M150.538 45.408q-.876 0-1.292-.49-.402-.49-.402-1.263v-4.903h-2.555v-1.01h1.902q.386 0 .535-.149.163-.163.163-.55v-2.005h1.144v2.704h3.491v1.01h-3.491v5.646h3.491v1.01zM138.703 45.408v-7.666h1.188v1.248h.06q.119-.283.297-.535a1.9 1.9 0 0 1 .431-.46 2.3 2.3 0 0 1 .624-.313q.357-.119.832-.119 1.203 0 1.931.773.728.758.728 2.154v4.918h-1.188v-4.71q0-1.055-.461-1.56-.46-.52-1.352-.52-.356 0-.698.09-.342.088-.609.267a1.4 1.4 0 0 0-.431.46 1.3 1.3 0 0 0-.164.654v5.319zM133.375 45.586a3.8 3.8 0 0 1-1.5-.282 3.3 3.3 0 0 1-1.13-.802 3.9 3.9 0 0 1-.713-1.263 5.1 5.1 0 0 1-.252-1.65q0-.92.252-1.663.268-.744.728-1.263a3.1 3.1 0 0 1 1.1-.817 3.6 3.6 0 0 1 1.441-.283q.772 0 1.396.283.64.282 1.085.787.446.49.683 1.174t.238 1.5v.565h-5.675v.356q0 .506.163.936.164.431.461.743.312.313.742.49.446.165.981.164.773 0 1.337-.357a2.3 2.3 0 0 0 .862-.98l.876.594q-.341.773-1.144 1.278-.786.49-1.931.49m-.074-7.042a2.28 2.28 0 0 0-1.634.669 2.4 2.4 0 0 0-.476.742 2.5 2.5 0 0 0-.163.922v.103h4.397v-.163q0-.506-.163-.921a2 2 0 0 0-.431-.713 1.7 1.7 0 0 0-.669-.476 2.2 2.2 0 0 0-.861-.163M126.636 44.16h-.06q-.742 1.425-2.362 1.426-1.412 0-2.214-1.055-.787-1.054-.787-2.956t.787-2.957q.802-1.055 2.214-1.055 1.62 0 2.362 1.427h.06v-4.576h1.188v10.994h-1.188zm-1.961.371q.401 0 .757-.104.357-.104.624-.297.268-.208.416-.49.164-.297.164-.684v-2.763q0-.386-.164-.669a1.3 1.3 0 0 0-.416-.49 1.8 1.8 0 0 0-.624-.312 2.7 2.7 0 0 0-.757-.104q-1.04 0-1.62.639-.564.623-.564 1.664v1.307q0 1.04.564 1.68.58.623 1.62.623M118.129 44.16h-.06a3.3 3.3 0 0 1-.297.55 1.9 1.9 0 0 1-.446.445 2 2 0 0 1-.609.312q-.357.12-.832.12-1.203 0-1.931-.759-.728-.772-.728-2.169v-4.917h1.188v4.71q0 1.054.461 1.574.46.505 1.352.505.356 0 .698-.089a2 2 0 0 0 .609-.267q.268-.18.431-.446.164-.282.164-.669v-5.318h1.188v7.666h-1.188zM108.225 45.408q-.877 0-1.293-.49-.4-.49-.401-1.263v-4.903h-2.555v-1.01h1.901q.387 0 .535-.149.164-.163.164-.55v-2.005h1.144v2.704h3.491v1.01h-3.491v5.646h3.491v1.01zM99.36 45.586q-1.396 0-2.287-.505a4.7 4.7 0 0 1-1.47-1.322l.905-.743q.609.757 1.278 1.129.683.371 1.62.371 1.129 0 1.723-.52t.594-1.456q0-.758-.431-1.173-.43-.43-1.5-.61l-1.16-.192q-.756-.134-1.277-.402a2.7 2.7 0 0 1-.817-.638 2.4 2.4 0 0 1-.446-.832 3.4 3.4 0 0 1-.133-.951q0-1.427.936-2.155t2.525-.728q1.249 0 2.095.416a3.47 3.47 0 0 1 1.382 1.174l-.877.758a3.6 3.6 0 0 0-1.04-.921q-.609-.357-1.575-.357-1.055 0-1.619.446t-.564 1.337q0 .698.416 1.144.43.43 1.53.624l1.114.193q.758.135 1.278.401.52.267.832.639.327.372.46.832.134.46.134.966 0 1.44-.951 2.258-.936.817-2.674.817"/><path fill="#c6cad0" d="M160.16 63.953h-.045q-.446.907-1.084 1.456-.624.535-1.635.535-1.158 0-1.783-.743-.609-.743-.609-2.228 0-.773.179-1.65a6 6 0 0 1 .609-1.649 3.8 3.8 0 0 1 1.129-1.248q.698-.505 1.708-.505.847 0 1.412.386.579.372.832 1.13h.044l.788-4.666h1.159l-1.843 10.995h-1.158zm-2.363.966a2.4 2.4 0 0 0 .936-.193q.461-.209.862-.654.298-.327.52-.773.238-.446.327-.98l.282-1.694q.134-.802-.386-1.233-.505-.446-1.367-.446-1.114 0-1.753.669-.624.668-.802 1.738l-.179 1.07a9 9 0 0 0-.044.371q-.015.15-.015.297 0 .863.401 1.352.416.476 1.218.476M149.825 65.944q-1.456 0-2.243-.802-.788-.818-.788-2.481 0-1.041.312-1.902a4.5 4.5 0 0 1 .862-1.5 3.8 3.8 0 0 1 1.337-.981 4.1 4.1 0 0 1 1.709-.357q.564 0 1.04.134.475.134.817.401.356.252.549.639.194.386.194.891 0 .402-.194.832-.178.431-.772.803-.58.37-1.694.624-1.099.252-2.927.297-.015.118-.015.222v.12q0 .4.075.772.073.371.282.669.208.282.579.46.372.163.981.163.416 0 .743-.089.342-.103.639-.297.312-.207.594-.52.297-.327.624-.787l.817.505q-.654 1.07-1.486 1.634-.817.55-2.035.55m1.085-7.057q-1.16 0-1.887.698-.729.699-.892 2.006l-.015.148q1.397-.045 2.244-.208.861-.177 1.307-.416.46-.237.609-.52.149-.282.149-.564 0-.238-.089-.446a.8.8 0 0 0-.253-.356 1.2 1.2 0 0 0-.475-.253 2.4 2.4 0 0 0-.698-.09M142.298 56.39q-.475 0-.668-.177a.55.55 0 0 1-.193-.416q0-.09.014-.194t.045-.237a.8.8 0 0 1 .297-.52q.238-.193.684-.193.475 0 .668.178a.55.55 0 0 1 .193.416q0 .09-.015.193a3 3 0 0 1-.044.238.85.85 0 0 1-.297.535q-.238.177-.684.178m-1.01 9.554q-.565 0-.862-.282a1.04 1.04 0 0 1-.282-.743q0-.15.015-.297.03-.164.059-.297l1.011-5.23h-2.764l.164-.996h3.952l-1.293 6.686.342.134 2.927-2.526.698.654-1.352 1.248q-.52.49-.906.802a7 7 0 0 1-.669.505 2.1 2.1 0 0 1-.55.268 1.6 1.6 0 0 1-.49.074M131.696 68.915a1 1 0 0 1-.446-.104 2 2 0 0 1-.46-.297 7 7 0 0 1-.58-.55 47 47 0 0 1-.757-.817l-.906-.995.787-.713 2.288 2.436.267-.06 1.456-8.72h-2.733l.163-.996h2.734l.267-1.59q.119-.756.609-1.247.49-.49 1.352-.49h2.571l-.164.995h-3.09l-.386 2.332h3.105l-.164.996h-3.105l-1.382 8.26a3 3 0 0 1-.148.595 1.6 1.6 0 0 1-.282.49 1.1 1.1 0 0 1-.416.342q-.253.133-.58.133M125.373 56.39q-.475 0-.669-.177a.55.55 0 0 1-.193-.416q0-.09.015-.194t.045-.237a.78.78 0 0 1 .297-.52q.237-.193.683-.193.475 0 .669.178a.55.55 0 0 1 .193.416q0 .09-.015.193-.015.105-.045.238a.84.84 0 0 1-.297.535q-.237.177-.683.178m-1.01 9.554q-.565 0-.862-.282a1.04 1.04 0 0 1-.282-.743q0-.15.014-.297.03-.164.06-.297l1.01-5.23h-2.763l.163-.996h3.952l-1.292 6.686.341.134 2.927-2.526.698.654-1.352 1.248q-.519.49-.906.802-.37.312-.668.505a2.1 2.1 0 0 1-.55.268q-.238.075-.49.074M114.503 65.766l1.115-6.671h-2.155l.164-.996h3.313l-.342 2.05h.074q.194-.46.446-.831.253-.387.58-.654.341-.267.772-.416.43-.15.981-.149h1.159l-.194 1.16h-1.307q-.669 0-1.114.192-.446.179-.788.58l-.208.252q-.119.15-.252.372a4 4 0 0 0-.253.505 3.6 3.6 0 0 0-.163.61l-.669 3.996zM107.512 65.944q-1.457 0-2.244-.802-.787-.818-.787-2.481 0-1.041.312-1.902a4.6 4.6 0 0 1 .861-1.5 3.85 3.85 0 0 1 1.338-.981 4.1 4.1 0 0 1 1.708-.357q.564 0 1.04.134.475.134.817.401.357.252.55.639.193.386.193.891 0 .402-.193.832-.178.431-.773.803-.579.37-1.693.624-1.1.252-2.927.297-.015.118-.015.222v.12q0 .4.074.772.075.371.283.669.207.282.579.46.371.163.981.163.415 0 .742-.089.342-.103.639-.297.312-.207.595-.52.297-.327.624-.787l.817.505q-.654 1.07-1.486 1.634-.817.55-2.035.55m1.084-7.057q-1.158 0-1.887.698-.727.699-.891 2.006l-.015.148q1.397-.045 2.243-.208.862-.177 1.308-.416.46-.237.609-.52.149-.282.149-.564 0-.238-.09-.446a.8.8 0 0 0-.252-.356 1.2 1.2 0 0 0-.476-.253 2.4 2.4 0 0 0-.698-.09M97.92 65.766l-1.367-10.37h1.159l.653 5.185.52 3.981h.075l1.797-3.981 2.333-5.186h1.278l-4.784 10.37z" opacity=".6"/><path fill="#c6cad0" d="M240.179 65.152v.073a.79.79 0 0 1-.29.616.79.79 0 0 1-.616.29h-.072a.9.9 0 0 1-.652-.29.84.84 0 0 1-.254-.616v-.073a.96.96 0 0 1 .254-.652.96.96 0 0 1 .652-.253h.072q.363 0 .616.253.29.29.29.652m0 3.623v.073a.79.79 0 0 1-.29.616.79.79 0 0 1-.616.29h-.072a.9.9 0 0 1-.652-.29.84.84 0 0 1-.254-.616v-.073a.96.96 0 0 1 .254-.652.96.96 0 0 1 .652-.253h.072q.363 0 .616.253.29.29.29.652m0 3.623v.073a.79.79 0 0 1-.29.615.79.79 0 0 1-.616.29h-.072a.9.9 0 0 1-.652-.29.84.84 0 0 1-.254-.615v-.073a.96.96 0 0 1 .254-.652.96.96 0 0 1 .652-.254h.072q.363 0 .616.254.29.29.29.652m0 3.623v.073a.79.79 0 0 1-.29.615.79.79 0 0 1-.616.29h-.072a.9.9 0 0 1-.652-.29.84.84 0 0 1-.254-.615v-.073a.96.96 0 0 1 .254-.652.96.96 0 0 1 .652-.254h.072q.363 0 .616.254.29.29.29.652m-3.623-7.246v.073a.79.79 0 0 1-.29.616.79.79 0 0 1-.616.29h-.072a.9.9 0 0 1-.652-.29.84.84 0 0 1-.254-.616v-.073q0-.362.254-.652a.96.96 0 0 1 .652-.253h.072q.363 0 .616.253.29.29.29.652m0 10.869v.072a.79.79 0 0 1-.29.616.79.79 0 0 1-.616.29h-.072q-.363 0-.652-.29a.84.84 0 0 1-.254-.616v-.072q0-.363.254-.652a.96.96 0 0 1 .652-.254h.072q.363 0 .616.254.29.29.29.652m-3.623-10.869v.073a.79.79 0 0 1-.29.616.79.79 0 0 1-.616.29h-.072a.9.9 0 0 1-.652-.29.84.84 0 0 1-.254-.616v-.073q0-.362.254-.652a.96.96 0 0 1 .652-.253h.072q.363 0 .616.253.29.29.29.652m0 10.869v.072a.79.79 0 0 1-.29.616.79.79 0 0 1-.616.29h-.072q-.363 0-.652-.29a.84.84 0 0 1-.254-.616v-.072q0-.363.254-.652a.96.96 0 0 1 .652-.254h.072q.363 0 .616.254.29.29.29.652m-3.623-10.869v.073a.79.79 0 0 1-.29.616.79.79 0 0 1-.615.29h-.073a.9.9 0 0 1-.652-.29.84.84 0 0 1-.254-.616v-.073q0-.362.254-.652a.97.97 0 0 1 .652-.253h.073q.362 0 .615.253.29.29.29.652m0 10.869v.072a.79.79 0 0 1-.29.616.79.79 0 0 1-.615.29h-.073a.9.9 0 0 1-.652-.29.84.84 0 0 1-.254-.616v-.072q0-.363.254-.652a.97.97 0 0 1 .652-.254h.073q.362 0 .615.254.29.29.29.652m-3.623-10.869v.073a.79.79 0 0 1-.289.616.8.8 0 0 1-.616.29h-.073a.9.9 0 0 1-.652-.29.84.84 0 0 1-.254-.616v-.073q0-.362.254-.652a.97.97 0 0 1 .652-.253h.073q.361 0 .616.253a.9.9 0 0 1 .289.652m0 10.869v.072a.79.79 0 0 1-.289.616.8.8 0 0 1-.616.29h-.073a.9.9 0 0 1-.652-.29.84.84 0 0 1-.254-.616v-.072q0-.363.254-.652a.97.97 0 0 1 .652-.254h.073q.361 0 .616.254a.9.9 0 0 1 .289.652m-3.622-10.869v.073a.79.79 0 0 1-.29.616.79.79 0 0 1-.616.29h-.073a.9.9 0 0 1-.652-.29.84.84 0 0 1-.253-.616v-.073q0-.362.253-.652a.97.97 0 0 1 .652-.253h.073a.84.84 0 0 1 .616.253q.29.29.29.652m0 10.869v.072a.79.79 0 0 1-.29.616.79.79 0 0 1-.616.29h-.073a.9.9 0 0 1-.652-.29.84.84 0 0 1-.253-.616v-.072q0-.363.253-.652a.97.97 0 0 1 .652-.254h.073a.84.84 0 0 1 .616.254q.29.29.29.652m-3.623-14.492v.073a.79.79 0 0 1-.29.616.79.79 0 0 1-.616.29h-.073q-.361 0-.652-.29a.84.84 0 0 1-.253-.616v-.073q0-.362.253-.652a.97.97 0 0 1 .652-.253h.073a.84.84 0 0 1 .616.253q.29.29.29.652m0 3.623v.073a.79.79 0 0 1-.29.616.79.79 0 0 1-.616.29h-.073q-.361 0-.652-.29a.84.84 0 0 1-.253-.616v-.073q0-.362.253-.652a.97.97 0 0 1 .652-.253h.073a.84.84 0 0 1 .616.253q.29.29.29.652m0 3.623v.073a.79.79 0 0 1-.29.615.79.79 0 0 1-.616.29h-.073q-.361 0-.652-.29a.84.84 0 0 1-.253-.615v-.073q0-.362.253-.652a.97.97 0 0 1 .652-.254h.073a.84.84 0 0 1 .616.254q.29.29.29.652m0 3.623v.073a.79.79 0 0 1-.29.615.79.79 0 0 1-.616.29h-.073q-.361 0-.652-.29a.84.84 0 0 1-.253-.615v-.073q0-.363.253-.652a.97.97 0 0 1 .652-.254h.073a.84.84 0 0 1 .616.254q.29.29.29.652M240.179 43.43v.072a.79.79 0 0 1-.29.616.79.79 0 0 1-.616.29h-.072a.9.9 0 0 1-.652-.29.84.84 0 0 1-.254-.616v-.073a.96.96 0 0 1 .254-.652.96.96 0 0 1 .652-.253h.072q.363 0 .616.253.29.29.29.652m0 3.622v.073a.79.79 0 0 1-.29.616.79.79 0 0 1-.616.29h-.072a.9.9 0 0 1-.652-.29.84.84 0 0 1-.254-.616v-.073a.96.96 0 0 1 .254-.652.96.96 0 0 1 .652-.253h.072q.363 0 .616.253.29.29.29.652m0 3.623v.073a.79.79 0 0 1-.29.616.79.79 0 0 1-.616.29h-.072a.9.9 0 0 1-.652-.29.84.84 0 0 1-.254-.616v-.073a.96.96 0 0 1 .254-.652.96.96 0 0 1 .652-.254h.072q.363 0 .616.254.29.29.29.652m0 3.623v.072a.79.79 0 0 1-.29.616.79.79 0 0 1-.616.29h-.072a.9.9 0 0 1-.652-.29.84.84 0 0 1-.254-.616v-.072a.96.96 0 0 1 .254-.652.96.96 0 0 1 .652-.254h.072q.363 0 .616.254.29.29.29.652m0 3.623v.072a.79.79 0 0 1-.29.616.79.79 0 0 1-.616.29h-.072a.9.9 0 0 1-.652-.29.84.84 0 0 1-.254-.616v-.072a.96.96 0 0 1 .254-.652.96.96 0 0 1 .652-.254h.072q.363 0 .616.254.29.29.29.652m-3.623-14.492v.073a.79.79 0 0 1-.29.616.79.79 0 0 1-.616.29h-.072a.9.9 0 0 1-.652-.29.84.84 0 0 1-.254-.616v-.073q0-.362.254-.652a.96.96 0 0 1 .652-.253h.072q.363 0 .616.253.29.29.29.652m-3.623 0v.073a.79.79 0 0 1-.29.616.79.79 0 0 1-.616.29h-.072a.9.9 0 0 1-.652-.29.84.84 0 0 1-.254-.616v-.073q0-.362.254-.652a.96.96 0 0 1 .652-.253h.072q.363 0 .616.253.29.29.29.652m-3.623 0v.073a.79.79 0 0 1-.29.616.79.79 0 0 1-.615.29h-.073a.9.9 0 0 1-.652-.29.84.84 0 0 1-.254-.616v-.073q0-.362.254-.652a.97.97 0 0 1 .652-.253h.073q.362 0 .615.253.29.29.29.652m0 3.623v.073a.79.79 0 0 1-.29.616.79.79 0 0 1-.615.29h-.073a.9.9 0 0 1-.652-.29.84.84 0 0 1-.254-.616v-.073q0-.362.254-.652a.97.97 0 0 1 .652-.253h.073q.362 0 .615.253.29.29.29.652m0 3.623v.073a.79.79 0 0 1-.29.616.79.79 0 0 1-.615.29h-.073a.9.9 0 0 1-.652-.29.84.84 0 0 1-.254-.616v-.073q0-.362.254-.652a.97.97 0 0 1 .652-.254h.073q.362 0 .615.254.29.29.29.652m0 3.623v.072a.79.79 0 0 1-.29.616.79.79 0 0 1-.615.29h-.073a.9.9 0 0 1-.652-.29.84.84 0 0 1-.254-.616v-.072q0-.363.254-.652a.97.97 0 0 1 .652-.254h.073q.362 0 .615.254.29.29.29.652m-3.623-10.869v.073a.79.79 0 0 1-.289.616.8.8 0 0 1-.616.29h-.073a.9.9 0 0 1-.652-.29.84.84 0 0 1-.254-.616v-.073q0-.362.254-.652a.97.97 0 0 1 .652-.253h.073q.361 0 .616.253a.9.9 0 0 1 .289.652m-3.622 0v.073a.79.79 0 0 1-.29.616.79.79 0 0 1-.616.29h-.073a.9.9 0 0 1-.652-.29.84.84 0 0 1-.253-.616v-.073q0-.362.253-.652a.97.97 0 0 1 .652-.253h.073a.84.84 0 0 1 .616.253q.29.29.29.652m-3.623 0v.073a.79.79 0 0 1-.29.616.79.79 0 0 1-.616.29h-.073q-.361 0-.652-.29a.84.84 0 0 1-.253-.616v-.073q0-.362.253-.652a.97.97 0 0 1 .652-.253h.073a.84.84 0 0 1 .616.253q.29.29.29.652m0 3.623v.073a.79.79 0 0 1-.29.616.79.79 0 0 1-.616.29h-.073q-.361 0-.652-.29a.84.84 0 0 1-.253-.616v-.073q0-.362.253-.652a.97.97 0 0 1 .652-.253h.073a.84.84 0 0 1 .616.253q.29.29.29.652m0 3.623v.073a.79.79 0 0 1-.29.616.79.79 0 0 1-.616.29h-.073q-.361 0-.652-.29a.84.84 0 0 1-.253-.616v-.073q0-.362.253-.652a.97.97 0 0 1 .652-.254h.073a.84.84 0 0 1 .616.254q.29.29.29.652m0 3.623v.072a.79.79 0 0 1-.29.616.79.79 0 0 1-.616.29h-.073q-.361 0-.652-.29a.84.84 0 0 1-.253-.616v-.072q0-.363.253-.652a.97.97 0 0 1 .652-.254h.073a.84.84 0 0 1 .616.254q.29.29.29.652m0 3.623v.072a.79.79 0 0 1-.29.616.79.79 0 0 1-.616.29h-.073q-.361 0-.652-.29a.84.84 0 0 1-.253-.616v-.072q0-.363.253-.652a.97.97 0 0 1 .652-.254h.073a.84.84 0 0 1 .616.254q.29.29.29.652M240.179 21.706v.073a.79.79 0 0 1-.29.616.79.79 0 0 1-.616.29h-.072a.9.9 0 0 1-.652-.29.84.84 0 0 1-.254-.616v-.073a.96.96 0 0 1 .254-.652.96.96 0 0 1 .652-.253h.072q.363 0 .616.253.29.29.29.652m0 3.623v.073a.79.79 0 0 1-.29.616.79.79 0 0 1-.616.29h-.072a.9.9 0 0 1-.652-.29.84.84 0 0 1-.254-.616v-.073a.96.96 0 0 1 .254-.652.96.96 0 0 1 .652-.253h.072q.363 0 .616.253.29.29.29.652m0 3.623v.073a.79.79 0 0 1-.29.615.79.79 0 0 1-.616.29h-.072a.9.9 0 0 1-.652-.29.84.84 0 0 1-.254-.615v-.073a.96.96 0 0 1 .254-.652.96.96 0 0 1 .652-.254h.072q.363 0 .616.254.29.29.29.652m0 3.623v.072a.79.79 0 0 1-.29.616.79.79 0 0 1-.616.29h-.072a.9.9 0 0 1-.652-.29.84.84 0 0 1-.254-.616v-.072a.96.96 0 0 1 .254-.652.96.96 0 0 1 .652-.254h.072q.363 0 .616.254.29.29.29.652m0 3.623v.072a.79.79 0 0 1-.29.616.79.79 0 0 1-.616.29h-.072a.9.9 0 0 1-.652-.29.84.84 0 0 1-.254-.616v-.072a.96.96 0 0 1 .254-.652.96.96 0 0 1 .652-.254h.072q.363 0 .616.254.29.29.29.652m-3.623 0v.072a.79.79 0 0 1-.29.616.79.79 0 0 1-.616.29h-.072a.9.9 0 0 1-.652-.29.84.84 0 0 1-.254-.616v-.072q0-.364.254-.652a.96.96 0 0 1 .652-.254h.072q.363 0 .616.254.29.29.29.652m-3.623-3.623v.072a.79.79 0 0 1-.29.616.79.79 0 0 1-.616.29h-.072a.9.9 0 0 1-.652-.29.84.84 0 0 1-.254-.616v-.072q0-.363.254-.652a.96.96 0 0 1 .652-.254h.072q.363 0 .616.254.29.29.29.652m-3.623-3.623v.073a.79.79 0 0 1-.29.615.79.79 0 0 1-.615.29h-.073a.9.9 0 0 1-.652-.29.84.84 0 0 1-.254-.615v-.073q0-.362.254-.652a.97.97 0 0 1 .652-.254h.073q.362 0 .615.254.29.29.29.652m-3.623-3.623v.073a.79.79 0 0 1-.289.616.8.8 0 0 1-.616.29h-.073a.9.9 0 0 1-.652-.29.84.84 0 0 1-.254-.616v-.073q0-.362.254-.652a.97.97 0 0 1 .652-.253h.073q.361 0 .616.253a.9.9 0 0 1 .289.652m-3.622-3.623v.073a.79.79 0 0 1-.29.616.79.79 0 0 1-.616.29h-.073a.9.9 0 0 1-.652-.29.84.84 0 0 1-.253-.616v-.073q0-.362.253-.652a.97.97 0 0 1 .652-.253h.073a.84.84 0 0 1 .616.253q.29.29.29.652m-3.623 0v.073a.79.79 0 0 1-.29.616.79.79 0 0 1-.616.29h-.073q-.361 0-.652-.29a.84.84 0 0 1-.253-.616v-.073q0-.362.253-.652a.97.97 0 0 1 .652-.253h.073a.84.84 0 0 1 .616.253q.29.29.29.652m0 3.623v.073a.79.79 0 0 1-.29.616.79.79 0 0 1-.616.29h-.073q-.361 0-.652-.29a.84.84 0 0 1-.253-.616v-.073q0-.362.253-.652a.97.97 0 0 1 .652-.253h.073a.84.84 0 0 1 .616.253q.29.29.29.652m0 3.623v.073a.79.79 0 0 1-.29.615.79.79 0 0 1-.616.29h-.073q-.361 0-.652-.29a.84.84 0 0 1-.253-.615v-.073q0-.362.253-.652a.97.97 0 0 1 .652-.254h.073a.84.84 0 0 1 .616.254q.29.29.29.652m0 3.623v.072a.79.79 0 0 1-.29.616.79.79 0 0 1-.616.29h-.073q-.361 0-.652-.29a.84.84 0 0 1-.253-.616v-.072q0-.363.253-.652a.97.97 0 0 1 .652-.254h.073a.84.84 0 0 1 .616.254q.29.29.29.652m0 3.623v.072a.79.79 0 0 1-.29.616.79.79 0 0 1-.616.29h-.073q-.361 0-.652-.29a.84.84 0 0 1-.253-.616v-.072q0-.364.253-.652a.97.97 0 0 1 .652-.254h.073a.84.84 0 0 1 .616.254q.29.29.29.652"/></svg>
