<svg width="96" height="96" viewBox="0 0 96 96" fill="none" xmlns="http://www.w3.org/2000/svg">
<path fill-rule="evenodd" clip-rule="evenodd" d="M17 17H23V57H17V17Z" fill="black"/>
<path fill-rule="evenodd" clip-rule="evenodd" d="M17 17H67V23H17V17Z" fill="black"/>
<path fill-rule="evenodd" clip-rule="evenodd" d="M61 17L17 61V55L55 17H61Z" fill="black"/>
<path fill-rule="evenodd" clip-rule="evenodd" d="M27 27H33V47H27V27Z" fill="black"/>
<path fill-rule="evenodd" clip-rule="evenodd" d="M27 27H57V33H27V27Z" fill="black"/>
<path fill-rule="evenodd" clip-rule="evenodd" d="M35 35H51V41H35V35Z" fill="black"/>
<path fill-rule="evenodd" clip-rule="evenodd" d="M35 35H41V43H35V35Z" fill="black"/>
<path fill-rule="evenodd" clip-rule="evenodd" d="M17 61H33V67H17V61Z" fill="black"/>
<path d="M56 67C56 64.2386 58.2386 62 61 62C63.7614 62 66 64.2386 66 67V70H56V67Z" fill="black"/>
<path d="M56 73H66V78C66 80.7614 63.7614 83 61 83C58.2386 83 56 80.7614 56 78V73Z" fill="black"/>
<path d="M59 57H63V62H59V57Z" fill="black"/>
<path d="M59 83H63V88H59V83Z" fill="black"/>
<path d="M70 79H82V83H70V79Z" fill="black"/>
</svg>
