<svg width="15" height="15" viewBox="0 0 15 15" fill="none" xmlns="http://www.w3.org/2000/svg">
  <path
    fill-rule="evenodd"
    clip-rule="evenodd"
    d="M6 7.05002V4H9V7.05002L6 7.05002ZM5 7.05002H1.49919C1.25067 7.05002 1.04919 7.25149 1.04919 7.50002C1.04919 7.74855 1.25067 7.95002 1.49919 7.95002H5V11.25C5 11.6642 5.33579 12 5.75 12H9.25C9.66421 12 10 11.6642 10 11.25V7.95002H13.4992C13.7477 7.95002 13.9492 7.74855 13.9492 7.50002C13.9492 7.2515 13.7477 7.05002 13.4992 7.05002H10V3.75C10 3.33579 9.66421 3 9.25 3H5.75C5.33579 3 5 3.33579 5 3.75V7.05002ZM9 7.95002V11H6V7.95002L9 7.95002Z"
    fill="currentColor"
  />
</svg>
