<svg width="15" height="15" viewBox="0 0 15 15" fill="none" xmlns="http://www.w3.org/2000/svg">
  <path
    fill-rule="evenodd"
    clip-rule="evenodd"
    d="M1.5 3C1.22386 3 1 3.22386 1 3.5C1 3.77614 1.22386 4 1.5 4H13.5C13.7761 4 14 3.77614 14 3.5C14 3.22386 13.7761 3 13.5 3H1.5ZM1 7.5C1 7.22386 1.22386 7 1.5 7H3.5C3.77614 7 4 7.22386 4 7.5C4 7.77614 3.77614 8 3.5 8H1.5C1.22386 8 1 7.77614 1 7.5ZM1 11.5C1 11.2239 1.22386 11 1.5 11C1.77614 11 2 11.2239 2 11.5C2 11.7761 1.77614 12 1.5 12C1.22386 12 1 11.7761 1 11.5ZM3 11.5C3 11.2239 3.22386 11 3.5 11C3.77614 11 4 11.2239 4 11.5C4 11.7761 3.77614 12 3.5 12C3.22386 12 3 11.7761 3 11.5ZM5.5 11C5.22386 11 5 11.2239 5 11.5C5 11.7761 5.22386 12 5.5 12C5.77614 12 6 11.7761 6 11.5C6 11.2239 5.77614 11 5.5 11ZM7 11.5C7 11.2239 7.22386 11 7.5 11C7.77614 11 8 11.2239 8 11.5C8 11.7761 7.77614 12 7.5 12C7.22386 12 7 11.7761 7 11.5ZM9.5 11C9.22386 11 9 11.2239 9 11.5C9 11.7761 9.22386 12 9.5 12C9.77614 12 10 11.7761 10 11.5C10 11.2239 9.77614 11 9.5 11ZM11 11.5C11 11.2239 11.2239 11 11.5 11C11.7761 11 12 11.2239 12 11.5C12 11.7761 11.7761 12 11.5 12C11.2239 12 11 11.7761 11 11.5ZM13.5 11C13.2239 11 13 11.2239 13 11.5C13 11.7761 13.2239 12 13.5 12C13.7761 12 14 11.7761 14 11.5C14 11.2239 13.7761 11 13.5 11ZM6.5 7C6.22386 7 6 7.22386 6 7.5C6 7.77614 6.22386 8 6.5 8H8.5C8.77614 8 9 7.77614 9 7.5C9 7.22386 8.77614 7 8.5 7H6.5ZM11 7.5C11 7.22386 11.2239 7 11.5 7H13.5C13.7761 7 14 7.22386 14 7.5C14 7.77614 13.7761 8 13.5 8H11.5C11.2239 8 11 7.77614 11 7.5Z"
    fill="currentColor"
  />
</svg>
