<svg width="15" height="15" viewBox="0 0 15 15" fill="none" xmlns="http://www.w3.org/2000/svg">
  <path
    fill-rule="evenodd"
    clip-rule="evenodd"
    d="M0 7.5C0 7.22386 0.223858 7 0.5 7H3C3.27614 7 3.5 7.22386 3.5 7.5C3.5 7.77614 3.27614 8 3 8H0.5C0.223858 8 0 7.77614 0 7.5ZM5.75 7.5C5.75 7.22386 5.97386 7 6.25 7H8.75C9.02614 7 9.25 7.22386 9.25 7.5C9.25 7.77614 9.02614 8 8.75 8H6.25C5.97386 8 5.75 7.77614 5.75 7.5ZM12 7C11.7239 7 11.5 7.22386 11.5 7.5C11.5 7.77614 11.7239 8 12 8H14.5C14.7761 8 15 7.77614 15 7.5C15 7.22386 14.7761 7 14.5 7H12Z"
    fill="currentColor"
  />
</svg>
