<svg width="15" height="15" viewBox="0 0 15 15" fill="none" xmlns="http://www.w3.org/2000/svg">
  <path
    fill-rule="evenodd"
    clip-rule="evenodd"
    d="M2.5 3C2.22386 3 2 3.22386 2 3.5V9.5C2 9.77614 2.22386 10 2.5 10H12.5C12.7761 10 13 9.77614 13 9.5V3.5C13 3.22386 12.7761 3 12.5 3H2.5ZM1 9.5C1 10.1531 1.4174 10.7087 2 10.9146V11.5C2 12.3284 2.67157 13 3.5 13H11.5C12.3284 13 13 12.3284 13 11.5V10.9146C13.5826 10.7087 14 10.1531 14 9.5V3.5C14 2.67157 13.3284 2 12.5 2H2.5C1.67157 2 1 2.67157 1 3.5V9.5ZM12 11.5V11H3V11.5C3 11.7761 3.22386 12 3.5 12H11.5C11.7761 12 12 11.7761 12 11.5ZM5.5 6C5.22386 6 5 6.22386 5 6.5C5 6.77614 5.22386 7 5.5 7H9.5C9.77614 7 10 6.77614 10 6.5C10 6.22386 9.77614 6 9.5 6H5.5Z"
    fill="currentColor"
  />
</svg>
