<svg width="15" height="15" viewBox="0 0 15 15" fill="none" xmlns="http://www.w3.org/2000/svg">
  <path
    fill-rule="evenodd"
    clip-rule="evenodd"
    d="M3 3H12V12H3L3 3ZM2 3C2 2.44771 2.44772 2 3 2H12C12.5523 2 13 2.44772 13 3V12C13 12.5523 12.5523 13 12 13H3C2.44771 13 2 12.5523 2 12V3ZM10.3498 5.51105C10.506 5.28337 10.4481 4.97212 10.2204 4.81587C9.99275 4.65961 9.6815 4.71751 9.52525 4.94519L6.64048 9.14857L5.19733 7.40889C5.02102 7.19635 4.7058 7.16699 4.49327 7.34329C4.28073 7.5196 4.25137 7.83482 4.42767 8.04735L6.2934 10.2964C6.39348 10.4171 6.54437 10.4838 6.70097 10.4767C6.85757 10.4695 7.00177 10.3894 7.09047 10.2601L10.3498 5.51105Z"
    fill="currentColor"
  />
</svg>
