<svg width="15" height="15" viewBox="0 0 15 15" fill="none" xmlns="http://www.w3.org/2000/svg">
  <path
    fill-rule="evenodd"
    clip-rule="evenodd"
    d="M8.00012 1.5C8.00012 1.22386 7.77626 1 7.50012 1C7.22398 1 7.00012 1.22386 7.00012 1.5V13.5C7.00012 13.7761 7.22398 14 7.50012 14C7.77626 14 8.00012 13.7761 8.00012 13.5V1.5ZM3.31812 5.818C3.49386 5.64227 3.49386 5.35734 3.31812 5.18161C3.14239 5.00587 2.85746 5.00587 2.68173 5.18161L0.681729 7.18161C0.505993 7.35734 0.505993 7.64227 0.681729 7.818L2.68173 9.818C2.85746 9.99374 3.14239 9.99374 3.31812 9.818C3.49386 9.64227 3.49386 9.35734 3.31812 9.18161L2.08632 7.9498H5.50017C5.7487 7.9498 5.95017 7.74833 5.95017 7.4998C5.95017 7.25128 5.7487 7.0498 5.50017 7.0498H2.08632L3.31812 5.818ZM12.3181 5.18161C12.1424 5.00587 11.8575 5.00587 11.6817 5.18161C11.506 5.35734 11.506 5.64227 11.6817 5.818L12.9135 7.0498H9.50017C9.25164 7.0498 9.05017 7.25128 9.05017 7.4998C9.05017 7.74833 9.25164 7.9498 9.50017 7.9498H12.9135L11.6817 9.18161C11.506 9.35734 11.506 9.64227 11.6817 9.818C11.8575 9.99374 12.1424 9.99374 12.3181 9.818L14.3181 7.818C14.4939 7.64227 14.4939 7.35734 14.3181 7.18161L12.3181 5.18161Z"
    fill="currentColor"
  />
</svg>
