<svg width="15" height="15" viewBox="0 0 15 15" fill="none" xmlns="http://www.w3.org/2000/svg">
  <path
    fill-rule="evenodd"
    clip-rule="evenodd"
    d="M9.94969 7.49989C9.94969 8.85288 8.85288 9.94969 7.49989 9.94969C6.14691 9.94969 5.0501 8.85288 5.0501 7.49989C5.0501 6.14691 6.14691 5.0501 7.49989 5.0501C8.85288 5.0501 9.94969 6.14691 9.94969 7.49989ZM10.8632 8C10.6213 9.64055 9.20764 10.8997 7.49989 10.8997C5.79214 10.8997 4.37847 9.64055 4.13662 8H0.5C0.223858 8 0 7.77614 0 7.5C0 7.22386 0.223858 7 0.5 7H4.13659C4.37835 5.35935 5.79206 4.1001 7.49989 4.1001C9.20772 4.1001 10.6214 5.35935 10.8632 7H14.5C14.7761 7 15 7.22386 15 7.5C15 7.77614 14.7761 8 14.5 8H10.8632Z"
    fill="currentColor"
  />
</svg>
