<svg width="15" height="15" viewBox="0 0 15 15" fill="none" xmlns="http://www.w3.org/2000/svg">
<path fill-rule="evenodd" clip-rule="evenodd" d="M9.73284 2H1.25C0.559643 2 0 2.55964 0 3.25V10.75C0 11.249 0.292407 11.6797 0.715228 11.8802C0.729901 11.8616 0.74533 11.8435 0.761518 11.8257L1.51545 11H1.25C1.11193 11 1 10.8881 1 10.75V3.25C1 3.11193 1.11193 3 1.25 3H8.8198L9.73284 2ZM13.5232 3L14.316 2.13518C14.7219 2.34168 15 2.76336 15 3.25V10.75C15 11.4404 14.4404 12 13.75 12H9.92659L10.1701 13.2986C10.2336 13.6371 9.97389 13.95 9.62951 13.95H5.37049C5.02612 13.95 4.76645 13.6371 4.82991 13.2986L5.02202 12.2741L6.18991 11H13.75C13.8881 11 14 10.8881 14 10.75V3.25C14 3.11193 13.8881 3 13.75 3H13.5232ZM5.98909 12H9.01091L9.20778 13.05H5.79222L5.98909 12Z" fill="black"/>
<path d="M13 1L2 13" stroke="black" stroke-linecap="round"/>
</svg>
