<svg width="15" height="15" viewBox="0 0 15 15" fill="none" xmlns="http://www.w3.org/2000/svg">
  <path
    fill-rule="evenodd"
    clip-rule="evenodd"
    d="M10.3285 1.13607C10.1332 0.940809 9.81662 0.940808 9.62136 1.13607C9.42609 1.33133 9.42609 1.64792 9.62136 1.84318L10.2744 2.49619L5.42563 6.13274L4.31805 5.02516C4.12279 4.8299 3.80621 4.8299 3.61095 5.02516C3.41569 5.22042 3.41569 5.537 3.61095 5.73226L5.02516 7.14648L6.08582 8.20714L2.81545 11.4775C2.62019 11.6728 2.62019 11.9894 2.81545 12.1846C3.01072 12.3799 3.3273 12.3799 3.52256 12.1846L6.79293 8.91425L7.85359 9.97491L9.2678 11.3891C9.46306 11.5844 9.77965 11.5844 9.97491 11.3891C10.1702 11.1939 10.1702 10.8773 9.97491 10.682L8.86733 9.57443L12.5039 4.7257L13.1569 5.37871C13.3522 5.57397 13.6687 5.57397 13.864 5.37871C14.0593 5.18345 14.0593 4.86687 13.864 4.6716L12.8033 3.61094L11.3891 2.19673L10.3285 1.13607ZM6.13992 6.84702L10.9887 3.21047L11.7896 4.01142L8.15305 8.86015L6.13992 6.84702Z"
    fill="currentColor"
  />
</svg>
