<svg width="15" height="15" viewBox="0 0 15 15" fill="none" xmlns="http://www.w3.org/2000/svg">
  <path
    fill-rule="evenodd"
    clip-rule="evenodd"
    d="M14.7649 6.07596C14.9991 6.22231 15.0703 6.53079 14.9239 6.76495C14.4849 7.46743 13.9632 8.10645 13.3702 8.66305L14.5712 9.86406C14.7664 10.0593 14.7664 10.3759 14.5712 10.5712C14.3759 10.7664 14.0593 10.7664 13.8641 10.5712L12.6011 9.30817C11.805 9.90283 10.9089 10.3621 9.93375 10.651L10.383 12.3277C10.4544 12.5944 10.2961 12.8685 10.0294 12.94C9.76267 13.0115 9.4885 12.8532 9.41704 12.5865L8.95917 10.8775C8.48743 10.958 8.00036 10.9999 7.50001 10.9999C6.99965 10.9999 6.51257 10.958 6.04082 10.8775L5.58299 12.5864C5.51153 12.8532 5.23737 13.0115 4.97064 12.94C4.7039 12.8686 4.5456 12.5944 4.61706 12.3277L5.06625 10.651C4.09111 10.3621 3.19503 9.90282 2.3989 9.30815L1.1359 10.5712C0.940638 10.7664 0.624058 10.7664 0.428798 10.5712C0.233537 10.3759 0.233537 10.0593 0.428798 9.86405L1.62982 8.66303C1.03682 8.10643 0.515113 7.46742 0.0760677 6.76495C-0.0702867 6.53079 0.000898544 6.22231 0.235065 6.07596C0.469231 5.9296 0.777703 6.00079 0.924058 6.23496C1.40354 7.00213 1.989 7.68057 2.66233 8.2427C2.67315 8.25096 2.6837 8.25972 2.69397 8.26898C4.00897 9.35527 5.65537 9.99991 7.50001 9.99991C10.3078 9.99991 12.6564 8.5063 14.076 6.23495C14.2223 6.00079 14.5308 5.9296 14.7649 6.07596Z"
    fill="currentColor"
  />
</svg>
