<svg width="15" height="15" viewBox="0 0 15 15" fill="none" xmlns="http://www.w3.org/2000/svg">
  <path
    fill-rule="evenodd"
    clip-rule="evenodd"
    d="M2.78233 2.21707C2.70732 2.14206 2.60557 2.09991 2.49949 2.09991C2.3934 2.09991 2.29166 2.14206 2.21664 2.21707L0.216645 4.21707C0.0604351 4.37328 0.0604351 4.62655 0.216645 4.78276C0.372855 4.93897 0.626121 4.93897 0.78233 4.78276L2.09949 3.4656L2.09949 11.5342L0.78233 10.2171C0.62612 10.0609 0.372854 10.0609 0.216645 10.2171C0.0604349 10.3733 0.0604349 10.6265 0.216645 10.7828L2.21664 12.7828C2.29166 12.8578 2.3934 12.8999 2.49949 12.8999C2.60557 12.8999 2.70731 12.8578 2.78233 12.7828L4.78233 10.7828C4.93854 10.6265 4.93854 10.3733 4.78233 10.2171C4.62612 10.0609 4.37285 10.0609 4.21664 10.2171L2.89949 11.5342L2.89949 3.4656L4.21664 4.78276C4.37285 4.93897 4.62612 4.93897 4.78233 4.78276C4.93854 4.62655 4.93854 4.37328 4.78233 4.21707L2.78233 2.21707ZM10.5 2.74997C10.7107 2.74997 10.8988 2.88211 10.9703 3.08036L13.9703 11.3999C14.064 11.6597 13.9293 11.9462 13.6696 12.0399C13.4098 12.1336 13.1233 11.9989 13.0296 11.7392L12.0477 9.016H8.95228L7.97033 11.7392C7.87666 11.9989 7.59013 12.1336 7.33036 12.0399C7.07059 11.9462 6.93595 11.6597 7.02962 11.3999L10.0296 3.08036C10.1011 2.88211 10.2892 2.74997 10.5 2.74997ZM10.5 4.72396L11.7412 8.166H9.25879L10.5 4.72396Z"
    fill="currentColor"
  />
</svg>
