<svg width="15" height="15" viewBox="0 0 15 15" fill="none" xmlns="http://www.w3.org/2000/svg">
  <path
    fill-rule="evenodd"
    clip-rule="evenodd"
    d="M7.1813 1.68179C7.35704 1.50605 7.64196 1.50605 7.8177 1.68179L10.3177 4.18179C10.4934 4.35753 10.4934 4.64245 10.3177 4.81819C10.142 4.99392 9.85704 4.99392 9.6813 4.81819L7.9495 3.08638L7.9495 11.9136L9.6813 10.1818C9.85704 10.0061 10.142 10.0061 10.3177 10.1818C10.4934 10.3575 10.4934 10.6424 10.3177 10.8182L7.8177 13.3182C7.73331 13.4026 7.61885 13.45 7.4995 13.45C7.38015 13.45 7.26569 13.4026 7.1813 13.3182L4.6813 10.8182C4.50557 10.6424 4.50557 10.3575 4.6813 10.1818C4.85704 10.0061 5.14196 10.0061 5.3177 10.1818L7.0495 11.9136L7.0495 3.08638L5.3177 4.81819C5.14196 4.99392 4.85704 4.99392 4.6813 4.81819C4.50557 4.64245 4.50557 4.35753 4.6813 4.18179L7.1813 1.68179Z"
    fill="currentColor"
  />
</svg>
