<svg width="15" height="15" viewBox="0 0 15 15" fill="none" xmlns="http://www.w3.org/2000/svg">
  <path
    fill-rule="evenodd"
    clip-rule="evenodd"
    d="M9 3.63601C9 2.76044 9.24207 2.11211 9.64154 1.68623C10.0366 1.26502 10.6432 1 11.5014 1C12.4485 1 13.0839 1.30552 13.4722 1.80636C13.8031 2.23312 14 2.84313 14 3.63325H15C15 2.68242 14.7626 1.83856 14.2625 1.19361C13.6389 0.38943 12.6743 0 11.5014 0C10.4294 0 9.53523 0.337871 8.91218 1.0021C8.29351 1.66167 8 2.58135 8 3.63601V6H1C0.447715 6 0 6.44772 0 7V13C0 13.5523 0.447715 14 1 14H10C10.5523 14 11 13.5523 11 13V7C11 6.44772 10.5523 6 10 6H9V3.63601ZM1 7H10V13H1V7Z"
    fill="currentColor"
  />
</svg>
