<svg width="15" height="15" viewBox="0 0 15 15" fill="none" xmlns="http://www.w3.org/2000/svg">
  <path
    fill-rule="evenodd"
    clip-rule="evenodd"
    d="M2.05005 13.5C2.05005 13.7485 2.25152 13.95 2.50005 13.95C2.74858 13.95 2.95005 13.7485 2.95005 13.5L2.95005 1.49995C2.95005 1.25142 2.74858 1.04995 2.50005 1.04995C2.25152 1.04995 2.05005 1.25142 2.05005 1.49995L2.05005 13.5ZM8.4317 11.0681C8.60743 11.2439 8.89236 11.2439 9.06809 11.0681C9.24383 10.8924 9.24383 10.6075 9.06809 10.4317L6.58629 7.94993L14.5 7.94993C14.7485 7.94993 14.95 7.74846 14.95 7.49993C14.95 7.2514 14.7485 7.04993 14.5 7.04993L6.58629 7.04993L9.06809 4.56813C9.24383 4.39239 9.24383 4.10746 9.06809 3.93173C8.89236 3.75599 8.60743 3.75599 8.4317 3.93173L5.1817 7.18173C5.00596 7.35746 5.00596 7.64239 5.1817 7.81812L8.4317 11.0681Z"
    fill="currentColor"
  />
</svg>
