<svg width="15" height="15" viewBox="0 0 15 15" fill="none" xmlns="http://www.w3.org/2000/svg">
  <path
    fill-rule="evenodd"
    clip-rule="evenodd"
    d="M1.50005 1.05005C1.25152 1.05005 1.05005 1.25152 1.05005 1.50005C1.05005 1.74858 1.25152 1.95005 1.50005 1.95005L13.5 1.95005C13.7486 1.95005 13.95 1.74858 13.95 1.50005C13.95 1.25152 13.7486 1.05005 13.5 1.05005H1.50005ZM3.93188 7.43169C3.75614 7.60743 3.75614 7.89236 3.93188 8.06809C4.10761 8.24383 4.39254 8.24383 4.56827 8.06809L7.05007 5.58629V13.5C7.05007 13.7485 7.25155 13.95 7.50007 13.95C7.7486 13.95 7.95007 13.7485 7.95007 13.5L7.95007 5.58629L10.4319 8.06809C10.6076 8.24383 10.8925 8.24383 11.0683 8.06809C11.244 7.89235 11.244 7.60743 11.0683 7.43169L7.81827 4.18169C7.64254 4.00596 7.35761 4.00596 7.18188 4.18169L3.93188 7.43169Z"
    fill="currentColor"
  />
</svg>
