<svg width="15" height="15" viewBox="0 0 15 15" fill="none" xmlns="http://www.w3.org/2000/svg">
  <path
    fill-rule="evenodd"
    clip-rule="evenodd"
    d="M12.95 1.50005C12.95 1.25152 12.7485 1.05005 12.5 1.05005C12.2514 1.05005 12.05 1.25152 12.05 1.50005L12.05 13.5C12.05 13.7486 12.2514 13.95 12.5 13.95C12.7485 13.95 12.95 13.7486 12.95 13.5L12.95 1.50005ZM6.5683 3.93188C6.39257 3.75614 6.10764 3.75614 5.93191 3.93188C5.75617 4.10761 5.75617 4.39254 5.93191 4.56827L8.41371 7.05007L0.499984 7.05007C0.251456 7.05007 0.0499847 7.25155 0.0499847 7.50007C0.0499846 7.7486 0.251457 7.95007 0.499984 7.95007L8.41371 7.95007L5.93191 10.4319C5.75617 10.6076 5.75617 10.8925 5.93191 11.0683C6.10764 11.244 6.39257 11.244 6.56831 11.0683L9.8183 7.81827C9.99404 7.64254 9.99404 7.35761 9.8183 7.18188L6.5683 3.93188Z"
    fill="currentColor"
  />
</svg>
