<svg width="15" height="15" viewBox="0 0 15 15" fill="none" xmlns="http://www.w3.org/2000/svg">
  <path
    fill-rule="evenodd"
    clip-rule="evenodd"
    d="M7.49985 0.877045C3.84216 0.877045 0.877014 3.84219 0.877014 7.49988C0.877014 11.1575 3.84216 14.1227 7.49985 14.1227C11.1575 14.1227 14.1227 11.1575 14.1227 7.49988C14.1227 3.84219 11.1575 0.877045 7.49985 0.877045ZM1.82701 7.49988C1.82701 4.36686 4.36683 1.82704 7.49985 1.82704C10.6328 1.82704 13.1727 4.36686 13.1727 7.49988C13.1727 10.6329 10.6328 13.1727 7.49985 13.1727C4.36683 13.1727 1.82701 10.6329 1.82701 7.49988ZM7.49999 9.49999C8.60456 9.49999 9.49999 8.60456 9.49999 7.49999C9.49999 6.39542 8.60456 5.49999 7.49999 5.49999C6.39542 5.49999 5.49999 6.39542 5.49999 7.49999C5.49999 8.60456 6.39542 9.49999 7.49999 9.49999Z"
    fill="currentColor"
  />
</svg>
