<svg width="15" height="15" viewBox="0 0 15 15" fill="none" xmlns="http://www.w3.org/2000/svg">
  <path
    fill-rule="evenodd"
    clip-rule="evenodd"
    d="M3.04995 2.74995C3.04995 2.44619 2.80371 2.19995 2.49995 2.19995C2.19619 2.19995 1.94995 2.44619 1.94995 2.74995V12.25C1.94995 12.5537 2.19619 12.8 2.49995 12.8C2.80371 12.8 3.04995 12.5537 3.04995 12.25V2.74995ZM5.73333 2.30776C5.57835 2.22596 5.39185 2.23127 5.24177 2.32176C5.0917 2.41225 4.99995 2.57471 4.99995 2.74995V12.25C4.99995 12.4252 5.0917 12.5877 5.24177 12.6781C5.39185 12.7686 5.57835 12.7739 5.73333 12.6921L14.7333 7.94214C14.8973 7.85559 15 7.68539 15 7.49995C15 7.31452 14.8973 7.14431 14.7333 7.05776L5.73333 2.30776ZM5.99995 11.4207V3.5792L13.4287 7.49995L5.99995 11.4207Z"
    fill="currentColor"
  />
</svg>
