<svg width="15" height="15" viewBox="0 0 15 15" fill="none" xmlns="http://www.w3.org/2000/svg">
  <path
    fill-rule="evenodd"
    clip-rule="evenodd"
    d="M0.999878 0.5C0.999878 0.223858 1.22374 0 1.49988 0H13.4999C13.776 0 13.9999 0.223858 13.9999 0.5C13.9999 0.776142 13.776 1 13.4999 1H6H1.49988C1.22374 1 0.999878 0.776142 0.999878 0.5ZM9 14V1L6 1V14H1.49988C1.22374 14 0.999878 14.2239 0.999878 14.5C0.999878 14.7761 1.22374 15 1.49988 15H13.4999C13.776 15 13.9999 14.7761 13.9999 14.5C13.9999 14.2239 13.776 14 13.4999 14H9Z"
    fill="currentColor"
  />
</svg>
