<svg width="15" height="15" viewBox="0 0 15 15" fill="none" xmlns="http://www.w3.org/2000/svg">
  <path
    fill-rule="evenodd"
    clip-rule="evenodd"
    d="M5.00003 3.25C5.00003 2.97386 4.77617 2.75 4.50003 2.75C4.22389 2.75 4.00003 2.97386 4.00003 3.25V7.10003H2.49998C2.27906 7.10003 2.09998 7.27912 2.09998 7.50003C2.09998 7.72094 2.27906 7.90003 2.49998 7.90003H4.00003V8.55C4.00003 10.483 5.56703 12.05 7.50003 12.05C9.43303 12.05 11 10.483 11 8.55V7.90003H12.5C12.7209 7.90003 12.9 7.72094 12.9 7.50003C12.9 7.27912 12.7209 7.10003 12.5 7.10003H11V3.25C11 2.97386 10.7762 2.75 10.5 2.75C10.2239 2.75 10 2.97386 10 3.25V7.10003H5.00003V3.25ZM5.00003 7.90003V8.55C5.00003 9.93071 6.11932 11.05 7.50003 11.05C8.88074 11.05 10 9.93071 10 8.55V7.90003H5.00003Z"
    fill="currentColor"
  />
</svg>
