<svg width="15" height="15" viewBox="0 0 15 15" fill="none" xmlns="http://www.w3.org/2000/svg">
  <path
    fill-rule="evenodd"
    clip-rule="evenodd"
    d="M1.94976 2.74989C1.94976 2.44613 2.196 2.19989 2.49976 2.19989C2.80351 2.19989 3.04976 2.44613 3.04976 2.74989V7.2825C3.0954 7.18802 3.17046 7.10851 3.26662 7.05776L12.2666 2.30776C12.4216 2.22596 12.6081 2.23127 12.7582 2.32176C12.9083 2.41225 13 2.57471 13 2.74995V12.25C13 12.4252 12.9083 12.5877 12.7582 12.6781C12.6081 12.7686 12.4216 12.7739 12.2666 12.6921L3.26662 7.94214C3.17046 7.89139 3.0954 7.81188 3.04976 7.7174V12.2499C3.04976 12.5536 2.80351 12.7999 2.49976 12.7999C2.196 12.7999 1.94976 12.5536 1.94976 12.2499V2.74989ZM4.57122 7.49995L12 11.4207V3.5792L4.57122 7.49995Z"
    fill="currentColor"
  />
</svg>
