<svg width="15" height="15" viewBox="0 0 15 15" fill="none" xmlns="http://www.w3.org/2000/svg">
  <path
    fill-rule="evenodd"
    clip-rule="evenodd"
    d="M7.49985 0.877045C3.84216 0.877045 0.877014 3.84219 0.877014 7.49988C0.877014 9.1488 1.47963 10.657 2.47665 11.8162L1.64643 12.6464C1.45117 12.8417 1.45117 13.1583 1.64643 13.3535C1.8417 13.5488 2.15828 13.5488 2.35354 13.3535L3.18377 12.5233C4.34296 13.5202 5.85104 14.1227 7.49985 14.1227C11.1575 14.1227 14.1227 11.1575 14.1227 7.49988C14.1227 5.85107 13.5202 4.34299 12.5233 3.1838L13.3535 2.35354C13.5488 2.15827 13.5488 1.84169 13.3535 1.64643C13.1583 1.45117 12.8417 1.45117 12.6464 1.64643L11.8162 2.47668C10.657 1.47966 9.14877 0.877045 7.49985 0.877045ZM11.1422 3.15066C10.1567 2.32449 8.88639 1.82704 7.49985 1.82704C4.36683 1.82704 1.82701 4.36686 1.82701 7.49988C1.82701 8.88642 2.32446 10.1568 3.15063 11.1422L11.1422 3.15066ZM3.85776 11.8493C4.84317 12.6753 6.11343 13.1727 7.49985 13.1727C10.6328 13.1727 13.1727 10.6329 13.1727 7.49988C13.1727 6.11346 12.6753 4.8432 11.8493 3.85779L3.85776 11.8493Z"
    fill="currentColor"
  />
</svg>
