<svg width="14" height="12" viewBox="0 0 14 12" fill="none" xmlns="http://www.w3.org/2000/svg">
<path d="M3.14992 9.84972C1.99189 9.84972 1.04997 8.90759 1.04997 7.74977C1.04997 6.87042 1.61368 6.07944 2.45278 5.78173L3.15692 5.53193L3.15307 4.98616L2.15704 4.18643C2.12729 4.39861 2.10016 4.59111 2.1017 4.79235C0.880227 5.22546 0 6.38043 0 7.74977C0 9.48879 1.41024 10.8997 3.14992 10.8997H10.6988L9.3592 9.84972H3.14992ZM13.0569 10.0816C13.6343 9.5391 13.9996 8.77787 13.9996 7.92477C13.9996 6.58321 13.1056 5.46171 11.8855 5.09203C11.8888 5.04391 11.8997 4.99797 11.8997 4.94985C11.8997 3.59582 10.8038 2.49991 9.44976 2.49991C9.20017 2.49991 8.96436 2.54819 8.73752 2.61753C8.06948 1.70171 6.99544 1.09995 5.77485 1.09995C4.71394 1.09995 3.76678 1.55668 3.1018 2.27679L0.849166 0.51172C0.752699 0.436537 0.638515 0.399963 0.525643 0.399963C0.369897 0.399963 0.215398 0.468999 0.112194 0.600946C-0.0669139 0.82914 -0.0272556 1.15944 0.201048 1.33816L13.1509 11.4881C13.3806 11.6676 13.71 11.6265 13.8879 11.3989C14.067 11.1705 14.0273 10.8405 13.799 10.6617L13.0569 10.0816ZM12.2169 9.42317L3.92865 2.92427C4.40114 2.44916 5.05081 2.14992 5.77485 2.14992C6.61483 2.14992 7.38547 2.54585 7.88923 3.23642L8.32979 3.84016L9.04442 3.62167C10.1132 3.29487 10.8869 4.18078 10.8373 5.03039L10.7893 5.85549L11.58 6.09589C12.3984 6.34544 12.9497 7.08042 12.9497 7.92477C12.9497 8.53288 12.6609 9.0688 12.2169 9.42317Z" fill="#B3B3B3"/>
</svg>
