<svg width="12" height="12" viewBox="0 0 12 12" fill="none" xmlns="http://www.w3.org/2000/svg">
<path d="M6 3.04688C5.00332 3.04688 4.19531 3.85488 4.19531 4.85156C4.19531 5.84824 5.00332 6.65625 6 6.65625C6.99668 6.65625 7.80469 5.84824 7.80469 4.85156C7.80469 3.85488 6.99668 3.04688 6 3.04688ZM6 5.67188C5.5476 5.67188 5.17969 5.30376 5.17969 4.85156C5.17969 4.39834 5.54678 4.03125 6 4.03125C6.45322 4.03125 6.82031 4.39916 6.82031 4.85156C6.82031 5.30479 6.45322 5.67188 6 5.67188ZM6 0.75C3.1002 0.75 0.75 3.1002 0.75 6C0.75 8.8998 3.1002 11.25 6 11.25C8.8998 11.25 11.25 8.8998 11.25 6C11.25 3.1002 8.8998 0.75 6 0.75ZM6 10.2656C5.04167 10.2656 4.15922 9.94406 3.44678 9.4086C3.80156 8.72754 4.49062 8.29688 5.26582 8.29688H6.73603C7.5102 8.29688 8.19844 8.72774 8.55466 9.4086C7.8416 9.94365 6.95771 10.2656 6 10.2656ZM9.28535 8.71729C8.73164 7.85186 7.78828 7.3125 6.73418 7.3125H5.26582C4.21254 7.3125 3.26938 7.85083 2.71465 8.71688C2.1027 7.979 1.73438 7.03154 1.73438 6C1.73438 3.64775 3.64796 1.73438 6 1.73438C8.35204 1.73438 10.2656 3.64796 10.2656 6C10.2656 7.03154 9.89648 7.979 9.28535 8.71729Z" fill="white"/>
</svg>
