<svg width="16" height="16" viewBox="0 0 16 16" fill="none" xmlns="http://www.w3.org/2000/svg">
<path d="M9.3125 9.3125H6.6875C4.02969 9.3125 1.875 11.4672 1.875 14.125C1.875 14.6082 2.26684 15 2.75 15H13.25C13.7332 15 14.125 14.6082 14.125 14.125C14.125 11.4672 11.9703 9.3125 9.3125 9.3125ZM3.21457 13.6875C3.43059 11.9621 4.90469 10.625 6.6875 10.625H9.3125C11.0942 10.625 12.5691 11.9635 12.7852 13.6875H3.21457ZM8 8C9.93293 8 11.5 6.43293 11.5 4.5C11.5 2.56707 9.93293 1 8 1C6.06707 1 4.5 2.56707 4.5 4.5C4.5 6.4332 6.0668 8 8 8ZM8 2.3125C9.20613 2.3125 10.1875 3.29387 10.1875 4.5C10.1875 5.70613 9.20613 6.6875 8 6.6875C6.79387 6.6875 5.8125 5.70586 5.8125 4.5C5.8125 3.29387 6.79414 2.3125 8 2.3125Z" fill="#9BA8BE"/>
</svg>
