<svg width="10" height="10" viewBox="0 0 10 10" fill="none" xmlns="http://www.w3.org/2000/svg">
<path fill-rule="evenodd" clip-rule="evenodd" d="M0.720011 0.72003C0.860631 0.57958 1.05126 0.50069 1.25001 0.50069C1.44876 0.50069 1.63938 0.57958 1.78001 0.72003L5.00001 3.94003L8.22001 0.72003C8.28871 0.64634 8.37151 0.58724 8.46351 0.54625C8.55551 0.50526 8.65481 0.48322 8.75551 0.48144C8.85621 0.47966 8.95621 0.49819 9.04961 0.53591C9.14301 0.57363 9.22781 0.62977 9.29901 0.70099C9.37031 0.77221 9.42641 0.85705 9.46411 0.95043C9.50181 1.04382 9.52041 1.14385 9.51861 1.24455C9.51681 1.34526 9.49481 1.44457 9.45381 1.53657C9.41281 1.62857 9.35371 1.71137 9.28001 1.78003L6.06001 5.00003L9.28001 8.22003C9.35371 8.28873 9.41281 8.37153 9.45381 8.46353C9.49481 8.55553 9.51681 8.65483 9.51861 8.75553C9.52041 8.85623 9.50181 8.95623 9.46411 9.04963C9.42641 9.14303 9.37031 9.22783 9.29901 9.29903C9.22781 9.37033 9.14301 9.42643 9.04961 9.46413C8.95621 9.50183 8.85621 9.52043 8.75551 9.51863C8.65481 9.51683 8.55551 9.49483 8.46351 9.45383C8.37151 9.41283 8.28871 9.35373 8.22001 9.28003L5.00001 6.06003L1.78001 9.28003C1.63783 9.41253 1.44978 9.48463 1.25548 9.48123C1.06118 9.47773 0.875801 9.39903 0.738381 9.26163C0.600971 9.12423 0.522261 8.93883 0.518831 8.74453C0.515401 8.55023 0.587531 8.36223 0.720011 8.22003L3.94001 5.00003L0.720011 1.78003C0.579561 1.63941 0.500671 1.44878 0.500671 1.25003C0.500671 1.05128 0.579561 0.86066 0.720011 0.72003Z" fill="#000000"/>
</svg>
