<svg width="24" height="24" viewBox="0 0 24 24" fill="none" xmlns="http://www.w3.org/2000/svg">
<path d="M6.87348 15.1266C4.04217 12.2953 4.04217 7.70484 6.87348 4.87354M17.1265 4.87354C19.9578 7.70484 19.9578 12.2953 17.1265 15.1266" stroke="#636B78" stroke-width="1.5" stroke-linecap="round" stroke-linejoin="round"/>
<path d="M8.9948 13.0052C7.33507 11.3454 7.33507 8.65448 8.9948 6.99475M15.0052 6.99475C16.6649 8.65448 16.6649 11.3454 15.0052 13.0052" stroke="#636B78" stroke-width="1.5" stroke-linecap="round" stroke-linejoin="round"/>
<path d="M12.5 10C12.5 10.2761 12.2761 10.5 12 10.5C11.7239 10.5 11.5 10.2761 11.5 10C11.5 9.72386 11.7239 9.5 12 9.5C12.2761 9.5 12.5 9.72386 12.5 10Z" stroke="#636B78" stroke-linecap="round" stroke-linejoin="round"/>
<path d="M12 13.75V19.25" stroke="#636B78" stroke-width="1.5" stroke-linecap="round" stroke-linejoin="round"/>
</svg>
