<svg width="16" height="16" viewBox="0 0 16 16" fill="none" xmlns="http://www.w3.org/2000/svg">
<path d="M8.01234 1.86426C4.13913 1.86426 1.00077 4.41444 1.00077 7.56176C1.00077 8.86644 1.54614 10.0613 2.45007 11.0186C2.04248 12.1006 1.19361 13.0149 1.17991 13.0251C0.998442 13.2168 0.950506 13.4976 1.05323 13.7373C1.15939 13.9769 1.39392 14.1358 1.65743 14.1358C3.34203 14.1358 4.64588 13.4305 5.46764 12.8689C6.23461 13.1168 7.11663 13.2593 8.01234 13.2593C11.8855 13.2593 15 10.7083 15 7.56176C15 4.41526 11.8855 1.86426 8.01234 1.86426ZM8.01508 11.9445C7.28235 11.9445 6.56002 11.8315 5.86811 11.6125L5.24494 11.4173L4.7108 11.7939C4.32047 12.0711 3.78276 12.3796 3.13577 12.5883C3.33778 12.2563 3.52939 11.883 3.68032 11.4858L3.97122 10.7188L3.4064 10.1198C2.91252 9.5915 2.31675 8.7177 2.31675 7.56176C2.31675 5.14443 4.87104 3.17907 8.01426 3.17907C11.1575 3.17907 13.7118 5.14443 13.7118 7.56176C13.7118 9.97909 11.1569 11.9445 8.01508 11.9445Z" fill="#7E7E83"/>
</svg>
