<svg width="12" height="12" viewBox="0 0 12 12" fill="none" xmlns="http://www.w3.org/2000/svg">
<path d="M11.0893 10.4092L8.34129 7.66113C8.93602 6.93311 9.26414 6.01641 9.26414 5.01562C9.26414 2.65928 7.35425 0.75 4.99851 0.75C2.64278 0.75 0.751343 2.65989 0.751343 5.01562C0.751343 7.37136 2.66103 9.28125 4.99851 9.28125C5.99909 9.28125 6.91702 8.93446 7.64402 8.35758L10.3921 11.1056C10.5069 11.2028 10.6341 11.25 10.7592 11.25C10.8843 11.25 11.011 11.2019 11.1072 11.1058C11.2985 10.9137 11.2985 10.602 11.0893 10.4092ZM1.73572 5.01562C1.73572 3.20643 3.20777 1.73438 5.01697 1.73438C6.82617 1.73438 8.29822 3.20643 8.29822 5.01562C8.29822 6.82482 6.82617 8.29688 5.01697 8.29688C3.20777 8.29688 1.73572 6.82441 1.73572 5.01562Z" fill="white" fill-opacity="0.5"/>
</svg>
