<svg width="9" height="9" viewBox="0 0 9 9" fill="none" xmlns="http://www.w3.org/2000/svg">
<path d="M4.5 9C4.11176 9 3.72353 8.95294 3.33529 8.85882C2.94706 8.75294 2.58235 8.6 2.24118 8.4C1.9 8.2 1.58824 7.96471 1.30588 7.69412C1.03529 7.41177 0.8 7.1 0.6 6.75882C0.4 6.41765 0.247059 6.05294 0.141177 5.66471C0.0470589 5.27647 0 4.88824 0 4.5C0 4.11176 0.0470589 3.72353 0.141177 3.33529C0.247059 2.94706 0.4 2.58235 0.6 2.24118C0.8 1.9 1.03529 1.59412 1.30588 1.32353C1.58824 1.04118 1.9 0.799999 2.24118 0.599999C2.58235 0.4 2.94706 0.252941 3.33529 0.158823C3.72353 0.0529408 4.11176 0 4.5 0C4.88824 0 5.27647 0.0529408 5.66471 0.158823C6.05294 0.252941 6.41765 0.4 6.75882 0.599999C7.1 0.799999 7.40588 1.04118 7.67647 1.32353C7.95882 1.59412 8.2 1.9 8.4 2.24118C8.6 2.58235 8.74706 2.94706 8.84118 3.33529C8.94706 3.72353 9 4.11176 9 4.5C9 4.88824 8.94706 5.27647 8.84118 5.66471C8.74706 6.05294 8.6 6.41765 8.4 6.75882C8.2 7.1 7.95882 7.41177 7.67647 7.69412C7.40588 7.96471 7.1 8.2 6.75882 8.4C6.41765 8.6 6.05294 8.75294 5.66471 8.85882C5.27647 8.95294 4.88824 9 4.5 9ZM1.97647 5.92941L6.03529 1.88823C5.81176 1.72353 5.56471 1.6 5.29412 1.51765C5.03529 1.43529 4.77059 1.39412 4.5 1.39412C4.11176 1.39412 3.73529 1.48235 3.37059 1.65882C3.01765 1.82353 2.71177 2.05294 2.45294 2.34706C2.19412 2.64118 1.99412 2.97647 1.85294 3.35294C1.72353 3.72941 1.65882 4.11176 1.65882 4.5C1.65882 4.74706 1.68235 4.99412 1.72941 5.24118C1.78824 5.47647 1.87059 5.70588 1.97647 5.92941ZM4.5 7.60588C4.88824 7.60588 5.25882 7.52353 5.61176 7.35882C5.97647 7.18235 6.28824 6.94706 6.54706 6.65294C6.80588 6.35882 7 6.02353 7.12941 5.64706C7.27059 5.27059 7.34118 4.88824 7.34118 4.5C7.34118 4.25294 7.31177 4.01177 7.25294 3.77647C7.20588 3.52941 7.12941 3.29412 7.02353 3.07059L2.96471 7.11177C3.18824 7.27647 3.42941 7.4 3.68824 7.48235C3.95882 7.56471 4.22941 7.60588 4.5 7.60588Z" fill="white"/>
</svg>

