<svg width="10" height="10" viewBox="0 0 10 10" fill="none" xmlns="http://www.w3.org/2000/svg">
<path d="M0.577381 9.14286C0.414683 9.14286 0.277778 9.0873 0.166667 8.97619C0.0555556 8.86508 0 8.72817 0 8.56548C0 8.50992 0.00793651 8.45635 0.0238095 8.40476C0.0396825 8.35317 0.0595238 8.30556 0.0833333 8.2619L4.44643 0.369048C4.58135 0.123016 4.76587 0 5 0C5.23413 0 5.41865 0.123016 5.55357 0.369048L9.91667 8.2619C9.94048 8.30556 9.96032 8.35317 9.97619 8.40476C9.99206 8.45635 10 8.50992 10 8.56548C10 8.72817 9.94444 8.86508 9.83333 8.97619C9.72222 9.0873 9.58532 9.14286 9.42262 9.14286H0.577381ZM5.9881 2.40476H4.01786V3.77976L4.31548 5.61905H5.69048L5.9881 3.77976V2.40476ZM6 7.375C6 7.09722 5.90079 6.8631 5.70238 6.67262C5.50794 6.47817 5.27381 6.38095 5 6.38095C4.72619 6.38095 4.49206 6.47817 4.29762 6.67262C4.10714 6.8631 4.0119 7.09722 4.0119 7.375C4.0119 7.64881 4.10714 7.88095 4.29762 8.07143C4.49206 8.2619 4.72619 8.35714 5 8.35714C5.27381 8.35714 5.50794 8.2619 5.70238 8.07143C5.90079 7.88095 6 7.64881 6 7.375Z" fill="white"/>
</svg>
