<svg width="12" height="10" viewBox="0 0 12 10" fill="none" xmlns="http://www.w3.org/2000/svg">
<path d="M11.1329 8.29967L6.76186 0.840494C6.59383 0.553602 6.29874 0.410156 6.00365 0.410156C5.70856 0.410156 5.41347 0.553602 5.22699 0.840494L0.858047 8.29967C0.540622 8.87141 0.959504 9.59068 1.63347 9.59068H10.3755C11.0468 9.59068 11.4669 8.87346 11.1329 8.29967ZM1.83512 8.60706L5.98521 1.49215L10.1718 8.60706H1.83512ZM6.00365 6.66234C5.64791 6.66234 5.35937 6.95087 5.35937 7.30662C5.35937 7.66236 5.64852 7.95089 6.00447 7.95089C6.36042 7.95089 6.64793 7.66236 6.64793 7.30662C6.64711 6.95128 6.36022 6.66234 6.00365 6.66234ZM5.51184 3.52498V5.49223C5.51184 5.76478 5.73315 5.98405 6.00365 5.98405C6.27415 5.98405 6.49546 5.76376 6.49546 5.49223V3.52498C6.49546 3.25448 6.2762 3.03316 6.00365 3.03316C5.7311 3.03316 5.51184 3.25448 5.51184 3.52498Z" fill="white"/>
</svg>
