<svg width="11" height="11" viewBox="0 0 11 11" fill="none" xmlns="http://www.w3.org/2000/svg">
<g clip-path="url(#clip0_2050_903)">
<path d="M1.83327 2.89393L1.19687 3.53033L1.83327 4.16672L3.16654 5.5L1.83327 6.83327L1.19687 7.46967L1.83327 8.10606L2.89393 9.16672L3.53033 9.80312L4.16672 9.16672L5.5 7.83345L6.83327 9.16672L7.46967 9.80312L8.10606 9.16672L9.16672 8.10606L9.80312 7.46967L9.16672 6.83327L7.83345 5.5L9.16672 4.16672L9.80312 3.53033L9.16672 2.89393L8.10606 1.83327L7.46967 1.19687L6.83327 1.83327L5.5 3.16654L4.16672 1.83327L3.53033 1.19687L2.89393 1.83327L1.83327 2.89393Z" stroke="black" stroke-width="1.8"/>
</g>
<defs>
<clipPath id="clip0_2050_903">
<rect width="11" height="11" fill="white"/>
</clipPath>
</defs>
</svg>
