<svg width="11" height="11" viewBox="0 0 11 11" fill="none" xmlns="http://www.w3.org/2000/svg">
<path d="M2.37637 1.75164C2.21069 1.75164 2.05179 1.81746 1.93463 1.93462C1.81747 2.05178 1.75165 2.21068 1.75165 2.37637V3.00109C1.75165 3.16678 1.81747 3.32568 1.93463 3.44284C2.05179 3.56 2.21069 3.62582 2.37637 3.62582H8.62364C8.78933 3.62582 8.94823 3.56 9.06539 3.44284C9.18255 3.32568 9.24837 3.16678 9.24837 3.00109V2.37637C9.24837 2.21068 9.18255 2.05178 9.06539 1.93462C8.94823 1.81746 8.78933 1.75164 8.62364 1.75164H2.37637Z" fill="#C6CAD0"/>
<path fill-rule="evenodd" clip-rule="evenodd" d="M2.37634 4.77041H8.62361V7.99891C8.62361 8.33028 8.49197 8.64808 8.25765 8.8824C8.02334 9.11672 7.70553 9.24836 7.37416 9.24836H3.6258C3.29442 9.24836 2.97662 9.11672 2.7423 8.8824C2.50798 8.64808 2.37634 8.33028 2.37634 7.99891L2.37634 4.77041ZM3.80699 6.39988C3.80699 6.23151 3.87388 6.07002 3.99294 5.95096C4.112 5.8319 4.27348 5.76501 4.44186 5.76501H6.55809C6.72647 5.76501 6.88795 5.8319 7.00701 5.95096C7.12607 6.07002 7.19296 6.23151 7.19296 6.39988C7.19296 6.56826 7.12607 6.72974 7.00701 6.8488C6.88795 6.96786 6.72647 7.03475 6.55809 7.03475H4.44186C4.27348 7.03475 4.112 6.96786 3.99294 6.8488C3.87388 6.72974 3.80699 6.56826 3.80699 6.39988Z" fill="#C6CAD0"/>
</svg>
