<svg width="16" height="16" viewBox="0 0 16 16" fill="none" xmlns="http://www.w3.org/2000/svg">
    <path d="M13.1464 9.85355L12.3536 10.6464C12.1583 10.8417 12.1583 11.1583 12.3536 11.3536L13.1464 12.1464C13.4614 12.4614 14 12.2383 14 11.7929V10.2071C14 9.76165 13.4614 9.53857 13.1464 9.85355Z" fill="black"/>
    <path d="M12.6464 8.35355L11.3536 9.64645C11.1583 9.84171 10.8417 9.84171 10.6464 9.64645L9.35355 8.35355C9.15829 8.15829 9.15829 7.84171 9.35355 7.64645L10.6464 6.35355C10.8417 6.15829 11.1583 6.15829 11.3536 6.35355L12.6464 7.64645C12.8417 7.84171 12.8417 8.15829 12.6464 8.35355Z" fill="black"/>
    <path d="M14 2.5V5.79289C14 6.23835 13.4614 6.46143 13.1464 6.14645L9.85355 2.85355C9.53857 2.53857 9.76165 2 10.2071 2H13.5C13.7761 2 14 2.22386 14 2.5Z" fill="black"/>
    <path d="M8.14645 3.14645L7.14645 2.14645C7.05268 2.05268 6.9255 2 6.79289 2H4.20711C3.76165 2 3.53857 2.53857 3.85355 2.85355L4.85355 3.85355C4.94732 3.94732 5.0745 4 5.20711 4H7.79289C8.23835 4 8.46143 3.46143 8.14645 3.14645Z" fill="black"/>
    <path d="M7.20711 5H8.79289C9.23835 5 9.46143 5.53857 9.14645 5.85355L8.35355 6.64645C8.15829 6.84171 7.84171 6.84171 7.64645 6.64645L6.85355 5.85355C6.53857 5.53857 6.76165 5 7.20711 5Z" fill="black"/>
    <path d="M12.1464 13.1464L8.35355 9.35355C8.15829 9.15829 7.84171 9.15829 7.64645 9.35355L3.85355 13.1464C3.53857 13.4614 3.76165 14 4.20711 14H11.7929C12.2383 14 12.4614 13.4614 12.1464 13.1464Z" fill="black"/>
    <path d="M6.64645 8.35355L2.85355 12.1464C2.53857 12.4614 2 12.2383 2 11.7929V4.20711C2 3.76165 2.53857 3.53857 2.85355 3.85355L6.64645 7.64645C6.84171 7.84171 6.84171 8.15829 6.64645 8.35355Z" fill="black"/>
</svg>
