<svg width="16" height="16" viewBox="0 0 16 16" fill="none" xmlns="http://www.w3.org/2000/svg">
<path d="M7.42822 6.40604C7.42822 6.18332 7.15894 6.07178 7.00145 6.22927L5.40749 7.82322C5.30986 7.92085 5.30986 8.07915 5.40749 8.17678L7.00145 9.77073C7.15894 9.92822 7.42822 9.81668 7.42822 9.59396V6.40604Z" fill="black"/>
<path d="M6.95742 2.4248C7.13112 2.2511 7.42812 2.37412 7.42812 2.61977V4.10981C7.42812 4.37502 7.32276 4.62938 7.13523 4.81691L4.65937 7.2928C4.26885 7.68332 4.26885 8.31648 4.65938 8.70701L7.13523 11.1829C7.32276 11.3704 7.42812 11.6247 7.42812 11.89V13.38C7.42812 13.6256 7.13112 13.7486 6.95742 13.5749L1.57734 8.19486C1.46966 8.08718 1.46966 7.91259 1.57734 7.80491L6.95742 2.4248Z" fill="black"/>
<path d="M9.04706 2.4293C8.87336 2.2556 8.57636 2.37863 8.57636 2.62428V4.11431C8.57636 4.37953 8.68172 4.63388 8.86925 4.82142L11.3406 7.29281C11.7311 7.68334 11.7311 8.3165 11.3406 8.70703L8.86926 11.1784C8.68172 11.3659 8.57636 11.6203 8.57636 11.8855V13.3755C8.57636 13.6211 8.87336 13.7442 9.04706 13.5705L14.4227 8.19487C14.5303 8.0872 14.5303 7.91261 14.4227 7.80493L9.04706 2.4293Z" fill="black"/>
</svg>
