<svg width="16" height="16" viewBox="0 0 16 16" fill="none" xmlns="http://www.w3.org/2000/svg">
<path fill-rule="evenodd" clip-rule="evenodd" d="M4 2C2.89543 2 2 2.89543 2 4V12C2 13.1046 2.89543 14 4 14H12C13.1046 14 14 13.1046 14 12V4C14 2.89543 13.1046 2 12 2H4ZM11.5104 8.67022C11.4887 8.45185 11.3958 8.28222 11.2315 8.1613C11.0673 8.04039 10.8444 7.97993 10.5629 7.97993C10.3716 7.97993 10.2101 8.007 10.0784 8.06114C9.94662 8.11348 9.84555 8.18657 9.77517 8.28041C9.70659 8.37425 9.67231 8.48073 9.67231 8.59984C9.6687 8.69909 9.68945 8.78572 9.73457 8.85971C9.78149 8.9337 9.84555 8.99777 9.92676 9.05191C10.008 9.10424 10.1018 9.15026 10.2083 9.18996C10.3148 9.22786 10.4285 9.26035 10.5494 9.28742L11.0475 9.40652C11.2893 9.46066 11.5113 9.53285 11.7134 9.62308C11.9155 9.71332 12.0906 9.8243 12.2385 9.95604C12.3865 10.0878 12.5011 10.243 12.5823 10.4216C12.6653 10.6003 12.7078 10.8051 12.7096 11.0361C12.7078 11.3754 12.6211 11.6696 12.4497 11.9186C12.2801 12.1659 12.0346 12.3581 11.7134 12.4952C11.394 12.6306 11.0087 12.6982 10.5575 12.6982C10.1099 12.6982 9.72013 12.6297 9.38807 12.4925C9.05782 12.3553 8.79975 12.1523 8.61387 11.8834C8.42979 11.6127 8.33324 11.278 8.32422 10.8791H9.45845C9.47109 11.065 9.52432 11.2202 9.61817 11.3447C9.71381 11.4675 9.84104 11.5604 9.99985 11.6236C10.1605 11.6849 10.3418 11.7156 10.544 11.7156C10.7425 11.7156 10.9148 11.6867 11.061 11.629C11.209 11.5712 11.3236 11.4909 11.4048 11.388C11.486 11.2852 11.5266 11.167 11.5266 11.0334C11.5266 10.9089 11.4896 10.8042 11.4156 10.7194C11.3434 10.6346 11.237 10.5624 11.0962 10.5029C10.9572 10.4433 10.7867 10.3892 10.5846 10.3404L9.9809 10.1888C9.5135 10.0752 9.14444 9.89739 8.87374 9.65557C8.60304 9.41374 8.46859 9.088 8.4704 8.67834C8.46859 8.34267 8.55792 8.04941 8.73839 7.79857C8.92066 7.54772 9.17061 7.35191 9.48823 7.21115C9.80585 7.07038 10.1668 7 10.571 7C10.9825 7 11.3416 7.07038 11.6484 7.21115C11.957 7.35191 12.197 7.54772 12.3685 7.79857C12.5399 8.04941 12.6284 8.33996 12.6338 8.67022H11.5104ZM3.19995 8.04223V7.07583H7.75313V8.04223H6.05584V12.6198H4.89724V8.04223H3.19995Z" fill="black"/>
</svg>
