/* XPM */
static char * error_xpm[] = {
/* width height ncolors cpp [x_hot y_hot] */
"34 34 4 1 0 0",
/* colors */
" 	s none	m none	c none",
".	s iconColor3	m black	c #FF0000",
"X	s bottomShadowColor	m black	c #5D6069",
"o	s iconColor2	m white	c #FFFFFF",
/* pixels */
"                                  ",
"            ........              ",
"          ............            ",
"        ................          ",
"       ..................         ",
"      ....................X       ",
"     ......................X      ",
"    ........................X     ",
"   .......o..........o.......X    ",
"   ......ooo........ooo......X    ",
"  ......ooooo......ooooo......X   ",
"  .......ooooo....ooooo.......X   ",
" .........ooooo..ooooo.........X  ",
" ..........oooooooooo..........X  ",
" ...........oooooooo...........XX ",
" ............oooooo............XX ",
" ............oooooo............XX ",
" ...........oooooooo...........XX ",
" ..........oooooooooo..........XX ",
" .........ooooo..ooooo.........XX ",
"  .......ooooo....ooooo.......XX  ",
"  ......ooooo......ooooo......XX  ",
"   ......ooo........ooo......XXX  ",
"   .......o..........o.......XX   ",
"    ........................XXX   ",
"     ......................XXX    ",
"     X....................XXX     ",
"      X..................XXX      ",
"       X................XXX       ",
"        XX............XXXX        ",
"          XX........XXXXX         ",
"            XXXXXXXXXXX           ",
"              XXXXXXX             ",
"                                  "};
