/* XPM */
static char * tb_exit_xpm[] = {
/* width height ncolors cpp [x_hot y_hot] */
"18 18 9 1 0 0",
/* colors */
" 	s none	m none	c none",
".	s iconColor1	m black	c #000000",
"X	s iconColor2	m none	c #FFFFFF",
"o	s bottomShadowColor	m black	c #5D6069",
"O	s iconColor3	m black	c #FF0000",
"+	s iconGray3	m none	c #adadad",
"@	s iconGray4	m none	c #949494",
"#	s iconGray5	m black	c #737373",
"$	s iconGray6	m black	c #636363",
/* pixels */
"                  ",
"                  ",
"        ........  ",
"        .XXXXXX.o ",
"        .XXXXXX.o ",
"      ...XXXXXX.o ",
"      .O.XXXXXX.o ",
" ......OO.XX..X.o ",
" .OOOOOOOO.X..X.o ",
" .OOOOOOOO.XXXX.o ",
" ......OO.XXXXX.o ",
"      .O.XXXXX+.o ",
"      ...XXXX++.o ",
"        .XX++@#.o ",
"        .X+@##$.o ",
"        ........o ",
"          ooooooo ",
"                  "};
