/* XPM */
static char * tb_jump_xpm[] = {
/* width height ncolors cpp [x_hot y_hot] */
"18 18 6 1 0 0",
/* colors */
" 	s none	m none	c none",
".	m black	c #888800",
"X	s bottomShadowColor	m black	c #5D6069",
"o	s iconColor6	m none	c #FFFF00",
"O	s iconColor1	m black	c #000000",
"+	s topShadowColor	m none	c #DCDEE5",
/* pixels */
"                  ",
"                  ",
"                  ",
"                  ",
"   .............. ",
"  .XooooooooooooOX",
" .XoooooooooooooOX",
".Xo+X+ooooooooooOX",
".ooXOXooooooooooOX",
"Xoo+X+ooooooooooOX",
"XOooooooooooooooOX",
" XOoooooooooooooOX",
"  XOOOOOOOOOOOOOOX",
"   XXXXXXXXXXXXXXX",
"                  ",
"                  ",
"                  ",
"                  "};
