/* XPM */
static char * tb_minimize_xpm[] = {
/* width height ncolors cpp [x_hot y_hot] */
"18 18 5 1 0 0",
/* colors */
" 	s none	m none	c none",
".	s iconColor1	m black	c #000000",
"X	s topShadowColor	m none	c #DCDEE5",
"o	s iconColor2	m none	c #FFFFFF",
"O	s bottomShadowColor	m black	c #5D6069",
/* pixels */
"                  ",
"      .....       ",
"       ...        ",
"        .         ",
"                  ",
" X.............   ",
" X.XXXXXXXXXXo.   ",
" X.XXoXXXXXXXo.O  ",
" X.XXXXXXXXXXo.O  ",
" X.XXXXXXXXXoo.O  ",
" X.ooooooooooo.O  ",
" X.............O  ",
"    OOOOOOOOOOOO  ",
"                  ",
"        .         ",
"       ...        ",
"      .....       ",
"                  "};
