/* XPM */
static char * tb_open_xpm[] = {
/* width height ncolors cpp [x_hot y_hot] */
"18 18 7 1 0 0",
/* colors */
" 	s none	m none	c none",
".	s iconColor1	m black	c #000000",
"X	s bottomShadowColor	m black	c #5D6069",
"o	s iconColor2	m none	c #FFFFFF",
"O	s iconGray1	m none	c #dedede",
"+	s iconGray5	m black	c #737373",
"@	s iconGray3	m none	c #adadad",
/* pixels */
"                  ",
"    .........X    ",
"    .oooooo.o.X   ",
"    .oooooo.oo.X  ",
"    .oooooo....X  ",
"  ...ooooooooo... ",
"  .O.OOOOOOOOo.+. ",
".............O.+.X",
".oooooooooooo..+.X",
" .o@@@@@@@@@@+.+.X",
" .o@@@@@@@@@@@.+.X",
"  .o@@@@@@@@@@+..X",
"  .o@@@@@@@@@@@..X",
"   .o+++++++++++.X",
"   ..............X",
"     XXXXXXXXXXXXX",
"                  ",
"                  "};
