/* XPM */
static char * tb_save_xpm[] = {
/* width height ncolors cpp [x_hot y_hot] */
"18 18 5 1 0 0",
/* colors */
" 	s none	m none	c none",
".	s iconColor1	m black	c #000000",
"X	s iconGray2	m none	c #bdbdbd",
"o	s iconColor2	m none	c #FFFFFF",
"O	s bottomShadowColor	m black	c #5D6069",
/* pixels */
"                  ",
" ..............   ",
" .X.oooooooo.o.   ",
" .X.oooooooo...O  ",
" .X.oooooooo.X.O  ",
" .X.oooooooo.X.O  ",
" .X.oooooooo.X.O  ",
" .X.oooooooo.X.O  ",
" .XX........XX.O  ",
" .XXXXXXXXXXXX.O  ",
" .XX.........X.O  ",
" .XX......oo.X.O  ",
" .XX......oo.X.O  ",
" .XX......oo.X.O  ",
"  .............O  ",
"   OOOOOOOOOOOOO  ",
"                  ",
"                  "};
