/* XPM */
static char * tb_shell_xpm[] = {
/* width height ncolors cpp [x_hot y_hot] */
"18 18 6 1 0 0",
/* colors */
" 	s none	m none	c none",
".	s iconColor1	m black	c #000000",
"X	s iconGray6	m black	c #636363",
"o	s iconGray2	m none	c #bdbdbd",
"O	s iconColor2	m none	c #FFFFFF",
"+	s bottomShadowColor	m black	c #5D6069",
/* pixels */
"                  ",
"     ... ...      ",
"    .XoXXXoX.     ",
"   .oOoX.XoOo.    ",
"   .XoOoXoOoX.    ",
"  .Xoooo.ooooX.   ",
" .Xo.XOoXoOX.oX.  ",
" .oooXOo.oOXooo.  ",
" .oOo.XOXOX.oOo.+ ",
" .XoOo.o.o.oOoX.+ ",
"  .XooXoooXoOX.+  ",
"   .XoooOoooX.+   ",
"    .ooOOOoo.+    ",
"    ..XoooX..+    ",
"   .XoooooooX.+   ",
"   ...........+   ",
"     ++++++++++   ",
"                  "};
