<?xml version="1.0" encoding="UTF-8"?>
<svg width="32px" height="32px" viewBox="0 0 32 32" version="1.1" xmlns="http://www.w3.org/2000/svg" xmlns:xlink="http://www.w3.org/1999/xlink">
    <!-- Generator: Sketch 59.1 (86144) - https://sketch.com -->
    <title>anchor_dark</title>
    <desc>Created with Sketch.</desc>
    <g id="anchor_dark" stroke="none" stroke-width="1" fill="none" fill-rule="evenodd" fill-opacity="0.16">
        <g id="anchor" transform="translate(4.000000, 4.000000)" fill="#F0F4F8" fill-rule="nonzero">
            <path d="M13.5,20.3680668 C16.9921024,19.7462957 19.7462957,16.9921024 20.3680668,13.5 L19,13.5 C18.1715729,13.5 17.5,12.8284271 17.5,12 C17.5,11.1715729 18.1715729,10.5 19,10.5 L22,10.5 C22.8284271,10.5 23.5,11.1715729 23.5,12 C23.5,18.3512746 18.3512746,23.5 12,23.5 C5.64872538,23.5 0.5,18.3512746 0.5,12 C0.5,11.1715729 1.17157288,10.5 2,10.5 L5,10.5 C5.82842712,10.5 6.5,11.1715729 6.5,12 C6.5,12.8284271 5.82842712,13.5 5,13.5 L3.63193315,13.5 C4.25370429,16.9921024 7.00789762,19.7462957 10.5,20.3680668 L10.5,9.24394144 C8.75221144,8.62618683 7.5,6.95932824 7.5,5 C7.5,2.51471863 9.51471863,0.5 12,0.5 C14.4852814,0.5 16.5,2.51471863 16.5,5 C16.5,6.95932824 15.2477886,8.62618683 13.5,9.24394144 L13.5,20.3680668 Z M12,6.5 C12.8284271,6.5 13.5,5.82842712 13.5,5 C13.5,4.17157288 12.8284271,3.5 12,3.5 C11.1715729,3.5 10.5,4.17157288 10.5,5 C10.5,5.82842712 11.1715729,6.5 12,6.5 Z" id="Shape"></path>
        </g>
    </g>
</svg>