<?xml version="1.0" encoding="UTF-8"?>
<svg width="32px" height="32px" viewBox="0 0 32 32" version="1.1" xmlns="http://www.w3.org/2000/svg" xmlns:xlink="http://www.w3.org/1999/xlink">
    <!-- Generator: Sketch 59.1 (86144) - https://sketch.com -->
    <title>archive_dark</title>
    <desc>Created with Sketch.</desc>
    <g id="archive_dark" stroke="none" stroke-width="1" fill="none" fill-rule="evenodd">
        <g id="archive" transform="translate(3.000000, 5.000000)">
            <path d="M20.5,8.5 L5.5,8.5 L5.5,18.5 L20.5,18.5 L20.5,8.5 Z M23.5,8.5 L23.5,20 C23.5,20.8284271 22.8284271,21.5 22,21.5 L4,21.5 C3.17157288,21.5 2.5,20.8284271 2.5,20 L2.5,8.5 L2,8.5 C1.17157288,8.5 0.5,7.82842712 0.5,7 L0.5,2 C0.5,1.17157288 1.17157288,0.5 2,0.5 L24,0.5 C24.8284271,0.5 25.5,1.17157288 25.5,2 L25.5,7 C25.5,7.82842712 24.8284271,8.5 24,8.5 L23.5,8.5 Z M3.5,3.5 L3.5,5.5 L22.5,5.5 L22.5,3.5 L3.5,3.5 Z" id="Shape" fill-opacity="0.16" fill="#F0F4F8" fill-rule="nonzero"></path>
            <line x1="11" y1="13" x2="15" y2="13" id="Shape" stroke-opacity="0.16" stroke="#F0F4F8" stroke-width="3" stroke-linecap="round" stroke-linejoin="round"></line>
        </g>
    </g>
</svg>