<?xml version="1.0" encoding="UTF-8"?>
<svg width="32px" height="32px" viewBox="0 0 32 32" version="1.1" xmlns="http://www.w3.org/2000/svg" xmlns:xlink="http://www.w3.org/1999/xlink">
    <!-- Generator: Sketch 59.1 (86144) - https://sketch.com -->
    <title>book_dark</title>
    <desc>Created with Sketch.</desc>
    <g id="book_dark" stroke="none" stroke-width="1" fill="none" fill-rule="evenodd" fill-opacity="0.16">
        <g id="book-open" transform="translate(4.000000, 5.000000)" fill="#F0F4F8" fill-rule="nonzero">
            <path d="M8,0.5 C9.5760283,0.5 10.9972305,1.16288947 12,2.2250619 C13.0027695,1.16288947 14.4239717,0.5 16,0.5 L22,0.5 C22.8284271,0.5 23.5,1.17157288 23.5,2 L23.5,17 C23.5,17.8284271 22.8284271,18.5 22,18.5 L15,18.5 C14.1715729,18.5 13.5,19.1715729 13.5,20 C13.5,22 10.5,22 10.5,20 C10.5,19.1715729 9.82842712,18.5 9,18.5 L2,18.5 C1.17157288,18.5 0.5,17.8284271 0.5,17 L0.5,2 C0.5,1.17157288 1.17157288,0.5 2,0.5 L8,0.5 Z M7.5,3 L4.5,3 C3.94771525,3 3.5,3.44771525 3.5,4 L3.5,4 L3.5,15 C3.5,15.5522847 3.94771525,16 4.5,16 L4.5,16 L9.5,16 C10.0522847,16 10.5,15.5522847 10.5,15 L10.5,15 L10.5,6 C10.5,4.34314575 9.15685425,3 7.5,3 L7.5,3 Z M19.5,3 L16.5,3 C14.8431458,3 13.5,4.34314575 13.5,6 L13.5,15 C13.5,15.5522847 13.9477153,16 14.5,16 L19.5,16 C20.0522847,16 20.5,15.5522847 20.5,15 L20.5,4 C20.5,3.44771525 20.0522847,3 19.5,3 Z" id="Combined-Shape"></path>
        </g>
    </g>
</svg>