<?xml version="1.0" encoding="UTF-8"?>
<svg width="32px" height="32px" viewBox="0 0 32 32" version="1.1" xmlns="http://www.w3.org/2000/svg" xmlns:xlink="http://www.w3.org/1999/xlink">
    <!-- Generator: Sketch 59.1 (86144) - https://sketch.com -->
    <title>code_dark</title>
    <desc>Created with Sketch.</desc>
    <g id="code_dark" stroke="none" stroke-width="1" fill="none" fill-rule="evenodd" fill-opacity="0.16">
        <g id="Group" transform="translate(4.000000, 6.000000)" fill="#F0F4F8">
            <path d="M3.85526316,10.0052056 C4.47807329,10.3106036 4.96491053,10.6524361 5.31578947,11.0307132 C5.66666842,11.4089903 5.91228,11.8913731 6.05263158,12.4778761 C6.19298316,13.0643791 6.26315789,13.8157164 6.26315789,14.7319105 C6.26315789,15.419056 6.28289454,15.9257315 6.32236842,16.2519521 C6.3618423,16.5781727 6.44078888,16.8263049 6.55921053,16.9963561 C6.67763217,17.1664072 6.82017461,17.2774594 6.98684211,17.3295159 C7.15350961,17.3815724 7.43859447,17.4318929 7.84210526,17.4804789 C8.17544026,17.5151832 8.45175329,17.6435873 8.67105263,17.865695 C8.89035197,18.0878026 9,18.3793145 9,18.7402395 C9,19.580084 8.35526961,20 7.06578947,20 C6.26753987,20 5.5548277,19.8681256 4.92763158,19.6043727 C4.30043546,19.3406199 3.81579118,18.967554 3.47368421,18.485164 C3.13157724,18.0027739 2.95614039,17.4492483 2.94736842,16.8245705 C2.9210525,15.7695592 2.89473697,14.9227865 2.86842105,14.284227 C2.84210513,13.6456675 2.80263184,13.2326922 2.75,13.0452889 C2.61842039,12.580251 2.42324691,12.2297426 2.16447368,11.9937533 C1.90570046,11.7577639 1.56798454,11.5373947 1.15131579,11.3326393 C0.734647039,11.1278838 0.438597368,10.9439536 0.263157895,10.7808433 C0.0877184211,10.617733 0,10.3591897 0,10.0052056 C0,9.49158168 0.254383421,9.1063695 0.763157895,8.84955752 C1.39474,8.53721864 1.84429691,8.27173457 2.11184211,8.05309735 C2.3793873,7.83446012 2.56798191,7.55335934 2.67763158,7.20978657 C2.78728125,6.86621379 2.85087711,6.49141275 2.86842105,6.0853722 C2.885965,5.67933165 2.91228053,4.70241968 2.94736842,3.15460698 C2.97368434,2.19676773 3.35745243,1.43154893 4.09868421,0.858927642 C4.83991599,0.286306351 5.82894118,0 7.06578947,0 C8.35526961,0 9,0.412975221 9,1.23893805 C9,1.61374472 8.89254493,1.90872702 8.67763158,2.12389381 C8.46271822,2.33906059 8.18421224,2.46399427 7.84210526,2.49869859 C7.33333079,2.55422551 6.97807118,2.63751463 6.77631579,2.74856845 C6.57456039,2.85962228 6.44298276,3.07478584 6.38157895,3.39406559 C6.32017513,3.71334534 6.28070184,4.33107298 6.26315789,5.24726705 C6.24561395,6.14263852 6.17763217,6.87662389 6.05921053,7.44924518 C5.94078888,8.02186648 5.70833507,8.50945487 5.36184211,8.91202499 C5.01534914,9.31459511 4.51316118,9.67898501 3.85526316,10.0052056 Z" id="{"></path>
            <path d="M18.8552632,10.0052056 C19.4780733,10.3106036 19.9649105,10.6524361 20.3157895,11.0307132 C20.6666684,11.4089903 20.91228,11.8913731 21.0526316,12.4778761 C21.1929832,13.0643791 21.2631579,13.8157164 21.2631579,14.7319105 C21.2631579,15.419056 21.2828945,15.9257315 21.3223684,16.2519521 C21.3618423,16.5781727 21.4407889,16.8263049 21.5592105,16.9963561 C21.6776322,17.1664072 21.8201746,17.2774594 21.9868421,17.3295159 C22.1535096,17.3815724 22.4385945,17.4318929 22.8421053,17.4804789 C23.1754403,17.5151832 23.4517533,17.6435873 23.6710526,17.865695 C23.890352,18.0878026 24,18.3793145 24,18.7402395 C24,19.580084 23.3552696,20 22.0657895,20 C21.2675399,20 20.5548277,19.8681256 19.9276316,19.6043727 C19.3004355,19.3406199 18.8157912,18.967554 18.4736842,18.485164 C18.1315772,18.0027739 17.9561404,17.4492483 17.9473684,16.8245705 C17.9210525,15.7695592 17.894737,14.9227865 17.8684211,14.284227 C17.8421051,13.6456675 17.8026318,13.2326922 17.75,13.0452889 C17.6184204,12.580251 17.4232469,12.2297426 17.1644737,11.9937533 C16.9057005,11.7577639 16.5679845,11.5373947 16.1513158,11.3326393 C15.734647,11.1278838 15.4385974,10.9439536 15.2631579,10.7808433 C15.0877184,10.617733 15,10.3591897 15,10.0052056 C15,9.49158168 15.2543834,9.1063695 15.7631579,8.84955752 C16.39474,8.53721864 16.8442969,8.27173457 17.1118421,8.05309735 C17.3793873,7.83446012 17.5679819,7.55335934 17.6776316,7.20978657 C17.7872813,6.86621379 17.8508771,6.49141275 17.8684211,6.0853722 C17.885965,5.67933165 17.9122805,4.70241968 17.9473684,3.15460698 C17.9736843,2.19676773 18.3574524,1.43154893 19.0986842,0.858927642 C19.839916,0.286306351 20.8289412,0 22.0657895,0 C23.3552696,0 24,0.412975221 24,1.23893805 C24,1.61374472 23.8925449,1.90872702 23.6776316,2.12389381 C23.4627182,2.33906059 23.1842122,2.46399427 22.8421053,2.49869859 C22.3333308,2.55422551 21.9780712,2.63751463 21.7763158,2.74856845 C21.5745604,2.85962228 21.4429828,3.07478584 21.3815789,3.39406559 C21.3201751,3.71334534 21.2807018,4.33107298 21.2631579,5.24726705 C21.2456139,6.14263852 21.1776322,6.87662389 21.0592105,7.44924518 C20.9407889,8.02186648 20.7083351,8.50945487 20.3618421,8.91202499 C20.0153491,9.31459511 19.5131612,9.67898501 18.8552632,10.0052056 Z" id="{-copy" transform="translate(19.500000, 10.000000) scale(-1, 1) translate(-19.500000, -10.000000) "></path>
        </g>
    </g>
</svg>