<?xml version="1.0" encoding="UTF-8"?>
<svg width="32px" height="32px" viewBox="0 0 32 32" version="1.1" xmlns="http://www.w3.org/2000/svg" xmlns:xlink="http://www.w3.org/1999/xlink">
    <!-- Generator: Sketch 59.1 (86144) - https://sketch.com -->
    <title>database_dark</title>
    <desc>Created with Sketch.</desc>
    <g id="database_dark" stroke="none" stroke-width="1" fill="none" fill-rule="evenodd" fill-opacity="0.16">
        <g id="database" transform="translate(7.000000, 6.000000)" fill="#F0F4F8" fill-rule="nonzero">
            <path d="M1.5,6.31836528 L1.5,9.87195398 C1.5295072,9.90388364 1.57397929,9.94529015 1.63471927,9.99342135 C1.93114115,10.2283101 2.43432036,10.4774601 3.09999828,10.6996941 C4.60871521,11.2033734 6.71873917,11.5 9,11.5 C11.2812608,11.5 13.3912848,11.2033734 14.9000017,10.6996941 C15.5656796,10.4774601 16.0688588,10.2283101 16.3652807,9.99342135 C16.4260207,9.94529015 16.4704928,9.90388364 16.5,9.87195284 L16.5,6.31836528 C14.5936196,7.09723341 11.9368061,7.5 9,7.5 C6.06319391,7.5 3.40638041,7.09723341 1.5,6.31836528 L1.5,6.31836528 Z M-1.5,2.99997458 C-1.5,0.0682849127 3.20489868,-1.5 9,-1.5 C14.7951181,-1.5 19.5,0.0682939772 19.5,3 L19.5,17 C19.5,19.9365866 14.8169644,21.5 9,21.5 C3.18303556,21.5 -1.5,19.9365866 -1.5,17 L-1.5,3 L-1.5,2.99997458 Z M16.5,13.3235193 C14.5970266,14.0996216 11.9437086,14.5 9,14.5 C6.05629139,14.5 3.40297343,14.0996216 1.5,13.3235193 L1.5,16.8719528 C1.5295072,16.9038836 1.57397929,16.9452902 1.63471927,16.9934213 C1.93114115,17.2283101 2.43432036,17.4774601 3.09999828,17.6996941 C4.60871521,18.2033734 6.71873917,18.5 9,18.5 C11.2812608,18.5 13.3912848,18.2033734 14.9000017,17.6996941 C15.5656796,17.4774601 16.0688588,17.2283101 16.3652807,16.9934213 C16.4260207,16.9452902 16.4704928,16.9038836 16.5,16.8719528 L16.5,13.3235193 Z M3.11038062,3.6982954 C4.62322766,4.20257774 6.73278324,4.5 9,4.5 C11.2672168,4.5 13.3767723,4.20257774 14.8896194,3.6982954 C15.5486809,3.47860822 16.0502557,3.2326794 16.3509787,3 C16.0502557,2.7673206 15.5486809,2.52139178 14.8896194,2.3017046 C13.3767723,1.79742226 11.2672168,1.5 9,1.5 C6.73278324,1.5 4.62322766,1.79742226 3.11038062,2.3017046 C2.45131909,2.52139178 1.94974431,2.7673206 1.64902134,3 C1.94974431,3.2326794 2.45131909,3.47860822 3.11038062,3.6982954 Z" id="Shape"></path>
        </g>
    </g>
</svg>