<?xml version="1.0" encoding="UTF-8"?>
<svg width="32px" height="32px" viewBox="0 0 32 32" version="1.1" xmlns="http://www.w3.org/2000/svg" xmlns:xlink="http://www.w3.org/1999/xlink">
    <!-- Generator: Sketch 59.1 (86144) - https://sketch.com -->
    <title>eslint_dark</title>
    <desc>Created with Sketch.</desc>
    <g id="eslint_dark" stroke="none" stroke-width="1" fill="none" fill-rule="evenodd">
        <path d="M16.4592921,5.28867513 L25.4185843,10.4613249 C25.7279854,10.6399577 25.9185843,10.9700847 25.9185843,11.3273503 L25.9185843,21.6726497 C25.9185843,22.0299153 25.7279854,22.3600423 25.4185843,22.5386751 L16.4592921,27.7113249 C16.1498911,27.8899577 15.7686932,27.8899577 15.4592921,27.7113249 L6.5,22.5386751 C6.19059892,22.3600423 6,22.0299153 6,21.6726497 L6,11.3273503 C6,10.9700847 6.19059892,10.6399577 6.5,10.4613249 L15.4592921,5.28867513 C15.7686932,5.11004234 16.1498911,5.11004234 16.4592921,5.28867513 Z" id="Polygon" stroke-opacity="0.16" stroke="#F0F4F8" stroke-width="3" fill-rule="nonzero" transform="translate(15.959292, 16.500000) rotate(-330.000000) translate(-15.959292, -16.500000) "></path>
        <path d="M16.4472589,11.1185988 L20.3945179,13.3975498 C20.7039189,13.5761826 20.8945179,13.9063096 20.8945179,14.2635752 L20.8945179,18.8214772 C20.8945179,19.1787428 20.7039189,19.5088698 20.3945179,19.6875026 L16.4472589,21.9664536 C16.1378579,22.1450864 15.75666,22.1450864 15.4472589,21.9664536 L11.5,19.6875026 C11.1905989,19.5088698 11,19.1787428 11,18.8214772 L11,14.2635752 C11,13.9063096 11.1905989,13.5761826 11.5,13.3975498 L15.4472589,11.1185988 C15.75666,10.939966 16.1378579,10.939966 16.4472589,11.1185988 Z" id="Polygon-Copy" fill-opacity="0.16" fill="#F0F4F8" fill-rule="nonzero" transform="translate(15.947259, 16.542526) rotate(-360.000000) translate(-15.947259, -16.542526) "></path>
    </g>
</svg>