<?xml version="1.0" encoding="UTF-8"?>
<svg width="32px" height="32px" viewBox="0 0 32 32" version="1.1" xmlns="http://www.w3.org/2000/svg" xmlns:xlink="http://www.w3.org/1999/xlink">
    <!-- Generator: Sketch 59.1 (86144) - https://sketch.com -->
    <title>folder-open_dark</title>
    <desc>Created with Sketch.</desc>
    <g id="folder-open_dark" stroke="none" stroke-width="1" fill="none" fill-rule="evenodd">
        <g id="folder-plus-copy" transform="translate(4.000000, 5.000000)" fill="#F0F4F8" fill-rule="nonzero">
            <path d="M8.02048565,0 C8.66618192,0 9.16565924,0.333333333 9.51891759,1 L10.8,3.83333333 L22.0794975,3.83333333 C23.4049809,3.83333333 24,4.62508741 24,6.03648177 L24,20.9975166 C24,22.408911 23.4049809,23 22.0794975,23 L2,23 C0.6745166,23 0,22.408911 0,20.9975166 L0,2.00113218 C0,0.589737816 0.6745166,0 2,0 L8.02048565,0 L8.02048565,0 Z M6.45805361,2.99949054 L3.99467176,2.99949054 L3.99467176,2.99949054 C3.34390054,2.99949054 3.01851493,3.30237189 3.01851493,3.9081346 L3.01851493,13 L3.01851493,13 L21.0166975,13 L21.0166975,7.57306491 L21.0166975,7.57306491 C21.0166975,6.95482358 20.6778325,6.64570291 20.0001025,6.64570291 L9.49962531,6.64570291 L9.49962531,6.64570291 C9.08788539,6.64570291 8.76187861,6.33919388 8.52160496,5.7261758 L7.58317716,3.9081346 C7.21690437,3.30237189 6.84186318,2.99949054 6.45805361,2.99949054 Z" id="Combined-Shape" fill-opacity="0.16"></path>
            <path d="M3,13.0005095 L20.9981825,13.0005095 C20.9981825,10.0007941 20.9981825,8.19181571 20.9981825,7.57357437 C20.9981825,6.95533304 20.6593175,6.64621238 19.9815875,6.64621238 C14.9229603,6.64621238 11.4228012,6.64621238 9.48111038,6.64621238 C9.06937046,6.64621238 8.74336367,6.33970334 8.50309002,5.72668526 L7.56466222,3.90864406 C7.19838943,3.30288135 6.82334825,3 6.43953867,3 C5.94161712,3 5.12048984,3 3.97615682,3 C3.32538561,3 3,3.30288135 3,3.90864406 C3,6.86935877 3,9.89998058 3,13.0005095 Z" id="Path-3-Copy" fill-opacity="0.04"></path>
        </g>
    </g>
</svg>