<?xml version="1.0" encoding="UTF-8"?>
<svg width="32px" height="32px" viewBox="0 0 32 32" version="1.1" xmlns="http://www.w3.org/2000/svg" xmlns:xlink="http://www.w3.org/1999/xlink">
    <!-- Generator: Sketch 59.1 (86144) - https://sketch.com -->
    <title>git_dark</title>
    <desc>Created with Sketch.</desc>
    <g id="git_dark" stroke="none" stroke-width="1" fill="none" fill-rule="evenodd" fill-opacity="0.16">
        <g id="git-branch" transform="translate(5.000000, 5.000000)" fill="#F0F4F8" fill-rule="nonzero">
            <path d="M9.27004651,18.4239706 C8.6742694,20.21136 6.9876237,21.5 5,21.5 C2.51471863,21.5 0.5,19.4852814 0.5,17 C0.5,15.0406718 1.75221144,13.3738132 3.5,12.7560586 L3.5,2 C3.5,1.17157288 4.17157288,0.5 5,0.5 C5.82842712,0.5 6.5,1.17157288 6.5,2 L6.5,12.7560586 C7.7461653,13.1965148 8.74039777,14.1702962 9.2084476,15.4031529 C12.3826132,14.8889889 14.8889889,12.3826132 15.4031529,9.2084476 C13.7061383,8.56418184 12.5,6.92294527 12.5,5 C12.5,2.51471863 14.5147186,0.5 17,0.5 C19.4852814,0.5 21.5,2.51471863 21.5,5 C21.5,6.9876237 20.21136,8.6742694 18.4239706,9.27004651 C17.8472041,14.0537801 14.0537801,17.8472041 9.27004651,18.4239706 L9.27004651,18.4239706 Z M17,6.5 C17.8284271,6.5 18.5,5.82842712 18.5,5 C18.5,4.17157288 17.8284271,3.5 17,3.5 C16.1715729,3.5 15.5,4.17157288 15.5,5 C15.5,5.82842712 16.1715729,6.5 17,6.5 Z M5,18.5 C5.82842712,18.5 6.5,17.8284271 6.5,17 C6.5,16.1715729 5.82842712,15.5 5,15.5 C4.17157288,15.5 3.5,16.1715729 3.5,17 C3.5,17.8284271 4.17157288,18.5 5,18.5 Z" id="Shape"></path>
        </g>
    </g>
</svg>