<?xml version="1.0" encoding="UTF-8"?>
<svg width="32px" height="32px" viewBox="0 0 32 32" version="1.1" xmlns="http://www.w3.org/2000/svg" xmlns:xlink="http://www.w3.org/1999/xlink">
    <!-- Generator: Sketch 59.1 (86144) - https://sketch.com -->
    <title>hash_dark</title>
    <desc>Created with Sketch.</desc>
    <g id="hash_dark" stroke="none" stroke-width="1" fill="none" fill-rule="evenodd" fill-opacity="0.16">
        <g id="hash" transform="translate(6.000000, 5.000000)" fill="#F0F4F8" fill-rule="nonzero">
            <path d="M10.9907691,15.5 L8.00923086,15.5 L7.4908256,20.1656473 C7.39934113,20.9890075 6.65771296,21.5823101 5.83435271,21.4908256 C5.01099247,21.3993411 4.41768993,20.657713 4.5091744,19.8343527 L4.99076914,15.5 L2,15.5 C1.17157288,15.5 0.5,14.8284271 0.5,14 C0.5,13.1715729 1.17157288,12.5 2,12.5 L5.32410248,12.5 L5.65743581,9.5 L2,9.5 C1.17157288,9.5 0.5,8.82842712 0.5,8 C0.5,7.17157288 1.17157288,6.5 2,6.5 L5.99076914,6.5 L6.5091744,1.83435271 C6.60065887,1.01099247 7.34228704,0.417689926 8.16564729,0.509174398 C8.98900753,0.60065887 9.58231007,1.34228704 9.4908256,2.16564729 L9.00923086,6.5 L11.9907691,6.5 L12.5091744,1.83435271 C12.6006589,1.01099247 13.342287,0.417689926 14.1656473,0.509174398 C14.9890075,0.60065887 15.5823101,1.34228704 15.4908256,2.16564729 L15.0092309,6.5 L18,6.5 C18.8284271,6.5 19.5,7.17157288 19.5,8 C19.5,8.82842712 18.8284271,9.5 18,9.5 L14.6758975,9.5 L14.3425642,12.5 L18,12.5 C18.8284271,12.5 19.5,13.1715729 19.5,14 C19.5,14.8284271 18.8284271,15.5 18,15.5 L14.0092309,15.5 L13.4908256,20.1656473 C13.3993411,20.9890075 12.657713,21.5823101 11.8343527,21.4908256 C11.0109925,21.3993411 10.4176899,20.657713 10.5091744,19.8343527 L10.9907691,15.5 Z M11.3241025,12.5 L11.6574358,9.5 L8.67589752,9.5 L8.34256419,12.5 L11.3241025,12.5 L11.3241025,12.5 Z" id="Shape"></path>
        </g>
    </g>
</svg>