<?xml version="1.0" encoding="UTF-8"?>
<svg width="32px" height="32px" viewBox="0 0 32 32" version="1.1" xmlns="http://www.w3.org/2000/svg" xmlns:xlink="http://www.w3.org/1999/xlink">
    <!-- Generator: Sketch 59.1 (86144) - https://sketch.com -->
    <title>html_dark</title>
    <desc>Created with Sketch.</desc>
    <g id="html_dark" stroke="none" stroke-width="1" fill="none" fill-rule="evenodd" fill-opacity="0.16">
        <g id="code" transform="translate(4.000000, 8.000000)" fill="#F0F4F8" fill-rule="nonzero">
            <path d="M19.8786797,8 L14.9393398,3.06066017 C14.3535534,2.47487373 14.3535534,1.52512627 14.9393398,0.939339828 C15.5251263,0.353553391 16.4748737,0.353553391 17.0606602,0.939339828 L23.0606602,6.93933983 C23.6464466,7.52512627 23.6464466,8.47487373 23.0606602,9.06066017 L17.0606602,15.0606602 C16.4748737,15.6464466 15.5251263,15.6464466 14.9393398,15.0606602 C14.3535534,14.4748737 14.3535534,13.5251263 14.9393398,12.9393398 L19.8786797,8 Z" id="Shape"></path>
            <path d="M4.12132034,8 L9.06066017,12.9393398 C9.64644661,13.5251263 9.64644661,14.4748737 9.06066017,15.0606602 C8.47487373,15.6464466 7.52512627,15.6464466 6.93933983,15.0606602 L0.939339828,9.06066017 C0.353553391,8.47487373 0.353553391,7.52512627 0.939339828,6.93933983 L6.93933983,0.939339828 C7.52512627,0.353553391 8.47487373,0.353553391 9.06066017,0.939339828 C9.64644661,1.52512627 9.64644661,2.47487373 9.06066017,3.06066017 L4.12132034,8 Z" id="Shape"></path>
        </g>
    </g>
</svg>