<?xml version="1.0" encoding="UTF-8"?>
<svg width="32px" height="32px" viewBox="0 0 32 32" version="1.1" xmlns="http://www.w3.org/2000/svg" xmlns:xlink="http://www.w3.org/1999/xlink">
    <!-- Generator: Sketch 59.1 (86144) - https://sketch.com -->
    <title>image_dark</title>
    <desc>Created with Sketch.</desc>
    <g id="image_dark" stroke="none" stroke-width="1" fill="none" fill-rule="evenodd">
        <g id="image-(1)" transform="translate(4.000000, 4.000000)">
            <path d="M3.59930712,20.2991243 L15.3307812,8.92314941 C15.9126117,8.3589502 16.8373883,8.3589502 17.4192188,8.92314941 L20.5,11.9105736 L20.5,4 C20.5,3.72385763 20.2761424,3.5 20,3.5 L4,3.5 C3.72385763,3.5 3.5,3.72385763 3.5,4 L3.5,20 C3.5,20.1121678 3.53693532,20.2157088 3.59930712,20.2991243 L3.59930712,20.2991243 Z M7.70159593,20.5 L20,20.5 C20.2761424,20.5 20.5,20.2761424 20.5,20 L20.5,16.0894264 L16.375,12.0894264 L7.70159593,20.5 Z M23.5,15.4528564 L23.5,15.4565239 L23.5,20 C23.5,21.9329966 21.9329966,23.5 20,23.5 L4.0019785,23.5 L3.99783279,23.5 C2.06583227,23.4988286 0.5,21.9322742 0.5,20 L0.5,4 C0.5,2.06700338 2.06700338,0.5 4,0.5 L20,0.5 C21.9329966,0.5 23.5,2.06700338 23.5,4 L23.5,15.4528564 L23.5,15.4528564 Z" id="Shape" fill-opacity="0.16" fill="#F0F4F8" fill-rule="nonzero"></path>
            <circle id="Oval" stroke-opacity="0.16" stroke="#F0F4F8" stroke-width="3" stroke-linecap="round" stroke-linejoin="round" cx="8.5" cy="8.5" r="1"></circle>
        </g>
    </g>
</svg>