<?xml version="1.0" encoding="UTF-8"?>
<svg width="32px" height="32px" viewBox="0 0 32 32" version="1.1" xmlns="http://www.w3.org/2000/svg" xmlns:xlink="http://www.w3.org/1999/xlink">
    <!-- Generator: Sketch 59.1 (86144) - https://sketch.com -->
    <title>package_dark</title>
    <desc>Created with Sketch.</desc>
    <g id="package_dark" stroke="none" stroke-width="1" fill="none" fill-rule="evenodd" fill-opacity="0.16">
        <g id="package" transform="translate(4.000000, 3.000000)" fill="#F0F4F8" fill-rule="nonzero">
            <path d="M17.6864343,10.8338338 C17.6767624,10.8388014 17.6670397,10.8436627 17.6572682,10.8484169 L13.5,12.9270509 L13.5,21.5779498 L20.2225002,18.216704 C20.3924146,18.1322715 20.4998995,17.95894 20.5,17.77 L20.5,9.42705089 L17.6864393,10.8338314 L17.6864343,10.8338338 Z M7.00499694,6.17954945 L5.35909785,7.00249794 L12,10.322949 L13.645898,9.5 L7.00499694,6.17954945 L7.00499694,6.17954945 Z M10.3591011,4.50249954 L17,7.82294902 L18.640898,7.0025 L12.2213911,3.79274653 C12.0814738,3.72365004 11.9172974,3.7238288 11.7808204,3.79164079 L10.3591011,4.50249954 L10.3591011,4.50249954 Z M6.22543518,3.21523385 C6.29258063,3.17483949 6.36266116,3.13983949 6.43495272,3.11047522 L10.4425,1.10670415 C11.4236071,0.619180135 12.5763929,0.619180135 13.5575,1.10670415 L21.5574998,5.10670404 C22.7469007,5.69773156 23.499295,6.91105209 23.5,8.24 L23.5,17.770796 C23.499295,19.0989479 22.7469007,20.3122684 21.5608204,20.9016408 L13.56125,24.9014259 C12.5753561,25.3947676 11.4146439,25.3947676 10.4291796,24.9016408 L2.42503632,20.8995611 C1.23677303,20.3008318 0.490776485,19.0801102 0.499915443,17.76 L0.499915443,8.23920404 C0.50070498,6.91105209 1.25309927,5.69773156 2.43917961,5.10835921 L6.22543516,3.21523386 L6.22543518,3.21523385 Z M10.5,21.5829491 L10.5,12.9270487 L3.4999515,9.42704872 L3.4999515,17.7704389 C3.49864084,17.9605173 3.60521178,18.1349061 3.77082039,18.2183592 L10.5,21.5829491 L10.5,21.5829491 Z" id="Shape"></path>
        </g>
    </g>
</svg>