<?xml version="1.0" encoding="UTF-8"?>
<svg width="32px" height="32px" viewBox="0 0 32 32" version="1.1" xmlns="http://www.w3.org/2000/svg" xmlns:xlink="http://www.w3.org/1999/xlink">
    <!-- Generator: Sketch 59.1 (86144) - https://sketch.com -->
    <title>prettier_dark</title>
    <desc>Created with Sketch.</desc>
    <g id="prettier_dark" stroke="none" stroke-width="1" fill="none" fill-rule="evenodd">
        <g id="Group" transform="translate(5.000000, 5.000000)" fill="#F0F4F8" fill-rule="nonzero">
            <rect id="Rectangle-4" fill-opacity="0.16" x="0" y="0" width="9" height="3" rx="1.5"></rect>
            <rect id="Rectangle-4-Copy" fill-opacity="0.16" x="0" y="6" width="5" height="3" rx="1.5"></rect>
            <rect id="Rectangle-4-Copy-4" fill-opacity="0.16" x="11" y="0" width="4" height="3" rx="1.5"></rect>
            <rect id="Rectangle-4-Copy-5" fill-opacity="0.16" x="7" y="6" width="3" height="3" rx="1.5"></rect>
            <rect id="Rectangle-4-Copy-10" fill-opacity="0.06" x="17" y="0" width="5" height="3" rx="1.5"></rect>
            <rect id="Rectangle-4-Copy-12" fill-opacity="0.06" x="20" y="6" width="2" height="3" rx="1"></rect>
            <rect id="Rectangle-4-Copy-13" fill-opacity="0.06" x="17" y="12" width="5" height="3" rx="1.5"></rect>
            <rect id="Rectangle-4-Copy-11" fill-opacity="0.06" x="9" y="18" width="13" height="3" rx="1.5"></rect>
            <rect id="Rectangle-4-Copy-8" fill-opacity="0.16" x="12" y="6" width="6" height="3" rx="1.5"></rect>
            <rect id="Rectangle-4-Copy-2" fill-opacity="0.16" x="0" y="12" width="4" height="3" rx="1.5"></rect>
            <rect id="Rectangle-4-Copy-6" fill-opacity="0.16" x="6" y="12" width="9" height="3" rx="1.5"></rect>
            <rect id="Rectangle-4-Copy-3" fill-opacity="0.16" x="0" y="18" width="7" height="3" rx="1.5"></rect>
        </g>
    </g>
</svg>