<?xml version="1.0" encoding="UTF-8"?>
<svg width="32px" height="32px" viewBox="0 0 32 32" version="1.1" xmlns="http://www.w3.org/2000/svg" xmlns:xlink="http://www.w3.org/1999/xlink">
    <!-- Generator: Sketch 59.1 (86144) - https://sketch.com -->
    <title>settings_dark</title>
    <desc>Created with Sketch.</desc>
    <g id="settings_dark" stroke="none" stroke-width="1" fill="none" fill-rule="evenodd" fill-opacity="0.16">
        <g id="settings" transform="translate(4.000000, 4.000000)" fill="#F0F4F8">
            <path d="M12,0 C13.2049849,0 14.1818182,0.976833273 14.1818182,2.18181818 L14.1818182,2.28 C14.1846795,2.99742864 14.6133048,3.64465278 15.2727273,3.92727273 C15.9459164,4.22437795 16.7321599,4.08181732 17.2581818,3.56727273 L17.3236364,3.50181818 C17.7328762,3.09212282 18.288198,2.86192002 18.8672727,2.86192002 C19.4463475,2.86192002 20.0016693,3.09212282 20.4109091,3.50181818 C20.8206045,3.91105802 21.0508073,4.46637982 21.0508073,5.04545455 C21.0508073,5.62452927 20.8206045,6.17985108 20.4109091,6.58909091 L20.3454545,6.65454545 C19.83091,7.18056735 19.6883493,7.96681083 19.9854545,8.64 L19.9854545,8.72727273 C20.2680745,9.38669521 20.9152986,9.81532047 21.6327273,9.81818182 L21.8181818,9.81818182 C23.0231667,9.81818182 24,10.7950151 24,12 C24,13.2049849 23.0231667,14.1818182 21.8181818,14.1818182 L21.72,14.1818182 C21.0025714,14.1846795 20.3553472,14.6133048 20.0727273,15.2727273 C19.775622,15.9459164 19.9181827,16.7321599 20.4327273,17.2581818 L20.4981818,17.3236364 C20.9078772,17.7328762 21.13808,18.288198 21.13808,18.8672727 C21.13808,19.4463475 20.9078772,20.0016693 20.4981818,20.4109091 C20.088942,20.8206045 19.5336202,21.0508073 18.9545455,21.0508073 C18.3754707,21.0508073 17.8201489,20.8206045 17.4109091,20.4109091 L17.3454545,20.3454545 C16.8194327,19.83091 16.0331892,19.6883493 15.36,19.9854545 C14.7005775,20.2680745 14.2719523,20.9152986 14.2690909,21.6327273 L14.2690909,21.8181818 C14.2690909,23.0231667 13.2922576,24 12.0872727,24 C10.8822878,24 9.90545455,23.0231667 9.90545455,21.8181818 L9.90545455,21.72 C9.88817084,20.9810954 9.42095102,20.3278529 8.72727273,20.0727273 C8.05408356,19.775622 7.26784007,19.9181827 6.74181818,20.4327273 L6.67636364,20.4981818 C6.2671238,20.9078772 5.711802,21.13808 5.13272727,21.13808 C4.55365255,21.13808 3.99833074,20.9078772 3.58909091,20.4981818 C3.17939554,20.088942 2.94919275,19.5336202 2.94919275,18.9545455 C2.94919275,18.3754707 3.17939554,17.8201489 3.58909091,17.4109091 L3.65454545,17.3454545 C4.16909005,16.8194327 4.31165068,16.0331892 4.01454545,15.36 C3.73192551,14.7005775 3.08470137,14.2719523 2.36727273,14.2690909 L2.18181818,14.2690909 C0.976833273,14.2690909 0,13.2922576 0,12.0872727 C0,10.8822878 0.976833273,9.90545455 2.18181818,9.90545455 L2.28,9.90545455 C3.01890456,9.88817084 3.67214708,9.42095102 3.92727273,8.72727273 C4.22437795,8.05408356 4.08181732,7.26784007 3.56727273,6.74181818 L3.50181818,6.67636364 C3.09212282,6.2671238 2.86192002,5.711802 2.86192002,5.13272727 C2.86192002,4.55365255 3.09212282,3.99833074 3.50181818,3.58909091 C3.91105802,3.17939554 4.46637982,2.94919275 5.04545455,2.94919275 C5.62452927,2.94919275 6.17985108,3.17939554 6.58909091,3.58909091 L6.65454545,3.65454545 C7.18056735,4.16909005 7.96681083,4.31165068 8.64,4.01454545 L8.72727273,4.01454545 C9.38669521,3.73192551 9.81532047,3.08470137 9.81818182,2.36727273 L9.81818182,2.18181818 C9.81818182,0.976833273 10.7950151,0 12,0 Z M12,9 C10.3431458,9 9,10.3431458 9,12 C9,13.6568542 10.3431458,15 12,15 C13.6568542,15 15,13.6568542 15,12 C15,10.3431458 13.6568542,9 12,9 Z" id="Combined-Shape"></path>
        </g>
    </g>
</svg>