<?xml version="1.0" encoding="UTF-8"?>
<svg width="32px" height="32px" viewBox="0 0 32 32" version="1.1" xmlns="http://www.w3.org/2000/svg" xmlns:xlink="http://www.w3.org/1999/xlink">
    <!-- Generator: Sketch 59.1 (86144) - https://sketch.com -->
    <title>terminal_dark</title>
    <desc>Created with Sketch.</desc>
    <g id="terminal_dark" stroke="none" stroke-width="1" fill="none" fill-rule="evenodd" fill-opacity="0.16">
        <path d="M9,4 L23,4 C25.7614237,4 28,6.23857625 28,9 L28,23 C28,25.7614237 25.7614237,28 23,28 L9,28 C6.23857625,28 4,25.7614237 4,23 L4,9 C4,6.23857625 6.23857625,4 9,4 Z M16.5,23 L22.5,23 C23.3284271,23 24,22.3284271 24,21.5 C24,20.6715729 23.3284271,20 22.5,20 L16.5,20 C15.6715729,20 15,20.6715729 15,21.5 C15,22.3284271 15.6715729,23 16.5,23 Z M11.4930676,15.5 L8.37888602,19.0034542 C7.828509,19.6226284 7.88428009,20.570737 8.50345424,21.121114 C9.12262839,21.671491 10.070737,21.6157199 10.621114,20.9965458 L14.621114,16.4965458 C15.1262953,15.9282167 15.1262953,15.0717833 14.621114,14.5034542 L10.621114,10.0034542 C10.070737,9.38428009 9.12262839,9.328509 8.50345424,9.87888602 C7.88428009,10.429263 7.828509,11.3773716 8.37888602,11.9965458 L11.4930676,15.5 Z" id="Shape" fill="#F0F4F8" fill-rule="nonzero"></path>
    </g>
</svg>