<?xml version="1.0" encoding="UTF-8" standalone="no"?>
<!-- Created with Inkscape (http://www.inkscape.org/) -->
<!-- Retrieved from https://commons.wikimedia.org/wiki/Category:SVG_files#/media/File:Dragon_clip_art.svg -->
<!-- License: CC BY-SA 3.0 -->

<svg
   xmlns:dc="http://purl.org/dc/elements/1.1/"
   xmlns:cc="http://creativecommons.org/ns#"
   xmlns:rdf="http://www.w3.org/1999/02/22-rdf-syntax-ns#"
   xmlns:svg="http://www.w3.org/2000/svg"
   xmlns="http://www.w3.org/2000/svg"
   xmlns:sodipodi="http://sodipodi.sourceforge.net/DTD/sodipodi-0.dtd"
   xmlns:inkscape="http://www.inkscape.org/namespaces/inkscape"
   width="273.55759"
   height="297.81952"
   id="svg2"
   version="1.1"
   inkscape:version="0.48.2 r9819"
   sodipodi:docname="New document 1">
  <defs
     id="defs4" />
  <sodipodi:namedview
     id="base"
     pagecolor="#ffffff"
     bordercolor="#666666"
     borderopacity="1.0"
     inkscape:pageopacity="0.0"
     inkscape:pageshadow="2"
     inkscape:zoom="0.78061715"
     inkscape:cx="112.41895"
     inkscape:cy="87.896202"
     inkscape:document-units="px"
     inkscape:current-layer="layer1"
     showgrid="false"
     fit-margin-top="0"
     fit-margin-left="0"
     fit-margin-right="0"
     fit-margin-bottom="0"
     inkscape:window-width="1024"
     inkscape:window-height="712"
     inkscape:window-x="-4"
     inkscape:window-y="-4"
     inkscape:window-maximized="1" />
  <metadata
     id="metadata7">
    <rdf:RDF>
      <cc:Work
         rdf:about="">
        <dc:format>image/svg+xml</dc:format>
        <dc:type
           rdf:resource="http://purl.org/dc/dcmitype/StillImage" />
        <dc:title></dc:title>
      </cc:Work>
    </rdf:RDF>
  </metadata>
  <g
     inkscape:label="Layer 1"
     inkscape:groupmode="layer"
     id="layer1"
     transform="translate(12.737105,20.750754)">
    <path
       style="fill:#ff0000;stroke:#000000;stroke-width:1.20000005;stroke-miterlimit:4;stroke-opacity:1;stroke-dasharray:none;stroke-dashoffset:2"
       d="M 73.44622,98.502944 95.574248,123.45583 103.10719,106.5067 73.44622,75.904107 c -3.686689,-4.753593 -11.648074,-6.667124 -21.18641,-7.532946 2.554639,2.715713 6.322156,2.39923 6.591328,10.82861 0.824915,3.302369 -2.23752,5.956846 -8.945373,8.003754 C 38.790859,84.969312 29.325417,85.209295 20.7156,86.732716 10.937191,88.437808 3.3459273,92.876831 -1.4124273,100.85699 L 14.595082,96.148898 c 7.184903,-0.279702 11.921181,1.889221 10.3578,10.357802 -1.994238,5.38177 -5.541365,9.21065 -11.299418,10.82861 -13.89013312,3.69644 -14.20560941,10.40948 -17.4199368,16.47832 2.98162616,-2.35421 5.619737,-5.05194 12.2410366,-3.76648 C 12.049969,137.75238 6.2740844,144.2887 0,150.76275 c -8.2557969,11.86874 -11.815365,18.89318 -11.299418,29.19017 -3.600096,18.58594 5.3801474,23.59338 8.4745634,34.36906 C -3.7567158,203.36083 -1.3904441,200.64501 0,195.48962 l 7.0621365,-10.3578 c -0.8666538,6.37974 -2.2779903,12.39636 0.4708091,21.18641 12.3493154,22.89597 28.0783714,46.43569 15.0658914,64.50084 l 15.065891,-22.59883 c 5.315347,9.96887 6.398134,20.64317 25.894501,28.24854 l 26.836118,-1.41242 c 0,0 -66.854892,-105.46124 -67.79651,-107.34448 -0.941618,-1.88323 53.201428,-70.621364 53.201428,-70.621364 z"
       id="path3790"
       inkscape:connector-curvature="0"
       sodipodi:nodetypes="ccccccccccccccccccccccccscc" />
    <path
       style="fill:#b4daff;fill-opacity:1;stroke:#000000;stroke-width:1.20000005;stroke-miterlimit:4;stroke-opacity:1;stroke-dasharray:none;stroke-dashoffset:2"
       d="M 142.47916,274.20076 160.07509,273.64393 96.045057,235.03758 65.913274,202.08095 58.851138,160.64975 90.866157,124.86825 68.26732,97.561326 c -12.595581,1.14506 -19.978043,4.375364 -26.36531,8.003754 -10.473991,7.25982 -17.726182,17.74144 -24.482073,28.71936 -6.479109,23.36435 -7.280245,49.16212 3.766473,80.03754 11.380348,21.89016 28.33967,38.20135 48.493337,51.31819 l 18.835517,9.59325 z"
       id="path3788"
       inkscape:connector-curvature="0"
       sodipodi:nodetypes="ccccccccccccc" />
    <path
       style="fill:#ffa100;fill-opacity:1;stroke:#000000;stroke-width:1.20000005;stroke-miterlimit:4;stroke-opacity:1;stroke-dasharray:none;stroke-dashoffset:2"
       d="m 156.77943,275.05636 17.41994,-9.41619 0.94162,-16.47831 -25.4237,-4.70809 -12.71184,21.1864 z"
       id="path2998"
       inkscape:connector-curvature="0" />
    <path
       style="fill:#ffa100;fill-opacity:1;stroke:#000000;stroke-width:1.20000005;stroke-miterlimit:4;stroke-opacity:1;stroke-dasharray:none;stroke-dashoffset:2"
       d="m 149.24649,255.75318 c 0,0 6.12051,-17.41993 4.23728,-17.41993 -1.88324,0 -22.59884,-3.76648 -22.59884,-3.76648 l -17.89075,17.41994 24.95289,13.65346 z"
       id="path3000"
       inkscape:connector-curvature="0" />
    <path
       style="fill:#ffa100;fill-opacity:1;stroke:#000000;stroke-width:1.20000005;stroke-miterlimit:4;stroke-opacity:1;stroke-dasharray:none;stroke-dashoffset:2"
       d="m 95.103438,237.39163 21.186412,16.47832 16.00751,-9.88699 0.47081,-18.36156 -23.54046,-5.64971 0.47081,10.82861 z"
       id="path3002"
       inkscape:connector-curvature="0" />
    <path
       style="fill:#ffa100;fill-opacity:1;stroke:#000000;stroke-width:1.20000005;stroke-miterlimit:4;stroke-opacity:1;stroke-dasharray:none;stroke-dashoffset:2"
       d="m 90.866157,216.67603 2.824854,-11.77023 17.419939,12.71185 -1.88324,15.06589 -16.007508,5.1789 -20.244791,-18.36156 z"
       id="path3004"
       inkscape:connector-curvature="0" />
    <path
       style="fill:#ffa100;fill-opacity:1;stroke:#000000;stroke-width:1.20000005;stroke-miterlimit:4;stroke-opacity:1;stroke-dasharray:none;stroke-dashoffset:2"
       d="m 62.61761,202.55176 18.832364,-8.47457 13.653464,8.47457 -2.824854,16.0075 -19.303173,0 z"
       id="path3006"
       inkscape:connector-curvature="0" />
    <path
       style="fill:#ffa100;fill-opacity:1;stroke:#000000;stroke-width:1.20000005;stroke-miterlimit:4;stroke-opacity:1;stroke-dasharray:none;stroke-dashoffset:2"
       d="m 57.909519,180.42373 18.832364,0.47081 9.416183,10.3578 -5.178901,9.88699 -21.186409,-0.47081 z"
       id="path3008"
       inkscape:connector-curvature="0" />
    <path
       style="fill:#ffa100;fill-opacity:1;fill-rule:evenodd;stroke:#000000;stroke-width:1.20000005;stroke-miterlimit:4;stroke-opacity:1;stroke-dasharray:none;stroke-dashoffset:2"
       d="m 56.497092,159.70813 18.361555,2.82485 6.591327,13.18266 -8.474563,9.88699 -16.949128,-5.1789 z"
       id="path3780"
       inkscape:connector-curvature="0" />
    <path
       style="fill:#ffa100;fill-opacity:1;stroke:#000000;stroke-width:1.20000005;stroke-miterlimit:4;stroke-opacity:1;stroke-dasharray:none;stroke-dashoffset:2"
       d="m 89.924538,126.28068 c -9.664322,8.18228 -14.377332,17.78125 -10.357799,33.42745 l -13.182656,8.00375 -9.886991,-8.47457 c 3.769665,-18.09309 15.869815,-31.15434 33.427446,-32.95663 z"
       id="path3786"
       inkscape:connector-curvature="0"
       sodipodi:nodetypes="ccccc" />
    <path
       style="fill:#80afb8;fill-opacity:1;stroke:#000000;stroke-width:1.20000005;stroke-miterlimit:4;stroke-opacity:1;stroke-dasharray:none;stroke-dashoffset:2"
       d="M 133.77127,121.15445 C 102.29445,108.16921 71.200271,103.60211 38.733769,68.843895 58.122127,89.497163 77.85045,109.22179 101.42657,118.35923 L 69.081877,100.38995 c 11.499182,15.61467 23.598373,27.80948 42.327623,31.94538 -11.24421,1.21671 -20.380767,-7.051 -29.549472,-15.17405 24.733762,29.06649 40.923142,28.22765 55.105772,20.36517 -8.16571,-3.14828 -15.52424,-7.10373 -21.56313,-12.37883 z"
       id="path3798"
       inkscape:connector-curvature="0"
       sodipodi:nodetypes="ccccccccc" />
    <path
       style="fill:#ffaf29;fill-opacity:1;stroke:#000000;stroke-width:1.20000005;stroke-miterlimit:4;stroke-opacity:1;stroke-dasharray:none;stroke-dashoffset:2"
       d="M 138.56307,117.95991 128.58014,122.3524 87.051152,98.792686 C 67.454225,70.758132 70.300802,54.846161 60.696216,35.301249 68.447691,43.355436 74.77626,52.358226 85.453883,58.461647 79.819169,46.517664 80.927543,37.270916 80.262759,27.314905 c 3.166784,15.761986 9.719966,24.751173 15.972689,34.34128 -1.47816,-6.276965 -3.350278,-13.144867 -2.795221,-16.372006 5.304337,8.158007 10.295783,16.503749 20.764493,21.56313 3.59095,0.562069 10.55437,5.339728 18.36859,11.180882 7.24446,7.245148 12.72056,16.848114 16.77133,28.351519 z"
       id="path3808"
       inkscape:connector-curvature="0"
       sodipodi:nodetypes="cccccccccccc" />
    <path
       style="fill:#00d7d6;fill-opacity:1;stroke:#000000;stroke-width:1.20000005;stroke-miterlimit:4;stroke-opacity:1;stroke-dasharray:none;stroke-dashoffset:2"
       d="m 113.8054,124.34899 15.57338,-3.59386 12.37883,-4.7918 6.78839,-10.78157 -0.79863,-6.389074 17.17064,13.976104 14.37542,7.18771 9.58361,13.9761 14.77474,-1.99659 c 4.39249,1.57017 8.78497,2.92164 13.17746,7.58703 5.76188,6.36887 11.20761,14.0023 17.96928,16.37201 4.23518,-1.76668 8.10347,-4.0837 14.37542,-2.79522 5.61406,0.5029 9.02747,3.75662 10.38225,9.58361 2.60388,11.36945 -3.06132,11.71345 -6.38908,15.17405 0.037,9.48753 -3.51318,15.38783 -8.78497,19.56654 -1.67328,-6.90259 -4.18558,-12.12712 -7.98635,-14.77473 -13.4304,-10.55772 -26.90659,-1.42587 -40.33104,-8.38566 -17.65083,-10.24469 -27.78384,-26.45774 -37.93513,-31.14674 -9.67041,-1.16902 -16.20698,-3.38266 -22.76109,-5.59045 z"
       id="path3810"
       inkscape:connector-curvature="0"
       sodipodi:nodetypes="cccccccccccccccccccc" />
    <path
       style="fill:none;stroke:#000000;stroke-width:2;stroke-miterlimit:4;stroke-opacity:1;stroke-dasharray:none;stroke-dashoffset:2"
       d="m 154.53576,133.53328 c 7.83618,0.93458 14.84203,2.00755 16.37201,3.99317 12.61186,7.01602 21.03384,26.20016 31.54606,30.34811 -3.00497,-5.51683 -3.48439,-10.71796 1.99658,-15.17405 7.22535,-3.03546 10.55836,-0.45702 14.77474,2.3959 6.02262,6.9248 11.74338,16.2645 18.76791,15.17406"
       id="path3814"
       inkscape:connector-curvature="0"
       sodipodi:nodetypes="cccccc" />
    <path
       style="fill:none;stroke:#000000;stroke-width:2;stroke-miterlimit:4;stroke-opacity:1;stroke-dasharray:none;stroke-dashoffset:2"
       d="m 209.24222,167.47525 c 0.33375,-1.59661 0.12171,-3.55709 1.59727,-4.39249 0.98845,-1.35075 2.83593,-0.98344 4.39249,-1.19796 4.8086,3.66257 4.22462,5.91709 5.98975,8.78498"
       id="path3816"
       inkscape:connector-curvature="0"
       sodipodi:nodetypes="cccc" />
    <path
       style="fill:none;stroke:#000000;stroke-width:1.20000005;stroke-miterlimit:4;stroke-opacity:1;stroke-dasharray:none;stroke-dashoffset:2"
       d="m 219.22515,144.31485 11.18088,11.18088 13.57679,8.78498"
       id="path3818"
       inkscape:connector-curvature="0" />
    <path
       style="fill:#80b7c4;fill-opacity:1;stroke:#000000;stroke-width:1.20000005;stroke-miterlimit:4;stroke-opacity:1;stroke-dasharray:none;stroke-dashoffset:2"
       d="m 146.94873,99.59132 c -8.40512,-14.108233 -7.32446,-24.976745 -9.98293,-38.334452 2.28959,7.959558 5.31902,15.17927 10.78157,19.96586 -5.86678,-10.515353 -3.24744,-21.030706 -1.99659,-31.546059 1.01072,9.17552 3.11766,18.229239 13.57679,26.354936 5.88809,4.549002 13.0362,8.257998 15.97269,14.774736 6.35347,8.175649 4.50901,17.892639 8.78497,23.160399 -1.99075,-8.86593 -0.24555,-12.75061 0.79864,-17.569958 0.68276,7.697158 4.15451,11.675658 7.98634,15.174058 l 0.39932,-15.174058 c 8.25592,15.027878 19.79844,10.971398 23.95903,28.750838 l -6.78839,8.38566 -9.58361,-1.19795 -6.38908,4.39249 -8.38566,-2.79522 -9.58361,-13.17747 z"
       id="path3820"
       inkscape:connector-curvature="0"
       sodipodi:nodetypes="ccccccccccccccccc" />
    <path
       style="fill:#333333;stroke:#000000;stroke-width:1.20000005;stroke-miterlimit:4;stroke-opacity:1;stroke-dasharray:none;stroke-dashoffset:2"
       d="m 163.10163,110.79268 c -0.23573,2.97072 13.46423,4.4681 19.60954,10.89419 2.70861,3.95943 5.16753,8.73304 8.71536,13.07303 -5.87363,0.0346 -11.0482,1.74698 -18.05324,-0.93378 -7.43617,-4.47099 -6.44315,-11.29641 -9.33788,-18.98702 z"
       id="path3822"
       inkscape:connector-curvature="0"
       sodipodi:nodetypes="cccccc" />
    <path
       style="fill:#ffcd71;fill-opacity:1;stroke:#000000;stroke-width:1.20000005;stroke-miterlimit:4;stroke-opacity:1;stroke-dasharray:none;stroke-dashoffset:2"
       d="m 169.40234,116.31052 c 0.19359,4.0262 -0.47444,12.71073 6.79118,16.41203 3.5528,1.27665 7.10559,1.14632 10.65839,0.94322 -2.15752,-3.14407 -3.90555,-6.28813 -5.565,-9.4322 -2.11396,-2.77299 -6.25107,-5.40146 -11.88457,-7.92305 z"
       id="path3824"
       inkscape:connector-curvature="0"
       sodipodi:nodetypes="ccccc" />
    <path
       style="fill:#009d80;fill-opacity:1;stroke:#000000;stroke-width:1.20000005;stroke-miterlimit:4;stroke-opacity:1;stroke-dasharray:none;stroke-dashoffset:2"
       d="m 181.19259,123.29035 c -3.74814,1.60851 -4.45804,5.32041 -4.99907,9.14923 2.28898,-1.15726 4.81391,-2.06949 5.65932,-8.11169 z"
       id="path3826"
       inkscape:connector-curvature="0"
       sodipodi:nodetypes="cccc" />
    <path
       style="fill:#de4000;fill-opacity:1;stroke:#000000;stroke-width:1.20000005;stroke-miterlimit:4;stroke-opacity:1;stroke-dasharray:none;stroke-dashoffset:2"
       d="m 137.41517,138.64674 15.74549,16.46119 -4.77136,20.03971 c -5.06394,19.66324 4.09464,25.78123 11.9284,33.16095 10.22958,3.59957 20.40736,7.66534 31.25241,5.72563 -6.95999,-6.56919 -15.51616,-8.88191 -20.75542,-20.03971 -6.49636,-7.22625 -3.74543,-16.18636 -0.23857,-25.28821 4.60728,-11.28719 1.0716,-14.4314 -2.38568,-17.65403 -7.16108,-6.52548 -8.39426,-6.27621 -11.45126,-8.11131 -6.42685,-0.0251 -14.02518,-3.48676 -19.32401,-4.29422 z"
       id="path3828"
       inkscape:connector-curvature="0"
       sodipodi:nodetypes="cccccccccc" />
    <path
       style="fill:none;stroke:#000000;stroke-width:2;stroke-miterlimit:4;stroke-opacity:1;stroke-dasharray:none;stroke-dashoffset:2"
       d="m 153.87636,142.94096 c 3.90631,-1.87096 9.69299,16.23198 6.67991,19.80114 -5.63668,6.67696 -2.80544,19.95511 -0.23857,16.22262"
       id="path3830"
       inkscape:connector-curvature="0"
       sodipodi:nodetypes="csc" />
    <path
       style="fill:#ececec;stroke:#000000;stroke-width:1.20000005;stroke-miterlimit:4;stroke-opacity:1;stroke-dasharray:none;stroke-dashoffset:2"
       d="m 147.43503,184.21322 c 5.98074,4.73827 16.11122,1.17708 25.76534,-1.43141 -7.03019,7.0566 -13.84727,16.88359 -21.47112,16.22263 l -4.77136,-7.87275 z"
       id="path3832"
       inkscape:connector-curvature="0"
       sodipodi:nodetypes="ccccc" />
    <path
       style="fill:#f2f2f2;stroke:#000000;stroke-width:1.20000005;stroke-miterlimit:4;stroke-opacity:1;stroke-dasharray:none;stroke-dashoffset:2"
       d="m 173.67751,213.31852 8.11131,1.43141 c 6.06788,-12.85113 5.3157,-19.63998 5.9642,-27.67389 -3.126,10.99543 -11.45068,18.09185 -22.18683,23.37966 l 7.87275,4.5328 z"
       id="path3834"
       inkscape:connector-curvature="0"
       sodipodi:nodetypes="cccccc" />
    <path
       style="fill:#ff6c00;fill-opacity:1;stroke:#000000;stroke-width:1.20000005;stroke-miterlimit:4;stroke-opacity:1;stroke-dasharray:none;stroke-dashoffset:2"
       d="m 134.31379,139.12387 5.48706,0.47714 13.12124,8.58844 -1.90854,21.70969 -3.10139,26.71962 20.51685,15.02978 24.09537,2.14712 c -7.59703,15.51076 -21.44479,13.73677 -24.33394,26.24248 1.27084,-6.44195 0.86471,-13.55469 5.00993,-18.84688 -8.47582,5.06966 -15.09323,4.5641 -22.42539,6.20277 4.22385,-2.68547 8.10205,-6.06224 11.68983,-10.01985 -5.80515,-0.60962 -11.61031,-2.01583 -17.41546,-4.5328 -8.64382,-4.18289 -9.62981,-5.93913 -11.9284,-8.11131 7.01942,0.86252 9.473,-1.31884 12.88267,-2.86281 -26.93647,-7.55398 -26.92199,-14.26574 -35.0695,-21.23256 l 20.51685,7.39561 c 4.4984,0.68777 6.63439,-1.32438 6.6799,-5.72563 -16.33876,-9.8522 -21.88964,-21.17548 -24.33393,-32.92239 0.59372,8.94131 30.81833,14.94779 28.38959,14.79122 -3.07926,-0.19851 -18.61897,-12.87576 -17.1769,-16.22262 4.13518,3.60847 8.27036,6.74347 12.40554,5.9642 4.34471,1.92284 4.85595,-1.2656 5.48706,-4.29423 -6.58133,-6.79299 -11.82628,-7.57225 -17.17689,-8.82701 z"
       id="path3836"
       inkscape:connector-curvature="0"
       sodipodi:nodetypes="ccccccccccccccccccsccccc" />
    <path
       style="fill:#f2f2f2;stroke:#000000;stroke-width:1.20000005;stroke-miterlimit:4;stroke-opacity:1;stroke-dasharray:none;stroke-dashoffset:2"
       d="m 203.49851,177.05618 c -1.12284,5.42482 -3.73922,9.99619 -9.30416,12.88267 6.07286,-0.34494 18.50532,-3.68719 24.09537,-12.88267 z"
       id="path3838"
       inkscape:connector-curvature="0"
       sodipodi:nodetypes="cccc" />
    <path
       style="fill:#ececec;stroke:#000000;stroke-width:1.20000005;stroke-miterlimit:4;stroke-opacity:1;stroke-dasharray:none;stroke-dashoffset:2"
       d="m 230.21812,178.96473 c 3.65804,1.99083 7.31609,3.07314 10.97413,9.30415 -6.98529,5.73834 -13.78235,11.6649 -26.95818,11.2127 8.7089,-1.5798 12.95652,-10.09936 15.98405,-20.51685 z"
       id="path3840"
       inkscape:connector-curvature="0"
       sodipodi:nodetypes="cccc" />
    <path
       style="fill:#999999;stroke:#000000;stroke-width:1.20000005;stroke-miterlimit:4;stroke-opacity:1;stroke-dasharray:none;stroke-dashoffset:2"
       d="m 186.79875,168.22917 c -1.59045,3.42787 -3.18091,5.13539 -4.77136,7.3956 4.18355,-0.76297 7.96823,-1.79187 10.25842,-3.81708 z"
       id="path3842"
       inkscape:connector-curvature="0"
       sodipodi:nodetypes="cccc" />
    <path
       style="fill:#ca0000;fill-opacity:1;stroke:#130e13;stroke-width:1.20000005;stroke-miterlimit:4;stroke-opacity:1;stroke-dasharray:none;stroke-dashoffset:2"
       d="m 155.78491,120.51557 c 0,0 -0.47714,-10.73556 -2.14712,-12.64411 -1.66997,-1.90854 -21.94825,-15.506918 -21.94825,-15.506918 -9.7295,-4.220532 -14.38334,-6.731213 -20.51685,-15.745488 2.90484,10.265925 7.92673,20.108438 17.1769,29.105296 -5.32802,-3.09071 -10.65604,-6.298919 -15.98406,-10.019856 2.26988,6.838946 5.33355,13.677896 15.74549,20.516846 10.6125,6.05766 18.85054,4.20042 27.67389,4.29423 z"
       id="path3846"
       inkscape:connector-curvature="0"
       sodipodi:nodetypes="cscccccc" />
    <path
       style="fill:#000000;stroke:#000000;stroke-width:1.20000005;stroke-miterlimit:4;stroke-opacity:1;stroke-dasharray:none;stroke-dashoffset:2"
       d="M 139.45292,84.438938 125.20773,71.693241 C 119.15983,58.804456 109.97182,43.346495 95.217856,23.334566 86.780901,17.513373 80.270569,10.150883 68.226968,7.2150074 60.058839,6.6898637 52.035767,7.0350652 43.110447,1.9667792 34.99844,-5.3656363 30.6958,-11.065466 28.115509,-16.027146 34.01411,-10.45225 40.197961,-4.0216063 45.359687,-0.65733498 52.482283,2.4482615 59.604878,2.589719 66.727474,3.466273 c 14.767928,1.2266725 22.683537,9.305664 32.239116,15.744685 16.18998,15.07105 25.9637,31.746167 35.98785,48.358675 -1.05571,-9.882878 -3.6074,-20.064949 -8.62209,-30.739623 -6.0246,-9.94338 -14.00687,-17.755415 -20.7603,-26.241142 C 95.75565,5.1501111 90.473401,1.2722747 75.724437,-6.2804367 70.112554,-8.4271577 66.785373,-15.143282 62.603866,-20.150754 l 13.120571,10.121583 c 12.287926,4.1420139 32.155153,15.4397069 38.237093,21.367786 12.3045,10.369959 16.369,17.443923 20.99291,24.741648 l 8.99696,25.116521 0.37488,16.494432 c 0,0 -7.87234,-18.743673 -7.87234,-17.244179 0,1.499494 2.99898,23.991901 2.99898,23.991901 z"
       id="path3848"
       inkscape:connector-curvature="0"
       sodipodi:nodetypes="cccccccccccccccccccsc" />
    <path
       style="fill:#1a1a1a;stroke:#000000;stroke-width:1.20000005;stroke-miterlimit:4;stroke-opacity:1;stroke-dasharray:none;stroke-dashoffset:2"
       d="m 99.012729,134.48743 11.893421,6.24404 c -25.631941,9.87193 -51.204911,20.45152 -77.604572,21.11082 -8.62273,0.0124 -17.24546,-2.90897 -25.86819,-6.83871 L -8.3253946,139.83947 9.5147367,151.13822 c 7.9289473,3.73642 15.8578943,4.42414 23.7868413,5.94671 16.056118,-2.54274 32.112237,-4.68742 48.168355,-13.3801 z"
       id="path3850"
       inkscape:connector-curvature="0"
       sodipodi:nodetypes="ccccccccc" />
  </g>
</svg>
