<svg width="16" height="16" viewBox="0 0 16 16" fill="none" xmlns="http://www.w3.org/2000/svg">
<path d="M12.5871 5.40624C12.8514 5.14195 13 4.78346 13 4.40965C13 4.03583 12.8516 3.67731 12.5873 3.41295C12.323 3.14859 11.9645 3.00005 11.5907 3C11.2169 2.99995 10.8584 3.14841 10.594 3.4127L3.92098 10.0874C3.80488 10.2031 3.71903 10.3456 3.67097 10.5024L3.01047 12.6784C2.99754 12.7217 2.99657 12.7676 3.00764 12.8113C3.01872 12.8551 3.04143 12.895 3.07337 12.9269C3.1053 12.9588 3.14528 12.9815 3.18905 12.9925C3.23282 13.0035 3.27875 13.0024 3.32197 12.9894L5.49849 12.3294C5.65508 12.2818 5.79758 12.1964 5.91349 12.0809L12.5871 5.40624Z" stroke="black" stroke-width="1.33" stroke-linecap="round" stroke-linejoin="round"/>
<path d="M10 4L12 6" stroke="black" stroke-width="1.33" stroke-linecap="round" stroke-linejoin="round"/>
<path d="M6.38818 3.53598V2.53598" stroke="black" stroke-width="1.2" stroke-linecap="round" stroke-linejoin="round"/>
<path d="M9.56982 12.6995L9.56982 13.6995" stroke="black" stroke-width="1.2" stroke-linecap="round" stroke-linejoin="round"/>
<path d="M2.38818 6.53598H3.38818" stroke="black" stroke-width="1.2" stroke-linecap="round" stroke-linejoin="round"/>
<path d="M13.5698 9.69949L12.5698 9.69949" stroke="black" stroke-width="1.2" stroke-linecap="round" stroke-linejoin="round"/>
<path d="M4.38818 4.53598L3.38818 3.53598" stroke="black" stroke-width="1.2" stroke-linecap="round" stroke-linejoin="round"/>
<path d="M11.5698 11.6995L12.5698 12.6995" stroke="black" stroke-width="1.2" stroke-linecap="round" stroke-linejoin="round"/>
</svg>
