<svg width="16" height="16" viewBox="0 0 16 16" fill="none" xmlns="http://www.w3.org/2000/svg">
<path d="M7.25669 0.999943C8.27509 0.993825 9.24655 1.42125 9.9227 2.17279C11.4427 1.85079 12.9991 2.53518 13.7733 3.86518C14.159 4.5149 14.3171 5.26409 14.2372 5.99994H13.2967C13.3789 5.42185 13.265 4.8321 12.9686 4.32514C12.2353 3.06961 10.6088 2.63919 9.33676 3.36322L6.48032 4.98822C6.46926 4.99697 6.46284 5.01135 6.46372 5.02533V6.38568L9.91294 4.42084C10.0565 4.33818 10.2336 4.33823 10.3768 4.42084L13.1502 5.99994H11.2948L9.88364 5.19623C9.87034 5.19054 9.85459 5.19128 9.84262 5.19916L8.64926 5.87983L8.8602 5.99994H7.99985C6.89539 6.00004 5.99988 6.89547 5.99985 7.99994V9.34955L3.90219 8.15522C3.75815 8.07431 3.66897 7.92228 3.66977 7.75873V4.53803C3.66977 4.50828 3.67172 4.4654 3.67172 4.44135C3.08836 4.65262 2.59832 5.0599 2.28794 5.59174C1.55635 6.84647 1.99122 8.44936 3.26059 9.17475L5.99985 10.7363V11.6162C5.87564 11.6568 5.73827 11.6456 5.6229 11.579L2.7977 9.96869C2.77156 9.95382 2.73449 9.9311 2.71372 9.91889C2.60687 10.5231 2.7194 11.1466 3.0311 11.6777C3.6435 12.7209 4.87159 13.1902 5.99985 12.9023V13.8398C4.50443 14.1233 2.98758 13.4424 2.22641 12.1347C1.71174 11.2677 1.60096 10.2237 1.9227 9.27045C0.880739 8.13295 0.703328 6.46023 1.48325 5.13373C1.98739 4.26024 2.84863 3.64401 3.84653 3.44233C4.3245 1.9837 5.70306 0.996447 7.25669 0.999943ZM7.25766 1.91498C5.78932 1.9143 4.59839 3.08914 4.59751 4.53803V7.79193C4.59926 7.80578 4.60735 7.81796 4.61997 7.82416L5.8143 8.50483L5.81626 4.57611C5.81537 4.41216 5.90431 4.2606 6.04868 4.17963L8.87387 2.56928C8.89868 2.55441 8.93612 2.53379 8.95786 2.5224C8.48035 2.13046 7.8788 1.91498 7.25766 1.91498Z" fill="black"/>
<path d="M13.5 6C14.6046 6 15.5 6.89543 15.5 8V13.5C15.5 14.6046 14.6046 15.5 13.5 15.5H8C6.89543 15.5 6 14.6046 6 13.5V8C6 6.89543 6.89543 6 8 6H13.5ZM10.8916 8.02539C10.0563 8.02539 9.33453 8.27982 8.81934 8.76562C8.30213 9.25335 8.02547 9.94371 8.02539 10.748C8.02539 11.557 8.29852 12.2492 8.81543 12.7373C9.33013 13.2232 10.0521 13.4746 10.8916 13.4746C11.9865 13.4745 12.8545 13.1022 13.3076 12.3525C13.3894 12.2176 13.4521 12.0693 13.4521 11.8857C13.4521 11.4795 13.0933 11.2773 12.7842 11.2773C12.6604 11.2774 12.5292 11.3025 12.4072 11.3779C12.2862 11.4529 12.2058 11.5586 12.1494 11.666L12.1475 11.6689C11.9677 12.0213 11.5535 12.246 10.8955 12.2461C10.4219 12.2461 10.0667 12.0932 9.83008 11.8506C9.59255 11.607 9.44141 11.2389 9.44141 10.748C9.44148 10.264 9.59319 9.89628 9.83203 9.65137C10.0702 9.40725 10.4255 9.25391 10.8916 9.25391C11.4912 9.25399 11.9415 9.50614 12.1289 9.8916V9.89062C12.1888 10.0157 12.276 10.1311 12.4023 10.2129C12.5303 10.2956 12.6724 10.3271 12.8115 10.3271C12.9661 10.3271 13.1303 10.2857 13.2627 10.1758C13.4018 10.0603 13.4746 9.89383 13.4746 9.71582C13.4746 9.61857 13.4542 9.52036 13.4199 9.42773L13.3818 9.33691C12.9749 8.49175 11.9927 8.02548 10.8916 8.02539ZM10.3203 8.97852L10.1494 9.03516C10.2095 9.01178 10.2716 8.99089 10.3359 8.97363C10.3307 8.97505 10.3256 8.97706 10.3203 8.97852ZM10.4814 8.94141C10.4969 8.9385 10.5126 8.93616 10.5283 8.93359C10.5126 8.93617 10.4969 8.9385 10.4814 8.94141ZM10.6709 8.91504C10.6819 8.91399 10.693 8.913 10.7041 8.91211C10.693 8.913 10.6819 8.91399 10.6709 8.91504Z" fill="black" fill-opacity="0.95"/>
</svg>
