<svg width="16" height="16" viewBox="0 0 16 16" fill="none" xmlns="http://www.w3.org/2000/svg">
<path d="M14.0768 6.72994C14.3987 5.77663 14.2879 4.73232 13.7731 3.86519C12.9989 2.53519 11.4427 1.85094 9.92272 2.17294C9.24656 1.42132 8.2751 0.993879 7.25664 1C5.70301 0.996504 4.32452 1.9835 3.84655 3.44213C2.84849 3.64382 1.98699 4.26025 1.48286 5.13394C0.70294 6.46044 0.880738 8.13257 1.9227 9.27007C1.6008 10.2234 1.71164 11.2677 2.22642 12.1348C3.00057 13.4648 4.55686 14.1491 6.07679 13.8271C6.75251 14.5787 7.72441 15.0061 8.74287 14.9996C10.2974 15.0035 11.6763 14.0156 12.1543 12.5557C13.1524 12.354 14.0139 11.7376 14.518 10.8639C15.297 9.53738 15.1188 7.86657 14.0773 6.72907L14.0768 6.72994ZM8.74376 14.0848C8.12169 14.0856 7.51912 13.8708 7.0416 13.4775C7.06332 13.4661 7.10101 13.4456 7.1254 13.4307L9.95066 11.8207C10.0952 11.7398 10.1839 11.5879 10.183 11.4239V7.49382L11.377 8.17413C11.3899 8.18025 11.3983 8.1925 11.4001 8.2065V11.4611C11.3983 12.9083 10.2105 14.0817 8.74376 14.0848ZM3.03116 11.6772C2.71946 11.1461 2.60729 10.5235 2.71414 9.91932C2.73498 9.93157 2.77178 9.95388 2.79794 9.96875L5.6232 11.5788C5.76642 11.6614 5.94377 11.6614 6.08743 11.5788L9.53654 9.6135V10.9741C9.53742 10.9881 9.53077 11.0017 9.51969 11.0104L6.66383 12.6375C5.39175 13.3603 3.76719 12.9306 3.03161 11.6772H3.03116ZM2.2876 5.592C2.59797 5.06 3.08792 4.65313 3.67141 4.44182C3.67141 4.46588 3.67008 4.50832 3.67008 4.53807V7.7585C3.6692 7.92213 3.75787 8.07394 3.90198 8.15488L7.35108 10.1197L6.15704 10.8C6.14507 10.8079 6.12999 10.8092 6.11669 10.8035L3.26039 9.17513C1.99098 8.44975 1.55557 6.84719 2.28716 5.59244L2.2876 5.592ZM12.098 7.84469L8.64887 5.87944L9.84292 5.19957C9.85489 5.19169 9.86996 5.19038 9.88326 5.19607L12.7396 6.82313C14.0112 7.54807 14.447 9.15325 13.7124 10.408C13.4015 10.9391 12.912 11.346 12.329 11.5578V8.24107C12.3303 8.07744 12.2421 7.92607 12.0984 7.84469H12.098ZM13.2863 6.07982C13.2654 6.06713 13.2286 6.04525 13.2025 6.03038L10.3772 4.42038C10.234 4.33769 10.0566 4.33769 9.91297 4.42038L6.46386 6.38563V5.025C6.46298 5.011 6.46963 4.99744 6.48071 4.98869L9.33657 3.36294C10.6086 2.63888 12.235 3.06982 12.9683 4.32544C13.2783 4.85569 13.3905 5.4765 13.2854 6.07982H13.2863ZM5.81475 8.50488L4.62026 7.82457C4.6074 7.81844 4.59898 7.80619 4.59721 7.79219V4.53763C4.59809 3.08863 5.78947 1.91438 7.25797 1.91525C7.87916 1.91525 8.48039 2.1305 8.95792 2.5225C8.93619 2.53388 8.89894 2.55444 8.87412 2.56932L6.04885 4.17932C5.90431 4.26025 5.81563 4.41163 5.81652 4.57569L5.81475 8.504V8.50488ZM6.46342 7.125L7.99976 6.24957L9.53609 7.12457V8.875L7.99976 9.75L6.46342 8.875V7.125Z" fill="black"/>
</svg>
