<svg width="10" height="10" viewBox="0 0 10 10" fill="none" xmlns="http://www.w3.org/2000/svg">
<path d="M5.5 1H7.5H8.75C8.88807 1 9 1.11193 9 1.25V4.5" stroke="#838994" stroke-linecap="round"/>
<path d="M3.64645 5.64645C3.45118 5.84171 3.45118 6.15829 3.64645 6.35355C3.84171 6.54882 4.15829 6.54882 4.35355 6.35355L3.64645 5.64645ZM8.64645 0.646447L3.64645 5.64645L4.35355 6.35355L9.35355 1.35355L8.64645 0.646447Z" fill="#838994"/>
<path d="M7.5 6.5V9C7.5 9.27614 7.27614 9.5 7 9.5H1C0.723858 9.5 0.5 9.27614 0.5 9V3C0.5 2.72386 0.723858 2.5 1 2.5H3.5" stroke="#838994" stroke-linecap="round"/>
</svg>
