<svg width="16" height="16" viewBox="0 0 16 16" fill="none" xmlns="http://www.w3.org/2000/svg">
<path d="M13.3333 13.3333C13.6869 13.3333 14.026 13.1929 14.2761 12.9428C14.5261 12.6928 14.6666 12.3536 14.6666 12V5.33333C14.6666 4.97971 14.5261 4.64057 14.2761 4.39052C14.026 4.14048 13.6869 4 13.3333 4H8.06659C7.84359 4.00219 7.62362 3.94841 7.42679 3.84359C7.22996 3.73877 7.06256 3.58625 6.93992 3.4L6.39992 2.6C6.27851 2.41565 6.11324 2.26432 5.91892 2.1596C5.7246 2.05488 5.50732 2.00004 5.28659 2H2.66659C2.31296 2 1.97382 2.14048 1.72378 2.39052C1.47373 2.64057 1.33325 2.97971 1.33325 3.33333V12C1.33325 12.3536 1.47373 12.6928 1.72378 12.9428C1.97382 13.1929 2.31296 13.3333 2.66659 13.3333H13.3333Z" stroke="black" stroke-width="1.5" stroke-linecap="round" stroke-linejoin="round"/>
</svg>
