<svg width="16" height="16" viewBox="0 0 16 16" fill="none" xmlns="http://www.w3.org/2000/svg">
<path fill-rule="evenodd" clip-rule="evenodd" d="M5.35606 1.005H1.62545C1.28002 1.005 1 1.28502 1 1.63044C1 1.97587 1.28002 2.25589 1.62545 2.25589L5.35606 2.25589C5.62311 2.25589 5.8607 2.42545 5.94752 2.67799L9.75029 13.7387C10.0108 14.4963 10.7235 15.005 11.5247 15.005H14.3746C14.72 15.005 15 14.725 15 14.3796C15 14.0341 14.72 13.7541 14.3746 13.7541H11.5247C11.2576 13.7541 11.02 13.5845 10.9332 13.332L7.13046 2.27128C6.86998 1.51366 6.15721 1.005 5.35606 1.005ZM14.3745 1.005H9.75125C9.40582 1.005 9.1258 1.28502 9.1258 1.63044C9.1258 1.97587 9.40582 2.25589 9.75125 2.25589L14.3745 2.25589C14.72 2.25589 15 1.97587 15 1.63044C15 1.28502 14.72 1.005 14.3745 1.005Z" fill="black"/>
</svg>
