<svg width="16" height="16" viewBox="0 0 16 16" fill="none" xmlns="http://www.w3.org/2000/svg">
<g clip-path="url(#clip0_1650_1657)">
<path d="M9.4433 15.9192V8.49652H12.0233C12.2553 8.49652 12.4873 8.51672 12.7193 8.55711C12.9513 8.59078 13.1713 8.65474 13.3793 8.74899C13.5873 8.84325 13.7713 8.96444 13.9313 9.11255C14.0913 9.25394 14.2193 9.41552 14.3153 9.5973C14.4193 9.77235 14.4913 9.95749 14.5313 10.1527C14.5713 10.348 14.5913 10.5466 14.5913 10.7486C14.5913 10.9438 14.5713 11.1391 14.5313 11.3343C14.4913 11.5296 14.4193 11.7181 14.3153 11.8998C14.2193 12.0749 14.0913 12.2365 13.9313 12.3846C13.7713 12.5327 13.5873 12.6539 13.3793 12.7482C13.1713 12.8424 12.9513 12.9097 12.7193 12.9501C12.4873 12.9838 12.2553 13.0006 12.0233 13.0006H10.7273V15.9192H9.4433ZM12.0233 12.0614C12.2153 12.0614 12.3993 12.0278 12.5753 11.9604C12.7593 11.8931 12.9073 11.7955 13.0193 11.6676C13.1313 11.5329 13.2073 11.3882 13.2473 11.2333C13.2873 11.0717 13.3073 10.9102 13.3073 10.7486C13.3073 10.587 13.2873 10.4254 13.2473 10.2638C13.2073 10.1022 13.1313 9.95749 13.0193 9.82957C12.9073 9.69492 12.7593 9.59393 12.5753 9.52661C12.3993 9.45928 12.2153 9.42562 12.0233 9.42562H10.7273V12.0614H12.0233Z" fill="black"/>
<path d="M4.604 16C4.372 16 4.144 15.9832 3.92 15.9495C3.696 15.9226 3.48 15.8687 3.272 15.7879C3.064 15.7071 2.876 15.5994 2.708 15.4648C2.54 15.3301 2.4 15.1786 2.288 15.0103C2.184 14.842 2.108 14.6636 2.06 14.4751C2.02 14.2798 2 14.0879 2 13.8994V8.49652H3.284V13.8994C3.284 14.0543 3.308 14.2058 3.356 14.3539C3.404 14.502 3.488 14.6333 3.608 14.7477C3.736 14.8622 3.888 14.9463 4.064 15.0002C4.24 15.0473 4.42 15.0709 4.604 15.0709C4.788 15.0709 4.968 15.0473 5.144 15.0002C5.32 14.9463 5.468 14.8622 5.588 14.7477C5.716 14.6333 5.804 14.502 5.852 14.3539C5.9 14.2058 5.924 14.0543 5.924 13.8994V8.49652H7.208V13.8994C7.208 14.0879 7.184 14.2798 7.136 14.4751C7.096 14.6636 7.02 14.842 6.908 15.0103C6.804 15.1786 6.668 15.3301 6.5 15.4648C6.332 15.5994 6.144 15.7071 5.936 15.7879C5.728 15.8687 5.512 15.9226 5.288 15.9495C5.064 15.9832 4.836 16 4.604 16Z" fill="black"/>
<path d="M11.7473 7.58426C11.5233 7.58426 11.2953 7.56743 11.0633 7.53377C10.8393 7.50011 10.6193 7.44625 10.4033 7.37219C10.1953 7.2914 10.0033 7.18704 9.82731 7.05912C9.65931 6.92447 9.51931 6.77299 9.40731 6.60467C9.29531 6.42963 9.21531 6.24785 9.16731 6.05933C9.11931 5.87082 9.09531 5.67894 9.09531 5.4837V2.10057C9.09531 1.90532 9.11531 1.71344 9.15531 1.52493C9.20331 1.32969 9.28331 1.14791 9.39531 0.979592C9.51531 0.811277 9.65931 0.66316 9.82731 0.535241C10.0033 0.400589 10.1953 0.292868 10.4033 0.212076C10.6193 0.131285 10.8393 0.0774248 11.0633 0.0504944C11.2953 0.0168315 11.5273 0 11.7593 0C11.9833 0 12.2033 0.0134652 12.4193 0.0403956C12.6353 0.0673261 12.8433 0.114454 13.0433 0.18178C13.2513 0.249106 13.4433 0.343362 13.6193 0.464549C13.7953 0.579003 13.9433 0.713655 14.0633 0.868505C14.1833 1.02335 14.2713 1.19167 14.3273 1.37345C14.3913 1.5485 14.4233 1.73028 14.4233 1.91879C14.4233 1.91879 14.4233 1.92215 14.4233 1.92889C14.4233 1.92889 14.4233 1.93225 14.4233 1.93899H13.1393C13.1393 1.93225 13.1393 1.92889 13.1393 1.92889C13.1393 1.78077 13.1033 1.63939 13.0313 1.50473C12.9593 1.37008 12.8553 1.25899 12.7193 1.17147C12.5913 1.08395 12.4433 1.02335 12.2753 0.989691C12.1073 0.949295 11.9353 0.929098 11.7593 0.929098C11.5753 0.929098 11.3913 0.952662 11.2073 0.99979C11.0313 1.04692 10.8753 1.12771 10.7393 1.24216C10.6113 1.34988 10.5193 1.48117 10.4633 1.63602C10.4073 1.79087 10.3793 1.94572 10.3793 2.10057V5.4837C10.3793 5.63855 10.4073 5.7934 10.4633 5.94824C10.5193 6.09636 10.6113 6.22765 10.7393 6.3421C10.8673 6.44982 11.0193 6.53061 11.1953 6.58447C11.3713 6.6316 11.5513 6.65517 11.7353 6.65517C11.8633 6.65517 11.9873 6.64507 12.1073 6.62487C12.2353 6.60467 12.3553 6.57101 12.4673 6.52388C12.5793 6.47675 12.6793 6.41953 12.7673 6.3522C12.8633 6.27814 12.9353 6.19398 12.9833 6.09973C13.0393 6.00547 13.0753 5.90448 13.0913 5.79676C13.1073 5.68904 13.1153 5.58468 13.1153 5.4837V4.34252H11.7953V3.41342H14.3993V5.4837C14.3993 5.67894 14.3833 5.87419 14.3513 6.06943C14.3273 6.26468 14.2593 6.44982 14.1473 6.62487C14.0353 6.79319 13.8873 6.94467 13.7033 7.07932C13.5273 7.20724 13.3313 7.30823 13.1153 7.38229C12.8993 7.45635 12.6753 7.50684 12.4433 7.53377C12.2193 7.56743 11.9873 7.58426 11.7473 7.58426Z" fill="black"/>
<path d="M2 7.50346V0.08078H4.58C4.812 0.08078 5.044 0.100978 5.276 0.141373C5.508 0.175036 5.728 0.238996 5.936 0.333252C6.144 0.427508 6.328 0.548695 6.488 0.696812C6.648 0.838196 6.776 0.999778 6.872 1.18156C6.976 1.35661 7.048 1.54175 7.088 1.737C7.128 1.93224 7.148 2.13085 7.148 2.33283C7.148 2.52808 7.128 2.72332 7.088 2.91857C7.048 3.11381 6.976 3.30233 6.872 3.48411C6.776 3.65915 6.648 3.82073 6.488 3.96885C6.328 4.11697 6.144 4.23816 5.936 4.33241C5.728 4.42667 5.508 4.49399 5.276 4.53439C5.044 4.56805 4.812 4.58488 4.58 4.58488H3.284V7.50346H2ZM4.58 3.64569C4.772 3.64569 4.956 3.61202 5.132 3.5447C5.316 3.47737 5.464 3.37975 5.576 3.25183C5.688 3.11718 5.764 2.97243 5.804 2.81758C5.844 2.656 5.864 2.49441 5.864 2.33283C5.864 2.17125 5.844 2.00967 5.804 1.84809C5.764 1.6865 5.688 1.54175 5.576 1.41383C5.464 1.27918 5.316 1.17819 5.132 1.11087C4.956 1.04354 4.772 1.00988 4.58 1.00988H3.284V3.64569H4.58Z" fill="black"/>
</g>
<defs>
<clipPath id="clip0_1650_1657">
<rect width="16" height="16" fill="white"/>
</clipPath>
</defs>
</svg>
