<svg width="16" height="16" viewBox="0 0 16 16" fill="none" xmlns="http://www.w3.org/2000/svg">
<g clip-path="url(#clip0_62_95)">
<path d="M4.5 6C3.67157 6 3 5.32843 3 4.5C3 3.67157 3.67157 3 4.5 3C5.32843 3 6 3.67157 6 4.5C6 5.32843 5.32843 6 4.5 6Z" stroke="white" stroke-width="1.25" stroke-linecap="round" stroke-linejoin="round"/>
<path d="M6.54433 13.4334C6.87775 13.5227 7.22046 13.3249 7.3098 12.9914C7.39914 12.658 7.20127 12.3153 6.86786 12.226L6.54433 13.4334ZM3.77426 6.86772L3.93603 6.26401L2.72862 5.94049L2.56686 6.54419L3.77426 6.86772ZM6.86786 12.226C4.53394 11.6006 3.14889 9.20163 3.77426 6.86772L2.56686 6.54419C1.76281 9.54494 3.54359 12.6293 6.54433 13.4334L6.86786 12.226Z" fill="white"/>
<path d="M11.5 13C10.6716 13 10 12.3284 10 11.5C10 10.6716 10.6716 10 11.5 10C12.3284 10 13 10.6716 13 11.5C13 12.3284 12.3284 13 11.5 13Z" stroke="white" stroke-width="1.25" stroke-linecap="round" stroke-linejoin="round"/>
<path d="M10.1875 4.21113C9.88852 4.03854 9.7861 3.65629 9.95869 3.35736C10.1313 3.05843 10.5135 2.95601 10.8125 3.12859L10.1875 4.21113ZM11.7888 10.1875C12.9969 8.09496 12.28 5.41925 10.1875 4.21113L10.8125 3.12859C13.5028 4.6819 14.4246 8.12209 12.8713 10.8125L11.7888 10.1875Z" fill="white"/>
</g>
<defs>
<clipPath id="clip0_62_95">
<rect width="16" height="16" fill="white" transform="matrix(-1 0 0 1 16 0)"/>
</clipPath>
</defs>
</svg>
