<svg width="14" height="14" viewBox="0 0 14 14" fill="none" xmlns="http://www.w3.org/2000/svg">
<path d="M3.30859 13.0703C3.80693 13.0703 4.21094 12.6663 4.21094 12.168C4.21094 11.6696 3.80693 11.2656 3.30859 11.2656C2.81025 11.2656 2.40625 11.6696 2.40625 12.168C2.40625 12.6663 2.81025 13.0703 3.30859 13.0703Z" fill="black"/>
<path fill-rule="evenodd" clip-rule="evenodd" d="M6.53516 8.03849L4.10799 12.6055L2.51562 11.7584L4.94279 7.19141L6.53516 8.03849Z" fill="black"/>
<path fill-rule="evenodd" clip-rule="evenodd" d="M7.38281 2.62443L4.93916 7.19141L3.33594 6.34432L5.77959 1.77734L7.38281 2.62443Z" fill="black"/>
<path d="M6.5625 3.08984C7.06084 3.08984 7.46484 2.68585 7.46484 2.1875C7.46484 1.68915 7.06084 1.28516 6.5625 1.28516C6.06416 1.28516 5.66016 1.68915 5.66016 2.1875C5.66016 2.68585 6.06416 3.08984 6.5625 3.08984Z" fill="black"/>
<path fill-rule="evenodd" clip-rule="evenodd" d="M10.882 1.31204C11.2842 1.41224 11.5664 1.7732 11.5664 2.18737V12.168H9.76084V5.8056L8.12938 8.87176L6.53516 8.02471L9.86653 1.76385C10.0611 1.39816 10.4799 1.21184 10.882 1.31204Z" fill="black"/>
<path d="M10.6641 13.0703C11.1624 13.0703 11.5664 12.6663 11.5664 12.168C11.5664 11.6696 11.1624 11.2656 10.6641 11.2656C10.1657 11.2656 9.76172 11.6696 9.76172 12.168C9.76172 12.6663 10.1657 13.0703 10.6641 13.0703Z" fill="black"/>
</svg>
