<svg width="16" height="16" viewBox="0 0 16 16" fill="none" xmlns="http://www.w3.org/2000/svg">
<path d="M10.4174 10.2159C10.5454 9.58974 10.4174 9.57261 11.3762 8.46959C11.9337 7.82822 12.335 7.09214 12.335 6.27818C12.335 5.28184 11.9309 4.32631 11.2118 3.62179C10.4926 2.91728 9.5171 2.52148 8.50001 2.52148C7.48291 2.52148 6.50748 2.91728 5.78828 3.62179C5.06909 4.32631 4.66504 5.28184 4.66504 6.27818C4.66504 6.9043 4.79288 7.65565 5.62379 8.46959C6.58253 9.59098 6.45474 9.58974 6.58257 10.2159M10.4174 10.2159L10.4174 12.2989C10.4174 12.9504 9.87836 13.4786 9.21329 13.4786H7.78674C7.12167 13.4786 6.58253 12.9504 6.58253 12.2989L6.58257 10.2159M10.4174 10.2159H8.50001H6.58257" stroke="black" stroke-width="1.5" stroke-linecap="round" stroke-linejoin="round"/>
</svg>
