<svg width="14" height="14" viewBox="0 0 14 14" fill="none" xmlns="http://www.w3.org/2000/svg">
<path d="M4.99207 8.14741C5.37246 8.14741 5.73726 7.9963 6.00623 7.72733C6.27521 7.45836 6.42631 7.09355 6.42631 6.71317C6.42631 5.92147 6.13946 5.56578 5.85262 4.99208C5.23761 3.76265 5.72411 2.66631 7.00001 1.5499C7.28686 2.98414 8.1474 4.36101 9.2948 5.27893C10.4422 6.19684 11.0159 7.28687 11.0159 8.43426C11.0159 8.96163 10.912 9.48384 10.7102 9.97107C10.5084 10.4583 10.2126 10.901 9.83967 11.2739C9.46676 11.6468 9.02405 11.9426 8.53682 12.1444C8.04959 12.3463 7.52738 12.4501 7.00001 12.4501C6.47264 12.4501 5.95043 12.3463 5.4632 12.1444C4.97597 11.9426 4.53326 11.6468 4.16035 11.2739C3.78745 10.901 3.49164 10.4583 3.28982 9.97107C3.088 9.48384 2.98413 8.96163 2.98413 8.43426C2.98413 7.77279 3.23254 7.1182 3.55783 6.71317C3.55783 7.09355 3.70894 7.45836 3.97791 7.72733C4.24688 7.9963 4.61169 8.14741 4.99207 8.14741Z" stroke="black" stroke-width="1.5" stroke-linecap="round" stroke-linejoin="round"/>
</svg>
