<svg width="16" height="16" viewBox="0 0 16 16" fill="none" xmlns="http://www.w3.org/2000/svg">
<g clip-path="url(#clip0_1791_43)">
<path fill-rule="evenodd" clip-rule="evenodd" d="M13.8473 4.79901C13.7531 4.63587 13.6232 4.4934 13.4803 4.4109L8.51958 1.54683C8.23382 1.38181 7.76613 1.38181 7.48037 1.54683L2.51961 4.4109C2.2338 4.57587 2 4.98089 2 5.31089V11.0391C2 11.2041 2.05864 11.3879 2.15283 11.551C2.24699 11.7141 2.37691 11.8566 2.51977 11.939L7.48053 14.8031C7.7663 14.9681 8.23398 14.9681 8.51974 14.8031L13.4805 11.939C13.6234 11.8565 13.7532 11.714 13.8473 11.5509C13.9415 11.3878 14 11.204 14 11.039V5.31085C14 5.14583 13.9415 4.96211 13.8473 4.79901ZM4 8.175C4 10.3806 5.79438 12.175 7.99998 12.175C9.42327 12.175 10.7506 11.4091 11.464 10.1761L9.73295 9.17441C9.37586 9.79162 8.71182 10.175 7.99998 10.175C6.89716 10.175 5.99999 9.27778 5.99999 8.175C5.99999 7.07218 6.89716 6.17501 7.99998 6.17501C8.71174 6.17501 9.37578 6.55838 9.73284 7.17548L11.4639 6.17375C10.7505 4.9409 9.42319 4.17502 7.99998 4.17502C5.79438 4.17502 4 5.9694 4 8.175Z" fill="black"/>
</g>
<defs>
<clipPath id="clip0_1791_43">
<rect width="11.9999" height="13.5039" fill="white" transform="translate(2 1.42307)"/>
</clipPath>
</defs>
</svg>
