<svg width="16" height="16" viewBox="0 0 16 16" fill="none" xmlns="http://www.w3.org/2000/svg">
<path fill-rule="evenodd" clip-rule="evenodd" d="M13.4 12.5C13.7313 12.5 14 12.2201 14 11.875V5.85C14 5.50483 13.7313 5.225 13.4 5.225H11.079C10.8618 5.225 10.6616 5.10275 10.5554 4.90535L9.97183 3.81965C9.86571 3.62225 9.66549 3.5 9.4483 3.5H6.5517C6.33451 3.5 6.13429 3.62225 6.02817 3.81965L5.44455 4.90535C5.33845 5.10275 5.13822 5.225 4.92104 5.225H2.6C2.26863 5.225 2 5.50483 2 5.85V11.875C2 12.2201 2.26863 12.5 2.6 12.5H13.4ZM10 8.5C10 9.60457 9.10457 10.5 8 10.5C6.89543 10.5 6 9.60457 6 8.5C6 7.39543 6.89543 6.5 8 6.5C9.10457 6.5 10 7.39543 10 8.5Z" fill="black"/>
</svg>
