<svg width="16" height="16" viewBox="0 0 16 16" fill="none" xmlns="http://www.w3.org/2000/svg">
    <path d="M2.53208 6.63971H2.42954L2.40949 6.74026L1.55857 11.0068L1.52876 11.1562H1.68115H2.50827H2.61075L2.63085 11.0557L2.83687 10.0256H3.44845C3.70004 10.0256 3.94417 9.99678 4.18045 9.93871C4.43396 9.8764 4.66578 9.731 4.87657 9.51211C5.0489 9.33958 5.18417 9.1453 5.28168 8.92946C5.38161 8.71688 5.4468 8.49901 5.47636 8.27605C5.55068 7.7954 5.48117 7.39356 5.24237 7.09178C5.00056 6.78618 4.61855 6.64383 4.12786 6.63971L4.12786 6.63971H4.12681H2.53208ZM3.02254 9.10917L3.32957 7.57402H3.32975H3.32998H3.33022H3.33046H3.33069H3.33093H3.33116H3.3314H3.33163H3.33187H3.3321H3.33234H3.33257H3.33281H3.33304H3.33328H3.33351H3.33375H3.33398H3.33422H3.33445H3.33469H3.33492H3.33516H3.33539H3.33563H3.33586H3.3361H3.33633H3.33656H3.3368H3.33703H3.33727H3.3375H3.33774H3.33797H3.3382H3.33844H3.33867H3.33891H3.33914H3.33937H3.33961H3.33984H3.34007H3.34031H3.34054H3.34078H3.34101H3.34124H3.34148H3.34171H3.34194H3.34218H3.34241H3.34264H3.34288H3.34311H3.34334H3.34357H3.34381H3.34404H3.34427H3.34451H3.34474H3.34497H3.3452H3.34544H3.34567H3.3459H3.34613H3.34637H3.3466H3.34683H3.34706H3.3473C3.39341 7.57402 3.44096 7.57195 3.48998 7.56801C3.79781 7.56449 4.04639 7.59375 4.23948 7.652L4.24008 7.65218C4.3012 7.67028 4.34462 7.7103 4.36998 7.79556C4.39766 7.88858 4.40099 8.03039 4.36664 8.23093C4.28051 8.72035 4.12128 8.94206 3.93986 9.00209C3.70277 9.07608 3.39973 9.11302 3.02726 9.10918L3.02726 9.10917H3.02597H3.02581H3.02564H3.02548H3.02532H3.02516H3.02499H3.02483H3.02467H3.02451H3.02434H3.02418H3.02402H3.02386H3.02369H3.02353H3.02337H3.02321H3.02304H3.02288H3.02272H3.02256H3.02254Z" fill="black" stroke="black" stroke-width="0.25"/>
    <path d="M11.5321 6.63971H11.4295L11.4095 6.74026L10.5586 11.0068L10.5288 11.1562H10.6812H11.5083H11.6107L11.6308 11.0557L11.8369 10.0256H12.4485C12.7 10.0256 12.9442 9.99678 13.1804 9.93871C13.434 9.8764 13.6658 9.731 13.8766 9.51212C14.0489 9.33959 14.1842 9.14531 14.2817 8.92947C14.3816 8.71688 14.4468 8.49901 14.4764 8.27605C14.5507 7.7954 14.4812 7.39356 14.2424 7.09178C14.0006 6.78618 13.6186 6.64383 13.1279 6.63971V6.63971H13.1268H11.5321ZM12.0225 9.10917L12.3296 7.57402H12.3297H12.33H12.3302H12.3305H12.3307H12.3309H12.3312H12.3314H12.3316H12.3319H12.3321H12.3323H12.3326H12.3328H12.333H12.3333H12.3335H12.3337H12.334H12.3342H12.3345H12.3347H12.3349H12.3352H12.3354H12.3356H12.3359H12.3361H12.3363H12.3366H12.3368H12.337H12.3373H12.3375H12.3377H12.338H12.3382H12.3384H12.3387H12.3389H12.3391H12.3394H12.3396H12.3398H12.3401H12.3403H12.3405H12.3408H12.341H12.3412H12.3415H12.3417H12.3419H12.3422H12.3424H12.3426H12.3429H12.3431H12.3433H12.3436H12.3438H12.344H12.3443H12.3445H12.3447H12.345H12.3452H12.3454H12.3457H12.3459H12.3461H12.3464H12.3466H12.3468H12.3471H12.3473C12.3934 7.57402 12.441 7.57195 12.49 7.56801C12.7978 7.56449 13.0464 7.59375 13.2395 7.652L13.2401 7.65218C13.3012 7.67028 13.3446 7.7103 13.37 7.79556C13.3977 7.88859 13.401 8.03042 13.3666 8.23098C13.2805 8.72036 13.1213 8.94206 12.9399 9.00209C12.7028 9.07608 12.3997 9.11302 12.0273 9.10918V9.10917H12.026H12.0258H12.0256H12.0255H12.0253H12.0252H12.025H12.0248H12.0247H12.0245H12.0243H12.0242H12.024H12.0239H12.0237H12.0235H12.0234H12.0232H12.023H12.0229H12.0227H12.0226H12.0225Z" fill="black" stroke="black" stroke-width="0.25"/>
    <path d="M7.31195 5.50427H7.20953L7.18939 5.60469L6.32959 9.89176L6.29959 10.0413H6.45215H7.27613H7.37865L7.39871 9.9408L7.86807 7.58825L8.42737 7.59329V7.59329H8.4285C8.52689 7.59329 8.60062 7.60317 8.65336 7.61922C8.70593 7.63523 8.72999 7.6549 8.74104 7.66941C8.76971 7.70706 8.79236 7.79971 8.75376 7.99301C8.75375 7.99305 8.75374 7.99309 8.75373 7.99312L8.37164 9.89168L8.34151 10.0413H8.49418H9.3301H9.43245L9.45264 9.941L9.85269 7.9527L9.8527 7.95271L9.853 7.95109C9.93841 7.4956 9.88972 7.12761 9.62862 6.92248C9.39863 6.73882 9.06399 6.65296 8.64591 6.64473L8.64591 6.6447H8.64345H8.05617L8.2584 5.65428L8.28903 5.50427H8.13593H7.31195Z" fill="black" stroke="black" stroke-width="0.25"/>
</svg>
