<svg width="16" height="16" viewBox="0 0 16 16" fill="none" xmlns="http://www.w3.org/2000/svg">
<path d="M7.3114 6.89894C7.21972 6.83689 7.11826 6.76698 7.0068 6.68855C6.33971 6.21915 5.31468 5.44486 3.88659 4.22728C3.79832 4.15202 3.68759 4.16943 3.6211 4.22886C3.55344 4.28933 3.52517 4.39985 3.59834 4.49421C4.15409 5.21081 5.04887 6.3378 5.98199 7.40344C6.91019 8.46347 7.88487 9.47285 8.60357 9.95164C8.03666 10.2705 5.68532 11.338 2.40116 9.29944C2.31737 9.24742 2.22047 9.26251 2.15977 9.32127C2.09752 9.38152 2.0813 9.48043 2.13908 9.56483C2.79324 10.5204 4.9009 13.1 8.60023 13.1C9.62606 13.1 10.2912 12.8273 10.8233 12.5566C10.9172 12.5088 11.0053 12.4621 11.0897 12.4173C11.247 12.3338 11.3916 12.257 11.5376 12.1929C11.7578 12.0963 11.9683 12.0349 12.2004 12.0349C12.9242 12.0349 13.4385 12.5931 13.6594 12.8899C13.7076 12.9548 13.784 12.9808 13.8529 12.9722C13.9231 12.9634 13.9934 12.9169 14.0173 12.8328C14.2142 12.1397 14.0297 11.4275 13.7766 10.8631C13.5227 10.2968 13.1935 9.86471 13.0802 9.72396C13.0787 9.72213 13.0784 9.72084 13.0783 9.72023C13.0782 9.71966 13.0781 9.71868 13.0787 9.717C13.1691 9.46587 13.4833 8.45239 13.229 7.08016C12.9743 5.70523 12.1508 3.9805 9.98231 2.30796C9.88426 2.23234 9.77145 2.27432 9.71152 2.32965C9.65164 2.38494 9.60164 2.49203 9.66229 2.59608C10.2077 3.53179 11.1117 5.55203 10.3965 7.75745C9.84333 7.34896 7.33064 5.47401 5.52262 3.80176C5.429 3.71517 5.30983 3.74724 5.24432 3.80203C5.17859 3.85699 5.12552 3.97039 5.20033 4.07715C5.59393 4.6389 6.11182 5.36404 6.60435 6.01078C6.85108 6.33475 7.09332 6.6416 7.3114 6.89894Z" fill="black" stroke="black" stroke-width="0.2"/>
</svg>
