<svg width="16" height="16" viewBox="0 0 16 16" fill="none" xmlns="http://www.w3.org/2000/svg">
<path fill-rule="evenodd" clip-rule="evenodd" d="M12.58 2H2.5V12.08C2.5 12.5892 2.70229 13.0776 3.06235 13.4376C3.42242 13.7977 3.91078 14 4.42 14H12.58C13.0892 14 13.5776 13.7977 13.9376 13.4376C14.2977 13.0776 14.5 12.5892 14.5 12.08V3.92C14.5 3.41078 14.2977 2.92242 13.9376 2.56235C13.5776 2.20229 13.0892 2 12.58 2ZM3.358 11.6285C3.34615 12.6668 3.96437 13.2311 4.96636 13.232H4.96621C6.06429 13.2456 6.70951 12.4798 6.63088 11.3867H5.48085C5.4899 11.601 5.47243 11.8974 5.36026 12.0313C5.27992 12.1441 5.16183 12.2005 5.00645 12.2005C4.67402 12.1952 4.50788 11.9534 4.50788 11.4753V9.19488C4.50788 8.94247 4.54407 8.75168 4.61645 8.62283C4.73423 8.38524 5.17961 8.3584 5.34825 8.58663C5.47804 8.71252 5.48974 9.04683 5.48101 9.26757H6.63104C6.66099 8.70582 6.53494 8.10381 6.20079 7.80913C5.65853 7.23521 4.37403 7.26765 3.82039 7.80102C3.51213 8.07495 3.358 8.47525 3.358 9.00159V11.6285ZM7.04116 11.3867C7.01043 12.4573 7.50713 13.2473 8.61739 13.232L8.61723 13.2317C10.1571 13.2967 10.5874 11.592 9.96023 10.4759C9.74995 10.1097 9.16994 9.80702 8.71379 9.62981C8.36155 9.46772 8.21038 9.3086 8.20711 8.92079C8.20711 8.55559 8.35983 8.37291 8.66543 8.37291C8.83688 8.37291 8.95357 8.42939 9.01519 8.54217C9.10317 8.6754 9.12454 9.0409 9.11565 9.26742H10.1612C10.1866 8.71627 10.0554 8.11739 9.75509 7.81303C9.26822 7.22257 7.99791 7.24909 7.5115 7.82504C7.0109 8.29179 6.97783 9.4437 7.3346 9.96848C7.49278 10.205 7.75143 10.409 8.1107 10.5809C8.15897 10.6051 8.21552 10.6314 8.27633 10.6598C8.53247 10.7792 8.86416 10.9338 8.97119 11.1046C9.16073 11.3241 9.13593 11.8913 9.00333 12.0877C8.9336 12.1952 8.81285 12.2489 8.64141 12.2489C8.25703 12.2785 8.09666 11.8534 8.12677 11.3867H7.04116ZM10.5474 11.3867C10.5167 12.4573 11.0134 13.2473 12.1236 13.232L12.1235 13.2317C13.6634 13.2967 14.0936 11.592 13.4665 10.4759C13.2562 10.1097 12.6762 9.80702 12.2201 9.62981C11.8678 9.46772 11.7166 9.3086 11.7134 8.92079C11.7134 8.55559 11.8661 8.37291 12.1717 8.37291C12.3431 8.37291 12.4598 8.42939 12.5214 8.54217C12.6094 8.6754 12.6308 9.0409 12.6219 9.26742H13.6674C13.6928 8.71627 13.5617 8.11739 13.2614 7.81303C12.7745 7.22257 11.5042 7.24909 11.0178 7.82504C10.5172 8.29179 10.4841 9.4437 10.8409 9.96848C10.999 10.205 11.2577 10.409 11.617 10.5809C11.6652 10.6051 11.7218 10.6314 11.7826 10.6598C12.0387 10.7792 12.3704 10.9338 12.4775 11.1046C12.667 11.3241 12.6422 11.8913 12.5096 12.0877C12.4399 12.1952 12.3191 12.2489 12.1477 12.2489C11.7633 12.2785 11.6029 11.8534 11.633 11.3867H10.5474Z" fill="black"/>
</svg>
