<svg width="16" height="16" viewBox="0 0 16 16" fill="none" xmlns="http://www.w3.org/2000/svg">
<path d="M5.90212 4H6.72288C6.89527 4 7.05551 4.08881 7.14688 4.235L11.5219 11.235C11.73 11.568 11.4906 12 11.0979 12H10.2771C10.1047 12 9.94449 11.9112 9.85312 11.765L8.5 9.6L7.14688 11.765C7.05551 11.9112 6.89527 12 6.72288 12H5.90212C5.50941 12 5.26998 11.568 5.47812 11.235L7.5 8L5.47812 4.765C5.26998 4.43198 5.50941 4 5.90212 4Z" fill="black"/>
<path d="M3.72288 4H2.90212C2.50941 4 2.26998 4.43198 2.47812 4.765L4.33438 7.735C4.43571 7.89714 4.43571 8.10286 4.33438 8.265L2.47812 11.235C2.26998 11.568 2.50941 12 2.90212 12H3.72288C3.89527 12 4.05551 11.9112 4.14688 11.765L6.33438 8.265C6.43571 8.10286 6.43571 7.89714 6.33438 7.735L4.14688 4.235C4.05551 4.08881 3.89527 4 3.72288 4Z" fill="black"/>
<path d="M13.1407 6.32812H10.3653C9.97377 6.32812 9.73415 6.75776 9.93989 7.09087L10.1426 7.419C10.2336 7.56647 10.3946 7.65625 10.568 7.65625H13.1407C13.4168 7.65625 13.6407 7.43239 13.6407 7.15625V6.82812C13.6407 6.55198 13.4168 6.32812 13.1407 6.32812Z" fill="black"/>
<path d="M13.1407 8.32812H11.6126C11.2191 8.32812 10.9798 8.7615 11.1894 9.09447L11.3959 9.42259C11.4875 9.56801 11.6473 9.65625 11.8191 9.65625H13.1407C13.4168 9.65625 13.6407 9.43239 13.6407 9.15625V8.82812C13.6407 8.55198 13.4168 8.32812 13.1407 8.32812Z" fill="black"/>
</svg>
