<svg width="16" height="16" viewBox="0 0 16 16" fill="none" xmlns="http://www.w3.org/2000/svg">
<path d="M12 13.5H7.18128C7.25315 13.3339 7.31861 13.1633 7.37733 12.9884C7.84629 11.625 7.9495 10.2397 7.98391 8.87162L7.98407 8.87162V8.85905C7.98407 8.79799 7.98882 8.75909 7.99406 8.73493C7.99656 8.7234 7.99896 8.71621 8.0005 8.71224C8.00097 8.71104 8.00138 8.71007 8.00173 8.70929C8.00249 8.70761 8.00296 8.70687 8.00303 8.70676C8.00306 8.70671 8.00311 8.70662 8.00323 8.70645C8.00342 8.70618 8.0038 8.7057 8.0045 8.70494C8.00571 8.70363 8.00896 8.70034 8.01561 8.69532C8.02944 8.68488 8.05816 8.66688 8.11243 8.6453L8.11249 8.64544L8.12366 8.64068C8.53494 8.4655 8.91688 8.22556 9.25605 8.0125L9.27106 8.00307C9.36762 7.94242 9.46086 7.88385 9.55367 7.82709L9.5614 7.82236L9.56896 7.81735C9.70524 7.72705 9.77892 7.69822 9.82667 7.69031C9.85541 7.68555 9.90564 7.68176 10.01 7.73835C10.5523 8.03235 11.1157 7.9631 11.5633 7.85187C11.5717 7.84978 11.5813 7.84767 11.5984 7.84392L11.4916 7.35545L11.5984 7.84392C11.6 7.84358 11.6017 7.8432 11.6036 7.84279C11.6289 7.83729 11.6822 7.82574 11.7348 7.80789C11.7916 7.7886 11.8928 7.74784 11.9851 7.65798C12.0941 7.55172 12.1429 7.43192 12.1589 7.3184C12.2792 7.22075 12.3782 7.09682 12.4386 6.93928C12.5168 6.73538 12.5055 6.53588 12.4849 6.38781C12.45 6.07928 12.3592 5.50516 11.7553 5.25039L11.7462 5.24061L11.7286 5.2211L11.7286 5.2211L11.726 5.21822C11.7155 5.20653 11.7005 5.18973 11.6833 5.17169C11.4698 4.90282 11.2086 4.69561 10.8961 4.57617C10.5894 4.45892 10.2634 4.43776 9.93193 4.49233H9.63405H9.59873L9.56376 4.49729C9.2128 4.54712 8.90323 4.47627 8.60358 4.25349C7.82725 3.66486 6.94159 3.78634 6.2337 4.04299C6.18057 3.96071 6.11791 3.8812 6.0433 3.80944C5.79229 3.56801 5.45882 3.46198 5.06885 3.51234C4.51549 3.57603 4.12881 4.00408 4.02487 4.52059C3.9668 4.80919 4.01162 5.09236 4.17142 5.34951C4.26113 5.49387 4.38002 5.61869 4.51613 5.72911C4.42997 6.24598 4.34212 6.76439 4.23186 7.25753L4.22955 7.26783L4.22769 7.27821C4.05948 8.21441 3.85868 9.11137 3.59224 10.0051C3.39408 10.6698 3.04467 11.2038 2.5 11.5591V4C2.5 3.17157 3.17157 2.5 4 2.5H12C12.8284 2.5 13.5 3.17157 13.5 4V12C13.5 12.8284 12.8284 13.5 12 13.5Z" fill="black" stroke="black"/>
</svg>
