<svg width="12" height="12" viewBox="0 0 12 12" fill="none" xmlns="http://www.w3.org/2000/svg">
<path opacity="0.3" d="M9 1.5H3C2.17157 1.5 1.5 2.17157 1.5 3V9C1.5 9.82843 2.17157 10.5 3 10.5H9C9.82843 10.5 10.5 9.82843 10.5 9V3C10.5 2.17157 9.82843 1.5 9 1.5Z" stroke="#C6CAD0" stroke-width="0.9"/>
<path d="M4.32058 8.53711C3.99873 8.53711 3.79672 8.34879 3.79672 8.05092C3.79672 7.96532 3.82069 7.84891 3.8652 7.72222L5.21422 4.04838C5.35802 3.64778 5.60112 3.46289 5.99144 3.46289C6.39546 3.46289 6.63514 3.64093 6.78236 4.04495L8.13823 7.72222C8.18616 7.85575 8.20328 7.9482 8.20328 8.05092C8.20328 8.3351 7.98758 8.53711 7.68627 8.53711C7.39524 8.53711 7.24117 8.40358 7.14872 8.08173L6.8885 7.30108H5.10465L4.84444 8.07146C4.74857 8.40015 4.59449 8.53711 4.32058 8.53711ZM5.33063 6.49989H6.64883L5.99487 4.47636H5.9709L5.33063 6.49989Z" fill="#C6CAD0"/>
</svg>
