<svg width="16" height="16" viewBox="0 0 16 16" fill="none" xmlns="http://www.w3.org/2000/svg">
<path d="M5.76074 11.3828C5.3316 11.3828 5.06226 11.1317 5.06226 10.7346C5.06226 10.6204 5.09422 10.4652 5.15356 10.2963L6.95226 5.39784C7.14399 4.86371 7.46812 4.61719 7.98855 4.61719C8.52724 4.61719 8.84682 4.85457 9.04311 5.39327L10.8509 10.2963C10.9148 10.4743 10.9377 10.5976 10.9377 10.7346C10.9377 11.1135 10.6501 11.3828 10.2483 11.3828C9.86028 11.3828 9.65486 11.2048 9.53159 10.7756L9.18463 9.73477H6.80616L6.45922 10.7619C6.33139 11.2002 6.12595 11.3828 5.76074 11.3828ZM7.10747 8.66652H8.86507L7.99312 5.96848H7.96116L7.10747 8.66652Z" fill="#C6CAD0"/>
<path opacity="0.3" d="M12 2H4C2.89543 2 2 2.89543 2 4V12C2 13.1046 2.89543 14 4 14H12C13.1046 14 14 13.1046 14 12V4C14 2.89543 13.1046 2 12 2Z" stroke="#C6CAD0" stroke-width="1.2"/>
</svg>
