<svg width="12" height="10" viewBox="0 0 12 10" fill="none" xmlns="http://www.w3.org/2000/svg">
<path d="M4.2 5.0002C5.52563 5.0002 6.6 3.92563 6.6 2.6002C6.6 1.27476 5.52563 0.200195 4.2 0.200195C2.87438 0.200195 1.8 1.27476 1.8 2.6002C1.8 3.92563 2.87438 5.0002 4.2 5.0002ZM5.15063 5.9002H3.24938C1.45519 5.9002 0 7.3552 0 9.14957C0 9.50957 0.291 9.8002 0.649875 9.8002H7.7505C8.10938 9.8002 8.4 9.50957 8.4 9.14957C8.4 7.3552 6.945 5.9002 5.15063 5.9002ZM11.55 3.9502H10.65V3.0502C10.65 2.8027 10.4494 2.6002 10.2 2.6002C9.95063 2.6002 9.75 2.80176 9.75 3.0502V3.9502H8.85C8.6025 3.9502 8.4 4.1527 8.4 4.4002C8.4 4.6477 8.60156 4.8502 8.85 4.8502H9.75V5.7502C9.75 5.99957 9.9525 6.2002 10.2 6.2002C10.4475 6.2002 10.65 5.99863 10.65 5.7502V4.8502H11.55C11.7994 4.8502 12 4.64957 12 4.4002C12 4.15082 11.7994 3.9502 11.55 3.9502Z" fill="#9C9C9C"/>
</svg>
