<svg width="14" height="14" viewBox="0 0 14 14" fill="none" xmlns="http://www.w3.org/2000/svg">
<path d="M9.5 7.75V9.5C7.43097 9.5 6.56903 9.5 4.5 9.5V9L9.5 5V4.5H4.5V6.25" stroke="black" stroke-width="1.25"/>
<path d="M0.5 7.5C0.776142 7.5 1 7.27614 1 7C1 6.72386 0.776142 6.5 0.5 6.5C0.223858 6.5 0 6.72386 0 7C0 7.27614 0.223858 7.5 0.5 7.5Z" fill="black" fill-opacity="0.3"/>
<path d="M1.49976 5.33002C1.7759 5.33002 1.99976 5.10616 1.99976 4.83002C1.99976 4.55387 1.7759 4.33002 1.49976 4.33002C1.22361 4.33002 0.999756 4.55387 0.999756 4.83002C0.999756 5.10616 1.22361 5.33002 1.49976 5.33002Z" fill="black" fill-opacity="0.6"/>
<path d="M1.49976 9.65997C1.7759 9.65997 1.99976 9.43612 1.99976 9.15997C1.99976 8.88383 1.7759 8.65997 1.49976 8.65997C1.22361 8.65997 0.999756 8.88383 0.999756 9.15997C0.999756 9.43612 1.22361 9.65997 1.49976 9.65997Z" fill="black" fill-opacity="0.6"/>
<path d="M13.5 7.5C13.7761 7.5 14 7.27614 14 7C14 6.72386 13.7761 6.5 13.5 6.5C13.2239 6.5 13 6.72386 13 7C13 7.27614 13.2239 7.5 13.5 7.5Z" fill="black" fill-opacity="0.3"/>
<path d="M12.5 5.33002C12.7761 5.33002 13 5.10616 13 4.83002C13 4.55387 12.7761 4.33002 12.5 4.33002C12.2239 4.33002 12 4.55387 12 4.83002C12 5.10616 12.2239 5.33002 12.5 5.33002Z" fill="black" fill-opacity="0.6"/>
<path d="M12.5 9.65997C12.7761 9.65997 13 9.43612 13 9.15997C13 8.88383 12.7761 8.65997 12.5 8.65997C12.2239 8.65997 12 8.88383 12 9.15997C12 9.43612 12.2239 9.65997 12.5 9.65997Z" fill="black" fill-opacity="0.6"/>
<path d="M6.99219 1C7.26833 1 7.49219 0.776142 7.49219 0.5C7.49219 0.223858 7.26833 0 6.99219 0C6.71605 0 6.49219 0.223858 6.49219 0.5C6.49219 0.776142 6.71605 1 6.99219 1Z" fill="black" fill-opacity="0.3"/>
<path d="M4.5 2C4.77614 2 5 1.77614 5 1.5C5 1.22386 4.77614 1 4.5 1C4.22386 1 4 1.22386 4 1.5C4 1.77614 4.22386 2 4.5 2Z" fill="black" fill-opacity="0.6"/>
<path d="M2.5 3C2.77614 3 3 2.77614 3 2.5C3 2.22386 2.77614 2 2.5 2C2.22386 2 2 2.22386 2 2.5C2 2.77614 2.22386 3 2.5 3Z" fill="black" fill-opacity="0.3"/>
<path d="M2.49976 12C2.7759 12 2.99976 11.7761 2.99976 11.5C2.99976 11.2239 2.7759 11 2.49976 11C2.22361 11 1.99976 11.2239 1.99976 11.5C1.99976 11.7761 2.22361 12 2.49976 12Z" fill="black" fill-opacity="0.3"/>
<path d="M0.5 11.5C0.776142 11.5 1 11.2761 1 11C1 10.7239 0.776142 10.5 0.5 10.5C0.223858 10.5 0 10.7239 0 11C0 11.2761 0.223858 11.5 0.5 11.5Z" fill="black" fill-opacity="0.3"/>
<path d="M0.5 3.5C0.776142 3.5 1 3.27614 1 3C1 2.72386 0.776142 2.5 0.5 2.5C0.223858 2.5 0 2.72386 0 3C0 3.27614 0.223858 3.5 0.5 3.5Z" fill="black" fill-opacity="0.3"/>
<path d="M13.5 11.5C13.7761 11.5 14 11.2761 14 11C14 10.7239 13.7761 10.5 13.5 10.5C13.2239 10.5 13 10.7239 13 11C13 11.2761 13.2239 11.5 13.5 11.5Z" fill="black" fill-opacity="0.3"/>
<path d="M13.5 3.5C13.7761 3.5 14 3.27614 14 3C14 2.72386 13.7761 2.5 13.5 2.5C13.2239 2.5 13 2.72386 13 3C13 3.27614 13.2239 3.5 13.5 3.5Z" fill="black" fill-opacity="0.3"/>
<path d="M2.49976 14C2.7759 14 2.99976 13.7761 2.99976 13.5C2.99976 13.2239 2.7759 13 2.49976 13C2.22361 13 1.99976 13.2239 1.99976 13.5C1.99976 13.7761 2.22361 14 2.49976 14Z" fill="black" fill-opacity="0.3"/>
<path d="M2.5 1C2.77614 1 3 0.776142 3 0.5C3 0.223858 2.77614 0 2.5 0C2.22386 0 2 0.223858 2 0.5C2 0.776142 2.22386 1 2.5 1Z" fill="black" fill-opacity="0.3"/>
<path d="M11.5 14C11.7761 14 12 13.7761 12 13.5C12 13.2239 11.7761 13 11.5 13C11.2239 13 11 13.2239 11 13.5C11 13.7761 11.2239 14 11.5 14Z" fill="black" fill-opacity="0.3"/>
<path d="M11.5 1C11.7761 1 12 0.776142 12 0.5C12 0.223858 11.7761 0 11.5 0C11.2239 0 11 0.223858 11 0.5C11 0.776142 11.2239 1 11.5 1Z" fill="black" fill-opacity="0.3"/>
<path d="M11.5 3C11.7761 3 12 2.77614 12 2.5C12 2.22386 11.7761 2 11.5 2C11.2239 2 11 2.22386 11 2.5C11 2.77614 11.2239 3 11.5 3Z" fill="black" fill-opacity="0.3"/>
<path d="M11.5 12C11.7761 12 12 11.7761 12 11.5C12 11.2239 11.7761 11 11.5 11C11.2239 11 11 11.2239 11 11.5C11 11.7761 11.2239 12 11.5 12Z" fill="black" fill-opacity="0.3"/>
<path d="M9.5 2C9.77614 2 10 1.77614 10 1.5C10 1.22386 9.77614 1 9.5 1C9.22386 1 9 1.22386 9 1.5C9 1.77614 9.22386 2 9.5 2Z" fill="black" fill-opacity="0.6"/>
<path d="M7 14C7.27614 14 7.5 13.7761 7.5 13.5C7.5 13.2239 7.27614 13 7 13C6.72386 13 6.5 13.2239 6.5 13.5C6.5 13.7761 6.72386 14 7 14Z" fill="black" fill-opacity="0.3"/>
<path d="M4.5 13C4.77614 13 5 12.7761 5 12.5C5 12.2239 4.77614 12 4.5 12C4.22386 12 4 12.2239 4 12.5C4 12.7761 4.22386 13 4.5 13Z" fill="black" fill-opacity="0.6"/>
<path d="M9.5 13C9.77614 13 10 12.7761 10 12.5C10 12.2239 9.77614 12 9.5 12C9.22386 12 9 12.2239 9 12.5C9 12.7761 9.22386 13 9.5 13Z" fill="black" fill-opacity="0.6"/>
</svg>
