<?xml version="1.0" encoding="UTF-8" standalone="no"?>
<svg
   width="16"
   height="16"
   viewBox="0 0 16 16"
   fill="none"
   version="1.1"
   id="svg2"
   sodipodi:docname="ai_azure_foundry.svg"
   inkscape:version="1.4.2 (ebf0e940, 2025-05-08)"
   xmlns:inkscape="http://www.inkscape.org/namespaces/inkscape"
   xmlns:sodipodi="http://sodipodi.sourceforge.net/DTD/sodipodi-0.dtd"
   xmlns="http://www.w3.org/2000/svg"
   xmlns:svg="http://www.w3.org/2000/svg">
  <defs
     id="defs2">
    <linearGradient
       id="linearGradient2"
       inkscape:swatch="gradient">
      <stop
         style="stop-color:#000000;stop-opacity:1;"
         offset="0"
         id="stop3" />
      <stop
         style="stop-color:#000000;stop-opacity:0;"
         offset="1"
         id="stop4" />
    </linearGradient>
    <linearGradient
       id="swatch2"
       inkscape:swatch="solid">
      <stop
         style="stop-color:#000000;stop-opacity:1;"
         offset="0"
         id="stop2" />
    </linearGradient>
  </defs>
  <sodipodi:namedview
     id="namedview2"
     pagecolor="#ffffff"
     bordercolor="#000000"
     borderopacity="0.25"
     inkscape:showpageshadow="2"
     inkscape:pageopacity="0.0"
     inkscape:pagecheckerboard="0"
     inkscape:deskcolor="#d1d1d1"
     inkscape:zoom="22.505786"
     inkscape:cx="8.9532532"
     inkscape:cy="7.1092829"
     inkscape:window-width="1280"
     inkscape:window-height="1021"
     inkscape:window-x="0"
     inkscape:window-y="31"
     inkscape:window-maximized="0"
     inkscape:current-layer="svg2" />
  <path
     d="m 9.4804267,1.0479534 c 0.110289,-0.00135 0.220571,-0.0027 0.33086,-0.0027 0.05551,-3.373e-4 0.111024,-6.746e-4 0.166533,-0.00135 0.3625673,-3.506e-4 0.6721943,0.033993 0.9419483,0.2957272 0.253377,0.2918018 0.33571,0.6769095 0.435166,1.0418168 0.01187,0.042963 0.02375,0.085954 0.03568,0.1289244 0.03116,0.1127783 0.06212,0.2256096 0.09304,0.3384615 0.03049,0.1111253 0.06117,0.2222034 0.09179,0.3332747 0.03655,0.1324386 0.07306,0.2648838 0.109417,0.3973695 0.06367,0.2319837 0.127874,0.4638111 0.192864,0.6954311 0.01336,0.047688 0.02671,0.095365 0.04007,0.1430547 0.01922,0.068772 0.03858,0.1375366 0.05794,0.2062715 0.01774,0.062789 0.03534,0.1255724 0.05288,0.1883857 0.01511,0.053556 0.01511,0.053556 0.03049,0.1082066 0.02145,0.08687 0.02145,0.08687 0.02145,0.1722718 0.02569,-1.948e-4 0.05146,-3.77e-4 0.07794,-5.729e-4 0.242538,-0.00207 0.485071,-0.00265 0.727616,-0.00403 0.124689,-4.449e-4 0.249372,-0.00138 0.37406,-0.00207 0.120359,-6.743e-4 0.24071,-0.00138 0.361069,-0.00138 0.04587,-1.752e-4 0.09178,-4.657e-4 0.137673,-6.743e-4 0.06435,-6.202e-4 0.128661,-6.744e-4 0.192999,-6.674e-4 0.03662,-1.96e-4 0.07321,-3.781e-4 0.110927,-5.741e-4 0.126928,0.013556 0.200438,0.056392 0.288193,0.1472841 0.09486,0.1659928 0.06761,0.3793743 0.0665,0.5645497 -8.1e-5,0.033256 -1.68e-4,0.066432 -2.84e-4,0.1006563 -3.57e-4,0.1097858 -6.74e-4,0.2195658 -0.0014,0.3293494 -2.02e-4,0.03804 -4.04e-4,0.076022 -5.99e-4,0.1140278 -6.76e-4,0.1787813 -0.0021,0.3575556 -0.0033,0.5363368 -0.0014,0.2052674 -0.0027,0.410528 -0.0027,0.6157954 -4.8e-4,0.1593497 -0.0014,0.3186867 -0.0027,0.4780295 -6.75e-4,0.094835 -0.0014,0.1896606 -0.0014,0.2844967 -0.0014,0.7603545 -0.0014,0.7603545 -0.132061,1.1102282 -0.0078,0.021176 -0.01564,0.042294 -0.02368,0.064138 -0.197633,0.4830196 -0.590753,0.8786959 -1.058153,1.1031589 -0.425542,0.173817 -0.848217,0.208168 -1.303388,0.205848 -0.04519,-2.7e-5 -0.09033,-5.4e-5 -0.135494,-2.7e-5 -0.09418,-5.4e-5 -0.188346,-2.84e-4 -0.282521,-6.61e-4 -0.118733,-4.79e-4 -0.237467,-5.87e-4 -0.3562,-5.74e-4 -0.494386,-1.9e-5 -0.987475,-0.004 -1.4811383,-0.03372 2.56e-4,0.02226 5.06e-4,0.04452 6.75e-4,0.0675 0.002,0.212659 0.004,0.425312 0.0054,0.637979 5.87e-4,0.109267 0.0013,0.21852 0.0027,0.327778 0.01194,1.023727 -0.133585,1.838214 -0.8733685,2.601996 -0.6258117,0.610379 -1.3903884,0.786402 -2.2386059,0.785856 -0.05362,1.68e-4 -0.1072602,3.64e-4 -0.1608943,5.8e-4 -0.1445722,4.99e-4 -0.2891375,6.34e-4 -0.4337097,6.74e-4 -0.090419,2.6e-5 -0.1808384,1.68e-4 -0.2712575,3.1e-4 -0.3156711,5.26e-4 -0.6313352,6.74e-4 -0.9470132,6.74e-4 -0.2939937,-2.6e-5 -0.5879874,5.74e-4 -0.8819812,0.0014 -0.2528917,6.74e-4 -0.5057767,0.0014 -0.758669,6.74e-4 -0.1508515,-1.3e-5 -0.3016962,1.42e-4 -0.4525409,6.75e-4 -0.1416383,5.53e-4 -0.2832698,5.53e-4 -0.424908,1.41e-4 -0.051934,-5.3e-5 -0.1038884,8.9e-5 -0.1558291,4.19e-4 -0.070934,4.39e-4 -0.1418337,1.69e-4 -0.2127676,-2.56e-4 -0.020504,2.89e-4 -0.041007,5.86e-4 -0.062186,6.74e-4 -0.1691497,-0.0021 -0.265032,-0.06657 -0.3875963,-0.176893 -0.069908,-0.143701 -0.041345,-0.309351 0.00473,-0.457525 0.016929,-0.04904 0.03433,-0.09792 0.052137,-0.146676 0.00944,-0.02685 0.018817,-0.05375 0.02853,-0.08142 0.031093,-0.08832 0.062726,-0.176441 0.094345,-0.264567 0.022055,-0.06245 0.044177,-0.124951 0.066165,-0.18744 0.057127,-0.161779 0.1146734,-0.323388 0.172367,-0.484956 0.052473,-0.147041 0.1045225,-0.294203 0.1565912,-0.441379 0.059757,-0.168826 0.1195292,-0.337646 0.1794894,-0.506404 0.143095,-0.402947 0.2838632,-0.80667 0.4236062,-1.210798 C 2.7272173,10.681626 2.8988154,10.193095 3.072221,9.7051381 3.2254264,9.2739094 3.3764134,8.8419672 3.5259631,8.4094647 3.6952005,7.9200371 3.866792,7.4315132 4.0402044,6.9435565 4.193403,6.512329 4.3443826,6.0803787 4.493939,5.6478832 4.7062277,5.0341038 4.9219496,4.4215925 5.1397619,3.8097636 5.1959447,3.6517282 5.2515546,3.4934913 5.3065577,3.3350319 5.59079,2.5179694 5.9626309,1.8599115 6.7288263,1.4201382 c 0.024281,-0.013962 0.048494,-0.027991 0.073511,-0.042357 0.3946985,-0.2114254 0.822102,-0.3062488 1.2664684,-0.3110578 0.048697,-6.744e-4 0.048697,-6.744e-4 0.098405,-0.00135 0.1047657,-0.00203 0.2095301,-0.00338 0.3143019,-0.00405 0.072127,-0.00135 0.1442485,-0.00203 0.2163761,-0.00338 0.1757662,-0.0027 0.3515326,-0.00473 0.527305,-0.00674 0.08529,-6.744e-4 0.17056,-0.00203 0.255833,-0.00338 z"
     fill="#2a72e8"
     id="path1-8"
     style="stroke-width:0.02847;fill:#000000;fill-opacity:1;fill-rule:nonzero" />
</svg>
