<svg width="16" height="16" viewBox="0 0 16 16" fill="none" xmlns="http://www.w3.org/2000/svg">
<g clip-path="url(#clip0_1896_18)">
<path d="M11.094 3.09999H8.952L12.858 12.9H15L11.094 3.09999Z" fill="black"/>
<path d="M4.906 3.09999L1 12.9H3.184L3.98284 10.842H8.06915L8.868 12.9H11.052L7.146 3.09999H4.906ZM4.68928 9.02199L6.026 5.57799L7.3627 9.02199H4.68928Z" fill="black"/>
</g>
<path d="M13.5 6C14.6046 6 15.5 6.89543 15.5 8V13.5C15.5 14.6046 14.6046 15.5 13.5 15.5H8C6.89543 15.5 6 14.6046 6 13.5V8C6 6.89543 6.89543 6 8 6H13.5ZM10.8916 8.02539C10.0563 8.02539 9.33453 8.27982 8.81934 8.76562C8.30213 9.25335 8.02547 9.94371 8.02539 10.748C8.02539 11.557 8.29852 12.2492 8.81543 12.7373C9.33013 13.2232 10.0521 13.4746 10.8916 13.4746C11.9865 13.4745 12.8545 13.1022 13.3076 12.3525C13.3894 12.2176 13.4521 12.0693 13.4521 11.8857C13.4521 11.4795 13.0933 11.2773 12.7842 11.2773C12.6604 11.2774 12.5292 11.3025 12.4072 11.3779C12.2862 11.4529 12.2058 11.5586 12.1494 11.666L12.1475 11.6689C11.9677 12.0213 11.5535 12.246 10.8955 12.2461C10.4219 12.2461 10.0667 12.0932 9.83008 11.8506C9.59255 11.607 9.44141 11.2389 9.44141 10.748C9.44148 10.264 9.59319 9.89628 9.83203 9.65137C10.0702 9.40725 10.4255 9.25391 10.8916 9.25391C11.4912 9.25399 11.9415 9.50614 12.1289 9.8916V9.89062C12.1888 10.0157 12.276 10.1311 12.4023 10.2129C12.5303 10.2956 12.6724 10.3271 12.8115 10.3271C12.9661 10.3271 13.1303 10.2857 13.2627 10.1758C13.4018 10.0603 13.4746 9.89383 13.4746 9.71582C13.4746 9.61857 13.4542 9.52036 13.4199 9.42773L13.3818 9.33691C12.9749 8.49175 11.9927 8.02548 10.8916 8.02539ZM10.3203 8.97852L10.1494 9.03516C10.2095 9.01178 10.2716 8.99089 10.3359 8.97363C10.3307 8.97505 10.3256 8.97706 10.3203 8.97852ZM10.4814 8.94141C10.4969 8.9385 10.5126 8.93616 10.5283 8.93359C10.5126 8.93617 10.4969 8.9385 10.4814 8.94141ZM10.6709 8.91504C10.6819 8.91399 10.693 8.913 10.7041 8.91211C10.693 8.913 10.6819 8.91399 10.6709 8.91504Z" fill="black" fill-opacity="0.95"/>
<defs>
<clipPath id="clip0_1896_18">
<path fill-rule="evenodd" clip-rule="evenodd" d="M1 3.09999H15V12.9H1V3.09999ZM8 6C6.89543 6 6 6.89543 6 8V13.5C6 14.6046 6.89543 15.5 8 15.5H13.5C14.6046 15.5 15.5 14.6046 15.5 13.5V8C15.5 6.89543 14.6046 6 13.5 6H8Z"/>
</clipPath>
</defs>
</svg>
