<svg width="16" height="16" viewBox="0 0 16 16" fill="none" xmlns="http://www.w3.org/2000/svg">
<mask id="path-1-outside-1_2722_10821" maskUnits="userSpaceOnUse" x="1.00002" y="0.500015" width="15" height="15" fill="black">
<rect fill="white" x="1.00002" y="0.500015" width="15" height="15"/>
<path fill-rule="evenodd" clip-rule="evenodd" d="M14.0714 7.76784C13.8154 7.76784 13.6071 7.55961 13.6071 7.30355C13.6071 7.0475 13.8154 6.83927 14.0714 6.83927C14.3275 6.83927 14.5357 7.0475 14.5357 7.30355C14.5357 7.55961 14.3275 7.76784 14.0714 7.76784ZM6.66911 14.0143L5.9151 13.5747L7.46234 12.6075L7.21627 12.2138L5.46196 13.3102L4.0893 12.5096V10.4456L5.37885 9.58598L5.12117 9.19969L3.84765 10.0486L2.4643 9.25819V8.13462L3.97231 7.27291L3.74202 6.86991L2.4643 7.6V6.74177L3.85716 5.94598L5.25001 6.74177V7.63645L4.2019 8.26532L4.441 8.66321L5.48215 8.03852L6.52332 8.66321L6.76242 8.26532L5.7143 7.63645V6.73132L7.00385 5.8717C7.06838 5.82852 7.10715 5.75609 7.10715 5.67855V4.05356H6.64287V5.55436L5.47265 6.33436L4.0893 5.54391V3.49038L5.25001 2.81345V4.74998H5.7143V2.54254L6.66911 1.98563L8.50001 2.59594V9.26145L5.13047 11.2832L5.36957 11.6811L8.50001 9.8028V13.404L6.66911 14.0143ZM13.6071 10.3214C13.6071 10.5775 13.3989 10.7857 13.1429 10.7857C12.8868 10.7857 12.6786 10.5775 12.6786 10.3214C12.6786 10.0654 12.8868 9.85712 13.1429 9.85712C13.3989 9.85712 13.6071 10.0654 13.6071 10.3214ZM11.2857 12.6428C11.2857 12.8989 11.0775 13.1071 10.8214 13.1071C10.5654 13.1071 10.3571 12.8989 10.3571 12.6428C10.3571 12.3868 10.5654 12.1785 10.8214 12.1785C11.0775 12.1785 11.2857 12.3868 11.2857 12.6428ZM11.0536 3.35713C11.0536 3.10108 11.2618 2.89284 11.5179 2.89284C11.7739 2.89284 11.9821 3.10108 11.9821 3.35713C11.9821 3.61318 11.7739 3.82141 11.5179 3.82141C11.2618 3.82141 11.0536 3.61318 11.0536 3.35713ZM14.0714 6.37498C13.6399 6.37498 13.2796 6.67212 13.1758 7.07141H8.96429V5.9107H11.5179C11.6462 5.9107 11.75 5.8067 11.75 5.67855V4.25274C12.1493 4.14897 12.4464 3.78845 12.4464 3.35713C12.4464 2.84502 12.03 2.42856 11.5179 2.42856C11.0058 2.42856 10.5893 2.84502 10.5893 3.35713C10.5893 3.78845 10.8864 4.14897 11.2857 4.25274V5.44641H8.96429V2.42856C8.96429 2.32851 8.90046 2.24006 8.80552 2.20826L6.71623 1.51183C6.65263 1.49094 6.58345 1.4979 6.52587 1.53156L3.74016 3.15656C3.66866 3.19811 3.62501 3.27472 3.62501 3.35713V5.54391L2.11702 6.40563C2.04459 6.44695 2.00002 6.52379 2.00002 6.60713V9.39284C2.00002 9.47618 2.04459 9.55301 2.11702 9.59434L3.62501 10.456V12.6428C3.62501 12.7252 3.66866 12.8018 3.74016 12.8434L6.52587 14.4684C6.56162 14.4893 6.60224 14.5 6.64287 14.5C6.66747 14.5 6.69232 14.496 6.71623 14.4881L8.80552 13.7917C8.90046 13.7599 8.96429 13.6715 8.96429 13.5714V10.7857H10.5893V11.7472C10.19 11.851 9.89286 12.2115 9.89286 12.6428C9.89286 13.1549 10.3093 13.5714 10.8214 13.5714C11.3335 13.5714 11.75 13.1549 11.75 12.6428C11.75 12.2115 11.4529 11.851 11.0536 11.7472V10.5535C11.0536 10.4254 10.9498 10.3214 10.8214 10.3214H8.96429V9.16069H11.8661L12.3624 9.8223C12.2698 9.96669 12.2143 10.1373 12.2143 10.3214C12.2143 10.8335 12.6308 11.25 13.1429 11.25C13.655 11.25 14.0714 10.8335 14.0714 10.3214C14.0714 9.8093 13.655 9.39284 13.1429 9.39284C12.9841 9.39284 12.8369 9.43648 12.7062 9.50705L12.1679 8.78927C12.124 8.73077 12.055 8.69641 11.9821 8.69641H8.96429V7.5357H13.1758C13.2796 7.93498 13.6399 8.23212 14.0714 8.23212C14.5835 8.23212 15 7.81566 15 7.30355C15 6.79145 14.5835 6.37498 14.0714 6.37498Z"/>
</mask>
<path fill-rule="evenodd" clip-rule="evenodd" d="M14.0714 7.76784C13.8154 7.76784 13.6071 7.55961 13.6071 7.30355C13.6071 7.0475 13.8154 6.83927 14.0714 6.83927C14.3275 6.83927 14.5357 7.0475 14.5357 7.30355C14.5357 7.55961 14.3275 7.76784 14.0714 7.76784ZM6.66911 14.0143L5.9151 13.5747L7.46234 12.6075L7.21627 12.2138L5.46196 13.3102L4.0893 12.5096V10.4456L5.37885 9.58598L5.12117 9.19969L3.84765 10.0486L2.4643 9.25819V8.13462L3.97231 7.27291L3.74202 6.86991L2.4643 7.6V6.74177L3.85716 5.94598L5.25001 6.74177V7.63645L4.2019 8.26532L4.441 8.66321L5.48215 8.03852L6.52332 8.66321L6.76242 8.26532L5.7143 7.63645V6.73132L7.00385 5.8717C7.06838 5.82852 7.10715 5.75609 7.10715 5.67855V4.05356H6.64287V5.55436L5.47265 6.33436L4.0893 5.54391V3.49038L5.25001 2.81345V4.74998H5.7143V2.54254L6.66911 1.98563L8.50001 2.59594V9.26145L5.13047 11.2832L5.36957 11.6811L8.50001 9.8028V13.404L6.66911 14.0143ZM13.6071 10.3214C13.6071 10.5775 13.3989 10.7857 13.1429 10.7857C12.8868 10.7857 12.6786 10.5775 12.6786 10.3214C12.6786 10.0654 12.8868 9.85712 13.1429 9.85712C13.3989 9.85712 13.6071 10.0654 13.6071 10.3214ZM11.2857 12.6428C11.2857 12.8989 11.0775 13.1071 10.8214 13.1071C10.5654 13.1071 10.3571 12.8989 10.3571 12.6428C10.3571 12.3868 10.5654 12.1785 10.8214 12.1785C11.0775 12.1785 11.2857 12.3868 11.2857 12.6428ZM11.0536 3.35713C11.0536 3.10108 11.2618 2.89284 11.5179 2.89284C11.7739 2.89284 11.9821 3.10108 11.9821 3.35713C11.9821 3.61318 11.7739 3.82141 11.5179 3.82141C11.2618 3.82141 11.0536 3.61318 11.0536 3.35713ZM14.0714 6.37498C13.6399 6.37498 13.2796 6.67212 13.1758 7.07141H8.96429V5.9107H11.5179C11.6462 5.9107 11.75 5.8067 11.75 5.67855V4.25274C12.1493 4.14897 12.4464 3.78845 12.4464 3.35713C12.4464 2.84502 12.03 2.42856 11.5179 2.42856C11.0058 2.42856 10.5893 2.84502 10.5893 3.35713C10.5893 3.78845 10.8864 4.14897 11.2857 4.25274V5.44641H8.96429V2.42856C8.96429 2.32851 8.90046 2.24006 8.80552 2.20826L6.71623 1.51183C6.65263 1.49094 6.58345 1.4979 6.52587 1.53156L3.74016 3.15656C3.66866 3.19811 3.62501 3.27472 3.62501 3.35713V5.54391L2.11702 6.40563C2.04459 6.44695 2.00002 6.52379 2.00002 6.60713V9.39284C2.00002 9.47618 2.04459 9.55301 2.11702 9.59434L3.62501 10.456V12.6428C3.62501 12.7252 3.66866 12.8018 3.74016 12.8434L6.52587 14.4684C6.56162 14.4893 6.60224 14.5 6.64287 14.5C6.66747 14.5 6.69232 14.496 6.71623 14.4881L8.80552 13.7917C8.90046 13.7599 8.96429 13.6715 8.96429 13.5714V10.7857H10.5893V11.7472C10.19 11.851 9.89286 12.2115 9.89286 12.6428C9.89286 13.1549 10.3093 13.5714 10.8214 13.5714C11.3335 13.5714 11.75 13.1549 11.75 12.6428C11.75 12.2115 11.4529 11.851 11.0536 11.7472V10.5535C11.0536 10.4254 10.9498 10.3214 10.8214 10.3214H8.96429V9.16069H11.8661L12.3624 9.8223C12.2698 9.96669 12.2143 10.1373 12.2143 10.3214C12.2143 10.8335 12.6308 11.25 13.1429 11.25C13.655 11.25 14.0714 10.8335 14.0714 10.3214C14.0714 9.8093 13.655 9.39284 13.1429 9.39284C12.9841 9.39284 12.8369 9.43648 12.7062 9.50705L12.1679 8.78927C12.124 8.73077 12.055 8.69641 11.9821 8.69641H8.96429V7.5357H13.1758C13.2796 7.93498 13.6399 8.23212 14.0714 8.23212C14.5835 8.23212 15 7.81566 15 7.30355C15 6.79145 14.5835 6.37498 14.0714 6.37498Z" fill="black"/>
<path fill-rule="evenodd" clip-rule="evenodd" d="M14.0714 7.76784C13.8154 7.76784 13.6071 7.55961 13.6071 7.30355C13.6071 7.0475 13.8154 6.83927 14.0714 6.83927C14.3275 6.83927 14.5357 7.0475 14.5357 7.30355C14.5357 7.55961 14.3275 7.76784 14.0714 7.76784ZM6.66911 14.0143L5.9151 13.5747L7.46234 12.6075L7.21627 12.2138L5.46196 13.3102L4.0893 12.5096V10.4456L5.37885 9.58598L5.12117 9.19969L3.84765 10.0486L2.4643 9.25819V8.13462L3.97231 7.27291L3.74202 6.86991L2.4643 7.6V6.74177L3.85716 5.94598L5.25001 6.74177V7.63645L4.2019 8.26532L4.441 8.66321L5.48215 8.03852L6.52332 8.66321L6.76242 8.26532L5.7143 7.63645V6.73132L7.00385 5.8717C7.06838 5.82852 7.10715 5.75609 7.10715 5.67855V4.05356H6.64287V5.55436L5.47265 6.33436L4.0893 5.54391V3.49038L5.25001 2.81345V4.74998H5.7143V2.54254L6.66911 1.98563L8.50001 2.59594V9.26145L5.13047 11.2832L5.36957 11.6811L8.50001 9.8028V13.404L6.66911 14.0143ZM13.6071 10.3214C13.6071 10.5775 13.3989 10.7857 13.1429 10.7857C12.8868 10.7857 12.6786 10.5775 12.6786 10.3214C12.6786 10.0654 12.8868 9.85712 13.1429 9.85712C13.3989 9.85712 13.6071 10.0654 13.6071 10.3214ZM11.2857 12.6428C11.2857 12.8989 11.0775 13.1071 10.8214 13.1071C10.5654 13.1071 10.3571 12.8989 10.3571 12.6428C10.3571 12.3868 10.5654 12.1785 10.8214 12.1785C11.0775 12.1785 11.2857 12.3868 11.2857 12.6428ZM11.0536 3.35713C11.0536 3.10108 11.2618 2.89284 11.5179 2.89284C11.7739 2.89284 11.9821 3.10108 11.9821 3.35713C11.9821 3.61318 11.7739 3.82141 11.5179 3.82141C11.2618 3.82141 11.0536 3.61318 11.0536 3.35713ZM14.0714 6.37498C13.6399 6.37498 13.2796 6.67212 13.1758 7.07141H8.96429V5.9107H11.5179C11.6462 5.9107 11.75 5.8067 11.75 5.67855V4.25274C12.1493 4.14897 12.4464 3.78845 12.4464 3.35713C12.4464 2.84502 12.03 2.42856 11.5179 2.42856C11.0058 2.42856 10.5893 2.84502 10.5893 3.35713C10.5893 3.78845 10.8864 4.14897 11.2857 4.25274V5.44641H8.96429V2.42856C8.96429 2.32851 8.90046 2.24006 8.80552 2.20826L6.71623 1.51183C6.65263 1.49094 6.58345 1.4979 6.52587 1.53156L3.74016 3.15656C3.66866 3.19811 3.62501 3.27472 3.62501 3.35713V5.54391L2.11702 6.40563C2.04459 6.44695 2.00002 6.52379 2.00002 6.60713V9.39284C2.00002 9.47618 2.04459 9.55301 2.11702 9.59434L3.62501 10.456V12.6428C3.62501 12.7252 3.66866 12.8018 3.74016 12.8434L6.52587 14.4684C6.56162 14.4893 6.60224 14.5 6.64287 14.5C6.66747 14.5 6.69232 14.496 6.71623 14.4881L8.80552 13.7917C8.90046 13.7599 8.96429 13.6715 8.96429 13.5714V10.7857H10.5893V11.7472C10.19 11.851 9.89286 12.2115 9.89286 12.6428C9.89286 13.1549 10.3093 13.5714 10.8214 13.5714C11.3335 13.5714 11.75 13.1549 11.75 12.6428C11.75 12.2115 11.4529 11.851 11.0536 11.7472V10.5535C11.0536 10.4254 10.9498 10.3214 10.8214 10.3214H8.96429V9.16069H11.8661L12.3624 9.8223C12.2698 9.96669 12.2143 10.1373 12.2143 10.3214C12.2143 10.8335 12.6308 11.25 13.1429 11.25C13.655 11.25 14.0714 10.8335 14.0714 10.3214C14.0714 9.8093 13.655 9.39284 13.1429 9.39284C12.9841 9.39284 12.8369 9.43648 12.7062 9.50705L12.1679 8.78927C12.124 8.73077 12.055 8.69641 11.9821 8.69641H8.96429V7.5357H13.1758C13.2796 7.93498 13.6399 8.23212 14.0714 8.23212C14.5835 8.23212 15 7.81566 15 7.30355C15 6.79145 14.5835 6.37498 14.0714 6.37498Z" stroke="black" stroke-width="0.4" mask="url(#path-1-outside-1_2722_10821)"/>
</svg>
