<svg width="82" height="80" xmlns="http://www.w3.org/2000/svg" xmlns:xlink="http://www.w3.org/1999/xlink" xml:space="preserve" overflow="hidden"><g transform="translate(-790 -124)"><g><g><g><g><path d="M791 124 871 124 871 204 791 204Z" fill="#01A88D" fill-rule="evenodd" fill-opacity="1"/><path d="M855 163C853.897 163 853 162.103 853 161 853 159.897 853.897 159 855 159 856.103 159 857 159.897 857 161 857 162.103 856.103 163 855 163L855 163ZM823.113 189.908 819.865 188.014 826.53 183.848 825.47 182.152 817.913 186.875 812 183.426 812 174.535 817.555 170.832 816.445 169.168 810.959 172.825 805 169.42 805 164.58 811.496 160.868 810.504 159.132 805 162.277 805 158.58 811 155.152 817 158.58 817 162.434 812.485 165.143 813.515 166.857 818 164.166 822.485 166.857 823.515 165.143 819 162.434 819 158.535 824.555 154.832C824.833 154.646 825 154.334 825 154L825 147 823 147 823 153.465 817.959 156.825 812 153.42 812 144.574 817 141.658 817 150 819 150 819 140.491 823.113 138.092 831 140.721 831 169.434 816.485 178.143 817.515 179.857 831 171.766 831 187.279 823.113 189.908ZM853 174C853 175.103 852.103 176 851 176 849.897 176 849 175.103 849 174 849 172.897 849.897 172 851 172 852.103 172 853 172.897 853 174ZM843 184C843 185.103 842.103 186 841 186 839.897 186 839 185.103 839 184 839 182.897 839.897 182 841 182 842.103 182 843 182.897 843 184ZM842 144C842 142.897 842.897 142 844 142 845.103 142 846 142.897 846 144 846 145.103 845.103 146 844 146 842.897 146 842 145.103 842 144ZM855 157C853.141 157 851.589 158.28 851.142 160L833 160 833 155 844 155C844.553 155 845 154.552 845 154L845 147.858C846.72 147.411 848 145.858 848 144 848 141.794 846.206 140 844 140 841.794 140 840 141.794 840 144 840 145.858 841.28 147.411 843 147.858L843 153 833 153 833 140C833 139.569 832.725 139.188 832.316 139.051L823.316 136.051C823.042 135.961 822.744 135.991 822.496 136.136L810.496 143.136C810.188 143.315 810 143.645 810 144L810 153.42 803.504 157.132C803.192 157.31 803 157.641 803 158L803 170C803 170.359 803.192 170.69 803.504 170.868L810 174.58 810 184C810 184.355 810.188 184.685 810.496 184.864L822.496 191.864C822.65 191.954 822.825 192 823 192 823.106 192 823.213 191.983 823.316 191.949L832.316 188.949C832.725 188.812 833 188.431 833 188L833 176 840 176 840 180.142C838.28 180.589 837 182.142 837 184 837 186.206 838.794 188 841 188 843.206 188 845 186.206 845 184 845 182.142 843.72 180.589 842 180.142L842 175C842 174.448 841.553 174 841 174L833 174 833 169 845.5 169 847.638 171.85C847.239 172.472 847 173.207 847 174 847 176.206 848.794 178 851 178 853.206 178 855 176.206 855 174 855 171.794 853.206 170 851 170 850.316 170 849.682 170.188 849.119 170.492L846.8 167.4C846.611 167.148 846.314 167 846 167L833 167 833 162 851.142 162C851.589 163.72 853.141 165 855 165 857.206 165 859 163.206 859 161 859 158.794 857.206 157 855 157Z" fill="#FFFFFF" fill-rule="evenodd" fill-opacity="1"/></g></g></g></g></g></svg>