<?xml version="1.0" encoding="utf-8"?>
<svg xmlns="http://www.w3.org/2000/svg" viewBox="283.6413 127.3453 56 55.9999" width="16px" height="16px">
  <path d="M 808.592 158.131 C 807.489 158.131 806.592 157.234 806.592 156.131 C 806.592 155.028 807.489 154.131 808.592 154.131 C 809.695 154.131 810.592 155.028 810.592 156.131 C 810.592 157.234 809.695 158.131 808.592 158.131 Z M 776.705 185.039 L 773.457 183.145 L 780.122 178.979 L 779.062 177.283 L 771.505 182.006 L 765.592 178.557 L 765.592 169.666 L 771.147 165.963 L 770.037 164.299 L 764.551 167.956 L 758.592 164.551 L 758.592 159.711 L 765.088 155.999 L 764.096 154.263 L 758.592 157.408 L 758.592 153.711 L 764.592 150.283 L 770.592 153.711 L 770.592 157.565 L 766.077 160.274 L 767.107 161.988 L 771.592 159.297 L 776.077 161.988 L 777.107 160.274 L 772.592 157.565 L 772.592 153.666 L 778.147 149.963 C 778.425 149.777 778.592 149.465 778.592 149.131 L 778.592 142.131 L 776.592 142.131 L 776.592 148.596 L 771.551 151.956 L 765.592 148.551 L 765.592 139.705 L 770.592 136.789 L 770.592 145.131 L 772.592 145.131 L 772.592 135.622 L 776.705 133.223 L 784.592 135.852 L 784.592 164.565 L 770.077 173.274 L 771.107 174.988 L 784.592 166.897 L 784.592 182.41 L 776.705 185.039 Z M 806.592 169.131 C 806.592 170.234 805.695 171.131 804.592 171.131 C 803.489 171.131 802.592 170.234 802.592 169.131 C 802.592 168.028 803.489 167.131 804.592 167.131 C 805.695 167.131 806.592 168.028 806.592 169.131 Z M 796.592 179.131 C 796.592 180.234 795.695 181.131 794.592 181.131 C 793.489 181.131 792.592 180.234 792.592 179.131 C 792.592 178.028 793.489 177.131 794.592 177.131 C 795.695 177.131 796.592 178.028 796.592 179.131 Z M 795.592 139.131 C 795.592 138.028 796.489 137.131 797.592 137.131 C 798.695 137.131 799.592 138.028 799.592 139.131 C 799.592 140.234 798.695 141.131 797.592 141.131 C 796.489 141.131 795.592 140.234 795.592 139.131 Z M 808.592 152.131 C 806.733 152.131 805.181 153.411 804.734 155.131 L 786.592 155.131 L 786.592 150.131 L 797.592 150.131 C 798.145 150.131 798.592 149.683 798.592 149.131 L 798.592 142.989 C 800.312 142.542 801.592 140.989 801.592 139.131 C 801.592 136.925 799.798 135.131 797.592 135.131 C 795.386 135.131 793.592 136.925 793.592 139.131 C 793.592 140.989 794.872 142.542 796.592 142.989 L 796.592 148.131 L 786.592 148.131 L 786.592 135.131 C 786.592 134.7 786.317 134.319 785.908 134.182 L 776.908 131.182 C 776.634 131.092 776.336 131.122 776.088 131.267 L 764.088 138.267 C 763.78 138.446 763.592 138.776 763.592 139.131 L 763.592 148.551 L 757.096 152.263 C 756.784 152.441 756.592 152.772 756.592 153.131 L 756.592 165.131 C 756.592 165.49 756.784 165.821 757.096 165.999 L 763.592 169.711 L 763.592 179.131 C 763.592 179.486 763.78 179.816 764.088 179.995 L 776.088 186.995 C 776.242 187.085 776.417 187.131 776.592 187.131 C 776.698 187.131 776.805 187.114 776.908 187.08 L 785.908 184.08 C 786.317 183.943 786.592 183.562 786.592 183.131 L 786.592 171.131 L 793.592 171.131 L 793.592 175.273 C 791.872 175.72 790.592 177.273 790.592 179.131 C 790.592 181.337 792.386 183.131 794.592 183.131 C 796.798 183.131 798.592 181.337 798.592 179.131 C 798.592 177.273 797.312 175.72 795.592 175.273 L 795.592 170.131 C 795.592 169.579 795.145 169.131 794.592 169.131 L 786.592 169.131 L 786.592 164.131 L 799.092 164.131 L 801.23 166.981 C 800.831 167.603 800.592 168.338 800.592 169.131 C 800.592 171.337 802.386 173.131 804.592 173.131 C 806.798 173.131 808.592 171.337 808.592 169.131 C 808.592 166.925 806.798 165.131 804.592 165.131 C 803.908 165.131 803.274 165.319 802.711 165.623 L 800.392 162.531 C 800.203 162.279 799.906 162.131 799.592 162.131 L 786.592 162.131 L 786.592 157.131 L 804.734 157.131 C 805.181 158.851 806.733 160.131 808.592 160.131 C 810.798 160.131 812.592 158.337 812.592 156.131 C 812.592 153.925 810.798 152.131 808.592 152.131 Z" fill-rule="evenodd" fill-opacity="1" style="" id="object-0" transform="matrix(1, 0, 0, 1, -472.9506530761719, -3.7858259677886963)"/>
</svg>
