<svg width="16" height="16" viewBox="0 0 16 16" fill="none" xmlns="http://www.w3.org/2000/svg">
<path d="M8 2C4.68629 2 2 4.68629 2 8C2 11.3137 4.68629 14 8 14C11.3137 14 14 11.3137 14 8C14 4.68629 11.3137 2 8 2ZM8 3.5C10.4853 3.5 12.5 5.51472 12.5 8C12.5 10.4853 10.4853 12.5 8 12.5C5.51472 12.5 3.5 10.4853 3.5 8C3.5 5.51472 5.51472 3.5 8 3.5Z" fill="black"/>
<path d="M6 6C6 5.44772 6.44772 5 7 5H9C9.55228 5 10 5.44772 10 6V6.5C10 6.77614 9.77614 7 9.5 7H6.5C6.22386 7 6 6.77614 6 6.5V6Z" fill="black"/>
<path d="M6 9.5C6 9.22386 6.22386 9 6.5 9H9.5C9.77614 9 10 9.22386 10 9.5V10C10 10.5523 9.55228 11 9 11H7C6.44772 11 6 10.5523 6 10V9.5Z" fill="black"/>
<path d="M5.5 7.5C5.5 7.22386 5.72386 7 6 7H10C10.2761 7 10.5 7.22386 10.5 7.5V8.5C10.5 8.77614 10.2761 9 10 9H6C5.72386 9 5.5 8.77614 5.5 8.5V7.5Z" fill="black"/>
</svg>