<svg width="16" height="16" viewBox="0 0 16 16" fill="none" xmlns="http://www.w3.org/2000/svg">
<path d="M15.143 3.82006C15.0024 3.75143 14.9415 3.8826 14.8596 3.94956C14.8314 3.97115 14.8076 3.99937 14.7838 4.02483C14.5779 4.24454 14.3377 4.38844 14.0239 4.37128C13.5651 4.34582 13.1733 4.48972 12.8268 4.84059C12.7532 4.40781 12.5086 4.14991 12.1367 3.98387C11.9419 3.89754 11.7449 3.81176 11.6082 3.62414C11.513 3.49076 11.487 3.34189 11.4394 3.19578C11.4089 3.10723 11.3785 3.01702 11.2772 3.00208C11.1665 2.98492 11.1234 3.07735 11.0802 3.15483C10.907 3.47139 10.84 3.82006 10.8466 4.17315C10.8616 4.96788 11.197 5.60101 11.8639 6.05096C11.9397 6.10243 11.9591 6.15445 11.9353 6.22972C11.8899 6.38468 11.8356 6.53521 11.788 6.69073C11.7576 6.7898 11.7122 6.81083 11.606 6.76821C11.2469 6.61391 10.9208 6.39223 10.6452 6.11516C10.1709 5.65691 9.74254 5.15107 9.20792 4.75481C9.08405 4.66328 8.95686 4.57633 8.82661 4.49414C8.28147 3.9645 8.89855 3.5295 9.04134 3.47803C9.19077 3.4238 9.09281 3.23895 8.61021 3.24116C8.12762 3.24338 7.68598 3.40443 7.12313 3.61971C7.03949 3.65176 6.95344 3.67712 6.86578 3.69553C6.33981 3.59643 5.80188 3.5774 5.27023 3.63908C4.227 3.75531 3.39408 4.24897 2.78142 5.09075C2.04535 6.10243 1.87213 7.25247 2.08409 8.45121C2.30713 9.71526 2.95244 10.7618 3.94364 11.5798C4.97192 12.4282 6.15572 12.8438 7.50666 12.7641C8.32685 12.7171 9.24058 12.607 10.2705 11.7347C10.5306 11.8643 10.8029 11.9157 11.2556 11.9545C11.6043 11.9871 11.9397 11.9379 12.1992 11.8836C12.606 11.7973 12.5778 11.4204 12.4311 11.3518C11.2385 10.7961 11.5003 11.0225 11.2617 10.8393C11.8683 10.122 12.7815 9.37711 13.139 6.96357C13.1667 6.77153 13.1429 6.65088 13.139 6.49592C13.1368 6.40184 13.1584 6.36476 13.2663 6.35424C13.5657 6.32318 13.8562 6.23388 14.1213 6.09136C14.8939 5.66909 15.2061 4.97619 15.2797 4.14492C15.2907 4.01763 15.2775 3.88702 15.143 3.82006ZM8.40932 11.3014C7.25319 10.3927 6.69256 10.0933 6.46122 10.106C6.24427 10.1193 6.28357 10.3667 6.33116 10.5283C6.38097 10.6876 6.44572 10.7972 6.53649 10.9372C6.59958 11.0297 6.64275 11.1675 6.47395 11.271C6.10149 11.5012 5.45452 11.1935 5.42408 11.1785C4.67085 10.7347 4.04049 10.1492 3.59719 9.34833C3.16883 8.57739 2.91978 7.75056 2.87883 6.86783C2.86776 6.6542 2.9303 6.57894 3.14282 6.5402C3.42181 6.48681 3.70767 6.47951 3.98902 6.51861C5.16895 6.69128 6.17288 7.21871 7.01521 8.05384C7.49559 8.5298 7.8592 9.09818 8.23388 9.65383C8.63235 10.2438 9.06071 10.8061 9.6064 11.2665C9.79899 11.4281 9.9523 11.551 10.0995 11.6412C9.65565 11.691 8.91516 11.7021 8.40932 11.3014ZM8.96275 7.73728C8.96266 7.70979 8.96925 7.68268 8.98198 7.65831C8.9947 7.63394 9.01316 7.61303 9.03578 7.5974C9.05839 7.58176 9.08447 7.57186 9.11176 7.56856C9.13905 7.56526 9.16674 7.56865 9.19243 7.57844C9.22517 7.59019 9.25343 7.61186 9.27327 7.64043C9.29311 7.669 9.30355 7.70305 9.30312 7.73783C9.30319 7.76031 9.29879 7.78257 9.29018 7.80333C9.28156 7.82408 9.2689 7.84292 9.25293 7.85873C9.23696 7.87454 9.21801 7.88702 9.19717 7.89544C9.17633 7.90385 9.15402 7.90803 9.13155 7.90774C9.10925 7.90781 9.08715 7.90344 9.06656 7.89487C9.04597 7.88631 9.02729 7.87372 9.01163 7.85784C8.99596 7.84197 8.98362 7.82313 8.97532 7.80243C8.96702 7.78173 8.96238 7.75958 8.96275 7.73728ZM10.6839 8.62056C10.5733 8.66539 10.4631 8.70413 10.3574 8.70911C10.1984 8.71466 10.0423 8.66499 9.91577 8.56854C9.76413 8.44125 9.65565 8.37041 9.61027 8.14903C9.59463 8.04085 9.59762 7.93079 9.61913 7.82361C9.65787 7.64264 9.6147 7.52642 9.48686 7.42127C9.38336 7.33493 9.25109 7.31113 9.10609 7.31113C9.05645 7.30825 9.00823 7.29344 8.96552 7.26796C8.90464 7.23808 8.85483 7.16281 8.90243 7.06983C8.91792 7.03995 8.99098 6.9669 9.00869 6.95361C9.20571 6.84182 9.43317 6.87835 9.64293 6.96247C9.83774 7.04216 9.98495 7.18827 10.1969 7.39526C10.4133 7.64485 10.4526 7.71403 10.576 7.9011C10.6734 8.04776 10.762 8.19829 10.8223 8.37041C10.8594 8.47833 10.8118 8.56633 10.6839 8.62056Z" fill="black"/>
</svg>
