<svg class="icon" viewBox="0 0 1024 1024" version="1.1" xmlns="http://www.w3.org/2000/svg" width="200" height="200"><path d="M860.750769 544.374154c-67.662769 139.027692-177.152 235.126154-323.190154 288.610461-85.149538 64.787692-180.027077 64.748308-277.779692 39.975385a257.929846 257.929846 0 0 1-68.726154-28.16C29.420308 732.396308-6.695385 573.597538 100.430769 403.022769 210.865231 227.131077 372.184615 126.030769 582.971077 118.429538c247.886769-8.979692 386.126769 203.342769 277.779692 425.944616z m-131.662769-120.910769c-107.126154-48.836923-219.175385-43.716923-330.830769-24.497231-61.833846 10.633846-120.201846 34.697846-169.944616 74.870154-60.061538 48.443077-89.718154 108.268308-66.402461 186.564923 30.011077 82.432 94.995692 109.134769 176.167384 111.104 186.486154 4.568615 365.686154-116.302769 445.203693-300.780308-7.089231-28.278154-31.744-37.060923-54.193231-47.261538zM619.913846 218.072615c-125.597538-11.421538-230.006154 40.211692-328.192 110.276923 4.253538 12.603077 11.736615 10.633846 19.140923 7.75877l4.371693-1.732923 2.126769-0.748308c146.195692-45.922462 291.446154-44.504615 435.593846 8.585846 12.524308 4.608 26.151385 16.659692 35.446154-4.450461-28.553846-78.651077-89.088-112.521846-168.487385-119.729231z"></path><path d="M191.054769 844.8c116.893538 36.273231 232.566154 37.297231 346.505846-11.815385 0.708923 11.815385 8.979692 14.296615 18.432 13.90277 103.187692-4.253538 197.632-32.137846 274.156308-104.96 37.966769-36.115692 59.470769-79.556923 53.956923-134.262154-5.159385-51.003077 37.572923-87.04 39.542154-140.918154 84.676923 102.281846 80.068923 233.787077-7.207385 326.971077-111.104 118.705231-254.148923 154.151385-409.915077 151.000615-114.372923-2.284308-223.389538-25.521231-315.470769-99.918769zM783.281231 470.724923c-142.178462-105.708308-424.763077-93.814154-556.071385 23.236923-50.018462 44.544-74.279385 98.934154-65.299692 166.478769-45.922462-99.524923 7.876923-177.860923 57.344-255.212307 18.628923-29.144615 48.009846-51.436308 72.467692-76.839385 69.316923-23.355077 138.712615-39.384615 213.700923-39.424 98.146462-0.118154 192.039385 12.996923 283.017846 48.836923 19.771077 45.134769 1.811692 88.812308-5.159384 132.923077z"></path></svg>