<svg width="16" height="16" viewBox="0 0 16 16" fill="none" xmlns="http://www.w3.org/2000/svg">
<path d="M12.146 2H4.85398C3.55391 2 2.5 3.05391 2.5 4.35398V11.646C2.5 12.9461 3.55391 14 4.85398 14H12.146C13.4461 14 14.5 12.9461 14.5 11.646V4.35398C14.5 3.05391 13.4461 2 12.146 2Z" stroke="black" stroke-width="1.11504"/>
<path opacity="0.487119" d="M10.5177 3.60177H6.21681C5.8698 3.60177 5.58849 3.88308 5.58849 4.23009V4.23894C5.58849 4.58595 5.8698 4.86726 6.21681 4.86726H10.5177C10.8647 4.86726 11.146 4.58595 11.146 4.23894V4.23009C11.146 3.88308 10.8647 3.60177 10.5177 3.60177Z" fill="black"/>
<path opacity="0.845099" d="M8.83628 3.60177H4.53539C4.18838 3.60177 3.90707 3.88308 3.90707 4.23009V4.23894C3.90707 4.58595 4.18838 4.86726 4.53539 4.86726H8.83628C9.18329 4.86726 9.4646 4.58595 9.4646 4.23894V4.23009C9.4646 3.88308 9.18329 3.60177 8.83628 3.60177Z" fill="black"/>
<path opacity="0.487119" d="M12.7389 5.10619H8.43806C8.09105 5.10619 7.80974 5.3875 7.80974 5.73451V5.74336C7.80974 6.09037 8.09105 6.37168 8.43806 6.37168H12.7389C13.086 6.37168 13.3673 6.09037 13.3673 5.74336V5.73451C13.3673 5.3875 13.086 5.10619 12.7389 5.10619Z" fill="black"/>
<path opacity="0.845099" d="M11.0575 5.10619H6.75664C6.40963 5.10619 6.12832 5.3875 6.12832 5.73451V5.74336C6.12832 6.09037 6.40963 6.37168 6.75664 6.37168H11.0575C11.4045 6.37168 11.6858 6.09037 11.6858 5.74336V5.73451C11.6858 5.3875 11.4045 5.10619 11.0575 5.10619Z" fill="black"/>
<path opacity="0.487119" d="M11.5619 6.59292H7.26106C6.91405 6.59292 6.63274 6.87423 6.63274 7.22124V7.23009C6.63274 7.5771 6.91405 7.85841 7.26106 7.85841H11.5619C11.909 7.85841 12.1903 7.5771 12.1903 7.23009V7.22124C12.1903 6.87423 11.909 6.59292 11.5619 6.59292Z" fill="black"/>
<path opacity="0.845099" d="M9.86284 6.59292H5.56195C5.21494 6.59292 4.93363 6.87423 4.93363 7.22124V7.23009C4.93363 7.5771 5.21494 7.85841 5.56195 7.85841H9.86284C10.2098 7.85841 10.4912 7.5771 10.4912 7.23009V7.22124C10.4912 6.87423 10.2098 6.59292 9.86284 6.59292Z" fill="black"/>
<path opacity="0.487119" d="M10.1903 8.10619H5.88937C5.54236 8.10619 5.26105 8.3875 5.26105 8.73451V8.74336C5.26105 9.09037 5.54236 9.37168 5.88937 9.37168H10.1903C10.5373 9.37168 10.8186 9.09037 10.8186 8.74336V8.73451C10.8186 8.3875 10.5373 8.10619 10.1903 8.10619Z" fill="black"/>
<path opacity="0.845099" d="M8.50886 8.10619H4.20797C3.86096 8.10619 3.57965 8.3875 3.57965 8.73451V8.74336C3.57965 9.09037 3.86096 9.37168 4.20797 9.37168H8.50886C8.85587 9.37168 9.13717 9.09037 9.13717 8.74336V8.73451C9.13717 8.3875 8.85587 8.10619 8.50886 8.10619Z" fill="black"/>
<path opacity="0.487119" d="M10.9513 9.59292H7.37611C7.0291 9.59292 6.74779 9.87423 6.74779 10.2212V10.2301C6.74779 10.5771 7.0291 10.8584 7.37611 10.8584H10.9513C11.2983 10.8584 11.5796 10.5771 11.5796 10.2301V10.2212C11.5796 9.87423 11.2983 9.59292 10.9513 9.59292Z" fill="black"/>
<path opacity="0.845099" d="M9.23452 9.59292H5.65929C5.31228 9.59292 5.03098 9.87423 5.03098 10.2212V10.2301C5.03098 10.5771 5.31228 10.8584 5.65929 10.8584H9.23452C9.58153 10.8584 9.86283 10.5771 9.86283 10.2301V10.2212C9.86283 9.87423 9.58153 9.59292 9.23452 9.59292Z" fill="black"/>
<path opacity="0.487119" d="M12.6062 11.0973H9.82744C9.48043 11.0973 9.19912 11.3787 9.19912 11.7257V11.7345C9.19912 12.0815 9.48043 12.3628 9.82744 12.3628H12.6062C12.9532 12.3628 13.2345 12.0815 13.2345 11.7345V11.7257C13.2345 11.3787 12.9532 11.0973 12.6062 11.0973Z" fill="black"/>
<path opacity="0.845099" d="M10.7389 11.0973H7.96017C7.61316 11.0973 7.33186 11.3787 7.33186 11.7257V11.7345C7.33186 12.0815 7.61316 12.3628 7.96017 12.3628H10.7389C11.0859 12.3628 11.3673 12.0815 11.3673 11.7345V11.7257C11.3673 11.3787 11.0859 11.0973 10.7389 11.0973Z" fill="black"/>
</svg>
