<?xml version="1.0" encoding="UTF-8"?>
<svg width="16px" height="16px" viewBox="0 0 16 16" version="1.1" xmlns="http://www.w3.org/2000/svg" xmlns:xlink="http://www.w3.org/1999/xlink">
    <title>Artboard</title>
    <g id="Artboard" stroke="none" stroke-width="1" fill="none" fill-rule="evenodd">
        <rect id="Rectangle" stroke="black" stroke-width="1.26" x="1.22" y="1.22" width="13.56" height="13.56" rx="2.66"></rect>
        <g id="Group-7" transform="translate(2.44, 3.03)" fill="black">
            <g id="Group" transform="translate(0.37, 0)">
                <rect id="Rectangle" opacity="0.487118676" x="1.9" y="0" width="6.28" height="1.43" rx="0.71"></rect>
                <rect id="Rectangle" opacity="0.845098586" x="0" y="0" width="6.28" height="1.43" rx="0.71"></rect>
            </g>
            <g id="Group-2" transform="translate(2.88, 1.7)">
                <rect id="Rectangle" opacity="0.487118676" x="1.9" y="0" width="6.28" height="1.43" rx="0.71"></rect>
                <rect id="Rectangle" opacity="0.845098586" x="0" y="0" width="6.28" height="1.43" rx="0.71"></rect>
            </g>
            <g id="Group-3" transform="translate(1.53, 3.38)">
                <rect id="Rectangle" opacity="0.487118676" x="1.92" y="0" width="6.28" height="1.43" rx="0.71"></rect>
                <rect id="Rectangle" opacity="0.845098586" x="0" y="0" width="6.28" height="1.43" rx="0.71"></rect>
            </g>
            <g id="Group-4" transform="translate(0, 5.09)">
                <rect id="Rectangle" opacity="0.487118676" x="1.9" y="0" width="6.28" height="1.43" rx="0.71"></rect>
                <rect id="Rectangle" opacity="0.845098586" x="0" y="0" width="6.28" height="1.43" rx="0.71"></rect>
            </g>
            <g id="Group-5" transform="translate(1.64, 6.77)">
                <rect id="Rectangle" opacity="0.487118676" x="1.94" y="0" width="5.46" height="1.43" rx="0.71"></rect>
                <rect id="Rectangle" opacity="0.845098586" x="0" y="0" width="5.46" height="1.43" rx="0.71"></rect>
            </g>
            <g id="Group-6" transform="translate(4.24, 8.47)">
                <rect id="Rectangle" opacity="0.487118676" x="2.11" y="0" width="4.56" height="1.43" rx="0.71"></rect>
                <rect id="Rectangle" opacity="0.845098586" x="0" y="0" width="4.56" height="1.43" rx="0.71"></rect>
            </g>
        </g>
    </g>
</svg>
