<svg width="16" height="16" viewBox="0 0 16 16" fill="none" xmlns="http://www.w3.org/2000/svg">
<path d="M11.646 2H4.35398C3.05391 2 2 3.05391 2 4.35398V11.646C2 12.9461 3.05391 14 4.35398 14H11.646C12.9461 14 14 12.9461 14 11.646V4.35398C14 3.05391 12.9461 2 11.646 2Z" stroke="#C6CAD0" stroke-width="1.11504"/>
<path opacity="0.487119" d="M10.0177 3.60178H5.71681C5.3698 3.60178 5.08849 3.88309 5.08849 4.2301V4.23895C5.08849 4.58596 5.3698 4.86727 5.71681 4.86727H10.0177C10.3647 4.86727 10.646 4.58596 10.646 4.23895V4.2301C10.646 3.88309 10.3647 3.60178 10.0177 3.60178Z" fill="#C6CAD0"/>
<path opacity="0.845099" d="M8.33628 3.60178H4.03539C3.68838 3.60178 3.40707 3.88309 3.40707 4.2301V4.23895C3.40707 4.58596 3.68838 4.86727 4.03539 4.86727H8.33628C8.68329 4.86727 8.9646 4.58596 8.9646 4.23895V4.2301C8.9646 3.88309 8.68329 3.60178 8.33628 3.60178Z" fill="#C6CAD0"/>
<path opacity="0.487119" d="M12.2389 5.1062H7.93806C7.59105 5.1062 7.30974 5.38751 7.30974 5.73452V5.74337C7.30974 6.09038 7.59105 6.37169 7.93806 6.37169H12.2389C12.586 6.37169 12.8673 6.09038 12.8673 5.74337V5.73452C12.8673 5.38751 12.586 5.1062 12.2389 5.1062Z" fill="#C6CAD0"/>
<path opacity="0.845099" d="M10.5575 5.1062H6.25665C5.90964 5.1062 5.62833 5.38751 5.62833 5.73452V5.74337C5.62833 6.09038 5.90964 6.37169 6.25665 6.37169H10.5575C10.9045 6.37169 11.1858 6.09038 11.1858 5.74337V5.73452C11.1858 5.38751 10.9045 5.1062 10.5575 5.1062Z" fill="#C6CAD0"/>
<path opacity="0.487119" d="M11.0619 6.59293H6.76106C6.41405 6.59293 6.13274 6.87424 6.13274 7.22125V7.2301C6.13274 7.57711 6.41405 7.85842 6.76106 7.85842H11.0619C11.409 7.85842 11.6903 7.57711 11.6903 7.2301V7.22125C11.6903 6.87424 11.409 6.59293 11.0619 6.59293Z" fill="#C6CAD0"/>
<path opacity="0.845099" d="M9.36283 6.59293H5.06194C4.71493 6.59293 4.43362 6.87424 4.43362 7.22125V7.2301C4.43362 7.57711 4.71493 7.85842 5.06194 7.85842H9.36283C9.70979 7.85842 9.99119 7.57711 9.99119 7.2301V7.22125C9.99119 6.87424 9.70979 6.59293 9.36283 6.59293Z" fill="#C6CAD0"/>
<path opacity="0.487119" d="M9.6903 8.1062H5.38937C5.04236 8.1062 4.76105 8.38751 4.76105 8.73452V8.74337C4.76105 9.09038 5.04236 9.37169 5.38937 9.37169H9.6903C10.0373 9.37169 10.3186 9.09038 10.3186 8.74337V8.73452C10.3186 8.38751 10.0373 8.1062 9.6903 8.1062Z" fill="#C6CAD0"/>
<path opacity="0.845099" d="M8.00886 8.1062H3.70797C3.36096 8.1062 3.07965 8.38751 3.07965 8.73452V8.74337C3.07965 9.09038 3.36096 9.37169 3.70797 9.37169H8.00886C8.35587 9.37169 8.63717 9.09038 8.63717 8.74337V8.73452C8.63717 8.38751 8.35587 8.1062 8.00886 8.1062Z" fill="#C6CAD0"/>
<path opacity="0.487119" d="M10.4513 9.59293H6.87611C6.5291 9.59293 6.24779 9.87424 6.24779 10.2212V10.2301C6.24779 10.5771 6.5291 10.8584 6.87611 10.8584H10.4513C10.7983 10.8584 11.0796 10.5771 11.0796 10.2301V10.2212C11.0796 9.87424 10.7983 9.59293 10.4513 9.59293Z" fill="#C6CAD0"/>
<path opacity="0.845099" d="M8.73452 9.59293H5.15929C4.81228 9.59293 4.53098 9.87424 4.53098 10.2212V10.2301C4.53098 10.5771 4.81228 10.8584 5.15929 10.8584H8.73452C9.08153 10.8584 9.36283 10.5771 9.36283 10.2301V10.2212C9.36283 9.87424 9.08153 9.59293 8.73452 9.59293Z" fill="#C6CAD0"/>
<path opacity="0.487119" d="M12.1062 11.0973H9.32745C8.98044 11.0973 8.69913 11.3787 8.69913 11.7257V11.7345C8.69913 12.0815 8.98044 12.3628 9.32745 12.3628H12.1062C12.4532 12.3628 12.7345 12.0815 12.7345 11.7345V11.7257C12.7345 11.3787 12.4532 11.0973 12.1062 11.0973Z" fill="#C6CAD0"/>
<path opacity="0.845099" d="M10.2389 11.0973H7.46017C7.11316 11.0973 6.83186 11.3787 6.83186 11.7257V11.7345C6.83186 12.0815 7.11316 12.3628 7.46017 12.3628H10.2389C10.5859 12.3628 10.8673 12.0815 10.8673 11.7345V11.7257C10.8673 11.3787 10.5859 11.0973 10.2389 11.0973Z" fill="#C6CAD0"/>
</svg>
