<svg xmlns="http://www.w3.org/2000/svg" xmlns:xlink="http://www.w3.org/1999/xlink" viewBox="0 0 490.16 411.7"><defs><style>.cls-1{fill:url(#未命名的渐变_6);}</style><linearGradient id="未命名的渐变_6" y1="205.85" x2="490.16" y2="205.85" gradientUnits="userSpaceOnUse"><stop offset="0" stop-color="#e4177f"/><stop offset="0.5" stop-color="#e73562"/><stop offset="1" stop-color="#e94e4a"/></linearGradient></defs><title>资源 2</title><g id="图层_2" data-name="图层 2"><g id="图层_1-2" data-name="图层 1"><path class="cls-1" d="M233.45,40.81a17.55,17.55,0,1,0-35.1,0V331.56a40.82,40.82,0,0,1-81.63,0V145a17.55,17.55,0,1,0-35.09,0v79.06a40.82,40.82,0,0,1-81.63,0V195.42a11.63,11.63,0,0,1,23.26,0v28.66a17.55,17.55,0,0,0,35.1,0V145A40.82,40.82,0,0,1,140,145V331.56a17.55,17.55,0,0,0,35.1,0V217.5h0V40.81a40.81,40.81,0,1,1,81.62,0V281.56a11.63,11.63,0,1,1-23.26,0Zm215.9,63.4A40.86,40.86,0,0,0,408.53,145V300.85a17.55,17.55,0,0,1-35.09,0v-260a40.82,40.82,0,0,0-81.63,0V370.89a17.55,17.55,0,0,1-35.1,0V330a11.63,11.63,0,1,0-23.26,0v40.86a40.81,40.81,0,0,0,81.62,0V40.81a17.55,17.55,0,0,1,35.1,0v260a40.82,40.82,0,0,0,81.63,0V145a17.55,17.55,0,1,1,35.1,0V281.56a11.63,11.63,0,0,0,23.26,0V145A40.85,40.85,0,0,0,449.35,104.21Z"/></g></g></svg>