<svg width="16" height="16" viewBox="0 0 16 16" fill="none" xmlns="http://www.w3.org/2000/svg">
<path d="M14.0768 6.73011C14.3987 5.77678 14.2879 4.73245 13.7731 3.86531C12.9989 2.53528 11.4427 1.85102 9.9227 2.17303C9.24656 1.42139 8.2751 0.993949 7.25664 1.00006C5.70301 0.996574 4.32452 1.98358 3.84655 3.44224C2.84849 3.64393 1.98699 4.26038 1.48286 5.13408C0.702939 6.46061 0.880738 8.13278 1.9227 9.2703C1.6008 10.2236 1.71164 11.268 2.22642 12.1351C3.00057 13.4651 4.55686 14.1494 6.07679 13.8274C6.75251 14.579 7.72441 15.0064 8.74287 14.9999C10.2974 15.0038 11.6763 14.0159 12.1543 12.556C13.1524 12.3543 14.0139 11.7379 14.518 10.8641C15.297 9.53761 15.1188 7.86676 14.0773 6.72924L14.0768 6.73011ZM8.74376 14.0851C8.12169 14.0859 7.51912 13.8711 7.0416 13.4778C7.06332 13.4664 7.10101 13.4459 7.1254 13.431L9.9507 11.821C10.0952 11.7401 10.1839 11.5882 10.183 11.4242V7.49401L11.377 8.17433C11.3899 8.18045 11.3983 8.19271 11.4001 8.20671V11.4614C11.3983 12.9086 10.2105 14.082 8.74376 14.0851ZM3.03116 11.6775C2.71946 11.1464 2.60729 10.5237 2.71414 9.91955C2.73498 9.9318 2.77178 9.95411 2.79794 9.96898L5.6232 11.5791C5.76642 11.6617 5.94377 11.6617 6.08743 11.5791L9.5365 9.61374V10.9744C9.5374 10.9884 9.5308 11.002 9.5197 11.0107L6.66383 12.6378C5.39175 13.3606 3.76674 12.9309 3.03116 11.6775ZM2.2876 5.59215C2.59797 5.06014 3.08792 4.65326 3.67141 4.44195C3.67141 4.46601 3.67008 4.50845 3.67008 4.5382V7.75869C3.6692 7.92232 3.75787 8.07414 3.90198 8.15508L7.35108 10.1199L6.15704 10.8002C6.14507 10.8081 6.12999 10.8094 6.11669 10.8037L3.26039 9.17535C1.99098 8.44995 1.55601 6.84693 2.2876 5.59215ZM12.098 7.84488L8.64887 5.8796L9.8429 5.19971C9.8549 5.19183 9.87 5.19052 9.8833 5.19621L12.7396 6.8233C14.0112 7.54826 14.447 9.15348 13.7124 10.4082C13.4015 10.9394 12.912 11.3463 12.329 11.5581V8.24127C12.3303 8.07764 12.2417 7.92626 12.098 7.84488ZM13.2863 6.07998C13.2654 6.06729 13.2286 6.04541 13.2025 6.03054L10.3772 4.42051C10.234 4.33782 10.0566 4.33782 9.913 4.42051L6.46386 6.3858V5.02514C6.46298 5.01114 6.46963 4.99758 6.48071 4.98883L9.33657 3.36305C10.6086 2.63898 12.235 3.06992 12.9683 4.32557C13.2783 4.85583 13.3914 5.47665 13.2863 6.07998ZM5.81475 8.50509L4.62026 7.82476C4.6074 7.81863 4.59898 7.80638 4.59721 7.79238V4.53776C4.59809 3.08873 5.78947 1.91446 7.25797 1.91533C7.87916 1.91533 8.48039 2.13059 8.95792 2.52259C8.93619 2.53397 8.89894 2.55453 8.87412 2.56941L6.04885 4.17944C5.90431 4.26038 5.81563 4.41176 5.81652 4.57582L5.81475 8.50509ZM6.46342 7.12518L7.99976 6.24973L9.5361 7.12475V8.87521L7.99976 9.75023L6.46342 8.87521V7.12518Z" fill="#C6CAD0"/>
</svg>
