<svg width="16" height="16" viewBox="0 0 16 16" fill="none" xmlns="http://www.w3.org/2000/svg">
<path d="M14.5768 6.73011C14.8987 5.77678 14.7879 4.73245 14.2731 3.86531C13.4989 2.53528 11.9427 1.85102 10.4227 2.17303C9.74656 1.42139 8.7751 0.993944 7.75664 1.00006C6.20301 0.996569 4.82452 1.98358 4.34655 3.44224C3.34849 3.64393 2.48699 4.26038 1.98286 5.13408C1.20294 6.46061 1.38074 8.13277 2.4227 9.27029C2.1008 10.2236 2.21164 11.268 2.72642 12.1351C3.50057 13.4651 5.05686 14.1494 6.57679 13.8274C7.25251 14.579 8.22441 15.0064 9.24287 14.9999C10.7974 15.0038 12.1763 14.0159 12.6543 12.556C13.6524 12.3543 14.5139 11.7379 15.018 10.8641C15.797 9.5376 15.6188 7.86676 14.5773 6.72924L14.5768 6.73011ZM9.24376 14.0851C8.62169 14.0859 8.01912 13.8711 7.5416 13.4778C7.56332 13.4664 7.60101 13.4459 7.6254 13.431L10.4507 11.821C10.5952 11.7401 10.6839 11.5882 10.683 11.4242V7.49401L11.877 8.17433C11.8899 8.18045 11.8983 8.1927 11.9001 8.2067V11.4614C11.8983 12.9086 10.7105 14.082 9.24376 14.0851ZM3.53116 11.6775C3.21946 11.1464 3.10729 10.5237 3.21414 9.91955C3.23498 9.9318 3.27178 9.95411 3.29794 9.96898L6.1232 11.5791C6.26642 11.6617 6.44377 11.6617 6.58743 11.5791L10.0365 9.61373V10.9744C10.0374 10.9884 10.0308 11.002 10.0197 11.0107L7.16383 12.6378C5.89175 13.3606 4.26674 12.9309 3.53116 11.6775ZM2.7876 5.59215C3.09797 5.06014 3.58792 4.65326 4.17141 4.44195C4.17141 4.46601 4.17008 4.50845 4.17008 4.5382V7.75869C4.1692 7.92232 4.25787 8.07414 4.40198 8.15508L7.85108 10.1199L6.65704 10.8002C6.64507 10.8081 6.62999 10.8094 6.61669 10.8037L3.76039 9.17535C2.49098 8.44995 2.05601 6.84692 2.7876 5.59215ZM12.598 7.84488L9.14887 5.8796L10.3429 5.19971C10.3549 5.19183 10.37 5.19052 10.3833 5.19621L13.2396 6.8233C14.5112 7.54826 14.947 9.15347 14.2124 10.4082C13.9015 10.9394 13.412 11.3463 12.829 11.5581V8.24127C12.8303 8.07764 12.7417 7.92626 12.598 7.84488ZM13.7863 6.07998C13.7654 6.06729 13.7286 6.04541 13.7025 6.03054L10.8772 4.42051C10.734 4.33782 10.5566 4.33782 10.413 4.42051L6.96386 6.3858V5.02514C6.96298 5.01114 6.96963 4.99758 6.98071 4.98883L9.83657 3.36305C11.1086 2.63898 12.735 3.06992 13.4683 4.32557C13.7783 4.85583 13.8914 5.47665 13.7863 6.07998ZM6.31475 8.50509L5.12026 7.82476C5.1074 7.81863 5.09898 7.80638 5.09721 7.79238V4.53776C5.09809 3.08873 6.28947 1.91446 7.75797 1.91533C8.37916 1.91533 8.98039 2.13059 9.45792 2.52259C9.43619 2.53397 9.39894 2.55453 9.37412 2.56941L6.54885 4.17944C6.40431 4.26038 6.31563 4.41176 6.31652 4.57582L6.31475 8.50509ZM6.96342 7.12518L8.49976 6.24973L10.0361 7.12475V8.87521L8.49976 9.75023L6.96342 8.87521V7.12518Z" fill="black"/>
</svg>
