<svg width="16" height="16" viewBox="0 0 16 16" fill="none" xmlns="http://www.w3.org/2000/svg">
<path d="M2.84221 15C2.80954 14.65 2.89261 13.8016 3.48621 13.208C2.85154 12.48 1.93501 10.6712 3.34621 9.26C2.17021 7.496 2.84221 4.808 5.30621 4.668C5.41821 4.14533 6.24388 3.06077 8.05828 3.06077C9.87268 3.06077 10.5818 4.14533 10.6938 4.668C13.1578 4.808 13.8298 7.496 12.6538 9.26C14.065 10.6712 13.1485 12.48 12.5138 13.208C13.1074 13.8016 13.1905 14.65 13.1578 15M3.93421 4.864C3.74755 3.51066 3.6549 1 4.83021 1C5.64221 0.999997 5.83821 2.68 6.14621 3.632M12.0658 4.864C12.2525 3.51066 12.3451 1 11.1698 1C10.3578 0.999997 10.1618 2.68 9.85379 3.632M8.05828 7.6965C7.48995 7.72052 6.28918 7.74527 6.28918 9.10927C6.28918 10.4733 7.54678 10.5621 8.05828 10.5621C8.56978 10.5621 9.71082 10.4733 9.71082 9.10927C9.71082 7.74527 8.62661 7.72052 8.05828 7.6965Z" stroke="black" stroke-width="1.25"/>
<circle cx="4.98426" cy="7.76129" r="0.666553" fill="black"/>
<circle cx="0.666553" cy="0.666553" r="0.666553" transform="matrix(-1 0 0 1 11.6823 7.09473)" fill="black"/>
</svg>
