<svg width="16" height="16" viewBox="0 0 16 16" fill="none" xmlns="http://www.w3.org/2000/svg">
<g clip-path="url(#clip0_1896_38)">
<path d="M4.79676 0.504214C4.65679 0.526825 4.48882 0.600041 4.37039 0.690486C4.01184 0.962894 3.73405 1.54109 3.61669 2.26141C3.57254 2.53382 3.5424 2.91175 3.5424 3.20032C3.5424 3.54056 3.58224 3.97554 3.6393 4.27594C3.65222 4.34271 3.65868 4.40193 3.6533 4.40624C3.64899 4.41054 3.59623 4.45361 3.53701 4.50098C3.33459 4.66248 3.1031 4.91121 2.94374 5.13841C2.63796 5.57232 2.43984 6.06546 2.35693 6.5995C2.32463 6.81054 2.31602 7.23691 2.34186 7.44795C2.39892 7.93463 2.54536 8.34593 2.79623 8.72279L2.87806 8.84446L2.85438 8.8843C2.68641 9.1664 2.5432 9.57447 2.47645 9.96639C2.42369 10.2765 2.41723 10.3594 2.41723 10.775C2.41723 11.1939 2.42261 11.2768 2.47214 11.5664C2.53136 11.9131 2.65195 12.2803 2.78654 12.5247C2.83069 12.6043 2.93836 12.7702 2.95128 12.7788C2.95559 12.7809 2.94267 12.8208 2.92221 12.8671C2.76716 13.2062 2.63473 13.6574 2.57981 14.0375C2.54105 14.298 2.53567 14.382 2.53567 14.6566C2.53567 15.0065 2.55505 15.1766 2.62827 15.4555L2.63903 15.4964H3.09987H3.56178L3.53163 15.4393C3.34536 15.0948 3.32813 14.4552 3.48856 13.8167C3.56178 13.5217 3.64469 13.3053 3.79973 13.007L3.89233 12.8262V12.7153C3.89233 12.6119 3.89018 12.6 3.8568 12.5322C3.83096 12.4805 3.7965 12.4364 3.73513 12.3761C3.63069 12.2749 3.55532 12.1683 3.49502 12.0369C3.23015 11.4619 3.17847 10.6081 3.36474 9.88025C3.44226 9.57662 3.57039 9.30637 3.70498 9.15886C3.7965 9.05764 3.84388 8.9446 3.84388 8.82723C3.84388 8.70556 3.80081 8.60543 3.7039 8.50099C3.42611 8.20382 3.25491 7.84203 3.19354 7.42104C3.10633 6.82131 3.2646 6.16773 3.62423 5.64985C3.97631 5.14162 4.47052 4.81538 5.02289 4.72817C5.1467 4.70771 5.3782 4.71094 5.5074 4.73464C5.64846 4.7594 5.73674 4.75185 5.8272 4.70878C5.93917 4.65604 5.99516 4.59035 6.06084 4.43961C6.11898 4.30503 6.1642 4.2318 6.28587 4.07999C6.43231 3.89803 6.57335 3.7742 6.79946 3.62453C7.05788 3.45549 7.35182 3.33275 7.64469 3.27352C7.75127 3.25199 7.8008 3.24876 8 3.24876C8.1992 3.24876 8.24873 3.25199 8.35531 3.27352C8.78492 3.36075 9.21131 3.58255 9.55155 3.89694C9.62476 3.96477 9.80026 4.18227 9.85626 4.27273C9.87779 4.30824 9.91549 4.38363 9.93916 4.43961C10.0048 4.59035 10.0608 4.65604 10.1728 4.70878C10.26 4.75078 10.3515 4.7594 10.4872 4.73678C10.7015 4.70018 10.8662 4.70341 11.0762 4.74648C11.7911 4.89075 12.4135 5.47972 12.6891 6.26896C12.9292 6.96128 12.8614 7.68591 12.5039 8.23933C12.4436 8.33302 12.3833 8.40839 12.2961 8.50099C12.1077 8.70233 12.1077 8.95213 12.295 9.15886C12.603 9.49587 12.7957 10.3249 12.7375 11.056C12.6988 11.5384 12.575 11.9702 12.4048 12.2146C12.3747 12.2576 12.3123 12.3309 12.2649 12.3761C12.2035 12.4364 12.1691 12.4805 12.1432 12.5322C12.1098 12.6 12.1077 12.6119 12.1077 12.7153V12.8262L12.2003 13.007C12.3553 13.3053 12.4382 13.5217 12.5114 13.8167C12.6697 14.4466 12.6557 15.0733 12.4748 15.4297C12.4598 15.4598 12.4468 15.4878 12.4468 15.491C12.4468 15.4943 12.6525 15.4964 12.9044 15.4964H13.361L13.3728 15.4501C13.3793 15.4254 13.39 15.3877 13.3954 15.3661C13.4073 15.3188 13.4309 15.1788 13.4503 15.0442C13.4686 14.9085 13.4686 14.4089 13.4503 14.2582C13.3814 13.7112 13.2662 13.2773 13.0778 12.8671C13.0573 12.8208 13.0444 12.7809 13.0487 12.7788C13.0541 12.7756 13.0842 12.7325 13.1165 12.684C13.3513 12.3287 13.4956 11.8819 13.5688 11.2918C13.5882 11.1292 13.5882 10.4305 13.5688 10.2743C13.5171 9.87164 13.4546 9.59815 13.3513 9.32144C13.3082 9.20624 13.1941 8.9629 13.1456 8.8843L13.1219 8.84446L13.2038 8.72279C13.4546 8.34593 13.6011 7.93463 13.6581 7.44795C13.684 7.23691 13.6754 6.81054 13.6431 6.5995C13.5591 6.06437 13.362 5.57339 13.0563 5.13841C12.8969 4.91121 12.6654 4.66248 12.463 4.50098C12.4038 4.45361 12.351 4.41054 12.3467 4.40624C12.3413 4.40193 12.3478 4.34271 12.3607 4.27594C12.491 3.59653 12.4867 2.74917 12.3499 2.08699C12.2315 1.50987 12.0162 1.05119 11.7384 0.786314C11.5166 0.575277 11.2904 0.484833 11.0191 0.502061C10.3968 0.538669 9.89502 1.25468 9.6969 2.38308C9.6646 2.56505 9.63662 2.77824 9.63662 2.83638C9.63662 2.85899 9.6323 2.87729 9.62692 2.87729C9.62153 2.87729 9.57955 2.85576 9.53432 2.82885C9.05411 2.54458 8.52005 2.39278 8 2.39278C7.47995 2.39278 6.94589 2.54458 6.46568 2.82885C6.42045 2.85576 6.37847 2.87729 6.37308 2.87729C6.36771 2.87729 6.36338 2.85899 6.36338 2.83638C6.36338 2.77608 6.33432 2.55644 6.3031 2.38308C6.12328 1.36989 5.7109 0.6991 5.16286 0.530055C5.08749 0.507444 4.87322 0.492371 4.79676 0.504214ZM4.97982 1.38066C5.13486 1.50341 5.30713 1.85442 5.40619 2.24742C5.4245 2.31848 5.44387 2.40031 5.44926 2.43045C5.45357 2.45954 5.4654 2.52521 5.4751 2.57581C5.5171 2.80408 5.53647 3.05065 5.53863 3.35105L5.5397 3.64715L5.4654 3.75697L5.39112 3.86787H5.21776C5.01535 3.86787 4.81399 3.89372 4.62126 3.9454C4.55235 3.96263 4.48559 3.97986 4.47268 3.98309C4.45222 3.98739 4.44899 3.98093 4.43715 3.89264C4.37362 3.4135 4.37685 2.88268 4.44684 2.44122C4.52436 1.94917 4.70525 1.50341 4.88183 1.37205C4.92382 1.34082 4.93136 1.3419 4.97982 1.38066ZM11.1192 1.37312C11.2258 1.45172 11.3432 1.66061 11.4304 1.92763C11.6059 2.46168 11.6555 3.19492 11.5629 3.89264C11.551 3.98093 11.5478 3.98739 11.5273 3.98309C11.5144 3.97986 11.4476 3.96263 11.3787 3.9454C11.186 3.89372 10.9846 3.86787 10.7822 3.86787H10.6089L10.5346 3.75697L10.4603 3.64715L10.4614 3.35105C10.4635 2.93328 10.5023 2.60704 10.5949 2.24419C10.6929 1.85442 10.8662 1.50341 11.0202 1.38066C11.0686 1.3419 11.0762 1.34082 11.1192 1.37312Z" fill="black"/>
<path d="M7.8331 6.79222C7.59944 6.81484 7.53593 6.82345 7.42394 6.84607C7.24197 6.88375 6.99863 6.96774 6.82959 7.05064C6.24171 7.33812 5.83687 7.81726 5.71304 8.37177C5.68828 8.4816 5.68504 8.5182 5.68504 8.7034C5.68504 8.88644 5.68828 8.92628 5.71197 9.03071C5.87671 9.75535 6.54426 10.2905 7.40779 10.3885C7.59514 10.4089 8.40484 10.4089 8.59218 10.3885C9.28559 10.3099 9.88209 9.93409 10.1502 9.40649C10.2212 9.26545 10.2557 9.17392 10.288 9.03071C10.3117 8.92628 10.3149 8.88644 10.3149 8.7034C10.3149 8.5182 10.3117 8.4816 10.2869 8.37177C10.1071 7.56639 9.32542 6.93221 8.36715 6.81161C8.24224 6.79654 7.91493 6.78361 7.8331 6.79222ZM8.23578 7.37796C8.55558 7.41242 8.87751 7.52655 9.13592 7.69882C9.27482 7.79142 9.47079 7.98523 9.55476 8.11229C9.65813 8.26947 9.71734 8.42991 9.74426 8.6248C9.7561 8.71417 9.74966 8.782 9.71734 8.92628C9.66673 9.14162 9.50953 9.36665 9.29743 9.52385C9.19836 9.59599 8.99272 9.70045 8.86675 9.74135C8.62771 9.81779 8.47158 9.83179 7.91384 9.82749C7.54993 9.82426 7.48531 9.82102 7.38087 9.80165C7.02449 9.73489 6.74239 9.59276 6.53781 9.37635C6.37199 9.20191 6.29662 9.04257 6.25571 8.78523C6.23741 8.66571 6.27185 8.4676 6.34185 8.3007C6.42691 8.0972 6.64655 7.84419 6.86405 7.69882C7.116 7.53086 7.44763 7.41135 7.75234 7.37905C7.8697 7.36612 8.11842 7.36612 8.23578 7.37796Z" fill="black"/>
<path d="M7.58871 8.16397C7.50688 8.20811 7.44981 8.32009 7.46705 8.40299C7.48642 8.49236 7.56502 8.58282 7.68776 8.65711C7.75345 8.69695 7.75775 8.70232 7.76099 8.74216C7.76313 8.76585 7.75452 8.83369 7.74268 8.89399C7.72976 8.9532 7.72006 9.01566 7.72006 9.03289C7.72115 9.07919 7.76422 9.15455 7.80943 9.19116C7.84928 9.22346 7.85682 9.22453 7.96879 9.22776C8.07108 9.23099 8.09262 9.22883 8.13353 9.20946C8.23905 9.15777 8.26596 9.06303 8.2272 8.88106C8.1949 8.72925 8.20136 8.70556 8.28212 8.65926C8.36717 8.60972 8.45762 8.52252 8.48453 8.46329C8.53623 8.35025 8.48884 8.22211 8.3747 8.16289C8.34672 8.14889 8.31226 8.14244 8.26166 8.14244C8.18306 8.14244 8.13246 8.16074 8.03986 8.21995L7.98709 8.25334L7.95372 8.23288C7.81698 8.15212 7.79222 8.14244 7.70929 8.14351C7.65008 8.14351 7.61778 8.14889 7.58871 8.16397Z" fill="black"/>
<path d="M4.97443 6.9139C4.78385 6.9742 4.64172 7.11417 4.56851 7.31337C4.53298 7.40813 4.51575 7.55779 4.53082 7.63854C4.56635 7.83127 4.72462 8.00677 4.90445 8.05523C5.13055 8.11444 5.29959 8.07568 5.44926 7.9271C5.53647 7.84204 5.58386 7.76774 5.63123 7.64714C5.66567 7.5621 5.66783 7.54703 5.66783 7.42643L5.6689 7.29722L5.62369 7.20463C5.55154 7.05819 5.42126 6.94943 5.27053 6.9096C5.18546 6.88806 5.04872 6.88915 4.97443 6.9139Z" fill="black"/>
<path d="M10.7252 6.9107C10.5777 6.95053 10.4463 7.06035 10.3763 7.20464L10.3311 7.29724L10.3322 7.42644C10.3322 7.54704 10.3343 7.56211 10.3688 7.64716C10.4162 7.76775 10.4635 7.84205 10.5507 7.92711C10.7004 8.07569 10.8694 8.11446 11.0956 8.05525C11.2258 8.02078 11.3561 7.91095 11.4186 7.78282C11.4724 7.67408 11.4853 7.59548 11.4681 7.47165C11.4283 7.18848 11.2624 6.98283 11.0159 6.9107C10.9437 6.88916 10.8038 6.88916 10.7252 6.9107Z" fill="black"/>
</g>
<defs>
<clipPath id="clip0_1896_38">
<rect width="11.3466" height="15" fill="white" transform="translate(2.3267 0.5)"/>
</clipPath>
</defs>
</svg>
