<svg width="16" height="16" viewBox="0 0 16 16" fill="none" xmlns="http://www.w3.org/2000/svg">
<path d="M5.51933 0.963322C5.38908 0.984547 5.23278 1.05328 5.12258 1.13818C4.78894 1.3939 4.53045 1.93667 4.42125 2.61287C4.38017 2.86859 4.35212 3.22336 4.35212 3.49425C4.35212 3.81365 4.38919 4.22198 4.44229 4.50398C4.45431 4.56666 4.46032 4.62225 4.45531 4.6263C4.4513 4.63033 4.40221 4.67076 4.3471 4.71523C4.15875 4.86684 3.94334 5.10033 3.79505 5.31361C3.51052 5.72094 3.32617 6.18387 3.24902 6.68519C3.21896 6.8833 3.21095 7.28355 3.23499 7.48166C3.28809 7.93852 3.42435 8.32463 3.65779 8.6784L3.73394 8.79261L3.7119 8.83001C3.5556 9.09483 3.42234 9.4779 3.36023 9.84581C3.31114 10.1369 3.30513 10.2147 3.30513 10.6049C3.30513 10.9981 3.31013 11.0759 3.35622 11.3478C3.41133 11.6733 3.52354 12.018 3.64878 12.2474C3.68986 12.3221 3.79005 12.4778 3.80207 12.4859C3.80608 12.4879 3.79406 12.5253 3.77502 12.5688C3.63074 12.8871 3.50751 13.3107 3.45641 13.6675C3.42034 13.9121 3.41534 13.9909 3.41534 14.2487C3.41534 14.5771 3.43337 14.7368 3.5015 14.9986L3.51152 15.037H3.94034H4.37015L4.3421 14.9834C4.16877 14.66 4.15274 14.0596 4.30202 13.4602C4.37015 13.1833 4.4473 12.9802 4.59157 12.7001L4.67774 12.5304V12.4263C4.67774 12.3292 4.67574 12.3181 4.64468 12.2544C4.62063 12.2059 4.58857 12.1645 4.53146 12.1079C4.43428 12.0129 4.36414 11.9128 4.30803 11.7895C4.06157 11.2497 4.01348 10.4482 4.1868 9.76495C4.25894 9.47992 4.37817 9.22623 4.5034 9.08775C4.58857 8.99273 4.63265 8.88662 4.63265 8.77644C4.63265 8.66222 4.59258 8.56823 4.5024 8.47019C4.24391 8.19122 4.0846 7.8516 4.0275 7.4564C3.94635 6.89341 4.09362 6.27987 4.42826 5.79372C4.75588 5.31662 5.21575 5.01037 5.72975 4.9285C5.84495 4.9093 6.06037 4.91233 6.18059 4.93458C6.31185 4.95782 6.394 4.95073 6.47817 4.9103C6.58236 4.86079 6.63446 4.79913 6.69558 4.65762C6.74968 4.53129 6.79176 4.46254 6.90497 4.32003C7.04124 4.14922 7.17248 4.03298 7.38288 3.89248C7.62335 3.73379 7.89686 3.61857 8.16938 3.56297C8.26856 3.54276 8.31465 3.53973 8.50001 3.53973C8.68537 3.53973 8.73146 3.54276 8.83063 3.56297C9.23039 3.64486 9.62715 3.85307 9.94376 4.1482C10.0119 4.21187 10.1752 4.41605 10.2273 4.50096C10.2473 4.5343 10.2824 4.60507 10.3044 4.65762C10.3655 4.79913 10.4176 4.86079 10.5218 4.9103C10.603 4.94973 10.6881 4.95782 10.8144 4.93659C11.0138 4.90223 11.1671 4.90526 11.3625 4.94569C12.0277 5.08112 12.6069 5.63401 12.8633 6.3749C13.0867 7.0248 13.0236 7.70504 12.691 8.22456C12.6349 8.31251 12.5788 8.38326 12.4976 8.47019C12.3223 8.65919 12.3223 8.89369 12.4966 9.08775C12.7832 9.40412 12.9625 10.1824 12.9083 10.8687C12.8723 11.3215 12.7571 11.7269 12.5988 11.9563C12.5708 11.9967 12.5127 12.0655 12.4686 12.1079C12.4114 12.1645 12.3794 12.2059 12.3553 12.2544C12.3243 12.3181 12.3223 12.3292 12.3223 12.4263V12.5304L12.4085 12.7001C12.5527 12.9802 12.6298 13.1833 12.698 13.4602C12.8453 14.0515 12.8322 14.6399 12.6639 14.9744C12.6499 15.0027 12.6378 15.029 12.6378 15.032C12.6378 15.0351 12.8293 15.037 13.0636 15.037H13.4885L13.4995 14.9936C13.5056 14.9704 13.5155 14.935 13.5205 14.9147C13.5316 14.8703 13.5536 14.7389 13.5716 14.6125C13.5886 14.4851 13.5886 14.0162 13.5716 13.8747C13.5075 13.3612 13.4003 12.9539 13.225 12.5688C13.2059 12.5253 13.1939 12.4879 13.1979 12.4859C13.2029 12.4829 13.231 12.4425 13.261 12.3969C13.4795 12.0634 13.6138 11.644 13.6819 11.09C13.6999 10.9374 13.6999 10.2815 13.6819 10.1349C13.6338 9.75687 13.5756 9.50013 13.4795 9.24037C13.4394 9.13223 13.3332 8.9038 13.2881 8.83001L13.266 8.79261L13.3422 8.6784C13.5756 8.32463 13.7119 7.93852 13.765 7.48166C13.7891 7.28355 13.7811 6.8833 13.751 6.68519C13.6729 6.18284 13.4895 5.72194 13.205 5.31361C13.0567 5.10033 12.8413 4.86684 12.6529 4.71523C12.5978 4.67076 12.5487 4.63033 12.5447 4.6263C12.5397 4.62225 12.5457 4.56666 12.5577 4.50398C12.679 3.86619 12.675 3.07074 12.5477 2.44913C12.4375 1.90737 12.2372 1.47679 11.9787 1.22814C11.7723 1.03003 11.5618 0.945128 11.3093 0.9613C10.7303 0.995666 10.2634 1.66781 10.079 2.72708C10.049 2.8979 10.0229 3.09803 10.0229 3.15261C10.0229 3.17384 10.0189 3.19101 10.0139 3.19101C10.0089 3.19101 9.96981 3.1708 9.92772 3.14554C9.48088 2.87869 8.98392 2.73619 8.50001 2.73619C8.01609 2.73619 7.51914 2.87869 7.07229 3.14554C7.0302 3.1708 6.99114 3.19101 6.98612 3.19101C6.98113 3.19101 6.9771 3.17384 6.9771 3.15261C6.9771 3.096 6.95006 2.88982 6.92101 2.72708C6.75368 1.77596 6.36995 1.14627 5.85999 0.987579C5.78986 0.966354 5.59047 0.952204 5.51933 0.963322ZM5.68967 1.78607C5.83394 1.9013 5.99424 2.23081 6.08641 2.59973C6.10345 2.66644 6.12148 2.74326 6.12649 2.77155C6.1305 2.79886 6.14151 2.8605 6.15054 2.908C6.18962 3.12229 6.20764 3.35375 6.20965 3.63575L6.21065 3.91371L6.14151 4.0168L6.07239 4.12091H5.91108C5.72273 4.12091 5.53536 4.14517 5.35602 4.19369C5.2919 4.20986 5.22978 4.22604 5.21776 4.22907C5.19873 4.23311 5.19572 4.22704 5.1847 4.14416C5.12559 3.69437 5.12859 3.19607 5.19372 2.78166C5.26585 2.31975 5.43418 1.9013 5.59849 1.77799C5.63756 1.74867 5.64458 1.74969 5.68967 1.78607ZM11.4025 1.779C11.5017 1.85278 11.6109 2.04887 11.6921 2.29953C11.8554 2.80087 11.9015 3.48919 11.8154 4.14416C11.8043 4.22704 11.8013 4.23311 11.7822 4.22907C11.7702 4.22604 11.7081 4.20986 11.644 4.19369C11.4646 4.14517 11.2772 4.12091 11.0889 4.12091H10.9276L10.8585 4.0168L10.7894 3.91371L10.7904 3.63575C10.7923 3.24357 10.8284 2.93732 10.9146 2.5967C11.0058 2.23081 11.1671 1.9013 11.3104 1.78607C11.3554 1.74969 11.3625 1.74867 11.4025 1.779Z" fill="black"/>
<path d="M8.37317 6.82775C8.19555 6.84978 8.14728 6.85816 8.06215 6.88019C7.92382 6.91688 7.73884 6.99866 7.61035 7.07938C7.16347 7.35931 6.85573 7.82587 6.76159 8.36582C6.74277 8.47276 6.74031 8.5084 6.74031 8.68874C6.74031 8.86697 6.74277 8.90576 6.76078 9.00745C6.88601 9.71306 7.39345 10.2342 8.04987 10.3296C8.19229 10.3494 8.80778 10.3494 8.95019 10.3296C9.47729 10.253 9.93072 9.8871 10.1345 9.37336C10.1885 9.23603 10.2147 9.1469 10.2393 9.00745C10.2573 8.90576 10.2597 8.86697 10.2597 8.68874C10.2597 8.5084 10.2573 8.47276 10.2384 8.36582C10.1018 7.58159 9.50757 6.96406 8.77913 6.84663C8.68418 6.83196 8.43538 6.81937 8.37317 6.82775ZM8.67927 7.39811C8.92237 7.43166 9.16709 7.54279 9.36352 7.71054C9.4691 7.80071 9.61807 7.98943 9.6819 8.11315C9.76048 8.2662 9.80549 8.42243 9.82595 8.6122C9.83495 8.69922 9.83006 8.76527 9.80549 8.90576C9.76702 9.11545 9.64752 9.33457 9.48629 9.48764C9.41098 9.55788 9.25466 9.6596 9.15891 9.69943C8.9772 9.77386 8.85852 9.78749 8.43455 9.7833C8.15792 9.78016 8.1088 9.777 8.02941 9.75814C7.7585 9.69314 7.54406 9.55474 7.38855 9.34401C7.2625 9.17415 7.20521 9.019 7.17411 8.76842C7.1602 8.65204 7.18638 8.45913 7.23959 8.29661C7.30425 8.09846 7.47121 7.85209 7.63654 7.71054C7.82806 7.54699 8.08015 7.43062 8.31178 7.39917C8.40099 7.38658 8.59006 7.38658 8.67927 7.39811Z" fill="black"/>
<path d="M8.05397 8.02145C7.96179 8.0691 7.8975 8.19001 7.91692 8.27951C7.93874 8.37601 8.02729 8.47367 8.16555 8.55388C8.23955 8.5969 8.2444 8.6027 8.24805 8.64571C8.25046 8.67129 8.24076 8.74454 8.22742 8.80964C8.21287 8.87357 8.20194 8.94101 8.20194 8.95961C8.20317 9.0096 8.25168 9.09097 8.30261 9.13049C8.3475 9.16537 8.356 9.16652 8.48213 9.17001C8.59736 9.1735 8.62162 9.17116 8.66771 9.15025C8.78658 9.09444 8.81689 8.99215 8.77323 8.79568C8.73684 8.63177 8.74412 8.60619 8.8351 8.5562C8.9309 8.50272 9.0328 8.40857 9.06311 8.34462C9.12135 8.22257 9.06796 8.08422 8.93939 8.02028C8.90787 8.00516 8.86905 7.9982 8.81205 7.9982C8.7235 7.9982 8.6665 8.01796 8.56219 8.08189L8.50275 8.11794L8.46515 8.09585C8.31112 8.00865 8.28323 7.9982 8.18981 7.99935C8.12311 7.99935 8.08672 8.00516 8.05397 8.02145Z" fill="black"/>
<path d="M6.02787 6.84439C5.83235 6.90397 5.68655 7.04226 5.61144 7.23906C5.57499 7.33268 5.55732 7.48054 5.57278 7.56032C5.60923 7.75073 5.77159 7.92412 5.95608 7.972C6.18803 8.0305 6.36144 7.9922 6.51498 7.84541C6.60445 7.76137 6.65307 7.68797 6.70166 7.56882C6.73699 7.4848 6.73921 7.46991 6.73921 7.35076L6.74031 7.2231L6.69393 7.13163C6.61991 6.98695 6.48626 6.8795 6.33163 6.84015C6.24436 6.81886 6.10408 6.81994 6.02787 6.84439Z" fill="black"/>
<path d="M10.6638 6.84103C10.5126 6.88038 10.3778 6.9889 10.3061 7.13148L10.2597 7.22298L10.2608 7.35065C10.2608 7.46982 10.263 7.48471 10.2984 7.56875C10.347 7.68791 10.3955 7.76133 10.4849 7.84538C10.6384 7.99219 10.8117 8.0305 11.0436 7.972C11.1771 7.93794 11.3107 7.82941 11.3748 7.7028C11.43 7.59535 11.4432 7.51768 11.4255 7.39532C11.3847 7.11551 11.2146 6.9123 10.9619 6.84103C10.8878 6.81974 10.7444 6.81974 10.6638 6.84103Z" fill="black"/>
</svg>
