<svg width="16" height="16" viewBox="0 0 16 16" fill="none" xmlns="http://www.w3.org/2000/svg">
<path d="M5.01932 0.965138C4.88906 0.986363 4.73277 1.0551 4.62257 1.14C4.28893 1.39572 4.03043 1.93849 3.92123 2.61469C3.88015 2.87041 3.8521 3.22518 3.8521 3.49607C3.8521 3.81547 3.88917 4.2238 3.94227 4.5058C3.95429 4.56848 3.9603 4.62407 3.95529 4.62812C3.95128 4.63215 3.90219 4.67258 3.84708 4.71705C3.65873 4.86866 3.44332 5.10215 3.29503 5.31543C3.0105 5.72276 2.82616 6.18569 2.74901 6.68701C2.71895 6.88512 2.71093 7.28537 2.73497 7.48348C2.78807 7.94034 2.92433 8.32645 3.15777 8.68022L3.23392 8.79443L3.21189 8.83183C3.05559 9.09665 2.92232 9.47972 2.86021 9.84763C2.81112 10.1387 2.80512 10.2165 2.80512 10.6067C2.80512 10.9999 2.81012 11.0777 2.85621 11.3496C2.91132 11.6751 3.02353 12.0198 3.14877 12.2492C3.18985 12.3239 3.29003 12.4796 3.30205 12.4877C3.30606 12.4897 3.29404 12.5271 3.275 12.5706C3.13072 12.8889 3.00749 13.3125 2.95639 13.6693C2.92032 13.9139 2.91532 13.9927 2.91532 14.2505C2.91532 14.5789 2.93335 14.7386 3.00148 15.0004L3.0115 15.0388H3.44033H3.87014L3.84209 14.9852C3.66876 14.6618 3.65273 14.0614 3.80201 13.462C3.87014 13.1851 3.94728 12.982 4.09155 12.7019L4.17773 12.5322V12.4281C4.17773 12.331 4.17573 12.3199 4.14467 12.2562C4.12062 12.2077 4.08855 12.1663 4.03144 12.1097C3.93426 12.0147 3.86413 11.9146 3.80802 11.7913C3.56156 11.2515 3.51347 10.45 3.68679 9.76677C3.75893 9.48174 3.87815 9.22805 4.00338 9.08957C4.08855 8.99455 4.13263 8.88844 4.13263 8.77826C4.13263 8.66404 4.09256 8.57005 4.00238 8.47201C3.74389 8.19304 3.58459 7.85342 3.52749 7.45822C3.44634 6.89523 3.5936 6.28169 3.92824 5.79554C4.25586 5.31844 4.71574 5.01219 5.22974 4.93032C5.34494 4.91112 5.56036 4.91415 5.68058 4.9364C5.81184 4.95964 5.89398 4.95255 5.97815 4.91212C6.08234 4.86261 6.13444 4.80095 6.19556 4.65944C6.24966 4.53311 6.29175 4.46436 6.40496 4.32185C6.54123 4.15104 6.67247 4.0348 6.88287 3.8943C7.12334 3.73561 7.39685 3.62039 7.66937 3.56479C7.76855 3.54458 7.81463 3.54155 7.99999 3.54155C8.18535 3.54155 8.23145 3.54458 8.33062 3.56479C8.73038 3.64668 9.12714 3.85489 9.44375 4.15002C9.51189 4.21369 9.67518 4.41787 9.72728 4.50278C9.74728 4.53612 9.78239 4.60689 9.80439 4.65944C9.86549 4.80095 9.91759 4.86261 10.0218 4.91212C10.103 4.95155 10.1881 4.95964 10.3144 4.93841C10.5138 4.90405 10.6671 4.90708 10.8625 4.94751C11.5277 5.08294 12.1069 5.63583 12.3633 6.37672C12.5867 7.02662 12.5236 7.70686 12.191 8.22638C12.1349 8.31433 12.0788 8.38508 11.9976 8.47201C11.8223 8.66101 11.8223 8.89551 11.9966 9.08957C12.2832 9.40594 12.4625 10.1842 12.4083 10.8705C12.3723 11.3233 12.2571 11.7287 12.0988 11.9581C12.0708 11.9985 12.0127 12.0673 11.9686 12.1097C11.9114 12.1663 11.8794 12.2077 11.8553 12.2562C11.8243 12.3199 11.8223 12.331 11.8223 12.4281V12.5322L11.9085 12.7019C12.0527 12.982 12.1298 13.1851 12.198 13.462C12.3453 14.0533 12.3322 14.6417 12.1639 14.9762C12.1499 15.0045 12.1378 15.0308 12.1378 15.0338C12.1378 15.0369 12.3293 15.0388 12.5636 15.0388H12.9885L12.9995 14.9954C13.0056 14.9722 13.0155 14.9368 13.0205 14.9165C13.0316 14.8721 13.0536 14.7407 13.0716 14.6143C13.0886 14.4869 13.0886 14.018 13.0716 13.8765C13.0075 13.363 12.9003 12.9557 12.725 12.5706C12.7059 12.5271 12.6939 12.4897 12.6979 12.4877C12.7029 12.4847 12.731 12.4443 12.761 12.3987C12.9795 12.0652 13.1138 11.6458 13.1819 11.0918C13.1999 10.9392 13.1999 10.2833 13.1819 10.1367C13.1338 9.75869 13.0756 9.50195 12.9795 9.24219C12.9394 9.13405 12.8332 8.90562 12.7881 8.83183L12.766 8.79443L12.8422 8.68022C13.0756 8.32645 13.2119 7.94034 13.265 7.48348C13.2891 7.28537 13.2811 6.88512 13.251 6.68701C13.1729 6.18466 12.9895 5.72376 12.705 5.31543C12.5567 5.10215 12.3413 4.86866 12.1529 4.71705C12.0978 4.67258 12.0487 4.63215 12.0447 4.62812C12.0397 4.62407 12.0457 4.56848 12.0577 4.5058C12.179 3.86801 12.175 3.07256 12.0477 2.45095C11.9375 1.90919 11.7372 1.47861 11.4787 1.22996C11.2723 1.03185 11.0618 0.946944 10.8093 0.963116C10.2303 0.997482 9.76339 1.66963 9.57899 2.7289C9.54899 2.89972 9.52288 3.09985 9.52288 3.15443C9.52288 3.17566 9.51889 3.19283 9.51389 3.19283C9.50889 3.19283 9.4698 3.17262 9.42771 3.14736C8.98087 2.88051 8.4839 2.73801 7.99999 2.73801C7.51607 2.73801 7.01912 2.88051 6.57227 3.14736C6.53018 3.17262 6.49113 3.19283 6.48611 3.19283C6.48112 3.19283 6.47708 3.17566 6.47708 3.15443C6.47708 3.09782 6.45004 2.89164 6.42099 2.7289C6.25367 1.77778 5.86994 1.14809 5.35998 0.989395C5.28985 0.96817 5.09046 0.95402 5.01932 0.965138ZM5.18966 1.78789C5.33393 1.90312 5.49423 2.23263 5.5864 2.60155C5.60344 2.66826 5.62147 2.74508 5.62648 2.77337C5.63049 2.80068 5.64149 2.86232 5.65052 2.90982C5.6896 3.12411 5.70763 3.35557 5.70964 3.63757L5.71063 3.91553L5.64149 4.01862L5.57238 4.12273H5.41106C5.22271 4.12273 5.03534 4.14699 4.856 4.19551C4.79188 4.21168 4.72977 4.22786 4.71775 4.23089C4.69872 4.23493 4.6957 4.22886 4.68468 4.14598C4.62557 3.69619 4.62857 3.19789 4.6937 2.78348C4.76583 2.32157 4.93417 1.90312 5.09848 1.77981C5.13755 1.75049 5.14457 1.75151 5.18966 1.78789ZM10.9025 1.78082C11.0017 1.8546 11.1109 2.05069 11.1921 2.30135C11.3554 2.80269 11.4015 3.49101 11.3154 4.14598C11.3043 4.22886 11.3013 4.23493 11.2822 4.23089C11.2702 4.22786 11.2081 4.21168 11.144 4.19551C10.9646 4.14699 10.7772 4.12273 10.5889 4.12273H10.4276L10.3585 4.01862L10.2894 3.91553L10.2904 3.63757C10.2923 3.24539 10.3284 2.93914 10.4146 2.59852C10.5058 2.23263 10.6671 1.90312 10.8104 1.78789C10.8554 1.75151 10.8625 1.75049 10.9025 1.78082Z" fill="#C6CAD0"/>
<path d="M7.87316 6.82959C7.69554 6.85162 7.64727 6.86 7.56214 6.88203C7.42381 6.91872 7.23883 7.0005 7.11034 7.08122C6.66346 7.36115 6.35572 7.82771 6.26158 8.36766C6.24276 8.4746 6.2403 8.51024 6.2403 8.69058C6.2403 8.86881 6.24276 8.9076 6.26077 9.00929C6.386 9.7149 6.89343 10.236 7.54985 10.3314C7.69227 10.3512 8.30776 10.3512 8.45017 10.3314C8.97727 10.2548 9.4307 9.88894 9.63448 9.3752C9.68848 9.23787 9.71468 9.14874 9.73928 9.00929C9.75728 8.9076 9.75969 8.86881 9.75969 8.69058C9.75969 8.51024 9.75729 8.4746 9.73839 8.36766C9.60179 7.58343 9.00756 6.9659 8.27912 6.84847C8.18417 6.8338 7.93537 6.82121 7.87316 6.82959ZM8.17926 7.39995C8.42236 7.4335 8.66707 7.54463 8.8635 7.71238C8.96908 7.80255 9.11806 7.99127 9.18189 8.11499C9.26047 8.26804 9.30547 8.42427 9.32593 8.61404C9.33493 8.70106 9.33004 8.76711 9.30547 8.9076C9.267 9.11729 9.14751 9.33641 8.98628 9.48948C8.91097 9.55972 8.75465 9.66144 8.6589 9.70127C8.47719 9.7757 8.35851 9.78933 7.93454 9.78514C7.65791 9.782 7.60879 9.77884 7.5294 9.75998C7.25849 9.69498 7.04405 9.55658 6.88854 9.34585C6.76249 9.17599 6.7052 9.02084 6.6741 8.77026C6.66019 8.65388 6.68637 8.46097 6.73958 8.29845C6.80424 8.1003 6.9712 7.85393 7.13653 7.71238C7.32805 7.54883 7.58014 7.43246 7.81177 7.40101C7.90098 7.38842 8.09005 7.38842 8.17926 7.39995Z" fill="#C6CAD0"/>
<path d="M7.55396 8.02325C7.46178 8.0709 7.39749 8.19181 7.41691 8.28131C7.43873 8.37781 7.52728 8.47547 7.66554 8.55568C7.73954 8.5987 7.74439 8.6045 7.74804 8.64751C7.75045 8.67309 7.74075 8.74634 7.72741 8.81144C7.71286 8.87537 7.70193 8.94281 7.70193 8.96141C7.70316 9.0114 7.75167 9.09277 7.8026 9.13229C7.84749 9.16717 7.85599 9.16832 7.98212 9.17181C8.09735 9.1753 8.12161 9.17296 8.1677 9.15205C8.28657 9.09624 8.31688 8.99395 8.27322 8.79748C8.23683 8.63357 8.24411 8.60799 8.33509 8.558C8.43089 8.50452 8.53279 8.41037 8.5631 8.34642C8.62134 8.22437 8.56795 8.08602 8.43938 8.02208C8.40786 8.00696 8.36904 8 8.31204 8C8.22349 8 8.16649 8.01976 8.06218 8.08369L8.00274 8.11974L7.96514 8.09765C7.81111 8.01045 7.78322 8 7.6898 8.00115C7.6231 8.00115 7.58671 8.00696 7.55396 8.02325Z" fill="#C6CAD0"/>
<path d="M5.52785 6.84623C5.33233 6.90581 5.18653 7.0441 5.11142 7.2409C5.07497 7.33452 5.0573 7.48238 5.07276 7.56216C5.10921 7.75257 5.27157 7.92597 5.45606 7.97385C5.68801 8.03235 5.86142 7.99404 6.01496 7.84725C6.10443 7.76321 6.15305 7.68981 6.20164 7.57066C6.23697 7.48664 6.23919 7.47175 6.23919 7.3526L6.24029 7.22495L6.19391 7.13347C6.11989 6.98879 5.98624 6.88134 5.83161 6.84199C5.74434 6.8207 5.60406 6.82178 5.52785 6.84623Z" fill="#C6CAD0"/>
<path d="M10.1638 6.84287C10.0126 6.88222 9.87779 6.99074 9.80609 7.13332L9.75969 7.22482L9.76079 7.35249C9.76079 7.47166 9.76299 7.48655 9.79839 7.57059C9.84699 7.68975 9.89549 7.76317 9.98489 7.84722C10.1384 7.99403 10.3117 8.03234 10.5436 7.97384C10.6771 7.93978 10.8107 7.83125 10.8748 7.70464C10.93 7.59719 10.9432 7.51952 10.9255 7.39716C10.8847 7.11735 10.7146 6.91414 10.4619 6.84287C10.3878 6.82158 10.2444 6.82158 10.1638 6.84287Z" fill="#C6CAD0"/>
</svg>
