<svg width="16" height="16" viewBox="0 0 16 16" fill="none" xmlns="http://www.w3.org/2000/svg">
<path d="M1.6 0H14.4C14.8243 0 15.2313 0.18727 15.5314 0.520612C15.8314 0.853954 16 1.30606 16 1.77748V11.5536C16 12.025 15.8314 12.4771 15.5314 12.8105C15.2313 13.1438 14.8243 13.3311 14.4 13.3311H6.968L4.688 15.864C4.63252 15.9279 4.56107 15.972 4.48285 15.9904C4.40464 16.0088 4.32326 16.0007 4.24921 15.9672C4.17516 15.9337 4.11184 15.8764 4.06742 15.8025C4.023 15.7287 3.99952 15.6418 4 15.5529V13.3311H1.6C1.17565 13.3311 0.768688 13.1438 0.468629 12.8105C0.168571 12.4771 0 12.025 0 11.5536V1.77748C0 1.30606 0.168571 0.853954 0.468629 0.520612C0.768688 0.18727 1.17565 0 1.6 0Z" fill="#333333"/>
<path d="M7.76206 6.88644L2.76122 9.11028V7.22971L5.94724 6.00586L5.89346 6.09541V5.88646L5.94724 5.97601L2.76122 4.75215V2.87159L7.76206 5.09543V6.88644Z" fill="white"/>
<path d="M13.0115 9.09535V10.558H8.34676V9.09535H13.0115Z" fill="white"/>
</svg>
