<svg width="16" height="16" viewBox="0 0 16 16" fill="none" xmlns="http://www.w3.org/2000/svg">
<g clip-path="url(#clip0_2639_570)">
<g clip-path="url(#clip1_2639_570)">
<path d="M9.85676 4H13.6675C15.2128 4 16.4654 5.25266 16.4654 6.7979V10.4322H14.9002V6.7979C14.9002 6.76067 14.8988 6.7237 14.8959 6.68706L11.0851 10.4316C11.098 10.432 11.1109 10.4322 11.1238 10.4322H14.9002V11.9105H11.1238C9.57856 11.9105 8.29152 10.6456 8.29152 9.10032V5.47569H9.85676V9.10032C9.85676 9.17012 9.86216 9.23908 9.87264 9.30672L13.7673 5.4798C13.7344 5.47708 13.7012 5.47569 13.6675 5.47569H9.85676V4Z" fill="black"/>
<path d="M6.00752 11.6382L0.5 5.47504H2.71573L5.94924 9.09348V5.47504H7.6014V11.0298C7.6014 11.8682 6.56616 12.2634 6.00752 11.6382Z" fill="black"/>
</g>
</g>
<defs>
<clipPath id="clip0_2639_570">
<rect width="16" height="16" fill="white" transform="translate(0.5)"/>
</clipPath>
<clipPath id="clip1_2639_570">
<rect width="16" height="8" fill="white" transform="translate(0.5 4)"/>
</clipPath>
</defs>
</svg>
