<svg width="16" height="16" viewBox="0 0 16 16" fill="none" xmlns="http://www.w3.org/2000/svg">
<g clip-path="url(#clip0_1882_101)">
<path fill-rule="evenodd" clip-rule="evenodd" d="M2.3125 1.875C2.07088 1.875 1.875 2.07088 1.875 2.3125V11.9375H1V2.3125C1 1.58763 1.58763 1 2.3125 1H14.0344C14.6191 1 14.9118 1.70688 14.4984 2.12029L7.27887 9.33984H9.3125V8.4375H10.1875V9.55859C10.1875 9.92103 9.89369 10.2148 9.53125 10.2148H6.40387L4.89996 11.7187H11.7187V6.25H12.5937V11.7187C12.5937 12.202 12.202 12.5937 11.7187 12.5937H4.02496L2.49371 14.125H13.6875C13.9291 14.125 14.125 13.9291 14.125 13.6875V4.0625H15V13.6875C15 14.4124 14.4124 15 13.6875 15H1.96561C1.38095 15 1.08816 14.2931 1.50157 13.8797L8.69379 6.6875H6.6875V7.5625H5.8125V6.46875C5.8125 6.10631 6.10631 5.8125 6.46875 5.8125H9.56879L11.1 4.28125H4.28125V9.75H3.40625V4.28125C3.40625 3.798 3.798 3.40625 4.28125 3.40625H11.975L13.5063 1.875H2.3125Z" fill="black"/>
</g>
<defs>
<clipPath id="clip0_1882_101">
<rect width="14" height="14" fill="white" transform="translate(1 1)"/>
</clipPath>
</defs>
</svg>
