<svg width="16" height="16" viewBox="0 0 16 16" fill="none" xmlns="http://www.w3.org/2000/svg">
<path fill-rule="evenodd" clip-rule="evenodd" d="M3.625 2.75C3.4179 2.75 3.25 2.9179 3.25 3.125V11.375H2.5V3.125C2.5 2.50368 3.00368 2 3.625 2H13.6723C14.1735 2 14.4244 2.6059 14.0701 2.96025L7.88189 9.14843H9.625V8.375H10.375V9.33593C10.375 9.6466 10.1232 9.8984 9.8125 9.8984H7.13189L5.84282 11.1875H11.6875V6.5H12.4375V11.1875C12.4375 11.6017 12.1017 11.9375 11.6875 11.9375H5.09282L3.78032 13.25H13.375C13.5821 13.25 13.75 13.0821 13.75 12.875V4.625H14.5V12.875C14.5 13.4963 13.9963 14 13.375 14H3.32767C2.82653 14 2.57557 13.3941 2.92992 13.0397L9.09468 6.875H7.375V7.625H6.625V6.6875C6.625 6.37684 6.87684 6.125 7.1875 6.125H9.84468L11.1571 4.8125H5.3125V9.5H4.5625V4.8125C4.5625 4.39829 4.89829 4.0625 5.3125 4.0625H11.9071L13.2197 2.75H3.625Z" fill="black"/>
</svg>
