<svg width="16" height="16" viewBox="0 0 16 16" fill="none" xmlns="http://www.w3.org/2000/svg">
<path fill-rule="evenodd" clip-rule="evenodd" d="M3.125 2.75C2.9179 2.75 2.75 2.9179 2.75 3.125V11.375H2V3.125C2 2.50368 2.50368 2 3.125 2H13.1723C13.6735 2 13.9244 2.6059 13.5701 2.96025L7.38189 9.14843H9.125V8.375H9.875V9.33593C9.875 9.6466 9.6232 9.8984 9.3125 9.8984H6.63189L5.34282 11.1875H11.1875V6.5H11.9375V11.1875C11.9375 11.6017 11.6017 11.9375 11.1875 11.9375H4.59282L3.28032 13.25H12.875C13.0821 13.25 13.25 13.0821 13.25 12.875V4.625H14V12.875C14 13.4963 13.4963 14 12.875 14H2.82767C2.32653 14 2.07557 13.3941 2.42992 13.0397L8.59468 6.875H6.875V7.625H6.125V6.6875C6.125 6.37684 6.37684 6.125 6.6875 6.125H9.34468L10.6571 4.8125H4.8125V9.5H4.0625V4.8125C4.0625 4.39829 4.39829 4.0625 4.8125 4.0625H11.4071L12.7197 2.75H3.125Z" fill="#C6CAD0"/>
</svg>
