<svg width="16" height="16" viewBox="0 0 16 16" fill="none" xmlns="http://www.w3.org/2000/svg">
<path d="M15.5556 4.66722H14.6667C14.4201 4.66722 14.2222 4.86514 14.2222 5.08667V7.30889H13.3333V6.00028C13.3333 5.75375 13.1354 5.55583 12.8889 5.55583H11.5556V3.77806H12.8889C13.1361 3.77806 13.3333 3.58028 13.3333 3.33361V2.44472C13.3333 2.19806 13.1361 2.00028 12.8889 2.00028H12C11.7528 2.00028 11.5556 2.19806 11.5556 2.44472V2.88917H10.2222C9.97569 2.88917 9.77778 3.08708 9.77778 3.33361V4.66694H6.22222V3.33361C6.22222 3.08708 6.02431 2.88917 5.77778 2.88917L4.44444 2.88889V2.44444C4.44444 2.19778 4.24722 2 4 2H3.11111C2.86389 2 2.66667 2.19778 2.66667 2.44444V3.33333C2.66667 3.58 2.86389 3.77778 3.11111 3.77778H4.44444V5.55556H3.11111C2.86458 5.55556 2.66667 5.75347 2.66667 6V7.33333H1.77778V5.11111C1.77778 4.86458 1.57986 4.69167 1.33333 4.69167L0.444444 4.69139C0.197778 4.69139 0 4.88931 0 5.11083V8.66639C0 8.91292 0.197778 9.11083 0.444444 9.11083H1.77778V11.3331C1.77778 11.5796 1.97569 11.7775 2.22222 11.7775H3.55556V13.9997C3.55556 14.2462 3.75347 14.4442 4 14.4442H6.66667C6.91319 14.4442 7.11111 14.2462 7.11111 14.0247V13.1608C7.11111 12.9143 6.91319 12.7164 6.66667 12.7164H5.33333V11.8275H10.6667V12.7164H9.33333C9.08681 12.7164 8.88889 12.9143 8.88889 13.1608V14.0247C8.88889 14.2712 9.08681 14.4442 9.33333 14.4442H12C12.2465 14.4442 12.4444 14.2462 12.4444 13.9997V11.7775H13.7778C14.0243 11.7775 14.2222 11.5796 14.2222 11.3331V9.11083H15.5556C15.8021 9.11083 16 8.91292 16 8.66639V5.11083C16 4.86361 15.8028 4.66639 15.5556 4.66639V4.66722ZM6.22222 10.0006H4.44444V7.33389H6.22222V10.0006ZM11.5556 10.0006H9.77778V7.33389H11.5556V10.0006Z" fill="black"/>
</svg>
