<svg width="16" height="17" viewBox="0 0 16 17" fill="none" xmlns="http://www.w3.org/2000/svg">
<path d="M8.23309 0.527832C4.36482 0.527832 1.23395 3.27718 1.23395 7.79257C1.23395 11.2828 5.42719 14.8073 7.32383 16.2259C7.86283 16.6281 8.60492 16.6281 9.14392 16.2259C11.039 14.7789 15.2322 11.2825 15.2322 7.79226C15.2322 3.27687 12.1014 0.527832 8.23309 0.527832ZM6.73328 10.4982H5.7334C4.35482 10.4982 3.2337 9.37738 3.2337 8.0266C3.2337 7.74914 3.45633 7.55479 3.73364 7.55479H4.73352C6.1121 7.55479 7.23322 8.67559 7.23322 10.0542C7.23322 10.3045 7.01137 10.4982 6.73328 10.4982ZM10.7328 10.4982H9.73291C9.4556 10.4982 9.23297 10.2755 9.23297 10.0264C9.23297 8.64778 10.3541 7.52698 11.7327 7.52698H12.7325C13.0099 7.52698 13.2325 7.74945 13.2325 7.9988C13.2325 9.40456 12.1107 10.4982 10.7328 10.4982Z" fill="black"/>
</svg>
