<svg width="16" height="16" viewBox="0 0 16 16" fill="none" xmlns="http://www.w3.org/2000/svg">
<path d="M9.08125 5C8.45 5 5.74375 5.0625 4 7.6875V5C4 3.34375 2.65625 2 1 2C0.449375 2 0 2.45 0 3C0 3.55 0.449375 4 1 4C1.55063 4 2 4.44937 2 5V13C2 14.1016 2.89844 15 4 15H9.5C9.77734 15 10 14.7773 10 14.5281V14C10 13.4494 9.55063 13 9 13H8L12 10V14.5C12 14.7773 12.2227 15 12.5 15H13.5C13.7773 15 14 14.7773 14 14.5V8.05937C13.6797 8.14141 13.3475 8.2 13 8.2C11.0688 8.2 9.45313 6.825 9.08125 5V5ZM14 2H12L10 0V4.2C10 5.85625 11.3438 7.17188 13 7.17188C14.6562 7.17188 16 5.85625 16 4.2V0L14 2ZM11.75 4.5C11.4727 4.5 11.25 4.27734 11.25 4C11.25 3.72266 11.4727 3.5 11.75 3.5C12.0273 3.5 12.25 3.72266 12.25 4C12.25 4.27734 12.0281 4.5 11.75 4.5ZM14.25 4.5C13.9727 4.5 13.75 4.27734 13.75 4C13.75 3.72266 13.9727 3.5 14.25 3.5C14.5273 3.5 14.75 3.72266 14.75 4C14.75 4.27734 14.5281 4.5 14.25 4.5Z" fill="black"/>
</svg>
