<svg width="16" height="16" viewBox="0 0 16 16" fill="none" xmlns="http://www.w3.org/2000/svg">
<g clip-path="url(#clip0_2940_542)">
<path d="M13.0472 7.86798C13.1784 8.06796 13.2971 8.28044 13.3909 8.5023H14.382L15.2763 8.05515C15.5241 7.93235 15.8231 8.03109 15.9472 8.27857C16.07 8.52542 15.9706 8.82601 15.7235 8.94944L14.7236 9.44939C14.6529 9.48314 14.578 9.50188 14.4998 9.50188H13.654C13.6827 9.69843 13.714 9.89497 13.714 10.1C13.714 10.1909 13.6827 10.2752 13.6618 10.3624L14.158 10.5277C14.2311 10.5521 14.2986 10.5933 14.3533 10.648L15.3532 11.6479C15.5485 11.8432 15.5485 12.1598 15.3532 12.3547C15.2557 12.4513 15.1276 12.5013 14.9995 12.5013C14.8714 12.5013 14.7436 12.4522 14.6461 12.3547L13.7293 11.4383L13.0687 11.218L12.1091 12.1776L13.1578 12.5272C13.2309 12.5516 13.2984 12.5928 13.3531 12.6475L14.353 13.6474C14.5483 13.8427 14.5483 14.1592 14.353 14.3542C14.2558 14.4505 14.1277 14.5005 13.9996 14.5005C13.8715 14.5005 13.7437 14.4514 13.6462 14.3539L12.7294 13.4374L11.3192 12.9672L10.793 13.4934L11.757 14.0718C11.9091 14.1627 11.9998 14.3252 11.9998 14.5001V15.5C11.9998 15.7763 11.776 16 11.4998 16C11.2233 16 10.9999 15.775 10.9999 15.5V14.7832L9.69374 14.0002H6.30657L5.00045 14.7845V15.5C5.00045 15.775 4.77547 16 4.5005 16C4.22552 16 4.00055 15.775 4.00055 15.5V14.5001C4.00055 14.3244 4.0921 14.1617 4.24365 14.0714L5.20762 13.4931L4.68142 12.9669L3.27093 13.4371L2.35415 14.3536C2.25634 14.4502 2.12823 14.5001 2.00043 14.5001C1.87263 14.5001 1.74452 14.4511 1.64703 14.3536C1.45173 14.1583 1.45173 13.8418 1.64703 13.6468L2.64693 12.6469C2.70161 12.5922 2.76879 12.5506 2.84222 12.5263L3.89087 12.1766L2.93128 11.217L2.27072 11.437L1.35393 12.3535C1.25644 12.4497 1.12833 12.4997 1.00053 12.4997C0.872727 12.4997 0.744615 12.4507 0.647124 12.3532C0.451831 12.1579 0.451831 11.8413 0.647124 11.6464L1.64703 10.6465C1.70171 10.5918 1.76889 10.5502 1.84232 10.5258L2.33852 10.3602C2.31727 10.2731 2.28696 10.1887 2.28696 10.0978C2.28696 9.89278 2.31759 9.69655 2.34633 9.4997H1.50017C1.42299 9.4997 1.34581 9.48157 1.27644 9.44689L0.276536 8.94694C0.0293721 8.82445 -0.0703056 8.52448 0.0528073 8.2745C0.176545 8.02672 0.476516 7.92923 0.723679 8.05078L1.61797 8.49917H2.60912C2.70349 8.27575 2.82222 8.06609 2.95346 7.86517L0.430895 6.67747C0.167796 6.55561 0 6.29001 0 5.99941V3.99961C0 1.79076 1.79045 0 3.97149 0H5.94317L3.97149 1.9998H5.94317C5.94317 3.10438 5.04794 3.99961 3.97149 3.99961H1.49985V5.52352L4.05804 6.72747C4.61799 6.34001 5.28355 6.10253 5.9991 6.03691V4.49956C5.9991 4.22459 6.22408 3.99961 6.49905 3.99961C6.77403 3.99961 6.999 4.22459 6.999 4.49956L7.00213 5.99941H8.99881V4.49956C8.99881 4.22459 9.22379 3.99961 9.49876 3.99961C9.77373 3.99961 9.99871 4.22459 9.99871 4.49956L9.9984 6.03597C10.7136 6.10347 11.3792 6.33969 11.9398 6.72747L14.498 5.52352V3.99961H12.0263C10.8952 3.99961 9.97028 3.10438 9.97028 1.9998H11.942L9.97028 0H11.942C14.1508 0 15.9134 1.79076 15.9134 3.99961V5.99941C15.9134 6.2897 15.7455 6.55405 15.4829 6.6781L13.045 7.86486L13.0472 7.86798Z" fill="black"/>
</g>
<defs>
<clipPath id="clip0_2940_542">
<rect width="16" height="16" fill="white"/>
</clipPath>
</defs>
</svg>
