<svg width="16" height="16" viewBox="0 0 16 16" fill="none" xmlns="http://www.w3.org/2000/svg">
<path d="M16 4.67221C16 5.28485 15.5033 5.78157 14.8906 5.78157C14.8837 5.78157 14.8779 5.77796 14.8709 5.77768L13.4698 13.485C13.3927 13.9046 13.0266 14.2124 12.5968 14.2124H3.42792C2.99915 14.2124 2.6314 13.9057 2.55485 13.4838L1.15401 5.77851C1.14708 5.77851 1.14125 5.78129 1.10936 5.78129C0.496715 5.78129 0 5.28457 0 4.67193C0 4.05929 0.521676 3.56257 1.10936 3.56257C1.69704 3.56257 2.21872 4.05929 2.21872 4.67193C2.21872 4.92126 2.12082 5.14036 1.98187 5.32562L4.46766 7.31414C4.90891 7.6672 5.56316 7.52326 5.81581 7.01795L7.41329 3.82299C7.09962 3.62747 6.87775 3.29466 6.87775 2.89696C6.87775 2.28431 7.39914 1.7876 8.01206 1.7876C8.62499 1.7876 9.09646 2.28431 9.09646 2.89696C9.09646 3.29466 8.87542 3.62747 8.5612 3.82327L10.1587 7.01822C10.4113 7.52354 11.0659 7.6672 11.5068 7.31442L13.9926 5.3259C13.8778 5.14063 13.7807 4.89658 13.7807 4.67193C13.7807 4.05901 14.2772 3.56257 14.8901 3.56257C15.503 3.56257 15.9994 4.05901 15.9994 4.67193L16 4.67221Z" fill="black"/>
</svg>
