<svg width="16" height="16" viewBox="0 0 16 16" fill="none" xmlns="http://www.w3.org/2000/svg">
<path d="M0.483129 8.3934L4.82129 7.5986L2.54186 9.31317C2.28868 9.5681 2.46688 9.99799 2.82179 9.99799H8.3879C8.15046 9.33566 8.01924 8.63584 8.01924 7.91402V6.85378L5.02874 4.66933C4.43389 4.27143 3.64659 4.31817 3.10422 4.7793L0.167458 7.68857C-0.141714 7.94851 0.0832291 8.44838 0.483129 8.3934ZM14.3989 9.24568L11.882 7.98975C11.4759 7.78667 11.2197 7.37115 11.2197 6.91502V5.999H12.819L13.5219 6.56435C13.6716 6.71382 13.874 6.7988 14.0865 6.7988H14.8388C15.1162 6.7988 15.4166 6.62696 15.5511 6.35516L15.9103 5.63984C16.0445 5.36816 16.0165 5.04624 15.8353 4.80255L13.9735 2.31892C13.8213 2.11872 13.6063 2 13.3564 2H7.42039C7.24293 2 7.15546 2.21557 7.28042 2.34041L8.79754 3.5996L7.33041 4.21819C7.18345 4.29317 7.18345 4.50237 7.33041 4.57735L8.79754 5.1992L8.79729 7.91352C8.79729 9.71307 9.69682 11.3976 11.1964 12.3974C6.30767 12.5661 2.5886 13.4221 0.346663 13.919C0.143464 13.9627 0 14.144 0 14.3534C0.0229942 14.5968 0.222944 14.7968 0.466633 14.7968H12.941C14.5216 14.7968 15.9303 13.6096 15.9927 12.0275C16.0755 10.8478 15.4456 9.77055 14.3984 9.24568H14.3989ZM12.2469 3.65583L13.3901 3.94026C13.3214 4.21519 13.0777 4.41214 12.7873 4.3964C12.4619 4.38065 12.1395 4.08398 12.2469 3.65583Z" fill="black"/>
</svg>
