<svg width="16" height="16" viewBox="0 0 16 16" fill="none" xmlns="http://www.w3.org/2000/svg">
<path d="M7.81568 0.00306437C4.53127 0.100565 2 2.96403 2 6.24999V14.5001C2 14.9454 2.54063 15.1682 2.85313 14.8516L3.63283 14.2735C3.83986 14.1169 4.13283 14.1482 4.30471 14.3438L5.64847 15.8535C5.84378 16.0488 6.16004 16.0488 6.35535 15.8535L7.62474 14.4219C7.82396 14.1951 8.17537 14.1951 8.37474 14.4219L9.64444 15.8535C9.83976 16.0488 10.1563 16.0488 10.3513 15.8535L11.6951 14.3438C11.867 14.1482 12.1601 14.1169 12.367 14.2735L13.1467 14.8516C13.4592 15.1682 13.9998 14.9454 13.9998 14.5001V5.99968C14.0001 2.62403 11.2157 -0.0988115 7.81568 0.00275186V0.00306437ZM6.00003 6.99969C5.4494 6.99969 5.02815 6.55031 5.02815 5.99937C5.02815 5.44842 5.47753 4.99905 6.00003 4.99905C6.52254 4.99905 7.00004 5.44842 7.00004 5.99937C7.00004 6.55031 6.55004 6.99969 6.00003 6.99969ZM10.0001 6.99969C9.44944 6.99969 9.00006 6.55031 9.00006 5.99937C9.00006 5.44842 9.44944 4.99905 10.0001 4.99905C10.5507 4.99905 11.0001 5.44842 11.0001 5.99937C11.0001 6.55031 10.5501 6.99969 10.0001 6.99969Z" fill="black"/>
</svg>
