<svg width="16" height="16" viewBox="0 0 16 16" fill="none" xmlns="http://www.w3.org/2000/svg">
<path d="M13.4 2.60001H2.6C2.26863 2.60001 2 2.86864 2 3.20001V5.00001C2 5.33138 2.26863 5.60001 2.6 5.60001H13.4C13.7314 5.60001 14 5.33138 14 5.00001V3.20001C14 2.86864 13.7314 2.60001 13.4 2.60001Z" stroke="#C6CAD0" stroke-width="1.2" stroke-linecap="round" stroke-linejoin="round"/>
<path d="M3.2 5.60004V12.2C3.2 12.5183 3.32643 12.8235 3.55147 13.0486C3.77651 13.2736 4.08174 13.4 4.4 13.4H11.6C11.9183 13.4 12.2235 13.2736 12.4485 13.0486C12.6736 12.8235 12.8 12.5183 12.8 12.2V5.60004" stroke="#C6CAD0" stroke-width="1.2" stroke-linecap="round" stroke-linejoin="round"/>
<path d="M6.8 8H9.2" stroke="#C6CAD0" stroke-width="1.2" stroke-linecap="round" stroke-linejoin="round"/>
</svg>
