<svg width="12" height="12" viewBox="0 0 12 12" fill="none" xmlns="http://www.w3.org/2000/svg">
<g clip-path="url(#clip0_430_1273)">
<path d="M11.749 6.60576L7.46298 10.8917C7.2969 11.0605 7.07724 11.1436 6.85758 11.1436C6.63793 11.1436 6.41881 11.0598 6.25165 10.8924C5.91681 10.5576 5.91681 10.0151 6.25165 9.68029L9.07558 6.85756H0.857198C0.383864 6.85756 0 6.4745 0 6.00036C0 5.52623 0.383596 5.14317 0.85693 5.14317H9.07531L6.25192 2.31977C5.91708 1.98493 5.91708 1.44248 6.25192 1.10764C6.58676 0.772796 7.12921 0.772796 7.46405 1.10764L11.75 5.39363C12.0835 5.72981 12.0835 6.27092 11.7487 6.60576H11.749Z" fill="white"/>
</g>
<defs>
<clipPath id="clip0_430_1273">
<rect width="12" height="12" fill="white"/>
</clipPath>
</defs>
</svg>
