<svg width="16" height="16" viewBox="0 0 16 16" fill="none" xmlns="http://www.w3.org/2000/svg">
<path d="M13.0538 9.45347L8.75952 13.7477C8.59312 13.9168 8.37304 14 8.15296 14C7.93288 14 7.71334 13.9161 7.54586 13.7484L3.25162 9.45414C2.91613 9.11865 2.91613 8.57516 3.25162 8.23967C3.5871 7.90418 4.13059 7.90418 4.46608 8.23967L7.29411 11.069V2.83469C7.29411 2.35991 7.67871 2 8.12881 2C8.5789 2 9.01181 2.35991 9.01181 2.83469V11.0689L11.8406 8.24008C12.1761 7.90459 12.7196 7.90459 13.0551 8.24008C13.3906 8.57556 13.3893 9.11771 13.0538 9.4532V9.45347Z" fill="white"/>
</svg>
