<svg width="12" height="12" viewBox="0 0 12 12" fill="none" xmlns="http://www.w3.org/2000/svg">
<g clip-path="url(#clip0_430_1274)">
<path d="M10.9009 5.7604C10.7345 5.92948 10.5144 6.01268 10.2943 6.01268C10.0742 6.01268 9.85471 5.92881 9.68724 5.76107L6.85903 2.93408V11.1653C6.85903 11.6401 6.47444 12 6.02437 12C5.57429 12 5.14139 11.6404 5.14139 11.1653V2.93408L2.31346 5.76013C1.97798 6.09561 1.43451 6.09561 1.09903 5.76013C0.763558 5.42466 0.763558 4.88119 1.09903 4.54571L5.39314 0.251607C5.72861 -0.0838692 6.27209 -0.0838692 6.60756 0.251607L10.9017 4.54571C11.2363 4.88253 11.2363 5.42466 10.9009 5.76013V5.7604Z" fill="white"/>
</g>
<defs>
<clipPath id="clip0_430_1274">
<rect width="12" height="12" fill="white"/>
</clipPath>
</defs>
</svg>
