<svg width="8" height="8" viewBox="0 0 8 8" fill="none" xmlns="http://www.w3.org/2000/svg">
<g clip-path="url(#clip0_430_1355)">
<path d="M8 4.00003C8 4.31674 7.76023 4.57261 7.44352 4.57261H1.95565L3.8416 6.45856C4.06527 6.68223 4.06527 7.04457 3.8416 7.26823C3.72887 7.38007 3.58215 7.43554 3.43542 7.43554C3.2887 7.43554 3.14233 7.37962 3.03068 7.26779L0.16775 4.40486C-0.0559165 4.1812 -0.0559165 3.81886 0.16775 3.59519L3.03068 0.732264C3.25434 0.508598 3.61668 0.508598 3.84035 0.732264C4.06401 0.95593 4.06401 1.31827 3.84035 1.54194L1.95565 3.42744H7.44352C7.76023 3.42744 8 3.68331 8 4.00003Z" fill="white"/>
</g>
<defs>
<clipPath id="clip0_430_1355">
<rect width="8" height="8" fill="white"/>
</clipPath>
</defs>
</svg>
