<svg width="16" height="16" viewBox="0 0 16 16" fill="none" xmlns="http://www.w3.org/2000/svg">
<path d="M13.749 8.74925L9.46298 13.0352C9.2969 13.204 9.07724 13.287 8.85758 13.287C8.63793 13.287 8.41881 13.2033 8.25165 13.0359C7.91681 12.7011 7.91681 12.1586 8.25165 11.8238L11.0756 9.00106H2.8572C2.38386 9.00106 2 8.61799 2 8.14386C2 7.66972 2.3836 7.28666 2.85693 7.28666H11.0753L8.25192 4.46326C7.91708 4.12842 7.91708 3.58598 8.25192 3.25113C8.58676 2.91629 9.12921 2.91629 9.46405 3.25113L13.75 7.53712C14.0835 7.8733 14.0835 8.41441 13.7487 8.74925H13.749Z" fill="white"/>
</svg>
