<svg width="8" height="8" viewBox="0 0 8 8" fill="none" xmlns="http://www.w3.org/2000/svg">
<path d="M5.4 2.6H5.75C5.75 2.50717 5.71312 2.41815 5.64749 2.35251C5.58185 2.28688 5.49283 2.25 5.4 2.25V2.6ZM2.6 2.25C2.4067 2.25 2.25 2.4067 2.25 2.6C2.25 2.7933 2.4067 2.95 2.6 2.95V2.25ZM5.05 5.4C5.05 5.5933 5.2067 5.75 5.4 5.75C5.5933 5.75 5.75 5.5933 5.75 5.4H5.05ZM2.35252 5.15251C2.21583 5.2892 2.21583 5.5108 2.35252 5.64748C2.4892 5.78417 2.7108 5.78417 2.84749 5.64748L2.35252 5.15251ZM5.4 2.25H2.6V2.95H5.4V2.25ZM5.05 2.6V5.4H5.75V2.6H5.05ZM5.15252 2.35251L2.35252 5.15251L2.84749 5.64748L5.64749 2.84748L5.15252 2.35251Z" fill="black"/>
</svg>
