<svg width="8" height="8" viewBox="0 0 8 8" fill="none" xmlns="http://www.w3.org/2000/svg">
<g clip-path="url(#clip0_430_1354)">
<path d="M7.26716 4.96898L4.40433 7.83181C4.2934 7.94453 4.14668 8 3.99996 8C3.85324 8 3.70688 7.94409 3.59523 7.83226L0.732395 4.96943C0.508737 4.74577 0.508737 4.38344 0.732395 4.15978C0.956054 3.93612 1.31838 3.93612 1.54204 4.15978L3.42739 6.04603V0.556463C3.42739 0.239941 3.68379 0 3.98385 0C4.28392 0 4.57252 0.239941 4.57252 0.556463V6.04594L6.45841 4.16005C6.68207 3.93639 7.0444 3.93639 7.26806 4.16005C7.49172 4.38371 7.49082 4.74514 7.26716 4.9688V4.96898Z" fill="white"/>
</g>
<defs>
<clipPath id="clip0_430_1354">
<rect width="8" height="8" fill="white"/>
</clipPath>
</defs>
</svg>
