<svg width="12" height="12" viewBox="0 0 12 12" fill="none" xmlns="http://www.w3.org/2000/svg">
<g clip-path="url(#clip0_430_1271)">
<path d="M10.9007 7.45347L6.60649 11.7477C6.44009 11.9168 6.22001 12 5.99993 12C5.77985 12 5.56031 11.9161 5.39283 11.7484L1.09859 7.45414C0.763098 7.11865 0.763098 6.57516 1.09859 6.23967C1.43407 5.90419 1.97756 5.90419 2.31305 6.23967L5.14108 9.06904V0.834694C5.14108 0.359912 5.52568 0 5.97577 0C6.42587 0 6.85878 0.359912 6.85878 0.834694V9.06891L9.68761 6.24008C10.0231 5.90459 10.5666 5.90459 10.9021 6.24008C11.2376 6.57556 11.2362 7.11771 10.9007 7.4532V7.45347Z" fill="white"/>
</g>
<defs>
<clipPath id="clip0_430_1271">
<rect width="12" height="12" fill="white"/>
</clipPath>
</defs>
</svg>
