<svg width="16" height="16" viewBox="0 0 16 16" fill="none" xmlns="http://www.w3.org/2000/svg">
<path d="M13.0534 7.7604C12.887 7.92948 12.667 8.01268 12.4469 8.01268C12.2268 8.01268 12.0073 7.92881 11.8398 7.76107L9.01161 4.93408V13.1653C9.01161 13.6401 8.62702 14 8.17694 14C7.72687 14 7.29397 13.6404 7.29397 13.1653V4.93408L4.46603 7.76013C4.13056 8.09561 3.58708 8.09561 3.25161 7.76013C2.91613 7.42466 2.91613 6.88119 3.25161 6.54571L7.54571 2.25161C7.88119 1.91613 8.42466 1.91613 8.76013 2.25161L13.0542 6.54571C13.3889 6.88253 13.3889 7.42466 13.0534 7.76013V7.7604Z" fill="white"/>
</svg>
