<svg width="8" height="8" viewBox="0 0 8 8" fill="none" xmlns="http://www.w3.org/2000/svg">
<path d="M8 3.99999C8 4.31671 7.76023 4.57258 7.44352 4.57258H1.95565L3.8416 6.45853C4.06527 6.6822 4.06527 7.04454 3.8416 7.2682C3.72887 7.38004 3.58215 7.43551 3.43542 7.43551C3.2887 7.43551 3.14233 7.37959 3.03068 7.26776L0.16775 4.40483C-0.0559165 4.18116 -0.0559165 3.81883 0.16775 3.59516L3.03068 0.732233C3.25434 0.508567 3.61668 0.508567 3.84035 0.732233C4.06401 0.955899 4.06401 1.31824 3.84035 1.5419L1.95565 3.42741H7.44352C7.76023 3.42741 8 3.68328 8 3.99999Z" fill="#839496"/>
</svg>
