<svg width="8" height="8" viewBox="0 0 8 8" fill="none" xmlns="http://www.w3.org/2000/svg">
<path d="M7.83265 4.40382L4.97532 7.26115C4.8646 7.37365 4.71816 7.42901 4.57172 7.42901C4.42528 7.42901 4.2792 7.37321 4.16777 7.26159C3.94454 7.03836 3.94454 6.67673 4.16777 6.4535L6.05039 4.57169H0.571465C0.255909 4.57169 0 4.31631 0 4.00022C0 3.68413 0.255731 3.42876 0.571287 3.42876H6.05021L4.16795 1.54649C3.94472 1.32326 3.94472 0.961634 4.16795 0.738405C4.39117 0.515177 4.75281 0.515177 4.97603 0.738405L7.83336 3.59573C8.0557 3.81985 8.0557 4.18059 7.83247 4.40382H7.83265Z" fill="#FDF6E3"/>
</svg>
