<svg width="16" height="16" viewBox="0 0 16 16" fill="none" xmlns="http://www.w3.org/2000/svg">
<path d="M14 8.15327C14 8.62833 13.6403 9.01215 13.1653 9.01215H4.93347L7.7624 11.8411C8.0979 12.1766 8.0979 12.7201 7.7624 13.0556C7.59331 13.2233 7.37322 13.3065 7.15313 13.3065C6.93305 13.3065 6.71349 13.2227 6.54601 13.0549L2.25162 8.76052C1.91613 8.42502 1.91613 7.88151 2.25162 7.54601L6.54601 3.25162C6.88151 2.91613 7.42502 2.91613 7.76052 3.25162C8.09602 3.58712 8.09602 4.13063 7.76052 4.46613L4.93347 7.29439H13.1653C13.6403 7.29439 14 7.6782 14 8.15327Z" fill="white"/>
</svg>
