<svg width="12" height="12" viewBox="0 0 12 12" fill="none" xmlns="http://www.w3.org/2000/svg">
<g clip-path="url(#clip0_430_1272)">
<path d="M12 6.00001C12 6.47507 11.6403 6.85889 11.1653 6.85889H2.93347L5.7624 9.68781C6.0979 10.0233 6.0979 10.5668 5.7624 10.9023C5.59331 11.0701 5.37322 11.1533 5.15313 11.1533C4.93305 11.1533 4.71349 11.0694 4.54601 10.9017L0.251624 6.60726C-0.0838748 6.27176 -0.0838748 5.72825 0.251624 5.39275L4.54601 1.09837C4.88151 0.762866 5.42502 0.762866 5.76052 1.09837C6.09602 1.43386 6.09602 1.97737 5.76052 2.31287L2.93347 5.14113H11.1653C11.6403 5.14113 12 5.52494 12 6.00001Z" fill="white"/>
</g>
<defs>
<clipPath id="clip0_430_1272">
<rect width="12" height="12" fill="white"/>
</clipPath>
</defs>
</svg>
