<svg width="8" height="8" viewBox="0 0 8 8" fill="none" xmlns="http://www.w3.org/2000/svg">
<g clip-path="url(#clip0_430_1357)">
<path d="M7.26724 3.84027C7.15631 3.95299 7.0096 4.00845 6.86288 4.00845C6.71617 4.00845 6.56981 3.95254 6.45816 3.84072L4.57269 1.95605V7.44356C4.57269 7.76007 4.3163 8 4.01625 8C3.7162 8 3.4276 7.76025 3.4276 7.44356V1.95605L1.54231 3.84009C1.31866 4.06374 0.956346 4.06374 0.732695 3.84009C0.509044 3.61644 0.509044 3.25412 0.732695 3.03047L3.59543 0.167738C3.81908 -0.0559128 4.1814 -0.0559128 4.40505 0.167738L7.26778 3.03047C7.49089 3.25502 7.49089 3.61644 7.26724 3.84009V3.84027Z" fill="white"/>
</g>
<defs>
<clipPath id="clip0_430_1357">
<rect width="8" height="8" fill="white"/>
</clipPath>
</defs>
</svg>
