<svg width="12" height="12" viewBox="0 0 12 12" fill="none" xmlns="http://www.w3.org/2000/svg">
<g clip-path="url(#clip0_108_6798)">
<path d="M0.175875 5.37625C0.063375 5.48875 0 5.64063 0 5.8V8.2C0 8.35938 0.0631875 8.51163 0.175687 8.62413C0.288187 8.73663 0.440437 8.8 0.599906 8.8H1.19991V5.2H0.599906C0.440531 5.2 0.288281 5.26375 0.175687 5.37625H0.175875ZM8.70009 2.8H6.60009V1.6C6.60009 1.26962 6.33047 1 6.00009 1C5.66972 1 5.40009 1.26962 5.40009 1.6V2.8H3.30009C2.47134 2.8 1.80009 3.47125 1.80009 4.3V9.4C1.80009 10.0634 2.33672 10.6 3.00009 10.6H9.00009C9.66347 10.6 10.2001 10.0634 10.2001 9.4V4.3C10.2001 3.47125 9.53072 2.8 8.70009 2.8ZM4.80009 8.8H3.60009V8.2H4.80009V8.8ZM4.20009 6.55C3.78572 6.55 3.45009 6.21438 3.45009 5.8C3.45009 5.38563 3.78572 5.05 4.20009 5.05C4.61447 5.05 4.95009 5.38563 4.95009 5.8C4.95009 6.21438 4.61447 6.55 4.20009 6.55ZM6.60009 8.8H5.40009V8.2H6.60009V8.8ZM8.40009 8.8H7.20009V8.2H8.40009V8.8ZM7.80009 6.55C7.38534 6.55 7.05009 6.21475 7.05009 5.8C7.05009 5.38525 7.38572 5.05 7.80009 5.05C8.21447 5.05 8.55009 5.38563 8.55009 5.8C8.55009 6.21438 8.21447 6.55 7.80009 6.55ZM11.8238 5.37625C11.7113 5.26375 11.5595 5.2 11.4001 5.2H10.8001V8.8H11.4001C11.5595 8.8 11.7117 8.73672 11.8242 8.62422C11.9367 8.51172 12.0001 8.35938 12.0001 8.2V5.8C12.0001 5.64063 11.9363 5.48875 11.8238 5.37625Z" fill="#93A1A1"/>
</g>
<defs>
<clipPath id="clip0_108_6798">
<rect width="12" height="12" fill="white"/>
</clipPath>
</defs>
</svg>
