<svg width="16" height="16" viewBox="0 0 16 16" fill="none" xmlns="http://www.w3.org/2000/svg">
<g clip-path="url(#clip0_108_6801)">
<path d="M0.2345 7.16825C0.0845 7.31825 0 7.52075 0 7.73325V10.9333C0 11.1458 0.08425 11.3488 0.23425 11.4988C0.38425 11.6488 0.58725 11.7333 0.799875 11.7333H1.59987V6.93325H0.799875C0.587375 6.93325 0.384375 7.01825 0.23425 7.16825H0.2345ZM11.6001 3.73325H8.80012V2.13325C8.80012 1.69275 8.44062 1.33325 8.00012 1.33325C7.55962 1.33325 7.20012 1.69275 7.20012 2.13325V3.73325H4.40012C3.29512 3.73325 2.40012 4.62825 2.40012 5.73325V12.5333C2.40012 13.4178 3.11562 14.1333 4.00012 14.1333H12.0001C12.8846 14.1333 13.6001 13.4178 13.6001 12.5333V5.73325C13.6001 4.62825 12.7076 3.73325 11.6001 3.73325ZM6.40012 11.7333H4.80012V10.9333H6.40012V11.7333ZM5.60012 8.73325C5.04762 8.73325 4.60012 8.28575 4.60012 7.73325C4.60012 7.18075 5.04762 6.73325 5.60012 6.73325C6.15262 6.73325 6.60012 7.18075 6.60012 7.73325C6.60012 8.28575 6.15262 8.73325 5.60012 8.73325ZM8.80012 11.7333H7.20012V10.9333H8.80012V11.7333ZM11.2001 11.7333H9.60012V10.9333H11.2001V11.7333ZM10.4001 8.73325C9.84712 8.73325 9.40012 8.28625 9.40012 7.73325C9.40012 7.18025 9.84762 6.73325 10.4001 6.73325C10.9526 6.73325 11.4001 7.18075 11.4001 7.73325C11.4001 8.28575 10.9526 8.73325 10.4001 8.73325ZM15.7651 7.16825C15.6151 7.01825 15.4126 6.93325 15.2001 6.93325H14.4001V11.7333H15.2001C15.4126 11.7333 15.6156 11.6489 15.7656 11.4989C15.9156 11.3489 16.0001 11.1458 16.0001 10.9333V7.73325C16.0001 7.52075 15.9151 7.31825 15.7651 7.16825Z" fill="#93A1A1"/>
</g>
<defs>
<clipPath id="clip0_108_6801">
<rect width="16" height="16" fill="white"/>
</clipPath>
</defs>
</svg>
