<svg width="16" height="16" viewBox="0 0 16 16" fill="none" xmlns="http://www.w3.org/2000/svg">
<path d="M8.00156 10.3996C9.32705 10.3996 10.4016 9.32509 10.4016 7.99961C10.4016 6.67413 9.32705 5.59961 8.00156 5.59961C6.67608 5.59961 5.60156 6.67413 5.60156 7.99961C5.60156 9.32509 6.67608 10.3996 8.00156 10.3996Z" stroke="black" stroke-width="1.2" stroke-linecap="round" stroke-linejoin="round"/>
<path d="M10.4 5.6V8.6C10.4 9.07739 10.5896 9.53523 10.9272 9.8728C11.2648 10.2104 11.7226 10.4 12.2 10.4C12.6774 10.4 13.1352 10.2104 13.4728 9.8728C13.8104 9.53523 14 9.07739 14 8.6V8C14 6.64839 13.5436 5.33636 12.7048 4.27651C11.8661 3.21665 10.694 2.47105 9.37852 2.16051C8.06306 1.84997 6.68129 1.99269 5.45707 2.56554C4.23285 3.13838 3.23791 4.1078 2.63344 5.31672C2.02898 6.52565 1.85041 7.90325 2.12667 9.22633C2.40292 10.5494 3.11782 11.7405 4.15552 12.6065C5.19323 13.4726 6.49295 13.9629 7.84411 13.998C9.19527 14.0331 10.5187 13.611 11.6 12.8" stroke="black" stroke-width="1.2" stroke-linecap="round" stroke-linejoin="round"/>
</svg>
