<svg width="16" height="16" viewBox="0 0 16 16" fill="none" xmlns="http://www.w3.org/2000/svg">
<path d="M7.37288 4.48506L7.43539 10.6638C7.43539 10.9365 7.54373 11.1981 7.73655 11.3909C7.92938 11.5837 8.19092 11.6921 8.46362 11.6921C8.73632 11.6921 8.99785 11.5837 9.19068 11.3909C9.38351 11.1981 9.49184 10.9366 9.49184 10.6638L9.42933 4.48506C9.42933 3.93975 9.2127 3.41678 8.82711 3.03119C8.44152 2.6456 7.91855 2.42898 7.37324 2.42898C6.82794 2.42898 6.30496 2.6456 5.91937 3.03119C5.53378 3.41678 5.31716 3.93975 5.31716 4.48506L5.37968 10.6384C5.37636 11.0455 5.45368 11.4492 5.60718 11.8263C5.76067 12.2034 5.98731 12.5463 6.27401 12.8354C6.56071 13.1244 6.9018 13.3538 7.27761 13.5104C7.65341 13.667 8.0565 13.7476 8.46362 13.7476C8.87073 13.7476 9.27382 13.667 9.64963 13.5104C10.0254 13.3538 10.3665 13.1244 10.6532 12.8354C10.9399 12.5463 11.1666 12.2034 11.3201 11.8263C11.4736 11.4492 11.5509 11.0455 11.5476 10.6384L11.485 4.48506" stroke="black" stroke-width="1.2" stroke-linecap="round" stroke-linejoin="round"/>
</svg>
