<svg width="16" height="16" viewBox="0 0 16 16" fill="none" xmlns="http://www.w3.org/2000/svg">
<path d="M10.6667 6C11.003 6.44823 11.2208 6.97398 11.3001 7.52867" stroke="black" stroke-width="1.2" stroke-linecap="round" stroke-linejoin="round"/>
<path d="M12.9094 3.75732C13.7621 4.6095 14.3383 5.69876 14.5629 6.88315C14.7875 8.06754 14.6502 9.29213 14.1688 10.3973" stroke="black" stroke-width="1.2" stroke-linecap="round" stroke-linejoin="round"/>
<path d="M2.66675 2L13.6667 13" stroke="black" stroke-width="1.2" stroke-linecap="round" stroke-linejoin="round"/>
<path d="M5.33333 4.66669L4.942 5.05802C4.85494 5.1456 4.75136 5.21504 4.63726 5.2623C4.52317 5.30957 4.40083 5.33372 4.27733 5.33335H2.66667C2.48986 5.33335 2.32029 5.40359 2.19526 5.52862C2.07024 5.65364 2 5.82321 2 6.00002V10C2 10.1768 2.07024 10.3464 2.19526 10.4714C2.32029 10.5964 2.48986 10.6667 2.66667 10.6667H4.27733C4.40083 10.6663 4.52317 10.6905 4.63726 10.7377C4.75136 10.785 4.85494 10.8544 4.942 10.942L7.19733 13.198C7.26307 13.2639 7.34687 13.3088 7.43813 13.3269C7.52939 13.3451 7.62399 13.3358 7.70995 13.3002C7.79591 13.2646 7.86936 13.2042 7.921 13.1268C7.97263 13.0494 8.00013 12.9584 8 12.8654V7.33335" stroke="black" stroke-width="1.2" stroke-linecap="round" stroke-linejoin="round"/>
<path d="M7.21875 2.78136C7.28267 2.71719 7.36421 2.67345 7.45303 2.65568C7.54184 2.63791 7.63393 2.64691 7.71762 2.68154C7.80132 2.71618 7.87284 2.77488 7.92312 2.85022C7.97341 2.92555 8.0002 3.01412 8.00008 3.10469V3.56202" stroke="black" stroke-width="1.2" stroke-linecap="round" stroke-linejoin="round"/>
</svg>
