<svg width="16" height="16" viewBox="0 0 16 16" fill="none" xmlns="http://www.w3.org/2000/svg">
<path d="M2.38893 2.60654C2.33283 2.6058 2.27725 2.61737 2.2261 2.64042C2.17496 2.66347 2.12948 2.69745 2.09288 2.73996C2.05627 2.78247 2.02943 2.83249 2.01423 2.8865C1.99904 2.9405 1.99586 2.99718 2.00492 3.05254L3.63644 12.9576C3.67844 13.2076 3.89394 13.3916 4.14744 13.3941H11.975C12.0672 13.3951 12.1567 13.3631 12.2273 13.3039C12.2979 13.2446 12.345 13.1621 12.36 13.0711L13.995 3.05604C14.004 3.00072 14.0008 2.94409 13.9856 2.89015C13.9703 2.83621 13.9435 2.78626 13.9069 2.7438C13.8703 2.70134 13.8248 2.66741 13.7737 2.64439C13.7226 2.62137 13.6671 2.60982 13.611 2.61054L2.38893 2.60654ZM9.26 9.76511H6.76097L6.08496 6.23308H9.8655L9.26 9.76511Z" fill="#C6CAD0"/>
</svg>
