<svg width="8" height="8" viewBox="0 0 8 8" fill="none" xmlns="http://www.w3.org/2000/svg">
<path d="M4.76019 3.50003H6.50231C6.71012 3.50003 6.89761 3.62971 6.95698 3.82346C7.04292 4.01876 6.98823 4.23906 6.83199 4.37656L2.83214 7.87643C2.65558 8.02954 2.39731 8.04204 2.20857 7.90455C2.01967 7.76705 1.95092 7.51706 2.04295 7.30301L3.24462 4.49999H1.48844C1.29423 4.49999 1.10767 4.37031 1.0344 4.17657C0.961132 3.98126 1.01643 3.76096 1.17323 3.62346L5.17261 0.123753C5.34917 -0.0299914 5.60697 -0.0417097 5.79603 0.0954726C5.98508 0.232749 6.05383 0.482177 5.96165 0.69695L4.76013 3.49981L4.76019 3.50003Z" fill="white"/>
</svg>
