<svg width="12" height="12" viewBox="0 0 12 12" fill="none" xmlns="http://www.w3.org/2000/svg">
<path d="M7.14029 5.25005H9.75348C10.0652 5.25005 10.3464 5.44457 10.4355 5.73518C10.5644 6.02814 10.4824 6.3586 10.248 6.56484L4.24822 11.8146C3.98338 12.0443 3.59598 12.0631 3.31286 11.8568C3.02951 11.6506 2.92639 11.2756 3.06443 10.9545L4.86694 6.74999H2.23267C1.94135 6.74999 1.66152 6.55546 1.5516 6.26485C1.44171 5.97189 1.52465 5.64144 1.75986 5.43519L7.75893 0.185629C8.02376 -0.0449871 8.41046 -0.0625645 8.69405 0.143209C8.97763 0.349123 9.08075 0.723265 8.94248 1.04542L7.1402 5.24972L7.14029 5.25005Z" fill="white"/>
</svg>
