<svg width="8" height="8" viewBox="0 0 8 8" fill="none" xmlns="http://www.w3.org/2000/svg">
<g clip-path="url(#clip0_430_1350)">
<path d="M2.8102 2.0687L5.08603 0.503002C5.24987 0.364301 5.4891 0.353729 5.66454 0.477489C5.83998 0.601333 5.90377 0.826356 5.81823 1.02011L4.70325 3.54873H6.3199C6.51274 3.54873 6.68673 3.66573 6.74182 3.84051C6.82157 4.01671 6.77082 4.21546 6.62583 4.3395L6.22432 4.68222L8.0048 6.08823C8.15559 6.20381 8.18314 6.41666 8.06425 6.56325C7.94536 6.70985 7.72642 6.73663 7.57563 6.62104L0.271717 1.19061C0.120346 1.07531 0.093813 0.862748 0.212416 0.715589C0.331018 0.56843 0.54952 0.542635 0.70089 0.658079L2.8102 2.0687ZM1.37426 3.66029L1.60479 3.45167L2.89376 4.45105H1.68019C1.48735 4.45105 1.31336 4.33406 1.24521 4.15927C1.17852 3.98308 1.22927 3.78433 1.37426 3.66029ZM2.18186 6.97981L3.19534 4.68222L4.78879 5.89022L2.91406 7.49712C2.75022 7.63526 2.51099 7.64653 2.33555 7.52249C2.16011 7.39845 2.09631 7.17292 2.18186 6.97981Z" fill="white"/>
</g>
<defs>
<clipPath id="clip0_430_1350">
<rect width="8" height="8" fill="white"/>
</clipPath>
</defs>
</svg>
