<svg width="16" height="16" viewBox="0 0 16 16" fill="none" xmlns="http://www.w3.org/2000/svg">
<path fill-rule="evenodd" clip-rule="evenodd" d="M9.48836 2.06572C9.62447 2.1282 9.73467 2.23101 9.80181 2.35814C9.86896 2.48527 9.88927 2.62958 9.8596 2.76863L9.10795 6.28572H12.8525C12.9843 6.28571 13.1133 6.32112 13.2242 6.38774C13.335 6.45435 13.4231 6.54936 13.4779 6.66146C13.5326 6.77354 13.5518 6.89799 13.5331 7.01997C13.5143 7.14197 13.4585 7.25635 13.3722 7.34951L7.41396 13.7785C7.31457 13.8856 7.18007 13.959 7.03146 13.9872C6.88284 14.0153 6.72841 13.9968 6.59222 13.9344C6.45604 13.872 6.34575 13.7693 6.27851 13.6421C6.21127 13.515 6.19086 13.3707 6.22048 13.2316L6.97213 9.71452H3.22758C3.0958 9.71453 2.96679 9.67912 2.85591 9.61251C2.74505 9.54589 2.65697 9.45088 2.60221 9.33879C2.54744 9.22671 2.52829 9.10225 2.54702 8.98027C2.56575 8.85827 2.62157 8.7439 2.70784 8.65074L8.66611 2.22173C8.76554 2.1145 8.90011 2.04105 9.04884 2.01284C9.19758 1.98462 9.3521 2.00321 9.48836 2.06572Z" fill="black"/>
</svg>
