<svg width="16" height="16" viewBox="0 0 16 16" fill="none" xmlns="http://www.w3.org/2000/svg">
<path d="M9.33035 7.12505H12.3791C12.7427 7.12505 13.0708 7.352 13.1747 7.69105C13.3251 8.03283 13.2294 8.41836 12.956 8.65898L5.95626 14.7837C5.64728 15.0517 5.19531 15.0736 4.86501 14.833C4.53443 14.5923 4.41413 14.1549 4.57517 13.7803L6.6781 8.87499H3.60478C3.26491 8.87499 2.93844 8.64804 2.8102 8.30899C2.68199 7.96721 2.77876 7.58168 3.05317 7.34106L10.0521 1.21657C10.3611 0.947515 10.8122 0.927008 11.1431 1.16708C11.4739 1.40731 11.5942 1.84381 11.4329 2.21966L9.33024 7.12467L9.33035 7.12505Z" fill="white"/>
</svg>
