<svg width="12" height="12" viewBox="0 0 12 12" fill="none" xmlns="http://www.w3.org/2000/svg">
<path d="M7.01442 5.33285H9.33914C9.61643 5.33285 9.86663 5.5059 9.94586 5.76443C10.0605 6.02505 9.98756 6.31903 9.77906 6.50251L4.4416 11.1728C4.206 11.3771 3.86136 11.3938 3.6095 11.2103C3.35743 11.0268 3.26569 10.6932 3.38849 10.4076L4.99202 6.66722H2.64855C2.38939 6.66722 2.14044 6.49417 2.04266 6.23563C1.9449 5.97501 2.01868 5.68104 2.22793 5.49756L7.56476 0.827491C7.80036 0.622333 8.14438 0.606695 8.39666 0.789754C8.64894 0.972937 8.74067 1.30578 8.61766 1.59237L7.01434 5.33256L7.01442 5.33285Z" fill="white"/>
</svg>
