<svg width="16" height="16" viewBox="0 0 16 16" fill="none" xmlns="http://www.w3.org/2000/svg">
<path d="M5.42392 5.20324L10.1066 1.21711C10.4244 0.948067 10.8885 0.92756 11.2288 1.16762C11.5691 1.40784 11.6928 1.84432 11.5269 2.22016L9.36412 7.12497H12.5C12.874 7.12497 13.2115 7.35191 13.3184 7.69094C13.4731 8.03271 13.3746 8.41823 13.0934 8.65883L11.6112 9.91928L15.5 13C15.7925 13.2242 15.8459 13.6371 15.6153 13.9214C15.3847 14.2058 14.96 14.2577 14.6675 14.0335L0.499984 3.5C0.206368 3.27635 0.1549 2.86403 0.384956 2.57859C0.615012 2.29314 1.03884 2.24311 1.33246 2.46703L5.42392 5.20324ZM2.90681 7.34135L3.35399 6.9367L5.85423 8.87522H3.50023C3.12618 8.87522 2.78869 8.64828 2.65651 8.30924C2.52714 7.96747 2.62557 7.58196 2.90681 7.34135ZM4.47333 13.7803L6.43921 9.32362L9.53006 11.6668L5.8936 14.7837C5.5758 15.0517 5.11175 15.0736 4.77144 14.8329C4.43114 14.5923 4.3074 14.1549 4.47333 13.7803Z" fill="white"/>
</svg>
