<svg width="12" height="12" viewBox="0 0 12 12" fill="none" xmlns="http://www.w3.org/2000/svg">
<g clip-path="url(#clip0_430_1336)">
<path fill-rule="evenodd" clip-rule="evenodd" d="M7.01443 5.33285H9.33914C9.61644 5.33285 9.86663 5.5059 9.94586 5.76443C10.0605 6.02505 9.98756 6.31903 9.77906 6.50251L9.11489 7.08366L11.4605 8.90799C11.7874 9.16229 11.8463 9.6335 11.592 9.96045C11.3377 10.2874 10.8665 10.3463 10.5395 10.092L1.53955 3.09201C1.21259 2.83771 1.15369 2.3665 1.40799 2.03954C1.66229 1.71258 2.1335 1.65368 2.46046 1.90799L4.50911 3.50138L7.56477 0.827491C7.80037 0.622333 8.14438 0.606695 8.39666 0.789754C8.64894 0.972937 8.74068 1.30578 8.61767 1.59237L7.01434 5.33256L7.01443 5.33285ZM2.88883 4.91923L7.49455 8.50146L4.4416 11.1728C4.206 11.3771 3.86136 11.3938 3.6095 11.2103C3.35743 11.0268 3.26569 10.6932 3.3885 10.4076L4.99203 6.66722H2.64855C2.38939 6.66722 2.14045 6.49416 2.04266 6.23563C1.9449 5.97501 2.01869 5.68104 2.22793 5.49756L2.88883 4.91923Z" fill="white"/>
</g>
<defs>
<clipPath id="clip0_430_1336">
<rect width="12" height="12" fill="white"/>
</clipPath>
</defs>
</svg>
