<svg width="12" height="12" viewBox="0 0 12 12" fill="none" xmlns="http://www.w3.org/2000/svg">
<path d="M6.75776 5.50003H8.49988C8.70769 5.50003 8.89518 5.62971 8.95455 5.82346C9.04049 6.01876 8.9858 6.23906 8.82956 6.37656L4.82971 9.87643C4.65315 10.0295 4.39488 10.042 4.20614 9.90455C4.01724 9.76705 3.94849 9.51706 4.04052 9.30301L5.24219 6.49999H3.48601C3.2918 6.49999 3.10524 6.37031 3.03197 6.17657C2.9587 5.98126 3.014 5.76096 3.1708 5.62346L7.17018 2.12375C7.34674 1.97001 7.60454 1.95829 7.7936 2.09547C7.98265 2.23275 8.0514 2.48218 7.95922 2.69695L6.75776 5.50003Z" fill="black"/>
</svg>
