<svg width="8" height="8" viewBox="0 0 8 8" fill="none" xmlns="http://www.w3.org/2000/svg">
<g clip-path="url(#clip0_702_132)">
<path fill-rule="evenodd" clip-rule="evenodd" d="M4.67628 3.55525H6.22609C6.41096 3.55525 6.57775 3.67062 6.63057 3.84298C6.70702 4.01672 6.65837 4.21271 6.51937 4.33502L6.07659 4.72246L7.6403 5.93868C7.85828 6.10821 7.89754 6.42235 7.72801 6.64032C7.55847 6.8583 7.24434 6.89756 7.02636 6.72803L1.02636 2.06136C0.808388 1.89183 0.769121 1.57769 0.938656 1.35972C1.10819 1.14174 1.42233 1.10248 1.6403 1.27201L3.00607 2.33428L5.04318 0.551681C5.20024 0.414909 5.42959 0.404484 5.59777 0.526523C5.76596 0.648645 5.82712 0.870539 5.74511 1.0616L4.67622 3.55506L4.67628 3.55525ZM3.25023 4.62627L4.80474 5.83533L2.96106 7.44854C2.804 7.58476 2.57424 7.59588 2.40633 7.47356C2.23828 7.35125 2.17713 7.12885 2.25899 6.93843L3.25023 4.62627ZM1.73426 3.44719L3.01695 4.44483H1.7657C1.59292 4.44483 1.42696 4.32946 1.36177 4.15711C1.2966 3.98336 1.34579 3.78738 1.48528 3.66506L1.73426 3.44719Z" fill="white"/>
</g>
<defs>
<clipPath id="clip0_702_132">
<rect width="8" height="8" fill="white"/>
</clipPath>
</defs>
</svg>
