<svg width="12" height="12" viewBox="0 0 12 12" fill="none" xmlns="http://www.w3.org/2000/svg">
<path d="M4.00788 3.83701L7.62903 0.754503C7.87479 0.546451 8.23364 0.530593 8.4968 0.716233C8.75996 0.901999 8.85565 1.23953 8.72734 1.53017L7.05487 5.3231H9.47984C9.7691 5.3231 10.0301 5.49859 10.1127 5.76077C10.2323 6.02506 10.1562 6.32318 9.93874 6.50925L8.79258 7.48396L11.7998 9.86631C12.026 10.0397 12.0673 10.3589 11.889 10.5788C11.7106 10.7987 11.3822 10.8389 11.156 10.6655L0.200158 2.51988C-0.0268974 2.34693 -0.0666975 2.02808 0.111206 1.80735C0.28911 1.58661 0.616862 1.54792 0.843918 1.72108L4.00788 3.83701ZM2.06138 5.49043L2.40718 5.17751L4.34064 6.67658H2.52027C2.23102 6.67658 1.97003 6.50109 1.86782 6.23891C1.76777 5.97461 1.84389 5.67649 2.06138 5.49043ZM3.27278 10.4697L4.79301 7.02333L7.18318 8.83533L4.37108 11.2457C4.12532 11.4529 3.76647 11.4698 3.50331 11.2837C3.24015 11.0977 3.14446 10.7594 3.27278 10.4697Z" fill="white"/>
</svg>
