<svg width="16" height="16" viewBox="0 0 16 16" fill="none" xmlns="http://www.w3.org/2000/svg">
<path d="M11.0885 2.44067C11.4162 2.44067 11.7304 2.57083 11.9621 2.80251C12.1938 3.0342 12.3239 3.34843 12.3239 3.67607V12.9416C12.3239 13.0498 12.2954 13.156 12.2414 13.2497C12.1874 13.3435 12.1098 13.4214 12.0162 13.4757C11.9227 13.53 11.8165 13.5587 11.7083 13.5591C11.6001 13.5594 11.4938 13.5314 11.3998 13.4777L8.61278 11.8853C8.42615 11.7787 8.21495 11.7226 8.00002 11.7226C7.78509 11.7226 7.57389 11.7787 7.38726 11.8853L4.6002 13.4777C4.50627 13.5314 4.3999 13.5594 4.29173 13.5591C4.18356 13.5587 4.07738 13.53 3.98382 13.4757C3.89026 13.4214 3.81259 13.3435 3.75859 13.2497C3.70459 13.156 3.67615 13.0498 3.67612 12.9416V3.67607C3.67612 3.34843 3.80627 3.0342 4.03796 2.80251C4.26964 2.57083 4.58387 2.44067 4.91152 2.44067H11.0885Z" stroke="#C6CAD0" stroke-width="1.11186" stroke-linecap="round" stroke-linejoin="round"/>
<path opacity="0.12" d="M11.0885 2.44067C11.4162 2.44067 11.7304 2.57083 11.9621 2.80251C12.1938 3.0342 12.3239 3.34843 12.3239 3.67607V12.9416C12.3239 13.0498 12.2954 13.156 12.2414 13.2497C12.1874 13.3435 12.1098 13.4214 12.0162 13.4757C11.9227 13.53 11.8165 13.5587 11.7083 13.5591C11.6001 13.5594 11.4938 13.5314 11.3998 13.4777L8.61278 11.8853C8.42615 11.7787 8.21495 11.7226 8.00002 11.7226C7.78509 11.7226 7.57389 11.7787 7.38726 11.8853L4.6002 13.4777C4.50627 13.5314 4.3999 13.5594 4.29173 13.5591C4.18356 13.5587 4.07738 13.53 3.98382 13.4757C3.89026 13.4214 3.81259 13.3435 3.75859 13.2497C3.70459 13.156 3.67615 13.0498 3.67612 12.9416V3.67607C3.67612 3.34843 3.80627 3.0342 4.03796 2.80251C4.26964 2.57083 4.58387 2.44067 4.91152 2.44067H11.0885Z" fill="#C6CAD0" stroke="#C6CAD0" stroke-width="1.11186" stroke-linecap="round" stroke-linejoin="round"/>
</svg>
