<svg width="16" height="16" viewBox="0 0 16 16" fill="none" xmlns="http://www.w3.org/2000/svg">
<path d="M11.8644 1.04416C12.2744 1.04416 12.6675 1.20702 12.9574 1.4969C13.2473 1.78679 13.4101 2.17996 13.4101 2.5899V14.183C13.4101 14.3184 13.3744 14.4513 13.3069 14.5685C13.2393 14.6859 13.1422 14.7833 13.0251 14.8513C12.9081 14.9192 12.7752 14.9551 12.6399 14.9556C12.5045 14.956 12.3715 14.921 12.2539 14.8538L8.76673 12.8614C8.53321 12.728 8.26896 12.6578 8.00004 12.6578C7.73111 12.6578 7.46686 12.728 7.23334 12.8614L3.74615 14.8538C3.62863 14.921 3.49553 14.956 3.36019 14.9556C3.22485 14.9551 3.092 14.9192 2.97493 14.8513C2.85787 14.7833 2.76069 14.6859 2.69312 14.5685C2.62556 14.4513 2.58997 14.3184 2.58994 14.183V2.5899C2.58994 2.17996 2.75278 1.78679 3.04267 1.4969C3.33255 1.20702 3.72572 1.04416 4.13568 1.04416H11.8644Z" fill="#C6CAD0"/>
</svg>
