<svg width="16" height="16" viewBox="0 0 16 16" fill="none" xmlns="http://www.w3.org/2000/svg">
<path d="M13.3996 5.59852C13.3994 5.3881 13.3439 5.18144 13.2386 4.99926C13.1333 4.81709 12.9819 4.66581 12.7997 4.56059L8.59996 2.16076C8.41755 2.05544 8.21063 2 8 2C7.78937 2 7.58246 2.05544 7.40004 2.16076L3.20033 4.56059C3.0181 4.66581 2.86674 4.81709 2.76144 4.99926C2.65613 5.18144 2.60059 5.3881 2.60037 5.59852V10.3982C2.60059 10.6086 2.65613 10.8153 2.76144 10.9975C2.86674 11.1796 3.0181 11.3309 3.20033 11.4361L7.40004 13.836C7.58246 13.9413 7.78937 13.9967 8 13.9967C8.21063 13.9967 8.41755 13.9413 8.59996 13.836L12.7997 11.4361C12.9819 11.3309 13.1333 11.1796 13.2386 10.9975C13.3439 10.8153 13.3994 10.6086 13.3996 10.3982V5.59852Z" stroke="white" stroke-width="1.2" stroke-linecap="round" stroke-linejoin="round"/>
<path d="M2.78033 4.99857L7.99998 7.99836L13.2196 4.99857" stroke="white" stroke-width="1.2" stroke-linecap="round" stroke-linejoin="round"/>
<path d="M8 13.9979V7.99829" stroke="white" stroke-width="1.2" stroke-linecap="round" stroke-linejoin="round"/>
</svg>
