<svg width="16" height="16" viewBox="0 0 16 16" fill="none" xmlns="http://www.w3.org/2000/svg">
<path d="M8 14.0043V8.59991" stroke="#C6CAD0" stroke-width="1.20097" stroke-linecap="round" stroke-linejoin="round"/>
<path d="M9.9035 2.12072C10.0531 2.0371 10.2216 1.99319 10.3929 1.99319C10.5642 1.99319 10.7327 2.0371 10.8823 2.12072L13.4043 3.53786C13.5829 3.63887 13.7315 3.78548 13.8349 3.96272C13.9383 4.13997 13.9928 4.34148 13.9928 4.54668C13.9928 4.75187 13.9383 4.95339 13.8349 5.13063C13.7315 5.30787 13.5829 5.45449 13.4043 5.55549L6.09043 9.67481C5.94043 9.76037 5.77072 9.80537 5.59804 9.80537C5.42535 9.80537 5.25564 9.76037 5.10564 9.67481L2.59562 8.25767C2.417 8.15666 2.2684 8.01005 2.16501 7.83281C2.06162 7.65556 2.00714 7.45405 2.00714 7.24885C2.00714 7.04366 2.06162 6.84214 2.16501 6.6649C2.2684 6.48766 2.417 6.34104 2.59562 6.24004L9.9035 2.12072Z" stroke="#C6CAD0" stroke-width="1.20097" stroke-linecap="round" stroke-linejoin="round"/>
<path d="M12.8038 8.59991V10.9238C12.8041 11.1504 12.742 11.3728 12.6245 11.5666C12.507 11.7604 12.3384 11.9181 12.1373 12.0227L8.53441 13.8722C8.36933 13.958 8.18602 14.0027 7.99998 14.0027C7.81394 14.0027 7.63063 13.958 7.46555 13.8722L3.86264 12.0227C3.66153 11.9181 3.493 11.7604 3.37546 11.5666C3.25791 11.3728 3.19587 11.1504 3.19611 10.9238V8.59991" stroke="#C6CAD0" stroke-width="1.20097" stroke-linecap="round" stroke-linejoin="round"/>
<path d="M13.4043 8.25766C13.5829 8.15666 13.7315 8.01004 13.8349 7.8328C13.9383 7.65556 13.9928 7.45404 13.9928 7.24885C13.9928 7.04365 13.9383 6.84213 13.8349 6.66489C13.7315 6.48765 13.5829 6.34103 13.4043 6.24003L6.09644 2.11471C5.94745 2.02938 5.77874 1.9845 5.60704 1.9845C5.43535 1.9845 5.26664 2.02938 5.11765 2.11471L2.59562 3.53785C2.417 3.63886 2.2684 3.78547 2.16501 3.96271C2.06162 4.13996 2.00714 4.34147 2.00714 4.54667C2.00714 4.75186 2.06162 4.95338 2.16501 5.13062C2.2684 5.30786 2.417 5.45448 2.59562 5.55548L9.90951 9.6748C10.0584 9.76036 10.2272 9.80538 10.3989 9.80538C10.5706 9.80538 10.7394 9.76036 10.8883 9.6748L13.4043 8.25766Z" stroke="#C6CAD0" stroke-width="1.20097" stroke-linecap="round" stroke-linejoin="round"/>
</svg>
