<?xml version="1.0" encoding="UTF-8"?>
<svg xmlns="http://www.w3.org/2000/svg" xmlns:xlink="http://www.w3.org/1999/xlink" width="12px" height="12px" viewBox="0 0 12 12" version="1.1">
<g id="surface1">
<path style=" stroke:none;fill-rule:nonzero;fill:rgb(47.058824%,49.019608%,52.941176%);fill-opacity:1;" d="M 2.976562 2.746094 L 4.226562 2.746094 L 6.105469 9.296875 L 5.285156 9.296875 L 4.804688 7.640625 L 2.386719 7.640625 L 1.914062 9.296875 L 1.097656 9.296875 Z M 4.621094 6.917969 L 3.640625 3.449219 L 3.5625 3.449219 L 2.582031 6.917969 Z M 4.621094 6.917969 "/>
<path style=" stroke:none;fill-rule:evenodd;fill:rgb(47.058824%,49.019608%,52.941176%);fill-opacity:1;" d="M 2.878906 2.617188 L 4.324219 2.617188 L 6.277344 9.425781 L 5.191406 9.425781 L 4.707031 7.769531 L 2.484375 7.769531 L 2.011719 9.425781 L 0.925781 9.425781 Z M 3.601562 3.785156 L 2.75 6.789062 L 4.453125 6.789062 Z M 3.601562 3.785156 "/>
<path style=" stroke:none;fill-rule:evenodd;fill:rgb(47.058824%,49.019608%,52.941176%);fill-opacity:1;" d="M 7.285156 9.378906 L 7.28125 9.378906 C 7.03125 9.277344 6.851562 9.101562 6.738281 8.859375 L 6.738281 8.855469 C 6.636719 8.621094 6.59375 8.296875 6.59375 7.894531 C 6.59375 7.421875 6.660156 7.035156 6.8125 6.757812 C 6.964844 6.464844 7.21875 6.265625 7.5625 6.152344 C 7.90625 6.039062 8.375 5.980469 8.96875 5.980469 L 9.75 5.980469 L 9.75 5.867188 C 9.75 5.605469 9.71875 5.417969 9.65625 5.292969 L 9.65625 5.289062 C 9.605469 5.175781 9.519531 5.09375 9.378906 5.039062 C 9.238281 4.984375 9.023438 4.949219 8.726562 4.949219 C 8.535156 4.949219 8.378906 4.964844 8.253906 4.988281 C 8.128906 5.011719 8.046875 5.042969 8 5.082031 L 7.996094 5.082031 C 7.902344 5.144531 7.832031 5.285156 7.820312 5.554688 L 7.8125 5.675781 L 6.746094 5.675781 L 6.746094 5.546875 C 6.746094 5.164062 6.804688 4.851562 6.925781 4.625 C 7.054688 4.382812 7.273438 4.21875 7.5625 4.128906 C 7.847656 4.03125 8.238281 3.984375 8.726562 3.984375 C 9.238281 3.984375 9.640625 4.039062 9.933594 4.148438 C 10.242188 4.261719 10.464844 4.464844 10.589844 4.75 C 10.714844 5.027344 10.773438 5.402344 10.773438 5.867188 L 10.773438 9.429688 L 9.78125 9.429688 L 9.78125 8.964844 C 9.644531 9.140625 9.488281 9.269531 9.316406 9.355469 C 9.078125 9.472656 8.730469 9.523438 8.289062 9.523438 C 7.871094 9.523438 7.53125 9.480469 7.285156 9.378906 Z M 8.058594 7.039062 C 7.914062 7.085938 7.816406 7.167969 7.753906 7.277344 C 7.699219 7.386719 7.664062 7.558594 7.664062 7.808594 C 7.664062 8.132812 7.730469 8.3125 7.824219 8.398438 C 7.921875 8.480469 8.132812 8.542969 8.496094 8.542969 C 8.84375 8.542969 9.097656 8.488281 9.261719 8.394531 C 9.421875 8.296875 9.546875 8.136719 9.621094 7.894531 C 9.691406 7.671875 9.734375 7.351562 9.742188 6.929688 L 8.777344 6.9375 C 8.460938 6.945312 8.222656 6.980469 8.0625 7.035156 Z M 8.058594 7.039062 "/>
</g>
</svg>
