<svg xmlns="http://www.w3.org/2000/svg" width="16" height="16" fill="none"><path fill="#000" fill-rule="evenodd" d="M4.407 4h1.78l2.408 8.39H7.256l-.596-2.04H3.92l-.582 2.04H2L4.407 4Zm.89 1.44-1.05 3.7h2.1l-1.05-3.7ZM9.852 12.332h-.005a1.228 1.228 0 0 1-.669-.64v-.005C9.053 11.4 9 11 9 10.503c0-.582.082-1.059.27-1.4.187-.362.5-.607.924-.747.423-.14 1.001-.211 1.733-.211h.962v-.14c0-.323-.038-.554-.115-.708v-.005a.575.575 0 0 0-.342-.308c-.173-.067-.438-.11-.804-.11-.236 0-.428.019-.582.048-.154.029-.255.067-.313.115h-.005c-.115.077-.202.25-.216.583l-.01.149H9.188V7.61c0-.472.072-.857.221-1.136.159-.298.429-.5.785-.611.351-.12.832-.178 1.434-.178.63 0 1.127.067 1.488.202.38.14.654.39.808.741.154.342.226.804.226 1.377v4.39h-1.222v-.573a1.676 1.676 0 0 1-.573.481c-.294.145-.722.207-1.266.207-.515 0-.934-.053-1.237-.178Zm.953-2.883a.638.638 0 0 0-.375.294c-.068.134-.111.346-.111.654 0 .4.082.621.197.727.12.101.38.178.828.178.429 0 .742-.067.944-.183.197-.12.351-.317.442-.616.087-.274.14-.669.15-1.189l-1.19.01c-.39.01-.683.053-.88.12l-.005.005Z" clip-rule="evenodd"/></svg>
