<svg width="8" height="8" viewBox="0 0 8 8" fill="none" xmlns="http://www.w3.org/2000/svg">
<g clip-path="url(#clip0_430_1376)">
<path d="M4 0C1.79063 0 0 1.79063 0 4C0 6.20937 1.79063 8 4 8C6.20937 8 8 6.20937 8 4C8 1.79063 6.20937 0 4 0ZM5.98125 3.84531C5.94219 3.93906 5.85156 4 5.75 4H4.75V5.5C4.75 5.77609 4.52609 6 4.25 6H3.75C3.47391 6 3.25 5.77609 3.25 5.5V4H2.25C2.14844 4 2.05781 3.93906 2.01875 3.84531C1.97969 3.75156 2.00156 3.64531 2.07344 3.57344L3.82344 1.82344C3.92094 1.72578 4.07938 1.72578 4.17688 1.82344L5.92688 3.57344C5.99844 3.64531 6.02031 3.75156 5.98125 3.84531Z" fill="white"/>
</g>
<defs>
<clipPath id="clip0_430_1376">
<rect width="8" height="8" fill="white"/>
</clipPath>
</defs>
</svg>
