<svg width="16" height="16" viewBox="0 0 16 16" fill="none" xmlns="http://www.w3.org/2000/svg">
<path d="M8 1C4.13359 1 1 4.13359 1 8C1 11.8664 4.13359 15 8 15C11.8664 15 15 11.8664 15 8C15 4.13359 11.8664 1 8 1ZM11.4672 7.7293C11.3988 7.89336 11.2402 8 11.0625 8H9.3125V10.625C9.3125 11.1082 8.92066 11.5 8.4375 11.5H7.5625C7.07934 11.5 6.6875 11.1082 6.6875 10.625V8H4.9375C4.75977 8 4.60117 7.89336 4.53281 7.7293C4.46445 7.56523 4.50273 7.3793 4.62852 7.25352L7.69102 4.19102C7.86164 4.02012 8.13891 4.02012 8.30953 4.19102L11.372 7.25352C11.4973 7.3793 11.5355 7.56523 11.4672 7.7293Z" fill="white"/>
</svg>
