<svg width="16" height="16" viewBox="0 0 16 16" fill="none" xmlns="http://www.w3.org/2000/svg">
<path d="M8 2.5C11.0376 2.5 13.5 4.96243 13.5 8C13.5 11.0376 11.0376 13.5 8 13.5C4.96243 13.5 2.5 11.0376 2.5 8C2.5 4.96243 4.96243 2.5 8 2.5ZM10.6699 5.37598C10.1196 5.06178 9.40923 5.20902 9.0332 5.73535L7.17188 8.33887L6.6416 7.98633L6.62207 7.97461L6.55566 7.93457L6.54395 7.92676L6.53125 7.91992C6.00582 7.64262 5.35445 7.7754 4.97949 8.23633L4.9082 8.33301C4.55035 8.87107 4.66306 9.58687 5.15234 9.99023L5.16211 9.99805L5.17188 10.0049L5.2334 10.0508L5.25488 10.0664L6.79297 11.0918C7.35476 11.4663 8.11112 11.3257 8.50293 10.7783H8.50391L11.0684 7.18848V7.1875C11.4684 6.62649 11.3395 5.84687 10.7783 5.44531V5.44434L10.6699 5.37598Z" fill="black" stroke="black"/>
</svg>
