<svg width="12" height="12" viewBox="0 0 12 12" fill="none" xmlns="http://www.w3.org/2000/svg">
<g clip-path="url(#clip0_430_1287)">
<path d="M6 0C2.68594 0 0 2.68594 0 6C0 9.31406 2.68594 12 6 12C9.31406 12 12 9.31406 12 6C12 2.68594 9.31406 0 6 0ZM8.97187 5.76797C8.91328 5.90859 8.77734 6 8.625 6H7.125V8.25C7.125 8.66414 6.78914 9 6.375 9H5.625C5.21086 9 4.875 8.66414 4.875 8.25V6H3.375C3.22266 6 3.08672 5.90859 3.02812 5.76797C2.96953 5.62734 3.00234 5.46797 3.11016 5.36016L5.73516 2.73516C5.88141 2.58867 6.11906 2.58867 6.26531 2.73516L8.89031 5.36016C8.99766 5.46797 9.03047 5.62734 8.97187 5.76797Z" fill="white"/>
</g>
<defs>
<clipPath id="clip0_430_1287">
<rect width="12" height="12" fill="white"/>
</clipPath>
</defs>
</svg>
