<svg xmlns="http://www.w3.org/2000/svg" width="16" height="16" fill="none"><path stroke="#000" stroke-linecap="round" stroke-linejoin="round" stroke-width="1.5" d="M8.001 9v4l-2-2M8.001 13l2-2"/><path stroke="#000" stroke-linecap="round" stroke-linejoin="round" stroke-width="1.5" d="M3.436 10.389a4.215 4.215 0 0 1-1.424-3.484 4.227 4.227 0 0 1 1.92-3.236 4.19 4.19 0 0 1 5.335.665 4.22 4.22 0 0 1 .96 1.677H11.3c.584 0 1.151.19 1.618.54a2.71 2.71 0 0 1 .913 3.116A2.709 2.709 0 0 1 12.762 11"/></svg>
