<svg width="12" height="12" viewBox="0 0 12 12" fill="none" xmlns="http://www.w3.org/2000/svg">
<path d="M1.80375 4.95186C1.80131 4.90124 1.8 4.85061 1.8 4.79999C1.8 3.14249 3.1425 1.79999 4.8 1.79999C5.91188 1.79999 6.88125 2.40468 7.40063 3.30374C7.68563 3.09561 8.03063 2.99999 8.4 2.99999C9.39375 2.99999 10.2 3.78936 10.2 4.79999C10.2 5.02874 10.1569 5.24624 10.08 5.44874C11.175 5.66999 12 6.63936 12 7.79999C12 9.12561 10.9256 10.2 9.6 10.2H2.7C1.20881 10.2 0 8.99061 0 7.49999C0 6.32249 0.753187 5.32124 1.80375 4.95186Z" fill="white"/>
</svg>
