<svg width="8" height="8" viewBox="0 0 8 8" fill="none" xmlns="http://www.w3.org/2000/svg">
<path d="M1.2025 3.30126C1.20087 3.26751 1.2 3.23376 1.2 3.20001C1.2 2.09501 2.095 1.20001 3.2 1.20001C3.94125 1.20001 4.5875 1.60314 4.93375 2.20251C5.12375 2.06376 5.35375 2.00001 5.6 2.00001C6.2625 2.00001 6.8 2.52626 6.8 3.20001C6.8 3.35251 6.77125 3.49751 6.72 3.63251C7.45 3.78001 8 4.42626 8 5.20001C8 6.08376 7.28375 6.80001 6.4 6.80001H1.8C0.805875 6.80001 0 5.99376 0 5.00001C0 4.21501 0.502125 3.54751 1.2025 3.30126Z" fill="white"/>
</svg>
