<svg width="8" height="8" viewBox="0 0 8 8" fill="none" xmlns="http://www.w3.org/2000/svg">
<g clip-path="url(#clip0_430_1352)">
<path d="M1.73261 1.8415C2.0976 1.44713 2.62009 1.20014 3.20007 1.20014C3.9413 1.20014 4.58753 1.60325 4.93377 2.20261C5.12376 2.06387 5.35376 2.00012 5.6 2.00012C6.26248 2.00012 6.79997 2.52635 6.79997 3.20008C6.79997 3.35258 6.77122 3.49757 6.71997 3.63257C7.44995 3.78007 7.99993 4.4263 7.99993 5.20002C7.99993 5.65751 7.80744 6.07 7.48869 6.35124L7.88493 6.66373C8.01493 6.76623 8.03868 6.95497 7.93618 7.08497C7.83368 7.21496 7.64494 7.23871 7.51494 7.13622L0.115037 1.33626C-0.0154588 1.23402 -0.0383331 1.04552 0.0639139 0.915025C0.166161 0.784529 0.35453 0.761655 0.485114 0.863902L1.73245 1.84125L1.73261 1.8415ZM1.21475 2.95759L6.09249 6.79998H1.80011C0.806017 6.79998 0.000165731 5.99375 0.000165731 5.00003C0.000165731 4.21505 0.502276 3.54757 1.20263 3.30133C1.20101 3.26758 1.20013 3.23383 1.20013 3.20008C1.20013 3.11759 1.20513 3.03634 1.21475 2.95759Z" fill="white"/>
</g>
<defs>
<clipPath id="clip0_430_1352">
<rect width="8" height="8" fill="white"/>
</clipPath>
</defs>
</svg>
