<svg width="16" height="16" viewBox="0 0 16 16" fill="none" xmlns="http://www.w3.org/2000/svg">
<path d="M7.99947 2.00001C7.15863 1.99826 6.32573 2.16261 5.54858 2.48364C4.77144 2.80466 4.06536 3.27604 3.4709 3.87071C2.87644 4.46537 2.40529 5.1716 2.08452 5.94885C1.76376 6.7261 1.59968 7.55906 1.60172 8.39989C1.60172 9.6017 1.94029 10.7806 2.57906 11.7995L7.91309 4.90217C7.95148 4.85311 8.04692 4.85311 8.08531 4.90217L10.313 7.78246H8.71767L8.75233 7.90989H10.4122L10.8824 8.51666H8.92348L8.9784 8.71608H11.0365L11.4508 9.25087H9.12716L9.19914 9.5084H11.6481L12.0187 9.98507H9.33244L9.42042 10.2991H12.2602L12.5849 10.7177H9.53665L9.63369 11.0642H12.8531L13.1527 11.4519H9.74193L9.83951 11.7984H13.4209C14.0594 10.7799 14.3982 9.60205 14.3983 8.39989C14.4001 7.55903 14.2359 6.72608 13.9149 5.94885C13.594 5.17163 13.1228 4.46543 12.5283 3.8708C11.9337 3.27616 11.2276 2.8048 10.4504 2.48376C9.67326 2.16272 8.84033 1.99833 7.99947 2.00001ZM9.94774 12.1861L10.0448 12.5327H12.8846C12.9768 12.4239 13.0728 12.3018 13.1581 12.1861H9.94774ZM10.153 12.9203L10.249 13.2669H12.1488C12.273 13.1613 12.4073 13.0386 12.5284 12.9203H10.153ZM10.3572 13.6545L10.4543 14H11.0957C11.2855 13.8912 11.4609 13.7803 11.6513 13.6545H10.3572Z" fill="#C6CAD0"/>
</svg>
