<svg xmlns="http://www.w3.org/2000/svg" width="16" height="16" fill="none"><path stroke="#000" stroke-linecap="round" stroke-linejoin="round" stroke-width="1.2" d="M8 12.8a4.8 4.8 0 1 0 0-9.6 4.8 4.8 0 0 0 0 9.6Z"/><path stroke="#000" stroke-linecap="round" stroke-linejoin="round" stroke-width="1.2" d="M8 9.2a1.2 1.2 0 1 0 0-2.4 1.2 1.2 0 0 0 0 2.4ZM8 2v1.2M8 14v-1.2M11 13.196l-.6-1.038M7.4 6.962 5 2.804M13.196 11l-1.038-.6M2.804 5l1.038.6M9.2 8H14M2 8h1.2M13.196 5l-1.038.6M2.804 11l1.038-.6M11 2.804l-.6 1.038M7.4 9.038 5 13.196"/></svg>
