<svg width="14" height="14" viewBox="0 0 14 14" fill="none" xmlns="http://www.w3.org/2000/svg">
<path d="M5.2 7C6.52563 7 7.6 5.92544 7.6 4.6C7.6 3.27456 6.52563 2.2 5.2 2.2C3.87438 2.2 2.8 3.27456 2.8 4.6C2.8 5.92544 3.87438 7 5.2 7ZM6.15063 7.9H4.24938C2.45444 7.9 1 9.355 1 11.1494C1 11.5094 1.291 11.8 1.64988 11.8H8.74938C9.10938 11.8 9.4 11.5094 9.4 11.1494C9.4 9.355 7.945 7.9 6.15063 7.9ZM9.98313 8.2H8.59844C9.46 8.90688 10 9.96438 10 11.1494C10 11.3894 9.92875 11.6106 9.8125 11.8H12.4C12.7319 11.8 13 11.53 13 11.1831C13 9.5425 11.6575 8.2 9.98313 8.2ZM9.1 7C10.2606 7 11.2 6.06063 11.2 4.9C11.2 3.73938 10.2606 2.8 9.1 2.8C8.62919 2.8 8.19925 2.96041 7.849 3.22206C8.065 3.63681 8.2 4.10125 8.2 4.6C8.2 5.266 7.97631 5.87763 7.60769 6.37581C7.98813 6.76 8.515 7 9.1 7Z" fill="white"/>
</svg>
