<svg xmlns="http://www.w3.org/2000/svg" width="16" height="16" fill="none"><path stroke="#000" stroke-linecap="round" stroke-linejoin="round" stroke-width="1.2" d="M8.017 5.625c2.974 0 5.385-.804 5.385-1.795 0-.991-2.41-1.795-5.385-1.795-2.973 0-5.384.804-5.384 1.795 0 .991 2.41 1.795 5.384 1.795Z"/><path stroke="#000" stroke-linecap="round" stroke-linejoin="round" stroke-width="1.2" d="M2.633 3.83v8.376c-.003.288.201.571.596.827.394.256.967.477 1.671.643a13.12 13.12 0 0 0 2.373.314c.854.04 1.725.01 2.54-.085M13.402 3.83v1.795M13.402 8.018l-1.795 2.991H14l-1.795 2.992"/><path stroke="#000" stroke-linecap="round" stroke-linejoin="round" stroke-width="1.2" d="M2.633 8.018c0 .28.198.556.575.805.378.25.925.467 1.599.634.673.167 1.454.279 2.28.327.827.048 1.676.032 2.48-.049"/></svg>
