<svg width="12" height="12" viewBox="0 0 12 12" fill="none" xmlns="http://www.w3.org/2000/svg">
<path d="M3.5 4.5C3.5 3.11929 4.61929 2 6 2C7.38071 2 8.5 3.11929 8.5 4.5V7.5C8.5 8.88071 7.38071 10 6 10C4.61929 10 3.5 8.88071 3.5 7.5V4.5Z" stroke="black" style="stroke:black;stroke-opacity:1;" stroke-linecap="round" stroke-linejoin="round"/>
<path d="M8.5 3.5L10.5 2.22485V0" stroke="black" style="stroke:black;stroke-opacity:1;" stroke-linejoin="round"/>
<path d="M3.5 3.5L1.5 2.22485V0" stroke="black" style="stroke:black;stroke-opacity:1;" stroke-linejoin="round"/>
<path d="M8.5 8.5L10.5 9.77515V12" stroke="black" style="stroke:black;stroke-opacity:1;" stroke-linejoin="round"/>
<path d="M3.5 8.5L1.5 9.77515V12" stroke="black" style="stroke:black;stroke-opacity:1;" stroke-linejoin="round"/>
<path d="M8.5 6C9.67157 6 11 6 11 6" stroke="black" style="stroke:black;stroke-opacity:1;" stroke-linejoin="round"/>
<path d="M3.5 6H1" stroke="black" style="stroke:black;stroke-opacity:1;" stroke-linejoin="round"/>
</svg>
