<svg width="16" height="16" viewBox="0 0 16 16" fill="none" xmlns="http://www.w3.org/2000/svg">
<path d="M5.49219 2.29071L6.41455 3.1933" stroke="black" stroke-width="1.5" stroke-linecap="round" stroke-linejoin="round"/>
<path d="M9.61816 3.1933L10.508 2.29071" stroke="black" stroke-width="1.5" stroke-linecap="round" stroke-linejoin="round"/>
<path d="M5.7042 5.89221V5.15749C5.69033 4.85975 5.73943 4.56239 5.84856 4.28336C5.95768 4.00434 6.12456 3.74943 6.33913 3.53402C6.55369 3.31862 6.81149 3.14718 7.09697 3.03005C7.38245 2.91292 7.68969 2.85254 8.00014 2.85254C8.3106 2.85254 8.61784 2.91292 8.90332 3.03005C9.18879 3.14718 9.44659 3.31862 9.66116 3.53402C9.87572 3.74943 10.0426 4.00434 10.1517 4.28336C10.2609 4.56239 10.31 4.85975 10.2961 5.15749V5.89221" stroke="black" stroke-width="1.5" stroke-linecap="round" stroke-linejoin="round"/>
<path d="M8.00006 13.0426C6.13263 13.0426 4.60474 11.6005 4.60474 9.83792V8.23558C4.60474 7.66895 4.84322 7.12554 5.26772 6.72487C5.69221 6.32421 6.26796 6.09912 6.86829 6.09912H9.13184C9.73217 6.09912 10.3079 6.32421 10.7324 6.72487C11.1569 7.12554 11.3954 7.66895 11.3954 8.23558V9.83792C11.3954 11.6005 9.86749 13.0426 8.00006 13.0426Z" fill="black" fill-opacity="0.15" stroke="black" stroke-width="1.5" stroke-linecap="round" stroke-linejoin="round"/>
<path d="M4.60452 6.25196C3.51235 6.13878 2.60693 5.17677 2.60693 3.9884" stroke="black" stroke-width="1.5" stroke-linecap="round" stroke-linejoin="round"/>
<path d="M4.60462 8.81659H2.34106" stroke="black" stroke-width="1.5" stroke-linecap="round" stroke-linejoin="round"/>
<path d="M2.4541 13.3186C2.4541 12.1302 3.41611 11.1116 4.60448 11.0551" stroke="black" stroke-width="1.5" stroke-linecap="round" stroke-linejoin="round"/>
<path d="M13.0761 3.9884C13.0761 5.17677 12.1706 6.13878 11.0955 6.25196" stroke="black" stroke-width="1.5" stroke-linecap="round" stroke-linejoin="round"/>
<path d="M13.6591 8.81659H11.3955" stroke="black" stroke-width="1.5" stroke-linecap="round" stroke-linejoin="round"/>
<path d="M11.3955 11.0551C12.5839 11.1116 13.5459 12.1302 13.5459 13.3186" stroke="black" stroke-width="1.5" stroke-linecap="round" stroke-linejoin="round"/>
</svg>
