<svg width="16" height="16" viewBox="0 0 16 16" fill="none" xmlns="http://www.w3.org/2000/svg">
<path d="M11.8887 1.25C13.0386 1.25 13.7498 2.31634 13.75 3.33301V12.667C13.7499 13.6836 13.0386 14.75 11.8887 14.75H4.11133C2.96134 14.75 2.25014 13.6836 2.25 12.667V3.33301C2.25015 2.31635 2.96136 1.25 4.11133 1.25H11.8887ZM6 9.25C5.58579 9.25 5.25 9.58579 5.25 10C5.25 10.4142 5.58579 10.75 6 10.75H10C10.4142 10.75 10.75 10.4142 10.75 10C10.75 9.58579 10.4142 9.25 10 9.25H6ZM6 5.25C5.58579 5.25 5.25 5.58579 5.25 6C5.25 6.41421 5.58579 6.75 6 6.75H9C9.41421 6.75 9.75 6.41421 9.75 6C9.75 5.58579 9.41421 5.25 9 5.25H6Z" fill="black"/>
</svg>
