<svg width="16" height="16" viewBox="0 0 16 16" fill="none" xmlns="http://www.w3.org/2000/svg">
<path d="M10.5 4H9.5C9.22386 4 9 4.22386 9 4.5V11.5001C9 11.7762 9.22386 12.0001 9.5 12.0001H10.5C10.7762 12.0001 11 11.7762 11 11.5001V4.5C11 4.22386 10.7762 4 10.5 4Z" fill="black" stroke="black" stroke-width="1.2" stroke-linecap="round" stroke-linejoin="round"/>
<path d="M6.50001 4H5.5C5.22386 4 5 4.22386 5 4.5V11.5001C5 11.7762 5.22386 12.0001 5.5 12.0001H6.50001C6.77616 12.0001 7.00002 11.7762 7.00002 11.5001V4.5C7.00002 4.22386 6.77616 4 6.50001 4Z" fill="black" stroke="black" stroke-width="1.2" stroke-linecap="round" stroke-linejoin="round"/>
</svg>
