<svg width="16" height="16" viewBox="0 0 16 16" fill="none" xmlns="http://www.w3.org/2000/svg">
<path d="M13.9999 11.0333C13.9999 11.3516 13.8735 11.6568 13.6484 11.8818C13.4234 12.1069 13.1182 12.2333 12.7999 12.2333H4.8966C4.57836 12.2334 4.27318 12.3599 4.04818 12.5849L2.72697 13.9061C2.66739 13.9657 2.59149 14.0063 2.50886 14.0227C2.42623 14.0391 2.34058 14.0307 2.26274 13.9985C2.18491 13.9662 2.11838 13.9116 2.07157 13.8416C2.02476 13.7715 1.99977 13.6892 1.99976 13.6049V3.8332C1.99976 3.51493 2.12619 3.2097 2.35123 2.98466C2.57628 2.75961 2.88151 2.63318 3.19977 2.63318H12.7999C13.1182 2.63318 13.4234 2.75961 13.6484 2.98466C13.8735 3.2097 13.9999 3.51493 13.9999 3.8332V11.0333Z" stroke="black" stroke-width="1.5" stroke-linecap="round" stroke-linejoin="round"/>
</svg>
