<svg width="16" height="16" viewBox="0 0 16 16" fill="none" xmlns="http://www.w3.org/2000/svg">
<path d="M15 11.1111C15 11.969 14.3024 12.6666 13.4445 12.6666H5.99009C5.5769 12.6666 5.18073 12.5038 4.88906 12.2121L1.22798 8.54932C1.08191 8.40349 1 8.20661 1 8.00002C1 7.79343 1.08191 7.59656 1.22774 7.45072L4.88882 3.78916C5.18048 3.49725 5.57666 3.33344 5.98984 3.33344H13.4442C14.3022 3.33344 14.9998 4.02978 14.9998 4.88896V11.1111H15ZM7.58693 6.8358L8.73171 8.00002L7.58693 9.14236C7.3609 9.37083 7.3609 9.74027 7.58693 9.94686C7.8154 10.1948 8.18484 10.1948 8.39143 9.94686L9.55565 8.82396L10.698 9.94686C10.9265 10.1948 11.2959 10.1948 11.5025 9.94686C11.7504 9.74027 11.7504 9.37083 11.5025 9.14236L10.3796 8.00002L11.5025 6.8358C11.7504 6.62921 11.7504 6.25977 11.5025 6.0313C11.2959 5.80527 10.9265 5.80527 10.698 6.0313L9.55565 7.17608L8.39143 6.0313C8.18484 5.80527 7.8154 5.80527 7.58693 6.0313C7.3609 6.25977 7.3609 6.62921 7.58693 6.8358Z" fill="white"/>
</svg>
