<svg width="12" height="12" viewBox="0 0 12 12" fill="none" xmlns="http://www.w3.org/2000/svg">
<path d="M12 8.66661C12 9.40202 11.4021 9.99992 10.6667 9.99992H4.27722C3.92306 9.99992 3.58348 9.86034 3.33348 9.61034L0.195413 6.47082C0.0702071 6.34582 0 6.17707 0 5.99999C0 5.82291 0.0702071 5.65416 0.195205 5.52917L3.33328 2.39068C3.58327 2.14048 3.92285 2.00006 4.27701 2.00006H10.6665C11.4019 2.00006 11.9998 2.59693 11.9998 3.33337V8.66661H12ZM5.64594 5.00209L6.62718 5.99999L5.64594 6.97914C5.4522 7.17497 5.4522 7.49163 5.64594 7.66871C5.84177 7.88121 6.15843 7.88121 6.33552 7.66871L7.33341 6.70623L8.31256 7.66871C8.50839 7.88121 8.82506 7.88121 9.00214 7.66871C9.21463 7.49163 9.21463 7.17497 9.00214 6.97914L8.03965 5.99999L9.00214 5.00209C9.21463 4.82501 9.21463 4.50835 9.00214 4.31252C8.82506 4.11877 8.50839 4.11877 8.31256 4.31252L7.33341 5.29375L6.33552 4.31252C6.15843 4.11877 5.84177 4.11877 5.64594 4.31252C5.4522 4.50835 5.4522 4.82501 5.64594 5.00209Z" fill="white"/>
</svg>
