<svg width="8" height="8" viewBox="0 0 8 8" fill="none" xmlns="http://www.w3.org/2000/svg">
<path d="M8 5.77774C8 6.26801 7.6014 6.66661 7.11113 6.66661H2.85148C2.61537 6.66661 2.38899 6.57356 2.22232 6.4069L0.130276 4.31388C0.0468047 4.23055 0 4.11805 0 3.99999C0 3.88194 0.0468047 3.76944 0.130137 3.68611L2.22218 1.59379C2.38885 1.42698 2.61523 1.33337 2.85134 1.33337H7.11099C7.60126 1.33337 7.99986 1.73128 7.99986 2.22225V5.77774H8ZM3.76396 3.33473L4.41812 3.99999L3.76396 4.65276C3.6348 4.78331 3.6348 4.99442 3.76396 5.11247C3.89452 5.25414 4.10562 5.25414 4.22368 5.11247L4.88894 4.47082L5.54171 5.11247C5.67226 5.25414 5.88337 5.25414 6.00142 5.11247C6.14309 4.99442 6.14309 4.78331 6.00142 4.65276L5.35977 3.99999L6.00142 3.33473C6.14309 3.21667 6.14309 3.00557 6.00142 2.87501C5.88337 2.74585 5.67226 2.74585 5.54171 2.87501L4.88894 3.52917L4.22368 2.87501C4.10562 2.74585 3.89452 2.74585 3.76396 2.87501C3.6348 3.00557 3.6348 3.21667 3.76396 3.33473Z" fill="white"/>
</svg>
