<svg width="16" height="16" viewBox="0 0 16 16" fill="none" xmlns="http://www.w3.org/2000/svg">
<path opacity="0.2" d="M13.5896 12.1922V3.80783C13.5896 3.03608 12.9639 2.41045 12.1922 2.41045H10.329C9.55721 2.41045 8.93158 3.03608 8.93158 3.80783V12.1922C8.93158 12.9639 9.55721 13.5896 10.329 13.5896H12.1922C12.9639 13.5896 13.5896 12.9639 13.5896 12.1922Z" fill="#DCE0E5"/>
<path opacity="0.2" d="M7.0684 12.1922V3.80783C7.0684 3.03608 6.44276 2.41045 5.67101 2.41045H3.80782C3.03607 2.41045 2.41043 3.03608 2.41043 3.80783V12.1922C2.41043 12.9639 3.03607 13.5896 3.80782 13.5896H5.67101C6.44276 13.5896 7.0684 12.9639 7.0684 12.1922Z" fill="#DCE0E5"/>
<path d="M10.0497 12.1922C10.0497 12.3465 10.1746 12.4715 10.329 12.4715H12.0175L13.1192 13.1074C13.1474 13.1237 13.1769 13.137 13.2056 13.1511C12.9509 13.4202 12.5919 13.5896 12.1922 13.5896H10.329L10.1862 13.5823C9.48148 13.5107 8.93158 12.9157 8.93158 12.1922V10.6892L10.0497 11.3343V12.1922ZM10.0497 7.03111L8.93158 6.38609V3.80783C8.93158 3.0843 9.48148 2.48927 10.1862 2.41772L10.329 2.41045H12.1922C12.9639 2.41045 13.5896 3.03608 13.5896 3.80783V9.07534L12.4715 8.42941V3.80783C12.4715 3.65348 12.3465 3.52854 12.1922 3.52854H10.329C10.1746 3.52854 10.0497 3.65348 10.0497 3.80783V7.03111Z" fill="#DCE0E5"/>
<path d="M7.06842 9.61391V12.1922C7.06842 12.9639 6.44279 13.5896 5.67103 13.5896H3.80784L3.66501 13.5823C2.96036 13.5107 2.41046 12.9157 2.41046 12.1922V6.92376L3.52855 7.56969V12.1922C3.52855 12.3465 3.65349 12.4715 3.80784 12.4715H5.67103C5.82538 12.4715 5.95032 12.3465 5.95032 12.1922V8.96798L7.06842 9.61391ZM5.67103 2.41045C6.44279 2.41045 7.06842 3.03608 7.06842 3.80783V5.30984L5.95032 4.66482V3.80783C5.95032 3.65348 5.82538 3.52854 5.67103 3.52854H3.98252L2.8808 2.89262C2.85202 2.87601 2.82197 2.86239 2.79256 2.84804C3.01658 2.61118 3.32242 2.45251 3.66501 2.41772L3.80784 2.41045H5.67103Z" fill="#DCE0E5"/>
<path d="M1.64436 3.79271L1.17857 4.59949C1.04994 4.82228 1.12627 5.10716 1.34906 5.23578L13.7194 12.3778C13.9422 12.5064 14.227 12.4301 14.3557 12.2073L14.8215 11.4005C14.9501 11.1777 14.8738 10.8928 14.651 10.7642L2.28065 3.62222C2.05787 3.49359 1.77299 3.56992 1.64436 3.79271Z" fill="#DCE0E5"/>
</svg>
