<svg width="16" height="16" viewBox="0 0 16 16" fill="none" xmlns="http://www.w3.org/2000/svg">
<path d="M5.25 3H3.75C3.33579 3 3 3.33579 3 3.75V12.25C3 12.6642 3.33579 13 3.75 13H5.25C5.66421 13 6 12.6642 6 12.25V3.75C6 3.33579 5.66421 3 5.25 3Z" fill="#C6CAD0"/>
<path opacity="0.7" d="M8.5 2.5C8.5 2.22386 8.27614 2 8 2C7.72386 2 7.5 2.22386 7.5 2.5V13.5C7.5 13.7761 7.72386 14 8 14C8.27614 14 8.5 13.7761 8.5 13.5V2.5Z" fill="#C6CAD0"/>
<path d="M12.25 3H10.75C10.3358 3 10 3.33579 10 3.75V12.25C10 12.6642 10.3358 13 10.75 13H12.25C12.6642 13 13 12.6642 13 12.25V3.75C13 3.33579 12.6642 3 12.25 3Z" fill="#C6CAD0"/>
</svg>
