<svg width="16" height="16" viewBox="0 0 16 16" fill="none" xmlns="http://www.w3.org/2000/svg">
<path opacity="0.5" d="M13.5896 12.1922V3.80783C13.5896 3.03608 12.9639 2.41045 12.1922 2.41045H10.329C9.55722 2.41045 8.93159 3.03608 8.93159 3.80783V12.1922C8.93159 12.9639 9.55722 13.5896 10.329 13.5896H12.1922C12.9639 13.5896 13.5896 12.9639 13.5896 12.1922Z" fill="#C6CAD0" fill-opacity="0.2"/>
<path opacity="0.5" d="M7.06841 12.1922L7.06841 3.80783C7.06841 3.03608 6.44277 2.41045 5.67102 2.41045H3.80783C3.03608 2.41045 2.41044 3.03608 2.41044 3.80783L2.41044 12.1922C2.41044 12.9639 3.03608 13.5896 3.80783 13.5896H5.67102C6.44277 13.5896 7.06841 12.9639 7.06841 12.1922Z" fill="#C6CAD0" fill-opacity="0.2"/>
<path d="M10.0497 12.1922C10.0497 12.3465 10.1746 12.4715 10.329 12.4715H12.0175L13.1192 13.1074C13.1474 13.1237 13.1769 13.137 13.2056 13.1511C12.9509 13.4202 12.5919 13.5896 12.1922 13.5896H10.329L10.1862 13.5823C9.48149 13.5107 8.93159 12.9157 8.93159 12.1922V10.6892L10.0497 11.3343V12.1922ZM10.0497 7.03111L8.93159 6.38609V3.80783C8.93159 3.0843 9.48149 2.48927 10.1862 2.41772L10.329 2.41045H12.1922C12.9639 2.41045 13.5896 3.03608 13.5896 3.80783V9.07534L12.4715 8.42941V3.80783C12.4715 3.65348 12.3465 3.52854 12.1922 3.52854H10.329C10.1746 3.52854 10.0497 3.65348 10.0497 3.80783V7.03111Z" fill="#C6CAD0"/>
<path d="M7.06841 9.61391V12.1922C7.06841 12.9639 6.44278 13.5896 5.67102 13.5896H3.80783L3.665 13.5823C2.96035 13.5107 2.41045 12.9157 2.41045 12.1922V6.92376L3.52854 7.56969V12.1922C3.52854 12.3465 3.65348 12.4715 3.80783 12.4715H5.67102C5.82537 12.4715 5.95031 12.3465 5.95031 12.1922V8.96798L7.06841 9.61391ZM5.67102 2.41045C6.44278 2.41045 7.06841 3.03608 7.06841 3.80783V5.30984L5.95031 4.66482V3.80783C5.95031 3.65348 5.82537 3.52854 5.67102 3.52854H3.98251L2.88079 2.89262C2.85201 2.87601 2.82196 2.86239 2.79255 2.84804C3.01657 2.61118 3.32241 2.45251 3.665 2.41772L3.80783 2.41045H5.67102Z" fill="#C6CAD0"/>
<path d="M1.64437 3.79271L1.17858 4.59949C1.04995 4.82228 1.12628 5.10716 1.34907 5.23578L13.7194 12.3778C13.9422 12.5064 14.227 12.4301 14.3557 12.2073L14.8215 11.4005C14.9501 11.1777 14.8738 10.8928 14.651 10.7642L2.28066 3.62222C2.05788 3.49359 1.773 3.56992 1.64437 3.79271Z" fill="#C6CAD0"/>
</svg>
