<svg width="16" height="16" viewBox="0 0 16 16" fill="none" xmlns="http://www.w3.org/2000/svg">
<rect opacity="0.5" x="14" y="2" width="12" height="5" rx="1.5" transform="rotate(90 14 2)" fill="#C6CAD0" fill-opacity="0.2"/>
<rect opacity="0.5" x="7" y="2" width="12" height="5" rx="1.5" transform="rotate(90 7 2)" fill="#C6CAD0" fill-opacity="0.2"/>
<path d="M10.2002 12.5C10.2002 12.6657 10.3343 12.7998 10.5 12.7998H12.3125L13.4951 13.4824C13.5254 13.4999 13.557 13.5142 13.5879 13.5293C13.3145 13.8182 12.9291 14 12.5 14H10.5L10.3467 13.9922C9.59028 13.9154 9 13.2767 9 12.5V10.8867L10.2002 11.5791V12.5ZM10.2002 6.95996L9 6.26758V3.5C9 2.72334 9.59028 2.08461 10.3467 2.00781L10.5 2H12.5C13.3284 2 14 2.67157 14 3.5V9.1543L12.7998 8.46094V3.5C12.7998 3.33431 12.6657 3.2002 12.5 3.2002H10.5C10.3343 3.2002 10.2002 3.33431 10.2002 3.5V6.95996Z" fill="#C6CAD0"/>
<path d="M7 9.73242V12.5C7 13.3284 6.32843 14 5.5 14H3.5L3.34668 13.9922C2.59028 13.9154 2 13.2767 2 12.5V6.84473L3.2002 7.53809V12.5C3.2002 12.6657 3.33431 12.7998 3.5 12.7998H5.5C5.66569 12.7998 5.7998 12.6657 5.7998 12.5V9.03906L7 9.73242ZM5.5 2C6.32843 2 7 2.67157 7 3.5V5.1123L5.7998 4.41992V3.5C5.7998 3.33431 5.66569 3.2002 5.5 3.2002H3.6875L2.50488 2.51758C2.47399 2.49975 2.44173 2.48513 2.41016 2.46973C2.65063 2.21547 2.97893 2.04515 3.34668 2.00781L3.5 2H5.5Z" fill="#C6CAD0"/>
<rect x="0.427673" y="4.78281" width="2" height="16.3329" rx="0.5" transform="rotate(-60 0.427673 4.78281)" fill="#C6CAD0"/>
</svg>
