<svg width="16" height="16" viewBox="0 0 16 16" fill="none" xmlns="http://www.w3.org/2000/svg">
<path opacity="0.5" d="M6.48233 12.2684V3.73157C6.48233 3.26009 6.10012 2.87788 5.62864 2.87788H3.73156C3.26008 2.87788 2.87787 3.26009 2.87787 3.73157V12.2684C2.87787 12.7399 3.26008 13.1221 3.73156 13.1221H5.62864C6.10012 13.1221 6.48233 12.7399 6.48233 12.2684Z" fill="#DCE0E5"/>
<path d="M6.48233 12.2684V3.73157C6.48233 3.26009 6.10012 2.87788 5.62864 2.87788H3.73156C3.26008 2.87788 2.87787 3.26009 2.87787 3.73157V12.2684C2.87787 12.7399 3.26008 13.1221 3.73156 13.1221H5.62864C6.10012 13.1221 6.48233 12.7399 6.48233 12.2684Z" stroke="#DCE0E5" stroke-width="1.2"/>
<path d="M13.1221 12.2684V3.73157C13.1221 3.26009 12.7399 2.87788 12.2684 2.87788H10.3713C9.89988 2.87788 9.51767 3.26009 9.51767 3.73157V12.2684C9.51767 12.7399 9.89988 13.1221 10.3713 13.1221H12.2684C12.7399 13.1221 13.1221 12.7399 13.1221 12.2684Z" fill="#DCE0E5" stroke="#DCE0E5" stroke-width="1.2"/>
</svg>
