<svg width="16" height="16" viewBox="0 0 16 16" fill="none" xmlns="http://www.w3.org/2000/svg">
<path opacity="0.5" d="M12.1035 9.43259H3.89653C3.44327 9.43259 3.07584 9.80002 3.07584 10.2533V12.077C3.07584 12.5303 3.44327 12.8977 3.89653 12.8977H12.1035C12.5567 12.8977 12.9242 12.5303 12.9242 12.077V10.2533C12.9242 9.80002 12.5567 9.43259 12.1035 9.43259Z" fill="#DCE0E5"/>
<path d="M12.1035 9.43259H3.89653C3.44327 9.43259 3.07584 9.80002 3.07584 10.2533V12.077C3.07584 12.5303 3.44327 12.8977 3.89653 12.8977H12.1035C12.5567 12.8977 12.9242 12.5303 12.9242 12.077V10.2533C12.9242 9.80002 12.5567 9.43259 12.1035 9.43259Z" stroke="#DCE0E5" stroke-width="1.1"/>
<path d="M12.1035 2.50227H3.89653C3.1411 2.50227 2.5287 3.11467 2.5287 3.8701V5.69386C2.5287 6.44929 3.1411 7.06169 3.89653 7.06169H12.1035C12.8589 7.06169 13.4713 6.44929 13.4713 5.69386V3.8701C13.4713 3.11467 12.8589 2.50227 12.1035 2.50227Z" fill="#DCE0E5"/>
</svg>
