<svg width="12" height="12" viewBox="0 0 12 12" fill="none" xmlns="http://www.w3.org/2000/svg">
<path d="M11 0.666656H1C0.447917 0.666656 0 1.11457 0 1.66666V8.33332C0 8.88541 0.447917 9.33332 1 9.33332H5L4.66667 10.3333H3.16667C2.89167 10.3333 2.66667 10.5583 2.66667 10.8333C2.66667 11.1083 2.89167 11.3333 3.16667 11.3333H8.83333C9.10938 11.3333 9.33333 11.1094 9.33333 10.8333C9.33333 10.5573 9.10938 10.3333 8.83333 10.3333H7.33333L7 9.33332H11C11.5521 9.33332 12 8.88541 12 8.33332V1.66666C12 1.11457 11.5521 0.666656 11 0.666656ZM10.6667 7.99999H1.33333V1.99999H10.6667V7.99999Z" fill="#979DB4"/>
</svg>
