<svg width="14" height="14" viewBox="0 0 14 14" fill="none" xmlns="http://www.w3.org/2000/svg">
<path d="M11.1651 2.77797C10.3884 2.41453 9.55779 2.1504 8.68945 2C8.58281 2.19281 8.45822 2.45213 8.37232 2.65843C7.44925 2.51961 6.53467 2.51961 5.62858 2.65843C5.5427 2.45213 5.41528 2.19281 5.30768 2C4.4384 2.1504 3.60688 2.4155 2.8301 2.77989C1.26332 5.14749 0.838594 7.45629 1.05096 9.7323C2.09013 10.5083 3.0972 10.9797 4.08729 11.2882C4.33174 10.9518 4.54977 10.5941 4.73759 10.2172C4.37988 10.0813 4.03726 9.91354 3.71354 9.71881C3.79942 9.65518 3.88343 9.58866 3.96459 9.52022C5.9391 10.4437 8.08445 10.4437 10.0354 9.52022C10.1175 9.58866 10.2015 9.65518 10.2864 9.71881C9.96174 9.9145 9.61819 10.0822 9.26048 10.2182C9.4483 10.5941 9.66538 10.9527 9.91078 11.2892C10.9018 10.9807 11.9098 10.5093 12.949 9.7323C13.1982 7.09382 12.5233 4.80623 11.1651 2.77797ZM5.00659 8.33257C4.41386 8.33257 3.92778 7.77923 3.92778 7.10539C3.92778 6.43155 4.40348 5.87725 5.00659 5.87725C5.60971 5.87725 6.09578 6.43058 6.0854 7.10539C6.08634 7.77923 5.60971 8.33257 5.00659 8.33257ZM8.99337 8.33257C8.40064 8.33257 7.91456 7.77923 7.91456 7.10539C7.91456 6.43155 8.39025 5.87725 8.99337 5.87725C9.59648 5.87725 10.0826 6.43058 10.0722 7.10539C10.0722 7.77923 9.59648 8.33257 8.99337 8.33257Z" fill="white"/>
</svg>
