<svg width="12" height="12" viewBox="0 0 12 12" fill="none" xmlns="http://www.w3.org/2000/svg">
<g clip-path="url(#clip0_616_82)">
<path fill-rule="evenodd" clip-rule="evenodd" d="M2.1818 1C1.51237 1 1.04544 1.48778 1.04544 2V10C1.04544 10.5122 1.51237 11 2.1818 11H9.81817C10.4876 11 10.9545 10.5122 10.9545 10V2C10.9545 1.48778 10.4876 1 9.81817 1H2.1818ZM0.0454407 2C0.0454407 0.855367 1.04377 0 2.1818 0H9.81817C10.9562 0 11.9545 0.855367 11.9545 2V10C11.9545 11.1446 10.9562 12 9.81817 12H2.1818C1.04377 12 0.0454407 11.1446 0.0454407 10V2Z" fill="white"/>
<path fill-rule="evenodd" clip-rule="evenodd" d="M5.5 4C5.5 3.72386 5.72386 3.5 6 3.5H8C8.27614 3.5 8.5 3.72386 8.5 4V6C8.5 6.27614 8.27614 6.5 8 6.5C7.72386 6.5 7.5 6.27614 7.5 6V5.20711L5.20711 7.5H6C6.27614 7.5 6.5 7.72386 6.5 8C6.5 8.27614 6.27614 8.5 6 8.5H4C3.72386 8.5 3.5 8.27614 3.5 8V6C3.5 5.72386 3.72386 5.5 4 5.5C4.27614 5.5 4.5 5.72386 4.5 6V6.79289L6.79289 4.5H6C5.72386 4.5 5.5 4.27614 5.5 4Z" fill="white"/>
</g>
<defs>
<clipPath id="clip0_616_82">
<rect width="12" height="12" fill="white"/>
</clipPath>
</defs>
</svg>
