<svg width="12" height="12" viewBox="0 0 12 12" fill="none" xmlns="http://www.w3.org/2000/svg">
<g clip-path="url(#clip0_616_83)">
<path opacity="0.6" d="M11 1H7V11H11V1Z" fill="white"/>
<path fill-rule="evenodd" clip-rule="evenodd" d="M2.1818 1C1.51237 1 1.04544 1.48778 1.04544 2V10C1.04544 10.5122 1.51237 11 2.1818 11H9.81817C10.4876 11 10.9545 10.5122 10.9545 10V2C10.9545 1.48778 10.4876 1 9.81817 1H2.1818ZM0.0454407 2C0.0454407 0.855367 1.04377 0 2.1818 0H9.81817C10.9562 0 11.9545 0.855367 11.9545 2V10C11.9545 11.1446 10.9562 12 9.81817 12H2.1818C1.04377 12 0.0454407 11.1446 0.0454407 10V2Z" fill="white"/>
<path d="M8 1H7V11H8V1Z" fill="white"/>
</g>
<defs>
<clipPath id="clip0_616_83">
<rect width="12" height="12" fill="white"/>
</clipPath>
</defs>
</svg>
