<svg width="12" height="12" viewBox="0 0 12 12" fill="none" xmlns="http://www.w3.org/2000/svg">
<g clip-path="url(#clip0_430_1270)">
<path d="M4.30957 0.857736V4.28922L2.35703 4.28788C2.10067 4.28788 1.86816 4.44057 1.76636 4.67656C1.66511 4.91229 1.71332 5.18633 1.88959 5.37304L5.53269 9.23312C5.77565 9.49028 6.22488 9.49028 6.46784 9.23312L10.1123 5.37277C10.2875 5.18794 10.3354 4.9147 10.2342 4.6763C10.1337 4.44057 9.90066 4.28788 9.66761 4.28788H7.73891L7.73891 0.857736C7.73891 0.383865 7.35504 2.35669e-07 6.88171 2.14979e-07L5.16731 1.4004e-07C4.66906 -0.000267757 4.30957 0.383865 4.30957 0.857736ZM11.1433 11.1187C11.1434 10.6687 10.7595 10.2856 10.2861 10.2856H1.71413C1.23972 10.2856 0.856659 10.6687 0.856659 11.1187C0.856659 11.6169 1.23972 12 1.71386 12H10.2861C10.7595 12 11.1433 11.6169 11.1433 11.1187Z" fill="white"/>
</g>
<defs>
<clipPath id="clip0_430_1270">
<rect width="12" height="12" fill="white"/>
</clipPath>
</defs>
</svg>
