<svg width="8" height="8" viewBox="0 0 8 8" fill="none" xmlns="http://www.w3.org/2000/svg">
<g clip-path="url(#clip0_430_1353)">
<path d="M2.87305 0.571824L2.87305 2.85948L1.57136 2.85858C1.40045 2.85858 1.24544 2.96038 1.17758 3.11771C1.11008 3.27486 1.14222 3.45755 1.25973 3.58203L3.68846 6.15541C3.85044 6.32685 4.14992 6.32685 4.3119 6.15541L6.74153 3.58185C6.85832 3.45862 6.89029 3.27647 6.82278 3.11753C6.75581 2.96038 6.60045 2.85858 6.44508 2.85858L5.15928 2.85858L5.15928 0.571824C5.15928 0.25591 4.90337 -1.70497e-08 4.58781 -3.08431e-08L3.44488 -8.08023e-08C3.11271 -0.000178679 2.87341 0.25591 2.87341 0.571824L2.87305 0.571824ZM7.42889 7.41246C7.42891 7.11244 7.17298 6.85707 6.85743 6.85707L1.14276 6.85707C0.826487 6.85707 0.571113 7.11244 0.571113 7.41246C0.571113 7.74463 0.826487 8 1.14258 8L6.85743 8C7.17298 8 7.42889 7.74463 7.42889 7.41246V7.41246Z" fill="white"/>
</g>
<defs>
<clipPath id="clip0_430_1353">
<rect width="8" height="8" fill="white"/>
</clipPath>
</defs>
</svg>
