<svg width="14" height="14" viewBox="0 0 14 14" fill="none" xmlns="http://www.w3.org/2000/svg">
<path d="M4 10C3.58579 10 3.25 10.3358 3.25 10.75C3.25 11.1642 3.58579 11.5 4 11.5V10ZM10 11.5C10.4142 11.5 10.75 11.1642 10.75 10.75C10.75 10.3358 10.4142 10 10 10V11.5ZM7.75 3.5C7.75 3.08579 7.41421 2.75 7 2.75C6.58579 2.75 6.25 3.08579 6.25 3.5H7.75ZM7 8L6.51191 8.56944C6.79277 8.81019 7.20723 8.81019 7.48809 8.56944L7 8ZM9.23809 7.06944C9.55259 6.79988 9.58901 6.3264 9.31944 6.01191C9.04988 5.69741 8.5764 5.66099 8.26191 5.93056L9.23809 7.06944ZM5.73809 5.93056C5.4236 5.66099 4.95012 5.69741 4.68056 6.01191C4.41099 6.3264 4.44741 6.79988 4.76191 7.06944L5.73809 5.93056ZM4 11.5H10V10H4V11.5ZM6.25 3.5V8H7.75V3.5H6.25ZM7.48809 8.56944L9.23809 7.06944L8.26191 5.93056L6.51191 7.43056L7.48809 8.56944ZM7.48809 7.43056L5.73809 5.93056L4.76191 7.06944L6.51191 8.56944L7.48809 7.43056Z" fill="white"/>
</svg>
