<svg width="10" height="10" viewBox="0 0 10 10" fill="none" xmlns="http://www.w3.org/2000/svg">
<path d="M10 9C10 8.44772 9.55228 8 9 8C8.44772 8 8 8.44772 8 9C8 9.55228 8.44772 10 9 10C9.55228 10 10 9.55228 10 9Z" fill="black" style="fill:black;fill-opacity:1;"/>
<path d="M6 9C6 8.44772 5.55228 8 5 8C4.44772 8 4 8.44772 4 9C4 9.55228 4.44772 10 5 10C5.55228 10 6 9.55228 6 9Z" fill="black" style="fill:black;fill-opacity:1;"/>
<path d="M2 9C2 8.44772 1.55228 8 1 8C0.447715 8 0 8.44772 0 9C0 9.55228 0.447715 10 1 10C1.55228 10 2 9.55228 2 9Z" fill="black" style="fill:black;fill-opacity:1;"/>
<path d="M10 5C10 4.44772 9.55228 4 9 4C8.44772 4 8 4.44772 8 5C8 5.55228 8.44772 6 9 6C9.55228 6 10 5.55228 10 5Z" fill="black" style="fill:black;fill-opacity:1;"/>
<path d="M6 5C6 4.44772 5.55228 4 5 4C4.44772 4 4 4.44772 4 5C4 5.55228 4.44772 6 5 6C5.55228 6 6 5.55228 6 5Z" fill="black" style="fill:black;fill-opacity:1;"/>
<path d="M10 1C10 0.447715 9.55228 0 9 0C8.44772 0 8 0.447715 8 1C8 1.55228 8.44772 2 9 2C9.55228 2 10 1.55228 10 1Z" fill="black" style="fill:black;fill-opacity:1;"/>
</svg>
