<svg width="16" height="16" viewBox="0 0 16 16" fill="none" xmlns="http://www.w3.org/2000/svg">
<path fill-rule="evenodd" clip-rule="evenodd" d="M13.0945 8.01611C13.0945 7.87619 12.9911 7.79551 12.8642 7.8356L4.13456 10.6038C4.00742 10.6441 3.90427 10.7904 3.90427 10.9301V13.7593C3.90427 13.8992 4.00742 13.9801 4.13456 13.9398L12.8642 11.1719C12.9911 11.1315 13.0945 10.9852 13.0945 10.8453V8.01611Z" fill="black"/>
<path fill-rule="evenodd" clip-rule="evenodd" d="M3.90427 7.92597C3.90427 8.06588 4.00742 8.21218 4.13456 8.25252L12.8655 11.0209C12.9926 11.0613 13.0958 10.9803 13.0958 10.8407V8.01124C13.0958 7.87158 12.9926 7.72529 12.8655 7.68494L4.13456 4.91652C4.00742 4.87618 3.90427 4.95686 3.90427 5.09677V7.92597Z" fill="black"/>
<path fill-rule="evenodd" clip-rule="evenodd" d="M13.0945 2.20248C13.0945 2.06256 12.9911 1.98163 12.8642 2.02197L4.13456 4.78988C4.00742 4.83022 3.90427 4.97652 3.90427 5.11644V7.94563C3.90427 8.08554 4.00742 8.16622 4.13456 8.12614L12.8642 5.35797C12.9911 5.31763 13.0945 5.17133 13.0945 5.03167V2.20248Z" fill="black"/>
</svg>
