<svg width="16" height="16" viewBox="0 0 16 16" fill="none" xmlns="http://www.w3.org/2000/svg">
<path fill-rule="evenodd" clip-rule="evenodd" d="M10.5094 13.9181C10.6984 13.9917 10.9139 13.987 11.1047 13.8952L13.5753 12.7064C13.8349 12.5814 14 12.3187 14 12.0305V3.9696C14 3.68136 13.8349 3.41862 13.5753 3.2937L11.1047 2.10485C10.8543 1.98438 10.5614 2.01389 10.3416 2.17363C10.3102 2.19645 10.2803 2.22193 10.2523 2.25001L5.52261 6.56498L3.46246 5.00115C3.27068 4.85558 3.00244 4.86751 2.82432 5.02953L2.16356 5.63059C1.94569 5.82877 1.94544 6.17152 2.16302 6.37004L3.94965 8.00001L2.16302 9.62998C1.94544 9.82849 1.94569 10.1713 2.16356 10.3694L2.82432 10.9705C3.00244 11.1325 3.27068 11.1444 3.46246 10.9989L5.52261 9.43504L10.2523 13.75C10.3271 13.8249 10.415 13.8812 10.5094 13.9181ZM11.0018 5.27587L7.41309 8.00001L11.0018 10.7241V5.27587Z" fill="#C6CAD0"/>
</svg>
