<svg width="16" height="16" viewBox="0 0 16 16" fill="none" xmlns="http://www.w3.org/2000/svg">
<path d="M3.1725 13.9985C2.86161 13.9982 2.56354 13.8746 2.34371 13.6548C2.12388 13.435 2.00026 13.1369 2 12.826V7.494C2 6.8325 2.2675 6.185 2.7365 5.7165L5.719 2.736C5.95192 2.50247 6.22867 2.31724 6.53335 2.19094C6.83804 2.06464 7.16467 1.99975 7.4945 2H12.8275C13.1384 2.00027 13.4365 2.12388 13.6563 2.34371C13.8761 2.56354 13.9997 2.86162 14 3.1725V8.5045C13.9983 9.17074 13.7336 9.80936 13.2635 10.2815L10.281 13.264C10.0477 13.4976 9.7706 13.6829 9.46561 13.8092C9.16059 13.9355 8.83364 14.0003 8.5035 14V13.9985H3.1725ZM7.657 10.5715H4.743V11.257H7.657V10.5715ZM3.9815 5.257H10.743V12.0165L12.8715 9.888C13.2373 9.52036 13.4433 9.02316 13.4445 8.5045V3.1725C13.4445 2.8335 13.1685 2.5555 12.8275 2.5555H7.4945C7.23753 2.55499 6.983 2.6053 6.74556 2.70356C6.50813 2.80181 6.29246 2.94606 6.111 3.128L3.9815 5.257ZM3.8855 5.353L3.128 6.11C2.76258 6.47809 2.5569 6.97533 2.5555 7.494V12.826C2.5555 13.165 2.8315 13.443 3.1725 13.443H8.5055C8.76249 13.4434 9.01701 13.3929 9.25445 13.2946C9.49188 13.1963 9.7075 13.052 9.889 12.87L10.645 12.1145H3.8855V5.353Z" fill="#C6CAD0"/>
</svg>
