<svg width="16" height="16" viewBox="0 0 16 16" fill="none" xmlns="http://www.w3.org/2000/svg">
<path fill-rule="evenodd" clip-rule="evenodd" d="M12.5945 8.03524C12.5945 7.89532 12.4911 7.81464 12.3642 7.85473L3.63453 10.6229C3.50739 10.6632 3.40424 10.8095 3.40424 10.9492V13.7784C3.40424 13.9183 3.50739 13.9992 3.63453 13.9589L12.3642 11.191C12.4911 11.1506 12.5945 11.0043 12.5945 10.8644V8.03524Z" fill="#C6CAD0"/>
<path fill-rule="evenodd" clip-rule="evenodd" d="M3.40424 7.9451C3.40424 8.08501 3.50739 8.23131 3.63453 8.27165L12.3655 11.04C12.4926 11.0804 12.5958 10.9994 12.5958 10.8598V8.03037C12.5958 7.89071 12.4926 7.74442 12.3655 7.70407L3.63453 4.93565C3.50739 4.89531 3.40424 4.97599 3.40424 5.1159V7.9451Z" fill="#C6CAD0"/>
<path fill-rule="evenodd" clip-rule="evenodd" d="M12.5945 2.22161C12.5945 2.08169 12.4911 2.00076 12.3642 2.0411L3.63453 4.80901C3.50739 4.84935 3.40424 4.99565 3.40424 5.13557V7.96476C3.40424 8.10467 3.50739 8.18535 3.63453 8.14527L12.3642 5.3771C12.4911 5.33676 12.5945 5.19046 12.5945 5.0508V2.22161Z" fill="#C6CAD0"/>
</svg>
