<svg width="16" height="16" viewBox="0 0 16 16" fill="none" xmlns="http://www.w3.org/2000/svg">
<mask id="mask0_4385_22072" style="mask-type:luminance" maskUnits="userSpaceOnUse" x="2" y="2" width="12" height="12">
<path d="M14 2H2V14H14V2Z" fill="white"/>
</mask>
<g mask="url(#mask0_4385_22072)">
<path d="M7.97552 2.45453C11.0167 2.45457 13.4814 4.94501 13.4814 8.01623C13.4814 11.0875 11.0167 13.578 7.97552 13.5781C4.93427 13.5781 2.46948 11.0875 2.46948 8.01623C2.4695 4.94498 4.93429 2.45453 7.97552 2.45453ZM10.3795 4.70348C10.2605 4.16887 9.6328 3.85468 9.03627 3.96342C8.47622 4.06552 7.12871 4.45681 7.12057 4.45916C8.79414 4.44469 9.07429 4.4726 9.19939 4.64751C9.27324 4.7508 9.16576 4.89248 8.71944 4.96538C8.23515 5.04447 7.23014 5.13958 7.22343 5.14022C6.25441 5.19776 5.57177 5.20168 5.36705 5.63512C5.23334 5.91827 5.50968 6.16857 5.63082 6.32527C6.14271 6.89455 6.88215 7.20158 7.35809 7.42767C7.53716 7.51274 8.06257 7.67345 8.06257 7.67345C6.51855 7.58853 5.40474 8.06267 4.7514 8.60855C4.01246 9.29204 4.33937 10.1067 5.85327 10.6084C6.74742 10.9047 7.19094 11.0439 8.52473 10.9238C9.31031 10.8815 9.4342 10.9068 9.44203 10.9712C9.45275 11.062 8.56932 11.2874 8.32812 11.357C7.71455 11.534 6.10645 11.8913 6.09758 11.8932C6.10115 11.8935 6.56249 11.9257 7.15531 11.8735C7.39632 11.8522 8.31142 11.7624 8.99557 11.6123C8.99557 11.6123 9.8297 11.4338 10.2759 11.2693C10.7429 11.0973 10.997 10.9512 11.1113 10.7443C11.1063 10.7019 11.1465 10.5516 10.9313 10.4613C10.3807 10.2304 9.7423 10.2721 8.4789 10.2453C7.07789 10.1972 6.61184 9.9626 6.36356 9.77373C6.12548 9.58212 6.24518 9.05204 7.26528 8.5851C7.77917 8.33646 9.7935 7.87759 9.7935 7.87759C9.11511 7.54227 7.85014 6.95284 7.59005 6.82552C7.36199 6.71388 6.99701 6.54572 6.9179 6.34233C6.82824 6.14709 7.1297 5.97888 7.29813 5.9307C7.84057 5.77424 8.60635 5.67701 9.3033 5.66609C9.6536 5.66061 9.7105 5.63806 9.7105 5.63806C10.1939 5.55787 10.5121 5.22722 10.3795 4.70348Z" fill="#C6CAD0"/>
</g>
</svg>
