<svg width="16" height="16" viewBox="0 0 16 16" fill="none" xmlns="http://www.w3.org/2000/svg">
<g clip-path="url(#clip0_2716_663)">
<path d="M8.47552 2.45453C11.5167 2.45457 13.9814 4.94501 13.9814 8.01623C13.9814 11.0875 11.5167 13.578 8.47552 13.5781C5.43427 13.5781 2.96948 11.0875 2.96948 8.01623C2.9695 4.94498 5.43429 2.45453 8.47552 2.45453ZM10.8795 4.70348C10.7605 4.16887 10.1328 3.85468 9.53627 3.96342C8.97622 4.06552 7.62871 4.45681 7.62057 4.45916C9.29414 4.44469 9.57429 4.4726 9.69939 4.64751C9.77324 4.7508 9.66576 4.89248 9.21944 4.96538C8.73515 5.04447 7.73014 5.13958 7.72343 5.14022C6.75441 5.19776 6.07177 5.20168 5.86705 5.63512C5.73334 5.91827 6.00968 6.16857 6.13082 6.32527C6.64271 6.89455 7.38215 7.20158 7.85809 7.42767C8.03716 7.51274 8.56257 7.67345 8.56257 7.67345C7.01855 7.58853 5.90474 8.06267 5.2514 8.60855C4.51246 9.29204 4.83937 10.1067 6.35327 10.6084C7.24742 10.9047 7.69094 11.0439 9.02473 10.9238C9.81031 10.8815 9.9342 10.9068 9.94203 10.9712C9.95275 11.062 9.06932 11.2874 8.82812 11.357C8.21455 11.534 6.60645 11.8913 6.59758 11.8932C6.60115 11.8935 7.06249 11.9257 7.65531 11.8735C7.89632 11.8522 8.81142 11.7624 9.49557 11.6123C9.49557 11.6123 10.3297 11.4338 10.7759 11.2693C11.2429 11.0973 11.497 10.9512 11.6113 10.7443C11.6063 10.7019 11.6465 10.5516 11.4313 10.4613C10.8807 10.2304 10.2423 10.2721 8.9789 10.2453C7.57789 10.1972 7.11184 9.9626 6.86356 9.77373C6.62548 9.58212 6.74518 9.05204 7.76528 8.5851C8.27917 8.33646 10.2935 7.87759 10.2935 7.87759C9.61511 7.54227 8.35014 6.95284 8.09005 6.82552C7.86199 6.71388 7.49701 6.54572 7.4179 6.34233C7.32824 6.14709 7.6297 5.97888 7.79813 5.9307C8.34057 5.77424 9.10635 5.67701 9.8033 5.66609C10.1536 5.66061 10.2105 5.63806 10.2105 5.63806C10.6939 5.55787 11.0121 5.22722 10.8795 4.70348Z" fill="black"/>
</g>
<defs>
<clipPath id="clip0_2716_663">
<rect width="12" height="12" fill="white" transform="translate(2.5 2)"/>
</clipPath>
</defs>
</svg>
