<svg width="16" height="16" viewBox="0 0 16 16" fill="none" xmlns="http://www.w3.org/2000/svg">
<path fill-rule="evenodd" clip-rule="evenodd" d="M11.0094 13.9181C11.1984 13.9917 11.4139 13.987 11.6047 13.8952L14.0753 12.7064C14.3349 12.5814 14.5 12.3187 14.5 12.0305V3.9696C14.5 3.68136 14.3349 3.41862 14.0753 3.2937L11.6047 2.10485C11.3543 1.98438 11.0614 2.01389 10.8416 2.17363C10.8102 2.19645 10.7803 2.22193 10.7523 2.25001L6.02261 6.56498L3.96246 5.00115C3.77068 4.85558 3.50244 4.86751 3.32432 5.02953L2.66356 5.63059C2.44569 5.82877 2.44544 6.17152 2.66302 6.37004L4.44965 8.00001L2.66302 9.62998C2.44544 9.82849 2.44569 10.1713 2.66356 10.3694L3.32432 10.9705C3.50244 11.1325 3.77068 11.1444 3.96246 10.9989L6.02261 9.43504L10.7523 13.75C10.8271 13.8249 10.915 13.8812 11.0094 13.9181ZM11.5018 5.27587L7.91309 8.00001L11.5018 10.7241V5.27587Z" fill="black"/>
</svg>
