<svg width="16" height="16" viewBox="0 0 16 16" fill="none" xmlns="http://www.w3.org/2000/svg">
<path d="M5.68522 2.1437C5.88552 2.13508 6.08368 2.16739 6.27106 2.23631C6.68137 2.37739 7.06475 2.58524 7.40722 2.85016L7.47506 2.90401L7.47937 2.90724L7.48368 2.91155C7.55448 2.97424 7.60599 3.05578 7.6322 3.14664C7.65841 3.23751 7.65823 3.33395 7.6317 3.42472C7.60517 3.51549 7.55337 3.59685 7.48235 3.65929C7.41133 3.72173 7.32402 3.7627 7.2306 3.77739C7.10591 3.79735 6.97828 3.76967 6.87306 3.69985L6.86229 3.69339L6.8526 3.68585C6.58587 3.46715 6.28351 3.29594 5.95875 3.1797H5.95445L5.95014 3.17647C5.82002 3.12443 5.67507 3.12328 5.54414 3.17324C5.42137 3.23893 5.30722 3.39293 5.23937 3.68585C5.17475 3.9637 5.16183 4.33308 5.20491 4.77785L5.21352 4.86831C5.23075 5.02662 5.2566 5.19355 5.28891 5.36693C5.71106 5.30985 6.13645 5.27216 6.56183 5.25385C7.16065 4.49455 7.84832 3.80977 8.61014 3.21416H8.61229L8.61337 3.21201C9.12814 2.82431 9.6364 2.54647 10.1081 2.41508C10.5798 2.28585 11.0364 2.29878 11.4155 2.52924L11.422 2.53247L11.4295 2.53785C11.6089 2.66378 11.7606 2.82503 11.8754 3.01169C11.9903 3.19836 12.0657 3.40652 12.0972 3.62339C12.1769 4.12524 12.1586 4.6357 12.0434 5.13108C12.0154 5.25866 11.9385 5.37014 11.8291 5.44146C11.7197 5.51279 11.5866 5.53823 11.4586 5.51232C11.3305 5.48673 11.2175 5.41198 11.1438 5.30408C11.0701 5.19619 11.0416 5.06373 11.0644 4.93508L11.0655 4.92862L11.0677 4.92216C11.156 4.55385 11.1732 4.17262 11.1204 3.79678V3.79139C11.1107 3.70973 11.0849 3.6308 11.0447 3.5591C11.0044 3.4874 10.9504 3.42435 10.8857 3.37355C10.7715 3.30893 10.5798 3.29278 10.2826 3.39185C9.9854 3.49308 9.6235 3.6977 9.22291 3.99924C8.73829 4.37724 8.29029 4.79616 7.87999 5.2517L7.9726 5.25601H8.14706C9.8292 5.34108 11.3649 5.68031 12.4828 6.15416C13.0794 6.40724 13.5748 6.71201 13.9204 7.05878C14.2651 7.40555 14.474 7.81155 14.4611 8.25632V8.28862L14.4589 8.30585C14.4018 8.70216 14.2004 9.06293 13.8935 9.32139C13.5533 9.61541 13.163 9.84594 12.7412 10.002L12.7391 10.0031L12.7358 10.0042C12.6136 10.0508 12.478 10.0478 12.3579 9.99594C12.2378 9.94404 12.1427 9.84729 12.0929 9.72632C12.0681 9.66555 12.0557 9.60047 12.0562 9.53485C12.0568 9.46923 12.0704 9.40438 12.0963 9.34406C12.1221 9.28375 12.1597 9.22917 12.2068 9.18349C12.2539 9.13782 12.3097 9.10196 12.3708 9.07801L12.3729 9.07693L12.3761 9.07585C12.6872 8.96224 12.9754 8.79373 13.2269 8.57832L13.2323 8.57401C13.3483 8.48055 13.4289 8.3502 13.4606 8.20462C13.4584 8.06785 13.3744 7.89232 13.1451 7.6877C12.9103 7.47878 12.5528 7.2677 12.0897 7.07062C11.0881 6.64416 9.672 6.33508 8.08245 6.25216L7.92306 6.24462C7.63229 6.23278 7.34583 6.22847 7.06583 6.23278C6.86875 6.49447 6.67491 6.76908 6.48645 7.05447C6.32922 7.29355 6.18275 7.53262 6.04706 7.77278C6.15045 8.01508 6.26783 8.26278 6.39168 8.51262L6.45414 8.63539L6.51875 8.76462L6.58768 8.89601C7.29845 10.2432 8.13845 11.3535 8.9106 12.0632L8.97952 12.1257C9.32414 12.4315 9.6408 12.6459 9.9111 12.7643C10.204 12.8925 10.4011 12.8892 10.526 12.8268C10.6541 12.7622 10.7672 12.6146 10.834 12.3292C10.8986 12.0439 10.9094 11.6594 10.8598 11.1877C10.7554 10.1635 10.358 8.85293 9.686 7.4917C9.6447 7.41731 9.6231 7.33357 9.6234 7.24847C9.6237 7.16338 9.6458 7.07979 9.6876 7.00567C9.7294 6.93156 9.7895 6.86941 9.8622 6.82516C9.9349 6.78091 10.0177 6.75604 10.1028 6.75293C10.2039 6.74858 10.3041 6.77481 10.3902 6.82822C10.4762 6.88162 10.5442 6.95971 10.5852 7.05232C11.3003 8.50939 11.7375 9.9417 11.856 11.0843L11.8668 11.1974C11.9152 11.7649 11.8829 12.2775 11.7558 12.6997C11.6191 13.1531 11.3681 13.5192 10.9761 13.7163C10.582 13.9155 10.1221 13.8919 9.6601 13.7228C9.19706 13.5526 8.71245 13.2295 8.23429 12.7891C7.34045 11.9717 6.40352 10.7139 5.62599 9.20724L5.55599 9.0737C5.52266 9.01105 5.49035 8.94786 5.45906 8.88416C5.18051 9.47718 4.9598 10.0957 4.79999 10.7311C4.68691 11.2179 4.64922 11.6292 4.6826 11.9405C4.71491 12.2474 4.8086 12.4154 4.91629 12.494C5.07557 12.5715 5.25898 12.5831 5.42675 12.5263L5.43106 12.5242L5.43537 12.5231C5.82952 12.4046 6.19998 12.2162 6.52629 11.9674L6.52952 11.9652L6.53275 11.9631C6.6134 11.9068 6.7088 11.8755 6.80709 11.873C6.90538 11.8705 7.00224 11.897 7.08564 11.9491C7.16904 12.0011 7.2353 12.0766 7.27619 12.166C7.31709 12.2554 7.33082 12.3549 7.31568 12.452C7.29378 12.5801 7.22266 12.6945 7.11752 12.7708C6.69348 13.0899 6.21514 13.3296 5.70568 13.4783C5.4887 13.5469 5.25987 13.5699 5.03358 13.5458C4.80728 13.5217 4.58842 13.4511 4.39075 13.3383L4.38322 13.3351L4.37675 13.3308C4.00306 13.0831 3.79737 12.6739 3.71875 12.1892C3.64014 11.7079 3.68429 11.1317 3.82968 10.5049V10.5028L3.83075 10.4995C4.07952 9.5217 4.45429 8.57939 4.94429 7.69632C4.78937 7.30626 4.65281 6.90916 4.53506 6.50632C4.34122 6.55047 4.14952 6.60324 3.95998 6.66139C3.4926 6.80893 3.1286 6.98016 2.88306 7.16108C2.63645 7.34416 2.54598 7.50785 2.53845 7.63924V7.64462C2.53662 7.78511 2.58688 7.9213 2.67952 8.02693L2.69891 8.04847L2.70106 8.04955C2.92829 8.2897 3.1986 8.48678 3.49798 8.62893L3.50229 8.63108L3.50552 8.63216C3.62267 8.69325 3.71092 8.79816 3.75106 8.92403C3.7912 9.0499 3.77998 9.18653 3.71983 9.30416C3.65935 9.42078 3.5553 9.50882 3.43027 9.54915C3.30525 9.58948 3.16936 9.57884 3.05214 9.51955C2.63969 9.32129 2.26817 9.04731 1.95691 8.71185C1.81823 8.5645 1.70994 8.39127 1.63825 8.20205C1.56655 8.01283 1.53285 7.81134 1.53906 7.60908V7.60478C1.5606 7.16108 1.80398 6.78093 2.17445 6.47185C2.54383 6.16493 3.05429 5.91508 3.65845 5.72447H3.65952C3.87168 5.6577 4.08706 5.60062 4.30352 5.55108C4.26766 5.3627 4.23892 5.17302 4.21737 4.98247C4.14845 4.35678 4.17214 3.79031 4.30783 3.32939C4.44352 2.86631 4.69768 2.49047 5.09614 2.28908L5.10045 2.28693L5.1026 2.28585C5.28568 2.1997 5.48383 2.15231 5.68522 2.1437ZM8.15137 7.02108C8.32492 7.03989 8.49029 7.10471 8.6304 7.20884C8.7705 7.31297 8.88025 7.45263 8.94829 7.61339C9.02212 7.79086 9.04127 7.98633 9.00328 8.17474C8.96529 8.36316 8.87189 8.53594 8.73506 8.67093C8.59837 8.80552 8.4251 8.89694 8.23684 8.93378C8.04857 8.97063 7.85363 8.95129 7.67628 8.87817C7.49892 8.80505 7.347 8.68138 7.23941 8.52255C7.13182 8.36372 7.07333 8.17676 7.07122 7.98493C7.0703 7.79262 7.12693 7.60444 7.23382 7.44457C7.34072 7.28471 7.49299 7.16048 7.67106 7.08785C7.78956 7.03888 7.91653 7.01363 8.04475 7.01355H8.14383L8.15137 7.02108ZM5.79722 6.30493C5.70951 6.31433 5.62191 6.32474 5.53445 6.33616C5.55814 6.41908 5.58399 6.50201 5.61091 6.58708L5.66045 6.50955L5.79722 6.30493Z" fill="#C6CAD0"/>
</svg>
