<svg width="16" height="16" viewBox="0 0 16 16" fill="none" xmlns="http://www.w3.org/2000/svg">
<path d="M6.18462 2.1437C6.38492 2.13508 6.58308 2.16739 6.77046 2.23631C7.18077 2.37739 7.56415 2.58524 7.90662 2.85016L7.97446 2.90401L7.97877 2.90724L7.98308 2.91155C8.05388 2.97424 8.10539 3.05578 8.1316 3.14664C8.15781 3.23751 8.15763 3.33395 8.1311 3.42472C8.10457 3.51549 8.05277 3.59685 7.98175 3.65929C7.91073 3.72173 7.82342 3.7627 7.73 3.77739C7.60531 3.79735 7.47768 3.76967 7.37246 3.69985L7.36169 3.69339L7.352 3.68585C7.08527 3.46715 6.78291 3.29594 6.45815 3.1797H6.45385L6.44954 3.17647C6.31942 3.12443 6.17447 3.12328 6.04354 3.17324C5.92077 3.23893 5.80662 3.39293 5.73877 3.68585C5.67415 3.9637 5.66123 4.33308 5.70431 4.77785L5.71292 4.86831C5.73015 5.02662 5.756 5.19355 5.78831 5.36693C6.21046 5.30985 6.63585 5.27216 7.06123 5.25385C7.66005 4.49455 8.34772 3.80977 9.10954 3.21416H9.11169L9.11277 3.21201C9.62754 2.82431 10.1358 2.54647 10.6075 2.41508C11.0792 2.28585 11.5358 2.29878 11.9149 2.52924L11.9214 2.53247L11.9289 2.53785C12.1083 2.66378 12.26 2.82503 12.3748 3.01169C12.4897 3.19836 12.5651 3.40652 12.5966 3.62339C12.6763 4.12524 12.658 4.6357 12.5428 5.13108C12.5148 5.25866 12.4379 5.37014 12.3285 5.44146C12.2191 5.51279 12.086 5.53823 11.958 5.51232C11.8299 5.48673 11.7169 5.41198 11.6432 5.30408C11.5695 5.19619 11.541 5.06373 11.5638 4.93508L11.5649 4.92862L11.5671 4.92216C11.6554 4.55385 11.6726 4.17262 11.6198 3.79678V3.79139C11.6101 3.70973 11.5843 3.6308 11.5441 3.5591C11.5038 3.4874 11.4498 3.42435 11.3851 3.37355C11.2709 3.30893 11.0792 3.29278 10.782 3.39185C10.4848 3.49308 10.1229 3.6977 9.72231 3.99924C9.23769 4.37724 8.78969 4.79616 8.37939 5.2517L8.472 5.25601H8.64646C10.3286 5.34108 11.8643 5.68031 12.9822 6.15416C13.5788 6.40724 14.0742 6.71201 14.4198 7.05878C14.7645 7.40555 14.9734 7.81155 14.9605 8.25632V8.28862L14.9583 8.30585C14.9012 8.70216 14.6998 9.06293 14.3929 9.32139C14.0527 9.61541 13.6624 9.84594 13.2406 10.002L13.2385 10.0031L13.2352 10.0042C13.113 10.0508 12.9774 10.0478 12.8573 9.99594C12.7372 9.94404 12.6421 9.84729 12.5923 9.72632C12.5675 9.66555 12.5551 9.60047 12.5556 9.53485C12.5562 9.46923 12.5698 9.40438 12.5957 9.34406C12.6215 9.28375 12.6591 9.22917 12.7062 9.18349C12.7533 9.13782 12.8091 9.10196 12.8702 9.07801L12.8723 9.07693L12.8755 9.07585C13.1866 8.96224 13.4748 8.79373 13.7263 8.57832L13.7317 8.57401C13.8477 8.48055 13.9283 8.3502 13.96 8.20462C13.9578 8.06785 13.8738 7.89232 13.6445 7.6877C13.4097 7.47878 13.0522 7.2677 12.5891 7.07062C11.5875 6.64416 10.1714 6.33508 8.58185 6.25216L8.42246 6.24462C8.13169 6.23278 7.84523 6.22847 7.56523 6.23278C7.36815 6.49447 7.17431 6.76908 6.98585 7.05447C6.82862 7.29355 6.68215 7.53262 6.54646 7.77278C6.64985 8.01508 6.76723 8.26278 6.89108 8.51262L6.95354 8.63539L7.01815 8.76462L7.08708 8.89601C7.79785 10.2432 8.63785 11.3535 9.41 12.0632L9.47892 12.1257C9.82354 12.4315 10.1402 12.6459 10.4105 12.7643C10.7034 12.8925 10.9005 12.8892 11.0254 12.8268C11.1535 12.7622 11.2666 12.6146 11.3334 12.3292C11.398 12.0439 11.4088 11.6594 11.3592 11.1877C11.2548 10.1635 10.8574 8.85293 10.1854 7.4917C10.1441 7.41731 10.1225 7.33357 10.1228 7.24847C10.1231 7.16338 10.1452 7.07979 10.187 7.00567C10.2288 6.93156 10.2889 6.86941 10.3616 6.82516C10.4343 6.78091 10.5171 6.75604 10.6022 6.75293C10.7033 6.74858 10.8035 6.77481 10.8896 6.82822C10.9756 6.88162 11.0436 6.95971 11.0846 7.05232C11.7997 8.50939 12.2369 9.9417 12.3554 11.0843L12.3662 11.1974C12.4146 11.7649 12.3823 12.2775 12.2552 12.6997C12.1185 13.1531 11.8675 13.5192 11.4755 13.7163C11.0814 13.9155 10.6215 13.8919 10.1595 13.7228C9.69646 13.5526 9.21185 13.2295 8.73369 12.7891C7.83985 11.9717 6.90292 10.7139 6.12539 9.20724L6.05539 9.0737C6.02206 9.01105 5.98975 8.94786 5.95846 8.88416C5.67991 9.47718 5.4592 10.0957 5.29939 10.7311C5.18631 11.2179 5.14862 11.6292 5.182 11.9405C5.21431 12.2474 5.308 12.4154 5.41569 12.494C5.57497 12.5715 5.75838 12.5831 5.92615 12.5263L5.93046 12.5242L5.93477 12.5231C6.32892 12.4046 6.69938 12.2162 7.02569 11.9674L7.02892 11.9652L7.03215 11.9631C7.1128 11.9068 7.2082 11.8755 7.30649 11.873C7.40478 11.8705 7.50164 11.897 7.58504 11.9491C7.66844 12.0011 7.7347 12.0766 7.77559 12.166C7.81649 12.2554 7.83022 12.3549 7.81508 12.452C7.79318 12.5801 7.72206 12.6945 7.61692 12.7708C7.19288 13.0899 6.71454 13.3296 6.20508 13.4783C5.9881 13.5469 5.75927 13.5699 5.53298 13.5458C5.30668 13.5217 5.08782 13.4511 4.89015 13.3383L4.88262 13.3351L4.87615 13.3308C4.50246 13.0831 4.29677 12.6739 4.21815 12.1892C4.13954 11.7079 4.18369 11.1317 4.32908 10.5049V10.5028L4.33015 10.4995C4.57892 9.5217 4.95369 8.57939 5.44369 7.69632C5.28877 7.30626 5.15221 6.90916 5.03446 6.50632C4.84062 6.55047 4.64892 6.60324 4.45938 6.66139C3.992 6.80893 3.628 6.98016 3.38246 7.16108C3.13585 7.34416 3.04538 7.50785 3.03785 7.63924V7.64462C3.03602 7.78511 3.08628 7.9213 3.17892 8.02693L3.19831 8.04847L3.20046 8.04955C3.42769 8.2897 3.698 8.48678 3.99738 8.62893L4.00169 8.63108L4.00492 8.63216C4.12207 8.69325 4.21032 8.79816 4.25046 8.92403C4.2906 9.0499 4.27938 9.18653 4.21923 9.30416C4.15875 9.42078 4.0547 9.50882 3.92967 9.54915C3.80465 9.58948 3.66876 9.57884 3.55154 9.51955C3.13909 9.32129 2.76757 9.04731 2.45631 8.71185C2.31763 8.5645 2.20934 8.39127 2.13765 8.20205C2.06595 8.01283 2.03225 7.81134 2.03846 7.60908V7.60478C2.06 7.16108 2.30338 6.78093 2.67385 6.47185C3.04323 6.16493 3.55369 5.91508 4.15785 5.72447H4.15892C4.37108 5.6577 4.58646 5.60062 4.80292 5.55108C4.76706 5.3627 4.73832 5.17302 4.71677 4.98247C4.64785 4.35678 4.67154 3.79031 4.80723 3.32939C4.94292 2.86631 5.19708 2.49047 5.59554 2.28908L5.59985 2.28693L5.602 2.28585C5.78508 2.1997 5.98323 2.15231 6.18462 2.1437ZM8.65077 7.02108C8.82432 7.03989 8.98969 7.10471 9.1298 7.20884C9.2699 7.31297 9.37965 7.45263 9.44769 7.61339C9.52152 7.79086 9.54067 7.98633 9.50268 8.17474C9.46469 8.36316 9.37129 8.53594 9.23446 8.67093C9.09777 8.80552 8.9245 8.89694 8.73624 8.93378C8.54797 8.97063 8.35303 8.95129 8.17568 8.87817C7.99832 8.80505 7.8464 8.68138 7.73881 8.52255C7.63122 8.36372 7.57273 8.17676 7.57062 7.98493C7.5697 7.79262 7.62633 7.60444 7.73322 7.44457C7.84012 7.28471 7.99239 7.16048 8.17046 7.08785C8.28896 7.03888 8.41593 7.01363 8.54415 7.01355H8.64323L8.65077 7.02108ZM6.29662 6.30493C6.20891 6.31433 6.12131 6.32474 6.03385 6.33616C6.05754 6.41908 6.08339 6.50201 6.11031 6.58708L6.15985 6.50955L6.29662 6.30493Z" fill="black"/>
</svg>
