<svg width="14" height="4" viewBox="0 0 14 4" fill="none" xmlns="http://www.w3.org/2000/svg">
<path fill-rule="evenodd" clip-rule="evenodd" d="M3.125 2C3.125 2.62132 2.62132 3.125 2 3.125C1.37868 3.125 0.875 2.62132 0.875 2C0.875 1.37868 1.37868 0.875 2 0.875C2.62132 0.875 3.125 1.37868 3.125 2ZM8.125 2C8.125 2.62132 7.62132 3.125 7 3.125C6.37868 3.125 5.875 2.62132 5.875 2C5.875 1.37868 6.37868 0.875 7 0.875C7.62132 0.875 8.125 1.37868 8.125 2ZM12 3.125C12.6213 3.125 13.125 2.62132 13.125 2C13.125 1.37868 12.6213 0.875 12 0.875C11.3787 0.875 10.875 1.37868 10.875 2C10.875 2.62132 11.3787 3.125 12 3.125Z" fill="#ABB2BF"/>
</svg>
