<svg width="12" height="12" viewBox="0 0 12 12" fill="none" xmlns="http://www.w3.org/2000/svg">
<path d="M8.53324 9.90014H7.18324L6.88324 9.00014H7.63305L6.10211 7.80014H1.78324V4.41577L0.583236 3.47452V8.10014C0.583217 8.59702 0.986361 9.00014 1.46636 9.00014H5.04949L4.74949 9.90014H3.43324C3.1848 9.90014 2.98324 10.1017 2.98324 10.3501C2.98324 10.5986 3.1848 10.8001 3.43324 10.8001H8.51637C8.7648 10.8001 8.96637 10.5986 8.96637 10.3501C8.96637 10.1017 8.79762 9.90014 8.53324 9.90014ZM11.8276 9.99577L10.5507 8.99489C11.0234 8.96789 11.3999 8.57939 11.3999 8.09996V2.09995C11.3999 1.60308 10.9968 1.19995 10.4999 1.19995H1.5168C1.28617 1.19995 1.07786 1.28939 0.918674 1.43208L0.727799 1.29595C0.645299 1.23145 0.547423 1.19995 0.450673 1.19995C0.316986 1.19995 0.184611 1.2592 0.0961106 1.37226C-0.057452 1.56801 -0.023327 1.85095 0.172236 2.00414L11.2724 10.7041C11.4693 10.8579 11.7519 10.8226 11.9041 10.6276C12.0581 10.4321 12.0224 10.149 11.8274 9.99521L11.8276 9.99577ZM10.1832 7.80014H9.00968L2.11905 2.40014H10.1816L10.1832 7.80014Z" fill="#93A1A1"/>
</svg>
