<svg width="16" height="16" viewBox="0 0 16 16" fill="none" xmlns="http://www.w3.org/2000/svg">
<path d="M9.5248 9.52487C9.32192 9.74576 9.07604 9.92297 8.80229 10.0457C8.52854 10.1685 8.23269 10.2341 7.93287 10.2384C7.63305 10.2427 7.33543 10.1857 7.05826 10.0709C6.78109 9.95608 6.53019 9.78592 6.32115 9.57088C6.11211 9.35584 5.94929 9.10052 5.84242 8.82002C5.73556 8.53953 5.68693 8.23974 5.69959 7.93908C5.71225 7.63842 5.78588 7.34389 5.9159 7.07326C6.04593 6.80263 6.22978 6.56148 6.45605 6.36487" stroke="black" stroke-width="1.2" stroke-linecap="round" stroke-linejoin="round"/>
<path d="M6.58521 3.93988C7.04677 3.8469 7.51825 3.80005 7.99115 3.80055C9.27177 3.80055 10.5219 4.18055 11.584 4.89055C12.6461 5.60055 13.472 6.61055 13.956 7.79055C13.9839 7.85737 13.9989 7.92893 14 8.00131C14.0011 8.07369 13.9882 8.14566 13.9622 8.21327C13.706 8.81927 13.3778 9.39377 12.9841 9.92417" stroke="black" stroke-width="1.2" stroke-linecap="round" stroke-linejoin="round"/>
<path d="M3.48047 5.37988C2.85585 5.97555 2.36015 6.69431 2.02605 7.49388C1.90005 7.80488 1.90005 8.15188 2.02605 8.46288C2.52405 9.64988 3.35605 10.6599 4.41705 11.3699C5.47805 12.0799 6.72205 12.4559 7.99305 12.4559C9.01905 12.4559 10.0291 12.2019 10.9311 11.7179" stroke="black" stroke-width="1.2" stroke-linecap="round" stroke-linejoin="round"/>
<path d="M2 2L14 14" stroke="black" stroke-width="1.2" stroke-linecap="round" stroke-linejoin="round"/>
</svg>
