<svg width="16" height="16" viewBox="0 0 16 16" fill="none" xmlns="http://www.w3.org/2000/svg">
<path d="M8 10.3715V11.5634C8.00005 11.7983 8.06974 12.0279 8.20026 12.2232C8.33078 12.4185 8.51627 12.5707 8.73328 12.6605C8.95029 12.7504 9.18908 12.7739 9.41946 12.7281C9.64983 12.6823 9.86146 12.5692 10.0276 12.4032L10.2748 12.1559M8 5.38478V4.4366C8.00005 4.20171 8.06974 3.97211 8.20026 3.77683C8.33078 3.58154 8.51627 3.42934 8.73328 3.33946C8.95029 3.24958 9.18908 3.22605 9.41946 3.27186C9.64983 3.31767 9.86146 3.43076 10.0276 3.59683L13.591 7.16022C13.8136 7.38297 13.9387 7.68503 13.9387 8C13.9387 8.31496 13.8136 8.61702 13.591 8.83977L12.7618 9.66893" stroke="#C6CAD0" stroke-width="1.2" stroke-linecap="round" stroke-linejoin="round"/>
<path d="M2.061 6.99803V11.5634C2.06105 11.7983 2.13075 12.0279 2.26127 12.2232C2.39179 12.4185 2.57728 12.5707 2.79429 12.6605C3.0113 12.7504 3.25008 12.7739 3.48046 12.7281C3.71084 12.6823 3.92246 12.5692 4.08858 12.4032L6.46394 10.0278" stroke="#C6CAD0" stroke-width="1.2" stroke-linecap="round" stroke-linejoin="round"/>
<path d="M1.5015 2.54385L14.4985 13.4561" stroke="#DCE0E5" stroke-width="1.2" stroke-linecap="round" stroke-linejoin="round"/>
</svg>
