<svg width="16" height="16" viewBox="0 0 16 16" fill="none" xmlns="http://www.w3.org/2000/svg">
<path d="M8 4.4366C8.00005 4.20171 8.06974 3.97211 8.20026 3.77683C8.33078 3.58154 8.51627 3.42934 8.73328 3.33946C8.95029 3.24958 9.18908 3.22605 9.41946 3.27186C9.64983 3.31767 9.86146 3.43076 10.0276 3.59683L13.591 7.16022C13.8136 7.38297 13.9387 7.68503 13.9387 8C13.9387 8.31496 13.8136 8.61702 13.591 8.83977L10.0276 12.4032C9.86146 12.5692 9.64983 12.6823 9.41946 12.7281C9.18908 12.7739 8.95029 12.7504 8.73328 12.6605C8.51627 12.5707 8.33078 12.4185 8.20026 12.2232C8.06974 12.0279 8.00005 11.7983 8 11.5634V4.4366Z" fill="#C6CAD0" fill-opacity="0.15" stroke="#C6CAD0" stroke-width="1.06902" stroke-linecap="round" stroke-linejoin="round"/>
<path d="M2.061 4.4366C2.06105 4.20171 2.13075 3.97211 2.26127 3.77683C2.39179 3.58154 2.57728 3.42934 2.79429 3.33946C3.0113 3.24958 3.25008 3.22605 3.48046 3.27186C3.71084 3.31767 3.92246 3.43076 4.08858 3.59683L7.65197 7.16022C7.87465 7.38297 7.99974 7.68503 7.99974 8C7.99974 8.31496 7.87465 8.61702 7.65197 8.83977L4.08858 12.4032C3.92246 12.5692 3.71084 12.6823 3.48046 12.7281C3.25008 12.7739 3.0113 12.7504 2.79429 12.6605C2.57728 12.5707 2.39179 12.4185 2.26127 12.2232C2.13075 12.0279 2.06105 11.7983 2.061 11.5634V4.4366Z" fill="#C6CAD0" fill-opacity="0.15" stroke="#C6CAD0" stroke-width="1.06902" stroke-linecap="round" stroke-linejoin="round"/>
</svg>
