<svg width="16" height="16" viewBox="0 0 16 16" fill="none" xmlns="http://www.w3.org/2000/svg">
<path fill-rule="evenodd" clip-rule="evenodd" d="M15.9083 3.19699L7.99999 10.3949L0.0916311 3.1969C0.346537 2.49164 1.10447 1.98018 2 1.98018H14C14.8943 1.98018 15.653 2.49168 15.9083 3.19699ZM16 4.7153L12.1526 8.21715L16 11.688V4.7153ZM8.52024 11.5232L11.4199 8.88404L15.9081 12.933C15.6528 13.6378 14.8941 14.1501 14 14.1501H2C1.10461 14.1501 0.346779 13.6378 0.0917535 12.9331L4.58012 8.88404L7.47975 11.5232L7.99999 11.9967L8.52024 11.5232ZM3.84742 8.21715L0 4.71532V11.688L3.84742 8.21715Z" fill="white"/>
</svg>
