<svg width="16" height="16" viewBox="0 0 16 16" fill="none" xmlns="http://www.w3.org/2000/svg">
<path d="M9.875 1.25C10.0686 1.25 10.2549 1.3249 10.3945 1.45898L13.5195 4.45898C13.6668 4.60041 13.75 4.79582 13.75 5V12.7998C13.75 13.327 13.5316 13.8263 13.1533 14.1895C12.7762 14.5515 12.2709 14.75 11.75 14.75H4.25C3.72915 14.75 3.22383 14.5515 2.84668 14.1895C2.46849 13.8264 2.25 13.3271 2.25 12.7998V3.2002C2.25 2.67294 2.46848 2.17365 2.84668 1.81055C3.22388 1.44843 3.72922 1.25 4.25 1.25H9.875ZM5.73242 9.9707C5.31832 9.97084 4.98242 10.3066 4.98242 10.7207C4.98242 11.1348 5.31832 11.4706 5.73242 11.4707H10.2666C10.6808 11.4707 11.0166 11.1349 11.0166 10.7207C11.0166 10.3065 10.6808 9.9707 10.2666 9.9707H5.73242ZM5.73242 7.75C5.31832 7.75013 4.98242 8.08587 4.98242 8.5C4.98242 8.91413 5.31832 9.24987 5.73242 9.25H8.45312C8.86734 9.25 9.20312 8.91421 9.20312 8.5C9.20312 8.08579 8.86734 7.75 8.45312 7.75H5.73242Z" fill="black"/>
</svg>
