<svg width="16" height="16" viewBox="0 0 16 16" fill="none" xmlns="http://www.w3.org/2000/svg">
<path d="M13 11V11.8374C13 11.9431 12.9665 12.046 12.9044 12.1315L12.1498 13.1691C12.0557 13.2985 11.9054 13.375 11.7454 13.375H4.25461C4.09464 13.375 3.94433 13.2985 3.85024 13.1691L3.09563 12.1315C3.03348 12.046 3 11.9431 3 11.8374V3" stroke="black" stroke-width="1.2" stroke-linecap="round"/>
<path d="M3 13V11L8 12H13V13H3Z" fill="black"/>
<path d="M6.63246 3.04418C7.44914 3.31641 8 4.08069 8 4.94155V11.7306C8 12.0924 7.62757 12.3345 7.29693 12.1875L3.79693 10.632C3.61637 10.5518 3.5 10.3727 3.5 10.1751V2.69374C3.5 2.35246 3.83435 2.11148 4.15811 2.2194L6.63246 3.04418Z" stroke="black" stroke-width="1.2" stroke-linecap="round" stroke-linejoin="round"/>
<path d="M9.5 3C8.67157 3 8 3.67157 8 4.5V13C8 12.1954 11.2366 12.0382 12.5017 12.0075C12.7778 12.0008 13 11.7761 13 11.5V3.5C13 3.22386 12.7761 3 12.5 3H9.5Z" stroke="black" stroke-width="1.2" stroke-linecap="round" stroke-linejoin="round"/>
</svg>
