<svg width="16" height="16" viewBox="0 0 16 16" fill="none" xmlns="http://www.w3.org/2000/svg">
<path d="M5 5C5 3.89543 5.89543 3 7 3H9C10.1046 3 11 3.89543 11 5V6H5V5Z" stroke="black" stroke-width="1.2"/>
<path fill-rule="evenodd" clip-rule="evenodd" d="M3.25 6.5C3.25 5.80964 3.80964 5.25 4.5 5.25H11.5C12.1904 5.25 12.75 5.80964 12.75 6.5V12.5C12.75 13.1904 12.1904 13.75 11.5 13.75H4.5C3.80964 13.75 3.25 13.1904 3.25 12.5V6.5ZM8.75 9.66146C8.90559 9.48517 9 9.25361 9 9C9 8.44772 8.55228 8 8 8C7.44772 8 7 8.44772 7 9C7 9.25361 7.09441 9.48517 7.25 9.66146V11C7.25 11.4142 7.58579 11.75 8 11.75C8.41421 11.75 8.75 11.4142 8.75 11V9.66146Z" fill="black"/>
</svg>
