<svg width="16" height="16" viewBox="0 0 16 16" fill="none" xmlns="http://www.w3.org/2000/svg">
<path d="M9.50458 4V6.43334C9.50458 6.77846 9.64168 7.10944 9.88571 7.35348C10.1298 7.59752 10.4607 7.73462 10.8059 7.73462H13.3" stroke="#DCE0E5" stroke-width="1.2" stroke-linejoin="round"/>
<path d="M11.5735 4.65846C11.1797 4.23835 10.6295 4 10.0537 4H6.73749C6.48885 4 6.25039 4.10536 6.07458 4.29289C5.89876 4.48043 5.79999 4.73478 5.79999 5V13C5.79999 13.2652 5.89876 13.5196 6.07458 13.7071C6.25039 13.8946 6.48885 14 6.73749 14H12.3625C12.6111 14 12.8496 13.8946 13.0254 13.7071C13.2012 13.5196 13.3 13.2652 13.3 13V7.32385C13.3 6.79456 13.0985 6.28511 12.7365 5.89897L11.5735 4.65846Z" stroke="#DCE0E5" stroke-width="1.2" stroke-linecap="round" stroke-linejoin="round"/>
<path d="M5.5 12H3.73749C3.48885 12 3.25039 11.8946 3.07458 11.7071C2.89876 11.5196 2.79999 11.2652 2.79999 11V3C2.79999 2.73478 2.89876 2.48043 3.07458 2.29289C3.25039 2.10536 3.48885 2 3.73749 2H7.05367C7.62952 2 8.17969 2.23835 8.57354 2.65846L9.83124 4" stroke="#DCE0E5" stroke-width="1.2" stroke-linecap="round" stroke-linejoin="round"/>
</svg>
