<svg width="16" height="16" viewBox="0 0 16 16" fill="none" xmlns="http://www.w3.org/2000/svg">
<path d="M8.60449 1.7002C9.37841 1.70022 10.1181 2.02036 10.6475 2.58496L12.043 4.07324C12.5294 4.59213 12.7997 5.27703 12.7998 5.98828V12.7998C12.7998 13.1915 12.6544 13.571 12.3896 13.8535C12.1241 14.1367 11.7594 14.2998 11.375 14.2998H4.625C4.24059 14.2998 3.87588 14.1367 3.61035 13.8535C3.34559 13.571 3.2002 13.1915 3.2002 12.7998V3.2002C3.2002 2.80851 3.34559 2.42903 3.61035 2.14648C3.87588 1.86326 4.24059 1.7002 4.625 1.7002H8.60449ZM5.73242 9.9209C5.29071 9.92103 4.93262 10.279 4.93262 10.7207C4.93262 11.1624 5.29071 11.5204 5.73242 11.5205H10.2666C10.7084 11.5205 11.0674 11.1625 11.0674 10.7207C11.0674 10.2789 10.7084 9.9209 10.2666 9.9209H5.73242ZM5.73242 7.7002C5.29071 7.70033 4.93262 8.05825 4.93262 8.5C4.93262 8.94175 5.29071 9.29967 5.73242 9.2998H8.45312C8.89495 9.2998 9.25293 8.94183 9.25293 8.5C9.25293 8.05817 8.89495 7.7002 8.45312 7.7002H5.73242Z" fill="#DCE0E5"/>
</svg>
