<svg width="16" height="16" viewBox="0 0 16 16" fill="none" xmlns="http://www.w3.org/2000/svg">
<path d="M9.84375 1.82227C9.98425 1.84963 10.116 1.91706 10.2207 2.01758L13.0547 4.73828C13.2017 4.87967 13.2851 5.0753 13.2852 5.2793V12.3535C13.2851 12.8509 13.0788 13.322 12.7227 13.6641C12.3674 14.0051 11.8911 14.1913 11.4014 14.1914H4.59961C4.10985 14.1914 3.63367 14.005 3.27832 13.6641C2.92198 13.322 2.71494 12.851 2.71484 12.3535V3.64648C2.71495 3.14898 2.92199 2.67801 3.27832 2.33594C3.63367 1.99498 4.10985 1.80859 4.59961 1.80859H9.70117L9.84375 1.82227ZM5.73242 9.9707C5.31832 9.97084 4.98242 10.3066 4.98242 10.7207C4.98242 11.1348 5.31832 11.4706 5.73242 11.4707H10.2666C10.6808 11.4707 11.0166 11.1349 11.0166 10.7207C11.0166 10.3065 10.6808 9.9707 10.2666 9.9707H5.73242ZM5.73242 7.75C5.31832 7.75013 4.98242 8.08587 4.98242 8.5C4.98242 8.91413 5.31832 9.24987 5.73242 9.25H8.45312C8.86734 9.25 9.20312 8.91421 9.20312 8.5C9.20312 8.08579 8.86734 7.75 8.45312 7.75H5.73242Z" fill="black"/>
</svg>
