<svg width="16" height="16" viewBox="0 0 16 16" fill="none" xmlns="http://www.w3.org/2000/svg">
<path d="M9.70035 2.55853H4.59897C4.29831 2.55853 4.00997 2.67319 3.79737 2.87729C3.58477 3.08138 3.46533 3.35819 3.46533 3.64683V12.3532C3.46533 12.6418 3.58477 12.9186 3.79737 13.1227C4.00997 13.3268 4.29831 13.4415 4.59897 13.4415H11.4008C11.7015 13.4415 11.9898 13.3268 12.2024 13.1227C12.415 12.9186 12.5344 12.6418 12.5344 12.3532V5.27927L9.70035 2.55853Z" stroke="black" stroke-width="1.5" stroke-linecap="round" stroke-linejoin="round"/>
<path d="M8.90698 2.55853V4.97696C8.90698 5.29767 9.03438 5.60523 9.26115 5.83201C9.48793 6.05878 9.79549 6.18618 10.1162 6.18618H12.5346" stroke="black" stroke-width="1.5" stroke-linecap="round" stroke-linejoin="round"/>
<path d="M8.4534 8.5L5.73267 8.5" stroke="black" stroke-width="1.5" stroke-linecap="round" stroke-linejoin="round"/>
<path d="M10.2672 10.7207L5.73267 10.7207" stroke="black" stroke-width="1.5" stroke-linecap="round" stroke-linejoin="round"/>
</svg>
