<svg width="16" height="16" viewBox="0 0 16 16" fill="none" xmlns="http://www.w3.org/2000/svg">
<path d="M3 2.5V3.5M3 3.5V9M3 3.5C3 5.46875 5.96875 5 5.96875 5M3 9C3 11 5.96875 11 5.96875 11M3 9V12.5" stroke="black" stroke-width="1.5" stroke-linecap="round" stroke-linejoin="round"/>
<path d="M12 3H9.5C8.67157 3 8 3.67157 8 4.5V5.5C8 6.32843 8.67157 7 9.5 7H12C12.8284 7 13.5 6.32843 13.5 5.5V4.5C13.5 3.67157 12.8284 3 12 3Z" fill="black"/>
<path d="M12 9H9.5C8.67157 9 8 9.67157 8 10.5V11.5C8 12.3284 8.67157 13 9.5 13H12C12.8284 13 13.5 12.3284 13.5 11.5V10.5C13.5 9.67157 12.8284 9 12 9Z" fill="black"/>
</svg>
