<?xml version="1.0" encoding="UTF-8"?>
<svg xmlns="http://www.w3.org/2000/svg" xmlns:xlink="http://www.w3.org/1999/xlink" width="14px" height="14px" viewBox="0 0 14 14" version="1.1">
<g id="surface1">
<path style="fill:none;stroke-width:1.25;stroke-linecap:round;stroke-linejoin:round;stroke:rgb(47.058824%,49.019608%,52.941176%);stroke-opacity:1;stroke-miterlimit:4;" d="M 10.674107 1.40625 C 10.804688 1.242188 10.690848 1.001116 10.479911 1.001116 L 1.520089 1.001116 C 1.309152 1.001116 1.195312 1.242188 1.325893 1.40625 L 4.145089 4.93192 C 4.342634 5.176339 4.446429 5.481027 4.446429 5.795759 C 4.446429 6.46875 4.446429 9.334821 4.446429 10.503348 C 4.446429 10.777902 4.670759 10.998884 4.948661 10.998884 L 7.051339 10.998884 C 7.329241 10.998884 7.550223 10.777902 7.550223 10.503348 C 7.550223 9.334821 7.550223 6.46875 7.550223 5.795759 C 7.550223 5.481027 7.657366 5.176339 7.854911 4.93192 Z M 10.674107 1.40625 " transform="matrix(1.166667,0,0,1.166667,0,0)"/>
</g>
</svg>
