<svg xmlns="http://www.w3.org/2000/svg" width="16" height="16" fill="none"><path stroke="#000" stroke-linecap="round" stroke-linejoin="round" stroke-width="1.5" d="M5.5 9.868c.474 0 .928-.18 1.263-.5.335-.321.523-.756.523-1.21 0-.944-.357-1.369-.715-2.053C5.806 4.64 6.411 3.331 8 2c.357 1.71 1.429 3.353 2.857 4.447C12.286 7.542 13 8.842 13 10.21c0 .63-.13 1.252-.38 1.833a4.781 4.781 0 0 1-1.084 1.554 5.021 5.021 0 0 1-1.623 1.038 5.191 5.191 0 0 1-3.826 0 5.02 5.02 0 0 1-1.623-1.038 4.78 4.78 0 0 1-1.083-1.554A4.615 4.615 0 0 1 3 10.211c0-.79.31-1.57.714-2.053 0 .454.188.889.523 1.21.335.32.79.5 1.263.5Z"/></svg>
