<svg width="16" height="16" viewBox="0 0 16 16" fill="none" xmlns="http://www.w3.org/2000/svg">
<path opacity="0.7" d="M4.42782 7.2487C4.43495 6.97194 4.65009 6.75 4.91441 6.75H13.5293C13.7935 6.75 14.007 6.97194 13.9998 7.2487C13.9628 8.6885 13.7533 12.75 12.5721 12.75H3.375C4.55631 12.75 4.3907 8.6885 4.42782 7.2487Z" fill="#DCE0E5"/>
<path d="M4.42782 7.2487C4.43495 6.97194 4.65009 6.75 4.91441 6.75H13.5293C13.7935 6.75 14.007 6.97194 13.9998 7.2487C13.9628 8.6885 13.7533 12.75 12.5721 12.75H3.375C4.55631 12.75 4.3907 8.6885 4.42782 7.2487Z" stroke="#DCE0E5" stroke-width="1.2" stroke-linejoin="round"/>
<path d="M5.19598 12.752H3.66515C3.42618 12.752 3.22289 12.4453 3.18626 12.2017L1.94333 3.936C1.89776 3.63293 2.12496 3.35938 2.42223 3.35938H5.78585C6.11241 3.35938 6.41702 3.52901 6.59618 3.81069C6.81354 4.15241 7.19044 4.35937 7.59543 4.35937H9.92811C10.4007 4.35937 10.8044 4.711 10.8836 5.19168L11.1251 6.65622" stroke="#DCE0E5" stroke-width="1.2" stroke-linecap="round" stroke-linejoin="round"/>
</svg>
