<svg width="14" height="14" viewBox="0 0 14 14" fill="none" xmlns="http://www.w3.org/2000/svg">
<path d="M12.3333 2.33333H10L9.33333 1.66666H7.66667C7.29958 1.66666 7 1.96625 7 2.33333V5.66666C7 6.03375 7.29958 6.33333 7.66667 6.33333H12.3333C12.7004 6.33333 13 6.03375 13 5.66666V3C13 2.63291 12.7 2.33333 12.3333 2.33333ZM12.3333 8.33333H10L9.33333 7.66666H7.66667C7.29958 7.66666 7 7.96625 7 8.33333V11.6667C7 12.0337 7.29958 12.3333 7.66667 12.3333H12.3333C12.7004 12.3333 13 12.0337 13 11.6667V9C13 8.63333 12.7 8.33333 12.3333 8.33333ZM2.33333 2C2.33333 1.8151 2.185 1.66666 2 1.66666H1.33333C1.14844 1.66666 1 1.815 1 2V10.3333C1 10.7004 1.29958 11 1.66667 11H6.33333V9.66666H2.33333V5H6.33333V3.66666H2.33333V2Z" fill="white"/>
</svg>
