<svg width="16" height="16" viewBox="0 0 16 16" fill="none" xmlns="http://www.w3.org/2000/svg">
<path d="M14 14.2816L12.5804 12.8621" stroke="#DCE0E5" stroke-width="1.2" stroke-linecap="round" stroke-linejoin="round"/>
<path d="M11.0113 13.5346C12.2491 13.5346 13.2527 12.531 13.2527 11.2932C13.2527 10.0552 12.2491 9.05173 11.0113 9.05173C9.77331 9.05173 8.76978 10.0552 8.76978 11.2932C8.76978 12.531 9.77331 13.5346 11.0113 13.5346Z" stroke="#DCE0E5" stroke-width="1.2" stroke-linecap="round" stroke-linejoin="round"/>
<path d="M6 13H4C2.89543 13 2 12.1046 2 11V5C2 3.89543 2.89543 3 4 3H6.17157C6.70201 3 7.21071 3.21071 7.58579 3.58579L8.41421 4.41421C8.78929 4.78929 9.29799 5 9.82843 5H12C13.1046 5 14 5.89543 14 7V7.5" stroke="#DCE0E5" stroke-width="1.2" stroke-linecap="round"/>
</svg>
