<svg width="16" height="16" viewBox="0 0 16 16" fill="none" xmlns="http://www.w3.org/2000/svg">
<path d="M7.99994 11.3581V7.54178" stroke="#C6CAD0" stroke-width="1.2" stroke-linecap="round" stroke-linejoin="round"/>
<path d="M9.90948 8.98791L7.99999 7.07844L6.09053 8.98791" stroke="#C6CAD0" stroke-width="1.2" stroke-linecap="round" stroke-linejoin="round"/>
<path d="M13.1715 13.387C13.5144 13.387 13.8432 13.2535 14.0858 13.0157C14.3281 12.7781 14.4644 12.4557 14.4644 12.1195V5.78184C14.4644 5.44567 14.3281 5.12328 14.0858 4.88557C13.8432 4.64787 13.5144 4.51432 13.1715 4.51432H8.06464C7.84841 4.5164 7.63512 4.46528 7.44426 4.36563C7.2534 4.26598 7.09108 4.121 6.97217 3.94394L6.44855 3.18342C6.33083 3.00817 6.17058 2.86431 5.98215 2.76476C5.79373 2.6652 5.58304 2.61308 5.36901 2.61304H2.82852C2.48562 2.61304 2.15677 2.74658 1.91433 2.98428C1.67186 3.22199 1.53564 3.54439 1.53564 3.88056V12.1195C1.53564 12.4557 1.67186 12.7781 1.91433 13.0157C2.15677 13.2535 2.48562 13.387 2.82852 13.387H13.1715Z" fill="#D9D9D9" fill-opacity="0.15" stroke="#C6CAD0" stroke-width="1.2" stroke-linecap="round" stroke-linejoin="round"/>
</svg>
