<svg width="16" height="16" viewBox="0 0 16 16" fill="none" xmlns="http://www.w3.org/2000/svg">
<path d="M6 13H4C2.89543 13 2 12.1046 2 11V5C2 3.89543 2.89543 3 4 3H6.17157C6.70201 3 7.21071 3.21071 7.58579 3.58579L8.41421 4.41421C8.78929 4.78929 9.29799 5 9.82843 5H12C13.1046 5 14 5.89543 14 7V7.5" stroke="#DCE0E5" stroke-width="1.2" stroke-linecap="round"/>
<path opacity="0.2" d="M4 13H6H12C13.1046 13 14 12.1046 14 11V7.5V7C14 5.89543 13.1046 5 12 5H9.82843C9.29799 5 8.78929 4.78929 8.41421 4.41421L7.58579 3.58579C7.21071 3.21071 6.70201 3 6.17157 3H4C2.89543 3 2 3.89543 2 5V11C2 12.1046 2.89543 13 4 13Z" fill="#DCE0E5" stroke="#DCE0E5" stroke-width="1.2"/>
<path d="M11.2045 14.4761V9.7034" stroke="#DCE0E5" stroke-width="1.65153" stroke-linecap="round" stroke-linejoin="round"/>
<path d="M13.5926 11.5119L11.2046 9.12396L8.81659 11.5119" stroke="#DCE0E5" stroke-width="1.65153" stroke-linecap="round" stroke-linejoin="round"/>
</svg>
