<svg width="16" height="16" viewBox="0 0 16 16" fill="none" xmlns="http://www.w3.org/2000/svg">
<path d="M6 13H3.2C2.88174 13 2.57651 12.8761 2.35148 12.6554C2.12643 12.4349 2 12.1356 2 11.8236V4.17647C2 3.86445 2.12643 3.56521 2.35148 3.34458C2.57651 3.12395 2.88174 3 3.2 3H5.558C5.75666 3.00004 5.95221 3.04842 6.1271 3.14082C6.30199 3.23322 6.45073 3.36675 6.56 3.52941L7.046 4.2353C7.15637 4.39964 7.30703 4.53421 7.48418 4.6267C7.66133 4.71919 7.8593 4.76664 8.06 4.76471H12.8C13.1183 4.76471 13.4235 4.88866 13.6486 5.10929C13.8735 5.32992 14 5.62916 14 5.94118V7" stroke="black" stroke-width="1.2" stroke-linecap="round" stroke-linejoin="round"/>
<path d="M7.2 11C7.6 10.2 8.4 9.5 9.4 9.2C10.4 8.9 11.5 8.9 12.5 9.2C13.5 9.5 14.3 10.2 14.7 11C14.3 11.8 13.5 12.5 12.5 12.8C11.5 13.1 10.4 13.1 9.4 12.8C8.4 12.5 7.6 11.8 7.2 11Z" stroke="black" stroke-width="1.2" stroke-linecap="round" stroke-linejoin="round"/>
<path d="M10.95 11.7C11.35 11.7 11.65 11.4 11.65 11C11.65 10.6 11.35 10.3 10.95 10.3C10.55 10.3 10.25 10.6 10.25 11C10.25 11.4 10.55 11.7 10.95 11.7Z" stroke="black" stroke-width="1.2" stroke-linecap="round" stroke-linejoin="round"/>
</svg>
