<svg width="16" height="16" viewBox="0 0 16 16" fill="none" xmlns="http://www.w3.org/2000/svg">
<path d="M4.24135 9.23279L5.18103 7.41608C5.28319 7.21319 5.43858 7.0419 5.63058 6.92052C5.82258 6.79914 6.04397 6.73224 6.27106 6.72698H13.0117M13.0117 6.72698C13.2031 6.72664 13.392 6.77016 13.564 6.8542C13.736 6.93824 13.8864 7.06056 14.0037 7.21177C14.1211 7.36298 14.2022 7.53907 14.2409 7.72652C14.2796 7.91397 14.2749 8.10779 14.227 8.29311L13.9858 9.23279M13.0117 6.72698V5.47407C13.0117 5.14178 12.8797 4.8231 12.6447 4.58813C12.4098 4.35317 12.0911 4.22116 11.7588 4.22116H8.04392C7.8365 4.22113 7.63233 4.1696 7.44973 4.07119C7.26714 3.97279 7.11183 3.83059 6.99774 3.65736L6.49032 2.90561C6.37507 2.7306 6.21778 2.58728 6.03282 2.48878C5.84786 2.39028 5.64115 2.33975 5.43161 2.3418H2.98844C2.65615 2.3418 2.33747 2.47381 2.1025 2.70877C1.86754 2.94374 1.73553 3.26242 1.73553 3.59471V11.7386C1.73553 12.0709 1.86754 12.3896 2.1025 12.6245C2.33747 12.8595 2.65615 12.9915 2.98844 12.9915H7.3118" stroke="#C6CAD0" stroke-width="1.2" stroke-linecap="round" stroke-linejoin="round"/>
<path d="M11.6 9.88724L11.6 14.1318" stroke="#C6CAD0" stroke-width="1.2" stroke-linecap="round" stroke-linejoin="round"/>
<path d="M9.47626 12.5234L11.6 14.6471L13.7237 12.5234" stroke="#C6CAD0" stroke-width="1.2" stroke-linecap="round" stroke-linejoin="round"/>
</svg>
