<svg width="8" height="8" viewBox="0 0 8 8" fill="none" xmlns="http://www.w3.org/2000/svg">
<g clip-path="url(#clip0_430_1367)">
<path d="M7.55556 0.888902H6L5.55556 0.444458H4.44444C4.19972 0.444458 4 0.64418 4 0.888902V3.11112C4 3.35585 4.19972 3.55557 4.44444 3.55557H7.55556C7.80028 3.55557 8 3.35585 8 3.11112V1.33335C8 1.08862 7.8 0.888902 7.55556 0.888902ZM7.55556 4.8889H6L5.55556 4.44446H4.44444C4.19972 4.44446 4 4.64418 4 4.8889V7.11112C4 7.35585 4.19972 7.55557 4.44444 7.55557H7.55556C7.80028 7.55557 8 7.35585 8 7.11112V5.33335C8 5.0889 7.8 4.8889 7.55556 4.8889ZM0.888889 0.66668C0.888889 0.543416 0.79 0.444458 0.666667 0.444458H0.222222C0.0989583 0.444458 0 0.543347 0 0.66668V6.22224C0 6.46696 0.199722 6.66668 0.444444 6.66668H3.55556V5.77779H0.888889V2.66668H3.55556V1.77779H0.888889V0.66668Z" fill="white"/>
</g>
<defs>
<clipPath id="clip0_430_1367">
<rect width="8" height="8" fill="white"/>
</clipPath>
</defs>
</svg>
