<svg width="16" height="16" viewBox="0 0 16 16" fill="none" xmlns="http://www.w3.org/2000/svg">
<path d="M14.0001 13.9999L12.7334 12.7333" stroke="black" stroke-width="1.33333" stroke-linecap="round" stroke-linejoin="round"/>
<path d="M11.3333 13.3334C12.4378 13.3334 13.3333 12.4379 13.3333 11.3334C13.3333 10.2288 12.4378 9.33337 11.3333 9.33337C10.2287 9.33337 9.33325 10.2288 9.33325 11.3334C9.33325 12.4379 10.2287 13.3334 11.3333 13.3334Z" stroke="black" stroke-width="1.33333" stroke-linecap="round" stroke-linejoin="round"/>
<path d="M6 12.5H3.6C3.30826 12.5 3.02847 12.3884 2.82218 12.1899C2.61589 11.9913 2.5 11.722 2.5 11.4412V4.55882C2.5 4.27801 2.61589 4.00869 2.82218 3.81012C3.02847 3.61155 3.30826 3.5 3.6 3.5H5.7615C5.94361 3.50003 6.12286 3.54358 6.28317 3.62674C6.44349 3.7099 6.57984 3.83007 6.68 3.97647L7.1255 4.61176C7.22668 4.75967 7.36478 4.88078 7.52717 4.96402C7.68955 5.04727 7.87103 5.08997 8.055 5.08824H12.4C12.6917 5.08824 12.9715 5.19979 13.1778 5.39836C13.3841 5.59693 13.5 5.86624 13.5 6.14706V7" stroke="black" stroke-width="1.5" stroke-linecap="round" stroke-linejoin="round"/>
</svg>
