<svg width="12" height="12" viewBox="0 0 12 12" fill="none" xmlns="http://www.w3.org/2000/svg">
<g clip-path="url(#clip0_430_1286)">
<path d="M11.3333 1.33335H9L8.33333 0.666687H6.66667C6.29958 0.666687 6 0.96627 6 1.33335V4.66669C6 5.03377 6.29958 5.33335 6.66667 5.33335H11.3333C11.7004 5.33335 12 5.03377 12 4.66669V2.00002C12 1.63294 11.7 1.33335 11.3333 1.33335ZM11.3333 7.33335H9L8.33333 6.66669H6.66667C6.29958 6.66669 6 6.96627 6 7.33335V10.6667C6 11.0338 6.29958 11.3334 6.66667 11.3334H11.3333C11.7004 11.3334 12 11.0338 12 10.6667V8.00002C12 7.63335 11.7 7.33335 11.3333 7.33335ZM1.33333 1.00002C1.33333 0.815125 1.185 0.666687 1 0.666687H0.333333C0.148438 0.666687 0 0.81502 0 1.00002V9.33335C0 9.70044 0.299583 10 0.666667 10H5.33333V8.66669H1.33333V4.00002H5.33333V2.66669H1.33333V1.00002Z" fill="white"/>
</g>
<defs>
<clipPath id="clip0_430_1286">
<rect width="12" height="12" fill="white"/>
</clipPath>
</defs>
</svg>
