<svg width="16" height="16" viewBox="0 0 16 16" fill="none" xmlns="http://www.w3.org/2000/svg">
<path d="M14.2222 9.55561H11.8889L10.8156 8.89377C10.6931 8.81672 10.5302 8.77783 10.4062 8.77783H8.77778C8.3483 8.77783 8 9.12613 8 9.55561V13.4445C8 13.874 8.3483 14.2223 8.77778 14.2223H14.2222C14.6517 14.2223 15 13.874 15 13.4445V10.3334C15 9.90318 14.6524 9.55561 14.2222 9.55561ZM13.8333 13.0556H9.16667V9.9445H10.2969L11.2764 10.5487C11.4611 10.6615 11.6726 10.7223 11.8889 10.7223H13.8333V13.0556ZM6.63889 5.66672C6.96215 5.66672 7.22222 5.40665 7.22222 5.08339C7.22222 4.76012 6.96215 4.50005 6.63889 4.50005H2.16667V2.36117C2.16667 2.03887 1.90538 1.77783 1.58333 1.77783C1.26128 1.77783 1 2.03887 1 2.36117V11.3056C1 12.0567 1.60934 12.6667 2.36111 12.6667H6.63889C6.96215 12.6667 7.22222 12.4067 7.22222 12.0834C7.22222 11.7611 6.96094 11.5001 6.63889 11.5001H2.36111C2.25417 11.5001 2.16667 11.4125 2.16667 11.3056V5.66672H6.63889ZM14.2222 2.55561H11.8889L10.8156 1.89377C10.6931 1.81789 10.5302 1.77783 10.4062 1.77783H8.77778C8.3483 1.77783 8 2.12613 8 2.55561V6.4445C8 6.87398 8.3483 7.22228 8.77778 7.22228H14.2222C14.6517 7.22228 15 6.87398 15 6.4445V3.33339C15 2.90391 14.6524 2.55561 14.2222 2.55561ZM13.8333 6.05561H9.16667V2.9445H10.2969L11.2764 3.54873C11.4611 3.66224 11.6726 3.72228 11.8889 3.72228H13.8333V6.05561Z" fill="#7E7E83"/>
</svg>
