<svg width="16" height="16" viewBox="0 0 16 16" fill="none" xmlns="http://www.w3.org/2000/svg">
<path d="M14.2222 2.55555H11.5L10.7222 1.77777H8.77778C8.34951 1.77777 8 2.12728 8 2.55555V6.44444C8 6.8727 8.34951 7.22222 8.77778 7.22222H14.2222C14.6505 7.22222 15 6.8727 15 6.44444V3.33333C15 2.90506 14.65 2.55555 14.2222 2.55555ZM14.2222 9.55555H11.5L10.7222 8.77777H8.77778C8.34951 8.77777 8 9.12729 8 9.55555V13.4444C8 13.8727 8.34951 14.2222 8.77778 14.2222H14.2222C14.6505 14.2222 15 13.8727 15 13.4444V10.3333C15 9.90555 14.65 9.55555 14.2222 9.55555ZM2.55556 2.16666C2.55556 1.95095 2.3825 1.77777 2.16667 1.77777H1.38889C1.17318 1.77777 1 1.95083 1 2.16666V11.8889C1 12.3171 1.34951 12.6667 1.77778 12.6667H7.22222V11.1111H2.55556V5.66666H7.22222V4.1111H2.55556V2.16666Z" fill="white"/>
</svg>
