<svg width="16" height="16" viewBox="0 0 16 16" fill="none" xmlns="http://www.w3.org/2000/svg">
<path d="M10.4889 1.74811C11.3234 1.74811 12 2.42467 12 3.25924C12 4.09382 11.3234 4.77032 10.4889 4.77032C9.92344 4.77032 9.43053 4.45981 9.17144 3.99993H8.4741C7.25904 3.99993 6.27176 4.97512 6.25212 6.18549L6.25176 7.28869C6.87559 6.81941 7.63228 6.56028 8.41283 6.54862L8.4741 6.5481L9.17144 6.5482C9.43053 6.08832 9.92344 5.77776 10.4889 5.77776C11.3234 5.77776 12 6.45432 12 7.28889C12 8.12347 11.3234 8.79998 10.4889 8.79998C9.92344 8.79998 9.43053 8.48947 9.17144 8.02959H8.4741C7.25904 8.02959 6.27176 9.00478 6.25212 10.2151L6.25176 11.4233C6.71164 11.6824 7.0222 12.1753 7.0222 12.7407C7.0222 13.5754 6.34564 14.2519 5.51107 14.2519C4.67654 14.2519 3.99998 13.5753 3.99998 12.7407C3.99998 12.1753 4.3105 11.6824 4.77043 11.4233L4.77032 6.22222C4.77032 4.19713 6.39555 2.55168 8.41283 2.51902L8.4741 2.5185H9.17144C9.43053 2.05872 9.92349 1.74811 10.4889 1.74811ZM5.51107 12.1185C5.16742 12.1185 4.88885 12.3971 4.88885 12.7407C4.88885 13.0844 5.16742 13.363 5.51107 13.363C5.85471 13.363 6.13334 13.0844 6.13334 12.7407C6.13334 12.3971 5.85471 12.1185 5.51107 12.1185ZM10.4889 6.66668C10.1453 6.66668 9.86665 6.94525 9.86665 7.28889C9.86665 7.63254 10.1453 7.91111 10.4889 7.91111C10.8326 7.91111 11.1111 7.63254 11.1111 7.28889C11.1111 6.94525 10.8326 6.66668 10.4889 6.66668ZM10.4889 2.63702C10.1453 2.63702 9.86665 2.9156 9.86665 3.25924C9.86665 3.60289 10.1453 3.88146 10.4889 3.88146C10.8326 3.88146 11.1111 3.60289 11.1111 3.25924C11.1111 2.9156 10.8326 2.63702 10.4889 2.63702Z" fill="#C6CAD0"/>
</svg>
