<svg width="16" height="16" viewBox="0 0 16 16" fill="none" xmlns="http://www.w3.org/2000/svg">
<path d="M11.2308 4.7609V2.92308C11.2308 2.41328 10.8175 2 10.3077 2H2.92308C2.41328 2 2 2.41328 2 2.92308V10.3077C2 10.8175 2.41328 11.2308 2.92308 11.2308H5" stroke="#C6CAD0" stroke-width="1.2"/>
<path d="M13.0769 4.76926H5.6923C5.1825 4.76926 4.76923 5.18253 4.76923 5.69233V13.077C4.76923 13.5868 5.1825 14 5.6923 14H13.0769C13.5867 14 14 13.5868 14 13.077V5.69233C14 5.18253 13.5867 4.76926 13.0769 4.76926Z" stroke="#C6CAD0" stroke-width="1.2"/>
<path d="M6.15385 7.07693H8.92308V8.00001H6.15385V7.07693Z" fill="#C6CAD0"/>
<path d="M9.84615 7.07693H12.6154V8.00001H9.84615V7.07693Z" fill="#C6CAD0"/>
<path d="M6.15385 10.3077H7.07692V9.38461H8V10.3077H8.92308V11.2308H8V12.1538H7.07692V11.2308H6.15385V10.3077Z" fill="#C6CAD0"/>
<path d="M9.84615 10.3077H10.7692V9.38461H11.6923V10.3077H12.6154V11.2308H11.6923V12.1538H10.7692V11.2308H9.84615V10.3077Z" fill="#C6CAD0"/>
</svg>
