<svg width="12" height="12" viewBox="0 0 12 12" fill="none" xmlns="http://www.w3.org/2000/svg">
<path fill-rule="evenodd" clip-rule="evenodd" d="M3.75 3.25C4.02614 3.25 4.25 3.02614 4.25 2.75C4.25 2.47386 4.02614 2.25 3.75 2.25C3.47386 2.25 3.25 2.47386 3.25 2.75C3.25 3.02614 3.47386 3.25 3.75 3.25ZM3.75 4.25C4.57843 4.25 5.25 3.57843 5.25 2.75C5.25 1.92157 4.57843 1.25 3.75 1.25C2.92157 1.25 2.25 1.92157 2.25 2.75C2.25 3.57843 2.92157 4.25 3.75 4.25Z" fill="black"/>
<path fill-rule="evenodd" clip-rule="evenodd" d="M8.25 3.25C8.52614 3.25 8.75 3.02614 8.75 2.75C8.75 2.47386 8.52614 2.25 8.25 2.25C7.97386 2.25 7.75 2.47386 7.75 2.75C7.75 3.02614 7.97386 3.25 8.25 3.25ZM8.25 4.25C9.07843 4.25 9.75 3.57843 9.75 2.75C9.75 1.92157 9.07843 1.25 8.25 1.25C7.42157 1.25 6.75 1.92157 6.75 2.75C6.75 3.57843 7.42157 4.25 8.25 4.25Z" fill="black"/>
<path fill-rule="evenodd" clip-rule="evenodd" d="M3.75 9.75C4.02614 9.75 4.25 9.52614 4.25 9.25C4.25 8.97386 4.02614 8.75 3.75 8.75C3.47386 8.75 3.25 8.97386 3.25 9.25C3.25 9.52614 3.47386 9.75 3.75 9.75ZM3.75 10.75C4.57843 10.75 5.25 10.0784 5.25 9.25C5.25 8.42157 4.57843 7.75 3.75 7.75C2.92157 7.75 2.25 8.42157 2.25 9.25C2.25 10.0784 2.92157 10.75 3.75 10.75Z" fill="black"/>
<path fill-rule="evenodd" clip-rule="evenodd" d="M3.25 3.75H4.25V5.59609C4.67823 5.35824 5.24991 5.25 6 5.25H7.25017C7.5262 5.25 7.75 5.02625 7.75 4.75V3.75H8.75V4.75C8.75 5.57832 8.07871 6.25 7.25017 6.25H6C5.14559 6.25 4.77639 6.41132 4.59684 6.56615C4.42571 6.71373 4.33877 6.92604 4.25 7.30651V8.25H3.25V3.75Z" fill="black"/>
</svg>
