<svg width="8" height="8" viewBox="0 0 8 8" fill="none" xmlns="http://www.w3.org/2000/svg">
<g clip-path="url(#clip0_614_97)">
<path d="M5 7.62515C5 7.77359 4.9125 7.90796 4.77812 7.96734C4.64219 8.02828 4.47031 8.00328 4.37344 7.90328L3.12344 6.77828C3.04531 6.70796 3 6.6064 3 6.50015C3 6.3939 3.04531 6.29234 3.12344 6.22203L4.37344 5.09703C4.47031 4.99703 4.64219 4.97203 4.77812 5.03296C4.9125 5.09234 5 5.22671 5 5.37515V6.00015H5.25C5.80156 6.00015 6.25 5.55171 6.25 5.00015V2.39546C5.80781 2.18921 5.5 1.76265 5.5 1.25015C5.5 0.559838 6.05937 0.000150232 6.75 0.000150232C7.44063 0.000134607 8 0.559838 8 1.25015C8 1.76265 7.69219 2.18921 7.25 2.39546V5.00015C7.25 6.10484 6.35469 7.00015 5.25 7.00015H5V7.62515ZM7.125 1.23609C7.125 1.04296 6.95781 0.861088 6.75 0.861088C6.54219 0.861088 6.375 1.04296 6.375 1.23609C6.375 1.45718 6.54219 1.61109 6.75 1.61109C6.95781 1.61109 7.125 1.45718 7.125 1.23609ZM3 0.37515C3 0.227025 3.0875 0.0928065 3.22187 0.032494C3.35781 -0.0278185 3.51563 -0.00281852 3.62656 0.096244L4.87656 1.22123C4.95469 1.29232 5 1.39373 5 1.49998C5 1.60623 4.95469 1.70779 4.87656 1.7781L3.62656 2.9031C3.51563 3.0031 3.35781 3.0281 3.22187 2.96717C3.0875 2.90779 3 2.77342 3 2.62498V1.99998H2.75C2.19844 1.99998 1.75 2.44842 1.75 2.99998V5.60467C2.19219 5.79685 2.5 6.23748 2.5 6.74998C2.5 7.4406 1.94063 7.99998 1.25 7.99998C0.559687 7.99998 0 7.4406 0 6.74998C0 6.23748 0.308594 5.79685 0.75 5.60467V2.99998C0.75 1.89529 1.64531 0.999978 2.75 0.999978H3V0.374978V0.37515ZM0.875 6.75015C0.875 6.95796 1.04297 7.12515 1.25 7.12515C1.45703 7.12515 1.625 6.95796 1.625 6.75015C1.625 6.54234 1.45703 6.37515 1.25 6.37515C1.04297 6.37515 0.875 6.54234 0.875 6.75015Z" fill="white"/>
</g>
<defs>
<clipPath id="clip0_614_97">
<rect width="8" height="8" fill="white"/>
</clipPath>
</defs>
</svg>
