<svg width="16" height="16" viewBox="0 0 16 16" fill="none" xmlns="http://www.w3.org/2000/svg">
<path d="M4.5 14C5.32843 14 6 13.3284 6 12.5C6 11.6716 5.32843 11 4.5 11C3.67157 11 3 11.6716 3 12.5C3 13.3284 3.67157 14 4.5 14Z" stroke="black" stroke-width="1.5"/>
<path d="M4.5 11V5.5" stroke="black" stroke-width="1.5"/>
<path d="M4.5 10C4.5 10 4.875 8 6.5 8C7.29195 8 9.00787 8 9.87553 8C10.773 8 11.5 7.32843 11.5 6.5V5.5" stroke="black" stroke-width="1.5"/>
<path d="M4.5 6C5.32843 6 6 5.32843 6 4.5C6 3.67157 5.32843 3 4.5 3C3.67157 3 3 3.67157 3 4.5C3 5.32843 3.67157 6 4.5 6Z" stroke="black" stroke-width="1.5"/>
<path d="M11.5 6C12.3284 6 13 5.32843 13 4.5C13 3.67157 12.3284 3 11.5 3C10.6716 3 10 3.67157 10 4.5C10 5.32843 10.6716 6 11.5 6Z" stroke="black" stroke-width="1.5"/>
</svg>
