<svg width="400" height="120" xmlns="http://www.w3.org/2000/svg">
  <defs>
    <pattern id="tilePattern" width="124" height="24" patternUnits="userSpaceOnUse">
      <svg width="124" height="24" viewBox="0 0 124 24" fill="none" xmlns="http://www.w3.org/2000/svg">
        <g opacity="0.2">
          <path d="M16.666 12.0013L11.9993 16.668L7.33268 12.0013" stroke="white" stroke-width="1.6" stroke-linecap="round" stroke-linejoin="round"/>
          <path d="M12 7.33464L12 16.668" stroke="white" stroke-width="1.6" stroke-linecap="round" stroke-linejoin="round"/>
          <path fill-rule="evenodd" clip-rule="evenodd" d="M29 8.33464C29.3682 8.33464 29.6667 8.03616 29.6667 7.66797C29.6667 7.29978 29.3682 7.0013 29 7.0013C28.6318 7.0013 28.3333 7.29978 28.3333 7.66797C28.3333 8.03616 28.6318 8.33464 29 8.33464ZM29 9.66797C30.1046 9.66797 31 8.77254 31 7.66797C31 6.5634 30.1046 5.66797 29 5.66797C27.8954 5.66797 27 6.5634 27 7.66797C27 8.77254 27.8954 9.66797 29 9.66797Z" fill="white"/>
          <path fill-rule="evenodd" clip-rule="evenodd" d="M35 8.33464C35.3682 8.33464 35.6667 8.03616 35.6667 7.66797C35.6667 7.29978 35.3682 7.0013 35 7.0013C34.6318 7.0013 34.3333 7.29978 34.3333 7.66797C34.3333 8.03616 34.6318 8.33464 35 8.33464ZM35 9.66797C36.1046 9.66797 37 8.77254 37 7.66797C37 6.5634 36.1046 5.66797 35 5.66797C33.8954 5.66797 33 6.5634 33 7.66797C33 8.77254 33.8954 9.66797 35 9.66797Z" fill="white"/>
          <path fill-rule="evenodd" clip-rule="evenodd" d="M29 16.9987C29.3682 16.9987 29.6667 16.7002 29.6667 16.332C29.6667 15.9638 29.3682 15.6654 29 15.6654C28.6318 15.6654 28.3333 15.9638 28.3333 16.332C28.3333 16.7002 28.6318 16.9987 29 16.9987ZM29 18.332C30.1046 18.332 31 17.4366 31 16.332C31 15.2275 30.1046 14.332 29 14.332C27.8954 14.332 27 15.2275 27 16.332C27 17.4366 27.8954 18.332 29 18.332Z" fill="white"/>
          <path fill-rule="evenodd" clip-rule="evenodd" d="M28.334 9H29.6673V11.4615C30.2383 11.1443 31.0005 11 32.0007 11H33.6675C34.0356 11 34.334 10.7017 34.334 10.3333V9H35.6673V10.3333C35.6673 11.4378 34.7723 12.3333 33.6675 12.3333H32.0007C30.8614 12.3333 30.3692 12.5484 30.1298 12.7549C29.9016 12.9516 29.7857 13.2347 29.6673 13.742V15H28.334V9Z" fill="white"/>
          <path d="M48.668 8.66406H55.3346V15.3307" stroke="white" stroke-width="1.6" stroke-linecap="round" stroke-linejoin="round"/>
          <path d="M48.668 15.3307L55.3346 8.66406" stroke="white" stroke-width="1.6" stroke-linecap="round" stroke-linejoin="round"/>
          <path d="M76.5871 9.40624C76.8514 9.14195 77 8.78346 77 8.40965C77 8.03583 76.8516 7.67731 76.5873 7.41295C76.323 7.14859 75.9645 7.00005 75.5907 7C75.2169 6.99995 74.8584 7.14841 74.594 7.4127L67.921 14.0874C67.8049 14.2031 67.719 14.3456 67.671 14.5024L67.0105 16.6784C66.9975 16.7217 66.9966 16.7676 67.0076 16.8113C67.0187 16.8551 67.0414 16.895 67.0734 16.9269C67.1053 16.9588 67.1453 16.9815 67.1891 16.9925C67.2328 17.0035 67.2788 17.0024 67.322 16.9894L69.4985 16.3294C69.6551 16.2818 69.7976 16.1964 69.9135 16.0809L76.5871 9.40624Z" stroke="white" stroke-width="1.33" stroke-linecap="round" stroke-linejoin="round"/>
          <path d="M74 8L76 10" stroke="white" stroke-width="1.33" stroke-linecap="round" stroke-linejoin="round"/>
          <path d="M70.3877 7.53516V6.53516" stroke="white" stroke-width="1.2" stroke-linecap="round" stroke-linejoin="round"/>
          <path d="M73.5693 16.6992V17.6992" stroke="white" stroke-width="1.2" stroke-linecap="round" stroke-linejoin="round"/>
          <path d="M66.3877 10.5352H67.3877" stroke="white" stroke-width="1.2" stroke-linecap="round" stroke-linejoin="round"/>
          <path d="M77.5693 13.6992H76.5693" stroke="white" stroke-width="1.2" stroke-linecap="round" stroke-linejoin="round"/>
          <path d="M68.3877 8.53516L67.3877 7.53516" stroke="white" stroke-width="1.2" stroke-linecap="round" stroke-linejoin="round"/>
          <path d="M75.5693 15.6992L76.5693 16.6992" stroke="white" stroke-width="1.2" stroke-linecap="round" stroke-linejoin="round"/>
          <path d="M87.334 11.9987L92.0007 7.33203L96.6673 11.9987" stroke="white" stroke-width="1.6" stroke-linecap="round" stroke-linejoin="round"/>
          <path d="M92 16.6654V7.33203" stroke="white" stroke-width="1.6" stroke-linecap="round" stroke-linejoin="round"/>
          <path d="M117 12C117 10.6739 116.473 9.40215 115.536 8.46447C114.598 7.52678 113.326 7 112 7C110.602 7.00526 109.261 7.55068 108.256 8.52222L107 9.77778" stroke="white" stroke-width="1.6" stroke-linecap="round" stroke-linejoin="round"/>
          <path d="M107 7V9.77778H109.778" stroke="white" stroke-width="1.6" stroke-linecap="round" stroke-linejoin="round"/>
          <path d="M107 12C107 13.3261 107.527 14.5979 108.464 15.5355C109.402 16.4732 110.674 17 112 17C113.398 16.9947 114.739 16.4493 115.744 15.4778L117 14.2222" stroke="white" stroke-width="1.6" stroke-linecap="round" stroke-linejoin="round"/>
          <path d="M114.223 14.2188H117V16.9965" stroke="white" stroke-width="1.6" stroke-linecap="round" stroke-linejoin="round"/>
        </g>
      </svg>
    </pattern>
    <linearGradient id="fade" y2="1" x2="0">
      <stop offset="0" stop-color="white" stop-opacity=".52"/>
      <stop offset="1" stop-color="white" stop-opacity="0"/>
    </linearGradient>
    <mask id="fadeMask" maskContentUnits="objectBoundingBox">
      <rect width="1" height="1" fill="url(#fade)"/>
    </mask>
  </defs>
  <rect width="100%" height="100%" fill="url(#tilePattern)" mask="url(#fadeMask)"/>
</svg>
