<svg width="12" height="12" viewBox="0 0 12 12" fill="none" xmlns="http://www.w3.org/2000/svg">
<g clip-path="url(#clip0_614_70)">
<path d="M7.49977 11.4374C7.49977 11.66 7.36852 11.8616 7.16696 11.9506C6.96306 12.042 6.70526 12.0045 6.55995 11.8545L4.68501 10.1671C4.56783 10.0616 4.49986 9.90929 4.49986 9.74992C4.49986 9.59055 4.56783 9.43821 4.68501 9.33275L6.55995 7.6453C6.70526 7.4953 6.96306 7.45781 7.16696 7.54921C7.36852 7.63827 7.49977 7.83982 7.49977 8.06247V8.99994H7.87475C8.70207 8.99994 9.37471 8.32731 9.37471 7.49999V3.59308C8.71145 3.28372 8.24974 2.64389 8.24974 1.87517C8.24974 0.83973 9.08878 0.000225341 10.1247 0.000225341C11.1606 0.000201904 11.9996 0.83973 11.9996 1.87517C11.9996 2.64389 11.5379 3.28372 10.8747 3.59308V7.49999C10.8747 9.15697 9.53173 10.4999 7.87475 10.4999H7.49977V11.4374ZM10.6872 1.85407C10.6872 1.5644 10.4364 1.29159 10.1247 1.29159C9.81297 1.29159 9.5622 1.5644 9.5622 1.85407C9.5622 2.1857 9.81297 2.41656 10.1247 2.41656C10.4364 2.41656 10.6872 2.1857 10.6872 1.85407ZM4.49986 0.562708C4.49986 0.340527 4.63111 0.139205 4.83266 0.0487395C5.03656 -0.0417265 5.27327 -0.00422764 5.43967 0.144361L7.31462 1.83179C7.4318 1.93842 7.49977 2.09053 7.49977 2.2499C7.49977 2.40927 7.4318 2.56161 7.31462 2.66707L5.43967 4.35452C5.27327 4.50451 5.03656 4.54201 4.83266 4.45061C4.63111 4.36155 4.49986 4.15999 4.49986 3.93734V2.99987H4.12487C3.29755 2.99987 2.62492 3.67251 2.62492 4.49983V8.40674C3.28818 8.69501 3.74988 9.35593 3.74988 10.1247C3.74988 11.1606 2.91085 11.9996 1.87494 11.9996C0.839505 11.9996 0 11.1606 0 10.1247C0 9.35593 0.462876 8.69501 1.12496 8.40674V4.49983C1.12496 2.84285 2.46789 1.49992 4.12487 1.49992H4.49986V0.56245V0.562708ZM1.31246 10.1249C1.31246 10.4366 1.5644 10.6874 1.87494 10.6874C2.18548 10.6874 2.43742 10.4366 2.43742 10.1249C2.43742 9.8132 2.18548 9.56243 1.87494 9.56243C1.5644 9.56243 1.31246 9.8132 1.31246 10.1249Z" fill="white"/>
</g>
<defs>
<clipPath id="clip0_614_70">
<rect width="12" height="12" fill="white"/>
</clipPath>
</defs>
</svg>
