<svg width="16" height="16" viewBox="0 0 16 16" fill="none" xmlns="http://www.w3.org/2000/svg">
<path d="M7.99567 13.0812C8.93101 13.0812 9.68925 12.3229 9.68925 11.3876C9.68925 10.4522 8.93101 9.694 7.99567 9.694C7.06033 9.694 6.30209 10.4522 6.30209 11.3876C6.30209 12.3229 7.06033 13.0812 7.99567 13.0812Z" stroke="#A9AFBC" stroke-width="1.2" stroke-linecap="round" stroke-linejoin="round"/>
<path d="M4.61023 6.30643C5.54557 6.30643 6.30381 5.54819 6.30381 4.61286C6.30381 3.67752 5.54557 2.91928 4.61023 2.91928C3.6749 2.91928 2.91666 3.67752 2.91666 4.61286C2.91666 5.54819 3.6749 6.30643 4.61023 6.30643Z" stroke="#A9AFBC" stroke-width="1.2" stroke-linecap="round" stroke-linejoin="round"/>
<path d="M11.3915 6.30643C12.3268 6.30643 13.0851 5.54819 13.0851 4.61286C13.0851 3.67752 12.3268 2.91928 11.3915 2.91928C10.4561 2.91928 9.69791 3.67752 9.69791 4.61286C9.69791 5.54819 10.4561 6.30643 11.3915 6.30643Z" stroke="#A9AFBC" stroke-width="1.2" stroke-linecap="round" stroke-linejoin="round"/>
<path d="M11.3889 6.306V7.43505C11.3889 7.77377 11.1631 7.99958 10.8244 7.99958H5.17912C4.8404 7.99958 4.61459 7.77377 4.61459 7.43505V6.306" stroke="#A9AFBC" stroke-width="1.2" stroke-linecap="round" stroke-linejoin="round"/>
<path d="M8 8V9.69358" stroke="#A9AFBC" stroke-width="1.2" stroke-linecap="round" stroke-linejoin="round"/>
</svg>
