<svg width="16" height="16" viewBox="0 0 16 16" fill="none" xmlns="http://www.w3.org/2000/svg">
<path d="M4.5 13C5.32843 13 6 12.3284 6 11.5C6 10.6716 5.32843 10 4.5 10C3.67157 10 3 10.6716 3 11.5C3 12.3284 3.67157 13 4.5 13Z" stroke="#C6CAD0" stroke-width="1.2"/>
<path d="M11.5 6C12.3284 6 13 5.3284 13 4.5C13 3.6716 12.3284 3 11.5 3C10.6716 3 10 3.6716 10 4.5C10 5.3284 10.6716 6 11.5 6Z" stroke="#C6CAD0" stroke-width="1.2"/>
<path d="M4.5 10L4.5 3" stroke="#C6CAD0" stroke-width="1.2" stroke-linecap="round"/>
<path d="M10 4.44133C8.54131 4.44133 7.14236 5.02697 6.11091 6.06943C5.07946 7.11188 4.5 8.52575 4.5 10" stroke="#C6CAD0" stroke-width="1.2" stroke-linecap="round" stroke-linejoin="round"/>
</svg>
