<svg width="16" height="16" viewBox="0 0 16 16" fill="none" xmlns="http://www.w3.org/2000/svg">
<path d="M3.45524 3.60059C3.31116 3.60059 3.14899 3.61226 2.96524 3.65192C2.77099 3.69276 2.21858 3.81701 1.76707 4.25101C0.764907 5.14467 1.02041 6.56509 1.05191 6.77917C1.08982 7.03934 1.20532 7.76326 1.75774 8.39384C2.77799 9.64276 4.97366 9.61418 4.97366 9.61418C4.97366 9.61418 5.24316 10.2576 5.65499 10.8503C6.21208 11.587 6.78433 12.1616 7.34083 12.231C8.74433 12.231 11.5478 12.2287 11.5478 12.2287C11.5478 12.2287 11.815 12.231 12.1778 11.9988C12.4899 11.8098 12.7687 11.4779 12.7687 11.4779C12.7687 11.4779 13.0557 11.1705 13.4571 10.4688C13.5796 10.2529 13.6817 10.0435 13.7709 9.84576C13.7709 9.84576 15 7.23768 15 4.69901C14.9755 3.93017 14.7859 3.79484 14.7416 3.74992C14.6506 3.65892 14.5281 3.66067 14.5281 3.66067C14.5281 3.66067 11.9177 3.80767 10.5661 3.83917C10.2697 3.84559 9.97575 3.85259 9.68408 3.85492V6.46476L9.31425 6.28917C9.31425 5.47834 9.31191 3.85667 9.31191 3.85667C8.66616 3.86601 7.32566 3.80767 7.32566 3.80767C7.32566 3.80767 4.17624 3.65017 3.83324 3.61867C3.72416 3.61226 3.59933 3.60059 3.45524 3.60059ZM3.66174 4.66926H3.72649C3.72649 4.66926 3.88458 5.99284 4.07649 6.76751C4.23691 7.41792 4.62833 8.49884 4.62833 8.49884C4.62833 8.49884 4.04733 8.42943 3.67108 8.29584C3.09358 8.10684 2.84916 7.87934 2.84916 7.87934C2.84916 7.87934 2.42333 7.58126 2.20983 6.99268C1.84232 6.00801 2.17891 5.40717 2.17891 5.40717C2.17891 5.40717 2.36558 4.90609 3.03641 4.73926C3.26683 4.67742 3.53983 4.66926 3.66174 4.66926ZM8.52091 6.15909C8.67258 6.16084 8.81783 6.23317 8.81783 6.23317L9.32416 6.47934L9.01558 7.10642C8.94244 7.10526 8.87038 7.12417 8.80724 7.16109C8.74409 7.19801 8.69227 7.25153 8.65741 7.31584C8.62013 7.3853 8.60423 7.46422 8.61171 7.5427C8.61918 7.62117 8.64969 7.69567 8.69941 7.75684L8.15166 8.87918C8.0625 8.88053 7.97631 8.91146 7.90663 8.9671C7.83695 9.02274 7.78772 9.09994 7.76666 9.18659C7.74656 9.27272 7.75551 9.36308 7.79213 9.44358C7.82874 9.52409 7.89096 9.59022 7.96908 9.63168C8.05388 9.67515 8.15141 9.68693 8.24412 9.6649C8.33684 9.64287 8.41864 9.58848 8.47483 9.51151C8.52969 9.43471 8.55573 9.34103 8.54837 9.24693C8.541 9.15284 8.50072 9.06435 8.43458 8.99701L8.96891 7.90384C9.01532 7.90827 9.06215 7.90432 9.10716 7.89218C9.16538 7.87825 9.21952 7.85088 9.26525 7.81226C9.46902 7.89896 9.66699 7.99873 9.85791 8.11093C9.92725 8.14983 9.98487 8.20664 10.0247 8.27543C10.0673 8.39793 9.98216 8.60734 9.98216 8.60734C9.93141 8.77651 9.57266 9.51151 9.57266 9.51151C9.48573 9.50923 9.40039 9.53508 9.32933 9.58521C9.25828 9.63535 9.20532 9.70709 9.17833 9.78976C9.15763 9.85611 9.15471 9.92673 9.16985 9.99456C9.18498 10.0624 9.21765 10.1251 9.26459 10.1763C9.31153 10.2276 9.3711 10.2656 9.43734 10.2867C9.50359 10.3077 9.57419 10.311 9.6421 10.2962C9.71001 10.2814 9.77285 10.2491 9.82435 10.2024C9.87585 10.1557 9.9142 10.0963 9.93557 10.0302C9.95694 9.96406 9.96058 9.89347 9.94614 9.82548C9.93169 9.7575 9.89966 9.69449 9.85325 9.64276C9.89583 9.56051 9.9355 9.47826 9.97808 9.39134C10.0889 9.15976 10.2785 8.71468 10.2785 8.71468C10.2989 8.67618 10.4057 8.48484 10.3386 8.23984C10.2832 7.98609 10.0586 7.86768 10.0586 7.86768C9.78616 7.69209 9.40758 7.52934 9.40758 7.52934C9.40758 7.52934 9.40758 7.43834 9.38308 7.37184C9.36435 7.31951 9.33495 7.27164 9.29675 7.23126L9.59775 6.61176L11.2836 7.42901C11.2836 7.42901 11.5636 7.55618 11.6237 7.79009C11.6662 7.95459 11.6126 8.10159 11.5834 8.17334C11.4434 8.51576 10.3584 10.6916 10.3584 10.6916C10.3584 10.6916 10.2231 11.0148 9.92208 11.0346C9.8447 11.0402 9.76694 11.0313 9.69283 11.0083L9.575 10.9617L7.06083 9.73668C7.06083 9.73668 6.81758 9.60951 6.77499 9.38901C6.72658 9.20818 6.83566 8.98593 6.83566 8.98593L8.04491 6.49392C8.04491 6.49392 8.15166 6.27809 8.31675 6.20401C8.38086 6.17478 8.45045 6.15947 8.52091 6.15909Z" fill="#C6CAD0"/>
</svg>
