<svg xmlns="http://www.w3.org/2000/svg" width="16" height="16" fill="none"><path stroke="#000" stroke-linecap="round" stroke-linejoin="round" stroke-width="1.2" d="M9.849 14.288v-2.515a3.018 3.018 0 0 0-.629-2.201c1.887 0 3.773-1.258 3.773-3.459.05-.786-.17-1.559-.629-2.2a4.65 4.65 0 0 0 0-2.201s-.629 0-1.886.943a13.533 13.533 0 0 0-5.03 0c-1.259-.943-1.887-.943-1.887-.943a4.35 4.35 0 0 0 0 2.2 3.398 3.398 0 0 0-.63 2.201c0 2.201 1.887 3.459 3.774 3.459a2.965 2.965 0 0 0-.63 2.2v2.516"/><path stroke="#000" stroke-linecap="round" stroke-linejoin="round" stroke-width="1.2" d="M6.076 11.773c-2.836 1.258-3.144-1.258-4.402-1.258"/></svg>
