<svg width="16" height="16" viewBox="0 0 16 16" fill="none" xmlns="http://www.w3.org/2000/svg">
<path d="M14.0228 6.75008L14.0053 6.70533L12.3092 2.27915C12.2747 2.19237 12.2136 2.11876 12.1347 2.06887C12.0557 2.01987 11.9636 1.99627 11.8708 2.00128C11.7779 2.00628 11.6889 2.03964 11.6156 2.09686C11.5432 2.15571 11.4906 2.23546 11.4651 2.32525L10.32 5.82877H5.68303L4.53784 2.32525C4.513 2.23496 4.46031 2.1548 4.38727 2.09618C4.31401 2.03898 4.22496 2.00564 4.13214 2.00065C4.03932 1.99567 3.94721 2.01928 3.86824 2.0683C3.78948 2.11837 3.72842 2.1919 3.69368 2.27852L1.99452 6.70273L1.97764 6.74748C1.73349 7.38539 1.70335 8.08539 1.89177 8.74192C2.08018 9.39845 2.47694 9.97594 3.02221 10.3873L3.02808 10.3918L3.04365 10.4029L5.62716 12.3376L6.90542 13.305L7.68395 13.8928C7.77502 13.9619 7.88623 13.9994 8.00058 13.9994C8.11493 13.9994 8.22613 13.9619 8.31721 13.8928L9.09574 13.305L10.3739 12.3376L12.973 10.3912L12.9795 10.386C13.5236 9.97456 13.9194 9.39768 14.1075 8.74203C14.2957 8.08638 14.2659 7.38738 14.0228 6.75008Z" fill="#C6CAD0"/>
</svg>
