<svg width="17" height="17" viewBox="0 0 17 17" fill="none" xmlns="http://www.w3.org/2000/svg">
<path fill-rule="evenodd" clip-rule="evenodd" d="M12.6231 2.14872C12.65 1.80459 12.3928 1.50382 12.0487 1.47694C11.7046 1.45005 11.4038 1.70723 11.3769 2.05136L11.1563 4.87503H6.41012L6.6231 2.14871C6.64999 1.80458 6.39281 1.50382 6.04868 1.47694C5.70455 1.45005 5.40378 1.70723 5.3769 2.05136L5.15631 4.87503H2.10004C1.75486 4.87503 1.47504 5.15485 1.47504 5.50003C1.47504 5.84521 1.75486 6.12503 2.10004 6.12503H5.05866L4.68759 10.875H2.10004C1.75486 10.875 1.47504 11.1549 1.47504 11.5C1.47504 11.8452 1.75486 12.125 2.10004 12.125H4.58994L4.37696 14.8514C4.35008 15.1955 4.60725 15.4963 4.95138 15.5231C5.29551 15.55 5.59628 15.2928 5.62316 14.9487L5.84375 12.125H10.5899L10.3769 14.8514C10.35 15.1955 10.6072 15.4963 10.9513 15.5231C11.2954 15.55 11.5962 15.2928 11.6231 14.9487L11.8437 12.125H14.9C15.2452 12.125 15.525 11.8452 15.525 11.5C15.525 11.1549 15.2452 10.875 14.9 10.875H11.9414L12.3125 6.12503H14.9C15.2452 6.12503 15.525 5.84521 15.525 5.50003C15.525 5.15485 15.2452 4.87503 14.9 4.87503H12.4101L12.6231 2.14872ZM10.6875 10.875L11.0586 6.12503H6.31247L5.9414 10.875H10.6875Z" fill="black"/>
</svg>
