<svg width="16" height="16" viewBox="0 0 16 16" fill="none" xmlns="http://www.w3.org/2000/svg">
<path d="M12.3329 11.0949V3.66708C12.3329 3.33875 12.2025 3.02387 11.9703 2.7917C11.7381 2.55954 11.4233 2.42911 11.0949 2.42911H3.0481" stroke="#C6CAD0" stroke-width="1.2" stroke-linecap="round" stroke-linejoin="round"/>
<path d="M5.52407 13.5709H12.9519C13.2802 13.5709 13.5951 13.4404 13.8273 13.2083C14.0595 12.9761 14.1899 12.6612 14.1899 12.3329V11.7139C14.1899 11.5497 14.1247 11.3923 14.0086 11.2762C13.8925 11.1601 13.7351 11.0949 13.5709 11.0949H7.38103C7.21687 11.0949 7.05943 11.1601 6.94334 11.2762C6.82726 11.3923 6.76205 11.5497 6.76205 11.7139V12.3329C6.76205 12.6612 6.63162 12.9761 6.39945 13.2083C6.16729 13.4404 5.8524 13.5709 5.52407 13.5709ZM5.52407 13.5709C5.19574 13.5709 4.88086 13.4404 4.64869 13.2083C4.41653 12.9761 4.2861 12.6612 4.2861 12.3329V3.66708C4.2861 3.33875 4.15567 3.02387 3.9235 2.7917C3.69134 2.55954 3.37646 2.42911 3.04812 2.42911C2.71979 2.42911 2.40491 2.55954 2.17274 2.7917C1.94058 3.02387 1.81015 3.33875 1.81015 3.66708V4.90506C1.81015 5.06922 1.87536 5.22666 1.99145 5.34275C2.10753 5.45883 2.26497 5.52404 2.42914 5.52404H4.2861" stroke="#C6CAD0" stroke-width="1.2" stroke-linecap="round" stroke-linejoin="round"/>
</svg>
