<svg width="12" height="12" viewBox="0 0 12 12" fill="none" xmlns="http://www.w3.org/2000/svg">
<path d="M1.5 6C1.5 6.89002 1.76392 7.76004 2.25839 8.50007C2.75285 9.24009 3.45566 9.81686 4.27792 10.1575C5.10019 10.4981 6.00499 10.5872 6.87791 10.4135C7.75082 10.2399 8.55264 9.81132 9.18198 9.18198C9.81132 8.55264 10.2399 7.75082 10.4135 6.87791C10.5872 6.00499 10.4981 5.10019 10.1575 4.27792C9.81686 3.45566 9.24009 2.75285 8.50007 2.25839C7.76004 1.76392 6.89002 1.5 6 1.5C4.74198 1.50473 3.53448 1.99561 2.63 2.87L1.5 4" stroke="#919081" stroke-linecap="round" stroke-linejoin="round"/>
<path d="M1.5 1.5V4H4" stroke="#919081" stroke-linecap="round" stroke-linejoin="round"/>
<path d="M6 3.5V6L8 7" stroke="#919081" stroke-linecap="round" stroke-linejoin="round"/>
</svg>
