<svg width="16" height="16" viewBox="0 0 16 16" fill="none" xmlns="http://www.w3.org/2000/svg">
<path d="M14.6796 13.1313L11.4069 9.85858C12.1511 8.75373 12.5183 7.37329 12.3217 5.90235C11.9865 3.40037 9.93591 1.36429 7.43148 1.04714C3.70791 0.575777 0.576823 3.70687 1.04791 7.43051C1.36506 9.93604 3.40142 11.9883 5.90366 12.3218C7.37461 12.5181 8.75533 12.1512 9.8599 11.407L13.1326 14.6797C13.5597 15.1068 14.2522 15.1068 14.6793 14.6797C15.1058 14.2521 15.1058 13.5576 14.6793 13.1311L14.6796 13.1313ZM3.16355 6.68703C3.16352 4.75731 4.73347 3.18739 6.6632 3.18739C8.59292 3.18739 10.1628 4.75731 10.1628 6.68703C10.1628 8.61676 8.59292 10.1867 6.6632 10.1867C4.73347 10.1867 3.16355 8.6173 3.16355 6.68703V6.68703Z" fill="white"/>
</svg>
