<svg width="16" height="16" viewBox="0 0 16 16" fill="none" xmlns="http://www.w3.org/2000/svg">
<path d="M14.8437 12.4025L9.01107 2.44905C8.56454 1.6834 7.43766 1.6834 6.98812 2.44905L1.15823 12.4025C0.709505 13.1654 1.26816 14.1252 2.1678 14.1252H13.833C14.7288 14.1252 15.2894 13.1682 14.8437 12.4025ZM7.34305 5.59369C7.34305 5.23138 7.637 4.93742 7.99932 4.93742C8.36164 4.93742 8.65559 5.23274 8.65559 5.59369V9.09381C8.65559 9.45613 8.36164 9.75008 8.02393 9.75008C7.68622 9.75008 7.34305 9.45749 7.34305 9.09381V5.59369V5.59369ZM7.99932 12.3752C7.52462 12.3752 7.1396 11.9902 7.1396 11.5155C7.1396 11.0408 7.52434 10.6557 7.99932 10.6557C8.4743 10.6557 8.85904 11.0408 8.85904 11.5155C8.85794 11.9896 8.47512 12.3752 7.99932 12.3752Z" fill="white"/>
</svg>
