<svg width="16" height="16" viewBox="0 0 16 16" fill="none" xmlns="http://www.w3.org/2000/svg">
<path d="M1 8C1 4.13359 4.13359 1 8 1C11.8664 1 15 4.13359 15 8C15 11.8664 11.8664 15 8 15C4.13359 15 1 11.8664 1 8ZM11.1664 6.79141C11.4645 6.49336 11.4645 6.00664 11.1664 5.70859C10.8684 5.41055 10.3816 5.41055 10.0836 5.70859L7.125 8.66719L5.91641 7.45859C5.61836 7.16055 5.13164 7.16055 4.83359 7.45859C4.53555 7.75664 4.53555 8.24336 4.83359 8.54141L6.58359 10.2914C6.88164 10.5895 7.36836 10.5895 7.66641 10.2914L11.1664 6.79141Z" fill="white"/>
</svg>
