<svg width="16" height="16" viewBox="0 0 16 16" fill="none" xmlns="http://www.w3.org/2000/svg">
<path d="M14.7071 8.70667L9.70681 13.707C9.51305 13.9039 9.25678 14.0008 9.00051 14.0008C8.74425 14.0008 8.48861 13.9031 8.29359 13.7078C7.90294 13.3171 7.90294 12.6843 8.29359 12.2936L11.5882 9.00044H2.00006C1.44784 9.00044 1 8.55353 1 8.00037C1 7.44721 1.44753 7.00031 1.99975 7.00031H11.5879L8.29391 3.70635C7.90326 3.3157 7.90326 2.68284 8.29391 2.29219C8.68456 1.90154 9.31741 1.90154 9.70806 2.29219L14.7084 7.29252C15.0975 7.68473 15.0975 8.31602 14.7068 8.70667H14.7071Z" fill="white"/>
</svg>
