<svg width="12" height="12" viewBox="0 0 12 12" fill="none" xmlns="http://www.w3.org/2000/svg">
<path d="M0 6C0 2.68594 2.68594 0 6 0C9.31406 0 12 2.68594 12 6C12 9.31406 9.31406 12 6 12C2.68594 12 0 9.31406 0 6ZM4.10156 4.87734L5.20547 5.97891L4.10156 7.10156C3.88359 7.32188 3.88359 7.67813 4.10156 7.87734C4.32188 8.11641 4.67813 8.11641 4.87734 7.87734L5.97891 6.79453L7.10156 7.87734C7.32188 8.11641 7.67813 8.11641 7.87734 7.87734C8.11641 7.67813 8.11641 7.32188 7.87734 7.10156L6.79453 5.97891L7.87734 4.87734C8.11641 4.67813 8.11641 4.32188 7.87734 4.10156C7.67813 3.88359 7.32188 3.88359 7.10156 4.10156L5.97891 5.20547L4.87734 4.10156C4.67813 3.88359 4.32188 3.88359 4.10156 4.10156C3.88359 4.32188 3.88359 4.67813 4.10156 4.87734Z" fill="#717171"/>
</svg>
