<svg width="16" height="16" viewBox="0 0 16 16" fill="none" xmlns="http://www.w3.org/2000/svg">
<path d="M15 8C15 8.55424 14.5804 9.00202 14.0262 9.00202H4.42238L7.7228 12.3024C8.11421 12.6939 8.11421 13.3279 7.7228 13.7194C7.52553 13.9151 7.26876 14.0121 7.01199 14.0121C6.75522 14.0121 6.49908 13.9143 6.30368 13.7186L1.29356 8.70846C0.902146 8.31705 0.902146 7.68295 1.29356 7.29154L6.30368 2.28142C6.6951 1.89 7.32919 1.89 7.72061 2.28142C8.11202 2.67283 8.11202 3.30692 7.72061 3.69834L4.42238 6.99797H14.0262C14.5804 6.99797 15 7.44575 15 8Z" fill="white"/>
</svg>
