<svg width="12" height="12" viewBox="0 0 12 12" fill="none" xmlns="http://www.w3.org/2000/svg">
<path d="M11.3333 1.33332H9L8.33333 0.666656H6.66667C6.29958 0.666656 6 0.96624 6 1.33332V4.66666C6 5.03374 6.29958 5.33332 6.66667 5.33332H11.3333C11.7004 5.33332 12 5.03374 12 4.66666V1.99999C12 1.63291 11.7 1.33332 11.3333 1.33332ZM11.3333 7.33332H9L8.33333 6.66666H6.66667C6.29958 6.66666 6 6.96624 6 7.33332V10.6667C6 11.0337 6.29958 11.3333 6.66667 11.3333H11.3333C11.7004 11.3333 12 11.0337 12 10.6667V7.99999C12 7.63332 11.7 7.33332 11.3333 7.33332ZM1.33333 0.99999C1.33333 0.815094 1.185 0.666656 1 0.666656H0.333333C0.148438 0.666656 0 0.81499 0 0.99999V9.33332C0 9.70041 0.299583 9.99999 0.666667 9.99999H5.33333V8.66666H1.33333V3.99999H5.33333V2.66666H1.33333V0.99999Z" fill="#717171"/>
</svg>
