<svg xmlns="http://www.w3.org/2000/svg" width="16" height="16" fill="none"><path stroke="#000" stroke-linecap="round" stroke-linejoin="round" stroke-width="1.2" d="M11.889 3H4.11C3.497 3 3 3.497 3 4.111v7.778C3 12.503 3.497 13 4.111 13h7.778c.614 0 1.111-.498 1.111-1.111V4.11C13 3.497 12.502 3 11.889 3Z"/><path stroke="#000" stroke-linecap="round" stroke-linejoin="round" stroke-width="1.2" d="M6.333 7.444a1.111 1.111 0 1 0 0-2.222 1.111 1.111 0 0 0 0 2.222ZM13 9.667l-1.714-1.715a1.11 1.11 0 0 0-1.571 0L4.667 13"/></svg>
