<svg width="16" height="16" viewBox="0 0 16 16" fill="none" xmlns="http://www.w3.org/2000/svg">
<path fill-rule="evenodd" clip-rule="evenodd" d="M13.4662 14.9152C13.5801 15.0291 13.7648 15.0291 13.8787 14.9152L14.9145 13.8793C15.0284 13.7654 15.0284 13.5807 14.9145 13.4667L12.9483 11.5004L14.9145 9.53392C15.0285 9.42004 15.0285 9.23533 14.9145 9.12137L13.8787 8.08547C13.7648 7.97154 13.5801 7.97154 13.4662 8.08547L11.5 10.0519L9.53376 8.08545C9.41988 7.97152 9.23517 7.97152 9.12124 8.08545L8.08543 9.12136C7.97152 9.23533 7.97152 9.42004 8.08543 9.53392L10.0517 11.5004L8.08545 13.4667C7.97155 13.5807 7.97155 13.7654 8.08545 13.8793L9.12126 14.9152C9.23517 15.0292 9.41988 15.0292 9.53376 14.9152L11.5 12.9489L13.4662 14.9152Z" fill="black"/>
</svg>
