<svg width="8" height="8" viewBox="0 0 8 8" fill="none" xmlns="http://www.w3.org/2000/svg">
<path d="M7.5 1.02501V6.27499C7.5 6.56484 7.26484 6.79999 6.975 6.79999C6.68516 6.79999 6.45 6.56484 6.45 6.27499V2.29157L1.3969 7.34468C1.29365 7.44968 1.15934 7.49999 1.02503 7.49999C0.890713 7.49999 0.756401 7.44871 0.653808 7.34619C0.448731 7.14111 0.448731 6.80894 0.653808 6.60375L5.70844 1.55001H1.72502C1.43518 1.55001 1.20002 1.31595 1.20002 1.02501C1.20002 0.734077 1.43518 0.500015 1.72502 0.500015H6.975C7.26594 0.500015 7.5 0.736264 7.5 1.02501Z" fill="white" fill-opacity="0.6"/>
</svg>
