<svg width="24" height="24" viewBox="0 0 24 24" fill="none" xmlns="http://www.w3.org/2000/svg">
<path d="M20 14H4C3.44772 14 3 14.4477 3 15V20C3 20.5523 3.44772 21 4 21H20C20.5523 21 21 20.5523 21 20V15C21 14.4477 20.5523 14 20 14Z" stroke="black" stroke-width="2" stroke-linecap="round" stroke-linejoin="round"/>
<path d="M11 3H4C3.44772 3 3 3.44772 3 4V9C3 9.55228 3.44772 10 4 10H11C11.5523 10 12 9.55228 12 9V4C12 3.44772 11.5523 3 11 3Z" stroke="black" stroke-width="2" stroke-linecap="round" stroke-linejoin="round"/>
<path d="M20 3H17C16.4477 3 16 3.44772 16 4V9C16 9.55228 16.4477 10 17 10H20C20.5523 10 21 9.55228 21 9V4C21 3.44772 20.5523 3 20 3Z" stroke="black" stroke-width="2" stroke-linecap="round" stroke-linejoin="round"/>
</svg>
