<svg width="12" height="12" viewBox="0 0 12 12" fill="none" xmlns="http://www.w3.org/2000/svg">
<path fill-rule="evenodd" clip-rule="evenodd" d="M0 1C0 0.585786 0.335786 0.25 0.75 0.25H7.25C7.66421 0.25 8 0.585786 8 1C8 1.41421 7.66421 1.75 7.25 1.75H1.5V10.25H7.25C7.66421 10.25 8 10.5858 8 11C8 11.4142 7.66421 11.75 7.25 11.75H0.75C0.335786 11.75 0 11.4142 0 11V1ZM8.78148 2.91435C9.10493 2.65559 9.57689 2.70803 9.83565 3.03148L11.8357 5.53148C12.0548 5.80539 12.0548 6.19461 11.8357 6.46852L9.83565 8.96852C9.57689 9.29197 9.10493 9.34441 8.78148 9.08565C8.45803 8.82689 8.40559 8.35493 8.66435 8.03148L9.68953 6.75H3.75C3.33579 6.75 3 6.41421 3 6C3 5.58579 3.33579 5.25 3.75 5.25H9.68953L8.66435 3.96852C8.40559 3.64507 8.45803 3.17311 8.78148 2.91435Z" fill="#ABB2BF"/>
</svg>
