<svg width="16" height="16" viewBox="0 0 16 16" fill="none" xmlns="http://www.w3.org/2000/svg">
<path d="M10.1331 11.3776C10.2754 10.6665 10.1331 9.78593 11.1998 8.53327C11.82 7.80489 12.2664 6.96894 12.2664 6.04456C12.2664 4.91305 11.8169 3.82788 11.0168 3.02778C10.2167 2.22769 9.13152 1.7782 8.00001 1.7782C6.8685 1.7782 5.78334 2.22769 4.98324 3.02778C4.18314 3.82788 3.73364 4.91305 3.73364 6.04456C3.73364 6.75562 3.87586 7.6089 4.80024 8.53327C5.86683 9.80679 5.72462 10.6665 5.86683 11.3776M10.1331 11.3776V12.8821C10.1331 13.622 9.53341 14.2218 8.79353 14.2218H7.2065C6.46662 14.2218 5.86683 13.622 5.86683 12.8821V11.3776M10.1331 11.3776H5.86683" stroke="black" stroke-width="1.33333" stroke-linecap="round" stroke-linejoin="round"/>
</svg>
