<svg width="16" height="17" viewBox="0 0 16 17" fill="none" xmlns="http://www.w3.org/2000/svg">
<path d="M10.2292 12.0297C10.3779 11.2866 10.2292 10.3664 11.3439 9.05733C11.992 8.29615 12.4585 7.42255 12.4585 6.45654C12.4585 5.27408 11.9888 4.14004 11.1526 3.30391C10.3165 2.46778 9.18247 1.99805 8 1.99805C6.81753 1.99805 5.6835 2.46778 4.84737 3.30391C4.01124 4.14004 3.5415 5.27408 3.5415 6.45654C3.5415 7.19963 3.69012 8.09133 4.65613 9.05733C5.77075 10.3882 5.62214 11.2866 5.77075 12.0297M10.2292 12.0297V13.602C10.2292 14.3752 9.60245 15.002 8.82925 15.002H7.17075C6.39755 15.002 5.77075 14.3752 5.77075 13.602V12.0297M10.2292 12.0297H5.77075" stroke="black" stroke-width="1.33333" stroke-linecap="round" stroke-linejoin="round"/>
</svg>
