<svg width="15" height="15" viewBox="0 0 15 15" fill="none" xmlns="http://www.w3.org/2000/svg">
<path fill-rule="evenodd" clip-rule="evenodd" d="M8.51192 3.00541C9.18827 2.54594 10.0434 2.53694 10.6788 2.95419C10.823 3.04893 10.9771 3.1993 11.389 3.61119C11.8009 4.02307 11.9513 4.17714 12.046 4.32141C12.4632 4.95675 12.4542 5.81192 11.9948 6.48827C11.8899 6.64264 11.7276 6.80811 11.3006 7.23511L10.6819 7.85383C10.4866 8.04909 10.4866 8.36567 10.6819 8.56093C10.8772 8.7562 11.1937 8.7562 11.389 8.56093L12.0077 7.94221L12.0507 7.89929C12.4203 7.52976 12.6568 7.2933 12.822 7.0502C13.4972 6.05623 13.5321 4.76252 12.8819 3.77248C12.7233 3.53102 12.4922 3.30001 12.1408 2.94871L12.0961 2.90408L12.0515 2.85942C11.7002 2.508 11.4692 2.27689 11.2277 2.11832C10.2377 1.46813 8.94396 1.50299 7.94999 2.17822C7.70689 2.34336 7.47042 2.57991 7.10088 2.94955L7.05797 2.99247L6.43926 3.61119C6.24399 3.80645 6.24399 4.12303 6.43926 4.31829C6.63452 4.51355 6.9511 4.51355 7.14636 4.31829L7.76508 3.69957C8.19208 3.27257 8.35755 3.11027 8.51192 3.00541ZM4.31794 7.14672C4.5132 6.95146 4.5132 6.63487 4.31794 6.43961C4.12267 6.24435 3.80609 6.24435 3.61083 6.43961L2.99211 7.05833L2.9492 7.10124C2.57955 7.47077 2.34301 7.70724 2.17786 7.95035C1.50263 8.94432 1.46778 10.238 2.11797 11.2281C2.27654 11.4695 2.50764 11.7005 2.85908 12.0518L2.90372 12.0965L2.94835 12.1411C3.29965 12.4925 3.53066 12.7237 3.77212 12.8822C4.76217 13.5324 6.05587 13.4976 7.04984 12.8223C7.29294 12.6572 7.52941 12.4206 7.89894 12.051L7.89895 12.051L7.94186 12.0081L8.56058 11.3894C8.75584 11.1941 8.75584 10.8775 8.56058 10.6823C8.36531 10.487 8.04873 10.487 7.85347 10.6823L7.23475 11.301C6.80775 11.728 6.64228 11.8903 6.48792 11.9951C5.81156 12.4546 4.9564 12.4636 4.32105 12.0464C4.17679 11.9516 4.02272 11.8012 3.61083 11.3894C3.19894 10.9775 3.04858 10.8234 2.95383 10.6791C2.53659 10.0438 2.54558 9.18863 3.00505 8.51227C3.10991 8.35791 3.27222 8.19244 3.69922 7.76544L4.31794 7.14672ZM9.6217 6.08558C9.81696 5.89032 9.81696 5.57373 9.6217 5.37847C9.42644 5.18321 9.10986 5.18321 8.91459 5.37847L5.37906 8.91401C5.1838 9.10927 5.1838 9.42585 5.37906 9.62111C5.57432 9.81637 5.8909 9.81637 6.08617 9.62111L9.6217 6.08558Z" fill="black"/>
</svg>
