<svg width="16" height="16" viewBox="0 0 16 16" fill="none" xmlns="http://www.w3.org/2000/svg">
<path d="M6.2 11H5C4.20435 11 3.44129 10.6839 2.87868 10.1213C2.31607 9.55871 2 8.79565 2 8C2 7.20435 2.31607 6.44129 2.87868 5.87868C3.44129 5.31607 4.20435 5 5 5H6.2" stroke="#C4CAD4" stroke-width="1.2" stroke-linecap="round" stroke-linejoin="round"/>
<path d="M9.80005 5H11C11.7957 5 12.5588 5.31607 13.1214 5.87868C13.684 6.44129 14 7.20435 14 8C14 8.79565 13.684 9.55871 13.1214 10.1213C12.5588 10.6839 11.7957 11 11 11H9.80005" stroke="#C4CAD4" stroke-width="1.2" stroke-linecap="round" stroke-linejoin="round"/>
<path d="M5.6001 8H10.4001" stroke="#C4CAD4" stroke-width="1.2" stroke-linecap="round" stroke-linejoin="round"/>
</svg>
