<svg width="16" height="16" viewBox="0 0 16 16" fill="none" xmlns="http://www.w3.org/2000/svg">
<path d="M6.79199 8.60401C7.05139 8.95079 7.38233 9.23773 7.76237 9.44536C8.14241 9.653 8.56266 9.77647 8.99462 9.8074C9.42657 9.83834 9.86013 9.77602 10.2659 9.62466C10.6716 9.4733 11.0401 9.23645 11.3462 8.93018L13.1583 7.11814C13.7084 6.54855 14.0128 5.78567 14.0059 4.99382C13.9991 4.20197 13.6814 3.4445 13.1215 2.88456C12.5616 2.32461 11.8041 2.007 11.0122 2.00011C10.2204 1.99323 9.45751 2.29764 8.88792 2.84777L7.84901 3.88063" stroke="#C4CAD4" stroke-width="1.2" stroke-linecap="round" stroke-linejoin="round"/>
<path d="M9.20796 7.39599C8.94856 7.04921 8.61762 6.76227 8.23758 6.55463C7.85754 6.347 7.43729 6.22353 7.00534 6.19259C6.57338 6.16166 6.13982 6.22398 5.73407 6.37534C5.32832 6.52669 4.95987 6.76354 4.6537 7.06982L2.84166 8.88186C2.29154 9.45145 1.98713 10.2143 1.99401 11.0062C2.00089 11.798 2.31851 12.5555 2.87845 13.1154C3.4384 13.6754 4.19587 13.993 4.98772 13.9999C5.77957 14.0068 6.54244 13.7024 7.11203 13.1522L8.1449 12.1194" stroke="#C4CAD4" stroke-width="1.2" stroke-linecap="round" stroke-linejoin="round"/>
</svg>
