<svg width="16" height="16" viewBox="0 0 16 16" fill="none" xmlns="http://www.w3.org/2000/svg">
<g clip-path="url(#clip0_3010_383)">
<path fill-rule="evenodd" clip-rule="evenodd" d="M3.71141 7.06133C3.76141 6.47267 3.78341 5.88133 3.81608 5.29133C4.10416 0.190201 11.896 0.190202 12.1841 5.29133C12.2174 5.898 12.2441 6.50333 12.3067 7.10733C12.6951 7.94202 14.3637 11.6214 13.4134 12.006C13.1894 12.096 12.8041 11.7227 12.3694 11.052C12.207 11.9614 11.7273 12.8132 11.0587 13.4467C11.7441 13.68 12.3334 13.998 12.3334 14.3333C12.3334 14.9176 3.66675 14.9257 3.66675 14.3333C3.66675 13.998 4.25608 13.68 4.94141 13.4467C4.26191 12.803 3.82279 11.9657 3.62408 11.056C3.19075 11.724 2.80608 12.096 2.58341 12.006C1.626 11.6185 3.31478 7.90684 3.71141 7.06133Z" stroke="#7B7B7B" stroke-width="1.2" stroke-linecap="round" stroke-linejoin="round"/>
<path d="M6.11822 6.6L7.68822 7.89C7.85822 8.03 8.12822 8.03 8.29822 7.89L9.86822 6.6C10.1382 6.38 9.94822 6 9.56822 6H6.42822C6.04822 6 5.85822 6.38 6.12822 6.6H6.11822Z" fill="#7B7B7B"/>
</g>
<defs>
<clipPath id="clip0_3010_383">
<rect width="16" height="16" fill="white"/>
</clipPath>
</defs>
</svg>
