<svg xmlns="http://www.w3.org/2000/svg" width="16" height="16" fill="none"><path stroke="#000" stroke-linecap="round" stroke-linejoin="round" stroke-width="1.2" d="M12 6.502a4.904 4.904 0 0 0-1.686-3.28 5.059 5.059 0 0 0-3.522-1.22A5.045 5.045 0 0 0 3.39 3.52 4.889 4.889 0 0 0 2 6.93c0 2.89 3.06 5.893 4.397 7.068M13.655 11.013a1.18 1.18 0 0 0-1.67-1.67l-2.227 2.23a1.112 1.112 0 0 0-.282.475l-.465 1.594a.278.278 0 0 0 .345.345l1.594-.465a1.11 1.11 0 0 0 .475-.281l2.23-2.228Z"/><path stroke="#000" stroke-linecap="round" stroke-linejoin="round" stroke-width="1.2" d="M7 8.998a2 2 0 1 0 0-4 2 2 0 0 0 0 4Z"/></svg>
