<svg width="17" height="17" viewBox="0 0 17 17" fill="none" xmlns="http://www.w3.org/2000/svg">
<path fill-rule="evenodd" clip-rule="evenodd" d="M5.92497 5.44508C5.92497 4.52738 6.17861 3.85347 6.58658 3.41419C6.98839 2.98153 7.60892 2.70185 8.50146 2.70185C9.39456 2.70185 10.0141 2.981 10.4149 3.41259C10.8219 3.85087 11.075 4.52387 11.075 5.44213V6.80832H5.92497V5.44508ZM4.67497 6.80832V5.44508C4.67497 4.30385 4.99261 3.29365 5.67066 2.56355C6.35487 1.82682 7.33509 1.45185 8.50146 1.45185C9.66753 1.45185 10.6472 1.82576 11.3309 2.56202C12.0084 3.29159 12.325 4.30122 12.325 5.44213V6.80832H13.3C13.9397 6.80832 14.4583 7.32692 14.4583 7.96665V14.3667C14.4583 15.0064 13.9397 15.525 13.3 15.525H3.69997C3.06024 15.525 2.54163 15.0064 2.54163 14.3667V7.96665C2.54163 7.32692 3.06024 6.80832 3.69997 6.80832H4.67497ZM3.79163 14.275V8.05832H13.2083V14.275H3.79163Z" fill="black"/>
</svg>
