<svg width="257" height="258" viewBox="0 0 257 258" fill="none" xmlns="http://www.w3.org/2000/svg">
<g filter="url(#filter0_dd_110_85)">
<path d="M205.45 52.5503L241.758 15.4352C244.103 13.0378 242.405 9 239.051 9H24.1479C15.782 9 9 15.782 9 24.1479V200.243M205.45 52.5503H60.8343C56.6513 52.5503 53.2604 55.9413 53.2604 60.1243V160.006M205.45 52.5503L161.189 96.574M161.189 96.574H101.071C98.9795 96.574 97.284 98.2695 97.284 100.361V120.243M161.189 96.574L97.284 160.716M97.284 160.716H157.402C159.494 160.716 161.189 159.02 161.189 156.929V136.574M97.284 160.716L53.2604 203.793M53.2604 203.793L15.4233 241.832C13.0474 244.221 14.7392 248.29 18.1082 248.29H233.852C242.218 248.29 249 241.508 249 233.142V69.5917M53.2604 203.793H197.402C201.585 203.793 204.976 200.402 204.976 196.219V96.574" stroke="black" stroke-opacity="0.01" stroke-width="12" stroke-linecap="round" stroke-linejoin="round" shape-rendering="crispEdges"/>
</g>
<defs>
<filter id="filter0_dd_110_85" x="0" y="0" width="256" height="257.29" filterUnits="userSpaceOnUse" color-interpolation-filters="sRGB">
<feFlood flood-opacity="0" result="BackgroundImageFix"/>
<feColorMatrix in="SourceAlpha" type="matrix" values="0 0 0 0 0 0 0 0 0 0 0 0 0 0 0 0 0 0 127 0" result="hardAlpha"/>
<feOffset dx="-1" dy="-1"/>
<feGaussianBlur stdDeviation="1"/>
<feComposite in2="hardAlpha" operator="out"/>
<feColorMatrix type="matrix" values="0 0 0 0 1 0 0 0 0 1 0 0 0 0 1 0 0 0 0.08 0"/>
<feBlend mode="normal" in2="BackgroundImageFix" result="effect1_dropShadow_110_85"/>
<feColorMatrix in="SourceAlpha" type="matrix" values="0 0 0 0 0 0 0 0 0 0 0 0 0 0 0 0 0 0 127 0" result="hardAlpha"/>
<feOffset dx="-1" dy="2"/>
<feGaussianBlur stdDeviation="0.5"/>
<feComposite in2="hardAlpha" operator="out"/>
<feColorMatrix type="matrix" values="0 0 0 0 1 0 0 0 0 1 0 0 0 0 1 0 0 0 0.12 0"/>
<feBlend mode="normal" in2="effect1_dropShadow_110_85" result="effect2_dropShadow_110_85"/>
<feBlend mode="normal" in="SourceGraphic" in2="effect2_dropShadow_110_85" result="shape"/>
</filter>
</defs>
</svg>
