<svg width="16" height="16" viewBox="0 0 16 16" fill="none" xmlns="http://www.w3.org/2000/svg">
<path d="M6 3L7 4" stroke="black" stroke-width="1.33333" stroke-linecap="round" stroke-linejoin="round"/>
<path d="M9 4L10 3" stroke="black" stroke-width="1.33333" stroke-linecap="round" stroke-linejoin="round"/>
<path d="M6.002 6V5.51658C5.98992 5.32067 6.03266 5.12502 6.12762 4.94143C6.22259 4.75784 6.36781 4.59012 6.55453 4.44839C6.74125 4.30666 6.9656 4.19386 7.21403 4.1168C7.46246 4.03973 7.72983 4 8 4C8.27017 4 8.53754 4.03973 8.78597 4.1168C9.0344 4.19386 9.25875 4.30666 9.44547 4.44839C9.63219 4.59012 9.77741 4.75784 9.87238 4.94143C9.96734 5.12502 10.0101 5.32067 9.998 5.51658V6" stroke="black" stroke-width="1.33333" stroke-linecap="round" stroke-linejoin="round"/>
<path d="M8 13C6.35 13 5 11.5462 5 9.76923V8.15385C5 7.58261 5.21071 7.03477 5.58579 6.63085C5.96086 6.22692 6.46957 6 7 6H9C9.53043 6 10.0391 6.22692 10.4142 6.63085C10.7893 7.03477 11 7.58261 11 8.15385V9.76923C11 11.5462 9.65 13 8 13Z" stroke="black" stroke-width="1.33333" stroke-linecap="round" stroke-linejoin="round"/>
<path d="M5 6.16663C3.90652 6.06663 3 5.21663 3 4.16663" stroke="black" stroke-width="1.33333" stroke-linecap="round" stroke-linejoin="round"/>
<path d="M5 9H3" stroke="black" stroke-width="1.33333" stroke-linecap="round" stroke-linejoin="round"/>
<path d="M3 13C3 11.95 3.89474 11.05 5 11" stroke="black" stroke-width="1.33333" stroke-linecap="round" stroke-linejoin="round"/>
<path d="M13 4C13 5.05 12.0857 5.9 11 6" stroke="black" stroke-width="1.33333" stroke-linecap="round" stroke-linejoin="round"/>
<path d="M13 9H11" stroke="black" stroke-width="1.33333" stroke-linecap="round" stroke-linejoin="round"/>
<path d="M11 11C12.1053 11.05 13 11.95 13 13" stroke="black" stroke-width="1.33333" stroke-linecap="round" stroke-linejoin="round"/>
</svg>
