<svg width="12" height="12" viewBox="0 0 12 12" fill="none" xmlns="http://www.w3.org/2000/svg">
<path d="M11.8167 11.0391L8.67607 7.89844C9.35576 7.06641 9.73076 6.01875 9.73076 4.875C9.73076 2.18203 7.54802 0 4.85576 0C2.16349 0 0.00161743 2.18273 0.00161743 4.875C0.00161743 7.56727 2.18412 9.75 4.85552 9.75C5.99904 9.75 7.0481 9.35367 7.87896 8.69438L11.0196 11.835C11.1508 11.9461 11.2961 12 11.4391 12C11.5821 12 11.7269 11.9449 11.8369 11.835C12.0555 11.6154 12.0555 11.2591 11.8165 11.0388L11.8167 11.0391ZM1.12685 4.875C1.12685 2.80734 2.8092 1.125 4.87685 1.125C6.94451 1.125 8.62685 2.80734 8.62685 4.875C8.62685 6.94266 6.94451 8.625 4.87685 8.625C2.8092 8.625 1.12685 6.94219 1.12685 4.875Z" fill="white"/>
</svg>
