<svg width="8" height="8" viewBox="0 0 8 8" fill="none" xmlns="http://www.w3.org/2000/svg">
<g clip-path="url(#clip0_430_1369)">
<path fill-rule="evenodd" clip-rule="evenodd" d="M5.16734 5.87445C4.62987 6.26778 3.96705 6.5 3.25 6.5C1.45507 6.5 0 5.04493 0 3.25C0 1.45507 1.45507 0 3.25 0C5.04493 0 6.5 1.45507 6.5 3.25C6.5 3.96705 6.26778 4.62987 5.87445 5.16734L7.85355 7.14645C8.04882 7.34171 8.04882 7.65829 7.85355 7.85355C7.65829 8.04882 7.34171 8.04882 7.14645 7.85355L5.16734 5.87445ZM5.5 3.25C5.5 4.49264 4.49264 5.5 3.25 5.5C2.00736 5.5 1 4.49264 1 3.25C1 2.00736 2.00736 1 3.25 1C4.49264 1 5.5 2.00736 5.5 3.25Z" fill="white"/>
</g>
<defs>
<clipPath id="clip0_430_1369">
<rect width="8" height="8" fill="white"/>
</clipPath>
</defs>
</svg>
