<svg width="16" height="16" viewBox="0 0 16 16" fill="none" xmlns="http://www.w3.org/2000/svg">
<path d="M13 13L10.4138 10.4138ZM3 7.31034C3 4.92981 4.92981 3 7.31034 3C9.6909 3 11.6207 4.92981 11.6207 7.31034C11.6207 9.6909 9.6909 11.6207 7.31034 11.6207C4.92981 11.6207 3 9.6909 3 7.31034Z" fill="black" fill-opacity="0.15"/>
<path d="M13 13L10.4138 10.4138M3 7.31034C3 4.92981 4.92981 3 7.31034 3C9.6909 3 11.6207 4.92981 11.6207 7.31034C11.6207 9.6909 9.6909 11.6207 7.31034 11.6207C4.92981 11.6207 3 9.6909 3 7.31034Z" stroke="black" stroke-width="1.5" stroke-linecap="round" stroke-linejoin="round"/>
</svg>
