<svg width="12" height="12" viewBox="0 0 12 12" fill="none" xmlns="http://www.w3.org/2000/svg">
<g clip-path="url(#clip0_430_1288)">
<path fill-rule="evenodd" clip-rule="evenodd" d="M7.40624 7.54167C6.77901 8.13568 5.93205 8.5 5 8.5C3.067 8.5 1.5 6.933 1.5 5C1.5 3.067 3.067 1.5 5 1.5C6.933 1.5 8.5 3.067 8.5 5C8.5 5.93205 8.13568 6.77901 7.54167 7.40624C7.51667 7.42558 7.49261 7.44673 7.46967 7.46967C7.44673 7.49261 7.42558 7.51667 7.40624 7.54167ZM7.96544 9.0261C7.13578 9.63821 6.11014 10 5 10C2.23858 10 0 7.76142 0 5C0 2.23858 2.23858 0 5 0C7.76142 0 10 2.23858 10 5C10 6.11014 9.63821 7.13578 9.0261 7.96544L11.5303 10.4697C11.8232 10.7626 11.8232 11.2374 11.5303 11.5303C11.2374 11.8232 10.7626 11.8232 10.4697 11.5303L7.96544 9.0261Z" fill="white"/>
</g>
<defs>
<clipPath id="clip0_430_1288">
<rect width="12" height="12" fill="white"/>
</clipPath>
</defs>
</svg>
