<svg width="16" height="16" viewBox="0 0 16 16" fill="none" xmlns="http://www.w3.org/2000/svg">
<path d="M14.7861 13.8789L11.1221 10.2148C11.915 9.24414 12.3525 8.02187 12.3525 6.6875C12.3525 3.5457 9.80602 1 6.66504 1C3.52406 1 1.00188 3.54652 1.00188 6.6875C1.00188 9.82848 3.54813 12.375 6.66477 12.375C7.99887 12.375 9.22278 11.9126 10.1921 11.1434L13.8562 14.8075C14.0093 14.9371 14.1788 15 14.3456 15C14.5124 15 14.6814 14.9357 14.8097 14.8075C15.0648 14.5513 15.0648 14.1357 14.7859 13.8786L14.7861 13.8789ZM2.31465 6.6875C2.31465 4.27523 4.27738 2.3125 6.68965 2.3125C9.10192 2.3125 11.0647 4.27523 11.0647 6.6875C11.0647 9.09977 9.10192 11.0625 6.68965 11.0625C4.27738 11.0625 2.31465 9.09922 2.31465 6.6875Z" fill="white"/>
</svg>
