<svg width="8" height="8" viewBox="0 0 8 8" fill="none" xmlns="http://www.w3.org/2000/svg">
<path d="M7.87779 7.35938L5.78404 5.26562C6.23716 4.71094 6.48716 4.0125 6.48716 3.25C6.48716 1.45469 5.03201 0 3.23716 0C1.44232 0 0.00106812 1.45516 0.00106812 3.25C0.00106812 5.04484 1.45607 6.5 3.23701 6.5C3.99935 6.5 4.69873 6.23578 5.25263 5.79625L7.34638 7.89C7.43388 7.96406 7.53076 8 7.62607 8C7.72138 8 7.81794 7.96328 7.89123 7.89C8.03701 7.74359 8.03701 7.50609 7.87763 7.35922L7.87779 7.35938ZM0.751224 3.25C0.751224 1.87156 1.87279 0.75 3.25122 0.75C4.62966 0.75 5.75123 1.87156 5.75123 3.25C5.75123 4.62844 4.62966 5.75 3.25122 5.75C1.87279 5.75 0.751224 4.62812 0.751224 3.25Z" fill="white"/>
</svg>
