<svg width="14" height="14" viewBox="0 0 14 14" fill="none" xmlns="http://www.w3.org/2000/svg">
<path d="M3.47087 3.20502H4.93146L7.12233 10.845H6.16733L5.60557 8.91252H2.78552L2.235 10.845H1.28L3.47087 3.20502ZM5.3921 8.06988L4.24611 4.02519H4.15622L3.01023 8.06988H5.3921Z" fill="black"/>
<path fill-rule="evenodd" clip-rule="evenodd" d="M3.35784 3.05502H5.04449L7.32139 10.995H6.05473L5.49297 9.06253H2.89876L2.34823 10.995H1.08094L3.35784 3.05502ZM4.20117 4.41683L3.20863 7.91989H5.1937L4.20117 4.41683Z" fill="black"/>
<path fill-rule="evenodd" clip-rule="evenodd" d="M8.49755 10.9439L8.49614 10.9433C8.20513 10.8235 7.99172 10.6192 7.86261 10.3352L7.86103 10.3317C7.74397 10.0558 7.69085 9.67797 7.69085 9.21014C7.69085 8.65676 7.77089 8.20993 7.94588 7.88453C8.12486 7.54406 8.4223 7.31025 8.82246 7.17939C9.22218 7.04366 9.77245 6.97946 10.4643 6.97946H11.3773V6.84676C11.3773 6.53978 11.3365 6.32064 11.2676 6.17645L11.2652 6.17158C11.2077 6.03931 11.105 5.94128 10.942 5.87857L10.9401 5.87785C10.7779 5.81296 10.5289 5.77548 10.1816 5.77548C9.95742 5.77548 9.77444 5.79025 9.63048 5.818C9.4849 5.84607 9.38928 5.88554 9.33128 5.92772L9.32759 5.9304C9.22055 6.00339 9.13583 6.16518 9.1215 6.4804L9.11499 6.62359H7.87178V6.47359C7.87178 6.02598 7.93666 5.66152 8.08202 5.39592C8.23181 5.11455 8.48509 4.9233 8.82297 4.81582C9.15491 4.7028 9.61083 4.64999 10.1816 4.64999C10.7762 4.64999 11.2497 4.71047 11.5915 4.84054C11.9497 4.97397 12.2081 5.20795 12.3539 5.54148C12.5023 5.86386 12.5706 6.30304 12.5706 6.84676V10.9998H11.4112V10.4612C11.2513 10.6622 11.0717 10.8156 10.8706 10.9161L10.869 10.917C10.5893 11.0526 10.1848 11.1129 9.67276 11.1129C9.18264 11.1129 8.78731 11.0598 8.49755 10.9439ZM9.40357 8.21033C9.23125 8.26777 9.11727 8.36187 9.04741 8.4893C8.98131 8.61621 8.94073 8.81734 8.94073 9.10837C8.94073 9.48881 9.01919 9.69954 9.12735 9.79866C9.24209 9.89577 9.48642 9.96479 9.91023 9.96479C10.3198 9.96479 10.6134 9.90216 10.8072 9.79296C10.9944 9.68003 11.1366 9.4918 11.226 9.21004C11.3088 8.94889 11.3567 8.57563 11.3648 8.08368L10.2403 8.09363C9.87055 8.10107 9.59539 8.14186 9.40658 8.20929L9.40357 8.21033Z" fill="black"/>
</svg>
