<svg width="14" height="14" viewBox="0 0 14 14" fill="none" xmlns="http://www.w3.org/2000/svg">
<path fill-rule="evenodd" clip-rule="evenodd" d="M4.74677 9.48683L4.07035 6.03229L3.38589 9.48683H2.17618L1.00285 4.00778H2.27563L2.81571 7.41751L3.48443 4.01749H4.65869L5.31824 7.41173L5.8574 4.00778H7.13018L5.95684 9.48683H4.74677Z" fill="black"/>
<path fill-rule="evenodd" clip-rule="evenodd" d="M8.64902 9.324C8.31295 9.13305 8.08208 8.81972 7.9472 8.40798C7.81465 8.00336 7.75312 7.44225 7.75312 6.73695C7.75312 6.03863 7.81136 5.48473 7.93685 5.08734L7.9375 5.0853C8.07226 4.67391 8.30335 4.36276 8.64083 4.17813C8.96801 3.99275 9.41114 3.91059 9.94955 3.91059C10.3406 3.91059 10.6631 3.95604 10.8967 4.06503C11.0079 4.11693 11.1098 4.18862 11.2033 4.27763V2.03046H12.4076V9.48579H11.2033V9.19001C11.0944 9.29092 10.9799 9.37114 10.8591 9.4277C10.6327 9.53666 10.3334 9.5827 9.97862 9.5827C9.43385 9.5827 8.98587 9.50374 8.6537 9.32658L8.64902 9.324ZM11.1139 7.85526C11.1841 7.60329 11.2226 7.23372 11.2226 6.73695C11.2226 6.2462 11.184 5.88349 11.114 5.63862C11.0456 5.39921 10.94 5.25882 10.8149 5.18284L10.8077 5.17844C10.6804 5.09361 10.4713 5.03744 10.1531 5.03744C9.8078 5.03744 9.57185 5.09378 9.42251 5.18338L9.41824 5.18594C9.27997 5.2643 9.16717 5.40621 9.09394 5.64281C9.01872 5.88584 8.97689 6.24686 8.97689 6.73695C8.97689 7.23381 9.01877 7.59792 9.09394 7.84078C9.16725 8.07763 9.28092 8.22495 9.42251 8.3099C9.57185 8.39951 9.8078 8.45585 10.1531 8.45585C10.4721 8.45585 10.683 8.40283 10.8113 8.32234C10.9395 8.23962 11.0456 8.09391 11.1139 7.85526Z" fill="black"/>
<rect x="1.14084" y="10.7188" width="11.7183" height="1.26565" rx="0.632824" fill="black"/>
</svg>
