<svg width="8" height="8" viewBox="0 0 8 8" fill="none" xmlns="http://www.w3.org/2000/svg">
<g clip-path="url(#clip0_609_69)">
<path d="M2.77187 4.52188L0.999998 6.29375V5.50001C0.999998 5.2236 0.776405 5.00001 0.499999 5.00001C0.223593 5.00001 0 5.2236 0 5.50001V7.5C0 7.565 0.013125 7.62985 0.0385155 7.69094C0.0891405 7.81328 0.186484 7.91078 0.308984 7.96141C0.370077 7.9875 0.434921 8 0.499921 8H2.49992C2.77632 8 2.99992 7.77641 2.99992 7.5C2.99992 7.2236 2.77632 7 2.49992 7H1.70773L3.4796 5.22813C3.67492 5.03282 3.67492 4.71641 3.4796 4.5211C3.28429 4.32579 2.9671 4.32657 2.77179 4.52188H2.77187ZM7.96092 0.309078C7.91014 0.186578 7.8128 0.089078 7.6903 0.038453C7.62967 0.0131406 7.56561 0 7.49999 0H5.49999C5.22358 0 4.99999 0.223593 4.99999 0.499999C4.99999 0.776405 5.22358 0.999998 5.49999 0.999998H6.29296L4.52109 2.77187C4.32577 2.96718 4.32577 3.28359 4.52109 3.4789C4.71624 3.67406 5.03265 3.67437 5.22812 3.4789L6.99999 1.70782V2.50001C6.99999 2.77642 7.22358 3.00001 7.49999 3.00001C7.77639 3.00001 7.99998 2.77642 7.99998 2.50001V0.500015C7.99998 0.435015 7.98748 0.370171 7.96092 0.309078Z" fill="white"/>
</g>
<defs>
<clipPath id="clip0_609_69">
<rect width="8" height="8" fill="white"/>
</clipPath>
</defs>
</svg>
