<svg width="8" height="8" viewBox="0 0 8 8" fill="none" xmlns="http://www.w3.org/2000/svg">
<g clip-path="url(#clip0_609_69)">
<path d="M2.77188 4.52188L1.00001 6.29375V5.50001C1.00001 5.2236 0.776412 5.00001 0.500007 5.00001C0.223601 5.00001 7.62939e-06 5.2236 7.62939e-06 5.50001V7.5C7.62939e-06 7.565 0.0131326 7.62984 0.0385232 7.69094C0.0891481 7.81328 0.186492 7.91078 0.308991 7.96141C0.370085 7.9875 0.434929 8 0.499929 8H2.49992C2.77633 8 2.99992 7.77641 2.99992 7.5C2.99992 7.2236 2.77633 7 2.49992 7H1.70774L3.47961 5.22813C3.67492 5.03282 3.67492 4.71641 3.47961 4.5211C3.2843 4.32579 2.96711 4.32657 2.7718 4.52188H2.77188ZM7.96093 0.309078C7.91015 0.186578 7.81281 0.089078 7.69031 0.0384531C7.62968 0.0131406 7.56562 0 7.49999 0H5.5C5.22359 0 5 0.223593 5 0.499999C5 0.776405 5.22359 0.999998 5.5 0.999998H6.29296L4.52109 2.77187C4.32578 2.96718 4.32578 3.28359 4.52109 3.4789C4.71625 3.67406 5.03265 3.67437 5.22812 3.4789L6.99999 1.70782V2.50001C6.99999 2.77642 7.22359 3.00001 7.49999 3.00001C7.7764 3.00001 7.99999 2.77642 7.99999 2.50001V0.500015C7.99999 0.435015 7.98749 0.370171 7.96093 0.309078Z" fill="white"/>
</g>
<defs>
<clipPath id="clip0_609_69">
<rect width="8" height="8" fill="white"/>
</clipPath>
</defs>
</svg>
