<svg width="14" height="14" viewBox="0 0 14 14" fill="none" xmlns="http://www.w3.org/2000/svg">
<path d="M5.46115 8.43419C7.30678 8.43419 8.92229 7.43411 8.92229 5.21171C8.92229 2.98933 7.30678 1.98926 5.46115 1.98926C3.61553 1.98926 2 2.98933 2 5.21171C2 6.028 2.21794 6.67935 2.58519 7.17685C2.7184 7.35732 2.69033 7.77795 2.58387 7.97539C2.32908 8.44793 2.81048 8.9657 3.33372 8.84571C3.72539 8.75597 4.13621 8.63447 4.49574 8.4715C4.62736 8.41181 4.7727 8.38777 4.91631 8.40402C5.09471 8.42416 5.27678 8.43419 5.46115 8.43419Z" fill="black" stroke="black" stroke-linecap="round" stroke-linejoin="round"/>
<path d="M11.3385 6.24835C11.7049 6.74561 11.9224 7.39641 11.9224 8.2117C11.9224 9.02799 11.7044 9.67934 11.3372 10.1768C11.204 10.3573 11.232 10.7779 11.3385 10.9754C11.5933 11.4479 11.1119 11.9657 10.5886 11.8457C10.197 11.756 9.78615 11.6345 9.42662 11.4715C9.295 11.4118 9.14966 11.3878 9.00605 11.404C8.82765 11.4242 8.64558 11.4342 8.46121 11.4342C7.61469 11.4342 6.81658 11.2238 6.20055 10.7816" stroke="black" stroke-width="1.25" stroke-linecap="round" stroke-linejoin="round"/>
</svg>
