<svg width="16" height="16" viewBox="0 0 16 16" fill="none" xmlns="http://www.w3.org/2000/svg">
<path d="M5.26659 13.3333C6.53897 13.986 8.00264 14.1628 9.39384 13.8319C10.785 13.5009 12.0123 12.6839 12.8544 11.5281C13.6966 10.3724 14.0982 8.95381 13.987 7.52811C13.8758 6.10241 13.259 4.76332 12.2478 3.75213C11.2366 2.74095 9.89751 2.12417 8.47181 2.01295C7.04611 1.90173 5.62757 2.30337 4.4718 3.1455C3.31603 3.98764 2.49905 5.21488 2.16807 6.60608C1.83709 7.99728 2.01388 9.46095 2.66659 10.7333L1.33325 14.6667L5.26659 13.3333Z" stroke="black" stroke-width="1.5" stroke-linecap="round" stroke-linejoin="round"/>
<path d="M5.33325 8H5.33992" stroke="black" stroke-width="1.5" stroke-linecap="round" stroke-linejoin="round"/>
<path d="M8 8H8.00667" stroke="black" stroke-width="1.5" stroke-linecap="round" stroke-linejoin="round"/>
<path d="M10.6667 8H10.6734" stroke="black" stroke-width="1.5" stroke-linecap="round" stroke-linejoin="round"/>
</svg>
