<svg width="15" height="15" viewBox="0 0 15 15" fill="none" xmlns="http://www.w3.org/2000/svg">
<path fill-rule="evenodd" clip-rule="evenodd" d="M12.87 1.83637C13.0557 1.63204 13.0407 1.31581 12.8363 1.13006C12.632 0.944307 12.3158 0.959365 12.13 1.16369L10.4589 3.00199C10.2216 1.58215 8.98719 0.5 7.5 0.5C5.84315 0.5 4.5 1.84315 4.5 3.5L4.5 7.5C4.5 8.0754 4.66199 8.61297 4.94286 9.06958L4.24966 9.8321C4.1363 9.6744 4.03412 9.5081 3.94428 9.33433C3.86104 9.17337 3.78845 9.00607 3.72742 8.83338C3.63539 8.57302 3.34973 8.43656 3.08937 8.52858C2.82901 8.6206 2.69255 8.90626 2.78458 9.16662C2.86101 9.38288 2.95188 9.59228 3.056 9.79364C3.20094 10.074 3.37167 10.3388 3.56506 10.5852L2.13003 12.1637C1.94428 12.368 1.95933 12.6842 2.16366 12.87C2.36799 13.0558 2.68422 13.0407 2.86997 12.8364L4.25951 11.3079C5.01297 11.9497 5.95951 12.372 7.00014 12.4753L7.00014 14L5.50014 14C5.22399 14 5.00014 14.2239 5.00014 14.5C5.00014 14.7761 5.22399 15 5.50014 15L7.50014 15L9.50014 15C9.77628 15 10.0001 14.7761 10.0001 14.5C10.0001 14.2239 9.77628 14 9.50014 14L8.00014 14L8.00014 12.4753C9.72168 12.3043 11.1857 11.26 11.9439 9.79364C12.048 9.59228 12.1389 9.38288 12.2153 9.16662C12.3073 8.90626 12.1709 8.6206 11.9105 8.52858C11.6501 8.43656 11.3645 8.57302 11.2725 8.83338C11.2114 9.00607 11.1388 9.17337 11.0556 9.33433C10.3899 10.6218 9.04706 11.5 7.49994 11.5C6.523 11.5 5.62751 11.1498 4.93254 10.5675L5.60604 9.82669C6.12251 10.2476 6.78178 10.5 7.5 10.5C9.15685 10.5 10.5 9.15685 10.5 7.5L10.5 4.44333L12.87 1.83637ZM9.5 4.05673L9.5 3.5C9.5 2.39543 8.60457 1.5 7.5 1.5C6.39543 1.5 5.5 2.39543 5.5 3.5L5.5 7.5C5.5 7.77755 5.55653 8.04189 5.65872 8.28214L9.5 4.05673ZM6.28022 9.08509L9.5 5.54333L9.5 7.5C9.5 8.60457 8.60457 9.5 7.5 9.5C7.04083 9.5 6.6178 9.34527 6.28022 9.08509Z" fill="black"/>
</svg>
