<svg width="15" height="15" viewBox="0 0 15 15" fill="none" xmlns="http://www.w3.org/2000/svg">
<path fill-rule="evenodd" clip-rule="evenodd" d="M3.72742 8.83338C3.63539 8.57302 3.34973 8.43656 3.08937 8.52858C2.82901 8.6206 2.69255 8.90626 2.78458 9.16662C2.86101 9.38288 2.95188 9.59228 3.056 9.79364C3.81427 11.2601 5.27842 12.3044 7.00014 12.4753L7.00014 14L5.50014 14C5.22399 14 5.00014 14.2239 5.00014 14.5C5.00014 14.7761 5.22399 15 5.50014 15L7.50014 15L9.50014 15C9.77628 15 10.0001 14.7761 10.0001 14.5C10.0001 14.2239 9.77628 14 9.50014 14L8.00014 14L8.00014 12.4753C9.72168 12.3043 11.1857 11.26 11.9439 9.79364C12.048 9.59228 12.1389 9.38288 12.2153 9.16662C12.3073 8.90626 12.1709 8.6206 11.9105 8.52858C11.6501 8.43656 11.3645 8.57302 11.2725 8.83338C11.2114 9.00607 11.1388 9.17337 11.0556 9.33433C10.3899 10.6218 9.04706 11.5 7.49994 11.5C5.95282 11.5 4.60997 10.6218 3.94428 9.33433C3.86104 9.17337 3.78845 9.00607 3.72742 8.83338ZM5.5 3.5L5.5 7.5C5.5 8.60457 6.39543 9.5 7.5 9.5C8.60457 9.5 9.5 8.60457 9.5 7.5L9.5 3.5C9.5 2.39543 8.60457 1.5 7.5 1.5C6.39543 1.5 5.5 2.39543 5.5 3.5ZM4.5 7.5C4.5 9.15685 5.84315 10.5 7.5 10.5C9.15685 10.5 10.5 9.15685 10.5 7.5L10.5 3.5C10.5 1.84315 9.15685 0.5 7.5 0.5C5.84315 0.5 4.5 1.84315 4.5 3.5L4.5 7.5Z" fill="black"/>
</svg>
