<svg width="15" height="16" viewBox="0 0 15 16" fill="none" xmlns="http://www.w3.org/2000/svg">
<path fill-rule="evenodd" clip-rule="evenodd" d="M3.72742 9.33338C3.63539 9.07302 3.34973 8.93656 3.08937 9.02858C2.82901 9.1206 2.69255 9.40626 2.78458 9.66662C2.86101 9.88288 2.95188 10.0923 3.056 10.2936C3.81427 11.7601 5.27842 12.8044 7.00014 12.9753L7.00014 14.5L5.50014 14.5C5.22399 14.5 5.00014 14.7239 5.00014 15C5.00014 15.2761 5.22399 15.5 5.50014 15.5L7.50014 15.5L9.50014 15.5C9.77628 15.5 10.0001 15.2761 10.0001 15C10.0001 14.7239 9.77628 14.5 9.50014 14.5L8.00014 14.5L8.00014 12.9753C9.72168 12.8043 11.1857 11.76 11.9439 10.2936C12.048 10.0923 12.1389 9.88288 12.2153 9.66662C12.3073 9.40626 12.1709 9.1206 11.9105 9.02858C11.6501 8.93656 11.3645 9.07302 11.2725 9.33338C11.2114 9.50607 11.1388 9.67337 11.0556 9.83433C10.3899 11.1218 9.04706 12 7.49994 12C5.95282 12 4.60997 11.1218 3.94428 9.83433C3.86104 9.67337 3.78845 9.50607 3.72742 9.33338ZM5.5 4L5.5 8C5.5 9.10457 6.39543 10 7.5 10C8.60457 10 9.5 9.10457 9.5 8L9.5 4C9.5 2.89543 8.60457 2 7.5 2C6.39543 2 5.5 2.89543 5.5 4ZM4.5 8C4.5 9.65685 5.84315 11 7.5 11C9.15685 11 10.5 9.65685 10.5 8L10.5 4C10.5 2.34315 9.15685 1 7.5 1C5.84315 1 4.5 2.34315 4.5 4L4.5 8Z" fill="#F18779"/>
<path d="M12.5 2.00003L2.5 13" stroke="#F18779" stroke-linecap="round"/>
</svg>

