<svg width="8" height="8" viewBox="0 0 8 8" fill="none" xmlns="http://www.w3.org/2000/svg">
<g clip-path="url(#clip0_609_75)">
<path d="M0.854041 7.85284L2.75022 5.95775V6.74984C2.75022 7.02622 2.97379 7.24979 3.25017 7.24979C3.52654 7.24979 3.75011 7.02622 3.75011 6.74984V4.75008C3.75011 4.68493 3.73683 4.62009 3.71152 4.55916C3.6609 4.43605 3.56404 4.33919 3.44061 4.28919C3.37968 4.26264 3.31563 4.25014 3.25001 4.25014H1.25024C0.97387 4.25014 0.750303 4.4737 0.750303 4.75008C0.750303 5.02645 0.97387 5.25002 1.25024 5.25002H2.04312L0.146467 7.14667C-0.0488224 7.34196 -0.0488224 7.65833 0.146467 7.85362C0.341757 8.04891 0.658595 8.04813 0.853884 7.85284H0.854041ZM4.28911 3.44086C4.33973 3.56334 4.43706 3.66083 4.5597 3.71145C4.62032 3.7377 4.68437 3.7502 4.74999 3.7502H6.74976C7.02613 3.7502 7.2497 3.52663 7.2497 3.25025C7.2497 2.97388 7.02613 2.75031 6.74976 2.75031H5.95688L7.85353 0.85366C8.04882 0.65837 8.04882 0.342001 7.85353 0.146711C7.6584 -0.048422 7.34203 -0.0487345 7.14658 0.146711L5.24993 2.04415V1.25049C5.24993 0.974114 5.02636 0.750547 4.74999 0.750547C4.47362 0.750547 4.25005 0.974114 4.25005 1.25049V3.23619C4.25005 3.31587 4.26255 3.37993 4.28911 3.44086Z" fill="white"/>
</g>
<defs>
<clipPath id="clip0_609_75">
<rect width="8" height="8" fill="white"/>
</clipPath>
</defs>
</svg>
