<svg width="16" height="16" viewBox="0 0 16 16" fill="none" xmlns="http://www.w3.org/2000/svg">
<path d="M14 4H2" stroke="black" stroke-width="1.5" stroke-linecap="round" stroke-linejoin="round"/>
<path d="M4.66667 8H2" stroke="black" stroke-width="1.5" stroke-linecap="round" stroke-linejoin="round"/>
<path d="M4.66667 12H2" stroke="black" stroke-width="1.5" stroke-linecap="round" stroke-linejoin="round"/>
<path d="M8.00016 12C8.41993 12.5597 9.00515 12.9731 9.67294 13.1817C10.3407 13.3903 11.0572 13.3835 11.7209 13.1623C12.3846 12.941 12.9619 12.5166 13.371 11.949C13.78 11.3815 14.0002 10.6996 14.0002 10C14.0002 9.20435 13.6841 8.44129 13.1215 7.87868C12.5589 7.31607 11.7958 7 11.0002 7C10.1135 7 9.30683 7.36 8.72683 7.94L7.3335 9.33333" stroke="black" stroke-width="1.5" stroke-linecap="round" stroke-linejoin="round"/>
<path d="M7.3335 6.66669V9.33335H10.0002" stroke="black" stroke-width="1.5" stroke-linecap="round" stroke-linejoin="round"/>
</svg>
