<svg width="16" height="16" viewBox="0 0 16 16" fill="none" xmlns="http://www.w3.org/2000/svg">
<path d="M9.23593 2.55334C10.3635 2.55334 11.4448 3.00126 12.2421 3.79854C13.0394 4.59583 13.4873 5.67718 13.4873 6.80472" stroke="#DCE0E5" stroke-width="1.2" stroke-linecap="round" stroke-linejoin="round"/>
<path d="M9.23593 4.44281C9.86234 4.44281 10.4631 4.69165 10.906 5.13459C11.349 5.57752 11.5978 6.17828 11.5978 6.80468" stroke="#DCE0E5" stroke-width="1.2" stroke-linecap="round" stroke-linejoin="round"/>
<path d="M8.97096 10.421C9.08042 10.4713 9.20373 10.4828 9.32059 10.4536C9.43745 10.4244 9.54088 10.3563 9.61385 10.2604L9.802 10.014C9.90073 9.88235 10.0288 9.7755 10.1759 9.7019C10.3231 9.62831 10.4854 9.59 10.65 9.59H12.24C12.5211 9.59 12.7907 9.70167 12.9895 9.90046C13.1883 10.0993 13.3 10.3689 13.3 10.65V12.24C13.3 12.5211 13.1883 12.7907 12.9895 12.9895C12.7907 13.1883 12.5211 13.3 12.24 13.3C9.70983 13.3 7.2833 12.2949 5.49421 10.5058C3.70511 8.7167 2.70001 6.29017 2.70001 3.76001C2.70001 3.47888 2.81169 3.20927 3.01048 3.01048C3.20927 2.81169 3.47888 2.70001 3.76001 2.70001H5.35001C5.63113 2.70001 5.90075 2.81169 6.09954 3.01048C6.29833 3.20927 6.41 3.47888 6.41 3.76001V5.35001C6.41 5.51457 6.37169 5.67687 6.2981 5.82405C6.2245 5.97124 6.11765 6.09927 5.986 6.198L5.73797 6.38403C5.64067 6.45833 5.57209 6.56401 5.54387 6.68314C5.51566 6.80226 5.52956 6.92748 5.58321 7.03752C6.30754 8.50873 7.49885 9.69854 8.97096 10.421Z" stroke="#DCE0E5" stroke-width="1.2" stroke-linecap="round" stroke-linejoin="round"/>
</svg>
