<svg width="16" height="16" viewBox="0 0 16 16" fill="none" xmlns="http://www.w3.org/2000/svg">
<path d="M9.5 3C10.3409 3.22145 11.108 3.66214 11.723 4.27705C12.3379 4.89196 12.7785 5.65906 13 6.5" stroke="#DCE0E5" stroke-width="1.2" stroke-linecap="round" stroke-linejoin="round"/>
<path d="M9 5C10.0325 5.27625 10.7237 5.9675 11 7" stroke="#DCE0E5" stroke-width="1.2" stroke-linecap="round" stroke-linejoin="round"/>
<path d="M9.59842 9.46784C9.66164 9.42577 9.73436 9.40013 9.81 9.39326C9.88563 9.38638 9.96178 9.39848 10.0316 9.42846L12.7229 10.6343C12.8136 10.6731 12.8893 10.7402 12.9387 10.8256C12.988 10.9109 13.0084 11.01 12.9968 11.108C12.9081 11.7706 12.5819 12.3784 12.0786 12.8184C11.5754 13.2585 10.9295 13.5008 10.261 13.5003C8.20257 13.5003 6.22847 12.6826 4.77295 11.227C3.31744 9.77153 2.49974 7.79743 2.49974 5.73902C2.49923 5.07053 2.74153 4.42461 3.18157 3.92137C3.62161 3.41814 4.22944 3.09185 4.89203 3.00319C4.98997 2.99155 5.08906 3.01195 5.17444 3.06133C5.25983 3.11071 5.32693 3.18642 5.36569 3.27711L6.57154 5.97072C6.60116 6.0399 6.61323 6.11534 6.60666 6.19031C6.60008 6.26528 6.57508 6.33747 6.53387 6.40044L5.31433 7.85054C5.27107 7.91581 5.24549 7.9912 5.24009 8.06932C5.23469 8.14744 5.24965 8.22563 5.28351 8.29624C5.75546 9.26239 6.75415 10.2491 7.72317 10.7165C7.79415 10.7502 7.87269 10.7648 7.95105 10.7589C8.02941 10.753 8.10488 10.7268 8.17001 10.6828L9.59842 9.46784Z" stroke="#DCE0E5" stroke-width="1.2" stroke-linecap="round" stroke-linejoin="round"/>
</svg>
