<svg width="16" height="16" viewBox="0 0 16 16" fill="none" xmlns="http://www.w3.org/2000/svg">
<path d="M6.98001 12.8001H3.20001C2.88175 12.8001 2.57652 12.6736 2.35148 12.4486C2.12644 12.2235 2.00001 11.9183 2.00001 11.6001V3.80006C2.00001 3.4818 2.12644 3.17658 2.35148 2.95154C2.57652 2.72649 2.88175 2.60006 3.20001 2.60006H5.58801C5.7887 2.5981 5.98668 2.6465 6.16383 2.74084C6.34097 2.83517 6.49163 2.97244 6.60201 3.14006L6.99801 3.86006C7.10727 4.02598 7.25602 4.16218 7.43091 4.25643C7.60579 4.35067 7.80134 4.40003 8.00001 4.40006H12.8C13.1183 4.40006 13.4235 4.52649 13.6485 4.75153C13.8736 4.97658 14 5.2818 14 5.60006V7.58006" stroke="#C6CAD0" stroke-width="1.2" stroke-linecap="round" stroke-linejoin="round"/>
<path d="M9.8 11.6H11.6M11.6 11.6H13.4M11.6 11.6V9.79999M11.6 11.6V13.4" stroke="#C6CAD0" stroke-width="1.2" stroke-linecap="round" stroke-linejoin="round"/>
</svg>
