<svg width="16" height="16" viewBox="0 0 16 16" fill="none" xmlns="http://www.w3.org/2000/svg">
<path d="M10.1645 4.45825L5.20344 9.52074C4.98225 9.74193 4.85798 10.0419 4.85798 10.3548C4.85798 10.6676 4.98225 10.9676 5.20344 11.1888C5.42464 11.41 5.72464 11.5342 6.03746 11.5342C6.35028 11.5342 6.65028 11.41 6.87148 11.1888L11.8326 6.12629C12.2749 5.68397 12.5234 5.08407 12.5234 4.45854C12.5234 3.83302 12.2749 3.23311 11.8326 2.7908C11.3902 2.34849 10.7903 2.1 10.1648 2.1C9.53928 2.1 8.93938 2.34849 8.49707 2.7908L3.55663 7.83265C3.22373 8.16017 2.95897 8.55037 2.77762 8.98072C2.59628 9.41108 2.50193 9.87308 2.50003 10.3401C2.49813 10.8071 2.58871 11.2698 2.76654 11.7017C2.94438 12.1335 3.20595 12.5258 3.53618 12.856C3.8664 13.1863 4.25873 13.4478 4.69055 13.6257C5.12237 13.8035 5.58513 13.8941 6.05213 13.8922C6.51913 13.8903 6.98114 13.7959 7.41149 13.6146C7.84185 13.4332 8.23204 13.1685 8.55957 12.8356L13.5 7.79373" stroke="#C4CAD4" stroke-width="1.2" stroke-linecap="round" stroke-linejoin="round"/>
</svg>
