<svg width="16" height="16" viewBox="0 0 16 16" fill="none" xmlns="http://www.w3.org/2000/svg">
<path d="M8.5 5.50621L10.5941 3.41227C10.8585 3.14798 11.217 2.99953 11.5908 2.99957C11.9646 2.99962 12.3231 3.14816 12.5874 3.41252C12.8517 3.67688 13.0001 4.03541 13.0001 4.40922C13.0001 4.78304 12.8515 5.14152 12.5872 5.40582L10.493 7.5" stroke="black" stroke-width="1.2" stroke-linecap="round" stroke-linejoin="round"/>
<path d="M5.50789 8.5L3.92098 10.0869C3.80488 10.2027 3.71903 10.3452 3.67097 10.5019L3.01047 12.678C2.99754 12.7212 2.99657 12.7672 3.00764 12.8109C3.01872 12.8547 3.04143 12.8946 3.07337 12.9265C3.1053 12.9584 3.14528 12.981 3.18905 12.992C3.23282 13.003 3.27875 13.002 3.32197 12.989L5.49849 12.329C5.65508 12.2813 5.79758 12.196 5.91349 12.0805L7.49184 10.5019" stroke="black" stroke-width="1.2" stroke-linecap="round" stroke-linejoin="round"/>
<path d="M9 5L11 7" stroke="black" stroke-width="1.2" stroke-linecap="round" stroke-linejoin="round"/>
<path d="M3 3L13 13" stroke="black" stroke-width="1.2" stroke-linecap="round" stroke-linejoin="round"/>
</svg>
