<svg width="15" height="15" viewBox="0 0 15 15" fill="none" xmlns="http://www.w3.org/2000/svg">
<path fill-rule="evenodd" clip-rule="evenodd" d="M3.74393 2.00204C3.41963 1.97524 3.13502 2.37572 3.10823 2.70001C3.08143 3.0243 3.32558 3.47321 3.64986 3.50001C7.99878 3.85934 11.1406 7.00122 11.5 11.3501C11.5267 11.6744 11.9756 12.0269 12.3 12C12.6243 11.9733 13.0247 11.5804 12.998 11.2561C12.5912 6.33295 8.66704 2.40882 3.74393 2.00204ZM2.9 6.00001C2.96411 5.68099 3.33084 5.29361 3.64986 5.35772C6.66377 5.96341 9.03654 8.33618 9.64223 11.3501C9.70634 11.6691 9.319 12.0359 8.99999 12.1C8.68097 12.1641 8.06411 11.819 7.99999 11.5C7.48788 8.95167 6.0483 7.51213 3.49999 7.00001C3.18097 6.9359 2.8359 6.31902 2.9 6.00001ZM2 9.20001C2.0641 8.88099 2.38635 8.65788 2.70537 8.722C4.50255 9.08317 5.91684 10.4975 6.27801 12.2946C6.34212 12.6137 6.13547 12.9242 5.81646 12.9883C5.49744 13.0525 4.86411 12.819 4.8 12.5C4.53239 11.1683 3.83158 10.4676 2.5 10.2C2.18098 10.1359 1.93588 9.51902 2 9.20001Z" fill="black"/>
</svg>
