<svg width="15" height="15" viewBox="0 0 15 15" fill="none" xmlns="http://www.w3.org/2000/svg">
<path fill-rule="evenodd" clip-rule="evenodd" d="M4.82479 2.32196C4.54958 2.29922 4.30805 2.50389 4.28531 2.77909C4.26257 3.0543 4.46724 3.29583 4.74244 3.31857C8.43309 3.62351 11.3765 6.56695 11.6815 10.2576C11.7042 10.5328 11.9457 10.7375 12.221 10.7147C12.4962 10.692 12.7008 10.4505 12.6781 10.1753C12.3329 5.99733 9.00272 2.66717 4.82479 2.32196ZM4.15624 5.5614C4.21065 5.29067 4.47423 5.11531 4.74496 5.16971C7.30267 5.68372 9.31629 7.69734 9.8303 10.2551C9.88471 10.5258 9.70934 10.7894 9.43862 10.8438C9.16789 10.8982 8.90431 10.7228 8.8499 10.4521C8.4153 8.28949 6.71052 6.58472 4.54793 6.15011C4.2772 6.09571 4.10184 5.83213 4.15624 5.5614ZM3.35472 8.41645C3.40912 8.14572 3.6727 7.97035 3.94343 8.02476C5.46858 8.33126 6.6688 9.53148 6.9753 11.0566C7.02971 11.3274 6.85434 11.5909 6.58361 11.6453C6.31288 11.6998 6.04931 11.5244 5.9949 11.2537C5.7678 10.1236 4.87643 9.23225 3.7464 9.00516C3.47567 8.95075 3.30031 8.68718 3.35472 8.41645Z" fill="black"/>
</svg>
