<svg width="24" height="24" viewBox="0 0 24 24" fill="none" xmlns="http://www.w3.org/2000/svg">
<path d="M7 21V12M7 12H3M7 12H11" stroke="black" stroke-width="2" stroke-linecap="round"/>
<path d="M21 19L16 19L16 14" stroke="black" stroke-width="2" stroke-linecap="round" stroke-linejoin="round"/>
<path d="M7.99987 5.07027L7.49915 4.20467L7.99987 5.07027ZM6.04652 5.25026C5.63245 5.61573 5.59305 6.24766 5.95851 6.66173C6.32398 7.0758 6.95592 7.1152 7.36999 6.74974L6.04652 5.25026ZM11.9999 5C15.8659 5 18.9999 8.13401 18.9999 12H20.9999C20.9999 7.02944 16.9705 3 11.9999 3V5ZM18.9999 12C18.9999 14.2101 17.9768 16.1806 16.3744 17.4651L17.6254 19.0256C19.6809 17.3779 20.9999 14.8426 20.9999 12H18.9999ZM8.5006 5.93588C9.5292 5.34086 10.7232 5 11.9999 5V3C10.3623 3 8.82395 3.4383 7.49915 4.20467L8.5006 5.93588ZM7.36999 6.74974C7.71803 6.44255 8.09667 6.16954 8.5006 5.93588L7.49915 4.20467C6.9797 4.50515 6.49329 4.85593 6.04652 5.25026L7.36999 6.74974Z" fill="black"/>
</svg>
