<svg width="14" height="14" viewBox="0 0 14 14" fill="none" xmlns="http://www.w3.org/2000/svg">
<path d="M7 12C4.97279 12 3.22735 10.7936 2.4425 9.0595M7 2C9.11228 2 10.9186 3.30981 11.6512 5.16152" stroke="black" stroke-width="1.25" stroke-linecap="round" stroke-linejoin="round"/>
<circle cx="1.65625" cy="1.67188" r="0.625" fill="black" fill-opacity="0.75"/>
<circle cx="3.71094" cy="1.67188" r="0.625" fill="black" fill-opacity="0.75"/>
<circle cx="4.96094" cy="3.36719" r="0.625" fill="black" fill-opacity="0.75"/>
<circle cx="3.71094" cy="4.79688" r="0.625" fill="black" fill-opacity="0.75"/>
<circle cx="4.60156" cy="6.67188" r="0.625" fill="black" fill-opacity="0.75"/>
<circle cx="1.65625" cy="4.17188" r="0.625" fill="black" fill-opacity="0.75"/>
<circle cx="1.65625" cy="6.67188" r="0.625" fill="black" fill-opacity="0.75"/>
<path d="M10.7802 10.8195C10.838 10.8195 10.8906 10.8527 10.9155 10.9048L11.7174 12.5811C11.8088 12.7721 12.0017 12.8938 12.2135 12.8938H12.3394C12.7483 12.8938 13.0142 12.4635 12.8314 12.0978L12.1619 10.7589C12.1232 10.6816 12.1582 10.5823 12.241 10.5349C12.7565 10.2397 13.0695 9.66858 13.0695 9.00391C13.0695 8.43361 12.8777 7.97006 12.5248 7.64951C12.1725 7.3295 11.6652 7.15703 11.043 7.15703H9.49609C9.19234 7.15703 8.94609 7.40327 8.94609 7.70703V12.3438C8.94609 12.6475 9.19234 12.8938 9.49609 12.8938H9.60156C9.90532 12.8938 10.1516 12.6475 10.1516 12.3438V10.9695C10.1516 10.8867 10.2187 10.8195 10.3016 10.8195H10.7802ZM10.1516 8.31328C10.1516 8.23044 10.2187 8.16328 10.3016 8.16328H10.8984C11.2023 8.16328 11.4371 8.2449 11.5954 8.38814C11.7529 8.5308 11.8406 8.73993 11.8406 9.00781C11.8406 9.28155 11.751 9.49461 11.5909 9.63971C11.4302 9.7854 11.1925 9.86797 10.8867 9.86797H10.3016C10.2187 9.86797 10.1516 9.80081 10.1516 9.71797V8.31328Z" fill="black" stroke="black" stroke-width="0.1"/>
</svg>
