<svg xmlns="http://www.w3.org/2000/svg" width="16" height="16" fill="none"><path stroke="#000" stroke-linecap="round" stroke-linejoin="round" stroke-width="1.5" d="M2 8a6 6 0 0 1 6-6 6.5 6.5 0 0 1 4.493 1.827L14 5.333"/><path stroke="#000" stroke-linecap="round" stroke-linejoin="round" stroke-width="1.5" d="M14 2v3.333h-3.333M14 8a6 6 0 0 1-6 6 6.5 6.5 0 0 1-4.493-1.827L2 10.667"/><path stroke="#000" stroke-linecap="round" stroke-linejoin="round" stroke-width="1.5" d="M5.333 10.667H2V14"/><path fill="#000" d="M6.667 6.247c0-.257.279-.418.501-.288l3.005 1.753c.22.129.22.447 0 .576L7.168 10.04a.333.333 0 0 1-.501-.288V6.247Z"/></svg>
