<svg width="16" height="16" viewBox="0 0 16 16" fill="none" xmlns="http://www.w3.org/2000/svg">
<path fill-rule="evenodd" clip-rule="evenodd" d="M8.375 1.63C8.375 1.28482 8.65482 1.005 9 1.005H12.375C13.8247 1.005 15 2.18025 15 3.63V7.625C15 9.07474 13.8247 10.25 12.375 10.25H3.13388L6.07194 13.1881C6.31602 13.4321 6.31602 13.8279 6.07194 14.0719C5.82786 14.316 5.43214 14.316 5.18806 14.0719L1.18306 10.0669C0.938981 9.82286 0.938981 9.42714 1.18306 9.18306L5.18306 5.18306C5.42714 4.93898 5.82286 4.93898 6.06694 5.18306C6.31102 5.42714 6.31102 5.82286 6.06694 6.06694L3.13388 9H12.375C13.1344 9 13.75 8.38439 13.75 7.625V3.63C13.75 2.87061 13.1344 2.255 12.375 2.255H9C8.65482 2.255 8.375 1.97518 8.375 1.63Z" fill="black"/>
</svg>
