<svg width="14" height="16" viewBox="0 0 14 16" fill="none" xmlns="http://www.w3.org/2000/svg">
<path d="M2.5 4C2.5 2.89531 3.39688 2 4.5 2H9.5C10.6031 2 11.5 2.89531 11.5 4V8C11.5 9.10312 10.6031 10 9.5 10H4.5C3.39688 10 2.5 9.10312 2.5 8V4ZM5 4C4.44687 4 4 4.44687 4 5C4 5.55313 4.44687 6 5 6C5.55313 6 6 5.55313 6 5C6 4.44687 5.55313 4 5 4ZM9 6C9.55313 6 10 5.55313 10 5C10 4.44687 9.55313 4 9 4C8.44687 4 8 4.44687 8 5C8 5.55313 8.44687 6 9 6ZM5 8.5C5.275 8.5 5.5 8.275 5.5 8C5.5 7.725 5.275 7.5 5 7.5C4.725 7.5 4.5 7.725 4.5 8C4.5 8.275 4.725 8.5 5 8.5ZM7 7.5C6.725 7.5 6.5 7.725 6.5 8C6.5 8.275 6.725 8.5 7 8.5C7.275 8.5 7.5 8.275 7.5 8C7.5 7.725 7.275 7.5 7 7.5ZM9 8.5C9.275 8.5 9.5 8.275 9.5 8C9.5 7.725 9.275 7.5 9 7.5C8.725 7.5 8.5 7.725 8.5 8C8.5 8.275 8.725 8.5 9 8.5ZM0 14C0 12.3156 1.34312 11 3 11H11C12.6562 11 14 12.3156 14 14V15C14 15.5531 13.5531 16 13 16H11V14C11 13.4469 10.5531 13 10 13H4C3.44687 13 3 13.4469 3 14V16H1C0.447812 16 0 15.5531 0 15V14Z" fill="#808080"/>
<path d="M7.5 2H6.5V0.5C6.5 0.22375 6.725 0 7 0C7.275 0 7.5 0.22375 7.5 0.5V2ZM1.5 4.5V7.5C1.5 7.775 1.27625 8 1 8C0.72375 8 0.5 7.775 0.5 7.5V4.5C0.5 4.225 0.72375 4 1 4C1.27625 4 1.5 4.225 1.5 4.5ZM5.5 16H4.5V14.5C4.5 14.225 4.725 14 5 14C5.275 14 5.5 14.225 5.5 14.5V16ZM7.5 16H6.5V14.5C6.5 14.225 6.725 14 7 14C7.275 14 7.5 14.225 7.5 14.5V16ZM9 14C9.275 14 9.5 14.225 9.5 14.5V16H8.5V14.5C8.5 14.225 8.725 14 9 14ZM13.5 7.5C13.5 7.775 13.275 8 13 8C12.725 8 12.5 7.775 12.5 7.5V4.5C12.5 4.225 12.725 4 13 4C13.275 4 13.5 4.225 13.5 4.5V7.5Z" fill="#808080"/>
</svg>
