<svg width="16" height="16" viewBox="0 0 16 16" fill="none" xmlns="http://www.w3.org/2000/svg">
<path d="M6.03641 5.53641L8.33797 7.83797M13.0825 3.0934L6.03641 10.1395M9.99896 9.49896L13.0825 12.5825M4.77932 6.05864C5.25123 6.05864 5.7038 5.87118 6.03749 5.53749C6.37118 5.2038 6.55864 4.75123 6.55864 4.27932C6.55864 3.80742 6.37118 3.35484 6.03749 3.02115C5.7038 2.68746 5.25123 2.5 4.77932 2.5C4.30742 2.5 3.85484 2.68746 3.52115 3.02115C3.18746 3.35484 3 3.80742 3 4.27932C3 4.75123 3.18746 5.2038 3.52115 5.53749C3.85484 5.87118 4.30742 6.05864 4.77932 6.05864ZM4.77932 13.1759C5.25123 13.1759 5.7038 12.9885 6.03749 12.6548C6.37118 12.3211 6.55864 11.8685 6.55864 11.3966C6.55864 10.9247 6.37118 10.4721 6.03749 10.1384C5.7038 9.80475 5.25123 9.61729 4.77932 9.61729C4.30742 9.61729 3.85484 9.80475 3.52115 10.1384C3.18746 10.4721 3 10.9247 3 11.3966C3 11.8685 3.18746 12.3211 3.52115 12.6548C3.85484 12.9885 4.30742 13.1759 4.77932 13.1759Z" stroke="black" stroke-width="1.2" stroke-linecap="round" stroke-linejoin="round"/>
</svg>
