<svg xmlns="http://www.w3.org/2000/svg" width="16" height="16" fill="none"><path stroke="#000" stroke-linecap="round" stroke-width="1.5" d="M10.857 8v2.857m0 0v2.857m0-2.857h2.857m-2.857 0H8m2.857 0 1.905-1.905m-1.905 1.905-1.905 1.905m1.905-1.905 1.905 1.905m-1.905-1.905L8.952 8.952"/><path fill="#000" d="M2.507 4.4c-.002.473.154.856.472 1.14.313.279.737.482 1.268.611l.678.17a3.6 3.6 0 0 1 .566.18.89.89 0 0 1 .337.228.462.462 0 0 1 .111.315.568.568 0 0 1-.124.363.834.834 0 0 1-.362.253 1.521 1.521 0 0 1-.56.093c-.221 0-.418-.033-.59-.099a.94.94 0 0 1-.405-.295.826.826 0 0 1-.145-.33c-.025-.116-.122-.215-.25-.215h-.916a.231.231 0 0 0-.234.249c.034.375.141.698.325.968.216.312.515.547.895.705.381.158.827.235 1.335.235.512 0 .953-.076 1.32-.232.37-.158.655-.38.852-.668.2-.29.3-.632.302-1.023a1.712 1.712 0 0 0-.148-.715 1.612 1.612 0 0 0-.4-.541 2.33 2.33 0 0 0-.604-.384 4.002 4.002 0 0 0-.759-.246l-.559-.134a3.236 3.236 0 0 1-.376-.108 1.584 1.584 0 0 1-.305-.149.673.673 0 0 1-.199-.198.456.456 0 0 1-.06-.26v-.002c0-.122.034-.23.103-.325a.71.71 0 0 1 .316-.227c.14-.057.313-.087.523-.087.309 0 .546.066.717.193a.687.687 0 0 1 .262.378c.03.109.126.204.251.204h.91c.133 0 .246-.11.232-.248a1.759 1.759 0 0 0-.297-.82 1.971 1.971 0 0 0-.832-.68l-.024.052M2.507 4.4c-.002-.388.101-.729.312-1.021.21-.291.5-.517.865-.679a3.03 3.03 0 0 1 1.24-.242c.468 0 .88.08 1.233.242l-.024.052m-.66 4.962a.89.89 0 0 0 .387-.27l-.386.27Zm.387-.27a.625.625 0 0 0 .137-.399l-.137.399Zm.137-.399a.518.518 0 0 0-.125-.352l.125.352Z"/><path stroke="#000" stroke-width=".114" d="M2.507 4.4c-.002.473.154.856.472 1.14.313.279.737.482 1.268.611l.678.17a3.6 3.6 0 0 1 .566.18.89.89 0 0 1 .337.228.462.462 0 0 1 .111.315.568.568 0 0 1-.124.363.834.834 0 0 1-.362.253 1.521 1.521 0 0 1-.56.093c-.221 0-.418-.033-.59-.099a.94.94 0 0 1-.405-.295.826.826 0 0 1-.145-.33c-.025-.116-.122-.215-.25-.215h-.916a.231.231 0 0 0-.234.249c.034.375.141.698.325.968.216.312.515.547.895.705.381.158.827.235 1.335.235.512 0 .953-.076 1.32-.232.37-.158.655-.38.852-.668.2-.29.3-.632.302-1.023a1.712 1.712 0 0 0-.148-.715 1.612 1.612 0 0 0-.4-.541 2.33 2.33 0 0 0-.604-.384 4.002 4.002 0 0 0-.759-.246l-.559-.134a3.236 3.236 0 0 1-.376-.108 1.584 1.584 0 0 1-.305-.149.673.673 0 0 1-.199-.198.456.456 0 0 1-.06-.26v-.002c0-.122.034-.23.103-.325a.71.71 0 0 1 .316-.227c.14-.057.313-.087.523-.087.309 0 .546.066.717.193a.687.687 0 0 1 .262.378c.03.109.126.204.251.204h.91c.133 0 .246-.11.232-.248a1.759 1.759 0 0 0-.297-.82 1.971 1.971 0 0 0-.832-.68m-3.65 1.7c-.002-.388.101-.729.312-1.021.21-.291.5-.517.865-.679a3.03 3.03 0 0 1 1.24-.242c.468 0 .88.08 1.233.242m-3.65 1.7h.057m3.593-1.7-.024.052m0 0c-.344-.158-.748-.237-1.21-.237-.454 0-.86.08-1.216.237a2.03 2.03 0 0 0-.842.66m3.268-.66c.347.159.617.378.81.66.159.234.255.498.286.794a.17.17 0 0 1-.175.185h-.91c-.094 0-.17-.072-.196-.162a.744.744 0 0 0-.283-.41c-.184-.135-.435-.203-.75-.203m.559 4.098a1.577 1.577 0 0 1-.581.098c-.227 0-.43-.035-.611-.104a.997.997 0 0 1-.429-.313m1.62.32a.89.89 0 0 0 .387-.271m-.386.27.386-.27m0 0a.625.625 0 0 0 .137-.399m-.137.399.137-.399m0 0a.518.518 0 0 0-.125-.352l.125.352Z"/></svg>
