<svg width="14" height="14" viewBox="0 0 14 14" fill="none" xmlns="http://www.w3.org/2000/svg">
<path d="M9.5 7V9.5M9.5 12V9.5M12 9.5H9.5M7 9.5H9.5M9.5 9.5L11.1667 7.83333M9.5 9.5L7.83333 11.1667M9.5 9.5L11.1667 11.1667M9.5 9.5L7.83333 7.83333" stroke="#11181C" stroke-width="1.25" stroke-linecap="round"/>
<path d="M2.19366 3.84943C2.19188 4.26418 2.32864 4.59864 2.60673 4.84707C2.88052 5.09166 3.25136 5.26933 3.71609 5.3824C3.71616 5.38242 3.71623 5.38243 3.7163 5.38245L4.30919 5.53134L4.30919 5.53134L4.30965 5.53145C4.50649 5.57891 4.67124 5.63133 4.80447 5.68843L4.80469 5.68852C4.93838 5.74508 5.03564 5.81206 5.10001 5.8877L5.10001 5.8877L5.10041 5.88816C5.16432 5.96142 5.19716 6.05222 5.19716 6.16389C5.19716 6.28412 5.1609 6.38933 5.0882 6.48141C5.01496 6.57418 4.91031 6.64838 4.77141 6.70259L4.77121 6.70266C4.63472 6.75659 4.47185 6.7843 4.28146 6.7843C4.08801 6.7843 3.91607 6.75496 3.76491 6.69726C3.61654 6.6382 3.49924 6.55209 3.41132 6.43942C3.3502 6.35821 3.30747 6.26204 3.28375 6.14992C3.26238 6.04888 3.1772 5.96225 3.06518 5.96225H2.26366C2.14682 5.96225 2.04842 6.05919 2.0592 6.18012C2.08842 6.50802 2.1826 6.79102 2.34331 7.02735L2.34352 7.02767C2.53217 7.30057 2.79377 7.50587 3.12633 7.64399L3.12642 7.64402C3.46009 7.78185 3.84993 7.85 4.29476 7.85C4.74293 7.85 5.12859 7.7828 5.45023 7.64651L5.45036 7.64646C5.77328 7.50857 6.02259 7.31417 6.19551 7.06217C6.37037 6.80817 6.4579 6.50901 6.45972 6.16682L6.45972 6.16616C6.4579 5.9333 6.41513 5.72482 6.33012 5.54178C6.2474 5.35987 6.13061 5.20175 5.98007 5.06773C5.83038 4.93448 5.65389 4.82273 5.4511 4.7322C5.24919 4.64206 5.02795 4.57016 4.78757 4.51632L4.29841 4.39935L4.29841 4.39934L4.29771 4.39919C4.18081 4.37301 4.07116 4.34168 3.9687 4.30523C3.86715 4.26734 3.77847 4.22375 3.70232 4.17471C3.62796 4.12508 3.57037 4.06717 3.52849 4.00124C3.49012 3.93815 3.47157 3.86312 3.47481 3.77407L3.47484 3.77407V3.77225C3.47484 3.66563 3.50527 3.57146 3.56612 3.48808C3.6287 3.40475 3.71977 3.33801 3.84235 3.28931L3.84235 3.28932L3.84289 3.28909C3.96465 3.23906 4.1165 3.21304 4.30008 3.21304C4.57006 3.21304 4.77746 3.27105 4.92754 3.38154C5.04235 3.46608 5.11838 3.57594 5.15673 3.71259C5.18352 3.80802 5.26636 3.89142 5.37611 3.89142H6.17259C6.28852 3.89142 6.38806 3.7953 6.37515 3.67382C6.34686 3.4077 6.26051 3.16831 6.1158 2.95658C5.94159 2.70169 5.6982 2.50368 5.38762 2.36201L5.36687 2.4075M2.19366 3.84943C2.19187 3.51004 2.28242 3.21139 2.46644 2.9556L2.46658 2.9554C2.65148 2.70093 2.90447 2.50326 3.22368 2.36179C3.54316 2.2202 3.90494 2.15 4.30807 2.15C4.71809 2.15 5.07841 2.22014 5.38773 2.36206L5.36687 2.4075M2.19366 3.84943C2.19366 3.84951 2.19366 3.84959 2.19366 3.84967L2.24366 3.8494L2.19366 3.84918C2.19366 3.84926 2.19366 3.84935 2.19366 3.84943ZM5.36687 2.4075C5.06537 2.26917 4.71244 2.2 4.30807 2.2C3.91079 2.2 3.55608 2.26917 3.24394 2.4075C2.93179 2.54584 2.68616 2.73827 2.50703 2.9848L3.82389 3.24285L3.82389 3.24285C3.95336 3.18964 4.11209 3.16304 4.30008 3.16304C4.57676 3.16304 4.79579 3.22245 4.95718 3.34128C5.08094 3.43239 5.1635 3.55166 5.20487 3.69908C5.2271 3.77827 5.29386 3.84142 5.37611 3.84142H6.17259C6.26198 3.84142 6.33488 3.76799 6.32543 3.6791C6.29797 3.4208 6.21433 3.18936 6.07452 2.9848C5.90603 2.73827 5.67015 2.54584 5.36687 2.4075ZM4.78958 6.74917C4.64593 6.80592 4.47655 6.8343 4.28146 6.8343C4.08283 6.8343 3.90458 6.80415 3.74674 6.74384C3.59067 6.68177 3.46563 6.59043 3.37163 6.46983L4.78958 6.74917ZM4.78958 6.74917C4.93502 6.69241 5.04764 6.61349 5.12745 6.5124M4.78958 6.74917L5.12745 6.5124M5.12745 6.5124C5.20726 6.4113 5.24716 6.29514 5.24716 6.16389M5.12745 6.5124L5.24716 6.16389M5.24716 6.16389C5.24716 6.04152 5.2108 5.93865 5.13809 5.85529L5.24716 6.16389Z" fill="#687076" stroke="#687076" stroke-width="0.1"/>
</svg>

