<svg width="14" height="14" viewBox="0 0 14 14" fill="none" xmlns="http://www.w3.org/2000/svg">
<path d="M9.5 7V9.5M9.5 9.5V12M9.5 9.5H12M9.5 9.5H7M9.5 9.5L11.1667 7.83333M9.5 9.5L7.83333 11.1667M9.5 9.5L11.1667 11.1667M9.5 9.5L7.83333 7.83333" stroke="#687076" stroke-width="1.25" stroke-linecap="round"/>
<path d="M2.19368 3.84945C2.1919 4.2642 2.32866 4.59866 2.60675 4.84709C2.88054 5.09168 3.25138 5.26935 3.71611 5.38242L4.30921 5.53136C4.50605 5.57882 4.67126 5.63135 4.80449 5.68845C4.93818 5.74501 5.03566 5.81208 5.10003 5.88772C5.16394 5.96098 5.19718 6.05224 5.19718 6.16391C5.19718 6.28414 5.16092 6.38935 5.08822 6.48143C5.01498 6.5742 4.91033 6.6484 4.77143 6.70261C4.63494 6.75654 4.47187 6.78432 4.28148 6.78432C4.08803 6.78432 3.91609 6.75498 3.76493 6.69728C3.61656 6.63822 3.49926 6.55211 3.41134 6.43944C3.35022 6.35823 3.30749 6.26206 3.28377 6.14994C3.2624 6.0489 3.17722 5.96227 3.0652 5.96227H2.26368C2.14684 5.96227 2.04844 6.05921 2.05922 6.18014C2.08844 6.50804 2.18262 6.79104 2.34333 7.02737C2.53198 7.30027 2.79379 7.50589 3.12635 7.64401C3.46002 7.78184 3.84995 7.85002 4.29478 7.85002C4.74295 7.85002 5.12861 7.78282 5.45025 7.64653C5.77317 7.50864 6.02261 7.31419 6.19553 7.06219C6.37039 6.80819 6.45792 6.50903 6.45974 6.16684C6.45792 5.93398 6.41515 5.72484 6.33014 5.5418C6.24742 5.35989 6.13063 5.20177 5.98009 5.06775C5.8304 4.9345 5.65391 4.82275 5.45112 4.73222C5.24921 4.64208 5.02797 4.57018 4.78759 4.51634L4.29843 4.39937C4.18153 4.37319 4.07118 4.3417 3.96872 4.30525C3.86717 4.26736 3.77849 4.22377 3.70234 4.17473C3.62798 4.1251 3.57039 4.06719 3.52851 4.00126C3.49014 3.93817 3.47159 3.86314 3.47483 3.77409L3.47486 3.77227C3.47486 3.66565 3.50529 3.57148 3.56614 3.4881C3.62872 3.40477 3.71979 3.33803 3.84237 3.28933C3.96413 3.2393 4.11652 3.21306 4.3001 3.21306C4.57008 3.21306 4.77748 3.27107 4.92756 3.38156C5.04237 3.4661 5.1184 3.57596 5.15675 3.71261C5.18354 3.80804 5.26638 3.89144 5.37613 3.89144H6.17261C6.28854 3.89144 6.38808 3.79532 6.37517 3.67384C6.34688 3.40772 6.26053 3.16833 6.11582 2.9566C5.94161 2.70171 5.69822 2.5037 5.38764 2.36203L5.36689 2.40752M2.19368 3.84945C2.19189 3.51006 2.28244 3.21141 2.46646 2.95562C2.65136 2.70115 2.90449 2.50328 3.2237 2.36181C3.54318 2.22022 3.90496 2.15002 4.30809 2.15002C4.71811 2.15002 5.07832 2.22011 5.38764 2.36203L5.36689 2.40752M4.7896 6.74919C4.93504 6.69243 5.04766 6.61351 5.12747 6.51242ZM4.7896 6.74919L5.12747 6.51242ZM5.12747 6.51242C5.20728 6.41132 5.24718 6.29516 5.24718 6.16391ZM5.12747 6.51242L5.24718 6.16391ZM5.24718 6.16391C5.24718 6.04154 5.21082 5.93867 5.13811 5.85531L5.24718 6.16391Z" fill="#687076"/>
<path d="M2.19368 3.84945C2.1919 4.2642 2.32866 4.59866 2.60675 4.84709C2.88054 5.09168 3.25138 5.26935 3.71611 5.38242L4.30921 5.53136C4.50605 5.57882 4.67126 5.63135 4.80449 5.68845C4.93818 5.74501 5.03566 5.81208 5.10003 5.88772C5.16394 5.96098 5.19718 6.05224 5.19718 6.16391C5.19718 6.28414 5.16092 6.38935 5.08822 6.48143C5.01498 6.5742 4.91033 6.6484 4.77143 6.70261C4.63494 6.75654 4.47187 6.78432 4.28148 6.78432C4.08803 6.78432 3.91609 6.75498 3.76493 6.69728C3.61656 6.63822 3.49926 6.55211 3.41134 6.43944C3.35022 6.35823 3.30749 6.26206 3.28377 6.14994C3.2624 6.0489 3.17722 5.96227 3.0652 5.96227H2.26368C2.14684 5.96227 2.04844 6.05921 2.05922 6.18014C2.08844 6.50804 2.18262 6.79104 2.34333 7.02737C2.53198 7.30027 2.79379 7.50589 3.12635 7.64401C3.46002 7.78184 3.84995 7.85002 4.29478 7.85002C4.74295 7.85002 5.12861 7.78282 5.45025 7.64653C5.77317 7.50864 6.02261 7.31419 6.19553 7.06219C6.37039 6.80819 6.45792 6.50903 6.45974 6.16684C6.45792 5.93398 6.41515 5.72484 6.33014 5.5418C6.24742 5.35989 6.13063 5.20177 5.98009 5.06775C5.8304 4.9345 5.65391 4.82275 5.45112 4.73222C5.24921 4.64208 5.02797 4.57018 4.78759 4.51634L4.29843 4.39937C4.18153 4.37319 4.07118 4.3417 3.96872 4.30525C3.86717 4.26736 3.77849 4.22377 3.70234 4.17473C3.62798 4.1251 3.57039 4.06719 3.52851 4.00126C3.49014 3.93817 3.47159 3.86314 3.47483 3.77409L3.47486 3.77227C3.47486 3.66565 3.50529 3.57148 3.56614 3.4881C3.62872 3.40477 3.71979 3.33803 3.84237 3.28933C3.96413 3.2393 4.11652 3.21306 4.3001 3.21306C4.57008 3.21306 4.77748 3.27107 4.92756 3.38156C5.04237 3.4661 5.1184 3.57596 5.15675 3.71261C5.18354 3.80804 5.26638 3.89144 5.37613 3.89144H6.17261C6.28854 3.89144 6.38808 3.79532 6.37517 3.67384C6.34688 3.40772 6.26053 3.16833 6.11582 2.9566C5.94161 2.70171 5.69822 2.5037 5.38764 2.36203M2.19368 3.84945C2.19189 3.51006 2.28244 3.21141 2.46646 2.95562C2.65136 2.70115 2.90449 2.50328 3.2237 2.36181C3.54318 2.22022 3.90496 2.15002 4.30809 2.15002C4.71811 2.15002 5.07832 2.22011 5.38764 2.36203M2.19368 3.84945L2.24368 3.84942M5.38764 2.36203L5.36689 2.40752M5.36689 2.40752C5.06539 2.26919 4.71246 2.20002 4.30809 2.20002C3.91081 2.20002 3.5561 2.26919 3.24396 2.40752C2.93181 2.54586 2.68618 2.73829 2.50705 2.98482M5.36689 2.40752C5.67017 2.54586 5.90605 2.73829 6.07454 2.98482C6.21435 3.18938 6.29799 3.42082 6.32545 3.67912C6.3349 3.76801 6.262 3.84144 6.17261 3.84144H5.37613C5.29388 3.84144 5.22712 3.77829 5.20489 3.6991C5.16352 3.55168 5.08096 3.43241 4.9572 3.3413C4.79581 3.22247 4.57678 3.16306 4.3001 3.16306M4.7896 6.74919C4.64595 6.80594 4.47657 6.83432 4.28148 6.83432C4.08285 6.83432 3.9046 6.80417 3.74676 6.74386C3.59069 6.68179 3.46565 6.59045 3.37165 6.46985M4.7896 6.74919C4.93504 6.69243 5.04766 6.61351 5.12747 6.51242M4.7896 6.74919L5.12747 6.51242M5.12747 6.51242C5.20728 6.41132 5.24718 6.29516 5.24718 6.16391M5.12747 6.51242L5.24718 6.16391M5.24718 6.16391C5.24718 6.04154 5.21082 5.93867 5.13811 5.85531L5.24718 6.16391Z" stroke="#687076" stroke-width="0.1"/>
</svg>
