<svg width="14" height="14" viewBox="0 0 14 14" fill="none" xmlns="http://www.w3.org/2000/svg">
<path d="M3.09666 3.02263C3.0567 3.00312 3.01178 2.9961 2.96778 3.0025C2.92377 3.00889 2.88271 3.02839 2.84995 3.05847C2.8172 3.08854 2.79426 3.12778 2.78413 3.17108C2.77401 3.21439 2.77716 3.25973 2.79319 3.30121L4.05638 6.69C4.13088 6.89005 4.13088 7.11022 4.05638 7.31027L2.79363 10.6991C2.77769 10.7405 2.77457 10.7858 2.78469 10.829C2.79481 10.8722 2.8177 10.9114 2.85038 10.9414C2.88306 10.9715 2.92402 10.991 2.96794 10.9975C3.01186 11.0039 3.05671 10.997 3.09666 10.9776L11.0943 7.20097C11.1324 7.18297 11.1645 7.15455 11.187 7.11899C11.2096 7.08344 11.2215 7.04222 11.2215 7.00014C11.2215 6.95805 11.2096 6.91683 11.187 6.88128C11.1645 6.84573 11.1324 6.8173 11.0943 6.79931L3.09666 3.02263Z" stroke="black" stroke-width="1.33333" stroke-linecap="round" stroke-linejoin="round"/>
<path d="M4.11255 7.00014H11.2216" stroke="black" stroke-width="1.33333" stroke-linecap="round" stroke-linejoin="round"/>
</svg>
