<svg width="16" height="16" viewBox="0 0 16 16" fill="none" xmlns="http://www.w3.org/2000/svg">
<path d="M8.14667 1.33334H7.85333C7.49971 1.33334 7.16057 1.47382 6.91053 1.72387C6.66048 1.97392 6.52 2.31305 6.52 2.66668V2.78668C6.51976 3.02049 6.45804 3.25014 6.34103 3.45257C6.22401 3.655 6.05583 3.8231 5.85333 3.94001L5.56667 4.10668C5.36398 4.2237 5.13405 4.28531 4.9 4.28531C4.66595 4.28531 4.43603 4.2237 4.23333 4.10668L4.13333 4.05334C3.82738 3.87685 3.46389 3.82897 3.12267 3.92022C2.78145 4.01146 2.49037 4.23437 2.31333 4.54001L2.16667 4.79334C1.99018 5.0993 1.9423 5.46279 2.03354 5.80401C2.12478 6.14523 2.34769 6.43631 2.65333 6.61334L2.75333 6.68001C2.95485 6.79635 3.12241 6.9634 3.23937 7.16456C3.35632 7.36573 3.4186 7.59399 3.42 7.82668V8.16668C3.42093 8.40162 3.35977 8.63265 3.2427 8.83635C3.12563 9.04005 2.95681 9.2092 2.75333 9.32668L2.65333 9.38668C2.34769 9.56371 2.12478 9.85479 2.03354 10.196C1.9423 10.5372 1.99018 10.9007 2.16667 11.2067L2.31333 11.46C2.49037 11.7657 2.78145 11.9886 3.12267 12.0798C3.46389 12.171 3.82738 12.1232 4.13333 11.9467L4.23333 11.8933C4.43603 11.7763 4.66595 11.7147 4.9 11.7147C5.13405 11.7147 5.36398 11.7763 5.56667 11.8933L5.85333 12.06C6.05583 12.1769 6.22401 12.345 6.34103 12.5475C6.45804 12.7499 6.51976 12.9795 6.52 13.2133V13.3333C6.52 13.687 6.66048 14.0261 6.91053 14.2762C7.16057 14.5262 7.49971 14.6667 7.85333 14.6667H8.14667C8.50029 14.6667 8.83943 14.5262 9.08948 14.2762C9.33953 14.0261 9.48 13.687 9.48 13.3333V13.2133C9.48024 12.9795 9.54196 12.7499 9.65898 12.5475C9.77599 12.345 9.94418 12.1769 10.1467 12.06L10.4333 11.8933C10.636 11.7763 10.866 11.7147 11.1 11.7147C11.3341 11.7147 11.564 11.7763 11.7667 11.8933L11.8667 11.9467C12.1726 12.1232 12.5361 12.171 12.8773 12.0798C13.2186 11.9886 13.5096 11.7657 13.6867 11.46L13.8333 11.2C14.0098 10.8941 14.0577 10.5306 13.9665 10.1893C13.8752 9.84812 13.6523 9.55704 13.3467 9.38001L13.2467 9.32668C13.0432 9.2092 12.8744 9.04005 12.7573 8.83635C12.6402 8.63265 12.5791 8.40162 12.58 8.16668V7.83334C12.5791 7.5984 12.6402 7.36738 12.7573 7.16367C12.8744 6.95997 13.0432 6.79082 13.2467 6.67334L13.3467 6.61334C13.6523 6.43631 13.8752 6.14523 13.9665 5.80401C14.0577 5.46279 14.0098 5.0993 13.8333 4.79334L13.6867 4.54001C13.5096 4.23437 13.2186 4.01146 12.8773 3.92022C12.5361 3.82897 12.1726 3.87685 11.8667 4.05334L11.7667 4.10668C11.564 4.2237 11.3341 4.28531 11.1 4.28531C10.866 4.28531 10.636 4.2237 10.4333 4.10668L10.1467 3.94001C9.94418 3.8231 9.77599 3.655 9.65898 3.45257C9.54196 3.25014 9.48024 3.02049 9.48 2.78668V2.66668C9.48 2.31305 9.33953 1.97392 9.08948 1.72387C8.83943 1.47382 8.50029 1.33334 8.14667 1.33334Z" stroke="black" stroke-width="1.5" stroke-linecap="round" stroke-linejoin="round"/>
<path d="M8 10C9.10457 10 10 9.10457 10 8C10 6.89543 9.10457 6 8 6C6.89543 6 6 6.89543 6 8C6 9.10457 6.89543 10 8 10Z" fill="black"/>
</svg>
