<svg width="16" height="16" viewBox="0 0 16 16" fill="none" xmlns="http://www.w3.org/2000/svg">
<path d="M8.13418 2H7.86581C7.54229 2 7.23202 2.12643 7.00326 2.35148C6.7745 2.57652 6.64597 2.88174 6.64597 3.2V3.308C6.64576 3.51843 6.58929 3.72512 6.48224 3.9073C6.37518 4.08949 6.22132 4.24078 6.03605 4.346L5.77379 4.496C5.58836 4.60132 5.378 4.65677 5.16387 4.65677C4.94974 4.65677 4.73939 4.60132 4.55395 4.496L4.46246 4.44799C4.18255 4.28915 3.85 4.24606 3.53783 4.32819C3.22565 4.4103 2.95935 4.61092 2.79738 4.886L2.6632 5.11399C2.50174 5.38936 2.45793 5.7165 2.5414 6.02359C2.62488 6.33069 2.82881 6.59266 3.10844 6.75199L3.19993 6.81199C3.38429 6.9167 3.53759 7.06704 3.64459 7.24809C3.75159 7.42914 3.80857 7.63457 3.80985 7.84399V8.14999C3.8107 8.36144 3.75475 8.56937 3.64764 8.7527C3.54054 8.93602 3.38609 9.08826 3.19993 9.19399L3.10844 9.24799C2.82881 9.40732 2.62488 9.66929 2.5414 9.97638C2.45793 10.2835 2.50174 10.6106 2.6632 10.886L2.79738 11.114C2.95935 11.3891 3.22565 11.5897 3.53783 11.6718C3.85 11.7539 4.18255 11.7109 4.46246 11.552L4.55395 11.5039C4.73939 11.3986 4.94974 11.3432 5.16387 11.3432C5.378 11.3432 5.58836 11.3986 5.77379 11.5039L6.03605 11.654C6.22132 11.7592 6.37518 11.9105 6.48224 12.0927C6.58929 12.2749 6.64576 12.4815 6.64597 12.6919V12.7999C6.64597 13.1183 6.7745 13.4235 7.00326 13.6486C7.23202 13.8735 7.54229 14 7.86581 14H8.13418C8.4577 14 8.76797 13.8735 8.99674 13.6486C9.22551 13.4235 9.35402 13.1183 9.35402 12.7999V12.6919C9.35424 12.4815 9.4107 12.2749 9.51776 12.0927C9.62481 11.9105 9.77869 11.7592 9.96397 11.654L10.2262 11.5039C10.4116 11.3986 10.622 11.3432 10.8361 11.3432C11.0503 11.3432 11.2606 11.3986 11.4461 11.5039L11.5376 11.552C11.8174 11.7109 12.15 11.7539 12.4621 11.6718C12.7744 11.5897 13.0406 11.3891 13.2026 11.114L13.3368 10.88C13.4982 10.6047 13.5421 10.2775 13.4586 9.97035C13.3751 9.66329 13.1712 9.40131 12.8916 9.24199L12.8001 9.19399C12.6139 9.08826 12.4595 8.93602 12.3524 8.7527C12.2452 8.56937 12.1893 8.36144 12.1901 8.14999V7.84999C12.1893 7.63854 12.2452 7.43062 12.3524 7.24729C12.4595 7.06396 12.6139 6.91172 12.8001 6.80599L12.8916 6.75199C13.1712 6.59266 13.3751 6.33069 13.4586 6.02359C13.5421 5.7165 13.4982 5.38936 13.3368 5.11399L13.2026 4.886C13.0406 4.61092 12.7744 4.4103 12.4621 4.32819C12.15 4.24606 11.8174 4.28915 11.5376 4.44799L11.4461 4.496C11.2606 4.60132 11.0503 4.65677 10.8361 4.65677C10.622 4.65677 10.4116 4.60132 10.2262 4.496L9.96397 4.346C9.77869 4.24078 9.62481 4.08949 9.51776 3.9073C9.4107 3.72512 9.35424 3.51843 9.35402 3.308V3.2C9.35402 2.88174 9.22551 2.57652 8.99674 2.35148C8.76797 2.12643 8.4577 2 8.13418 2Z" stroke="black" stroke-width="1.2" stroke-linecap="round" stroke-linejoin="round"/>
<path d="M8 10C9.10457 10 10 9.10457 10 8C10 6.89543 9.10457 6 8 6C6.89543 6 6 6.89543 6 8C6 9.10457 6.89543 10 8 10Z" fill="black"/>
</svg>
