<svg width="12" height="14" viewBox="0 0 12 14" fill="none" xmlns="http://www.w3.org/2000/svg">
<path d="M6.0002 0.333344C2.77885 0.333344 0.16687 2.94532 0.16687 6.16668C0.16687 8.56824 1.61921 10.6302 3.69291 11.5234C3.60229 10.9831 3.53223 10.4404 3.51062 10.0091C2.25203 9.19011 1.41661 7.77605 1.41661 6.16668C1.41661 3.63933 3.4726 1.58334 5.99994 1.58334C8.52729 1.58334 10.5833 3.63933 10.5833 6.16668C10.5833 7.77579 9.74786 9.19011 8.48979 10.0104C8.46791 10.4401 8.39734 10.9836 8.30645 11.5253C10.38 10.6302 11.8331 8.56772 11.8331 6.16668C11.8331 2.94532 9.22117 0.333344 5.99981 0.333344H6.0002ZM6.0002 8.45834C5.14395 8.45834 4.33354 8.68295 4.33354 9.59767C4.33354 10.4604 4.66895 12.3138 4.87052 13.056C5.00541 13.5521 5.50802 13.6667 6.0002 13.6667C6.49239 13.6667 6.9963 13.5527 7.12989 13.0578C7.33093 12.3099 7.66687 10.4583 7.66687 9.59897C7.66687 8.6823 6.85697 8.45834 6.0002 8.45834ZM6.0002 7.62501C6.80619 7.62501 7.45854 6.97267 7.45854 6.16668C7.45854 5.36069 6.78406 4.70834 6.0002 4.70834C5.21635 4.70834 4.54187 5.35939 4.54187 6.16668C4.54187 6.97397 5.19291 7.62501 6.0002 7.62501ZM9.7502 6.16668C9.7502 4.09558 8.0713 2.41668 6.0002 2.41668C3.92911 2.41668 2.2502 4.09636 2.2502 6.16668C2.2502 7.33413 2.79499 8.36407 3.63145 9.05209C3.75776 8.72267 3.99942 8.37814 4.46609 8.13959C4.46635 8.13803 4.47416 8.13803 4.47937 8.13803C3.88822 7.6797 3.5002 6.97136 3.5002 6.16668C3.5002 4.78595 4.61947 3.66668 6.0002 3.66668C7.38093 3.66668 8.5002 4.78595 8.5002 6.16668C8.5002 6.97189 8.11296 7.68048 7.52182 8.13751C7.5252 8.13803 7.53484 8.13855 7.53406 8.13933C8.00098 8.37788 8.24213 8.72215 8.36869 9.05183C9.20567 8.36433 9.74994 7.33308 9.74994 6.16642L9.7502 6.16668Z" fill="white"/>
</svg>
