<svg width="16" height="16" viewBox="0 0 16 16" fill="none" xmlns="http://www.w3.org/2000/svg">
<path d="M4.39958 9.47059L5.29942 7.76472C5.39725 7.57422 5.54605 7.41338 5.72991 7.2994C5.91377 7.18543 6.12578 7.12261 6.34324 7.11767H12.7981M12.7981 7.11767C12.9814 7.11735 13.1623 7.15822 13.327 7.23713C13.4917 7.31604 13.6357 7.43089 13.7481 7.57288C13.8605 7.71487 13.9381 7.88021 13.9752 8.05622C14.0123 8.23223 14.0077 8.41423 13.9619 8.58825L13.0381 12.1176C12.9712 12.3715 12.8198 12.5962 12.6079 12.756C12.396 12.9159 12.1356 13.0017 11.8683 13H3.19979C2.88159 13 2.57641 12.876 2.35141 12.6554C2.12641 12.4348 2 12.1355 2 11.8235V4.17652C2 3.8645 2.12641 3.56526 2.35141 3.34463C2.57641 3.124 2.88159 3.00006 3.19979 3.00006H5.53938C5.74004 2.99813 5.93798 3.04558 6.1151 3.13807C6.29221 3.23056 6.44284 3.36513 6.5532 3.52946L7.03912 4.23534C7.14836 4.398 7.29709 4.53153 7.47194 4.62393C7.6468 4.71633 7.84231 4.76472 8.04094 4.76475H11.5983C11.9165 4.76475 12.2217 4.8887 12.4467 5.10933C12.6717 5.32995 12.7981 5.62919 12.7981 5.94121V7.11767Z" stroke="black" stroke-width="1.5" stroke-linecap="round" stroke-linejoin="round"/>
</svg>
