<svg width="16" height="16" viewBox="0 0 16 16" fill="none" xmlns="http://www.w3.org/2000/svg">
<path d="M13.0001 8.62505C13.0001 11.75 10.8126 13.3125 8.21266 14.2187C8.07651 14.2648 7.92862 14.2626 7.79392 14.2125C5.18771 13.3125 3.00024 11.75 3.00024 8.62505V4.25012C3.00024 4.08436 3.06609 3.92539 3.1833 3.80818C3.30051 3.69098 3.45948 3.62513 3.62523 3.62513C4.87521 3.62513 6.43769 2.87514 7.52517 1.92516C7.65758 1.81203 7.82601 1.74988 8.00016 1.74988C8.17431 1.74988 8.34275 1.81203 8.47515 1.92516C9.56889 2.88139 11.1251 3.62513 12.3751 3.62513C12.5408 3.62513 12.6998 3.69098 12.817 3.80818C12.9342 3.92539 13.0001 4.08436 13.0001 4.25012V8.62505Z" stroke="black" stroke-width="1.2" stroke-linecap="round" stroke-linejoin="round"/>
<path d="M6 8.00002L7.33333 9.33335L10 6.66669" stroke="black" stroke-width="1.2" stroke-linecap="round" stroke-linejoin="round"/>
</svg>
