<svg width="17" height="17" viewBox="0 0 17 17" fill="none" xmlns="http://www.w3.org/2000/svg">
<path fill-rule="evenodd" clip-rule="evenodd" d="M6.36667 3.79167C5.53364 3.79167 4.85833 4.46697 4.85833 5.3C4.85833 6.13303 5.53364 6.80833 6.36667 6.80833C7.1997 6.80833 7.875 6.13303 7.875 5.3C7.875 4.46697 7.1997 3.79167 6.36667 3.79167ZM2.1 5.925H3.67944C3.9626 7.14732 5.05824 8.05833 6.36667 8.05833C7.67509 8.05833 8.77073 7.14732 9.05389 5.925H14.9C15.2452 5.925 15.525 5.64518 15.525 5.3C15.525 4.95482 15.2452 4.675 14.9 4.675H9.05389C8.77073 3.45268 7.67509 2.54167 6.36667 2.54167C5.05824 2.54167 3.9626 3.45268 3.67944 4.675H2.1C1.75482 4.675 1.475 4.95482 1.475 5.3C1.475 5.64518 1.75482 5.925 2.1 5.925ZM13.3206 12.325C13.0374 13.5473 11.9418 14.4583 10.6333 14.4583C9.32491 14.4583 8.22927 13.5473 7.94611 12.325H2.1C1.75482 12.325 1.475 12.0452 1.475 11.7C1.475 11.3548 1.75482 11.075 2.1 11.075H7.94611C8.22927 9.85268 9.32491 8.94167 10.6333 8.94167C11.9418 8.94167 13.0374 9.85268 13.3206 11.075H14.9C15.2452 11.075 15.525 11.3548 15.525 11.7C15.525 12.0452 15.2452 12.325 14.9 12.325H13.3206ZM9.125 11.7C9.125 10.867 9.8003 10.1917 10.6333 10.1917C11.4664 10.1917 12.1417 10.867 12.1417 11.7C12.1417 12.533 11.4664 13.2083 10.6333 13.2083C9.8003 13.2083 9.125 12.533 9.125 11.7Z" fill="black"/>
</svg>
