<svg width="14" height="14" viewBox="0 0 14 14" fill="none" xmlns="http://www.w3.org/2000/svg">
<path d="M6 6C5.69062 6.30938 4.56159 6.55977 3.51192 6.73263C3.27345 6.7719 3.27345 7.2281 3.51192 7.26737C4.56159 7.44023 5.69062 7.69062 6 8C6.30938 8.30938 6.55977 9.43841 6.73263 10.4881C6.7719 10.7266 7.2281 10.7266 7.26737 10.4881C7.44023 9.43841 7.69062 8.30938 8 8C8.30938 7.69062 9.43841 7.44023 10.4881 7.26737C10.7266 7.2281 10.7266 6.7719 10.4881 6.73263C9.43841 6.55977 8.30938 6.30938 8 6C7.69062 5.69062 7.44023 4.56159 7.26737 3.51192C7.2281 3.27345 6.7719 3.27345 6.73263 3.51192C6.55977 4.56159 6.30938 5.69062 6 6Z" stroke="black" stroke-width="1.25" stroke-linejoin="round"/>
</svg>
