<svg width="24" height="24" viewBox="0 0 24 24" fill="none" xmlns="http://www.w3.org/2000/svg">
<path d="M9.937 15.5C9.84772 15.1539 9.66734 14.8381 9.41462 14.5854C9.1619 14.3327 8.84607 14.1523 8.5 14.063L2.365 12.481C2.26033 12.4513 2.16821 12.3883 2.10261 12.3014C2.03702 12.2146 2.00153 12.1088 2.00153 12C2.00153 11.8912 2.03702 11.7854 2.10261 11.6986C2.16821 11.6118 2.26033 11.5487 2.365 11.519L8.5 9.93601C8.84595 9.84681 9.16169 9.66658 9.4144 9.41404C9.66711 9.16151 9.84757 8.84589 9.937 8.50001L11.519 2.36501C11.5484 2.25992 11.6114 2.16735 11.6983 2.1014C11.7853 2.03545 11.8914 1.99976 12.0005 1.99976C12.1096 1.99976 12.2157 2.03545 12.3027 2.1014C12.3896 2.16735 12.4526 2.25992 12.482 2.36501L14.063 8.50001C14.1523 8.84608 14.3327 9.1619 14.5854 9.41462C14.8381 9.66734 15.1539 9.84773 15.5 9.93701L21.635 11.518C21.7405 11.5471 21.8335 11.61 21.8998 11.6971C21.9661 11.7841 22.0021 11.8906 22.0021 12C22.0021 12.1094 21.9661 12.2159 21.8998 12.3029C21.8335 12.39 21.7405 12.4529 21.635 12.482L15.5 14.063C15.1539 14.1523 14.8381 14.3327 14.5854 14.5854C14.3327 14.8381 14.1523 15.1539 14.063 15.5L12.481 21.635C12.4516 21.7401 12.3886 21.8327 12.3017 21.8986C12.2147 21.9646 12.1086 22.0003 11.9995 22.0003C11.8904 22.0003 11.7843 21.9646 11.6973 21.8986C11.6104 21.8327 11.5474 21.7401 11.518 21.635L9.937 15.5Z" fill="black" stroke="black" stroke-width="2" stroke-linecap="round" stroke-linejoin="round"/>
</svg>
