<svg width="12" height="11" viewBox="0 0 12 11" fill="none" xmlns="http://www.w3.org/2000/svg">
<path d="M6.01077 0.000234794C2.69085 0.000234794 0.000639074 2.18612 0.000639074 4.88385C0.000639074 6.0491 0.501914 7.11387 1.33823 7.95254C1.04475 9.13517 0.0640321 10.1894 0.0522927 10.2011C-0.00053487 10.2539 -0.0153266 10.3356 0.0170743 10.4061C0.0464229 10.4763 0.111459 10.5185 0.187766 10.5185C1.74324 10.5185 2.89019 9.77286 3.4889 9.31197C4.25431 9.60052 5.10894 9.76722 6.01053 9.76722C9.33045 9.76722 12 7.58063 12 4.88361C12 2.18659 9.33045 0 6.01053 0L6.01077 0.000234794Z" fill="#FAFAFA"/>
</svg>
