<svg width="12" height="12" viewBox="0 0 12 12" fill="none" xmlns="http://www.w3.org/2000/svg">
<path d="M10.6667 0.400196H1.33346C0.819658 0.400196 0.399658 0.820196 0.399658 1.3326V10.6658C0.399658 11.181 0.816998 11.5982 1.33206 11.5982C1.58966 11.5982 1.82206 11.4932 1.99146 11.3238L4.51706 8.79684H10.6639C11.1763 8.79684 11.5963 8.37544 11.5963 7.86304V1.3298C11.5963 0.815996 11.1749 0.395996 10.6625 0.395996L10.6667 0.400196ZM2.2667 2.2664H6.00008V3.1988H2.26628V2.265L2.2667 2.2664ZM7.8667 6.93316H2.2667V5.99936H7.8667V6.93176V6.93316ZM9.7329 5.06556H2.26488V4.13176H9.73164V5.06416L9.7329 5.06556Z" fill="#282C34"/>
</svg>
