<svg width="16" height="16" viewBox="0 0 16 16" fill="none" xmlns="http://www.w3.org/2000/svg">
<g opacity="0.5">
<path d="M3.78125 14.9375C4.35078 14.9375 4.8125 14.4758 4.8125 13.9062C4.8125 13.3367 4.35078 12.875 3.78125 12.875C3.21172 12.875 2.75 13.3367 2.75 13.9062C2.75 14.4758 3.21172 14.9375 3.78125 14.9375Z" fill="white"/>
<path fill-rule="evenodd" clip-rule="evenodd" d="M7.46875 9.18684L4.69484 14.4062L2.875 13.4382L5.64891 8.21875L7.46875 9.18684Z" fill="white"/>
<path fill-rule="evenodd" clip-rule="evenodd" d="M8.4375 2.99935L5.64475 8.21875L3.8125 7.25066L6.60525 2.03125L8.4375 2.99935Z" fill="white"/>
<path d="M7.5 3.53125C8.06953 3.53125 8.53125 3.06954 8.53125 2.5C8.53125 1.93046 8.06953 1.46875 7.5 1.46875C6.93047 1.46875 6.46875 1.93046 6.46875 2.5C6.46875 3.06954 6.93047 3.53125 7.5 3.53125Z" fill="white"/>
<path fill-rule="evenodd" clip-rule="evenodd" d="M12.4366 1.49947C12.8962 1.61399 13.2188 2.02651 13.2188 2.49985V13.9063H11.1552V6.63497L9.29072 10.1392L7.46875 9.17109L11.276 2.01583C11.4984 1.59789 11.977 1.38496 12.4366 1.49947Z" fill="white"/>
<path d="M12.1875 14.9375C12.757 14.9375 13.2188 14.4758 13.2188 13.9062C13.2188 13.3367 12.757 12.875 12.1875 12.875C11.618 12.875 11.1562 13.3367 11.1562 13.9062C11.1562 14.4758 11.618 14.9375 12.1875 14.9375Z" fill="white"/>
</g>
<g>
<path d="M0.906311 6.42261L1.75155 4.60999L15.3462 10.9493L14.5009 12.7619L0.906311 6.42261Z" fill="white"/>
<circle cx="14.7841" cy="11.7906" r="1" transform="rotate(-65 14.7841 11.7906)" fill="white"/>
<circle cx="1.32893" cy="5.51631" r="1" transform="rotate(-65 1.32893 5.51631)" fill="white"/>
</g>
</svg>
