<svg width="16" height="16" viewBox="347.6033 254.2371 9.3952 12.4424" xmlns="http://www.w3.org/2000/svg">
  <g transform="matrix(0.054830003529787064, 0, 0, 0.054830003529787064, 344.851806640625, 252.64183044433594)" style="">
    <path opacity="0.5" fill-rule="evenodd" clip-rule="evenodd" d="M 74.522 128.424 L 112.183 63.196 L 112.183 29.094 L 51.321 134.649 L 87.843 155.764 L 50.183 220.796 L 50.183 255.094 L 111.045 149.539 L 74.522 128.424 Z" fill="white"/>
    <path opacity="0.5" d="M 111.183 149.539 L 111.183 115.352 L 161.183 29.094 L 160.789 159.784 L 146.203 142.598 L 144.142 92.566" fill="white"/>
  </g>
  <path fill-rule="evenodd" clip-rule="evenodd" d="M 355.684 266.606 C 355.782 266.704 355.94 266.704 356.038 266.606 L 356.925 265.718 C 357.023 265.621 357.023 265.462 356.925 265.365 L 355.24 263.679 L 356.925 261.994 C 357.023 261.897 357.023 261.738 356.925 261.641 L 356.038 260.753 C 355.94 260.655 355.782 260.655 355.684 260.753 L 353.999 262.438 L 352.314 260.753 C 352.216 260.655 352.058 260.655 351.96 260.753 L 351.073 261.641 C 350.975 261.738 350.975 261.897 351.073 261.994 L 352.758 263.679 L 351.073 265.365 C 350.975 265.462 350.975 265.621 351.073 265.718 L 351.96 266.606 C 352.058 266.704 352.216 266.704 352.314 266.606 L 353.999 264.921 L 355.684 266.606 Z" fill="white" transform="matrix(1, 0, 0, 1, -5.684341886080802e-14, -2.842170943040401e-14)"/>
</svg>
