<svg width="16" height="16" viewBox="0 0 16 16" fill="none" xmlns="http://www.w3.org/2000/svg">
<g opacity="0.5">
<path d="M3.78125 14.9375C4.35078 14.9375 4.8125 14.4758 4.8125 13.9062C4.8125 13.3367 4.35078 12.875 3.78125 12.875C3.21172 12.875 2.75 13.3367 2.75 13.9062C2.75 14.4758 3.21172 14.9375 3.78125 14.9375Z" fill="black"/>
<path fill-rule="evenodd" clip-rule="evenodd" d="M7.46875 9.18684L4.69484 14.4062L2.875 13.4382L5.64891 8.21875L7.46875 9.18684Z" fill="black"/>
<path fill-rule="evenodd" clip-rule="evenodd" d="M8.4375 2.99935L5.64475 8.21875L3.8125 7.25066L6.60525 2.03125L8.4375 2.99935Z" fill="black"/>
<path d="M7.5 3.53125C8.06953 3.53125 8.53125 3.06954 8.53125 2.5C8.53125 1.93046 8.06953 1.46875 7.5 1.46875C6.93047 1.46875 6.46875 1.93046 6.46875 2.5C6.46875 3.06954 6.93047 3.53125 7.5 3.53125Z" fill="black"/>
<path fill-rule="evenodd" clip-rule="evenodd" d="M12.4366 1.49947C12.8962 1.61399 13.2188 2.02651 13.2188 2.49985V13.9063H11.1552V6.63497L9.29072 10.1392L7.46875 9.17109L11.276 2.01583C11.4984 1.59789 11.977 1.38496 12.4366 1.49947Z" fill="black"/>
<path d="M12.1875 14.9375C12.757 14.9375 13.2188 14.4758 13.2188 13.9062C13.2188 13.3367 12.757 12.875 12.1875 12.875C11.618 12.875 11.1562 13.3367 11.1562 13.9062C11.1562 14.4758 11.618 14.9375 12.1875 14.9375Z" fill="black"/>
</g>
<path fill-rule="evenodd" clip-rule="evenodd" d="M14.6847 15.9265C14.7823 16.0241 14.9406 16.0241 15.0382 15.9265L15.9259 15.0387C16.0235 14.9411 16.0235 14.7828 15.9259 14.6851L14.2408 12.9999L15.9259 11.3146C16.0236 11.217 16.0236 11.0587 15.9259 10.961L15.0382 10.0733C14.9406 9.97562 14.7823 9.97562 14.6847 10.0733L12.9996 11.7585L11.3145 10.0732C11.2169 9.9756 11.0586 9.9756 10.9609 10.0732L10.0732 10.961C9.9756 11.0587 9.9756 11.217 10.0732 11.3146L11.7584 12.9999L10.0732 14.6851C9.97563 14.7828 9.97563 14.9411 10.0732 15.0387L10.9609 15.9265C11.0586 16.0242 11.2169 16.0242 11.3145 15.9265L12.9996 14.2413L14.6847 15.9265Z" fill="black"/>
</svg>
