<svg width="16" height="16" viewBox="344.0005 254.2371 13.794 12.3561" xmlns="http://www.w3.org/2000/svg">
  <path opacity="0.5" fill-rule="evenodd" clip-rule="evenodd" d="M 91.307 98.534 L 112.183 63.196 L 112.183 29.094 L 76.723 82.942 L 91.307 98.534 Z" fill="white" transform="matrix(0.054830003529787064, 0, 0, 0.054830003529787064, 344.851806640625, 252.64183044433594)"/>
  <path opacity="0.5" d="M 125.872 126.853 L 111.183 115.352 L 161.183 29.094 L 164.462 160.482 L 148.879 142.328 L 144.142 92.566" fill="white" transform="matrix(0.054830003529787064, 0, 0, 0.054830003529787064, 344.851806640625, 252.64183044433594)"/>
  <path opacity="0.5" fill-rule="evenodd" clip-rule="evenodd" d="M 100.51 168.859 L 84.764 155.729 L 52.391 220.149 L 52.391 254.447 L 100.51 168.859 Z" fill="white" transform="matrix(0.054830003529787064, 0, 0, 0.054830003529787064, 344.851806640625, 252.64183044433594)"/>
  <path opacity="0.5" d="M 162.48 220.928 L 162.325 219.411 L 145.284 253.709 L 145.727 203.55" fill="white" transform="matrix(0.054830003529787064, 0, 0, 0.054830003529787064, 344.851806640625, 252.64183044433594)"/>
  <path fill-rule="evenodd" clip-rule="evenodd" d="M 357.02 266.336 C 356.932 266.442 356.774 266.456 356.669 266.368 L 344.091 255.928 C 343.984 255.839 343.97 255.681 344.059 255.575 L 344.775 254.718 C 344.863 254.613 345.02 254.598 345.126 254.686 L 357.704 265.127 C 357.811 265.216 357.825 265.374 357.736 265.48 L 357.02 266.336 Z" fill="white" transform="matrix(1, 0, 0, 1, 0, -2.842170943040401e-14)"/>
</svg>
