<svg xmlns="http://www.w3.org/2000/svg" width="16" height="16" fill="none"><path stroke="#000" stroke-linecap="round" stroke-linejoin="round" stroke-width="1.5" d="M7.333 11.333a2.667 2.667 0 1 1-5.333 0v-8A1.333 1.333 0 0 1 3.333 2H6a1.333 1.333 0 0 1 1.333 1.333v8Z"/><path stroke="#000" stroke-linecap="round" stroke-linejoin="round" stroke-width="1.5" d="M11.133 8.667h1.534A1.333 1.333 0 0 1 14 10v2.667A1.334 1.334 0 0 1 12.667 14h-8M4.667 11.333h.006"/><path stroke="#000" stroke-linecap="round" stroke-linejoin="round" stroke-width="1.5" d="M7.333 5.333 8.867 3.8a1.6 1.6 0 0 1 2.269.003L12.4 5.067a1.6 1.6 0 0 1 .017 2.289L6.6 13.2"/></svg>
