<svg xmlns="http://www.w3.org/2000/svg" width="16" height="16" fill="none"><g opacity=".7"><mask id="a" width="10" height="14" x="3" y="1" maskUnits="userSpaceOnUse" style="mask-type:luminance"><path fill="#fff" d="M12.635 1H3v14h9.635V1Z"/></mask><g mask="url(#a)"><path fill="#fff" fill-rule="evenodd" d="M7.774 5.773a7.68 7.68 0 0 0 1.262-.048 11.578 11.578 0 0 1-1.07 3.683 2.76 2.76 0 0 1-.796-.67c.158.308.279.63.361.961a4.438 4.438 0 0 1-1.32 1.112c-1.4-.503-2.375-1.68-2.375-3.38 0-.968.316-1.86.846-2.569.458.333 1.421.843 3.092.91Zm.3 5.31c2.102-.047 3.537-.8 4.56-3.652-1.135 0-1.41-.823-1.716-1.739-.051-.155-.104-.314-.162-.47-.283.146-.681.307-1.208.418a11.577 11.577 0 0 1-1.18 3.95c.33.12.678.173 1.022.16-.501.231-.966.557-1.364.976.02.118.035.237.049.356ZM6.428 7.254a.45.45 0 0 1 .898 0v.482a.45.45 0 1 1-.898 0v-.482Zm-1.35-.45a.41.41 0 0 0-.41.41v.561a.41.41 0 0 0 .82 0v-.56a.41.41 0 0 0-.41-.41Z" clip-rule="evenodd"/><mask id="b" width="10" height="8" x="3" y="4" maskUnits="userSpaceOnUse" style="mask-type:luminance"><path fill="#fff" fill-rule="evenodd" d="M7.774 5.773a7.68 7.68 0 0 0 1.262-.048 11.578 11.578 0 0 1-1.07 3.683 2.76 2.76 0 0 1-.796-.67c.158.308.279.63.361.961a4.438 4.438 0 0 1-1.32 1.112c-1.4-.503-2.375-1.68-2.375-3.38 0-.968.316-1.86.846-2.569.458.333 1.421.843 3.092.91Zm.3 5.31c2.102-.047 3.537-.8 4.56-3.652-1.135 0-1.41-.823-1.716-1.739-.051-.155-.104-.314-.162-.47-.283.146-.681.307-1.208.418a11.577 11.577 0 0 1-1.18 3.95c.33.12.678.173 1.022.16-.501.231-.966.557-1.364.976.02.118.035.237.049.356ZM6.428 7.254a.45.45 0 0 1 .898 0v.482a.45.45 0 1 1-.898 0v-.482Zm-1.35-.45a.41.41 0 0 0-.41.41v.561a.41.41 0 0 0 .82 0v-.56a.41.41 0 0 0-.41-.41Z" clip-rule="evenodd"/></mask><g mask="url(#b)"><path fill="#fff" d="m9.035 5.725.16.018.024-.203-.203.025.02.16ZM7.966 9.407l-.078.14.149.084.074-.154-.145-.07ZM7.17 8.74l.125-.102-.268.175.143-.073Zm.362.96.125.1.05-.061-.02-.078-.155.04Zm-1.32 1.112-.054.151.068.024.064-.035-.078-.14ZM4.682 4.862l.095-.13-.129-.093-.095.127.129.096Zm3.392 6.22-.16.018.017.146.147-.003-.004-.161Zm4.56-3.651.151.054.077-.215h-.228v.16Zm-1.879-2.21.151-.056-.063-.171-.162.084.074.143Zm-1.207.418-.034-.157-.113.024-.013.116.16.017ZM8.368 9.59l-.144-.072-.082.162.17.062.055-.152Zm1.022.16.067.147-.073-.307.006.16Zm-1.364.976-.117-.11-.055.057.013.079.159-.026Zm.99-5.16a7.517 7.517 0 0 1-1.236.046l-.013.321c.48.02.91-.001 1.288-.049l-.04-.319ZM8.11 9.476a11.74 11.74 0 0 0 1.084-3.734l-.32-.037a11.416 11.416 0 0 1-1.054 3.632l.29.14Zm-.066-.21a2.599 2.599 0 0 1-.335-.222l-.198.253c.12.094.246.178.376.25l.157-.281Zm-.335-.222a2.585 2.585 0 0 1-.416-.408l-.25.203c.136.167.292.32.468.458l.198-.253Zm-.684-.233c.153.296.27.607.349.926l.312-.078a4.613 4.613 0 0 0-.375-.995l-.286.147Zm.38.787c-.362.45-.796.808-1.272 1.07l.155.282c.513-.282.98-.668 1.367-1.151l-.25-.202ZM3.675 7.43c0 1.774 1.023 3.007 2.482 3.531l.109-.303c-1.342-.481-2.27-1.6-2.27-3.228h-.321Zm.878-2.665a4.436 4.436 0 0 0-.878 2.665h.321c0-.933.305-1.79.815-2.473l-.258-.192Zm3.227.846c-1.638-.066-2.571-.565-3.003-.88l-.19.26c.483.351 1.477.872 3.18.941l.013-.321Zm.298 5.63c1.068-.023 1.99-.227 2.776-.804.784-.576 1.414-1.51 1.931-2.953l-.302-.109c-.506 1.41-1.106 2.278-1.82 2.803-.713.524-1.56.72-2.592.742l.007.322Zm4.556-3.972c-.52 0-.825-.184-1.042-.464-.229-.294-.366-.7-.522-1.165l-.305.102c.15.45.304.914.573 1.26.28.361.68.588 1.296.588V7.27ZM11.07 5.64a15.68 15.68 0 0 0-.164-.476l-.302.112c.057.154.11.31.162.466l.304-.102Zm-.389-.563c-.27.14-.654.296-1.167.404l.067.315c.542-.114.953-.28 1.248-.433l-.148-.286Zm-1.293.544a11.415 11.415 0 0 1-1.164 3.896l.287.145a11.738 11.738 0 0 0 1.196-4.006l-.32-.035ZM9.384 9.59a2.577 2.577 0 0 1-.962-.151l-.11.303c.352.126.72.182 1.084.17l-.012-.322Zm-1.242 1.247a4.264 4.264 0 0 1 1.315-.94l-.134-.292a4.586 4.586 0 0 0-1.414 1.01l.233.222Zm.092.227a7.409 7.409 0 0 0-.05-.364l-.317.052c.019.115.035.231.048.348l.32-.036Zm-1.358-4.42a.61.61 0 0 0-.61.61h.321c0-.159.13-.288.289-.288v-.321Zm.61.61a.61.61 0 0 0-.61-.61v.322c.159 0 .288.13.288.289h.322Zm0 .483v-.482h-.322v.482h.322Zm-.61.61a.61.61 0 0 0 .61-.61h-.322c0 .159-.129.288-.288.288v.322Zm-.61-.61c0 .337.273.61.61.61v-.322a.289.289 0 0 1-.289-.288h-.322Zm0-.482v.482h.321v-.482h-.322Zm-1.439-.04a.25.25 0 0 1 .25-.249v-.321a.571.571 0 0 0-.571.57h.321Zm0 .56v-.56h-.321v.56h.321Zm.25.25a.25.25 0 0 1-.25-.25h-.321c0 .316.255.572.57.572v-.322Zm.25-.25a.25.25 0 0 1-.25.25v.322a.571.571 0 0 0 .57-.571h-.32Zm0-.56v.56h.32v-.56h-.32Zm-.25-.249a.25.25 0 0 1 .25.25h.32a.571.571 0 0 0-.57-.571v.321Z"/></g><path fill="#fff" fill-rule="evenodd" d="M6.926 14.09a5.032 5.032 0 0 0 .435-2.395 5.01 5.01 0 0 1-.78 2.336c.114.024.23.044.345.06Z" clip-rule="evenodd"/><path fill="#fff" d="M9.52 7.248a.818.818 0 0 0 0 1.636V7.248Z"/><mask id="c" width="8" height="8" x="5" y="2" maskUnits="userSpaceOnUse" style="mask-type:luminance"><path fill="#fff" d="M12.178 2.499h-7.01v7.397h7.01V2.499Z"/><path fill="#000" fill-rule="evenodd" d="M9.557 3.12a11.62 11.62 0 0 1-1.189 6.47 2.725 2.725 0 0 1-.401-.183 11.628 11.628 0 0 0 1.06-6.471c.172.08.35.142.53.184Z" clip-rule="evenodd"/></mask><g mask="url(#c)"><path fill="#fff" d="m8.368 9.59.11.055-.05.096-.1-.036.04-.115Zm1.19-6.47.028-.118.084.02.009.086-.121.012Zm-1.59 6.287-.06.107-.1-.056.05-.104.11.053Zm1.06-6.471-.121.014-.027-.219.2.094-.052.11ZM8.26 9.535a11.498 11.498 0 0 0 1.176-6.402l.243-.025c.23 2.206-.158 4.48-1.202 6.537l-.217-.11ZM8.027 9.3c.124.069.252.127.383.174l-.083.23a2.839 2.839 0 0 1-.42-.191l.12-.213Zm1.122-6.38a11.75 11.75 0 0 1-1.072 6.54l-.22-.107a11.506 11.506 0 0 0 1.05-6.404l.242-.03Zm.38.318a2.842 2.842 0 0 1-.553-.193l.104-.22c.164.076.333.135.506.176l-.056.237Z"/></g><path fill="#fff" fill-rule="evenodd" d="m11.211 2.97-.17-.07-.051.176.158.046-.158-.046v.002l-.001.002-.003.01a1.717 1.717 0 0 0-.037.157 3.648 3.648 0 0 0-.063.414c-.03.324-.021.755.162 1.105a.107.107 0 0 1 .014.06c-.002.013-.005.017-.01.02-.211.155-.689.444-1.486.62a11.57 11.57 0 0 1-.018.173c.852-.18 1.367-.489 1.602-.66.09-.067.096-.19.044-.29-.24-.458-.147-1.106-.084-1.405.02-.1.038-.162.038-.162.026.01.052.018.077.023.483.082.993-.862 1.204-1.305a.197.197 0 0 0-.133-.281C11.06 1.264 5.27.132 4.371 4.47a.191.191 0 0 0 .05.176c.257.247 1.24 1.04 3.353 1.126a7.68 7.68 0 0 0 1.262-.047l.018-.17c-.37.05-.794.072-1.274.052-2.07-.083-3.014-.858-3.244-1.08l-.002-.006a.038.038 0 0 1 0-.017c.215-1.045.723-1.752 1.377-2.227.659-.477 1.476-.727 2.317-.836 1.684-.218 3.417.132 4.03.278.014.004.02.01.023.017.004.008.005.019-.001.033-.11.23-.298.589-.515.862-.11.137-.218.242-.319.301-.098.058-.171.064-.235.038Z" clip-rule="evenodd"/><mask id="d" width="7" height="7" x="3" y="8" maskUnits="userSpaceOnUse" style="mask-type:luminance"><path fill="#fff" fill-rule="evenodd" d="M8.026 10.726A4.425 4.425 0 0 1 9.39 9.75a2.728 2.728 0 0 1-2.22-1.012c.158.307.279.63.361.96a4.454 4.454 0 0 1-4.154 1.615 4.435 4.435 0 0 0 1.401 1.872c.884.69 1.947.995 2.985.938a7.227 7.227 0 0 0 .263-3.397Z" clip-rule="evenodd"/></mask><g mask="url(#d)"><path fill="#fff" d="m9.39 9.75-.006-.203.091.388-.084-.185Zm-1.364.976-.2.032-.016-.1.07-.072.146.14ZM7.17 8.738l-.18.093.338-.22-.158.127Zm.362.96.197-.048.024.097-.063.08-.158-.128Zm-4.155 1.615-.189.074-.13-.329.35.054-.03.2Zm4.387 2.81.193.063-.043.132-.139.008-.011-.203Zm1.711-4.188c-.478.22-.921.531-1.301.93l-.295-.28c.416-.437.902-.779 1.427-1.02l.17.37Zm-1.738-.924a2.525 2.525 0 0 0 1.647.536l.014.407a2.932 2.932 0 0 1-1.911-.623l.25-.32Zm-.41-.4c.119.145.255.28.41.4l-.25.32a2.952 2.952 0 0 1-.475-.464l.316-.257Zm.008 1.137a4.251 4.251 0 0 0-.346-.917l.362-.186c.165.321.291.659.378 1.005l-.394.098Zm-3.927 1.364a4.25 4.25 0 0 0 3.965-1.54l.317.254a4.657 4.657 0 0 1-4.344 1.688l.062-.402Zm1.245 2.233a4.638 4.638 0 0 1-1.465-1.958l.378-.149a4.231 4.231 0 0 0 1.337 1.787l-.25.32Zm3.122.98a4.64 4.64 0 0 1-3.122-.98l.25-.32c.844.66 1.858.95 2.85.895l.022.406Zm.452-3.632a7.43 7.43 0 0 1-.27 3.493l-.386-.126a7.024 7.024 0 0 0 .255-3.302l.401-.065Z"/></g></g></g><path stroke="#fff" stroke-width="1.2" d="m15 9.333-.5.333-2 1.334-2-1.334-.5-.333M12.5 11V4.5"/></svg>
