<svg width="16" height="16" viewBox="0 0 16 16" fill="none" xmlns="http://www.w3.org/2000/svg">
<g clip-path="url(#clip0_3348_16)">
<path fill-rule="evenodd" clip-rule="evenodd" d="M7.97419 6.27207C8.44653 6.29114 8.86622 6.27046 9.23628 6.22425C9.08884 7.48378 8.7346 8.72903 8.16697 9.90688C8.04459 9.83861 7.92582 9.76008 7.81193 9.67108C7.64539 9.54099 7.49799 9.39549 7.37015 9.23818C7.5282 9.54496 7.64901 9.86752 7.73175 10.1986C7.35693 10.6656 6.90663 11.0373 6.412 11.3101C5.01165 10.8075 4.03638 9.63089 4.03638 7.93001C4.03638 6.96185 4.35234 6.07053 4.88281 5.36157C5.34001 5.69449 6.30374 6.20455 7.97419 6.27207ZM8.27511 11.5815C10.3762 11.5349 11.8115 10.7826 12.8347 7.93001C11.6992 7.93001 11.4246 7.10731 11.1188 6.19149C11.0669 6.03596 11.0141 5.87771 10.956 5.72037C10.6733 5.86733 10.2753 6.02782 9.74834 6.13895C9.59658 7.49345 9.20592 8.83238 8.56821 10.0897C8.89933 10.2093 9.24674 10.262 9.5908 10.2502C9.08928 10.4803 8.62468 10.8066 8.22655 11.2255C8.2457 11.3438 8.26186 11.4625 8.27511 11.5815ZM6.62702 7.75422C6.62702 7.50604 6.82821 7.30485 7.07639 7.30485C7.32457 7.30485 7.52576 7.50604 7.52576 7.75422V8.23616C7.52576 8.48435 7.32457 8.68554 7.07639 8.68554C6.82821 8.68554 6.62702 8.48435 6.62702 8.23616V7.75422ZM5.27746 7.30485C5.05086 7.30485 4.86716 7.48854 4.86716 7.71513V8.27525C4.86716 8.50185 5.05086 8.68554 5.27746 8.68554C5.50406 8.68554 5.68776 8.50185 5.68776 8.27525V7.71513C5.68776 7.48854 5.50406 7.30485 5.27746 7.30485Z" fill="white"/>
<mask id="mask0_3348_16" style="mask-type:luminance" maskUnits="userSpaceOnUse" x="4" y="5" width="9" height="7">
<path fill-rule="evenodd" clip-rule="evenodd" d="M7.97419 6.27207C8.44653 6.29114 8.86622 6.27046 9.23628 6.22425C9.08884 7.48378 8.7346 8.72903 8.16697 9.90688C8.04459 9.83861 7.92582 9.76008 7.81193 9.67108C7.64539 9.54099 7.49799 9.39549 7.37015 9.23818C7.5282 9.54496 7.64901 9.86752 7.73175 10.1986C7.35693 10.6656 6.90663 11.0373 6.412 11.3101C5.01165 10.8075 4.03638 9.63089 4.03638 7.93001C4.03638 6.96185 4.35234 6.07053 4.88281 5.36157C5.34001 5.69449 6.30374 6.20455 7.97419 6.27207ZM8.27511 11.5815C10.3762 11.5349 11.8115 10.7826 12.8347 7.93001C11.6992 7.93001 11.4246 7.10731 11.1188 6.19149C11.0669 6.03596 11.0141 5.87771 10.956 5.72037C10.6733 5.86733 10.2753 6.02782 9.74834 6.13895C9.59658 7.49345 9.20592 8.83238 8.56821 10.0897C8.89933 10.2093 9.24674 10.262 9.5908 10.2502C9.08928 10.4803 8.62468 10.8066 8.22655 11.2255C8.2457 11.3438 8.26186 11.4625 8.27511 11.5815ZM6.62702 7.75422C6.62702 7.50604 6.82821 7.30485 7.07639 7.30485C7.32457 7.30485 7.52576 7.50604 7.52576 7.75422V8.23616C7.52576 8.48435 7.32457 8.68554 7.07639 8.68554C6.82821 8.68554 6.62702 8.48435 6.62702 8.23616V7.75422ZM5.27746 7.30485C5.05086 7.30485 4.86716 7.48854 4.86716 7.71513V8.27525C4.86716 8.50185 5.05086 8.68554 5.27746 8.68554C5.50406 8.68554 5.68776 8.50185 5.68776 8.27525V7.71513C5.68776 7.48854 5.50406 7.30485 5.27746 7.30485Z" fill="white"/>
</mask>
<g mask="url(#mask0_3348_16)">
<path d="M9.23617 6.22425L9.39588 6.24293L9.41971 6.0393L9.21624 6.06471L9.23617 6.22425ZM8.16687 9.90688L8.08857 10.0473L8.23765 10.1305L8.31174 9.97669L8.16687 9.90688ZM7.37005 9.23819L7.49487 9.13676L7.22714 9.3118L7.37005 9.23819ZM7.73165 10.1986L7.85702 10.2993L7.90696 10.2371L7.88761 10.1597L7.73165 10.1986ZM6.41189 11.3101L6.35758 11.4615L6.42594 11.486L6.48954 11.4509L6.41189 11.3101ZM4.88271 5.36157L4.97736 5.23159L4.84905 5.13817L4.75397 5.26525L4.88271 5.36157ZM8.27501 11.5815L8.11523 11.5993L8.13151 11.7456L8.27859 11.7423L8.27501 11.5815ZM12.8346 7.93001L12.986 7.98428L13.0631 7.76921H12.8346V7.93001ZM10.9559 5.72037L11.1067 5.66469L11.0436 5.49354L10.8817 5.5777L10.9559 5.72037ZM9.74824 6.13896L9.71508 5.98161L9.60139 6.0056L9.58846 6.12102L9.74824 6.13896ZM8.56811 10.0897L8.42469 10.017L8.34242 10.1792L8.51348 10.241L8.56811 10.0897ZM9.5907 10.2502L9.65775 10.3964L9.58519 10.0896L9.5907 10.2502ZM8.22644 11.2255L8.10992 11.1147L8.05502 11.1725L8.06773 11.2512L8.22644 11.2255ZM9.21624 6.06471C8.85519 6.10978 8.44439 6.13015 7.98058 6.11139L7.96756 6.43272C8.44852 6.45215 8.87701 6.43111 9.25607 6.3838L9.21624 6.06471ZM8.31174 9.97669C8.88724 8.78244 9.2464 7.51988 9.39588 6.24293L9.07647 6.20557C8.93108 7.44772 8.58175 8.67563 8.02203 9.83708L8.31174 9.97669ZM8.2452 9.76645C8.12998 9.70219 8.01817 9.62826 7.91082 9.54438L7.71285 9.79779C7.8333 9.8919 7.95895 9.97503 8.08857 10.0473L8.2452 9.76645ZM7.91082 9.54438C7.75387 9.4218 7.61512 9.28479 7.49487 9.13676L7.24526 9.33957C7.38066 9.50619 7.53671 9.66023 7.71285 9.79779L7.91082 9.54438ZM7.22714 9.3118C7.37944 9.60746 7.49589 9.91837 7.57564 10.2376L7.88761 10.1597C7.80196 9.81663 7.67679 9.48248 7.513 9.16453L7.22714 9.3118ZM7.60624 10.098C7.24483 10.5482 6.81083 10.9065 6.33425 11.1693L6.48954 11.4509C7.00223 11.1682 7.46887 10.7829 7.85702 10.2993L7.60624 10.098ZM3.87549 7.93001C3.87548 9.7042 4.89861 10.9378 6.35758 11.4615L6.46622 11.1588C5.12449 10.6772 4.19707 9.55763 4.19707 7.93001H3.87549ZM4.75397 5.26525C4.20309 6.00147 3.87549 6.92646 3.87549 7.93001H4.19707C4.19707 6.99724 4.50139 6.13959 5.01145 5.45791L4.75397 5.26525ZM7.98058 6.11139C6.34236 6.04516 5.40922 5.54604 4.97736 5.23159L4.78806 5.49157C5.27058 5.84291 6.26491 6.3639 7.96756 6.43272L7.98058 6.11139ZM8.27859 11.7423C9.34696 11.7185 10.2682 11.515 11.0542 10.9376C11.8388 10.3612 12.4683 9.4273 12.986 7.98428L12.6833 7.8757C12.1776 9.28534 11.5779 10.1539 10.8638 10.6784C10.1511 11.202 9.30417 11.3978 8.27143 11.4208L8.27859 11.7423ZM12.8346 7.76921C12.3148 7.76921 12.0098 7.58516 11.7925 7.30552C11.5639 7.0114 11.4266 6.60587 11.2712 6.14061L10.9662 6.24242C11.1166 6.69294 11.2695 7.15667 11.5385 7.50285C11.8188 7.86347 12.2189 8.09078 12.8346 8.09078V7.76921ZM11.2712 6.14061C11.2195 5.98543 11.1658 5.82478 11.1067 5.66469L10.805 5.77606C10.8621 5.93065 10.9142 6.0865 10.9662 6.24242L11.2712 6.14061ZM10.8817 5.5777C10.6115 5.71821 10.2273 5.87362 9.71508 5.98161L9.78143 6.29626C10.3232 6.18206 10.735 6.0165 11.0301 5.86301L10.8817 5.5777ZM9.58846 6.12102C9.43882 7.45684 9.05355 8.77717 8.42469 10.017L8.71149 10.1625C9.35809 8.88764 9.75417 7.53011 9.90806 6.15685L9.58846 6.12102ZM9.58519 10.0896C9.26119 10.1006 8.93423 10.051 8.62269 9.93854L8.51348 10.241C8.86427 10.3677 9.23205 10.4234 9.5962 10.4109L9.58519 10.0896ZM8.34301 11.3363C8.72675 10.9325 9.17443 10.6181 9.65775 10.3964L9.52365 10.1041C9.00392 10.3425 8.52241 10.6807 8.10992 11.1147L8.34301 11.3363ZM8.43483 11.5638C8.4213 11.4421 8.40475 11.3207 8.3852 11.1998L8.06773 11.2512C8.08644 11.3668 8.10225 11.4829 8.11523 11.5993L8.43483 11.5638ZM7.07629 7.14405C6.73931 7.14405 6.46613 7.41724 6.46613 7.75423H6.7877C6.7877 7.59484 6.91691 7.46561 7.07629 7.46561V7.14405ZM7.68646 7.75423C7.68646 7.41724 7.41326 7.14405 7.07629 7.14405V7.46561C7.23567 7.46561 7.36489 7.59484 7.36489 7.75423H7.68646ZM7.68646 8.23616V7.75423H7.36489V8.23616H7.68646ZM7.07629 8.84634C7.41326 8.84634 7.68646 8.57315 7.68646 8.23616H7.36489C7.36489 8.39555 7.23567 8.52474 7.07629 8.52474V8.84634ZM6.46613 8.23616C6.46613 8.57315 6.73931 8.84634 7.07629 8.84634V8.52474C6.91691 8.52474 6.7877 8.39555 6.7877 8.23616H6.46613ZM6.46613 7.75423V8.23616H6.7877V7.75423H6.46613ZM5.02785 7.71514C5.02785 7.57734 5.13956 7.46561 5.27736 7.46561V7.14405C4.96196 7.14405 4.70627 7.39974 4.70627 7.71514H5.02785ZM5.02785 8.27525V7.71514H4.70627V8.27525H5.02785ZM5.27736 8.52474C5.13956 8.52474 5.02785 8.41305 5.02785 8.27525H4.70627C4.70627 8.59065 4.96196 8.84634 5.27736 8.84634V8.52474ZM5.52687 8.27525C5.52687 8.41305 5.41516 8.52474 5.27736 8.52474V8.84634C5.59277 8.84634 5.84845 8.59065 5.84845 8.27525H5.52687ZM5.52687 7.71514V8.27525H5.84845V7.71514H5.52687ZM5.27736 7.46561C5.41516 7.46561 5.52687 7.57734 5.52687 7.71514H5.84845C5.84845 7.39974 5.59277 7.14405 5.27736 7.14405V7.46561Z" fill="white"/>
</g>
<path fill-rule="evenodd" clip-rule="evenodd" d="M7.12635 14.5901C7.22369 14.3749 7.3069 14.1501 7.37454 13.9167C7.54132 13.3412 7.5998 12.7599 7.56197 12.1948C7.53665 12.5349 7.47589 12.8775 7.37718 13.2181C7.23926 13.694 7.03667 14.1336 6.78174 14.5301C6.89605 14.5547 7.01101 14.5747 7.12635 14.5901Z" fill="white"/>
<path d="M9.71984 7.74796C9.50296 7.74796 9.29496 7.83412 9.14159 7.98745C8.98822 8.14082 8.9021 8.34882 8.9021 8.5657C8.9021 8.78258 8.98822 8.99057 9.14159 9.14394C9.29496 9.29728 9.50296 9.38344 9.71984 9.38344V8.5657V7.74796Z" fill="white"/>
<mask id="mask1_3348_16" style="mask-type:luminance" maskUnits="userSpaceOnUse" x="5" y="2" width="8" height="9">
<path d="M12.3783 2.9985H5.36792V10.3954H12.3783V2.9985Z" fill="white"/>
<path fill-rule="evenodd" clip-rule="evenodd" d="M9.75733 3.61999C9.98577 5.80374 9.60089 8.05373 8.56819 10.0898C8.43122 10.0403 8.29704 9.9794 8.16699 9.90688C9.15325 7.86033 9.49538 5.61026 9.22757 3.43526C9.39923 3.51584 9.57682 3.57729 9.75733 3.61999Z" fill="black"/>
</mask>
<g mask="url(#mask1_3348_16)">
<path d="M8.56815 10.0898L8.67689 10.1449L8.62812 10.241L8.52678 10.2044L8.56815 10.0898ZM9.75728 3.61998L9.78536 3.50136L9.86952 3.52127L9.87853 3.6073L9.75728 3.61998ZM8.16695 9.90687L8.1076 10.0133L8.00732 9.9574L8.05715 9.85398L8.16695 9.90687ZM9.22753 3.43524L9.10656 3.45014L9.07958 3.23116L9.27932 3.32491L9.22753 3.43524ZM8.45945 10.0346C9.48122 8.02009 9.86217 5.79374 9.63608 3.63266L9.87853 3.6073C10.1093 5.81372 9.72048 8.0873 8.67689 10.1449L8.45945 10.0346ZM8.22633 9.80041C8.35056 9.86971 8.47876 9.92791 8.60956 9.97514L8.52678 10.2044C8.38363 10.1527 8.24344 10.0891 8.1076 10.0133L8.22633 9.80041ZM9.34849 3.42035C9.61905 5.61792 9.27346 7.89158 8.27675 9.9598L8.05715 9.85398C9.03298 7.82905 9.37158 5.60258 9.10656 3.45014L9.34849 3.42035ZM9.72925 3.7386C9.54064 3.69399 9.3551 3.62977 9.17573 3.54558L9.27932 3.32491C9.44327 3.40188 9.61288 3.46058 9.78536 3.50136L9.72925 3.7386Z" fill="white"/>
</g>
<path fill-rule="evenodd" clip-rule="evenodd" d="M11.4118 3.46925L11.2416 3.39926L11.1904 3.57611L11.349 3.62202C11.1904 3.57611 11.1904 3.57615 11.1904 3.5762L11.1903 3.57631L11.1902 3.57658L11.19 3.57741L11.1893 3.58009C11.1886 3.58233 11.1878 3.58548 11.1867 3.58949C11.1845 3.5975 11.1814 3.60897 11.1777 3.62359C11.1703 3.6528 11.1603 3.69464 11.1493 3.74656C11.1275 3.85017 11.102 3.99505 11.0869 4.16045C11.0573 4.4847 11.0653 4.91594 11.2489 5.26595C11.2613 5.28944 11.2643 5.31174 11.2625 5.32629C11.261 5.33849 11.2572 5.34226 11.2536 5.3449C11.0412 5.50026 10.5639 5.78997 9.76653 5.96607C9.76095 6.02373 9.75493 6.08134 9.74848 6.13895C10.601 5.95915 11.1161 5.65017 11.3511 5.4782C11.4413 5.41219 11.4471 5.28823 11.3952 5.18922C11.1546 4.73063 11.2477 4.08248 11.3103 3.78401C11.3314 3.68298 11.349 3.62202 11.349 3.62202C11.3745 3.6325 11.4002 3.63983 11.4259 3.64425C11.9083 3.72709 12.4185 2.78249 12.6294 2.33939C12.6852 2.22212 12.6234 2.08843 12.497 2.05837C11.2595 1.76399 5.46936 0.631807 4.57214 4.96989C4.55907 5.03307 4.57607 5.10106 4.62251 5.14584C4.87914 5.39322 5.86138 6.18665 7.9743 6.27207C8.44664 6.29114 8.86633 6.27046 9.23638 6.22425C9.24295 6.16797 9.24912 6.1117 9.25491 6.05534C8.88438 6.10391 8.46092 6.12641 7.98094 6.10702C5.91152 6.02337 4.96693 5.24843 4.73714 5.02692C4.73701 5.02679 4.73545 5.02525 4.73422 5.0208C4.73292 5.01611 4.73254 5.00987 4.73388 5.00334C4.94996 3.95861 5.4573 3.25195 6.11188 2.77714C6.77039 2.29947 7.58745 2.04983 8.42824 1.94075C10.1122 1.72228 11.8454 2.07312 12.4588 2.21906C12.4722 2.22225 12.4787 2.22927 12.4819 2.2362C12.4853 2.24342 12.4869 2.25443 12.4803 2.2684C12.3706 2.49879 12.183 2.85746 11.9656 3.13057C11.8564 3.26783 11.7479 3.37295 11.6469 3.43216C11.5491 3.48956 11.4752 3.49529 11.4118 3.46925Z" fill="white"/>
<mask id="mask2_3348_16" style="mask-type:luminance" maskUnits="userSpaceOnUse" x="3" y="9" width="7" height="6">
<path fill-rule="evenodd" clip-rule="evenodd" d="M8.22654 11.2255C8.62463 10.8066 9.08923 10.4803 9.59075 10.2502C8.97039 10.2715 8.33933 10.0831 7.81189 9.67109C7.64534 9.541 7.49795 9.39549 7.37014 9.23819C7.52815 9.54497 7.64896 9.86752 7.7317 10.1986C6.70151 11.4821 5.1007 12.0466 3.57739 11.8125C3.85909 12.527 4.32941 13.178 4.97849 13.6851C5.8625 14.3756 6.92544 14.6799 7.96392 14.6227C8.32513 13.5174 8.4085 12.351 8.22654 11.2255Z" fill="white"/>
</mask>
<g mask="url(#mask2_3348_16)">
<path d="M9.59085 10.2502L9.58389 10.0472L9.67556 10.4349L9.59085 10.2502ZM8.22663 11.2255L8.02607 11.258L8.00999 11.1585L8.07936 11.0856L8.22663 11.2255ZM7.37024 9.23819L7.18961 9.33119L7.52789 9.11006L7.37024 9.23819ZM7.7318 10.1986L7.92886 10.1494L7.95328 10.2472L7.8902 10.3258L7.7318 10.1986ZM3.57749 11.8125L3.3885 11.887L3.25879 11.5579L3.60835 11.6117L3.57749 11.8125ZM7.96402 14.6227L8.15711 14.6858L8.11397 14.8179L7.97519 14.8255L7.96402 14.6227ZM9.67556 10.4349C9.19708 10.6544 8.7538 10.9657 8.37387 11.3655L8.07936 11.0856C8.49566 10.6475 8.98161 10.3062 9.50614 10.0656L9.67556 10.4349ZM7.93704 9.51099C8.42551 9.89261 9.00942 10.0669 9.58389 10.0472L9.59781 10.4533C8.93151 10.4761 8.25334 10.2737 7.68693 9.83118L7.93704 9.51099ZM7.52789 9.11006C7.64615 9.25565 7.78261 9.39038 7.93704 9.51099L7.68693 9.83118C7.50827 9.69161 7.34994 9.53537 7.21254 9.36627L7.52789 9.11006ZM7.5347 10.2479C7.45573 9.93178 7.34043 9.62393 7.18961 9.33119L7.55082 9.14514C7.71611 9.466 7.84242 9.80326 7.92886 10.1494L7.5347 10.2479ZM3.60835 11.6117C5.06278 11.8352 6.59038 11.2962 7.57335 10.0715L7.8902 10.3258C6.81284 11.6681 5.1388 12.258 3.54663 12.0133L3.60835 11.6117ZM4.85352 13.8452C4.17512 13.3152 3.68312 12.6343 3.3885 11.887L3.76648 11.738C4.03524 12.4197 4.4839 13.0409 5.10364 13.525L4.85352 13.8452ZM7.97519 14.8255C6.8895 14.8853 5.77774 14.5672 4.85352 13.8452L5.10364 13.525C5.94745 14.1842 6.96157 14.4744 7.95285 14.4198L7.97519 14.8255ZM8.42716 11.1931C8.61419 12.3499 8.52858 13.5491 8.15711 14.6858L7.77093 14.5596C8.12191 13.4857 8.20296 12.352 8.02607 11.258L8.42716 11.1931Z" fill="white"/>
</g>
</g>
<defs>
<clipPath id="clip0_3348_16">
<rect width="9.63483" height="14" fill="white" transform="translate(3.19995 1.5)"/>
</clipPath>
</defs>
</svg>
