<svg xmlns="http://www.w3.org/2000/svg" width="245" height="356" fill="none" viewBox="0 0 245 356"><mask id="a" fill="#fff"><path fill-rule="evenodd" d="M121.403 121.347c12.011.485 22.683-.041 32.093-1.216-3.749 32.028-12.757 63.693-27.191 93.644a70 70 0 0 1-9.028-5.996 70 70 0 0 1-11.234-11.008 113.3 113.3 0 0 1 9.195 24.423c-9.531 11.874-20.982 21.327-33.56 28.264-35.608-12.781-60.408-42.701-60.408-85.952 0-24.619 8.035-47.284 21.524-65.312 11.625 8.466 36.132 21.436 78.609 23.153m7.652 135.012c53.428-1.187 89.924-20.315 115.945-92.853-28.875 0-35.859-20.92-43.633-44.208-1.321-3.955-2.664-7.979-4.141-11.98-7.188 3.737-17.309 7.818-30.709 10.644-3.859 34.443-13.793 68.49-30.009 100.463a69.5 69.5 0 0 0 26.003 4.081 112.5 112.5 0 0 0-34.691 24.8q.73 4.512 1.235 9.053m-41.909-97.323c0-6.311 5.116-11.427 11.427-11.427S110 152.725 110 159.036v12.255c0 6.311-5.116 11.427-11.427 11.427-6.31 0-11.427-5.116-11.427-11.427zM52.83 147.609c-5.762 0-10.433 4.671-10.433 10.433v14.243c0 5.762 4.67 10.433 10.433 10.433 5.762 0 10.433-4.671 10.433-10.433v-14.243c0-5.762-4.67-10.433-10.433-10.433" clip-rule="evenodd"/></mask><path fill="#fff" fill-rule="evenodd" d="M121.403 121.347c12.011.485 22.683-.041 32.093-1.216-3.749 32.028-12.757 63.693-27.191 93.644a70 70 0 0 1-9.028-5.996 70 70 0 0 1-11.234-11.008 113.3 113.3 0 0 1 9.195 24.423c-9.531 11.874-20.982 21.327-33.56 28.264-35.608-12.781-60.408-42.701-60.408-85.952 0-24.619 8.035-47.284 21.524-65.312 11.625 8.466 36.132 21.436 78.609 23.153m7.652 135.012c53.428-1.187 89.924-20.315 115.945-92.853-28.875 0-35.859-20.92-43.633-44.208-1.321-3.955-2.664-7.979-4.141-11.98-7.188 3.737-17.309 7.818-30.709 10.644-3.859 34.443-13.793 68.49-30.009 100.463a69.5 69.5 0 0 0 26.003 4.081 112.5 112.5 0 0 0-34.691 24.8q.73 4.512 1.235 9.053m-41.909-97.323c0-6.311 5.116-11.427 11.427-11.427S110 152.725 110 159.036v12.255c0 6.311-5.116 11.427-11.427 11.427-6.31 0-11.427-5.116-11.427-11.427zM52.83 147.609c-5.762 0-10.433 4.671-10.433 10.433v14.243c0 5.762 4.67 10.433 10.433 10.433 5.762 0 10.433-4.671 10.433-10.433v-14.243c0-5.762-4.67-10.433-10.433-10.433" clip-rule="evenodd"/><path fill="#fff" d="m153.496 120.131 4.061.475.606-5.178-5.174.646zm-32.093 1.216.165-4.086zm4.902 92.428-1.991 3.571 3.791 2.114 1.884-3.91zm-9.028-5.996-2.517 3.222zm-11.234-11.008 3.174-2.579-6.808 4.451zm9.195 24.423 3.188 2.559 1.27-1.582-.492-1.968zm-33.56 28.264-1.38 3.848 1.738.624 1.617-.892zM21.27 163.506h-4.089zm21.524-65.312L45.2 94.89l-3.262-2.376-2.418 3.232zm86.261 158.165-4.063.453.414 3.718 3.74-.083zM245 163.506l3.848 1.38 1.962-5.469H245zm-43.633-44.208-3.879 1.295zm-4.141-11.98 3.835-1.416-1.606-4.352-4.116 2.14zm-30.709 10.644-.843-4.001-2.891.61-.329 2.935zm-30.009 100.463-3.647-1.849-2.092 4.124 4.35 1.571zm26.003 4.081 1.705 3.716-1.845-7.802zm-34.691 24.8-2.963-2.817-1.396 1.469.323 2.001zm25.169-131.232c-9.181 1.146-19.627 1.664-31.421 1.187l-.331 8.171c12.23.494 23.126-.041 32.765-1.244zm-23 99.476c14.634-30.368 23.767-62.473 27.568-94.944l-8.122-.95c-3.697 31.586-12.58 62.81-26.813 92.344zm-1.692-5.346a66 66 0 0 1-8.503-5.647l-5.034 6.444a74 74 0 0 0 9.554 6.345zm-8.503-5.647a65.8 65.8 0 0 1-10.577-10.365l-6.347 5.157a74 74 0 0 0 11.89 11.652zm-17.385-5.914a109.2 109.2 0 0 1 8.862 23.542l7.933-1.982a117.3 117.3 0 0 0-9.526-25.305zm9.64 19.992c-9.19 11.449-20.226 20.559-32.345 27.242l3.95 7.161c13.036-7.19 24.902-16.987 34.772-29.285zm-94.868-55.129c0 45.115 26.017 76.484 63.116 89.8l2.763-7.697c-34.118-12.245-57.701-40.715-57.701-82.103zM39.52 95.745c-14.008 18.721-22.339 42.242-22.339 67.761h8.178c0-23.719 7.738-45.528 20.708-62.862zm82.048 21.516c-41.657-1.684-65.386-14.376-76.368-22.372l-4.813 6.611c12.27 8.934 37.554 22.182 80.85 23.932zm7.578 143.186c27.167-.604 50.592-5.78 70.58-20.463 19.952-14.657 35.959-38.404 49.122-75.098l-7.697-2.761c-12.858 35.845-28.109 57.931-46.267 71.269-18.122 13.313-39.659 18.294-65.92 18.878zM245 159.417c-13.218 0-20.975-4.68-26.501-11.791-5.813-7.479-9.304-17.791-13.254-29.622l-7.757 2.589c3.825 11.456 7.713 23.248 14.554 32.051 7.127 9.17 17.3 14.95 32.958 14.95zm-39.755-41.413c-1.317-3.946-2.681-8.031-4.184-12.102l-7.671 2.832c1.451 3.931 2.775 7.894 4.098 11.859zm-9.906-14.314c-6.87 3.573-16.641 7.525-29.665 10.271l1.687 8.001c13.776-2.904 24.247-7.114 31.751-11.017zm-32.885 13.816c-3.805 33.968-13.602 67.542-29.593 99.07l7.293 3.699c16.442-32.418 26.514-66.938 30.427-101.858zm-.083 100.914a65.5 65.5 0 0 1-24.475-3.84l-2.777 7.691a73.6 73.6 0 0 0 27.532 4.321zm-31.587 31.703a108.5 108.5 0 0 1 33.432-23.901l-3.41-7.432a116.6 116.6 0 0 0-35.949 25.699zm2.335 5.784a189 189 0 0 0-1.262-9.254l-8.073 1.306q.713 4.41 1.208 8.853zM98.573 143.52c-8.569 0-15.515 6.947-15.515 15.516h8.177a7.34 7.34 0 0 1 7.338-7.339zm15.516 15.516c0-8.569-6.947-15.516-15.516-15.516v8.177a7.34 7.34 0 0 1 7.339 7.339zm0 12.255v-12.255h-8.177v12.255zm-15.516 15.516c8.569 0 15.516-6.947 15.516-15.516h-8.177a7.34 7.34 0 0 1-7.339 7.338zm-15.515-15.516c0 8.569 6.946 15.516 15.515 15.516v-8.178a7.34 7.34 0 0 1-7.338-7.338zm0-12.255v12.255h8.177v-12.255zm-36.574-.994a6.345 6.345 0 0 1 6.345-6.345v-8.177c-8.02 0-14.522 6.502-14.522 14.522zm0 14.243v-14.243h-8.177v14.243zm6.345 6.344a6.344 6.344 0 0 1-6.345-6.344h-8.177c0 8.02 6.502 14.522 14.522 14.522zm6.345-6.344a6.344 6.344 0 0 1-6.345 6.344v8.178c8.02 0 14.522-6.502 14.522-14.522zm0-14.243v14.243h8.177v-14.243zm-6.345-6.345a6.345 6.345 0 0 1 6.345 6.345h8.177c0-8.02-6.502-14.522-14.522-14.522z" mask="url(#a)"/><path fill="#fff" fill-rule="evenodd" d="M99.84 332.862a128 128 0 0 0 6.312-17.123c4.241-14.635 5.728-29.415 4.766-43.785a127.4 127.4 0 0 1-4.699 26.02c-3.507 12.102-8.659 23.28-15.141 33.363 2.906.625 5.83 1.133 8.763 1.525" clip-rule="evenodd"/><path fill="#fff" d="M165.798 158.877a20.794 20.794 0 1 0 0 41.588v-41.588"/><mask id="b" width="178.263" height="188.092" x="55.131" y="38.105" fill="#000" maskUnits="userSpaceOnUse"><path fill="#fff" d="M55.131 38.105h178.263v188.092H55.131z"/><path fill-rule="evenodd" d="M166.745 53.908c5.809 55.53-3.978 112.744-30.238 164.518a69 69 0 0 1-10.202-4.651c25.079-52.041 33.779-109.257 26.969-164.564a69 69 0 0 0 13.471 4.697" clip-rule="evenodd"/></mask><path fill="#fff" d="m136.507 218.426 2.765 1.402-1.24 2.444-2.577-.931zm30.238-164.518.714-3.016 2.14.506.229 2.188zm-40.44 159.867-1.509 2.707-2.55-1.422 1.267-2.63zm26.969-164.564-3.076.379-.686-5.569 5.079 2.384zm-19.531 167.813c25.982-51.227 35.669-107.84 29.92-162.793l6.165-.645c5.869 56.106-4.019 113.92-30.556 166.242zm-5.928-5.956a66 66 0 0 0 9.745 4.443l-2.105 5.83a72 72 0 0 1-10.659-4.859zM156.35 48.832c6.88 55.881-1.908 113.697-27.253 166.289l-5.584-2.691c24.814-51.491 33.424-108.107 26.685-162.84zm9.682 8.093a72.3 72.3 0 0 1-14.075-4.908l2.634-5.612a66 66 0 0 0 12.868 4.487z" mask="url(#b)"/><path fill="#fff" fill-rule="evenodd" d="m208.815 50.075-4.33-1.78-1.301 4.498 4.034 1.167a746 746 0 0 0-4.035-1.165l-.001.003-.002.007-.006.02-.019.069a52 52 0 0 0-.293 1.106 78 78 0 0 0-.722 3.127 93 93 0 0 0-1.589 10.524c-.751 8.246-.548 19.212 4.121 28.112.314.597.39 1.164.345 1.534-.037.31-.134.406-.226.474-5.4 3.95-17.538 11.317-37.814 15.795a296 296 0 0 1-.459 4.396c21.679-4.572 34.776-12.429 40.753-16.802 2.294-1.678 2.441-4.83 1.12-7.348-6.117-11.662-3.749-28.143-2.159-35.733.538-2.569.986-4.119.986-4.119q.972.399 1.954.565c12.266 2.107 25.24-21.913 30.603-33.18 1.419-2.982-.152-6.382-3.365-7.146C204.942 6.713 57.706-22.077 34.89 88.235c-.331 1.606.1 3.335 1.282 4.474 6.526 6.29 31.502 26.466 85.231 28.638 12.011.485 22.683-.041 32.093-1.216q.25-2.146.471-4.295c-9.422 1.235-20.19 1.807-32.395 1.314-52.622-2.127-76.642-21.833-82.485-27.465a.35.35 0 0 1-.075-.156 1 1 0 0 1-.008-.444c5.494-26.566 18.395-44.535 35.04-56.61 16.745-12.146 37.522-18.493 58.902-21.267 42.82-5.556 86.893 3.366 102.492 7.077.341.08.505.26.588.436.086.183.126.463-.043.818-2.789 5.859-7.56 14.98-13.086 21.924-2.777 3.49-5.537 6.163-8.104 7.67-2.489 1.459-4.367 1.604-5.978.942" clip-rule="evenodd"/><mask id="c" fill="#fff"><path fill-rule="evenodd" d="M127.821 247.306a112.5 112.5 0 0 1 34.69-24.8c-15.775.541-31.822-4.249-45.234-14.727a70 70 0 0 1-11.233-11.008 113.4 113.4 0 0 1 9.194 24.423C89.042 253.831 48.335 268.185 9.6 262.231c7.163 18.17 19.123 34.725 35.628 47.618 22.479 17.56 49.508 25.296 75.915 23.842 9.185-28.106 11.305-57.766 6.678-86.385" clip-rule="evenodd"/></mask><path fill="#fff" d="m162.511 222.506-.177-5.163 2.331 9.858zm-34.69 24.8-5.1.825-.409-2.528 1.764-1.855zm-21.777-50.535-4.593 2.365 8.602-5.623zm9.194 24.423 5.011-1.252.621 2.487-1.604 1.998zM9.6 262.231l-4.806 1.895-3.298-8.367 8.889 1.367zm111.543 71.46 4.91 1.605-1.097 3.359-3.529.194zm43.522-106.49a107.4 107.4 0 0 0-33.1 23.664l-7.489-7.117a117.7 117.7 0 0 1 36.281-25.937zm-44.208-23.493c12.421 9.704 27.269 14.136 41.877 13.635l.354 10.326c-16.943.58-34.188-4.567-48.591-15.819zm-10.404-10.195a64.7 64.7 0 0 0 10.404 10.195l-6.36 8.142a75 75 0 0 1-12.063-11.822zm.173 28.933a108 108 0 0 0-8.775-23.31l9.185-4.731a118.4 118.4 0 0 1 9.613 25.537zm-99.841 34.68c36.984 5.684 75.828-8.023 100.824-39.166l8.057 6.467C91.87 258.56 49.302 273.56 8.816 267.337zm31.663 56.794c-17.251-13.476-29.762-30.79-37.254-49.794l9.612-3.789c6.834 17.336 18.243 33.131 34.002 45.442zm79.379 24.929c-27.607 1.52-55.878-6.57-79.38-24.929l6.36-8.141c21.458 16.761 47.245 24.142 72.452 22.754zm11.493-92.367c4.756 29.416 2.579 59.91-6.867 88.814l-9.82-3.21c8.925-27.308 10.986-56.135 6.488-83.955z" mask="url(#c)"/></svg>
