<svg width="14" height="14" viewBox="0 0 14 14" fill="none" xmlns="http://www.w3.org/2000/svg">
<path d="M1 3.25C1 2.42148 1.67148 1.75 2.5 1.75H11.5C12.3273 1.75 13 2.42148 13 3.25V10.75C13 11.5773 12.3273 12.25 11.5 12.25H2.5C1.67148 12.25 1 11.5773 1 10.75V3.25ZM3.39766 4.55781C3.18789 4.7875 3.20336 5.14141 3.43281 5.35234L5.23047 7L3.43281 8.64766C3.20336 8.85859 3.18789 9.2125 3.39766 9.44219C3.60859 9.65078 3.9625 9.68594 4.19219 9.47734L6.44219 7.41484C6.55937 7.30703 6.625 7.15703 6.625 6.97891C6.625 6.84297 6.55937 6.69297 6.44219 6.58516L4.19219 4.52266C3.9625 4.31406 3.60859 4.32813 3.39766 4.55781V4.55781ZM6.8125 8.875C6.50078 8.875 6.25 9.12578 6.25 9.4375C6.25 9.74922 6.50078 10 6.8125 10H10.1875C10.4992 10 10.75 9.74922 10.75 9.4375C10.75 9.12578 10.4992 8.875 10.1875 8.875H6.8125Z" fill="white"/>
</svg>
