<svg width="14" height="14" viewBox="0 0 14 14" fill="none" xmlns="http://www.w3.org/2000/svg">
<mask id="path-1-inside-1_1728_4" fill="white">
<path fill-rule="evenodd" clip-rule="evenodd" d="M1 3C1 1.89543 1.89543 1 3 1H11C12.1046 1 13 1.89543 13 3V11C13 12.1046 12.1046 13 11 13H3C1.89543 13 1 12.1046 1 11V3ZM4.02145 4.64645C4.21671 4.45118 4.53329 4.45118 4.72855 4.64645L6.72855 6.64645C6.92382 6.84171 6.92382 7.15829 6.72855 7.35355L4.72855 9.35355C4.53329 9.54882 4.21671 9.54882 4.02145 9.35355C3.82618 9.15829 3.82618 8.84171 4.02145 8.64645L5.66789 7L4.02145 5.35355C3.82618 5.15829 3.82618 4.84171 4.02145 4.64645ZM7.625 8.5C7.34886 8.5 7.125 8.72386 7.125 9C7.125 9.27614 7.34886 9.5 7.625 9.5H9.90625C10.1824 9.5 10.4062 9.27614 10.4062 9C10.4062 8.72386 10.1824 8.5 9.90625 8.5H7.625Z"/>
</mask>
<path fill-rule="evenodd" clip-rule="evenodd" d="M1 3C1 1.89543 1.89543 1 3 1H11C12.1046 1 13 1.89543 13 3V11C13 12.1046 12.1046 13 11 13H3C1.89543 13 1 12.1046 1 11V3ZM4.02145 4.64645C4.21671 4.45118 4.53329 4.45118 4.72855 4.64645L6.72855 6.64645C6.92382 6.84171 6.92382 7.15829 6.72855 7.35355L4.72855 9.35355C4.53329 9.54882 4.21671 9.54882 4.02145 9.35355C3.82618 9.15829 3.82618 8.84171 4.02145 8.64645L5.66789 7L4.02145 5.35355C3.82618 5.15829 3.82618 4.84171 4.02145 4.64645ZM7.625 8.5C7.34886 8.5 7.125 8.72386 7.125 9C7.125 9.27614 7.34886 9.5 7.625 9.5H9.90625C10.1824 9.5 10.4062 9.27614 10.4062 9C10.4062 8.72386 10.1824 8.5 9.90625 8.5H7.625Z" fill="black"/>
<path d="M4.72855 4.64645L4.02145 5.35355L4.02145 5.35355L4.72855 4.64645ZM4.02145 4.64645L4.72855 5.35355L4.72855 5.35355L4.02145 4.64645ZM6.72855 6.64645L6.02145 7.35355L6.02145 7.35355L6.72855 6.64645ZM6.72855 7.35355L6.02145 6.64645L6.02145 6.64645L6.72855 7.35355ZM4.72855 9.35355L4.02145 8.64645L4.02145 8.64645L4.72855 9.35355ZM4.02145 9.35355L4.72855 8.64645L4.72855 8.64645L4.02145 9.35355ZM4.02145 8.64645L4.72855 9.35355L4.72855 9.35355L4.02145 8.64645ZM5.66789 7L6.375 7.70711L7.08211 7L6.375 6.29289L5.66789 7ZM4.02145 5.35355L4.72855 4.64645L4.72855 4.64645L4.02145 5.35355ZM3 0C1.34315 0 0 1.34315 0 3H2C2 2.44772 2.44772 2 3 2V0ZM11 0H3V2H11V0ZM14 3C14 1.34315 12.6569 0 11 0V2C11.5523 2 12 2.44772 12 3H14ZM14 11V3H12V11H14ZM11 14C12.6569 14 14 12.6569 14 11H12C12 11.5523 11.5523 12 11 12V14ZM3 14H11V12H3V14ZM0 11C0 12.6569 1.34315 14 3 14V12C2.44772 12 2 11.5523 2 11H0ZM0 3V11H2V3H0ZM5.43566 3.93934C4.84987 3.35355 3.90013 3.35355 3.31434 3.93934L4.72855 5.35355C4.53329 5.54882 4.21671 5.54882 4.02145 5.35355L5.43566 3.93934ZM7.43566 5.93934L5.43566 3.93934L4.02145 5.35355L6.02145 7.35355L7.43566 5.93934ZM7.43566 8.06066C8.02145 7.47487 8.02145 6.52513 7.43566 5.93934L6.02145 7.35355C5.82618 7.15829 5.82618 6.84171 6.02145 6.64645L7.43566 8.06066ZM5.43566 10.0607L7.43566 8.06066L6.02145 6.64645L4.02145 8.64645L5.43566 10.0607ZM3.31434 10.0607C3.90013 10.6464 4.84987 10.6464 5.43566 10.0607L4.02145 8.64645C4.21671 8.45118 4.53329 8.45118 4.72855 8.64645L3.31434 10.0607ZM3.31434 7.93934C2.72855 8.52513 2.72855 9.47487 3.31434 10.0607L4.72855 8.64645C4.92382 8.84171 4.92382 9.15829 4.72855 9.35355L3.31434 7.93934ZM4.96079 6.29289L3.31434 7.93934L4.72855 9.35355L6.375 7.70711L4.96079 6.29289ZM3.31434 6.06066L4.96079 7.70711L6.375 6.29289L4.72855 4.64645L3.31434 6.06066ZM3.31434 3.93934C2.72855 4.52513 2.72855 5.47487 3.31434 6.06066L4.72855 4.64645C4.92382 4.84171 4.92382 5.15829 4.72855 5.35355L3.31434 3.93934ZM8.125 9C8.125 9.27614 7.90114 9.5 7.625 9.5V7.5C6.79657 7.5 6.125 8.17157 6.125 9H8.125ZM7.625 8.5C7.90114 8.5 8.125 8.72386 8.125 9H6.125C6.125 9.82843 6.79657 10.5 7.625 10.5V8.5ZM9.90625 8.5H7.625V10.5H9.90625V8.5ZM9.40625 9C9.40625 8.72386 9.63011 8.5 9.90625 8.5V10.5C10.7347 10.5 11.4062 9.82843 11.4062 9H9.40625ZM9.90625 9.5C9.63011 9.5 9.40625 9.27614 9.40625 9H11.4062C11.4062 8.17157 10.7347 7.5 9.90625 7.5V9.5ZM7.625 9.5H9.90625V7.5H7.625V9.5Z" fill="black" mask="url(#path-1-inside-1_1728_4)"/>
</svg>
