<svg width="16" height="16" viewBox="0 0 16 16" fill="none" xmlns="http://www.w3.org/2000/svg">
<path d="M1 3.625C1 2.65839 1.78339 1.875 2.75 1.875H13.25C14.2152 1.875 15 2.65839 15 3.625V12.375C15 13.3402 14.2152 14.125 13.25 14.125H2.75C1.78339 14.125 1 13.3402 1 12.375V3.625ZM3.79727 5.15078C3.55254 5.41875 3.57059 5.83165 3.83828 6.07773L5.93555 8L3.83828 9.92227C3.57059 10.1684 3.55254 10.5813 3.79727 10.8492C4.04335 11.0926 4.45625 11.1336 4.72422 10.8902L7.34922 8.48398C7.48593 8.3582 7.5625 8.1832 7.5625 7.97539C7.5625 7.8168 7.48593 7.6418 7.34922 7.51602L4.72422 5.10977C4.45625 4.8664 4.04335 4.88282 3.79727 5.15078ZM7.78125 10.1875C7.41758 10.1875 7.125 10.4801 7.125 10.8438C7.125 11.2074 7.41758 11.5 7.78125 11.5H11.7188C12.0824 11.5 12.375 11.2074 12.375 10.8438C12.375 10.4801 12.0824 10.1875 11.7188 10.1875H7.78125Z" fill="white"/>
</svg>
