<svg width="16" height="16" viewBox="0 0 16 16" fill="none" xmlns="http://www.w3.org/2000/svg">
<path d="M2.5 4C2.5 3.17157 3.17157 2.5 4 2.5H12C12.8284 2.5 13.5 3.17157 13.5 4V12C13.5 12.8284 12.8284 13.5 12 13.5H4C3.17157 13.5 2.5 12.8284 2.5 12V4ZM4.66789 10.7071L5.02145 10.3536L4.66789 10.7071C5.05842 11.0976 5.69158 11.0976 6.08211 10.7071L8.08211 8.70711C8.47263 8.31658 8.47263 7.68342 8.08211 7.29289L6.08211 5.29289C5.69158 4.90237 5.05842 4.90237 4.66789 5.29289C4.27737 5.68342 4.27737 6.31658 4.66789 6.70711L5.96079 8L4.66789 9.29289C4.27737 9.68342 4.27737 10.3166 4.66789 10.7071ZM8.625 9C8.07271 9 7.625 9.44771 7.625 10C7.625 10.5523 8.07271 11 8.625 11H10.9062C11.4585 11 11.9062 10.5523 11.9062 10C11.9062 9.44771 11.4585 9 10.9062 9H8.625Z" fill="black" stroke="black"/>
</svg>
