<svg width="8" height="8" viewBox="0 0 8 8" fill="none" xmlns="http://www.w3.org/2000/svg">
<g clip-path="url(#clip0_430_1381)">
<path d="M0 1.5C0 0.947653 0.447653 0.5 1 0.5H7C7.55153 0.5 8 0.947653 8 1.5V6.5C8 7.05153 7.55153 7.5 7 7.5H1C0.447653 7.5 0 7.05153 0 6.5V1.5ZM1.59844 2.37187C1.45859 2.525 1.46891 2.76094 1.62187 2.90156L2.82031 4L1.62187 5.09844C1.46891 5.23906 1.45859 5.475 1.59844 5.62813C1.73906 5.76719 1.975 5.79063 2.12813 5.65156L3.62813 4.27656C3.70625 4.20469 3.75 4.10469 3.75 3.98594C3.75 3.89531 3.70625 3.79531 3.62813 3.72344L2.12813 2.34844C1.975 2.20937 1.73906 2.21875 1.59844 2.37187ZM3.875 5.25C3.66719 5.25 3.5 5.41719 3.5 5.625C3.5 5.83281 3.66719 6 3.875 6H6.125C6.3328 6 6.5 5.83281 6.5 5.625C6.5 5.41719 6.3328 5.25 6.125 5.25H3.875Z" fill="white"/>
</g>
<defs>
<clipPath id="clip0_430_1381">
<rect width="8" height="8" fill="white"/>
</clipPath>
</defs>
</svg>
