<svg width="12" height="12" viewBox="0 0 12 12" fill="none" xmlns="http://www.w3.org/2000/svg">
<g clip-path="url(#clip0_430_1295)">
<path d="M0 2.25C0 1.42148 0.67148 0.75 1.5 0.75H10.5C11.3273 0.75 12 1.42148 12 2.25V9.75C12 10.5773 11.3273 11.25 10.5 11.25H1.5C0.67148 11.25 0 10.5773 0 9.75V2.25ZM2.39766 3.55781C2.18789 3.7875 2.20336 4.14141 2.43281 4.35234L4.23047 6L2.43281 7.64766C2.20336 7.85859 2.18789 8.2125 2.39766 8.44219C2.60859 8.65078 2.9625 8.68594 3.19219 8.47734L5.44219 6.41484C5.55937 6.30703 5.625 6.15703 5.625 5.97891C5.625 5.84297 5.55937 5.69297 5.44219 5.58516L3.19219 3.52266C2.9625 3.31406 2.60859 3.32813 2.39766 3.55781ZM5.8125 7.875C5.50078 7.875 5.25 8.12578 5.25 8.4375C5.25 8.74922 5.50078 9 5.8125 9H9.1875C9.4992 9 9.75 8.74922 9.75 8.4375C9.75 8.12578 9.4992 7.875 9.1875 7.875H5.8125Z" fill="white"/>
</g>
<defs>
<clipPath id="clip0_430_1295">
<rect width="12" height="12" fill="white"/>
</clipPath>
</defs>
</svg>
