<svg width="16" height="16" viewBox="0 0 16 16" fill="none" xmlns="http://www.w3.org/2000/svg">
<path d="M5.19924 8.90081L2.9472 6.64876L5.19924 4.39673" stroke="#C6CAD0" stroke-width="1.2" stroke-linecap="round" stroke-linejoin="round"/>
<path d="M2.9472 6.64877H7.67649C8.00178 6.64877 8.32391 6.71285 8.6245 6.83734C8.92501 6.96184 9.19813 7.14431 9.42817 7.37434C9.6582 7.60437 9.84067 7.87746 9.96512 8.17802C10.0897 8.47856 10.1537 8.8007 10.1537 9.12601C10.1537 9.45131 10.0897 9.77345 9.96512 10.074C9.84067 10.3745 9.6582 10.6477 9.42817 10.8777C9.19813 11.1077 8.92501 11.2902 8.6245 11.4147C8.32391 11.5392 8.00178 11.6033 7.67649 11.6033H6.10005" stroke="#C6CAD0" stroke-width="1.2" stroke-linecap="round" stroke-linejoin="round"/>
<path d="M13.0528 3.33331V12.6666" stroke="#C6CAD0" stroke-width="1.2" stroke-linecap="round" stroke-linejoin="round"/>
</svg>
