<svg width="16" height="16" viewBox="0 0 16 16" fill="none" xmlns="http://www.w3.org/2000/svg">
<path d="M6.03722 10.2625C5.9067 9.62316 6.03718 9.62442 5.05829 8.47947C4.73761 8.16533 4.51949 7.86033 4.37222 7.56792M6.03722 10.2625L6.03718 12.3893C6.03718 13.0544 6.58765 13.5937 7.2667 13.5937H8.72323C9.40228 13.5937 9.95264 13.0544 9.95264 12.3893V12.0283M6.03722 10.2625H7.5" stroke="#C6CAD0" stroke-width="1.25" stroke-linecap="round" stroke-linejoin="round"/>
<path d="M6 2.9415C6.59896 2.59412 7.28707 2.40634 7.99495 2.40634C9.03341 2.40634 10.0294 2.81046 10.7637 3.52978C11.4979 4.2491 11.9105 5.22472 11.9105 6.242C11.9105 6.87697 11.6713 7.46553 11.3046 8" stroke="#C6CAD0" stroke-width="1.25" stroke-linecap="round" stroke-linejoin="round"/>
<path fill-rule="evenodd" clip-rule="evenodd" d="M14.1225 13.809C14.0341 13.9146 13.877 13.9289 13.7711 13.8409L1.19311 3.4002C1.08659 3.31177 1.07221 3.15361 1.16104 3.04742L1.87752 2.191C1.96588 2.08539 2.123 2.07111 2.22895 2.15905L14.8069 12.5998C14.9134 12.6882 14.9278 12.8464 14.839 12.9526L14.1225 13.809Z" fill="#C6CAD0"/>
</svg>
