<svg width="16" height="16" viewBox="0 0 16 16" fill="none" xmlns="http://www.w3.org/2000/svg">
<path d="M6.03722 10.2625C5.9067 9.62317 6.03718 9.62443 5.05829 8.47948C4.73761 8.16534 4.51949 7.86034 4.37222 7.56793M6.03722 10.2625L6.03718 12.3893C6.03718 13.0544 6.58765 13.5937 7.2667 13.5937H8.72323C9.40228 13.5937 9.95264 13.0544 9.95264 12.3893V12.0283M6.03722 10.2625H7.5" stroke="#DCE0E5" stroke-width="1.25" stroke-linecap="round" stroke-linejoin="round"/>
<path d="M6 2.9415C6.59896 2.59412 7.28707 2.40634 7.99495 2.40634C9.03341 2.40634 10.0294 2.81046 10.7637 3.52978C11.4979 4.2491 11.9105 5.22472 11.9105 6.242C11.9105 6.87697 11.6713 7.46553 11.3046 8" stroke="#DCE0E5" stroke-width="1.25" stroke-linecap="round" stroke-linejoin="round"/>
<path d="M1.5015 2.54385L14.4985 13.4561" stroke="#DCE0E5" stroke-width="1.2" stroke-linecap="round" stroke-linejoin="round"/>
</svg>
