<svg width="16" height="16" viewBox="0 0 16 16" fill="none" xmlns="http://www.w3.org/2000/svg">
<path d="M8.98795 10.4323C9.40771 10.9919 9.99294 11.4054 10.6607 11.614C11.3285 11.8226 12.045 11.8158 12.7087 11.5945C13.3724 11.3733 13.9497 10.9488 14.3588 10.3813C14.7678 9.81373 14.9879 9.13186 14.9879 8.43225C14.9879 7.6366 14.6719 6.87354 14.1093 6.31093C13.5467 5.74832 12.7836 5.43225 11.9879 5.43225C11.6685 5.43225 11.3595 5.47897 11.0677 5.56586C10.0571 5.86681 9.46945 6.84992 8.98796 7.78806V7.78806" stroke="black" stroke-width="1.5" stroke-linecap="round" stroke-linejoin="round"/>
<path d="M8.01318 5.93652V8.60319H10.6799" stroke="black" stroke-width="1.5" stroke-linecap="round" stroke-linejoin="round"/>
<path d="M8.01318 5.93652V8.60319H10.6799" stroke="black" stroke-width="1.5" stroke-linecap="round" stroke-linejoin="round"/>
<path d="M7.00558 12.4263C6.16246 12.4494 5.3211 12.2612 4.56083 11.8712L1.24829 12.994L2.37119 9.68151C1.8215 8.60995 1.67261 7.37729 1.95135 6.20566C2.23009 5.03403 2.91813 4.00048 3.89148 3.29126C4.86484 2.58204 6.05949 2.24379 7.26018 2.33746C7.86645 2.38475 8.45413 2.54061 8.99705 2.79296" stroke="black" stroke-width="1.5" stroke-linecap="round" stroke-linejoin="round"/>
</svg>
