<svg width="16" height="16" viewBox="0 0 16 16" fill="none" xmlns="http://www.w3.org/2000/svg">
<path d="M8.31947 5.03803L8.31947 9.28259" stroke="#C6CAD0" stroke-width="1.2" stroke-linecap="round" stroke-linejoin="round"/>
<path d="M6.19576 7.67419L8.31948 9.79792L10.4432 7.67419" stroke="#C6CAD0" stroke-width="1.2" stroke-linecap="round" stroke-linejoin="round"/>
<path d="M5.64894 12.8952C6.89401 13.5339 8.32626 13.7069 9.68759 13.383C11.0489 13.0592 12.2499 12.2598 13.0739 11.1288C13.8979 9.99787 14.291 8.60973 14.1821 7.21464C14.0733 5.81955 13.4698 4.5092 12.4803 3.51972C11.4908 2.53024 10.1805 1.92671 8.78535 1.81787C7.39026 1.70904 6.00218 2.10207 4.87122 2.92612C3.74026 3.75018 2.94082 4.95106 2.61695 6.3124C2.29307 7.67374 2.46606 9.10598 3.10475 10.3511L1.80005 14.1999L5.64894 12.8952Z" stroke="#C6CAD0" stroke-width="1.2" stroke-linecap="round" stroke-linejoin="round"/>
</svg>
