<svg width="16" height="16" viewBox="0 0 16 16" fill="none" xmlns="http://www.w3.org/2000/svg">
<path d="M9.95231 10.2159C10.0803 9.58974 9.95231 9.57261 10.9111 8.46959C11.4686 7.82822 11.8699 7.09214 11.8699 6.27818C11.8699 5.28184 11.4658 4.32631 10.7467 3.62179C10.0275 2.91728 9.05201 2.52148 8.03492 2.52148C7.01782 2.52148 6.04239 2.91728 5.32319 3.62179C4.604 4.32631 4.19995 5.28184 4.19995 6.27818C4.19995 6.9043 4.32779 7.65565 5.1587 8.46959C6.11744 9.59098 5.98965 9.58974 6.11748 10.2159M9.95231 10.2159V12.2989C9.95231 12.9504 9.41327 13.4786 8.7482 13.4786H7.32165C6.65658 13.4786 6.11744 12.9504 6.11744 12.2989L6.11748 10.2159M9.95231 10.2159H8.03492H6.11748" stroke="black" stroke-width="1.5" stroke-linecap="round" stroke-linejoin="round"/>
</svg>
