<svg width="16" height="16" viewBox="0 0 16 16" fill="none" xmlns="http://www.w3.org/2000/svg">
<path d="M6.5 12C6.65203 12.304 6.87068 12.5565 7.13399 12.7321C7.39729 12.9076 7.69597 13 8 13C8.30403 13 8.60271 12.9076 8.86601 12.7321C9.12932 12.5565 9.34797 12.304 9.5 12" stroke="black" stroke-width="1.2" stroke-linecap="round" stroke-linejoin="round"/>
<path d="M3.63088 9.21874C3.56556 9.28556 3.52246 9.36865 3.50681 9.45791C3.49116 9.54718 3.50364 9.63876 3.54273 9.72152C3.58183 9.80429 3.64585 9.87467 3.72701 9.92409C3.80817 9.97352 3.90298 9.99987 3.99989 9.99994H12.0001C12.097 9.99997 12.1918 9.97372 12.273 9.92439C12.3542 9.87505 12.4183 9.80476 12.4575 9.72205C12.4967 9.63934 12.5093 9.54778 12.4938 9.45851C12.4783 9.36924 12.4353 9.2861 12.3701 9.21921C11.705 8.57941 11 7.89947 11 5.79994C11 5.05733 10.684 4.34514 10.1213 3.82004C9.55872 3.29494 8.79564 2.99994 7.99997 2.99994C7.20431 2.99994 6.44123 3.29494 5.87861 3.82004C5.31599 4.34514 4.99991 5.05733 4.99991 5.79994C4.99991 7.89947 4.2944 8.57941 3.63088 9.21874Z" stroke="black" stroke-width="1.2" stroke-linecap="round" stroke-linejoin="round"/>
</svg>
