<svg width="16" height="16" viewBox="0 0 16 16" fill="none" xmlns="http://www.w3.org/2000/svg">
<path d="M12.5871 5.40582C12.8514 5.14152 13 4.78304 13 4.40922C13 4.03541 12.8516 3.67688 12.5873 3.41252C12.323 3.14816 11.9645 2.99962 11.5907 2.99957C11.2169 2.99953 10.8584 3.14798 10.594 3.41227L3.92098 10.0869C3.80488 10.2027 3.71903 10.3452 3.67097 10.5019L3.01047 12.678C2.99754 12.7212 2.99657 12.7672 3.00764 12.8109C3.01872 12.8547 3.04143 12.8946 3.07337 12.9265C3.1053 12.9584 3.14528 12.981 3.18905 12.992C3.23282 13.003 3.27875 13.002 3.32197 12.989L5.49849 12.329C5.65508 12.2813 5.79758 12.196 5.91349 12.0805L12.5871 5.40582Z" stroke="black" stroke-width="1.5" stroke-linecap="round" stroke-linejoin="round"/>
<path d="M9 5L11 7" stroke="black" stroke-width="1.5" stroke-linecap="round" stroke-linejoin="round"/>
</svg>
