<svg width="16" height="16" viewBox="0 0 16 16" fill="none" xmlns="http://www.w3.org/2000/svg">
<path d="M9.5 2.5H6.5C6.22386 2.5 6 2.83579 6 3.25V4.75C6 5.16421 6.22386 5.5 6.5 5.5H9.5C9.77614 5.5 10 5.16421 10 4.75V3.25C10 2.83579 9.77614 2.5 9.5 2.5Z" stroke="black" stroke-width="1.2" stroke-linecap="round" stroke-linejoin="round"/>
<path d="M10 3.5H11C11.2652 3.5 11.5196 3.61706 11.7071 3.82544C11.8946 4.03381 12 4.31643 12 4.61111V12.3889C12 12.6836 11.8946 12.9662 11.7071 13.1746C11.5196 13.3829 11.2652 13.5 11 13.5H5C4.73478 13.5 4.48043 13.3829 4.29289 13.1746C4.10536 12.9662 4 12.6836 4 12.3889V4.61111C4 4.31643 4.10536 4.03381 4.29289 3.82544C4.48043 3.61706 4.73478 3.5 5 3.5H6" stroke="black" stroke-width="1.2" stroke-linecap="round" stroke-linejoin="round"/>
</svg>
