<svg width="16" height="16" viewBox="0 0 16 16" fill="none" xmlns="http://www.w3.org/2000/svg">
<path d="M12.8 13C13.1183 13 13.4235 12.8761 13.6486 12.6554C13.8735 12.4349 14 12.1356 14 11.8236V5.94118C14 5.62916 13.8735 5.32992 13.6486 5.10929C13.4235 4.88866 13.1183 4.76471 12.8 4.76471H8.06C7.8593 4.76664 7.66133 4.71919 7.48418 4.6267C7.30703 4.53421 7.15637 4.39964 7.046 4.2353L6.56 3.52941C6.45073 3.36675 6.30199 3.23322 6.1271 3.14082C5.95221 3.04842 5.75666 3.00004 5.558 3H3.2C2.88174 3 2.57651 3.12395 2.35148 3.34458C2.12643 3.56521 2 3.86445 2 4.17647V11.8236C2 12.1356 2.12643 12.4349 2.35148 12.6554C2.57651 12.8761 2.88174 13 3.2 13H12.8Z" stroke="black" stroke-width="1.5" stroke-linecap="round" stroke-linejoin="round"/>
</svg>
