<svg width="16" height="16" viewBox="0 0 16 16" fill="none" xmlns="http://www.w3.org/2000/svg">
<path d="M9 8.5L4.94864 12.6222C4.71647 12.8544 4.40157 12.9848 4.07323 12.9848C3.74488 12.9848 3.42999 12.8544 3.19781 12.6222C2.96564 12.39 2.83521 12.0751 2.83521 11.7468C2.83521 11.4185 2.96564 11.1036 3.19781 10.8714L7.5 6.5" stroke="black" stroke-width="1.2" stroke-linecap="round" stroke-linejoin="round"/>
<path d="M10.8352 9.98474L13.8352 6.98474" stroke="black" stroke-width="1.2" stroke-linecap="round" stroke-linejoin="round"/>
<path d="M12.8352 7.42495L11.7634 6.4298C11.5533 6.23484 11.4353 5.97039 11.4352 5.69462V5.08526L10.1696 3.91022C9.54495 3.33059 8.69961 3.00261 7.81649 2.99722L5.83521 2.98474L6.35041 3.41108C6.71634 3.71233 7.00935 4.08216 7.21013 4.4962C7.4109 4.91024 7.51488 5.35909 7.51521 5.81316L7.5 6.5L9 8.5L9.5 8C9.5 8 9.87337 7.79457 10.0834 7.98959L11.1552 8.98474" stroke="black" stroke-width="1.2" stroke-linecap="round" stroke-linejoin="round"/>
</svg>
