<svg width="16" height="16" viewBox="0 0 16 16" fill="none" xmlns="http://www.w3.org/2000/svg">
<path d="M7.99993 13.4804C11.0267 13.4804 13.4803 11.0267 13.4803 7.99999C13.4803 4.97325 11.0267 2.51959 7.99993 2.51959C4.97319 2.51959 2.51953 4.97325 2.51953 7.99999C2.51953 11.0267 4.97319 13.4804 7.99993 13.4804Z" stroke="black" stroke-width="1.2" stroke-linecap="round" stroke-linejoin="round"/>
<path d="M8 3C6.71611 4.34807 6 6.13836 6 7.99999C6 9.86163 6.71611 11.6519 8 13C9.28387 11.6519 10 9.86163 10 7.99999C10 6.13836 9.28387 4.34807 8 3Z" stroke="black" stroke-width="1.2" stroke-linecap="round" stroke-linejoin="round"/>
<path d="M3.24121 7.04827C4.52425 8.27022 6.22817 8.95178 7.99999 8.95178C9.77182 8.95178 11.4757 8.27022 12.7588 7.04827" stroke="black" stroke-width="1.2" stroke-linecap="round" stroke-linejoin="round"/>
</svg>
