<svg width="16" height="16" viewBox="0 0 16 16" fill="none" xmlns="http://www.w3.org/2000/svg">
<path d="M13.1214 11.1581L8.90931 3.78694C8.81747 3.62488 8.68429 3.49009 8.52334 3.39631C8.3624 3.30252 8.17946 3.25311 7.99319 3.25311C7.80691 3.25311 7.62397 3.30252 7.46303 3.39631C7.30209 3.49009 7.1689 3.62488 7.07706 3.78694L2.86498 11.1581C2.77215 11.3189 2.72347 11.5013 2.72388 11.687C2.72429 11.8726 2.77378 12.0549 2.86732 12.2152C2.96086 12.3756 3.09514 12.5084 3.25654 12.6001C3.41794 12.6918 3.60073 12.7393 3.78637 12.7376H12.2105C12.3953 12.7374 12.5767 12.6886 12.7367 12.5961C12.8966 12.5036 13.0294 12.3707 13.1217 12.2106C13.214 12.0506 13.2625 11.8691 13.2625 11.6843C13.2624 11.4996 13.2138 11.3181 13.1214 11.1581Z" stroke="black" stroke-width="1.5" stroke-linecap="round" stroke-linejoin="round"/>
<path d="M7.99854 6.41949V8.52553" stroke="black" stroke-width="1.5" stroke-linecap="round" stroke-linejoin="round"/>
<path d="M7.99854 10.6316H8.00418" stroke="black" stroke-width="1.5" stroke-linecap="round" stroke-linejoin="round"/>
</svg>
