<svg width="16" height="16" viewBox="0 0 16 16" fill="none" xmlns="http://www.w3.org/2000/svg">
<path d="M13.7244 11.5299L9.01711 3.2922C8.91447 3.11109 8.76562 2.96045 8.58576 2.85564C8.4059 2.75084 8.20145 2.69562 7.99328 2.69562C7.7851 2.69562 7.58066 2.75084 7.40079 2.85564C7.22093 2.96045 7.07209 3.11109 6.96945 3.2922L2.26218 11.5299C2.15844 11.7096 2.10404 11.9135 2.1045 12.121C2.10495 12.3285 2.16026 12.5321 2.2648 12.7113C2.36934 12.8905 2.5194 13.0389 2.69978 13.1415C2.88015 13.244 3.08443 13.297 3.2919 13.2951H12.7064C12.9129 13.2949 13.1157 13.2404 13.2944 13.137C13.4731 13.0336 13.6215 12.8851 13.7247 12.7062C13.8278 12.5273 13.8821 12.3245 13.882 12.118C13.882 11.9115 13.8276 11.7087 13.7244 11.5299Z" stroke="black" stroke-width="1.2" stroke-linecap="round" stroke-linejoin="round"/>
<path d="M7.99927 6.23425V8.58788" stroke="black" stroke-width="1.2" stroke-linecap="round" stroke-linejoin="round"/>
<path d="M7.99927 10.9415H8.00492" stroke="black" stroke-width="1.2" stroke-linecap="round" stroke-linejoin="round"/>
</svg>
