<svg width="16" height="16" viewBox="0 0 16 16" fill="none" xmlns="http://www.w3.org/2000/svg">
<path d="M12.4 12.5C12.6917 12.5 12.9715 12.3884 13.1778 12.1899C13.3841 11.9913 13.5 11.722 13.5 11.4412V6.14706C13.5 5.86624 13.3841 5.59693 13.1778 5.39836C12.9715 5.19979 12.6917 5.08824 12.4 5.08824H8.055C7.87103 5.08997 7.68955 5.04726 7.52717 4.96402C7.36478 4.88078 7.22668 4.75967 7.1255 4.61176L6.68 3.97647C6.57984 3.83007 6.44349 3.7099 6.28317 3.62674C6.12286 3.54358 5.94361 3.50003 5.7615 3.5H3.6C3.30826 3.5 3.02847 3.61155 2.82218 3.81012C2.61589 4.00869 2.5 4.27801 2.5 4.55882V11.4412C2.5 11.722 2.61589 11.9913 2.82218 12.1899C3.02847 12.3884 3.30826 12.5 3.6 12.5H12.4Z" stroke="black" stroke-width="1.5" stroke-linecap="round" stroke-linejoin="round"/>
</svg>
