<svg width="16" height="16" viewBox="0 0 16 16" fill="none" xmlns="http://www.w3.org/2000/svg">
<g clip-path="url(#clip0_2663_433)">
<mask id="mask0_2663_433" style="mask-type:luminance" maskUnits="userSpaceOnUse" x="0" y="0" width="16" height="16">
<path d="M16 0H0V16H16V0Z" fill="white"/>
</mask>
<g mask="url(#mask0_2663_433)">
<path d="M8 13C10.7614 13 13 10.7614 13 7.99999C13 5.23857 10.7614 3 8 3C5.23857 3 3 5.23857 3 7.99999C3 10.7614 5.23857 13 8 13Z" stroke="black" stroke-width="1.5" stroke-linecap="round" stroke-linejoin="round"/>
<path d="M8 3C6.71611 4.34807 6 6.13836 6 7.99999C6 9.86163 6.71611 11.6519 8 13C9.28387 11.6519 10 9.86163 10 7.99999C10 6.13836 9.28387 4.34807 8 3Z" stroke="black" stroke-width="1.5" stroke-linecap="round" stroke-linejoin="round"/>
<path d="M3 8H13" stroke="black" stroke-width="1.5" stroke-linecap="round" stroke-linejoin="round"/>
</g>
</g>
<defs>
<clipPath id="clip0_2663_433">
<rect width="16" height="16" fill="white"/>
</clipPath>
</defs>
</svg>
