<svg width="16" height="16" viewBox="0 0 16 16" fill="none" xmlns="http://www.w3.org/2000/svg">
<path d="M9.9526 10.2625C10.0833 9.62316 9.9526 9.60566 10.9315 8.47946C11.5008 7.82461 11.9105 7.07306 11.9105 6.242C11.9105 5.22472 11.4979 4.2491 10.7637 3.52978C10.0294 2.81046 9.03338 2.40634 7.99491 2.40634C6.95644 2.40634 5.96051 2.81046 5.22619 3.52978C4.49189 4.2491 4.07935 5.22472 4.07935 6.242C4.07935 6.88128 4.20987 7.64842 5.05825 8.47946C6.03714 9.62442 5.90666 9.62316 6.03718 10.2625M9.9526 10.2625V12.3893C9.9526 13.0544 9.40223 13.5937 8.72319 13.5937H7.26665C6.58761 13.5937 6.03714 13.0544 6.03714 12.3893L6.03718 10.2625M9.9526 10.2625H7.99491H6.03718" stroke="black" stroke-width="1.2" stroke-linecap="round" stroke-linejoin="round"/>
</svg>
