<svg width="16" height="16" viewBox="0 0 16 16" fill="none" xmlns="http://www.w3.org/2000/svg">
<path fill-rule="evenodd" clip-rule="evenodd" d="M6.28561 2.25C5.83777 2.25 5.42262 2.44429 5.12712 2.76607C4.8336 3.08568 4.67847 3.50652 4.67847 3.93333C4.67847 4.00474 4.68281 4.07598 4.69142 4.14661L10.0356 6.63864V5.58279C10.3579 5.51401 10.6495 5.3435 10.8728 5.10053C11.1662 4.78092 11.3213 4.36012 11.3213 3.93333C11.3213 3.50655 11.1661 3.08559 10.8726 2.76598C10.5771 2.44432 10.1621 2.25 9.71419 2.25H6.28561Z" fill="black"/>
<path fill-rule="evenodd" clip-rule="evenodd" d="M1.70131 4.68303C1.87636 4.30763 2.3226 4.14521 2.698 4.32027L13.9361 9.5607C14.3115 9.73575 14.474 10.182 14.2989 10.5574C14.1239 10.9328 13.6776 11.0952 13.3022 10.9202L11.6006 10.1267C11.5536 10.2137 11.4958 10.2957 11.4272 10.3704C11.2121 10.6045 10.9057 10.75 10.5715 10.75H8.75007V13C8.75007 13.4142 8.41428 13.75 8.00007 13.75C7.58585 13.75 7.25007 13.4142 7.25007 13V10.75H5.42864C5.09445 10.75 4.78832 10.6049 4.57321 10.3706C4.36002 10.1385 4.25007 9.83637 4.25007 9.53334V9.17868C4.25021 8.87805 4.32715 8.57932 4.47703 8.31614C4.6266 8.05351 4.84546 7.83234 5.11609 7.68521L5.68873 7.36993L2.06407 5.67973C1.68867 5.50467 1.52625 5.05844 1.70131 4.68303Z" fill="black"/>
</svg>
