<svg width="16" height="16" viewBox="0 0 16 16" fill="none" xmlns="http://www.w3.org/2000/svg">
<path d="M6.79118 8.27005C8.27568 8.27005 9.4791 7.06663 9.4791 5.58214C9.4791 4.09765 8.27568 2.89423 6.79118 2.89423C5.30669 2.89423 4.10327 4.09765 4.10327 5.58214C4.10327 7.06663 5.30669 8.27005 6.79118 8.27005Z" stroke="black" stroke-width="1.2" stroke-linecap="round" stroke-linejoin="round"/>
<path d="M6.79112 8.60443C4.19441 8.60443 2.08936 10.7095 2.08936 13.3062H11.4929C11.4929 10.7095 9.38784 8.60443 6.79112 8.60443Z" fill="black" fill-opacity="0.15" stroke="black" stroke-width="1.2" stroke-linecap="round" stroke-linejoin="round"/>
<path d="M14.6984 12.9263C14.6984 10.8893 13.4895 8.99736 12.2806 8.09067C12.6779 7.79254 12.9957 7.40104 13.2057 6.95083C13.4157 6.50062 13.5115 6.00558 13.4846 5.50952C13.4577 5.01346 13.309 4.53168 13.0515 4.10681C12.7941 3.68194 12.4358 3.3271 12.0085 3.07367" stroke="black" stroke-width="1.2" stroke-linecap="round" stroke-linejoin="round"/>
</svg>
