<svg width="16" height="16" viewBox="0 0 16 16" fill="none" xmlns="http://www.w3.org/2000/svg">
<path d="M7.00906 8.99999H4.79094C2.69772 8.99999 1 11.1475 1 13.2409C1 13.6609 1.3395 14 1.75819 14H10.0422C10.4609 14 10.8 13.6609 10.8 13.2409C10.8 11.1475 9.1025 8.99999 7.00906 8.99999Z" fill="white"/>
<path d="M9 5C9 6.54634 7.44657 7.99998 5.90001 7.99998C4.35344 7.99998 3 6.54634 3 5C3 3.45366 4.45344 2 6 2C7.54656 2 9 3.45366 9 5Z" fill="white"/>
<path d="M13.025 6H14.475C14.7659 6 15 6.20906 15 6.5C15 6.79094 14.7659 7 14.475 7H13V8.49995C13 8.7898 12.7638 9.02495 12.475 9.02495C12.1863 9.02495 11.95 8.79089 11.95 8.49995V7H10.525C10.2352 7 10 6.78875 10 6.5C10 6.21125 10.2362 6 10.525 6H11.975V4.525C11.975 4.23516 12.2091 4 12.5 4C12.7909 4 13.025 4.23625 13.025 4.525V6Z" fill="white"/>
</svg>
