<svg width="8" height="8" viewBox="0 0 8 8" fill="none" xmlns="http://www.w3.org/2000/svg">
<g clip-path="url(#clip0_430_1373)">
<path d="M2.8 3.99999C3.68375 3.99999 4.4 3.28361 4.4 2.39999C4.4 1.51636 3.68375 0.799988 2.8 0.799988C1.91625 0.799988 1.2 1.51636 1.2 2.39999C1.2 3.28361 1.91625 3.99999 2.8 3.99999ZM3.43375 4.59999H2.16625C0.970125 4.59999 0 5.56999 0 6.76624C0 7.00624 0.194 7.19999 0.43325 7.19999H5.167C5.40625 7.19999 5.6 7.00624 5.6 6.76624C5.6 5.56999 4.63 4.59999 3.43375 4.59999ZM7.7 3.29999H7.1V2.69999C7.1 2.53499 6.96625 2.39999 6.8 2.39999C6.63375 2.39999 6.5 2.53436 6.5 2.69999V3.29999H5.9C5.735 3.29999 5.6 3.43499 5.6 3.59999C5.6 3.76499 5.73438 3.89999 5.9 3.89999H6.5V4.49999C6.5 4.66624 6.635 4.79999 6.8 4.79999C6.965 4.79999 7.1 4.66561 7.1 4.49999V3.89999H7.7C7.86625 3.89999 8 3.76624 8 3.59999C8 3.43374 7.86625 3.29999 7.7 3.29999Z" fill="white"/>
</g>
<defs>
<clipPath id="clip0_430_1373">
<rect width="8" height="8" fill="white"/>
</clipPath>
</defs>
</svg>
