<svg width="8" height="8" viewBox="0 0 8 8" fill="none" xmlns="http://www.w3.org/2000/svg">
<g clip-path="url(#clip0_430_1382)">
<path d="M4 0C1.79063 0 0 1.79063 0 4C0 6.20937 1.79063 8 4 8C6.20937 8 8 6.20937 8 4C8 1.79063 6.20937 0 4 0ZM4 2C4.62141 2 5.125 2.50375 5.125 3.125C5.125 3.74625 4.62187 4.25 4 4.25C3.37875 4.25 2.875 3.74625 2.875 3.125C2.875 2.50375 3.37813 2 4 2ZM4 7C3.17297 7 2.42344 6.66359 1.87969 6.12047C2.13281 5.46719 2.75781 5 3.5 5H4.5C5.24281 5 5.86781 5.46687 6.12031 6.12047C5.57656 6.66406 4.82656 7 4 7Z" fill="white"/>
</g>
<defs>
<clipPath id="clip0_430_1382">
<rect width="8" height="8" fill="white"/>
</clipPath>
</defs>
</svg>
