<svg width="16" height="16" viewBox="0 0 16 16" fill="none" xmlns="http://www.w3.org/2000/svg">
<path d="M12.0295 14.8008V10.0281" stroke="#DCE0E5" stroke-width="1.2" stroke-linecap="round" stroke-linejoin="round"/>
<path d="M14.4177 11.8366L12.0297 9.44867L9.64166 11.8366" stroke="#DCE0E5" stroke-width="1.2" stroke-linecap="round" stroke-linejoin="round"/>
<path d="M1.66669 12.3688C1.66667 11.445 1.93321 10.5408 2.43433 9.76481C2.93545 8.98877 3.64985 8.37383 4.49181 7.99376C5.33376 7.61369 6.26751 7.48465 7.18099 7.62211C8.09447 7.75958 8.94888 8.15772 9.64169 8.76875" stroke="#DCE0E5" stroke-width="1.2" stroke-linecap="round" stroke-linejoin="round"/>
<path d="M7.61473 7.34036C7.25075 7.49113 6.86064 7.56873 6.46668 7.56873C5.67103 7.56873 4.90796 7.25266 4.34535 6.69005C3.78275 6.12744 3.46667 5.36438 3.46667 4.56873C3.46667 3.77308 3.78275 3.01001 4.34535 2.44741C4.90796 1.8848 5.67103 1.56873 6.46668 1.56873C6.86064 1.56873 7.25075 1.64632 7.61473 1.79709C7.9787 1.94785 8.30942 2.16883 8.58799 2.44741C8.86657 2.72598 9.08755 3.0567 9.23831 3.42068C9.38908 3.78465 9.46667 4.17476 9.46667 4.56873C9.46667 4.96269 9.38908 5.3528 9.23831 5.71678C9.08755 6.08075 8.86657 6.41147 8.58799 6.69005C8.30942 6.96862 7.9787 7.1896 7.61473 7.34036Z" stroke="#DCE0E5" stroke-width="1.2" stroke-linecap="round" stroke-linejoin="round"/>
</svg>
