<svg width="12" height="12" viewBox="0 0 12 12" fill="none" xmlns="http://www.w3.org/2000/svg">
<g clip-path="url(#clip0_430_1299)">
<path d="M6 0C2.68594 0 0 2.68594 0 6C0 9.31406 2.68594 12 6 12C9.31406 12 12 9.31406 12 6C12 2.68594 9.31406 0 6 0ZM6 3C6.93211 3 7.6875 3.75563 7.6875 4.6875C7.6875 5.61937 6.93281 6.375 6 6.375C5.06813 6.375 4.3125 5.61937 4.3125 4.6875C4.3125 3.75563 5.06719 3 6 3ZM6 10.5C4.75945 10.5 3.63516 9.99539 2.81953 9.1807C3.19922 8.20078 4.13672 7.5 5.25 7.5H6.75C7.86422 7.5 8.80172 8.20031 9.18047 9.1807C8.36484 9.99609 7.23984 10.5 6 10.5Z" fill="white"/>
</g>
<defs>
<clipPath id="clip0_430_1299">
<rect width="12" height="12" fill="white"/>
</clipPath>
</defs>
</svg>
