<svg width="16" height="16" viewBox="0 0 16 16" fill="none" xmlns="http://www.w3.org/2000/svg">
<path d="M5.9 8.00002C7.44656 8.00002 8.7 6.74637 8.7 5.20002C8.7 3.65368 7.44656 2.40002 5.9 2.40002C4.35344 2.40002 3.1 3.65368 3.1 5.20002C3.1 6.74637 4.35344 8.00002 5.9 8.00002ZM7.00906 9.05002H4.79094C2.69684 9.05002 1 10.7475 1 12.841C1 13.261 1.3395 13.6 1.75819 13.6H10.0409C10.4609 13.6 10.8 13.261 10.8 12.841C10.8 10.7475 9.1025 9.05002 7.00906 9.05002ZM11.4803 9.40002H9.86484C10.87 10.2247 11.5 11.4585 11.5 12.841C11.5 13.121 11.4169 13.3791 11.2812 13.6H14.3C14.6872 13.6 15 13.285 15 12.8803C15 10.9663 13.4338 9.40002 11.4803 9.40002ZM10.45 8.00002C11.8041 8.00002 12.9 6.90409 12.9 5.55002C12.9 4.19596 11.8041 3.10002 10.45 3.10002C9.90072 3.10002 9.39913 3.28716 8.9905 3.59243C9.2425 4.07631 9.4 4.61815 9.4 5.20002C9.4 5.97702 9.13903 6.69059 8.70897 7.27181C9.15281 7.72002 9.7675 8.00002 10.45 8.00002Z" fill="white"/>
</svg>
