<svg width="12" height="12" viewBox="0 0 12 12" fill="none" xmlns="http://www.w3.org/2000/svg">
<path d="M4.2 6.00001C5.52563 6.00001 6.6 4.92545 6.6 3.60001C6.6 2.27457 5.52563 1.20001 4.2 1.20001C2.87438 1.20001 1.8 2.27457 1.8 3.60001C1.8 4.92545 2.87438 6.00001 4.2 6.00001ZM5.15063 6.90001H3.24938C1.45444 6.90001 0 8.35501 0 10.1494C0 10.5094 0.291 10.8 0.649875 10.8H7.74938C8.10938 10.8 8.4 10.5094 8.4 10.1494C8.4 8.35501 6.945 6.90001 5.15063 6.90001ZM8.98313 7.20001H7.59844C8.46 7.90689 9 8.96439 9 10.1494C9 10.3894 8.92875 10.6106 8.8125 10.8H11.4C11.7319 10.8 12 10.53 12 10.1831C12 8.54251 10.6575 7.20001 8.98313 7.20001ZM8.1 6.00001C9.26063 6.00001 10.2 5.06064 10.2 3.90001C10.2 2.73939 9.26063 1.80001 8.1 1.80001C7.62919 1.80001 7.19925 1.96042 6.849 2.22207C7.065 2.63682 7.2 3.10126 7.2 3.60001C7.2 4.26601 6.97631 4.87764 6.60769 5.37582C6.98813 5.76001 7.515 6.00001 8.1 6.00001Z" fill="white"/>
</svg>
