<svg width="12" height="12" viewBox="0 0 12 12" fill="none" xmlns="http://www.w3.org/2000/svg">
<path d="M4.2 6.00001C5.52563 6.00001 6.6 4.92545 6.6 3.60001C6.6 2.27457 5.52563 1.20001 4.2 1.20001C2.87438 1.20001 1.8 2.27457 1.8 3.60001C1.8 4.92545 2.87438 6.00001 4.2 6.00001ZM5.15063 6.90001H3.24938C1.45519 6.90001 0 8.35501 0 10.1494C0 10.5094 0.291 10.8 0.649875 10.8H7.7505C8.10938 10.8 8.4 10.5094 8.4 10.1494C8.4 8.35501 6.945 6.90001 5.15063 6.90001ZM11.55 4.95001H10.65V4.05001C10.65 3.80251 10.4494 3.60001 10.2 3.60001C9.95063 3.60001 9.75 3.80157 9.75 4.05001V4.95001H8.85C8.6025 4.95001 8.4 5.15251 8.4 5.40001C8.4 5.64751 8.60156 5.85001 8.85 5.85001H9.75V6.75001C9.75 6.99939 9.9525 7.20001 10.2 7.20001C10.4475 7.20001 10.65 6.99845 10.65 6.75001V5.85001H11.55C11.7994 5.85001 12 5.64939 12 5.40001C12 5.15064 11.7994 4.95001 11.55 4.95001Z" fill="white"/>
</svg>
