<svg width="12" height="12" viewBox="0 0 12 12" fill="none" xmlns="http://www.w3.org/2000/svg">
<path d="M5.75062 7.09998H3.24938C1.45519 7.09998 0 8.55498 0 10.3493C0 10.7093 0.291 11 0.649875 11H8.3505C8.70938 11 9 10.7093 9 10.3493C9 8.55498 7.545 7.09998 5.75062 7.09998Z" fill="white"/>
<path d="M7 3.5C7 4.82544 5.82562 6 4.5 6C3.17438 6 2 4.82544 2 3.5C2 2.17456 3.17438 1 4.5 1C5.82562 1 7 2.17456 7 3.5Z" fill="white"/>
<path d="M9.5 3.75V5.5M9.5 7.25V5.5M9.5 5.5H11.25M9.5 5.5H7.75" stroke="white" stroke-linecap="round" stroke-linejoin="round"/>
</svg>
