<svg width="16" height="16" viewBox="0 0 16 16" fill="none" xmlns="http://www.w3.org/2000/svg">
<path d="M5.9 8.00002C7.44656 8.00002 8.7 6.74637 8.7 5.20002C8.7 3.65368 7.44656 2.40002 5.9 2.40002C4.35344 2.40002 3.1 3.65368 3.1 5.20002C3.1 6.74637 4.35344 8.00002 5.9 8.00002ZM7.00906 9.05002H4.79094C2.69772 9.05002 1 10.7475 1 12.841C1 13.261 1.3395 13.6 1.75819 13.6H10.0422C10.4609 13.6 10.8 13.261 10.8 12.841C10.8 10.7475 9.1025 9.05002 7.00906 9.05002ZM14.475 6.77502H13.425V5.72502C13.425 5.43627 13.1909 5.20002 12.9 5.20002C12.6091 5.20002 12.375 5.43518 12.375 5.72502V6.77502H11.325C11.0363 6.77502 10.8 7.01127 10.8 7.30002C10.8 7.58877 11.0352 7.82502 11.325 7.82502H12.375V8.87502C12.375 9.16596 12.6112 9.40002 12.9 9.40002C13.1887 9.40002 13.425 9.16487 13.425 8.87502V7.82502H14.475C14.7659 7.82502 15 7.59096 15 7.30002C15 7.00909 14.7659 6.77502 14.475 6.77502Z" fill="white"/>
</svg>
