<svg width="8" height="8" viewBox="0 0 8 8" fill="none" xmlns="http://www.w3.org/2000/svg">
<g clip-path="url(#clip0_430_1375)">
<path d="M2.8 3.99999C3.68375 3.99999 4.4 3.28361 4.4 2.39999C4.4 1.51636 3.68375 0.799988 2.8 0.799988C1.91625 0.799988 1.2 1.51636 1.2 2.39999C1.2 3.28361 1.91625 3.99999 2.8 3.99999ZM3.43375 4.59999H2.16625C0.969625 4.59999 0 5.56999 0 6.76624C0 7.00624 0.194 7.19999 0.43325 7.19999H5.16625C5.40625 7.19999 5.6 7.00624 5.6 6.76624C5.6 5.56999 4.63 4.59999 3.43375 4.59999ZM5.98875 4.79999H5.06563C5.64 5.27124 6 5.97624 6 6.76624C6 6.92624 5.9525 7.07374 5.875 7.19999H7.6C7.82125 7.19999 8 7.01999 8 6.78874C8 5.69499 7.105 4.79999 5.98875 4.79999ZM5.4 3.99999C6.17375 3.99999 6.8 3.37374 6.8 2.59999C6.8 1.82624 6.17375 1.19999 5.4 1.19999C5.08613 1.19999 4.7995 1.30693 4.566 1.48136C4.71 1.75786 4.8 2.06749 4.8 2.39999C4.8 2.84399 4.65088 3.25174 4.40513 3.58386C4.65875 3.83999 5.01 3.99999 5.4 3.99999Z" fill="white"/>
</g>
<defs>
<clipPath id="clip0_430_1375">
<rect width="8" height="8" fill="white"/>
</clipPath>
</defs>
</svg>
