<svg width="12" height="12" viewBox="0 0 12 12" fill="none" xmlns="http://www.w3.org/2000/svg">
<path d="M4.75 1.875C4.75 2.71406 4.19922 3.42422 3.4375 3.66328V5.97891C3.9086 5.64609 4.4711 5.4375 5.125 5.4375H7.375C8.30782 5.4375 9.0625 4.68281 9.0625 3.75V3.66328C8.30078 3.42422 7.75 2.71406 7.75 1.875C7.75 0.839531 8.58907 0 9.625 0C10.6609 0 11.5 0.839531 11.5 1.875C11.5 2.71406 10.9492 3.42422 10.1875 3.66328V3.75C10.1875 5.30391 8.92891 6.5625 7.375 6.5625H5.125C4.19219 6.5625 3.4375 7.31719 3.4375 8.25V8.33672C4.19922 8.57578 4.75 9.28594 4.75 10.125C4.75 11.1609 3.91094 12 2.875 12C1.83953 12 1 11.1609 1 10.125C1 9.28594 1.55172 8.57578 2.3125 8.33672V3.66328C1.55172 3.42422 1 2.71406 1 1.875C1 0.839531 1.83953 0 2.875 0C3.91094 0 4.75 0.839531 4.75 1.875ZM2.875 2.625C3.28914 2.625 3.625 2.28914 3.625 1.875C3.625 1.46086 3.28914 1.125 2.875 1.125C2.46086 1.125 2.125 1.46086 2.125 1.875C2.125 2.28914 2.46086 2.625 2.875 2.625ZM9.625 1.125C9.21016 1.125 8.875 1.46086 8.875 1.875C8.875 2.28914 9.21016 2.625 9.625 2.625C10.0398 2.625 10.375 2.28914 10.375 1.875C10.375 1.46086 10.0398 1.125 9.625 1.125ZM2.875 10.875C3.28914 10.875 3.625 10.5398 3.625 10.125C3.625 9.71016 3.28914 9.375 2.875 9.375C2.46086 9.375 2.125 9.71016 2.125 10.125C2.125 10.5398 2.46086 10.875 2.875 10.875Z" fill="white"/>
</svg>
