<svg width="14" height="14" viewBox="0 0 14 14" fill="none" xmlns="http://www.w3.org/2000/svg">
<path d="M2.45563 12.3438H11.5444C11.9137 12.3438 12.1556 11.9571 11.994 11.625L10.2346 8.00952C9.77174 7.05841 8.89104 6.37821 7.85383 6.17077C7.29019 6.05804 6.70981 6.05804 6.14617 6.17077C5.10896 6.37821 4.22826 7.05841 3.76542 8.00952L2.00603 11.625C1.84442 11.9571 2.08628 12.3438 2.45563 12.3438Z" fill="#001A33" fill-opacity="0.157"/>
<path d="M9.5 6.5L11.994 11.625C12.1556 11.9571 11.9137 12.3438 11.5444 12.3438H2.45563C2.08628 12.3438 1.84442 11.9571 2.00603 11.625L4.5 6.5" stroke="#11181C" stroke-width="1.25" stroke-linecap="round" stroke-linejoin="round"/>
<path d="M7 7L7 2" stroke="#11181C" stroke-width="1.25" stroke-linecap="round" stroke-linejoin="round"/>
<circle cx="7" cy="9.24219" r="0.75" fill="#11181C"/>
</svg>
