<svg xmlns="http://www.w3.org/2000/svg" width="16" height="16" fill="none"><path fill="#000" fill-rule="evenodd" d="m5.425 10.842-.773-3.948-.782 3.948H2.487L1.147 4.58H2.6l.617 3.897.764-3.886h1.342l.754 3.88.616-3.89H8.15l-1.341 6.261H5.425ZM9.885 10.656c-.384-.218-.648-.577-.802-1.047-.152-.463-.222-1.104-.222-1.91 0-.798.066-1.431.21-1.885v-.002c.155-.47.419-.826.804-1.037.374-.212.88-.306 1.496-.306.447 0 .816.052 1.082.177.128.059.244.14.35.243V2.32h1.377v8.52h-1.376v-.337a1.545 1.545 0 0 1-.393.271c-.26.125-.601.178-1.007.178-.622 0-1.134-.09-1.514-.293l-.005-.003Zm2.817-1.679c.08-.288.124-.71.124-1.278 0-.56-.044-.975-.124-1.255-.078-.274-.199-.434-.342-.521l-.008-.005c-.146-.097-.385-.161-.748-.161-.395 0-.665.064-.835.167l-.005.003c-.158.09-.287.251-.37.522-.087.277-.135.69-.135 1.25 0 .568.048.984.134 1.262.084.27.214.439.376.536.17.102.44.167.835.167.364 0 .605-.061.752-.153.146-.094.268-.261.346-.534Z" clip-rule="evenodd"/><path stroke="#000" stroke-linecap="round" stroke-width="1.5" d="M2 13h12"/></svg>
