<svg width="16" height="16" viewBox="0 0 16 16" fill="none" xmlns="http://www.w3.org/2000/svg">
<path d="M15.6066 13.957C16.0751 14.4242 16.0751 15.1823 15.6066 15.6496C15.1381 16.1168 14.378 16.1168 13.9094 15.6496L8.00082 9.71303L2.0502 15.6476C1.5817 16.1148 0.821573 16.1148 0.353024 15.6476C-0.115524 15.1803 -0.115474 14.4223 0.353024 13.955L6.30564 8.02244L0.351374 2.04303C-0.117125 1.5758 -0.117125 0.817724 0.351374 0.350443C0.819872 -0.116839 1.58 -0.116789 2.04855 0.350443L8.00082 6.33185L13.9514 0.39732C14.4199 -0.0699117 15.1801 -0.0699117 15.6486 0.39732C16.1172 0.864552 16.1171 1.62263 15.6486 2.08991L9.69599 8.02244L15.6066 13.957Z" fill="black"/>
</svg>
