<svg xmlns="http://www.w3.org/2000/svg" width="16" height="16" fill="none"><path fill="#000" fill-opacity=".157" stroke="#000" stroke-linejoin="round" stroke-width="1.2" d="M9.864 3a.5.5 0 0 1 .353.146l2.636 2.636a.5.5 0 0 1 .147.354v3.728a.5.5 0 0 1-.146.353l-2.637 2.637a.5.5 0 0 1-.353.146H6.136a.5.5 0 0 1-.354-.146l-2.636-2.636A.5.5 0 0 1 3 9.864V6.136a.5.5 0 0 1 .146-.354l2.636-2.636A.5.5 0 0 1 6.136 3h3.728Z"/><path stroke="#000" stroke-linecap="round" stroke-width="1.2" d="m9.5 6.5-3 3m3 0-3-3"/></svg>
