<svg width="16" height="16" viewBox="0 0 16 16" fill="none" xmlns="http://www.w3.org/2000/svg">
<path d="M8 2C11.3137 2 14 4.68629 14 8C14 11.3137 11.3137 14 8 14C4.68629 14 2 11.3137 2 8C2 4.68629 4.68629 2 8 2ZM10.4238 5.57617C10.1895 5.34187 9.81049 5.3419 9.57617 5.57617L8 7.15234L6.42383 5.57617C6.18953 5.34187 5.81049 5.3419 5.57617 5.57617C5.34186 5.81049 5.34186 6.18951 5.57617 6.42383L7.15234 8L5.57617 9.57617C5.34186 9.81049 5.34186 10.1895 5.57617 10.4238C5.81049 10.6581 6.18954 10.6581 6.42383 10.4238L8 8.84766L9.57617 10.4238C9.81049 10.6581 10.1895 10.6581 10.4238 10.4238C10.6581 10.1895 10.658 9.81048 10.4238 9.57617L8.84766 8L10.4238 6.42383C10.6581 6.18954 10.658 5.81048 10.4238 5.57617Z" fill="black"/>
</svg>
