<svg width="14" height="14" viewBox="0 0 14 14" fill="none" xmlns="http://www.w3.org/2000/svg">
<path d="M8.86396 2C8.99657 2 9.12375 2.05268 9.21751 2.14645L11.8536 4.78249C11.9473 4.87625 12 5.00343 12 5.13604L12 8.86396C12 8.99657 11.9473 9.12375 11.8536 9.21751L9.21751 11.8536C9.12375 11.9473 8.99657 12 8.86396 12L5.13604 12C5.00343 12 4.87625 11.9473 4.78249 11.8536L2.14645 9.21751C2.05268 9.12375 2 8.99657 2 8.86396L2 5.13604C2 5.00343 2.05268 4.87625 2.14645 4.78249L4.78249 2.14645C4.87625 2.05268 5.00343 2 5.13604 2L8.86396 2Z" fill="#001A33" fill-opacity="0.157" stroke="#11181C" stroke-width="1.25" stroke-linejoin="round"/>
<path d="M8.89063 5.10938L5.10937 8.89063M8.89063 8.89063L5.10937 5.10938" stroke="#11181C" stroke-width="1.25" stroke-linecap="round"/>
</svg>
