<svg width="16" height="16" viewBox="0 0 16 16" fill="none" xmlns="http://www.w3.org/2000/svg">
<path d="M8 2C11.3137 2 14 4.68629 14 8C14 11.3137 11.3137 14 8 14C4.68629 14 2 11.3137 2 8C2 4.68629 4.68629 2 8 2ZM10.5303 5.46973C10.2374 5.17684 9.76262 5.17687 9.46973 5.46973L8 6.93945L6.53027 5.46973C6.23739 5.17685 5.76263 5.17688 5.46973 5.46973C5.17683 5.76262 5.17683 6.23738 5.46973 6.53027L6.93945 8L5.46973 9.46973C5.17683 9.76262 5.17683 10.2374 5.46973 10.5303C5.76263 10.8231 6.23741 10.8231 6.53027 10.5303L8 9.06055L9.46973 10.5303C9.76263 10.8231 10.2374 10.8231 10.5303 10.5303C10.8231 10.2374 10.8231 9.76261 10.5303 9.46973L9.06055 8L10.5303 6.53027C10.8231 6.23741 10.823 5.76262 10.5303 5.46973Z" fill="black"/>
</svg>
