<svg width="8" height="8" viewBox="0 0 8 8" fill="none" xmlns="http://www.w3.org/2000/svg">
<path d="M7.76433 6.63513C8.0768 6.9476 8.0768 7.4538 7.76433 7.76627C7.60935 7.92251 7.40437 8 7.19939 8C6.99441 8 6.78992 7.92188 6.63394 7.76565L3.99969 5.13264L1.36568 7.7649C1.20945 7.92238 1.00472 7.99988 0.799986 7.99988C0.595255 7.99988 0.390774 7.92238 0.234414 7.7649C-0.0780566 7.45243 -0.0780566 6.94622 0.234414 6.63375L2.86917 3.999L0.234414 1.3655C-0.0780566 1.05303 -0.0780566 0.546824 0.234414 0.234353C0.546885 -0.0781177 1.05309 -0.0781177 1.36556 0.234353L3.99969 2.87023L6.63444 0.235478C6.94691 -0.0769928 7.45311 -0.0769928 7.76558 0.235478C8.07805 0.547949 8.07805 1.05415 7.76558 1.36662L5.13083 4.00138L7.76433 6.63488V6.63513Z" fill="white"/>
</svg>
