<svg width="16" height="16" viewBox="0 0 16 16" fill="none" xmlns="http://www.w3.org/2000/svg">
<path opacity="0.6" fill-rule="evenodd" clip-rule="evenodd" d="M6.75 9.31247L8.25 10.5576V11.75H1.75V10.0803L4.49751 7.44273L5.65909 8.40693L3.73923 10.25H6.75V9.31247ZM8.25 5.85739V4.25H6.31358L8.25 5.85739ZM1.75 5.16209V7.1H3.25V6.4072L1.75 5.16209Z" fill="black"/>
<path opacity="0.6" fill-rule="evenodd" clip-rule="evenodd" d="M10.9624 9.40853L11.9014 8L10.6241 6.08397L9.37598 6.91603L10.0986 8L9.80184 8.44518L10.9624 9.40853Z" fill="black"/>
<path opacity="0.6" fill-rule="evenodd" clip-rule="evenodd" d="M12.8936 11.0116L14.9014 8L12.6241 4.58397L11.376 5.41603L13.0986 8L11.7331 10.0483L12.8936 11.0116Z" fill="black"/>
<path fill-rule="evenodd" clip-rule="evenodd" d="M14.1225 13.809C14.0341 13.9146 13.877 13.9289 13.7711 13.8409L1.19311 3.40021C1.08659 3.31178 1.07221 3.15362 1.16104 3.04743L1.87752 2.19101C1.96588 2.0854 2.123 2.07112 2.22895 2.15906L14.8069 12.5998C14.9134 12.6882 14.9278 12.8464 14.839 12.9526L14.1225 13.809Z" fill="black"/>
</svg>
