<svg width="22" height="22" viewBox="0 0 22 22" fill="none" xmlns="http://www.w3.org/2000/svg">
<path fill-rule="evenodd" clip-rule="evenodd" d="M5 11C5 14.3137 7.68629 17 11 17C14.3137 17 17 14.3137 17 11C17 7.68629 14.3137 5 11 5C7.68629 5 5 7.68629 5 11ZM11 3C6.58172 3 3 6.58172 3 11C3 15.4183 6.58172 19 11 19C15.4183 19 19 15.4183 19 11C19 6.58172 15.4183 3 11 3Z" fill="white"/>
<path fill-rule="evenodd" clip-rule="evenodd" d="M8.09092 8.09088H14.6364L10.5511 12.4545H12.4546L13.9091 13.9091H7.36365L11.7273 9.54543H9.54547L8.09092 8.09088Z" fill="white"/>
</svg>