<svg width="16" height="16" viewBox="0 0 16 16" fill="none" xmlns="http://www.w3.org/2000/svg">
<rect opacity="0.3" x="2" y="2" width="12" height="12" rx="2" stroke="black" stroke-width="1.2"/>
<path d="M9.62109 4.65039C9.80393 4.65039 9.98678 4.70637 10.1279 4.83203C10.2722 4.96055 10.3496 5.14167 10.3496 5.33691C10.3496 5.53215 10.2723 5.71329 10.1279 5.8418C9.98678 5.96744 9.80392 6.02344 9.62109 6.02344H7.1416V7.24902H9.46289C9.6423 7.24902 9.82303 7.30362 9.96387 7.42773C10.1085 7.55531 10.1875 7.73591 10.1875 7.93164C10.1874 8.12674 10.1072 8.30592 9.96484 8.43262C9.82536 8.55656 9.64499 8.61426 9.46289 8.61426H7.1416V9.97656H9.62109C9.80392 9.97656 9.98678 10.0326 10.1279 10.1582C10.2723 10.2867 10.3496 10.4678 10.3496 10.6631C10.3496 10.8583 10.2722 11.0394 10.1279 11.168C9.98678 11.2936 9.80393 11.3496 9.62109 11.3496H6.39648C6.20308 11.3496 6.00965 11.289 5.86328 11.1465C5.7159 11.0028 5.65039 10.8095 5.65039 10.6133V5.38672C5.65039 5.19054 5.7159 4.99723 5.86328 4.85352C6.00965 4.71101 6.20308 4.65039 6.39648 4.65039H9.62109ZM9.70215 10.9941C9.72618 10.9903 9.74882 10.9838 9.77051 10.9766C9.74884 10.9838 9.72616 10.9903 9.70215 10.9941ZM9.78809 10.9688C9.80381 10.9626 9.81877 10.9561 9.83301 10.9482C9.81877 10.9561 9.80381 10.9626 9.78809 10.9688ZM9.85059 10.9375C9.86364 10.9292 9.87617 10.9209 9.8877 10.9111C9.87616 10.9209 9.86365 10.9293 9.85059 10.9375ZM6.1123 10.8994C6.12346 10.9099 6.1358 10.9188 6.14844 10.9277C6.1358 10.9188 6.12346 10.9099 6.1123 10.8994ZM9.90039 10.8984C9.91122 10.8882 9.92149 10.8778 9.93066 10.8662C9.92147 10.8778 9.91123 10.8882 9.90039 10.8984ZM6.07129 10.8516C6.0792 10.8626 6.08754 10.8729 6.09668 10.8828C6.08754 10.8729 6.0792 10.8626 6.07129 10.8516ZM9.94434 10.8477C9.95104 10.8377 9.95638 10.8272 9.96191 10.8164C9.95637 10.8271 9.95106 10.8377 9.94434 10.8477ZM6.03418 10.7842C6.04066 10.7995 6.04735 10.8143 6.05566 10.8281C6.04735 10.8143 6.04066 10.7995 6.03418 10.7842ZM9.97559 10.7891C9.97984 10.7783 9.98321 10.7673 9.98633 10.7559C9.98321 10.7673 9.97984 10.7783 9.97559 10.7891ZM6.01367 10.7236C6.0173 10.7388 6.02121 10.7535 6.02637 10.7676C6.02121 10.7535 6.0173 10.7388 6.01367 10.7236ZM9.62109 10.3262C9.67716 10.3262 9.72942 10.3346 9.77539 10.3506C9.72927 10.3345 9.67733 10.3262 9.62109 10.3262ZM9.56641 8.25098C9.5802 8.24792 9.59348 8.24449 9.60645 8.24023C9.59348 8.2445 9.58021 8.24792 9.56641 8.25098ZM9.625 8.2334C9.64073 8.22735 9.65566 8.2207 9.66992 8.21289C9.65565 8.22072 9.64074 8.22733 9.625 8.2334ZM9.68848 8.20117C9.69832 8.19495 9.70781 8.18872 9.7168 8.18164C9.70781 8.18874 9.69832 8.19493 9.68848 8.20117ZM9.74121 8.16016C9.7511 8.15059 9.76008 8.14059 9.76855 8.12988C9.76009 8.1406 9.75109 8.15057 9.74121 8.16016ZM9.77734 8.11914C9.78753 8.10499 9.79605 8.09004 9.80371 8.07422C9.79606 8.09005 9.78751 8.10498 9.77734 8.11914ZM9.79883 5.6377C9.80686 5.6343 9.81463 5.63082 9.82227 5.62695C9.81463 5.63084 9.80687 5.63429 9.79883 5.6377ZM9.93457 5.53516C9.91124 5.56582 9.88273 5.59214 9.84863 5.61328C9.88277 5.5922 9.91121 5.56576 9.93457 5.53516ZM9.94434 5.52246C9.95363 5.50886 9.96171 5.4946 9.96875 5.47949C9.96172 5.4946 9.9536 5.50885 9.94434 5.52246ZM6.02637 5.23145C6.02118 5.24552 6.01733 5.26024 6.01367 5.27539C6.01734 5.26023 6.02118 5.24552 6.02637 5.23145ZM6.05566 5.17188C6.04766 5.18525 6.04049 5.19914 6.03418 5.21387C6.04049 5.19914 6.04765 5.18525 6.05566 5.17188ZM6.09961 5.11328C6.08938 5.124 6.08003 5.13538 6.07129 5.14746C6.08003 5.13538 6.08938 5.12399 6.09961 5.11328ZM6.14844 5.07129C6.13601 5.08003 6.12428 5.08938 6.11328 5.09961C6.12428 5.08938 6.13601 5.08003 6.14844 5.07129ZM6.23242 5.02637C6.21195 5.03382 6.19287 5.04334 6.1748 5.05371C6.19287 5.04335 6.21195 5.03382 6.23242 5.02637ZM6.1748 10.9453C6.19195 10.9552 6.21017 10.9635 6.22949 10.9707C6.21017 10.9635 6.19195 10.9552 6.1748 10.9453ZM6.30957 5.00684C6.28239 5.01136 6.25651 5.01759 6.23242 5.02637C6.25651 5.01759 6.28239 5.01136 6.30957 5.00684Z" fill="black"/>
</svg>
