<svg width="16" height="16" viewBox="0 0 16 16" fill="none" xmlns="http://www.w3.org/2000/svg">
<path d="M8 2L6.72534 5.87534C6.6601 6.07367 6.5492 6.25392 6.40155 6.40155C6.25392 6.5492 6.07367 6.6601 5.87534 6.72534L2 8L5.87534 9.27466C6.07367 9.3399 6.25392 9.4508 6.40155 9.59845C6.5492 9.74608 6.6601 9.92633 6.72534 10.1247L8 14L9.27466 10.1247C9.3399 9.92633 9.4508 9.74608 9.59845 9.59845C9.74608 9.4508 9.92633 9.3399 10.1247 9.27466L14 8L10.1247 6.72534C9.92633 6.6601 9.74608 6.5492 9.59845 6.40155C9.4508 6.25392 9.3399 6.07367 9.27466 5.87534L8 2Z" fill="black" fill-opacity="0.15" stroke="black" stroke-width="1.5" stroke-linecap="round" stroke-linejoin="round"/>
<path d="M3.33334 2V4.66666M2 3.33334H4.66666" stroke="black" stroke-opacity="0.75" stroke-width="1.25" stroke-linecap="round" stroke-linejoin="round"/>
<path d="M12.6665 11.3333V14M11.3333 12.6666H13.9999" stroke="black" stroke-opacity="0.75" stroke-width="1.25" stroke-linecap="round" stroke-linejoin="round"/>
</svg>
