<svg width="16" height="16" viewBox="0 0 16 16" fill="none" xmlns="http://www.w3.org/2000/svg">
<rect opacity="0.3" x="2" y="2" width="12" height="12" rx="2" stroke="black" stroke-width="1.2"/>
<path d="M8.17871 4.15039C9.57718 4.15047 10.7699 4.84416 11.25 6.00879L11.292 6.125C11.3291 6.2423 11.3496 6.36246 11.3496 6.47656C11.3496 6.67403 11.2827 6.86644 11.1357 7.00879C10.99 7.14999 10.797 7.21191 10.6035 7.21191C10.4311 7.21184 10.263 7.16459 10.1172 7.05469C9.97557 6.94786 9.88031 6.80045 9.81543 6.6416V6.64062C9.54483 5.99474 8.92921 5.62898 8.17871 5.62891C7.58712 5.62891 7.11895 5.85535 6.79297 6.24512C6.46181 6.64107 6.25488 7.2348 6.25488 7.99805C6.25495 8.76969 6.4603 9.36343 6.79004 9.75781C7.11426 10.1456 7.5828 10.3711 8.18359 10.3711C9.00554 10.371 9.57612 10.0476 9.83789 9.44922L9.83984 9.44531C9.90093 9.30959 9.98754 9.17654 10.1211 9.08008C10.2598 8.97992 10.4154 8.94341 10.5693 8.94336C10.9809 8.94336 11.3203 9.24379 11.3203 9.67383C11.3203 9.89213 11.2593 10.0749 11.1641 10.2578L11.1631 10.2568C10.6246 11.2962 9.56725 11.8495 8.17871 11.8496C7.12036 11.8496 6.22667 11.4786 5.60059 10.7891C4.97793 10.1031 4.65047 9.13626 4.65039 7.99805C4.65039 6.86743 4.98182 5.90203 5.60547 5.21582C6.23235 4.52617 7.12584 4.15039 8.17871 4.15039ZM7.67773 11.4678C7.68226 11.4684 7.68688 11.4682 7.69141 11.4688C7.68688 11.4682 7.68226 11.4684 7.67773 11.4678ZM7.35059 11.4082C7.37261 11.4133 7.39471 11.4182 7.41699 11.4229C7.39471 11.4182 7.37261 11.4133 7.35059 11.4082ZM7.07617 11.333C7.08849 11.337 7.10087 11.3408 7.11328 11.3447C7.10087 11.3408 7.08849 11.337 7.07617 11.333ZM6.80469 11.2295C6.81416 11.2336 6.82348 11.2381 6.83301 11.2422C6.82347 11.2381 6.81416 11.2336 6.80469 11.2295ZM6.32812 10.9648C6.33354 10.9686 6.33929 10.9719 6.34473 10.9756C6.33928 10.9719 6.33354 10.9686 6.32812 10.9648ZM6.10156 10.7891C6.11103 10.7972 6.12128 10.8045 6.13086 10.8125C6.12128 10.8045 6.11103 10.7972 6.10156 10.7891ZM10.5449 10.5586V10.5596V10.5586ZM5.90234 10.5986C5.909 10.6056 5.91613 10.6122 5.92285 10.6191C5.91612 10.6122 5.909 10.6056 5.90234 10.5986ZM5.71094 10.374C5.71943 10.3851 5.72769 10.3963 5.73633 10.4072C5.72769 10.3963 5.71944 10.3851 5.71094 10.374ZM5.55469 10.1504C5.55922 10.1576 5.56378 10.1647 5.56836 10.1719C5.56377 10.1647 5.55922 10.1576 5.55469 10.1504ZM10.9131 9.95898C10.9213 9.9374 10.9302 9.91676 10.9365 9.89551C10.9301 9.91674 10.9214 9.93742 10.9131 9.95898ZM10.21 9.49219C10.192 9.52099 10.1752 9.55324 10.1592 9.58887L10.1953 9.51758C10.2002 9.50891 10.2049 9.50031 10.21 9.49219ZM10.499 9.29688C10.4547 9.30262 10.4145 9.31428 10.3779 9.33203C10.4145 9.31437 10.4547 9.30259 10.499 9.29688ZM5.18652 9.33203C5.18988 9.34309 5.19284 9.35425 5.19629 9.36523C5.19284 9.35424 5.18988 9.34309 5.18652 9.33203ZM10.5693 9.29297C10.628 9.29297 10.6829 9.3029 10.7314 9.32129C10.6827 9.30276 10.6281 9.29297 10.5693 9.29297ZM5.10352 9.01172C5.1083 9.03397 5.11306 9.05613 5.11816 9.07812C5.11306 9.05612 5.1083 9.03397 5.10352 9.01172ZM5.01465 8.39062C5.02368 8.51203 5.03633 8.63062 5.05371 8.74609C5.03633 8.63061 5.02368 8.51204 5.01465 8.39062ZM5.01465 7.60742V7.6084V7.60742ZM10.6035 6.86133C10.6321 6.86133 10.6594 6.85865 10.6855 6.85449C10.6596 6.85862 10.632 6.86133 10.6035 6.86133ZM10.7002 6.85059C10.7213 6.84652 10.7415 6.84169 10.7607 6.83496C10.7415 6.8417 10.7213 6.84652 10.7002 6.85059ZM10.7773 6.82812C10.7929 6.82186 10.8081 6.81563 10.8223 6.80762C10.8081 6.81566 10.7929 6.82185 10.7773 6.82812ZM10.8516 6.78809C10.8602 6.782 10.868 6.77535 10.876 6.76855C10.8681 6.77537 10.8602 6.78198 10.8516 6.78809ZM10.8994 6.74707C10.9093 6.73683 10.9173 6.72535 10.9258 6.71387C10.9173 6.72537 10.9092 6.73681 10.8994 6.74707ZM10.9912 6.37305C10.9893 6.3598 10.9861 6.34659 10.9834 6.33301C10.9861 6.34658 10.9892 6.35981 10.9912 6.37305ZM10.9102 6.10645C10.8889 6.05715 10.867 6.00836 10.8428 5.96094C10.867 6.00837 10.8889 6.05714 10.9102 6.10645ZM10.7871 5.86328C10.7743 5.84084 10.7625 5.81787 10.749 5.7959C10.7625 5.81788 10.7743 5.84084 10.7871 5.86328ZM10.6973 5.7168C10.6775 5.68719 10.6578 5.65759 10.6367 5.62891C10.6578 5.65759 10.6775 5.68719 10.6973 5.7168ZM10.584 5.56152C10.563 5.53497 10.5425 5.5081 10.5205 5.48242C10.5425 5.50811 10.563 5.53497 10.584 5.56152ZM10.4492 5.4043C10.4285 5.3821 10.4083 5.35937 10.3867 5.33789C10.4083 5.35938 10.4285 5.38209 10.4492 5.4043ZM7.68457 5.32812H7.68555H7.68457ZM10.3096 5.26562C10.2895 5.24727 10.2697 5.2287 10.249 5.21094C10.2697 5.22871 10.2895 5.24726 10.3096 5.26562ZM10.1553 5.13477C10.1356 5.11933 10.1159 5.10379 10.0957 5.08887C10.1159 5.10379 10.1356 5.11933 10.1553 5.13477ZM10.0078 5.02734C9.9783 5.00732 9.94843 4.98772 9.91797 4.96875C9.94843 4.98773 9.9783 5.00731 10.0078 5.02734ZM9.83887 4.9209C9.81069 4.90462 9.78183 4.88942 9.75293 4.87402C9.78184 4.88943 9.81069 4.90461 9.83887 4.9209ZM9.65039 4.82129C9.62853 4.81074 9.60622 4.80108 9.58398 4.79102C9.60622 4.80108 9.62853 4.81073 9.65039 4.82129ZM9.45703 4.73633C9.43574 4.72785 9.41417 4.71996 9.39258 4.71191C9.41418 4.71996 9.43574 4.72784 9.45703 4.73633ZM9.27441 4.66895C9.23013 4.65444 9.18506 4.64161 9.13965 4.62891C9.18506 4.64161 9.23013 4.65444 9.27441 4.66895ZM9.08008 4.6123C9.03442 4.60046 8.98811 4.59009 8.94141 4.58008C8.98812 4.59009 9.03441 4.60046 9.08008 4.6123ZM8.85547 4.5625C8.83187 4.55807 8.80802 4.55474 8.78418 4.55078C8.80802 4.55474 8.83187 4.55807 8.85547 4.5625ZM10.9404 6.69336C10.9509 6.67671 10.96 6.65941 10.9678 6.64062C10.9601 6.65941 10.9509 6.67671 10.9404 6.69336ZM9.82812 5.99707C9.80503 5.96962 9.78129 5.94293 9.75684 5.91699C9.78129 5.94293 9.80502 5.96962 9.82812 5.99707Z" fill="black"/>
</svg>
