<svg width="16" height="16" viewBox="0 0 16 16" fill="none" xmlns="http://www.w3.org/2000/svg">
<path d="M5.70519 9.31137C6.13992 9.31137 6.55683 9.13868 6.86423 8.83128C7.17163 8.52389 7.34432 8.10696 7.34432 7.67224C7.34432 6.76744 7.01649 6.36094 6.68868 5.70528C5.98581 4.30022 6.54181 3.04726 7.99998 1.77136C8.32781 3.41049 9.31128 4.98406 10.6226 6.03311C11.9339 7.08215 12.5896 8.3279 12.5896 9.6392C12.5896 10.2419 12.4708 10.8387 12.2402 11.3956C12.0096 11.9524 11.6715 12.4583 11.2453 12.8845C10.8191 13.3107 10.3132 13.6487 9.75633 13.8794C9.1995 14.1101 8.60269 14.2287 7.99998 14.2287C7.39727 14.2287 6.80046 14.1101 6.24362 13.8794C5.68679 13.6487 5.18083 13.3107 4.75465 12.8845C4.32848 12.4583 3.99041 11.9524 3.75976 11.3956C3.52911 10.8387 3.4104 10.2419 3.4104 9.6392C3.4104 8.88324 3.6943 8.13513 4.06606 7.67224C4.06606 8.10696 4.23875 8.52389 4.54615 8.83128C4.85354 9.13868 5.27047 9.31137 5.70519 9.31137Z" stroke="black" stroke-width="1.2" stroke-linecap="round" stroke-linejoin="round"/>
</svg>
