<svg width="16" height="16" viewBox="0 0 16 16" fill="none" xmlns="http://www.w3.org/2000/svg">
<path d="M10.8657 7.86353L14.1221 7.70847C14.3389 7.69814 14.4404 7.43544 14.287 7.28197L8.91688 1.91188C8.4105 1.4055 7.5895 1.4055 7.08312 1.91188L3.52827 5.46672M10.8657 7.86353L8.22922 5.22707C8.10263 5.10048 7.89737 5.10048 7.77078 5.22707L6.86322 6.13463M10.8657 7.86353L5.13432 8.13646M5.13432 8.13646L7.77078 10.7729C7.89737 10.8995 8.10263 10.8995 8.22922 10.7729L9.22601 9.77613M5.13432 8.13646L1.87791 8.29152C1.66112 8.30185 1.55955 8.56455 1.71302 8.71802L7.08312 14.0881C7.5895 14.5945 8.4105 14.5945 8.91688 14.0881L12.4879 10.5171" stroke="white" stroke-width="1.25" stroke-linejoin="bevel"/>
</svg>
