<svg viewBox="267.484 209.631 70.961 26.667" xmlns="http://www.w3.org/2000/svg">
  <path fill-rule="evenodd" clip-rule="evenodd" d="M 295.778 217.965 C 296.33 217.965 296.778 218.412 296.778 218.965 L 296.778 221.965 L 299.778 221.965 C 300.33 221.965 300.778 222.412 300.778 222.965 C 300.778 223.517 300.33 223.965 299.778 223.965 L 296.778 223.965 L 296.778 226.965 C 296.778 227.517 296.33 227.965 295.778 227.965 C 295.226 227.965 294.778 227.517 294.778 226.965 L 294.778 223.965 L 291.778 223.965 C 291.226 223.965 290.778 223.517 290.778 222.965 C 290.778 222.412 291.226 221.965 291.778 221.965 L 294.778 221.965 L 294.778 218.965 C 294.778 218.412 295.226 217.965 295.778 217.965 Z" fill="white" fill-opacity="0.5"/>
  <path fill-rule="evenodd" clip-rule="evenodd" d="M 314.278 211.298 C 313.818 211.298 313.445 211.671 313.445 212.131 L 313.445 230.465 L 311.778 230.465 L 311.778 212.131 C 311.778 210.751 312.897 209.631 314.278 209.631 L 336.605 209.631 C 337.719 209.631 338.277 210.978 337.489 211.765 L 323.738 225.517 L 327.611 225.517 L 327.611 223.798 L 329.278 223.798 L 329.278 225.933 C 329.278 226.624 328.718 227.183 328.028 227.183 L 322.071 227.183 L 319.206 230.048 L 332.195 230.048 L 332.195 219.631 L 333.861 219.631 L 333.861 230.048 C 333.861 230.969 333.115 231.715 332.195 231.715 L 317.54 231.715 L 314.623 234.631 L 335.945 234.631 C 336.405 234.631 336.778 234.258 336.778 233.798 L 336.778 215.465 L 338.445 215.465 L 338.445 233.798 C 338.445 235.179 337.325 236.298 335.945 236.298 L 313.617 236.298 C 312.503 236.298 311.946 234.952 312.733 234.164 L 326.433 220.465 L 322.611 220.465 L 322.611 222.131 L 320.945 222.131 L 320.945 220.048 C 320.945 219.358 321.504 218.798 322.195 218.798 L 328.099 218.798 L 331.016 215.881 L 318.028 215.881 L 318.028 226.298 L 316.361 226.298 L 316.361 215.881 C 316.361 214.961 317.107 214.215 318.028 214.215 L 332.683 214.215 L 335.599 211.298 L 314.278 211.298 Z" fill="white"/>
  <path fill-rule="evenodd" clip-rule="evenodd" d="M 270.335 221.387 L 274.745 213.748 L 274.745 209.754 L 267.617 222.116 L 271.895 224.589 L 267.484 232.206 L 267.484 236.223 L 274.612 223.861 L 270.335 221.387 Z" fill="white"/>
  <path d="M 274.628 223.861 L 274.628 219.857 L 280.484 209.754 L 280.484 232.206 L 278.489 236.223 L 278.489 217.188" fill="white"/>
</svg>
