<svg xmlns="http://www.w3.org/2000/svg" width="16" height="16" fill="none"><g fill="#000" clip-path="url(#a)"><path fill-opacity=".5" stroke="#000" stroke-linecap="round" stroke-linejoin="round" stroke-width="1.5" d="M5.705 9.311a1.64 1.64 0 0 0 1.64-1.639c0-.905-.328-1.311-.656-1.967C5.986 4.3 6.542 3.047 8 1.771c.328 1.64 1.312 3.213 2.623 4.262 1.311 1.05 1.967 2.295 1.967 3.606a4.59 4.59 0 1 1-9.18 0c0-.756.285-1.504.656-1.967a1.64 1.64 0 0 0 1.64 1.64Z"/><path d="M2.286 4.571a1.143 1.143 0 1 0 0-2.285 1.143 1.143 0 0 0 0 2.285ZM11.429 2.286a1.143 1.143 0 1 0 0-2.286 1.143 1.143 0 0 0 0 2.286ZM14.857 5.714a1.143 1.143 0 1 0 0-2.286 1.143 1.143 0 0 0 0 2.286Z"/></g><defs><clipPath id="a"><path fill="#fff" d="M0 0h16v16H0z"/></clipPath></defs></svg>
