<svg width="8" height="8" viewBox="0 0 8 8" fill="none" xmlns="http://www.w3.org/2000/svg">
<path d="M0.730681 7.66096H1.82418V3.22145H2.88241V2.36983H1.80907V1.87095C1.80907 1.4023 2.03079 1.16546 2.50447 1.16546C2.65061 1.16546 2.79674 1.17554 2.90257 1.1957V0.389428C2.76147 0.364232 2.51455 0.339036 2.29283 0.339036C1.21444 0.339036 0.730681 0.822797 0.730681 1.85079V2.36983H0V3.22145H0.730681V7.66096Z" fill="white"/>
<path d="M3.42946 7.66096H4.51793V4.57195C4.51793 3.75056 5.01177 3.20633 5.77772 3.20633C6.5336 3.20633 6.9065 3.64474 6.9065 4.44093V7.66096H8V4.22928C8 3.01484 7.32979 2.26904 6.1607 2.26904C5.34435 2.26904 4.77996 2.64194 4.49273 3.24664H4.46754V2.35975H3.42946V7.66096Z" fill="white"/>
</svg>
