<svg width="8" height="8" viewBox="0 0 8 8" fill="none" xmlns="http://www.w3.org/2000/svg">
<path d="M7.8313 7.51338C7.8313 7.24088 7.61719 7.02676 7.34469 7.02676H5.78102C5.58637 7.02676 5.47607 6.95539 5.43714 6.8386L3.33495 0.596918C3.20519 0.207624 2.84185 0 2.4266 0H0.648823C0.382805 0 0.168694 0.214112 0.168694 0.493106C0.168694 0.765612 0.382805 0.979724 0.648823 0.979724H2.19302C2.36172 0.979724 2.47851 1.04461 2.5369 1.19384L4.6326 7.40308C4.76886 7.82482 5.08678 8 5.53447 8H7.34469C7.61719 8 7.8313 7.78589 7.8313 7.51338ZM4.76237 0.486618C4.76237 0.765612 4.97648 0.966748 5.2425 0.966748H7.34469C7.61719 0.966748 7.8313 0.759124 7.8313 0.486618C7.8313 0.207624 7.6107 0 7.34469 0H5.2425C4.96999 0 4.76237 0.214112 4.76237 0.486618Z" fill="white"/>
</svg>
