<svg width="8" height="8" viewBox="0 0 8 8" fill="none" xmlns="http://www.w3.org/2000/svg">
<path d="M3.67403 0.169014L1.12155 3.22817C1.03867 3.33521 1 3.43099 1 3.54366C1 3.79155 1.18232 3.99437 1.41436 3.99437C1.54144 3.99437 1.64641 3.95493 1.72376 3.86479L3.99448 1.14366L6.27072 3.86479C6.34254 3.95493 6.46409 4 6.58011 4C6.81768 4 7 3.79155 7 3.54366C7 3.42535 6.96133 3.32394 6.87845 3.22817L4.32597 0.16338C4.24309 0.0507042 4.12155 0 4 0C3.87293 0 3.76243 0.056338 3.67403 0.169014Z" fill="white"/>
</svg>
