<svg width="8" height="8" viewBox="0 0 8 8" fill="none" xmlns="http://www.w3.org/2000/svg">
<path d="M2.18288 8H2.81654C3.94875 8 4.30751 7.64123 4.30751 6.49039V5.44671C4.30751 4.72918 4.72685 4.30984 5.81712 4.42167V3.57833C4.72685 3.69016 4.30751 3.27548 4.30751 2.55329V1.50961C4.30751 0.358765 3.94875 0 2.81654 0H2.18288V0.638323H2.69074C3.38963 0.638323 3.52475 0.801398 3.52475 1.61211V2.85614C3.52475 3.50844 4.01398 3.94176 4.95981 3.96506V4.0396C4.01398 4.05824 3.52475 4.49155 3.52475 5.14386V6.38789C3.52475 7.1986 3.38963 7.36168 2.69074 7.36168H2.18288V8Z" fill="white"/>
</svg>
