<svg width="8" height="8" viewBox="0 0 8 8" fill="none" xmlns="http://www.w3.org/2000/svg">
<path d="M2.88955 5.51642H5.11045C5.67881 5.51642 5.97015 5.19164 5.97015 4.65672V4.06448H7.33612C7.68 4.06448 7.95701 3.8591 7.95701 3.54388C7.95701 3.34806 7.85672 3.2 7.67045 3.03761L4.48 0.229254C4.33672 0.100299 4.1791 0 3.99761 0C3.81612 0 3.66328 0.100299 3.52 0.229254L0.329551 3.04239C0.13373 3.21433 0.042984 3.34806 0.042984 3.54388C0.042984 3.8591 0.319999 4.06448 0.66388 4.06448H2.02507V4.65672C2.02507 5.19164 2.32119 5.51642 2.88955 5.51642ZM2.96119 4.87642C2.83224 4.87642 2.74149 4.78567 2.74149 4.65672V3.55343C2.74149 3.45791 2.70328 3.4197 2.61254 3.4197H1.00298C0.98388 3.4197 0.974327 3.41015 0.974327 3.39582C0.974327 3.38627 0.979103 3.37672 0.988656 3.36716L3.94985 0.802388C3.96418 0.78806 3.98328 0.783284 3.99761 0.783284C4.01672 0.783284 4.03104 0.78806 4.04537 0.802388L7.01134 3.36716C7.02089 3.37672 7.02567 3.38627 7.02567 3.39582C7.02567 3.41015 7.01612 3.4197 6.99701 3.4197H5.38746C5.29194 3.4197 5.25851 3.45791 5.25851 3.55343V4.65672C5.25851 4.7809 5.16298 4.87642 5.0388 4.87642H2.96119ZM2.71283 8H5.25373C5.71701 8 5.9797 7.74209 5.9797 7.26925V6.70567C5.9797 6.23284 5.71701 5.97493 5.25373 5.97493H2.71283C2.24478 5.97493 1.98209 6.23761 1.98209 6.70567V7.26925C1.98209 7.73731 2.24478 8 2.71283 8ZM2.81313 7.39821C2.68895 7.39821 2.62686 7.33134 2.62686 7.20716V6.76776C2.62686 6.64358 2.68895 6.57194 2.81313 6.57194H5.14866C5.27283 6.57194 5.3397 6.64358 5.3397 6.76776V7.20716C5.3397 7.33134 5.27283 7.39821 5.14866 7.39821H2.81313Z" fill="white"/>
</svg>
