<svg width="8" height="8" viewBox="0 0 8 8" fill="none" xmlns="http://www.w3.org/2000/svg">
<path d="M6.17533 6.57564V4.99302H7.46005C7.74554 4.99302 8 4.73235 8 4.41583C8 4.26687 7.95035 4.14895 7.85105 4.04965L4.42514 0.67339C4.31342 0.555469 4.16447 0.487199 4.0031 0.487199C3.84174 0.487199 3.69278 0.549263 3.57486 0.67339L0.142746 4.04965C0.0372382 4.14895 0 4.26687 0 4.41583C0 4.73235 0.248254 4.99302 0.533747 4.99302H1.81846V6.57564C1.81846 7.13421 2.19085 7.5128 2.74321 7.5128H5.21334C5.80295 7.5128 6.17533 7.14663 6.17533 6.57564ZM2.66874 4.23584H1.10473L4.0031 1.4678L6.86424 4.23584H5.32506V6.43289C5.32506 6.54461 5.23196 6.6377 5.10784 6.6377H2.88596C2.76804 6.6377 2.66874 6.54461 2.66874 6.43289V4.23584Z" fill="white"/>
</svg>
