<svg width="8" height="8" viewBox="0 0 8 8" fill="none" xmlns="http://www.w3.org/2000/svg">
<path d="M4 0C6.20937 0 8 1.79063 8 4C8 6.20937 6.20937 8 4 8C1.79063 8 0 6.20937 0 4C0 1.79063 1.79063 0 4 0ZM4 7.25C4.11563 7.25 4.40781 7.1375 4.74375 6.49375C4.88125 6.21719 4.98594 5.88125 5.0875 5.5H2.9125C3 5.88125 3.11875 6.21719 3.25625 6.49375C3.57812 7.1375 3.88437 7.25 4 7.25ZM2.78906 4.75H5.21094C5.23594 4.51094 5.25 4.25938 5.25 4C5.25 3.74062 5.23594 3.48906 5.21094 3.25H2.78906C2.76406 3.48906 2.75 3.74062 2.75 4C2.75 4.25938 2.76406 4.51094 2.78906 4.75ZM5.0875 2.5C4.98594 2.11875 4.88125 1.78281 4.74375 1.50703C4.40781 0.862812 4.11563 0.75 4 0.75C3.88437 0.75 3.57812 0.862812 3.25625 1.50703C3.11875 1.78281 3 2.11875 2.9125 2.5H5.0875ZM5.96562 3.25C5.9875 3.49219 6 3.74375 6 4C6 4.25625 5.9875 4.50781 5.96562 4.75H7.1625C7.22031 4.50938 7.25 4.25781 7.25 4C7.25 3.74219 7.22031 3.49062 7.1625 3.25H5.96562V3.25ZM5.34531 1.04078C5.56563 1.44156 5.74063 1.93906 5.85469 2.5H6.88438C6.55 1.85781 6.00625 1.34188 5.34531 1.04078ZM2.65469 1.04062C1.99375 1.34172 1.45063 1.85766 1.11609 2.49984H2.14531C2.25938 1.93891 2.43437 1.44141 2.65469 1.04062V1.04062ZM0.75 3.99998C0.75 4.2578 0.780156 4.50936 0.837031 4.74998H2.03437C2.0125 4.5078 2 4.25623 2 3.99998C2 3.74373 2.0125 3.49217 2.03437 3.24998H0.837031C0.780156 3.49061 0.75 3.74217 0.75 3.99998V3.99998ZM6.88438 5.49998H5.85469C5.74063 6.06092 5.56563 6.5578 5.34531 6.95936C6.00625 6.6578 6.55 6.14217 6.88438 5.49998ZM2.14531 5.49998H1.11609C1.45063 6.14217 1.99375 6.6578 2.65469 6.95936C2.43437 6.5578 2.25938 6.06092 2.14531 5.49998Z" fill="white"/>
</svg>
