<svg width="8" height="8" viewBox="0 0 8 8" fill="none" xmlns="http://www.w3.org/2000/svg">
<path d="M7.99028 6.43239C7.99028 5.57733 7.29069 4.87773 6.42915 4.87773H5.69069V3.11579H6.42915C7.29069 3.11579 7.99028 2.41619 7.99028 1.56761C7.99028 0.699595 7.29069 0 6.42915 0C5.58704 0 4.88745 0.706073 4.88745 1.56761V2.28664H3.10607V1.56761C3.10607 0.706073 2.41296 0 1.56437 0C0.702834 0 0.00971651 0.699595 0.00971651 1.56761C0.00971651 2.42267 0.709312 3.11579 1.56437 3.11579H2.29636V4.87773H1.56437C0.702834 4.87773 0.00971651 5.57733 0.00971651 6.43239C0.00971651 7.29393 0.709312 8 1.56437 8C2.4 8 3.10607 7.28745 3.10607 6.43239V5.70688H4.88745V6.43239C4.88745 7.28745 5.59352 8 6.42915 8C7.29069 8 7.99028 7.29393 7.99028 6.43239ZM1.56437 2.28664C1.15628 2.28664 0.819433 1.96275 0.819433 1.56761C0.819433 1.15951 1.1498 0.835628 1.56437 0.835628C1.96599 0.835628 2.29636 1.16599 2.29636 1.56761V2.28664H1.56437ZM5.69069 1.56761C5.69069 1.16599 6.02753 0.835628 6.42915 0.835628C6.84372 0.835628 7.17409 1.15951 7.17409 1.56761C7.17409 1.96275 6.83725 2.28664 6.42915 2.28664H5.69069V1.56761ZM3.10607 4.87773V3.11579H4.88745V4.87773H3.10607ZM5.69069 6.43239V5.70688H6.42915C6.83725 5.70688 7.17409 6.03077 7.17409 6.43239C7.17409 6.84049 6.84372 7.15789 6.42915 7.15789C6.02753 7.15789 5.69069 6.82753 5.69069 6.43239ZM1.56437 7.15789C1.1498 7.15789 0.819433 6.84049 0.819433 6.43239C0.819433 6.03077 1.15628 5.70688 1.56437 5.70688H2.29636V6.43239C2.29636 6.82753 1.96599 7.15789 1.56437 7.15789Z" fill="white"/>
</svg>
