<svg width="8" height="8" viewBox="0 0 8 8" fill="none" xmlns="http://www.w3.org/2000/svg">
<path d="M5.81712 8V7.36168H5.30926C4.61037 7.36168 4.47525 7.1986 4.47525 6.38789V5.14386C4.47525 4.49155 3.98602 4.05824 3.04019 4.0396V3.96506C3.98602 3.94176 4.47525 3.50844 4.47525 2.85614V1.61211C4.47525 0.801398 4.61037 0.638323 5.30926 0.638323H5.81712V0H5.18346C4.05125 0 3.69249 0.358765 3.69249 1.50961V2.55329C3.69249 3.27548 3.27315 3.69016 2.18288 3.57833V4.42167C3.27315 4.30984 3.69249 4.72918 3.69249 5.44671V6.49039C3.69249 7.64123 4.05125 8 5.18346 8H5.81712Z" fill="white"/>
</svg>
